<svg width="20" height="21" viewBox="0 0 20 21" fill="none" xmlns="http://www.w3.org/2000/svg">
<g clip-path="url(#clip0_186_2120)">
<path d="M11.9165 10.8627C11.8971 10.8433 11.8817 10.8203 11.8712 10.795C11.8607 10.7697 11.8553 10.7426 11.8553 10.7152C11.8553 10.6878 11.8607 10.6606 11.8712 10.6353C11.8817 10.61 11.8971 10.587 11.9165 10.5677L19.6357 2.84935C19.8701 2.61463 20.0016 2.29642 20.0014 1.96471C20.0012 1.63301 19.8692 1.31498 19.6344 1.0806C19.3997 0.846211 19.0815 0.714667 18.7498 0.714901C18.4181 0.715136 18.1001 0.84713 17.8657 1.08185L10.1474 8.79685C10.128 8.81625 10.105 8.83164 10.0797 8.84214C10.0544 8.85265 10.0273 8.85805 9.99986 8.85805C9.97246 8.85805 9.94532 8.85265 9.92001 8.84214C9.8947 8.83164 9.87171 8.81625 9.85236 8.79685L2.13403 1.08185C2.01797 0.965736 1.88018 0.873621 1.72853 0.810762C1.57687 0.747902 1.41432 0.715529 1.25016 0.715491C0.918608 0.715412 0.600607 0.847045 0.366112 1.08143C0.131616 1.31581 -0.000165966 1.63375 -0.000244106 1.9653C-0.000322246 2.29685 0.13131 2.61485 0.365695 2.84935L8.08319 10.5677C8.10259 10.587 8.11799 10.61 8.12849 10.6353C8.13899 10.6606 8.1444 10.6878 8.1444 10.7152C8.1444 10.7426 8.13899 10.7697 8.12849 10.795C8.11799 10.8203 8.10259 10.8433 8.08319 10.8627L0.365695 18.5818C0.249639 18.698 0.15759 18.8358 0.0948018 18.9875C0.0320138 19.1392 -0.000282797 19.3017 -0.000244106 19.4659C-0.000165966 19.7974 0.131616 20.1154 0.366112 20.3498C0.482222 20.4658 0.620054 20.5579 0.771739 20.6207C0.923424 20.6834 1.08599 20.7157 1.25016 20.7157C1.5817 20.7156 1.89964 20.5838 2.13403 20.3493L9.85236 12.6302C9.87171 12.6108 9.8947 12.5954 9.92001 12.5849C9.94532 12.5744 9.97246 12.569 9.99986 12.569C10.0273 12.569 10.0544 12.5744 10.0797 12.5849C10.105 12.5954 10.128 12.6108 10.1474 12.6302L17.8657 20.3493C18.1001 20.5838 18.418 20.7156 18.7496 20.7157C19.0811 20.7158 19.3991 20.5841 19.6336 20.3498C19.8681 20.1154 19.9999 19.7974 20 19.4659C20 19.1343 19.8684 18.8163 19.634 18.5818L11.9165 10.8627Z" fill="#000003"/>
</g>
<defs>
<clipPath id="clip0_186_2120">
<rect width="20" height="20" fill="white" transform="translate(0 0.713234)"/>
</clipPath>
</defs>
</svg>
