<svg width="100%" height="100%" viewBox="0 0 176 46" fill="none" xmlns="http://www.w3.org/2000/svg">
<path fill-rule="evenodd" clip-rule="evenodd" d="M96.7104 23.5253C95.8326 23.5253 95.1119 23.2296 94.5575 22.629C93.9939 22.0376 93.7166 21.2615 93.7166 20.3005C93.7166 19.358 93.9939 18.5819 94.5575 17.9813C95.1211 17.3807 95.8418 17.0758 96.7104 17.0758C97.5327 17.0758 98.2535 17.3807 98.8541 17.9905C99.4547 18.6003 99.7596 19.3673 99.7596 20.3005C99.7596 21.243 99.4547 22.0192 98.8541 22.6198C98.2535 23.2204 97.5327 23.5253 96.7104 23.5253ZM163.229 26.5191L157.205 19.9956L162.656 14.0727H157.87L153.925 18.3139H153.38V10.4044H149.416V26.5191H153.38V22.0284H154.1L158.138 26.5191H163.229ZM140.222 23.5253C139.344 23.5253 138.623 23.2296 138.069 22.629C137.505 22.0376 137.228 21.2615 137.228 20.3005C137.228 19.358 137.505 18.5819 138.069 17.9813C138.632 17.3807 139.353 17.0758 140.222 17.0758C141.044 17.0758 141.765 17.3807 142.365 17.9905C142.966 18.6003 143.271 19.3673 143.271 20.3005C143.271 21.243 142.966 22.0192 142.365 22.6198C141.765 23.2204 141.053 23.5253 140.222 23.5253ZM126.814 13.7031C125.262 13.7031 123.978 14.2206 122.971 15.2647V10.4044H119.007V26.5191H122.971V20.744C122.971 19.589 123.202 18.7205 123.654 18.1384C124.107 17.5562 124.735 17.2698 125.53 17.2698C126.177 17.2698 126.694 17.5008 127.092 17.9535C127.489 18.4063 127.683 18.9977 127.683 19.7276V26.5191H131.628V18.8868C131.628 17.3345 131.185 16.0778 130.298 15.1261C129.42 14.1836 128.256 13.7031 126.814 13.7031ZM105.664 23.2758C105.858 24.4862 106.496 25.3918 107.558 25.9924C108.621 26.593 109.942 26.8979 111.513 26.8979C113.195 26.8979 114.562 26.5375 115.606 25.8076C116.65 25.0776 117.168 24.0427 117.168 22.7122C117.168 21.7697 116.881 20.975 116.299 20.319C115.717 19.6629 114.858 19.2194 113.721 18.9699L110.792 18.3786C110.164 18.2492 109.85 17.9536 109.85 17.51C109.85 17.2421 109.961 17.0203 110.182 16.8263C110.404 16.6322 110.764 16.5398 111.263 16.5398C111.846 16.5398 112.317 16.6784 112.686 16.9649C113.056 17.2421 113.278 17.5932 113.342 18.009L116.965 17.2883C116.715 16.1979 116.096 15.3294 115.089 14.6826C114.091 14.0358 112.825 13.7124 111.31 13.7124C109.72 13.7124 108.436 14.1004 107.438 14.8674C106.449 15.6343 105.95 16.6599 105.95 17.9258C105.95 19.8939 107.161 21.0952 109.573 21.5479L112.104 22.0469C112.927 22.1947 113.342 22.4996 113.342 22.9616C113.342 23.2388 113.195 23.4791 112.908 23.6639C112.622 23.8579 112.224 23.9503 111.735 23.9503C110.432 23.9503 109.693 23.4606 109.526 22.4904L105.664 23.2758ZM168.783 16.9094C169.374 16.9094 169.901 17.0757 170.344 17.4084C170.788 17.741 171.102 18.2215 171.287 18.8683H166.158C166.343 18.2585 166.676 17.778 167.175 17.4269C167.674 17.085 168.21 16.9094 168.783 16.9094ZM175.204 20.282V21.2985H166.085C166.251 22.0377 166.574 22.629 167.055 23.0541C167.535 23.4791 168.108 23.7008 168.764 23.7008C170.002 23.7008 170.889 23.2204 171.416 22.2594L174.937 22.9801C174.41 24.2645 173.615 25.2347 172.543 25.8908C171.481 26.5468 170.215 26.8702 168.764 26.8702C166.935 26.8702 165.382 26.2511 164.107 25.0222C162.832 23.7933 162.204 22.2132 162.204 20.2728C162.204 18.3601 162.841 16.7801 164.107 15.5419C165.382 14.3037 166.944 13.6846 168.792 13.6846C170.594 13.6846 172.1 14.2853 173.329 15.4957C174.539 16.7062 175.167 18.2954 175.204 20.282ZM147.244 14.0727H143.28V15.0614C142.273 14.1559 140.979 13.6939 139.409 13.6939C137.727 13.6939 136.285 14.313 135.103 15.5512C133.92 16.7893 133.329 18.3693 133.329 20.2913C133.329 22.2224 133.92 23.8117 135.103 25.0407C136.285 26.2696 137.718 26.8887 139.409 26.8887C140.979 26.8887 142.264 26.4359 143.28 25.5211V26.5098H147.244V14.0727ZM56.0727 23.5253C55.1949 23.5253 54.4742 23.2296 53.9198 22.629C53.3562 22.0376 53.079 21.2615 53.079 20.3005C53.079 19.358 53.3562 18.5819 53.9198 17.9813C54.4835 17.3807 55.2042 17.0758 56.0727 17.0758C56.8951 17.0758 57.6158 17.3807 58.2164 17.9905C58.817 18.6003 59.122 19.3673 59.122 20.3005C59.122 21.243 58.817 22.0192 58.2164 22.6198C57.6158 23.2204 56.9043 23.5253 56.0727 23.5253ZM63.0952 10.4044H59.1312V15.0614C58.124 14.1559 56.8304 13.6939 55.2596 13.6939C53.5687 13.6939 52.1365 14.313 50.9538 15.5512C49.771 16.7893 49.1797 18.3693 49.1797 20.2913C49.1797 22.2224 49.771 23.8117 50.9538 25.0407C52.1365 26.2696 53.5687 26.8887 55.2596 26.8887C56.8304 26.8887 58.1148 26.4359 59.1312 25.5211V26.5098H63.0952V10.4044ZM71.7346 23.5253C70.8568 23.5253 70.1361 23.2296 69.5817 22.629C69.018 22.0376 68.7408 21.2615 68.7408 20.3005C68.7408 19.358 69.018 18.5819 69.5817 17.9813C70.1453 17.3807 70.866 17.0758 71.7346 17.0758C72.557 17.0758 73.2777 17.3807 73.8783 17.9905C74.4789 18.6003 74.7838 19.3673 74.7838 20.3005C74.7838 21.243 74.4789 22.0192 73.8783 22.6198C73.2777 23.2204 72.557 23.5253 71.7346 23.5253ZM78.7478 14.0727H74.7838V15.0614C73.7766 14.1559 72.483 13.6939 70.9122 13.6939C69.2305 13.6939 67.7891 14.313 66.6064 15.5512C65.4236 16.7893 64.8323 18.3693 64.8323 20.2913C64.8323 22.2224 65.4236 23.8117 66.6064 25.0407C67.7891 26.2696 69.2213 26.8887 70.9122 26.8887C72.483 26.8887 73.7674 26.4359 74.7838 25.5211V26.5098H78.7478V14.0727ZM88.5607 23.4883H86.5556C85.4468 23.4883 84.8924 22.8877 84.8924 21.6773V17.2236H88.5607V14.0727H84.8924V10.4044H80.9284V11.8274V14.0727V17.2236V19.5798V21.7974C80.9284 23.4144 81.3627 24.6526 82.2313 25.4934C83.0998 26.3343 84.3195 26.7593 85.8903 26.7593C86.1491 26.7593 87.5443 26.7316 88.5699 26.7408V23.4883H88.5607ZM103.724 14.0727H99.7596V15.0614C98.7525 14.1559 97.4589 13.6939 95.8881 13.6939C94.2064 13.6939 92.7649 14.313 91.5822 15.5512C90.3994 16.7893 89.8081 18.3693 89.8081 20.2913C89.8081 22.2224 90.3994 23.8117 91.5822 25.0407C92.7649 26.2696 94.1971 26.8887 95.8881 26.8887C97.4589 26.8887 98.7432 26.4359 99.7596 25.5211V26.5098H103.724V14.0727Z" fill="white"/>
<path fill-rule="evenodd" clip-rule="evenodd" d="M29.9517 9.50817C29.9702 11.3007 28.5195 12.7699 26.727 12.7792C24.9344 12.7976 23.4652 11.3469 23.456 9.55436L23.4006 3.27115C23.3821 1.47859 24.8328 0.00941465 26.6253 0.000174623C28.4179 -0.0183054 29.8871 1.43237 29.8963 3.22494L29.9517 9.50817Z" fill="#25E85F"/>
<path fill-rule="evenodd" clip-rule="evenodd" d="M36.1609 19.1732C34.4515 19.7369 32.6128 18.8036 32.0491 17.0942C31.4855 15.3848 32.4187 13.5461 34.1281 12.9824L38.0829 11.6796C39.7923 11.1159 41.631 12.0492 42.1947 13.7586C42.7583 15.468 41.8251 17.3067 40.1157 17.8704L36.1609 19.1732Z" fill="#25E85F"/>
<path fill-rule="evenodd" clip-rule="evenodd" d="M32.1788 28.4318C30.8482 27.2213 30.7558 25.1608 31.9663 23.8302C33.1767 22.4996 35.2372 22.4072 36.5678 23.6177L41.234 27.8773C42.5646 29.0878 42.657 31.1483 41.4465 32.4789C40.2361 33.8094 38.1756 33.9018 36.845 32.6914L32.1788 28.4318Z" fill="#25E85F"/>
<path fill-rule="evenodd" clip-rule="evenodd" d="M23.5763 31.0744C23.5579 29.2818 25.0085 27.8127 26.8011 27.8034C28.5937 27.7849 30.0628 29.2357 30.0721 31.0282L30.1645 42.2641C30.1829 44.0566 28.7323 45.5258 26.9397 45.535C25.1471 45.5535 23.678 44.1029 23.6687 42.3103L23.5763 31.0744Z" fill="#25E85F"/>
<path fill-rule="evenodd" clip-rule="evenodd" d="M15.879 26.7501C17.034 25.3733 19.0853 25.1885 20.462 26.3435C21.8388 27.4985 22.0236 29.5498 20.8686 30.9266L11.1481 42.5598C9.99307 43.9365 7.94179 44.1213 6.56503 42.9663C5.18826 41.8113 5.00346 39.76 6.15847 38.3833L15.879 26.7501Z" fill="#25E85F"/>
<path fill-rule="evenodd" clip-rule="evenodd" d="M13.6984 17.9166C15.4633 17.6024 17.1542 18.7759 17.4683 20.5408C17.7825 22.3056 16.609 23.9965 14.8442 24.3107L3.82082 26.325C2.05597 26.6392 0.365029 25.4657 0.0508675 23.7008C-0.263294 21.936 0.910187 20.2451 2.67503 19.9309L13.6984 17.9166Z" fill="#25E85F"/>
<path fill-rule="evenodd" clip-rule="evenodd" d="M19.1684 9.94247C20.6653 10.9312 21.0811 12.9547 20.0832 14.4516C19.0945 15.9485 17.0709 16.3643 15.574 15.3664L6.16767 9.14781C4.67079 8.15913 4.255 6.13559 5.25292 4.6387C6.2416 3.14182 8.26517 2.726 9.76206 3.72392L19.1684 9.94247Z" fill="#25E85F"/>
</svg>
