<svg width="20" height="21" viewBox="0 0 20 21" fill="none" xmlns="http://www.w3.org/2000/svg">
<path d="M18.7501 2.79657H1.25008C0.789844 2.79657 0.416748 3.16966 0.416748 3.6299V4.46323C0.416748 4.92347 0.789844 5.29657 1.25008 5.29657H18.7501C19.2103 5.29657 19.5834 4.92347 19.5834 4.46323V3.6299C19.5834 3.16966 19.2103 2.79657 18.7501 2.79657Z" fill="#fff"/>
<path d="M18.7501 9.46323H1.25008C0.789844 9.46323 0.416748 9.83633 0.416748 10.2966V11.1299C0.416748 11.5901 0.789844 11.9632 1.25008 11.9632H18.7501C19.2103 11.9632 19.5834 11.5901 19.5834 11.1299V10.2966C19.5834 9.83633 19.2103 9.46323 18.7501 9.46323Z" fill="#fff"/>
<path d="M18.7501 16.1299H1.25008C0.789844 16.1299 0.416748 16.503 0.416748 16.9632V17.7966C0.416748 18.2568 0.789844 18.6299 1.25008 18.6299H18.7501C19.2103 18.6299 19.5834 18.2568 19.5834 17.7966V16.9632C19.5834 16.503 19.2103 16.1299 18.7501 16.1299Z" fill="#fff"/>
</svg>
