<svg width="100%" height="100%" viewBox="0 0 185 41" fill="none" xmlns="http://www.w3.org/2000/svg">
<path fill-rule="evenodd" clip-rule="evenodd" d="M26.7753 24.7876C26.3484 23.4712 27.0688 22.0659 28.3763 21.639C29.6926 21.2121 31.0979 21.9325 31.5248 23.24L34.5044 32.3477C34.9313 33.664 34.2109 35.0693 32.9034 35.4962C32.3164 35.6919 31.7116 35.6474 31.178 35.425L22.2926 32.4633L12.0909 39.5164C10.9525 40.2991 9.40489 40.0145 8.6222 38.8849C8.1597 38.2178 8.07074 37.4085 8.30199 36.6969L11.6996 26.3174L1.71139 22.9909C0.40394 22.5551 -0.307597 21.1498 0.12822 19.8424C0.412836 18.9707 1.14215 18.3659 1.97821 18.1881V18.1791L15.2929 15.3508L19.7489 1.72482C20.1758 0.408475 21.5811 -0.30308 22.8974 0.123843C23.689 0.381776 24.2583 0.995494 24.4984 1.72482L28.0828 12.638L39.3429 10.2455C40.6948 9.96087 42.02 10.8236 42.3046 12.1755C42.5893 13.5275 41.7265 14.8527 40.3746 15.1373L24.7208 18.4638C24.7208 18.4638 22.515 11.7219 22.1236 10.5301C21.3854 12.7981 19.153 19.6467 19.1619 19.62L11.9931 21.1676L18.0234 23.1243L15.364 31.2092L21.5011 26.9667L28.2251 29.1991L26.7753 24.7876Z" fill="#25E85F"/>
<path fill-rule="evenodd" clip-rule="evenodd" d="M173.13 28.4609L167.384 22.2438L172.587 16.5871H168.025L164.262 20.634H163.738V13.0917H159.949V28.4698H163.738V24.1917H164.422L168.282 28.4698H173.13V28.4609ZM83.2714 10.9571C82.6399 10.9571 82.124 11.1616 81.7149 11.5796C81.3058 11.9977 81.1012 12.5047 81.1012 13.1006C81.1012 13.6965 81.3058 14.1946 81.7149 14.5948C82.124 14.995 82.6399 15.1996 83.2714 15.1996C83.9029 15.1996 84.4277 14.995 84.8368 14.5948C85.2548 14.1946 85.4594 13.6965 85.4594 13.1006C85.4594 12.5224 85.2548 12.0155 84.8368 11.5885C84.4277 11.1705 83.9029 10.9571 83.2714 10.9571ZM85.157 28.4342V16.596H85.1481V16.5693H81.368V28.4342H81.3858H85.1481H85.157ZM178.431 19.291C179 19.291 179.498 19.451 179.916 19.7623C180.343 20.0736 180.645 20.545 180.814 21.1587H175.923C176.092 20.5717 176.421 20.1181 176.892 19.789C177.372 19.451 177.879 19.291 178.431 19.291ZM184.55 22.5018V23.4712H175.851C176.012 24.1828 176.314 24.7431 176.776 25.1522C177.23 25.5614 177.782 25.766 178.404 25.766C179.587 25.766 180.432 25.3123 180.93 24.3962L184.283 25.0811C183.776 26.3085 183.02 27.2335 182.006 27.8561C180.992 28.4787 179.792 28.79 178.404 28.79C176.652 28.79 175.176 28.203 173.957 27.0289C172.747 25.8549 172.134 24.3429 172.134 22.5018C172.134 20.6695 172.738 19.1664 173.957 17.9835C175.167 16.8006 176.661 16.2136 178.422 16.2136C180.138 16.2136 181.579 16.7917 182.744 17.939C183.927 19.0953 184.523 20.6162 184.55 22.5018ZM53.0755 16.4003C51.3233 16.4003 49.9625 17.2097 48.9841 18.8373V16.5693H45.2041V28.4342H48.9841V24.7253C48.9841 21.7635 50.345 20.2782 53.0755 20.2782H53.7603V16.4626C53.5469 16.427 53.3245 16.4003 53.0755 16.4003ZM60.5822 19.291C61.1514 19.291 61.6495 19.451 62.0676 19.7623C62.4945 20.0736 62.7969 20.545 62.9659 21.1587H58.0741C58.2519 20.5717 58.5721 20.1181 59.0435 19.789C59.5149 19.451 60.0308 19.291 60.5822 19.291ZM66.7014 22.5018C66.6659 20.6073 66.07 19.0864 64.9048 17.939C63.7397 16.7917 62.2988 16.2136 60.5822 16.2136C58.8211 16.2136 57.3269 16.8006 56.1173 17.9835C54.9077 19.1664 54.294 20.6695 54.294 22.5018C54.294 24.3429 54.8988 25.8549 56.1173 27.0289C57.3269 28.203 58.8123 28.79 60.5644 28.79C61.9519 28.79 63.1527 28.4787 64.1666 27.8561C65.1805 27.2335 65.9455 26.3085 66.4435 25.0811L63.0904 24.3962C62.5834 25.3123 61.7474 25.766 60.5644 25.766C59.9329 25.766 59.3904 25.5614 58.9368 25.1522C58.4832 24.7431 58.1719 24.1828 58.0118 23.4712H66.7103V22.5018H66.7014ZM80.114 16.5426L75.1954 28.4342H71.3442L66.4257 16.5426H70.4193L73.2832 23.8715L76.1204 16.5426H80.114ZM93.1707 19.291C93.7399 19.291 94.238 19.451 94.656 19.7623C95.083 20.0736 95.3764 20.545 95.5543 21.1587H90.6625C90.8404 20.5717 91.1606 20.1181 91.632 19.789C92.1034 19.451 92.6192 19.291 93.1707 19.291ZM99.2899 22.5018C99.2543 20.6073 98.6584 19.0864 97.4933 17.939C96.3281 16.7917 94.8873 16.2136 93.1707 16.2136C91.4096 16.2136 89.9154 16.8006 88.7058 17.9835C87.4962 19.1664 86.8825 20.6695 86.8825 22.5018C86.8825 24.3429 87.4873 25.8549 88.7058 27.0289C89.9154 28.203 91.4007 28.79 93.1529 28.79C94.5404 28.79 95.7411 28.4787 96.7551 27.8561C97.769 27.2335 98.5339 26.3085 99.032 25.0811L95.6789 24.3962C95.1719 25.3123 94.3358 25.766 93.1529 25.766C92.5214 25.766 91.9788 25.5614 91.5252 25.1522C91.0716 24.7431 90.7603 24.1828 90.6002 23.4712H99.2988V22.5018H99.2899ZM117.825 16.5693H114.117L112.178 22.9731L109.936 16.5693H107.268L105.027 22.9554L103.088 16.5693H99.3789L103.186 28.4609H106.468L108.62 22.0304L110.746 28.4609H114.028L117.825 16.5693ZM118.208 25.3568C118.395 26.5042 119 27.3758 120.013 27.945C121.027 28.5231 122.29 28.8078 123.785 28.8078C125.394 28.8078 126.693 28.4609 127.689 27.7672C128.685 27.0734 129.183 26.0861 129.183 24.8143C129.183 23.9159 128.908 23.151 128.356 22.5284C127.805 21.9058 126.987 21.4789 125.893 21.2388L123.1 20.6695C122.504 20.545 122.201 20.2693 122.201 19.8424C122.201 19.5934 122.308 19.371 122.522 19.1931C122.735 19.0152 123.082 18.9174 123.553 18.9174C124.105 18.9174 124.558 19.0508 124.914 19.3176C125.27 19.5845 125.475 19.9135 125.537 20.3138L128.988 19.6289C128.748 18.5883 128.152 17.7611 127.2 17.1474C126.248 16.5337 125.048 16.2224 123.589 16.2224C122.077 16.2224 120.85 16.5871 119.898 17.3253C118.955 18.0547 118.475 19.033 118.475 20.2426C118.475 22.1193 119.622 23.2667 121.926 23.6936L124.336 24.165C125.128 24.3073 125.519 24.6008 125.519 25.0366C125.519 25.3034 125.377 25.5258 125.101 25.7126C124.825 25.8905 124.452 25.9883 123.98 25.9883C122.735 25.9883 122.032 25.5258 121.872 24.5919L118.208 25.3568ZM138.398 16.2313C136.913 16.2313 135.694 16.7294 134.733 17.7256V13.0917H130.944V28.4698H134.733V22.9554C134.733 21.8525 134.947 21.0253 135.383 20.4739C135.819 19.9224 136.414 19.6467 137.17 19.6467C137.784 19.6467 138.282 19.8602 138.665 20.296C139.047 20.7318 139.234 21.2922 139.234 21.9859V28.4698H142.996V21.1765C142.996 19.6912 142.578 18.4994 141.733 17.5922C140.879 16.6849 139.768 16.2313 138.398 16.2313ZM151.188 25.597C150.352 25.597 149.667 25.3124 149.133 24.7431C148.6 24.1739 148.333 23.4357 148.333 22.5196C148.333 21.6212 148.6 20.883 149.133 20.3049C149.667 19.7268 150.352 19.4421 151.188 19.4421C151.979 19.4421 152.655 19.7357 153.233 20.3138C153.812 20.9008 154.096 21.6301 154.096 22.5107C154.096 23.409 153.812 24.1472 153.233 24.7253C152.655 25.3123 151.97 25.597 151.188 25.597ZM157.876 16.5871H154.096V17.5299C153.136 16.6582 151.908 16.2313 150.405 16.2313C148.795 16.2313 147.425 16.8183 146.305 18.0013C145.175 19.1842 144.615 20.6874 144.615 22.5196C144.615 24.3607 145.175 25.8727 146.305 27.0467C147.434 28.2208 148.804 28.8078 150.405 28.8078C151.899 28.8078 153.136 28.372 154.096 27.5092V28.452H157.876V16.5871Z" fill="white"/>
</svg>
