<svg width="116" height="48" viewBox="0 0 116 48" fill="none" xmlns="http://www.w3.org/2000/svg">
<g clip-path="url(#clip0_67_210)">
<path fill-rule="evenodd" clip-rule="evenodd" d="M18.1748 5.06917L22.731 2.43892C25.3833 0.907433 28.8061 1.82463 30.3367 4.47694C31.8682 7.1284 30.951 10.552 28.2995 12.0835L21.9428 15.7522L16.7408 18.7558L27.877 25.1855C29.5307 25.9627 30.6897 27.4976 30.9875 29.2895C31.4312 31.8078 30.1135 34.2845 27.7845 35.323L8.3478 46.5448C5.69549 48.0763 2.27277 47.1583 0.741285 44.506C-0.789352 41.8545 0.127843 38.4309 2.7793 36.9003L14.338 30.2271L3.20184 23.7983C1.54733 23.0194 0.386626 21.4836 0.0905112 19.6891C-0.350692 17.1726 0.966129 14.6976 3.29517 13.6599L18.1468 5.08529L18.1748 5.06917Z" fill="#25E85F"/>
<path fill-rule="evenodd" clip-rule="evenodd" d="M99.6647 33.0968H94.2413L89.9293 28.308H89.1632V33.0968H84.931V15.9026H89.1632V24.3406H89.7452L93.9511 19.8174H99.0563L93.2367 26.1393L99.6647 33.0968ZM105.931 22.8906C106.564 22.8906 107.118 23.0662 107.593 23.4175C108.066 23.7696 108.401 24.288 108.594 24.9735H103.135C103.328 24.3236 103.689 23.8137 104.217 23.4446C104.744 23.0747 105.315 22.8906 105.931 22.8906ZM112.762 26.477C112.727 24.3669 112.057 22.6708 110.757 21.3871C109.456 20.1042 107.848 19.4619 105.931 19.4619C103.961 19.4619 102.299 20.1212 100.947 21.4397C99.5917 22.7582 98.9155 24.4373 98.9155 26.477C98.9155 28.5346 99.5917 30.2179 100.947 31.5271C102.299 32.8371 103.953 33.493 105.904 33.493C107.452 33.493 108.792 33.1451 109.926 32.4502C111.06 31.7562 111.909 30.7228 112.471 29.3516L108.726 28.5872C108.164 29.607 107.223 30.1161 105.904 30.1161C105.201 30.1161 104.595 29.8887 104.084 29.4314C103.574 28.9741 103.232 28.3496 103.056 27.5588H112.762V26.477ZM38.25 29.6316C38.4613 30.9188 39.1358 31.8835 40.2736 32.5275C41.4105 33.1714 42.8173 33.4939 44.493 33.4939C46.2909 33.4939 47.7461 33.1061 48.8575 32.3298C49.9682 31.5543 50.5239 30.4513 50.5239 29.0224C50.5239 28.0178 50.2151 27.1668 49.5983 26.4702C48.9806 25.7736 48.0642 25.2934 46.8467 25.0287L43.7252 24.394C43.0549 24.2523 42.7206 23.9435 42.7206 23.4675C42.7206 23.1858 42.8394 22.9432 43.0778 22.7404C43.3154 22.5376 43.6989 22.4366 44.2283 22.4366C44.8451 22.4366 45.3525 22.586 45.7496 22.8855C46.1458 23.1858 46.3792 23.5558 46.4504 23.997L50.3118 23.2299C50.0479 22.0658 49.3819 21.1402 48.3145 20.4521C47.248 19.7648 45.9032 19.4203 44.2809 19.4203C42.5882 19.4203 41.212 19.831 40.154 20.6506C39.0959 21.4702 38.5665 22.5596 38.5665 23.9172C38.5665 26.0163 39.8545 27.3034 42.4287 27.7794L45.1277 28.308C46.0092 28.4675 46.4504 28.7933 46.4504 29.288C46.4504 29.5867 46.296 29.8378 45.9872 30.0414C45.6783 30.2442 45.2592 30.346 44.7306 30.346C43.3374 30.346 42.5526 29.8259 42.3761 28.7849L38.25 29.6316ZM60.8235 19.4203C59.1664 19.4203 57.7987 19.9761 56.7228 21.0876V15.9026H52.4907V33.0968H56.7228V26.9327C56.7228 25.6981 56.9655 24.7725 57.4508 24.1548C57.9362 23.5379 58.6014 23.2299 59.4481 23.2299C60.1354 23.2299 60.6911 23.4718 61.1145 23.9571C61.5379 24.4424 61.7492 25.0728 61.7492 25.8483V33.0968H65.955V24.9489C65.955 23.291 65.4833 21.9555 64.5406 20.9416C63.5963 19.9277 62.3575 19.4203 60.8235 19.4203ZM75.127 29.8964C74.1928 29.8964 73.4249 29.5782 72.8251 28.9435C72.2261 28.308 71.9265 27.4799 71.9265 26.4567C71.9265 25.4512 72.2261 24.6274 72.8251 23.9834C73.4249 23.3402 74.1928 23.0187 75.127 23.0187C76.0085 23.0187 76.7721 23.3445 77.4153 23.997C78.0584 24.6494 78.3808 25.4699 78.3808 26.4567C78.3808 27.4621 78.0584 28.2868 77.4153 28.9308C76.7721 29.5748 76.0085 29.8964 75.127 29.8964ZM82.613 19.8174H78.3808V20.8754C77.3041 19.9056 75.9288 19.4203 74.2547 19.4203C72.4551 19.4203 70.9254 20.0821 69.6654 21.404C68.4037 22.7268 67.7733 24.411 67.7733 26.4567C67.7733 28.5201 68.4037 30.2094 69.6654 31.5229C70.9254 32.8363 72.4551 33.4939 74.2547 33.4939C75.9288 33.4939 77.3041 33.0085 78.3808 32.0387V33.0968H82.613V19.8174Z" fill="#000003"/>
</g>
<defs>
<clipPath id="clip0_67_210">
<rect width="116" height="47.2862" fill="white"/>
</clipPath>
</defs>
</svg>
