<svg width="100%" height="100%" viewBox="0 0 82 34" fill="none" xmlns="http://www.w3.org/2000/svg">
<g clip-path="url(#clip0_1053_2208)">
<path fill-rule="evenodd" clip-rule="evenodd" d="M12.8477 3.58368L16.0685 1.72437C17.9434 0.641766 20.3629 1.29013 21.4449 3.16504C22.5275 5.03934 21.8791 7.45945 20.0048 8.54206L15.5113 11.1355L11.834 13.2587L19.7061 17.8038C20.8751 18.3532 21.6944 19.4382 21.9049 20.705C22.2186 22.4851 21.2872 24.2359 19.6408 24.97L5.90103 32.9027C4.02612 33.9853 1.60661 33.3363 0.524012 31.4614C-0.55799 29.5871 0.0903715 27.167 1.96468 26.085L10.1355 21.3677L2.26337 16.8232C1.0938 16.2726 0.273305 15.187 0.063982 13.9185C-0.247903 12.1395 0.682953 10.39 2.32935 9.65644L12.8279 3.59508L12.8477 3.58368Z" fill="#25E85F"/>
<path fill-rule="evenodd" clip-rule="evenodd" d="M70.4526 23.3966H66.6188L63.5708 20.0114H63.0292V23.3966H60.0375V11.242H63.0292V17.2068H63.4406L66.4137 14.0094H70.0226L65.9087 18.4784L70.4526 23.3966ZM74.882 16.1818C75.3294 16.1818 75.7211 16.306 76.057 16.5543C76.3916 16.8032 76.6286 17.1697 76.7647 17.6543H72.9057C73.0425 17.1949 73.2974 16.8344 73.6704 16.5735C74.0429 16.312 74.4466 16.1818 74.882 16.1818ZM79.7114 18.7171C79.6862 17.2254 79.213 16.0265 78.2935 15.119C77.3741 14.2122 76.2375 13.7581 74.882 13.7581C73.4899 13.7581 72.3149 14.2241 71.3589 15.1562C70.401 16.0883 69.923 17.2752 69.923 18.7171C69.923 20.1716 70.401 21.3615 71.3589 22.287C72.3149 23.213 73.4839 23.6767 74.8634 23.6767C75.9574 23.6767 76.9051 23.4308 77.7064 22.9395C78.5083 22.4489 79.108 21.7184 79.5057 20.7491L76.8583 20.2087C76.4606 20.9297 75.7955 21.2895 74.8634 21.2895C74.3662 21.2895 73.9379 21.1288 73.5769 20.8055C73.2164 20.4822 72.9741 20.0408 72.8499 19.4818H79.7114V18.7171ZM27.0388 20.9471C27.1882 21.8569 27.665 22.5389 28.4693 22.9941C29.273 23.4493 30.2674 23.6773 31.452 23.6773C32.7229 23.6773 33.7515 23.4032 34.5373 22.8544C35.3224 22.3062 35.7152 21.5265 35.7152 20.5164C35.7152 19.8063 35.4969 19.2047 35.0609 18.7123C34.6242 18.2199 33.9765 17.8804 33.1158 17.6933L30.9092 17.2446C30.4354 17.1445 30.1991 16.9262 30.1991 16.5897C30.1991 16.3905 30.283 16.219 30.4516 16.0757C30.6195 15.9323 30.8906 15.8609 31.2649 15.8609C31.7009 15.8609 32.0596 15.9665 32.3403 16.1782C32.6204 16.3905 32.7853 16.6521 32.8357 16.9639L35.5653 16.4217C35.3787 15.5988 34.9079 14.9445 34.1534 14.4581C33.3995 13.9722 32.4488 13.7287 31.302 13.7287C30.1055 13.7287 29.1326 14.019 28.3847 14.5984C27.6368 15.1778 27.2625 15.9479 27.2625 16.9076C27.2625 18.3914 28.173 19.3013 29.9927 19.6378L31.9006 20.0114C32.5238 20.1242 32.8357 20.3545 32.8357 20.7042C32.8357 20.9153 32.7265 21.0928 32.5082 21.2368C32.2899 21.3801 31.9936 21.4521 31.6199 21.4521C30.6351 21.4521 30.0803 21.0844 29.9555 20.3485L27.0388 20.9471ZM42.9959 13.7287C41.8246 13.7287 40.8577 14.1216 40.0972 14.9073V11.242H37.1055V23.3966H40.0972V19.0392C40.0972 18.1665 40.2687 17.5121 40.6118 17.0755C40.9549 16.6395 41.4251 16.4217 42.0237 16.4217C42.5095 16.4217 42.9024 16.5927 43.2017 16.9357C43.501 17.2788 43.6503 17.7245 43.6503 18.2727V23.3966H46.6234V17.6369C46.6234 16.4649 46.2899 15.5209 45.6236 14.8041C44.956 14.0874 44.0803 13.7287 42.9959 13.7287ZM53.107 21.1342C52.4467 21.1342 51.9039 20.9093 51.4798 20.4606C51.0564 20.0114 50.8447 19.426 50.8447 18.7027C50.8447 17.992 51.0564 17.4096 51.4798 16.9543C51.9039 16.4997 52.4467 16.2724 53.107 16.2724C53.7302 16.2724 54.27 16.5027 54.7246 16.9639C55.1793 17.4252 55.4072 18.0052 55.4072 18.7027C55.4072 19.4134 55.1793 19.9964 54.7246 20.4517C54.27 20.9069 53.7302 21.1342 53.107 21.1342ZM58.3989 14.0094H55.4072V14.7573C54.6461 14.0718 53.6738 13.7287 52.4904 13.7287C51.2183 13.7287 50.1369 14.1966 49.2462 15.131C48.3544 16.0661 47.9087 17.2566 47.9087 18.7027C47.9087 20.1614 48.3544 21.3555 49.2462 22.284C50.1369 23.2124 51.2183 23.6773 52.4904 23.6773C53.6738 23.6773 54.6461 23.3342 55.4072 22.6486V23.3966H58.3989V14.0094Z" fill="white"/>
</g>
<defs>
<clipPath id="clip0_1053_2208">
<rect width="82" height="33.4265" fill="white"/>
</clipPath>
</defs>
</svg>
