<svg width="14" height="14" viewBox="0 0 14 14" fill="none" xmlns="http://www.w3.org/2000/svg">
<path d="M6.99959 1.16675C4.74209 1.16675 2.91626 2.99258 2.91626 5.25008C2.91626 6.26508 3.20793 7.21591 3.73876 8.07341C4.29293 8.97175 5.02209 9.74175 5.58209 10.6401C5.85626 11.0776 6.05459 11.4859 6.26459 11.9584C6.41626 12.2792 6.53876 12.8334 6.99959 12.8334C7.46043 12.8334 7.58293 12.2792 7.72876 11.9584C7.94459 11.4859 8.13709 11.0776 8.41126 10.6401C8.97126 9.74758 9.70043 8.97758 10.2546 8.07341C10.7913 7.21591 11.0829 6.26508 11.0829 5.25008C11.0829 2.99258 9.25709 1.16675 6.99959 1.16675ZM6.99959 6.85425C6.19459 6.85425 5.54126 6.20091 5.54126 5.39591C5.54126 4.59091 6.19459 3.93758 6.99959 3.93758C7.80459 3.93758 8.45793 4.59091 8.45793 5.39591C8.45793 6.20091 7.80459 6.85425 6.99959 6.85425Z" fill="#BCBCC9"/>
</svg>
