<svg width="234" height="88" viewBox="0 0 234 88" fill="none" xmlns="http://www.w3.org/2000/svg">
<path d="M157.145 49.4063C157.145 51.0832 155.756 51.6821 154.606 51.6821C152.521 51.6821 152.282 50.628 152.282 50.1729C152.282 49.7896 152.402 49.2386 152.881 48.9272C153.36 48.6157 154.127 48.5678 155.109 48.5678H157.121L157.145 49.4063ZM152.713 45.2379C152.761 44.9026 152.929 44.5911 153.216 44.3755C153.623 44.0401 154.198 43.8964 154.893 43.8964C155.66 43.8964 156.235 44.0641 156.618 44.3755C156.953 44.7109 157.145 45.1182 157.145 45.7171V46.3878H155.085C153.863 46.3878 152.593 46.4597 151.587 47.1784C150.677 47.8252 150.15 48.8553 150.15 50.101C150.15 52.3528 151.899 53.7902 154.582 53.7902C155.684 53.7902 156.858 53.359 157.504 52.7361L157.552 53.5986H159.229V45.7171C159.229 44.4474 158.798 43.4412 157.959 42.7226C157.073 42.0279 155.995 41.6685 154.869 41.7164C153.6 41.7164 152.593 42.0518 151.779 42.7226C151.036 43.3454 150.653 44.112 150.581 45.0223L152.713 45.2379ZM108.395 49.4063C108.395 51.0832 107.029 51.6821 105.855 51.6821C103.747 51.6821 103.532 50.628 103.532 50.1729C103.532 49.7896 103.627 49.2386 104.107 48.9272C104.61 48.5918 105.352 48.5678 106.334 48.5678H108.371V49.4063H108.395ZM103.963 45.2379C104.011 44.9026 104.178 44.5911 104.466 44.3755C104.873 44.0401 105.448 43.8964 106.167 43.8964C106.933 43.8964 107.508 44.0641 107.892 44.3755C108.251 44.7109 108.419 45.1182 108.419 45.7171V46.3878H106.382C105.161 46.3878 103.891 46.4597 102.861 47.1784C101.951 47.8252 101.447 48.8553 101.447 50.101C101.447 52.3528 103.172 53.7902 105.879 53.7902C106.957 53.7902 108.155 53.359 108.802 52.7361L108.85 53.5986H110.527V45.7171C110.527 44.4474 110.096 43.4412 109.257 42.7226C108.371 42.0279 107.269 41.6685 106.167 41.7164C104.921 41.7164 103.891 42.0518 103.076 42.7226C102.334 43.3454 101.951 44.112 101.903 45.0223L103.963 45.2379ZM130.985 47.7294C130.985 49.023 130.793 50.0531 130.29 50.7478C129.859 51.3707 129.188 51.6821 128.302 51.6821C127.392 51.6821 126.745 51.3707 126.29 50.7478C125.811 50.0531 125.547 49.0469 125.547 47.7294C125.547 46.4597 125.787 45.5254 126.29 44.8067C126.745 44.1839 127.392 43.8725 128.302 43.8725C129.212 43.8725 129.859 44.1839 130.29 44.8067C130.793 45.5254 130.985 46.4597 130.985 47.7294ZM130.65 37.7397V42.6267C130.003 42.0279 129.164 41.7164 128.302 41.7404H128.278C126.865 41.6925 125.547 42.3393 124.685 43.4412C123.774 44.687 123.343 46.1962 123.415 47.7294C123.415 49.5979 123.822 51.0353 124.685 52.1133C125.547 53.2153 126.889 53.8621 128.278 53.8142H128.302C129.356 53.8142 130.41 53.2871 131.033 52.6403L131.105 53.6225H132.782V37.7637H130.65V37.7397ZM175.256 49.5979C175.232 50.2447 175.016 50.7238 174.609 51.0832C174.13 51.4904 173.531 51.6821 172.836 51.6821C171.926 51.6821 171.279 51.3707 170.824 50.7478C170.273 49.8614 170.009 48.8313 170.057 47.7773C170.057 46.4837 170.321 45.5015 170.824 44.8067C171.279 44.1839 171.926 43.8725 172.836 43.8725C173.531 43.8725 174.13 44.0641 174.609 44.4714C175.016 44.8067 175.208 45.2859 175.256 45.9327L177.316 45.8129C177.268 44.5193 176.837 43.5371 175.998 42.8184C175.136 42.0997 174.058 41.7164 172.836 41.7164C171.423 41.6685 170.057 42.2914 169.195 43.4173C168.308 44.687 167.853 46.1962 167.949 47.7533C167.949 49.574 168.356 50.9874 169.195 52.0893C170.057 53.2153 171.423 53.8381 172.836 53.7902C174.058 53.7902 175.136 53.4069 175.998 52.6882C176.837 51.9696 177.268 51.0113 177.316 49.6937L175.256 49.5979ZM166.296 51.5863C165.889 51.8737 165.386 51.8737 164.931 51.5623C164.715 51.3946 164.356 51.0353 164.356 50.3166V44.0881H166.416V41.956H164.356V39.776H162.224V41.9799H161.002V44.112H162.224V50.3405C162.224 51.8258 162.87 53.0236 163.996 53.5746C165.122 54.1256 166.488 53.9819 167.47 53.1913L167.542 53.1194L166.368 51.5144L166.296 51.5863ZM145.215 49.9573L142.939 41.956H140.951L138.675 49.9573L136.375 41.956H134.339L137.669 53.6225H139.657L141.933 45.5973L144.209 53.5986H146.197L149.527 41.932H147.491L145.215 49.9573ZM90.4517 42.7226C90.4517 43.4412 90.2361 43.9443 89.8289 44.2797C89.3498 44.639 88.5832 44.8067 87.5531 44.8067H85.1335V40.5905H87.4812C90.4517 40.6384 90.4517 42.0997 90.4517 42.7226ZM90.3799 50.8197C89.9007 51.2509 89.1581 51.4665 88.2238 51.4665H85.1335V46.9388H88.4155C89.2779 46.9628 89.9247 47.1784 90.4038 47.6096C90.859 48.0168 91.0506 48.4959 91.0506 49.0948C91.0746 49.8614 90.859 50.4124 90.3799 50.8197ZM91.41 45.7171C92.2005 44.9265 92.6317 43.8485 92.5838 42.7465C92.6557 41.5008 92.1047 40.327 91.1464 39.5364C90.0445 38.7699 88.7029 38.3866 87.3614 38.4584H83.0254V53.6225H88.1759C89.7091 53.6225 90.9308 53.2153 91.8172 52.4247C92.7515 51.5863 93.2067 50.4843 93.2067 49.0948C93.2067 48.0887 92.8473 47.1784 92.1526 46.3878C91.913 46.1243 91.6735 45.9087 91.41 45.7171ZM117.115 41.7404C114.36 41.7404 112.707 43.5131 112.707 46.5076V53.6225H114.839V46.5076C114.839 45.741 115.054 43.9204 117.139 43.9204C119.223 43.9204 119.414 45.741 119.414 46.5076V53.6225H121.546V46.5076C121.546 43.5131 119.894 41.7404 117.139 41.7404H117.115ZM183.832 41.7404C182.85 41.7404 182.011 42.0039 181.245 42.6267V37.7637H179.136V53.6225H181.245V46.5555C181.245 44.8067 182.466 43.8964 183.688 43.8964C185.197 43.8964 185.868 45.2379 185.868 46.4837V53.6225H188V46.6753C187.976 41.9799 184.527 41.7404 183.832 41.7404ZM99.5071 41.7404C96.7521 41.7404 95.0752 43.5131 95.0752 46.5076V53.6225H97.2073V46.5076C97.2073 45.741 97.4229 43.9204 99.5071 43.9204C99.6747 43.9204 99.9862 43.9204 100.274 44.0162L100.825 41.932C100.393 41.8123 99.9383 41.7404 99.5071 41.7404Z" fill="#888888"/>
<path d="M44.2646 39.4885V47.9689L54.1824 52.6643L64.3397 41.9799L57.7039 29.8822C57.4883 29.9541 57.2727 30.0499 57.0811 30.1697L46.0613 36.518C44.9354 37.0929 44.2646 38.2189 44.2646 39.4885Z" fill="#959595"/>
<path d="M54.1826 52.6403L66.1366 58.2699L71.5506 55.1317L64.316 41.932L54.1826 52.6403Z" fill="#A8A8A8"/>
<path d="M70.2804 35.7035L60.5543 30.1457C59.6919 29.6666 58.6618 29.5468 57.7275 29.8583L64.3633 41.956L70.3044 35.7035H70.2804Z" fill="#B6B3B3"/>
<path d="M71.574 55.1557H71.598C72.676 54.5329 73.3228 53.383 73.3228 52.1612V39.4886C73.3228 38.2429 72.676 37.1169 71.598 36.4701L70.2804 35.7275L64.3394 41.98L71.574 55.1557Z" fill="#888888"/>
<path d="M44.2646 47.945V52.1373C44.2646 53.359 44.9354 54.5089 46.0134 55.1318L49.7506 57.2878L54.1824 52.6164L44.2646 47.945Z" fill="#888888"/>
<path d="M49.7744 57.3118L57.057 61.5041C58.135 62.1269 59.4766 62.1269 60.5546 61.5041L66.1363 58.294L54.1823 52.6643C54.1823 52.6404 49.7744 57.3118 49.7744 57.3118Z" fill="#DEDDDD"/>
</svg>
