<svg width="234" height="88" viewBox="0 0 234 88" fill="none" xmlns="http://www.w3.org/2000/svg">
<path d="M97.0456 40.1016C96.8193 39.9471 96.5618 39.8442 96.2914 39.8002C95.9317 39.7434 95.5688 39.7092 95.2048 39.6976H95.1967C94.3961 39.6873 93.6038 39.86 92.8802 40.2026C92.3115 40.4817 91.796 40.8583 91.3571 41.3152V40.2058C91.3571 40.1626 91.3399 40.1212 91.3094 40.0906C91.2788 40.0601 91.2374 40.0429 91.1942 40.0429H86.5303C86.4871 40.0429 86.4457 40.0601 86.4151 40.0906C86.3846 40.1212 86.3674 40.1626 86.3674 40.2058V55.4354C86.3674 55.4787 86.3846 55.5201 86.4151 55.5506C86.4457 55.5812 86.4871 55.5984 86.5303 55.5984H91.1942C91.2374 55.5984 91.2788 55.5812 91.3094 55.5506C91.3399 55.5201 91.3571 55.4787 91.3571 55.4354V45.8113C91.7189 45.2626 92.2093 44.8107 92.7857 44.495C93.3836 44.1634 94.0569 43.9917 94.7405 43.9965C95.1241 43.9965 95.5065 44.0385 95.8809 44.122C96.2258 44.1991 96.5628 44.3082 96.8876 44.4478C96.9081 44.4571 96.9302 44.4621 96.9527 44.4624C96.9847 44.4622 97.0158 44.4526 97.0423 44.4347C97.0648 44.42 97.0832 44.3999 97.096 44.3763C97.1087 44.3527 97.1155 44.3264 97.1156 44.2995V40.2351C97.1156 40.2089 97.1092 40.183 97.097 40.1598C97.0848 40.1365 97.0672 40.1165 97.0456 40.1016Z" fill="#888888"/>
<path d="M113.455 44.64C113.034 43.6891 112.434 42.8284 111.687 42.1053C110.924 41.3795 110.03 40.8052 109.053 40.4128C106.963 39.5831 104.635 39.5831 102.545 40.4128C101.569 40.8054 100.675 41.3797 99.9127 42.1053C99.1631 42.8269 98.5616 43.6879 98.142 44.64C97.7112 45.6228 97.4888 46.6841 97.4888 47.7571C97.4888 48.8302 97.7112 49.8915 98.142 50.8743C98.5603 51.8258 99.1607 52.6864 99.9095 53.4074C100.669 54.1329 101.563 54.7034 102.54 55.0869C104.633 55.8971 106.954 55.8971 109.047 55.0869C110.021 54.7089 110.911 54.1422 111.666 53.4193C112.421 52.6963 113.025 51.8315 113.445 50.8743C113.875 49.8912 114.097 48.83 114.097 47.7571C114.097 46.6843 113.875 45.623 113.445 44.64H113.455ZM108.279 50.3416C107.959 50.6759 107.574 50.9418 107.148 51.1235C106.722 51.3052 106.263 51.3989 105.8 51.3989C105.337 51.3989 104.878 51.3052 104.452 51.1235C104.026 50.9418 103.641 50.6759 103.321 50.3416C102.988 49.9997 102.727 49.5953 102.553 49.1518C102.378 48.7083 102.293 48.2345 102.302 47.758C102.292 47.2778 102.376 46.8003 102.551 46.353C102.726 45.9056 102.987 45.4973 103.321 45.1515C103.642 44.8177 104.027 44.5521 104.453 44.3706C104.879 44.1892 105.337 44.0956 105.8 44.0956C106.263 44.0956 106.721 44.1892 107.147 44.3706C107.573 44.5521 107.958 44.8177 108.279 45.1515C108.934 45.8581 109.298 46.7858 109.298 47.749C109.298 48.7122 108.934 49.6399 108.279 50.3465V50.3416Z" fill="#888888"/>
<path d="M127.627 41.3055C126.432 40.2776 124.739 39.7546 122.598 39.7546C121.41 39.7584 120.225 39.8995 119.068 40.1749C117.817 40.4784 116.597 40.9012 115.426 41.4374C115.406 41.4463 115.388 41.4591 115.373 41.4751C115.359 41.491 115.347 41.5098 115.34 41.5303C115.332 41.5509 115.329 41.5728 115.331 41.5946C115.332 41.6165 115.338 41.6378 115.348 41.6573L117.017 45.0782C117.031 45.106 117.051 45.1294 117.077 45.1458C117.103 45.1623 117.133 45.171 117.164 45.1711C117.186 45.1709 117.208 45.1659 117.228 45.1564C118.059 44.7888 118.917 44.4849 119.795 44.2475C120.437 44.0738 121.098 43.9797 121.763 43.9673C122.682 43.9673 123.38 44.1448 123.838 44.4951C124.296 44.8453 124.508 45.3584 124.508 46.0785V46.6226C124.011 46.5085 123.503 46.4173 122.994 46.3489C122.404 46.2718 121.81 46.2331 121.215 46.2332C119.213 46.2332 117.632 46.6502 116.499 47.4729C115.367 48.2955 114.778 49.4864 114.778 50.9736C114.763 51.6442 114.9 52.3095 115.179 52.9195C115.458 53.5295 115.872 54.0683 116.389 54.4956C117.451 55.3997 118.822 55.8574 120.461 55.8574C121.237 55.8652 122.011 55.7715 122.763 55.5789C123.377 55.4126 123.963 55.1557 124.501 54.8165V55.4355C124.501 55.4787 124.518 55.5201 124.549 55.5507C124.579 55.5812 124.621 55.5984 124.664 55.5984H129.271C129.314 55.5984 129.356 55.5812 129.386 55.5507C129.417 55.5201 129.434 55.4787 129.434 55.4355V45.6761C129.447 43.8125 128.838 42.3415 127.627 41.3055ZM124.508 51.6008C124.131 51.8245 123.722 51.9893 123.296 52.0895C122.793 52.2028 122.278 52.2575 121.763 52.2524C121.049 52.2524 120.487 52.1253 120.095 51.8745C119.922 51.7769 119.779 51.6346 119.681 51.4626C119.583 51.2906 119.533 51.0952 119.536 50.8971C119.532 50.6974 119.584 50.5005 119.687 50.3293C119.79 50.1581 119.939 50.0194 120.117 49.9294C120.531 49.6867 121.134 49.5629 121.909 49.5629C122.374 49.5629 122.838 49.5912 123.299 49.6476C123.706 49.6991 124.111 49.7742 124.509 49.8724L124.508 51.6008Z" fill="#888888"/>
<path d="M147.408 33.9733C147.411 33.9472 147.407 33.9208 147.397 33.8967C147.252 33.5937 145.471 33.8316 144.129 34.4783C142.883 35.0761 142.373 35.6724 142.422 35.9982V40.7891C141.901 40.5187 141.352 40.3067 140.784 40.157C139.044 39.7096 137.205 39.8335 135.541 40.5105C133.609 41.2931 132.066 42.809 131.25 44.7264C130.826 45.7154 130.611 46.7813 130.618 47.8574C130.61 48.932 130.82 49.997 131.235 50.9883C131.633 51.9355 132.206 52.7989 132.924 53.5328C133.645 54.2599 134.502 54.8383 135.446 55.2351C136.426 55.6467 137.479 55.8566 138.541 55.8525C139.292 55.8547 140.039 55.7347 140.752 55.4974C141.361 55.2983 141.942 55.0213 142.48 54.6731V55.4876C142.48 55.5308 142.497 55.5723 142.528 55.6028C142.558 55.6334 142.6 55.6505 142.643 55.6505H147.248C147.292 55.6505 147.333 55.6334 147.364 55.6028C147.394 55.5723 147.411 55.5308 147.411 55.4876V34.001C147.411 33.9917 147.41 33.9824 147.408 33.9733ZM142.422 50.4377C142.035 50.7972 141.582 51.0777 141.087 51.2636C140.534 51.4628 139.949 51.5616 139.361 51.5552C138.348 51.5755 137.368 51.1929 136.637 50.4915C136.285 50.1498 136.004 49.741 135.812 49.2893C135.62 48.8376 135.521 48.352 135.52 47.8613C135.518 47.3705 135.615 46.8844 135.804 46.4316C135.994 45.9788 136.272 45.5685 136.622 45.2249C136.985 44.8762 137.414 44.6028 137.883 44.4206C138.352 44.2383 138.853 44.1506 139.356 44.1628C139.945 44.1589 140.53 44.2627 141.083 44.469C141.57 44.6495 142.022 44.9153 142.417 45.2542L142.422 50.4377Z" fill="#888888"/>
<path d="M154.017 33.6931C153.991 33.6767 153.96 33.6682 153.929 33.6686C153.918 33.6679 153.907 33.6679 153.896 33.6686C153.383 33.5546 151.942 33.8087 150.811 34.3528C149.508 34.9784 149.019 35.599 149.115 35.9134C149.107 35.9325 149.103 35.9529 149.102 35.9737V55.4876C149.102 55.5308 149.119 55.5722 149.15 55.6028C149.18 55.6333 149.222 55.6505 149.265 55.6505H153.929C153.972 55.6505 154.014 55.6333 154.044 55.6028C154.075 55.5722 154.092 55.5308 154.092 55.4876V33.8332C154.092 33.8054 154.086 33.7779 154.073 33.7534C154.059 33.7288 154.04 33.7081 154.017 33.6931Z" fill="#888888"/>
<path d="M173.045 40.0429H168.007C167.974 40.0428 167.942 40.0523 167.915 40.0703C167.888 40.0883 167.867 40.1139 167.855 40.1439L164.108 49.3462L160.883 40.1521C160.871 40.1186 160.849 40.0899 160.82 40.0702C160.79 40.0505 160.755 40.041 160.72 40.0429H155.569C155.543 40.0427 155.516 40.049 155.493 40.0612C155.469 40.0734 155.449 40.0912 155.434 40.113C155.419 40.1346 155.41 40.1596 155.406 40.1857C155.403 40.2118 155.407 40.2383 155.416 40.2628L161.245 55.6716C161.043 56.2246 160.667 56.6973 160.174 57.0188C159.636 57.3414 159.017 57.503 158.39 57.4847C158.092 57.4847 157.832 57.475 157.612 57.4554C157.488 57.4447 157.365 57.4262 157.244 57.4L157.092 57.3723H157.063C157.038 57.3728 157.013 57.3795 156.991 57.3919L156.975 57.4049C156.968 57.4077 156.962 57.4116 156.957 57.4163C154.717 58.9085 154.248 61.8049 154.248 61.8049L158.882 61.8537C161.593 61.8537 162.531 61.3357 163.831 60.5685C165.257 59.723 165.715 57.8366 166.371 56.3021L173.19 40.2791C173.203 40.2543 173.209 40.2267 173.207 40.199C173.206 40.1713 173.198 40.1443 173.183 40.1206C173.169 40.0969 173.149 40.0774 173.124 40.0638C173.1 40.0502 173.073 40.043 173.045 40.0429Z" fill="#888888"/>
<path d="M84.178 44.8893C83.7806 43.9435 83.2074 43.0817 82.4888 42.3496C81.7515 41.6081 80.874 41.0208 79.9074 40.622C78.9408 40.2231 77.9045 40.0208 76.8589 40.0267C76.1264 40.0378 75.3988 40.1473 74.6956 40.3525C73.5634 40.6636 68.7171 42.2112 68.362 46.6747C68.2691 47.8557 68.1991 32.2954 68.2659 32.9502C68.6503 37.0488 72.441 39.0851 72.99 39.3034V32.1927H68.1828C67.9743 39.2675 60.8832 40.201 61.0005 40.1945C66.9301 41.3152 68.2414 46.3749 68.2007 48.2678C68.2007 48.2678 68.1649 52.3306 68.1649 55.6212C68.165 55.6639 68.182 55.7049 68.2121 55.7352C68.2272 55.7506 68.2452 55.7629 68.265 55.7712C68.2849 55.7796 68.3062 55.784 68.3278 55.7841H72.7717C72.8149 55.7841 72.8563 55.7669 72.8869 55.7364C72.9174 55.7058 72.9346 55.6644 72.9346 55.6212V55.038C73.4611 55.326 74.0199 55.5502 74.5994 55.7059C75.2899 55.8923 76.002 55.986 76.7172 55.9845C77.7999 55.9901 78.873 55.7808 79.8742 55.3687C81.8062 54.586 83.3492 53.0694 84.165 51.1512C84.5895 50.1623 84.8047 49.0963 84.7971 48.0202C84.8042 46.9455 84.5936 45.8804 84.178 44.8893ZM79.3627 50.9264C78.9992 51.2758 78.57 51.5496 78.0999 51.7319C77.6299 51.9142 77.1283 52.0014 76.6243 51.9885C76.035 51.9923 75.45 51.8891 74.8976 51.6839C74.4097 51.5034 73.958 51.2375 73.5634 50.8987V45.7135C73.9515 45.3586 74.4045 45.082 74.8976 44.899C75.451 44.6989 76.0359 44.6001 76.6243 44.6074C77.6373 44.5873 78.6168 44.9699 79.348 45.6712C79.6998 46.0128 79.9798 46.4214 80.1714 46.8728C80.363 47.3242 80.4624 47.8094 80.4638 48.2998C80.4651 48.7902 80.3684 49.2759 80.1793 49.7284C79.9902 50.1808 79.7126 50.5909 79.3627 50.9345V50.9264Z" fill="#888888"/>
</svg>
