<svg width="153" height="33" viewBox="0 0 153 33" fill="none" xmlns="http://www.w3.org/2000/svg">
<g clip-path="url(#clip0_67_249)">
<path d="M153 14.7864V12.0956H149.659V7.91254L149.546 7.94717L146.408 8.90743L146.346 8.92623V12.0958H141.392V10.3301C141.392 9.50789 141.576 8.87872 141.938 8.45912C142.298 8.04456 142.813 7.8338 143.469 7.8338C143.941 7.8338 144.43 7.94495 144.921 8.16415L145.045 8.21921V5.38549L144.987 5.36418C144.528 5.1993 143.904 5.11627 143.131 5.11627C142.156 5.11627 141.271 5.32836 140.498 5.7487C139.726 6.16963 139.118 6.77053 138.692 7.53453C138.268 8.29765 138.052 9.17902 138.052 10.1544V12.0956H135.726V14.7864H138.052V26.1219H141.392V14.7864H146.346V21.9899C146.346 24.9567 147.745 26.4601 150.505 26.4601C150.959 26.4601 151.436 26.407 151.923 26.3029C152.419 26.1961 152.757 26.0894 152.956 25.9754L153 25.9494V23.2338L152.864 23.3236C152.683 23.4444 152.457 23.5431 152.193 23.6165C151.927 23.6912 151.705 23.7287 151.533 23.7287C150.886 23.7287 150.408 23.5545 150.111 23.2107C149.811 22.8638 149.659 22.2571 149.659 21.4084V14.7864H153ZM128.267 23.7291C127.054 23.7291 126.099 23.3272 125.425 22.5353C124.747 21.7395 124.404 20.6049 124.404 19.1633C124.404 17.676 124.747 16.5119 125.425 15.7021C126.099 14.8975 127.046 14.4892 128.239 14.4892C129.398 14.4892 130.32 14.8792 130.98 15.6489C131.644 16.4227 131.98 17.5774 131.98 19.0821C131.98 20.6052 131.664 21.7752 131.039 22.5578C130.419 23.3346 129.486 23.7291 128.267 23.7291ZM128.415 11.7577C126.102 11.7577 124.265 12.4354 122.955 13.7721C121.646 15.1089 120.983 16.9588 120.983 19.2709C120.983 21.467 121.631 23.2335 122.908 24.5204C124.186 25.8077 125.925 26.4598 128.077 26.4598C130.319 26.4598 132.119 25.7726 133.429 24.4175C134.738 23.0639 135.401 21.2314 135.401 18.9733C135.401 16.7428 134.779 14.9632 133.551 13.6849C132.322 12.406 130.594 11.7577 128.415 11.7577ZM115.598 11.7577C114.024 11.7577 112.723 12.1601 111.729 12.9536C110.729 13.7518 110.221 14.7986 110.221 16.0654C110.221 16.7239 110.331 17.3088 110.546 17.8049C110.763 18.3027 111.099 18.7409 111.544 19.1087C111.987 19.4735 112.67 19.8557 113.575 20.2445C114.335 20.5575 114.903 20.8223 115.263 21.031C115.615 21.2355 115.865 21.4411 116.006 21.6414C116.144 21.8373 116.213 22.1055 116.213 22.4365C116.213 23.3788 115.507 23.8373 114.055 23.8373C113.517 23.8373 112.902 23.7248 112.229 23.5031C111.561 23.2848 110.931 22.965 110.36 22.555L110.221 22.4555V25.6713L110.272 25.6949C110.744 25.9131 111.34 26.0971 112.042 26.2418C112.743 26.3867 113.38 26.4604 113.934 26.4604C115.641 26.4604 117.016 26.0561 118.019 25.2579C119.028 24.4542 119.54 23.3827 119.54 22.0721C119.54 21.1266 119.265 20.3158 118.722 19.6619C118.182 19.0134 117.247 18.418 115.941 17.8917C114.902 17.4743 114.235 17.1278 113.96 16.8618C113.696 16.6049 113.561 16.2415 113.561 15.7814C113.561 15.3735 113.727 15.0467 114.068 14.7821C114.411 14.5161 114.89 14.3808 115.489 14.3808C116.046 14.3808 116.615 14.4687 117.182 14.641C117.747 14.8133 118.244 15.044 118.659 15.3263L118.796 15.4195V12.3691L118.743 12.3466C118.361 12.1825 117.856 12.042 117.243 11.9281C116.633 11.8148 116.079 11.7577 115.598 11.7577ZM101.514 23.7291C100.302 23.7291 99.3457 23.3272 98.6723 22.5353C97.9944 21.7395 97.6516 20.6052 97.6516 19.1633C97.6516 17.676 97.9949 16.5119 98.673 15.7021C99.3464 14.8975 100.293 14.4892 101.487 14.4892C102.645 14.4892 103.567 14.8792 104.227 15.6489C104.891 16.4227 105.228 17.5774 105.228 19.0821C105.228 20.6052 104.911 21.7752 104.286 22.5578C103.666 23.3346 102.734 23.7291 101.514 23.7291ZM101.663 11.7577C99.3493 11.7577 97.5121 12.4354 96.203 13.7721C94.894 15.1089 94.2299 16.9588 94.2299 19.2709C94.2299 21.4679 94.8782 23.2335 96.156 24.5204C97.4339 25.8077 99.1728 26.4598 101.324 26.4598C103.566 26.4598 105.367 25.7726 106.676 24.4175C107.985 23.0639 108.649 21.2314 108.649 18.9733C108.649 16.7428 108.026 14.9632 106.798 13.6849C105.569 12.406 103.841 11.7577 101.663 11.7577ZM89.1598 14.5247V12.0956H85.8605V26.1216H89.1598V18.9468C89.1598 17.7268 89.4364 16.7245 89.9823 15.9674C90.5212 15.2194 91.2393 14.8404 92.1161 14.8404C92.4133 14.8404 92.7469 14.8894 93.1082 14.9863C93.4657 15.0827 93.7248 15.1873 93.8775 15.2974L94.0162 15.3979V12.0716L93.9627 12.0487C93.6555 11.9182 93.2208 11.8523 92.6708 11.8523C91.8417 11.8523 91.0997 12.1187 90.4642 12.6432C89.9064 13.1043 89.5032 13.7364 89.1949 14.5247H89.1598ZM79.952 11.7577C78.4383 11.7577 77.0882 12.0823 75.9398 12.7221C74.7891 13.3634 73.8991 14.279 73.2936 15.4432C72.6908 16.6046 72.3847 17.9612 72.3847 19.4741C72.3847 20.7994 72.6815 22.0155 73.268 23.0874C73.8549 24.161 74.6855 25.0009 75.7369 25.5835C76.7869 26.1653 78.0004 26.4603 79.344 26.4603C80.9119 26.4603 82.2506 26.1468 83.324 25.5286L83.3673 25.5037V22.481L83.2287 22.5822C82.7425 22.9364 82.1991 23.2191 81.6145 23.4228C81.0314 23.6263 80.4997 23.7291 80.0335 23.7291C78.7389 23.7291 77.6996 23.324 76.9452 22.5254C76.1892 21.7257 75.8059 20.6028 75.8059 19.1898C75.8059 17.7679 76.2056 16.6161 76.9935 15.7663C77.7789 14.919 78.8202 14.4892 80.088 14.4892C81.1724 14.4892 82.2292 14.8564 83.2289 15.5816L83.3673 15.6821V12.4972L83.3226 12.472C82.9464 12.2614 82.4333 12.0875 81.7963 11.9556C81.1619 11.824 80.5415 11.7577 79.952 11.7577ZM70.1124 12.0958H66.8131V26.1216H70.1124V12.0958ZM68.4965 6.12064C67.9535 6.12064 67.4798 6.3055 67.0907 6.67181C66.7 7.03916 66.5018 7.50168 66.5018 8.04752C66.5018 8.58478 66.6976 9.03886 67.0847 9.39644C67.4692 9.75299 67.9443 9.9337 68.4966 9.9337C69.0488 9.9337 69.5257 9.75299 69.9148 9.39703C70.3064 9.03886 70.5051 8.58493 70.5051 8.04752C70.5051 7.52077 70.3118 7.06299 69.931 6.68661C69.5504 6.31097 69.0676 6.12064 68.4965 6.12064ZM60.2644 11.0609V26.1216H63.6316V6.55H58.9713L53.0478 21.0872L47.2995 6.55H42.4495V26.1215H45.6137V11.0594H45.7223L51.7925 26.1216H54.1804L60.1558 11.0609H60.2644Z" fill="#888888"/>
<path d="M15.521 15.5315H0V0.010437H15.521V15.5315Z" fill="#888888"/>
<path d="M32.6579 15.5308H17.1372V0.00976562H32.6579V15.5308Z" fill="#888888"/>
<path d="M15.5206 32.6738H0V17.153H15.5206V32.6738Z" fill="#888888"/>
<path d="M32.6579 32.6738H17.1372V17.153H32.6579V32.6738Z" fill="#888888"/>
</g>
<defs>
<clipPath id="clip0_67_249">
<rect width="153" height="32.6808" fill="white" transform="translate(0 0.00140381)"/>
</clipPath>
</defs>
</svg>
