<svg width="122" height="47" viewBox="0 0 122 47" fill="none" xmlns="http://www.w3.org/2000/svg">
<g clip-path="url(#clip0_67_232)">
<path d="M45.7561 29.2937C45.7561 29.5734 45.9799 29.8252 46.2876 29.8252H49.2244C49.5041 29.8252 49.7559 29.5734 49.7559 29.2937V23.9235C49.7559 22.7767 50.5949 21.9656 51.7138 21.9656C52.9724 21.9656 53.4759 22.9446 53.4759 24.0633V29.2937C53.4759 29.5734 53.6996 29.8252 54.0073 29.8252H56.6924C57.0001 29.8252 57.2238 29.5734 57.2238 29.2937V23.8675C57.2238 22.7767 58.1189 21.9656 59.0978 21.9656C60.3845 21.9656 60.9718 22.9446 60.9718 24.0633V29.2937C60.9718 29.5734 61.1956 29.8252 61.5032 29.8252H64.468C64.7758 29.8252 64.9995 29.5734 64.9995 29.2937V24.2311C64.9995 21.0425 63.2933 18.3575 59.8251 18.3575C57.9231 18.3575 56.6086 19.4203 55.9652 20.0636C54.9583 18.9449 53.8674 18.3575 52.3011 18.3575C50.5111 18.3575 49.2244 19.3644 48.5252 20.0916L48.0497 18.9449C47.9657 18.777 47.7699 18.6371 47.5742 18.6371H46.2876C45.9799 18.6371 45.7561 18.8609 45.7561 19.1685V29.2937ZM69.7861 15.2528C71.0168 15.2528 72.0237 14.2738 72.0237 13.0431C72.0237 11.8125 71.0168 10.8055 69.7861 10.8055C68.5554 10.8055 67.5765 11.8125 67.5765 13.0431C67.5765 14.2738 68.5554 15.2528 69.7861 15.2528ZM67.7443 29.2937C67.7443 29.5734 67.996 29.8252 68.2757 29.8252H71.3524C71.6322 29.8252 71.8838 29.5734 71.8838 29.2937V19.1685C71.8838 18.8609 71.6322 18.6371 71.3524 18.6371H68.2757C67.996 18.6371 67.7443 18.8609 67.7443 19.1685V29.2937ZM74.5091 29.1819C75.0685 29.6294 76.467 30.1048 78.313 30.1048C81.4737 30.1048 83.04 28.5106 83.04 26.5527C83.04 24.3151 81.4737 23.42 79.2081 22.6368C78.2571 22.3012 77.9494 22.0215 77.9494 21.7418C77.9494 21.4341 78.2011 21.3503 78.5647 21.3503C79.6556 21.3503 80.9422 21.9935 80.9422 21.9935C81.1659 22.0775 81.4457 21.9935 81.5295 21.8257L82.5644 19.9238C82.7322 19.6441 82.5365 19.3923 82.2848 19.2245C81.6694 18.8329 80.3268 18.3575 78.5647 18.3575C75.544 18.3575 74.2014 19.8678 74.2014 21.7418C74.2014 23.4759 75.1524 24.7346 77.334 25.4898C78.7605 25.9933 78.9283 26.3849 78.9283 26.6645C78.9283 27.0002 78.6767 27.168 78.3969 27.168C77.1942 27.168 75.8797 26.4407 75.8797 26.4407C75.6559 26.3289 75.3762 26.4967 75.2922 26.6645L74.3133 28.5945C74.1735 28.8462 74.3133 29.0141 74.5091 29.1819ZM85.2802 29.2937C85.2802 29.5734 85.5319 29.8252 85.8117 29.8252H88.8324C89.3078 29.8252 89.4478 29.6573 89.4478 29.2937V24.1752C89.4478 22.469 90.4267 21.9656 91.3217 21.9656C92.5524 21.9656 93.3635 22.9446 93.3635 24.1752V29.2937C93.3635 29.5734 93.5873 29.8252 93.8949 29.8252H96.8601C97.1399 29.8252 97.391 29.5734 97.391 29.2937V24.2311C97.391 21.1265 95.5731 18.3575 92.049 18.3575C91.2098 18.3575 90.2868 18.5812 89.4478 19.0007V10.7776C89.4478 10.4979 89.196 10.2462 88.9163 10.2462H85.8117C85.5319 10.2462 85.2802 10.4979 85.2802 10.7776V29.2937ZM100.478 26.217C100.478 28.7623 101.708 30.1048 103.834 30.1048C105.232 30.1048 107.219 29.4895 107.219 29.4895C107.498 29.4056 107.638 29.0979 107.582 28.8462L106.967 26.5247C106.882 26.217 106.631 26.1051 106.351 26.1611C106.072 26.217 105.652 26.3569 105.261 26.3569C104.924 26.3569 104.506 26.3009 104.506 25.6856V22.1893H106.575C106.882 22.1893 107.107 21.9376 107.107 21.6579V19.1685C107.107 18.8609 106.882 18.6371 106.575 18.6371H104.506V15.5325C104.506 15.2528 104.281 15.001 104.002 15.001H101.009C100.729 15.001 100.478 15.2528 100.478 15.5325V18.6371H99.7504C99.4706 18.6371 99.2473 18.8609 99.2473 19.1685V21.6579C99.2473 21.9376 99.4706 22.1893 99.7504 22.1893H100.478V26.217ZM108.778 24.2031C108.778 27.4198 111.407 30.1048 114.595 30.1048C117.784 30.1048 120.413 27.4198 120.413 24.2031C120.413 21.0425 117.784 18.3575 114.595 18.3575C111.407 18.3575 108.778 21.0425 108.778 24.2031ZM112.386 24.2031C112.386 22.9725 113.365 21.9656 114.595 21.9656C115.826 21.9656 116.805 22.9725 116.805 24.2031C116.805 25.4618 115.826 26.4967 114.595 26.4967C113.365 26.4967 112.386 25.4618 112.386 24.2031Z" fill="#888888"/>
<path d="M51.3148 36.3672C51.3148 36.812 51.1176 37.0344 50.7231 37.0344H50.3518C50.2371 37.0344 50.1474 36.9931 50.0828 36.9107C50.0218 36.8245 49.986 36.708 49.9752 36.5609C49.9681 36.4102 49.9232 36.274 49.8407 36.1521C49.7582 36.0265 49.6524 35.9261 49.5233 35.8508C49.283 35.7109 48.9637 35.6409 48.5657 35.6409C48.1675 35.6409 47.8214 35.7252 47.5273 35.8938C47.2332 36.0588 46.9964 36.2812 46.8171 36.5609C46.4727 37.0846 46.3006 37.784 46.3006 38.6592C46.3006 40.2338 46.8135 41.2237 47.8393 41.629C48.1549 41.7509 48.4634 41.8119 48.7647 41.8119C49.3099 41.8119 49.7905 41.7133 50.2065 41.5161L50.5078 41.3761C50.6047 41.3331 50.6908 41.3115 50.7661 41.3115C50.8414 41.3115 50.9024 41.3296 50.949 41.3654C50.9956 41.4012 51.053 41.4873 51.1211 41.6237C51.1929 41.7563 51.2288 41.8729 51.2288 41.9734C51.2288 42.0702 51.1947 42.167 51.1265 42.2638C51.0584 42.3571 50.9741 42.4396 50.8737 42.5114C50.6979 42.6261 50.4863 42.7212 50.2388 42.7965C49.787 42.9328 49.2579 43.0009 48.6517 43.0009C48.0491 43.0009 47.5093 42.8915 47.0323 42.6728C46.5588 42.454 46.1607 42.1509 45.8379 41.7635C45.1743 40.9744 44.8425 39.9397 44.8425 38.6592C44.8425 37.3967 45.1779 36.3888 45.8487 35.6355C46.5337 34.8608 47.4771 34.4734 48.6786 34.4734C49.3385 34.4734 49.9232 34.6205 50.4325 34.9146C51.0207 35.2518 51.3148 35.736 51.3148 36.3672ZM61.3216 41.7097L61.8758 41.6344C61.9763 41.6344 62.0462 41.6684 62.0856 41.7366C62.1287 41.8048 62.1592 41.8783 62.1771 41.9572C62.1986 42.0325 62.2184 42.1006 62.2363 42.1617C62.2542 42.2226 62.2632 42.2889 62.2632 42.3607C62.2632 42.4324 62.2274 42.506 62.1556 42.5813C62.0875 42.653 61.9996 42.7176 61.8919 42.775C61.6624 42.8969 61.4221 42.9579 61.171 42.9579C60.9236 42.9579 60.6994 42.9292 60.4985 42.8718C60.2977 42.8144 60.1075 42.7355 59.9282 42.6351C59.6485 42.4773 59.3616 42.2549 59.0675 41.968C58.7769 41.681 58.5455 41.4354 58.3733 41.2309L57.4856 40.1334C57.3601 39.9827 57.2471 39.8607 57.1467 39.7675V42.5275C57.1467 42.6709 57.0983 42.7732 57.0015 42.8341C56.9655 42.8557 56.9243 42.8664 56.8777 42.8664H56.1083C56.0115 42.8664 55.9434 42.8378 55.9039 42.7804C55.8393 42.6871 55.807 42.6028 55.807 42.5275V35.0922C55.807 34.9666 55.8393 34.8573 55.9039 34.764C55.972 34.6671 56.0815 34.6187 56.2321 34.6187H58.6316C60.7657 34.6187 61.8328 35.4616 61.8328 37.1474C61.8328 37.9221 61.5459 38.5731 60.972 39.1004C60.4304 39.5989 59.792 39.8482 59.0566 39.8482C58.9275 39.8482 58.8038 39.8393 58.6855 39.8213L59.3472 40.5207C59.7274 40.9188 60.0233 41.1878 60.2349 41.3277C60.6151 41.5824 60.9773 41.7097 61.3216 41.7097ZM57.1467 38.7399C57.552 38.8331 57.9178 38.8798 58.2442 38.8798C58.5742 38.8798 58.8683 38.8493 59.1266 38.7883C59.3849 38.7273 59.6144 38.6305 59.8152 38.4978C60.26 38.2109 60.4823 37.7858 60.4823 37.2227C60.4823 36.7169 60.2905 36.3421 59.9067 36.0982C59.5839 35.8938 59.1463 35.7915 58.5939 35.7915H57.1467V38.7399ZM67.0351 34.9631C67.0351 34.8698 67.0639 34.789 67.1212 34.7209C67.1822 34.6528 67.2539 34.6187 67.3364 34.6187H72.0656C72.1589 34.6187 72.2287 34.6492 72.2754 34.7102C72.3256 34.7676 72.3507 34.8392 72.3507 34.9254V35.5064C72.3507 35.5889 72.3256 35.6606 72.2754 35.7217C72.2287 35.779 72.1589 35.8077 72.0656 35.8077H68.3855V38.1642H71.3124C71.4056 38.1642 71.4756 38.1947 71.5221 38.2557C71.5724 38.313 71.5975 38.3848 71.5975 38.4708V39.0519C71.5975 39.1344 71.5724 39.2062 71.5221 39.2671C71.4756 39.3245 71.4056 39.3532 71.3124 39.3532H68.3855V41.6774H72.0924C72.1857 41.6774 72.2557 41.7079 72.3023 41.7689C72.3525 41.8263 72.3776 41.898 72.3776 41.9841V42.5651C72.3776 42.6477 72.3525 42.7193 72.3023 42.7804C72.2557 42.8378 72.1857 42.8664 72.0924 42.8664H67.3311C67.2486 42.8664 67.1786 42.8323 67.1212 42.7642C67.0639 42.696 67.0351 42.6154 67.0351 42.5221V34.9631ZM76.7622 42.8664C76.6581 42.8664 76.5793 42.8341 76.5255 42.7696C76.4716 42.7014 76.4448 42.6441 76.4448 42.5974C76.4448 42.5472 76.4502 42.5077 76.4609 42.4791L79.1779 35.1728C79.2998 34.8536 79.4953 34.6743 79.7643 34.6348C79.8575 34.6241 79.9688 34.6187 80.0979 34.6187H80.1893C80.4332 34.6187 80.6018 34.6492 80.6951 34.7102C80.8457 34.8034 80.9623 34.9522 81.0448 35.1567L83.9662 42.4844C83.9769 42.5131 83.9823 42.5544 83.9823 42.6082C83.9823 42.6584 83.9608 42.714 83.9178 42.775C83.8748 42.836 83.803 42.8664 83.7026 42.8664H82.9493C82.7844 42.8664 82.6696 42.7893 82.605 42.6351L81.9379 40.8865H78.4032L77.7845 42.6351C77.7342 42.7893 77.6248 42.8664 77.4562 42.8664H76.7622ZM81.4859 39.7244L80.2001 36.2274C80.1893 36.1915 80.1678 36.1735 80.1355 36.1735C80.1032 36.1735 80.0818 36.1915 80.071 36.2274L78.8228 39.7244H81.4859ZM89.8357 35.7915H87.8934C87.8002 35.7915 87.7195 35.7629 87.6514 35.7055C87.5868 35.6445 87.5545 35.571 87.5545 35.4849V34.92C87.5545 34.8375 87.5868 34.7676 87.6514 34.7102C87.7195 34.6492 87.8002 34.6187 87.8934 34.6187H93.209C93.3023 34.6187 93.3722 34.6492 93.4188 34.7102C93.469 34.7676 93.4941 34.8392 93.4941 34.9254V35.4902C93.4941 35.5728 93.469 35.6445 93.4188 35.7055C93.3686 35.7629 93.2969 35.7915 93.2037 35.7915H91.1915V42.5221C91.1915 42.6154 91.161 42.696 91.1 42.7642C91.0426 42.8323 90.9727 42.8664 90.8902 42.8664H90.1316C90.0491 42.8664 89.9792 42.8323 89.9218 42.7642C89.8644 42.696 89.8357 42.6154 89.8357 42.5221V35.7915ZM97.8679 34.9631C97.8679 34.8698 97.8966 34.789 97.9541 34.7209C98.0155 34.6528 98.0864 34.6187 98.1698 34.6187H98.922C99.0054 34.6187 99.0754 34.6528 99.1319 34.7209C99.1894 34.789 99.2182 34.8698 99.2182 34.9631V42.5221C99.2182 42.6154 99.1875 42.696 99.1271 42.7642C99.0696 42.8323 98.9997 42.8664 98.9173 42.8664H98.164C98.0816 42.8664 98.0116 42.8323 97.9541 42.7642C97.8966 42.696 97.8679 42.6154 97.8679 42.5221V34.9631ZM103.517 35.033C103.503 34.9971 103.495 34.9505 103.495 34.8931C103.495 34.8322 103.515 34.7711 103.555 34.7102C103.598 34.6492 103.66 34.6187 103.742 34.6187H104.662C104.734 34.6187 104.796 34.6438 104.846 34.6941C104.899 34.7406 104.936 34.7962 104.954 34.8608L107.004 41.5967C107.01 41.6147 107.031 41.6237 107.068 41.6237C107.107 41.6237 107.132 41.6128 107.144 41.5914L107.729 40.0257C108.393 38.1678 108.856 36.4838 109.118 34.9738C109.153 34.7371 109.288 34.6187 109.521 34.6187H110.118C110.251 34.6187 110.349 34.651 110.414 34.7155C110.482 34.7766 110.517 34.8357 110.517 34.8931V35.0115C110.517 35.467 110.287 36.4049 109.828 37.8252C109.713 38.1804 109.591 38.5336 109.462 38.8851C109.114 39.8356 108.869 40.4812 108.725 40.822L108.354 41.7044C108.178 42.0989 108.056 42.3554 107.988 42.4737C107.924 42.5921 107.859 42.6746 107.794 42.7212C107.665 42.818 107.463 42.8664 107.186 42.8664H106.901C106.628 42.8664 106.444 42.836 106.347 42.775C106.181 42.6709 106.058 42.5024 105.975 42.2692L103.517 35.033ZM114.933 34.9631C114.933 34.8698 114.962 34.789 115.019 34.7209C115.08 34.6528 115.152 34.6187 115.235 34.6187H119.964C120.057 34.6187 120.127 34.6492 120.173 34.7102C120.224 34.7676 120.249 34.8392 120.249 34.9254V35.5064C120.249 35.5889 120.224 35.6606 120.173 35.7217C120.127 35.779 120.057 35.8077 119.964 35.8077H116.284V38.1642H119.211C119.304 38.1642 119.374 38.1947 119.421 38.2557C119.471 38.313 119.496 38.3848 119.496 38.4708V39.0519C119.496 39.1344 119.471 39.2062 119.421 39.2671C119.374 39.3245 119.304 39.3532 119.211 39.3532H116.284V41.6774H119.991C120.084 41.6774 120.154 41.7079 120.201 41.7689C120.251 41.8263 120.276 41.898 120.276 41.9841V42.5651C120.276 42.6477 120.251 42.7193 120.201 42.7804C120.154 42.8378 120.084 42.8664 119.991 42.8664H115.229C115.147 42.8664 115.077 42.8323 115.019 42.7642C114.962 42.696 114.933 42.6154 114.933 42.5221V34.9631Z" fill="#888888"/>
<path d="M1.86674 23.0014C3.98568 15.3733 8.85923 11.1353 8.85923 11.1353C8.85923 11.1353 11.1901 13.6781 12.8852 18.3397C14.5803 23.0014 14.3685 23.8489 14.3685 23.8489L2.50241 39.5648C0.59536 35.2913 -0.252201 30.6295 1.86674 23.0014Z" fill="#888888"/>
<path d="M15.4281 26.8155L3.98584 42.0719C9.91887 42.9194 15.0043 45.8859 15.0043 45.8859C15.0043 45.8859 16.6994 34.02 15.4281 26.8155Z" fill="#888888"/>
<path d="M17.9708 45.0384C17.9708 45.0384 22.6325 22.5776 11.614 10.7115L35.5581 26.8155C31.532 38.2578 17.9708 45.0384 17.9708 45.0384Z" fill="#888888"/>
</g>
<defs>
<clipPath id="clip0_67_232">
<rect width="120.75" height="46" fill="white" transform="translate(0.625 0.00140381)"/>
</clipPath>
</defs>
</svg>
