<svg width="158" height="107" viewBox="0 0 158 107" fill="none" xmlns="http://www.w3.org/2000/svg">
<path d="M74.5757 60.8134V50.359H74.76L82.2914 60.8134H84.6614V45.461H82.028V55.889H81.8437L74.3124 45.461H71.9424V60.8134H74.5757ZM92.1137 61.0504C95.5897 61.0504 97.7227 58.7857 97.7227 54.9937C97.7227 51.228 95.5897 48.937 92.1137 48.937C88.664 48.937 86.5047 51.228 86.5047 54.9937C86.531 58.7857 88.6377 61.0504 92.1137 61.0504ZM92.1137 58.8384C90.2704 58.8384 89.217 57.4427 89.217 54.9937C89.217 52.571 90.2704 51.149 92.1137 51.149C93.957 51.149 95.0104 52.571 95.0104 54.9937C95.0104 57.4427 93.957 58.8384 92.1137 58.8384ZM100.119 46.33V49.253H98.2757V51.3597H100.119V57.706C100.119 59.9707 101.172 60.866 103.858 60.866C104.359 60.866 104.859 60.8134 105.254 60.7344V58.6804C104.938 58.7067 104.727 58.733 104.359 58.733C103.253 58.733 102.752 58.2327 102.752 57.074V51.3597H105.254V49.253H102.752V46.33H100.119ZM106.834 60.8134H109.467V49.174H106.834V60.8134ZM108.151 47.2517C109.02 47.2517 109.731 46.5407 109.731 45.6717C109.731 44.7764 109.02 44.0654 108.151 44.0654C107.282 44.0654 106.571 44.7764 106.571 45.6717C106.571 46.5407 107.282 47.2517 108.151 47.2517ZM116.683 61.0504C120.159 61.0504 122.292 58.7857 122.292 54.9937C122.292 51.228 120.159 48.937 116.683 48.937C113.233 48.937 111.074 51.228 111.074 54.9937C111.074 58.7857 113.18 61.0504 116.683 61.0504ZM116.683 58.8384C114.839 58.8384 113.786 57.4427 113.786 54.9937C113.786 52.571 114.839 51.149 116.683 51.149C118.5 51.149 119.579 52.571 119.579 54.9937C119.553 57.4427 118.5 58.8384 116.683 58.8384ZM123.845 60.8134H126.479V54.0457C126.479 52.334 127.479 51.2544 129.033 51.2544C130.639 51.2544 131.377 52.1497 131.377 53.914V60.8134H134.01V53.282C134.01 50.4907 132.588 48.937 130.007 48.937C128.269 48.937 127.111 49.727 126.558 51.0437H126.373V49.174H123.819C123.845 49.174 123.845 60.8134 123.845 60.8134Z" fill="#888888"/>
<path fill-rule="evenodd" clip-rule="evenodd" d="M31.6002 40.7211C32.8379 41.7218 33.2855 41.6428 35.6029 41.4848L57.4332 40.1681C57.9072 40.1681 57.5122 39.6941 57.3542 39.6414L53.7202 37.0344C53.0355 36.5078 52.0875 35.8758 50.3232 36.0338L29.2039 37.5874C28.4402 37.6664 28.2822 38.0614 28.5982 38.3511L31.6002 40.7211ZM32.9169 45.8034V68.7661C32.9169 70.0038 33.5225 70.4514 34.9182 70.3724L58.9079 68.9768C60.3035 68.8978 60.4615 68.0551 60.4615 67.0544V44.2498C60.4615 43.2491 60.0665 42.6961 59.2239 42.7751L34.1545 44.2498C33.2329 44.3288 32.9169 44.8028 32.9169 45.8034ZM56.5905 47.0411C56.7485 47.7258 56.5905 48.4368 55.9059 48.5158L54.7472 48.7528V65.7114C53.7465 66.2381 52.8249 66.5541 52.0349 66.5541C50.7972 66.5541 50.4812 66.1591 49.5595 65.0004L42.0019 53.1241V64.6054L44.3982 65.1321C44.3982 65.1321 44.3982 66.5278 42.4759 66.5278L37.1565 66.8438C36.9985 66.5278 37.1565 65.7641 37.6832 65.6061L39.0789 65.2111V50.0431L37.1565 49.8851C36.9985 49.2004 37.3935 48.1998 38.4732 48.1208L44.1875 47.7258L52.0612 59.7338V49.1214L50.0599 48.8844C49.9019 48.0418 50.5339 47.4098 51.2975 47.3308L56.5905 47.0411ZM27.4395 35.4808L49.4279 33.8744C52.1139 33.6374 52.8249 33.7954 54.5102 35.0331L61.5149 39.9574C62.6735 40.8001 63.0685 41.0371 63.0685 41.9588V69.0031C63.0685 70.6884 62.4629 71.6891 60.3035 71.8471L34.7865 73.4008C33.1539 73.4798 32.3902 73.2428 31.5475 72.1631L26.3599 65.4481C25.4382 64.2104 25.0432 63.2888 25.0432 62.2091V38.1668C25.0432 36.7711 25.6752 35.6388 27.4395 35.4808Z" fill="#888888"/>
</svg>
