<svg width="234" height="88" viewBox="0 0 234 88" fill="none" xmlns="http://www.w3.org/2000/svg">
<path d="M153 40.1584H126.928V33.4852H153V40.1584Z" fill="#9D9D9D"/>
<path d="M149.613 40.1585H126.928V23.4681H149.613V40.1585Z" fill="#CECDCB"/>
<path d="M140.241 40.1584H126.928V16.7984H140.241V40.1584Z" fill="#ADADAD"/>
<path d="M142.86 40.1585H126.928V19.4051H142.86V40.1585Z" fill="#E4E4E3"/>
<path d="M126.924 19.4089V40.1563H140.239V19.4089H126.924Z" fill="#CECDCB"/>
<path d="M113.578 40.1585H126.928V43.4955H113.578V40.1585Z" fill="#888888"/>
<path d="M126.924 23.4644V40.1563H142.867V23.4644H126.924Z" fill="#BFBEBB"/>
<path d="M126.924 23.4644V40.1563H140.239V23.4644H126.924Z" fill="#ADADAD"/>
<path d="M135.253 40.1584H126.928V30.1406H135.253V40.1584Z" fill="#9D9D9D"/>
<path d="M126.924 33.4901V40.1564H149.621V33.4901H126.924Z" fill="#ADADAD"/>
<path d="M126.924 33.4901V40.1564H142.867V33.4901H126.924Z" fill="#9D9D9D"/>
<path d="M126.924 33.4901V40.1564H140.239V33.4901H126.924Z" fill="#8F8F8F"/>
<path d="M126.924 33.4901V40.1564H135.261V33.4901H126.924Z" fill="#888888"/>
<path d="M129.831 52.7269C127.559 53.1307 126.348 54.847 126.348 57.8251C126.348 60.8538 127.963 62.8729 130.336 62.8729C131.497 62.8729 132.506 62.469 134.626 61.409C134.626 63.8824 134.626 63.8824 134.626 63.8824C132.052 65.0939 130.537 65.3967 128.518 65.3967C126.247 65.3967 124.632 64.8415 123.37 63.4786C122.057 62.1662 121.351 60.45 121.351 58.4813C121.351 54.1908 124.581 51.2126 129.276 51.2126C132.355 51.2126 134.525 52.6764 134.525 54.746C134.525 56.1089 133.516 57.068 132.052 57.068C131.295 57.068 130.689 56.8156 129.831 56.3613" fill="#888888"/>
<path d="M118.473 58.4813C120.543 55.907 121.3 54.847 121.3 53.585C121.3 52.3231 120.29 51.2126 118.877 51.2126C118.069 51.2126 117.312 51.6669 116.959 52.0707C116.959 57.3708 116.959 57.3708 116.959 57.3708C113.577 61.9138 113.577 61.9138 113.577 61.9138C113.577 51.6164 113.577 51.6164 113.577 51.6164C110.346 51.6164 110.346 51.6164 110.346 51.6164C104.995 60.45 104.995 60.45 104.995 60.45C104.995 51.6164 104.995 51.6164 104.995 51.6164C103.178 51.6164 103.178 51.6164 103.178 51.6164C98.282 52.7269 98.282 52.7269 98.282 52.7269C98.282 53.9888 98.282 53.9888 98.282 53.9888C100.957 54.2412 100.957 54.2412 100.957 54.2412C100.957 65.1948 100.957 65.1948 100.957 65.1948C104.339 65.1948 104.339 65.1948 104.339 65.1948C109.488 56.7146 109.488 56.7146 109.488 56.7146C109.488 65.1948 109.488 65.1948 109.488 65.1948C113.274 65.1948 113.274 65.1948 113.274 65.1948" fill="#888888"/>
<path d="M88.0353 63.4786C88.4391 63.4786 88.54 63.4786 88.7924 63.4786C91.5182 63.4786 93.0325 61.8128 93.0325 58.4813C93.0325 55.7051 91.8211 54.1907 89.5496 54.1907C89.2467 54.1907 88.7924 54.2412 88.0353 54.3927V63.4786ZM88.0353 69.4349C90.2563 69.9397 90.2563 69.9397 90.2563 69.9397C90.2563 71.2016 90.2563 71.2016 90.2563 71.2016C81.5237 71.2016 81.5237 71.2016 81.5237 71.2016C81.5237 69.9397 81.5237 69.9397 81.5237 69.9397C83.5428 69.4349 83.5428 69.4349 83.5428 69.4349C83.5428 54.1907 83.5428 54.1907 83.5428 54.1907C81.3218 54.1907 81.3218 54.1907 81.3218 54.1907C81.3218 52.9288 81.3218 52.9288 81.3218 52.9288C86.6219 51.3135 86.6219 51.3135 86.6219 51.3135C88.0353 51.3135 88.0353 51.3135 88.0353 51.3135C88.0353 53.1307 88.0353 53.1307 88.0353 53.1307C90.5087 51.6164 91.3668 51.364 92.6792 51.364C95.6069 51.364 97.8279 54.0898 97.8279 57.8756C97.8279 62.2167 94.8497 65.1948 90.3068 65.1948C89.802 65.1948 88.9439 65.1443 88.0353 65.0939" fill="#888888"/>
</svg>
