<svg width="234" height="88" viewBox="0 0 234 88" fill="none" xmlns="http://www.w3.org/2000/svg">
<path d="M174.508 42.8049V45.4811H176.389V48.1364C176.395 48.3737 176.382 48.6296 176.341 48.8344C176.267 49.3296 175.796 50.173 174.461 50.173C173.134 50.173 172.672 49.3296 172.592 48.8344C172.558 48.6296 172.544 48.3737 172.544 48.1364V39.7497C172.544 39.4531 172.564 39.1284 172.627 38.8826C172.718 38.4357 173.114 37.5542 174.451 37.5542C175.855 37.5542 176.205 38.4835 176.286 38.8826C176.338 39.147 176.341 39.5905 176.341 39.5905V40.6088H180.963V40.0068C180.963 40.0068 180.984 39.3786 180.928 38.7924C180.58 35.3501 177.744 34.261 174.492 34.261C171.234 34.261 168.455 35.3602 168.05 38.7924C168.014 39.1063 167.958 39.6708 167.958 40.0068V47.7217C167.958 48.0577 167.969 48.3179 168.031 48.9319C168.333 52.2795 171.234 53.4661 174.479 53.4661C177.744 53.4661 180.625 52.2795 180.932 48.9319C180.987 48.3179 180.992 48.0577 180.999 47.7217V42.8049H174.508ZM142.643 34.7547H138.002V48.3299C138.01 48.5665 138.002 48.8322 137.962 49.0271C137.865 49.4828 137.479 50.3598 136.198 50.3598C134.934 50.3598 134.538 49.4828 134.448 49.0271C134.402 48.8322 134.396 48.5665 134.402 48.3299V34.7547H129.763V47.9086C129.757 48.2476 129.783 48.9404 129.803 49.1218C130.124 52.5495 132.825 53.6624 136.198 53.6624C139.578 53.6624 142.278 52.5495 142.604 49.1218C142.63 48.9404 142.663 48.2476 142.643 47.9086V34.7547ZM100.002 34.7547L97.6868 49.0987L95.3732 34.7547H87.8871L87.4901 53.1049H92.0763L92.2005 36.1176L95.356 53.1049H100.009L103.168 36.1176L103.292 53.1049H107.89L107.48 34.7547H100.002ZM72.2848 34.7547L68.8857 53.1049H73.8425L76.404 36.1176L78.9041 53.1049H83.8265L80.4415 34.7547H72.2848ZM158.863 49.5288L154.541 34.7547H147.731V52.9135H152.236L151.975 37.6668L156.616 52.9135H163.146V34.7547H158.612L158.863 49.5288ZM117.195 39.5304C117.113 39.168 117.137 38.783 117.179 38.5817C117.31 37.9943 117.705 37.3537 118.842 37.3537C119.902 37.3537 120.523 38.0144 120.523 39.0059V40.1279H125.047V38.8489C125.047 34.8951 121.502 34.274 118.936 34.274C115.704 34.274 113.064 35.3395 112.582 38.3145C112.454 39.1242 112.423 39.8428 112.626 40.7599C113.412 44.4694 119.87 45.5455 120.807 47.8914C120.972 48.3358 120.925 48.9025 120.841 49.2363C120.7 49.8469 120.289 50.4609 119.072 50.4609C117.93 50.4609 117.243 49.8044 117.243 48.815L117.241 47.054H112.372V48.4538C112.372 52.5101 115.549 53.734 118.971 53.734C122.248 53.734 124.955 52.6141 125.39 49.5782C125.597 48.0097 125.44 46.988 125.357 46.6032C124.599 42.7985 117.716 41.6541 117.195 39.5304ZM57.5166 39.4854C57.4278 39.1154 57.4485 38.725 57.498 38.5214C57.6234 37.9368 58.0204 37.2849 59.1776 37.2849C60.2509 37.2849 60.8828 37.9519 60.8828 38.9514V40.0872H65.4599V38.7981C65.4599 34.8063 61.8609 34.1701 59.2664 34.1701C56.007 34.1701 53.3437 35.2521 52.8564 38.2486C52.723 39.0711 52.7002 39.7948 52.8929 40.7219C53.6875 44.4736 60.2091 45.5584 61.158 47.9324C61.3357 48.3737 61.282 48.9404 61.1938 49.2872C61.0433 49.9041 60.6293 50.5269 59.4017 50.5269C58.2553 50.5269 57.5697 49.8591 57.5697 48.856L57.5633 47.0902H52.6392V48.4934C52.6392 52.5962 55.8614 53.8299 59.31 53.8299C62.6255 53.8299 65.3482 52.7001 65.7923 49.6291C66.0131 48.0462 65.8475 47.016 65.773 46.6254C64.9985 42.774 58.039 41.6334 57.5166 39.4854Z" fill="#888888"/>
</svg>
