<svg width="122" height="32" viewBox="0 0 122 32" fill="none" xmlns="http://www.w3.org/2000/svg">
<g clip-path="url(#clip0_67_242)">
<path d="M39.0742 24.3769L40.5931 20.8492C42.2345 22.0741 44.4148 22.711 46.5706 22.711C48.163 22.711 49.1674 22.0986 49.1674 21.1676C49.1429 18.5709 39.6377 20.6042 39.5642 14.0877C39.5397 10.7805 42.4794 8.23271 46.6441 8.23271C49.1184 8.23271 51.5927 8.84516 53.3565 10.2415L51.9357 13.8427C50.3188 12.8138 48.31 12.0789 46.3991 12.0789C45.1007 12.0789 44.2433 12.6913 44.2433 13.4753C44.2678 16.0231 53.8465 14.6267 53.9445 20.8492C53.9445 24.2299 51.0782 26.6062 46.9626 26.6062C43.9493 26.6062 41.181 25.8958 39.0742 24.3769ZM97.3549 19.5753C96.5955 20.8982 95.1746 21.8046 93.5333 21.8046C91.108 21.8046 89.1481 19.8448 89.1481 17.4195C89.1481 14.9942 91.108 13.0343 93.5333 13.0343C95.1746 13.0343 96.5955 13.9407 97.3549 15.2636L101.544 12.9363C99.9762 10.1435 96.963 8.23271 93.5333 8.23271C88.4622 8.23271 84.3465 12.3484 84.3465 17.4195C84.3465 22.4905 88.4622 26.6062 93.5333 26.6062C96.9875 26.6062 99.9762 24.7199 101.544 21.9026L97.3549 19.5753ZM56.0513 0.613831H61.2939V26.2632H56.0513V0.613831ZM103.602 0.613831V26.2632H108.844V18.5709L115.067 26.2632H121.779L113.867 17.1255L121.191 8.60018H114.773L108.844 15.6801V0.613831H103.602ZM76.8746 19.6243C76.1152 20.8737 74.5473 21.8046 72.7835 21.8046C70.3582 21.8046 68.3983 19.8448 68.3983 17.4195C68.3983 14.9942 70.3582 13.0343 72.7835 13.0343C74.5473 13.0343 76.1152 14.0142 76.8746 15.2881V19.6243ZM76.8746 8.60018V10.6825C76.0172 9.23712 73.8859 8.23271 71.6565 8.23271C67.0509 8.23271 63.4252 12.2994 63.4252 17.395C63.4252 22.4905 67.0509 26.6062 71.6565 26.6062C73.8859 26.6062 76.0172 25.6018 76.8746 24.1564V26.2387H82.1172V8.60018H76.8746Z" fill="#888888"/>
<path d="M6.66327 19.5998C6.66327 21.3881 5.21789 22.8335 3.42954 22.8335C1.64118 22.8335 0.195801 21.3881 0.195801 19.5998C0.195801 17.8114 1.64118 16.366 3.42954 16.366H6.66327V19.5998ZM8.28014 19.5998C8.28014 17.8114 9.72552 16.366 11.5139 16.366C13.3022 16.366 14.7476 17.8114 14.7476 19.5998V27.6841C14.7476 29.4725 13.3022 30.9178 11.5139 30.9178C9.72552 30.9178 8.28014 29.4725 8.28014 27.6841V19.5998Z" fill="#888888"/>
<path d="M11.514 6.61585C9.7256 6.61585 8.28022 5.17046 8.28022 3.38211C8.28022 1.59376 9.7256 0.148376 11.514 0.148376C13.3023 0.148376 14.7477 1.59376 14.7477 3.38211V6.61585H11.514ZM11.514 8.25721C13.3023 8.25721 14.7477 9.70259 14.7477 11.4909C14.7477 13.2793 13.3023 14.7247 11.514 14.7247H3.40512C1.61677 14.7247 0.171387 13.2793 0.171387 11.4909C0.171387 9.70259 1.61677 8.25721 3.40512 8.25721H11.514Z" fill="#888888"/>
<path d="M24.4735 11.4909C24.4735 9.70259 25.9189 8.25721 27.7072 8.25721C29.4956 8.25721 30.941 9.70259 30.941 11.4909C30.941 13.2793 29.4956 14.7247 27.7072 14.7247H24.4735V11.4909ZM22.8566 11.4909C22.8566 13.2793 21.4112 14.7247 19.6229 14.7247C17.8345 14.7247 16.3892 13.2793 16.3892 11.4909V3.38211C16.3892 1.59376 17.8345 0.148376 19.6229 0.148376C21.4112 0.148376 22.8566 1.59376 22.8566 3.38211V11.4909Z" fill="#888888"/>
<path d="M19.6229 24.4504C21.4112 24.4504 22.8566 25.8957 22.8566 27.6841C22.8566 29.4725 21.4112 30.9178 19.6229 30.9178C17.8345 30.9178 16.3892 29.4725 16.3892 27.6841V24.4504H19.6229ZM19.6229 22.8335C17.8345 22.8335 16.3892 21.3881 16.3892 19.5998C16.3892 17.8114 17.8345 16.366 19.6229 16.366H27.7317C29.5201 16.366 30.9655 17.8114 30.9655 19.5998C30.9655 21.3881 29.5201 22.8335 27.7317 22.8335H19.6229Z" fill="#888888"/>
</g>
<defs>
<clipPath id="clip0_67_242">
<rect width="122" height="31.1124" fill="white" transform="translate(0 0.00140381)"/>
</clipPath>
</defs>
</svg>
