<svg width="151" height="64" viewBox="0 0 151 64" fill="none" xmlns="http://www.w3.org/2000/svg">
<path fill-rule="evenodd" clip-rule="evenodd" d="M92.7236 26.0613C90.8814 24.0449 88.5835 23.0132 85.8838 23.0132C83.2845 23.0132 80.7053 24.8287 79.1176 26.6241L79.1243 23.2678L74.274 23.2611L74.2205 50.7881V51.1498L79.0975 51.1565L79.1176 42.5481C80.5914 44.2028 82.9227 45.1741 85.5153 45.1808C88.3692 45.1808 90.7675 44.1626 92.65 42.1595C94.5458 40.143 95.5105 37.2959 95.5172 34.0334C95.5239 30.6972 94.586 28.0175 92.7236 26.0613ZM84.7181 27.5485C86.3728 27.5485 87.7729 28.1716 88.8783 29.3975C90.0172 30.5833 90.6 32.1375 90.5933 34.02C90.5866 35.9158 90.0239 37.6174 88.8582 38.8568C87.7461 40.0426 86.3527 40.6455 84.698 40.6455C83.0701 40.6455 81.7102 40.0493 80.5445 38.8434C79.3855 37.5973 78.8228 35.9024 78.8228 33.9999C78.8295 32.1174 79.4123 30.5632 80.5579 29.3774C81.7102 28.1448 83.0701 27.5485 84.7047 27.5485H84.7181Z" fill="#888888"/>
<path fill-rule="evenodd" clip-rule="evenodd" d="M97.9892 27.3677L97.9691 38.9841C97.9624 41.4896 98.6525 43.2783 100.006 44.2965C100.85 44.933 101.922 45.2545 103.195 45.2545C104.173 45.2545 105.707 44.8593 105.707 44.8593L105.271 40.6254C105.271 40.6254 104.152 40.9871 103.61 40.5986C103.094 40.2301 102.839 39.4396 102.839 38.2539L102.86 27.3677L107.375 27.3744L107.382 23.3347L102.866 23.328L102.88 17.5265L98.0093 17.5198L97.9959 23.3213L93.9094 23.3146L97.9892 27.3677Z" fill="#888888"/>
<path fill-rule="evenodd" clip-rule="evenodd" d="M58.0152 17.2117H33.9985L33.9918 22.0217H43.5918L43.5516 44.4774V44.9196L48.6296 44.9263L48.6095 22.0284L58.0152 22.0217V17.2117Z" fill="#888888"/>
<path fill-rule="evenodd" clip-rule="evenodd" d="M32.1495 29.498L24.921 22.2495C24.854 22.1825 16.4466 13.7616 16.4466 13.7616L12.7955 17.3993L18.1348 22.7519L6.41785 34.4286L22.1744 50.2119L25.7785 46.6212L20.3924 41.2216L32.1495 29.498ZM17.1232 37.2289C17.016 37.2624 16.9088 37.2624 16.8016 37.2289C16.6944 37.1954 16.6073 37.1485 16.4131 36.9542L14.2894 34.8239C14.1018 34.6363 14.0482 34.5425 14.0147 34.4353C13.9812 34.3281 13.9812 34.221 14.0147 34.1138C14.0482 34.0066 14.0951 33.9195 14.2894 33.7252L20.9819 27.0461C21.1695 26.8585 21.2633 26.8049 21.3705 26.7781C21.4777 26.7446 21.5848 26.7446 21.692 26.7781C21.7992 26.8116 21.8863 26.8585 22.0806 27.0528L24.2042 29.1832C24.3918 29.3707 24.4454 29.4645 24.4722 29.5717C24.5057 29.6789 24.5057 29.7861 24.4722 29.8933C24.4387 30.0005 24.3918 30.0876 24.1975 30.2818L17.505 36.9609C17.3241 37.1485 17.2304 37.1954 17.1232 37.2289Z" fill="#888888"/>
<path fill-rule="evenodd" clip-rule="evenodd" d="M69.2832 26.1886C67.2935 24.132 64.587 22.9998 61.8136 23.0802C59.0066 23.0802 56.5346 24.065 54.4645 26.0144C52.3744 27.9773 51.3092 30.7039 51.3025 34.1138C51.2958 37.5237 52.3543 40.2502 54.4377 42.2198C56.5078 44.176 58.9865 45.1741 61.7935 45.1808C61.9007 45.1875 62.0078 45.1875 62.115 45.1875C64.7411 45.1875 67.3404 44.0621 69.2564 42.1059C70.6565 40.6656 72.3313 38.1199 72.338 34.154C72.3447 30.188 70.6833 27.6356 69.2832 26.1886ZM67.7491 34.1473C67.7424 36.1235 67.1595 37.7581 66.0073 39.0042C64.8617 40.2435 63.4348 40.8733 61.7667 40.8733C60.1321 40.8666 58.7185 40.2368 57.573 38.9841C56.4542 37.7648 55.8848 36.1235 55.8848 34.1205C55.8848 32.1174 56.4609 30.4828 57.5864 29.2635C58.7319 28.0242 60.1455 27.3945 61.7868 27.3945C63.4482 27.3945 64.8751 28.0309 66.0207 29.2836C67.1729 30.5297 67.7558 32.1643 67.7491 34.1473Z" fill="#888888"/>
<path fill-rule="evenodd" clip-rule="evenodd" d="M112.915 30.7977C112.915 29.5583 113.565 26.8317 117.156 26.8317C118.428 26.8317 119.152 27.2605 119.762 27.7696C120.351 28.2587 120.646 29.4645 120.646 30.4627V30.9317L114.717 31.8561C110.021 32.573 107.328 35.0986 107.315 38.7965C107.308 40.7125 108.005 42.3538 109.331 43.5596C110.637 44.7454 112.426 45.3751 114.536 45.3818C117.196 45.3818 119.192 44.4238 120.619 42.4476C120.626 43.285 120.626 44.1291 120.626 44.9129H125.57L125.603 30.7106C125.61 28.3927 124.853 26.1484 123.359 24.9158C121.885 23.7032 119.956 23.0802 117.162 23.0735H117.122C114.992 23.0735 112.734 23.6362 111.213 24.956C109.425 26.5035 108.547 28.9554 108.547 30.8513L112.915 30.7977ZM115.159 41.1211C113.404 41.1144 112.265 40.1163 112.272 38.5821C112.279 36.9877 113.391 36.0565 115.769 35.6546L120.639 34.8306V34.8775C120.626 38.5553 118.382 41.1211 115.179 41.1211H115.159Z" fill="#888888"/>
<path fill-rule="evenodd" clip-rule="evenodd" d="M127.935 17.5399L127.888 44.7655V44.8861L132.262 44.8995L132.309 17.6672V17.5466L127.935 17.5399Z" fill="#888888"/>
<path fill-rule="evenodd" clip-rule="evenodd" d="M134.828 43.2314C134.828 42.7624 134.989 42.3605 135.324 42.0255C135.659 41.6906 136.061 41.5231 136.523 41.5231C136.992 41.5231 137.401 41.6906 137.729 42.0255C138.064 42.3605 138.231 42.7624 138.231 43.2314C138.231 43.707 138.064 44.1023 137.729 44.4305C137.394 44.7655 136.992 44.9263 136.523 44.9263C136.054 44.9263 135.652 44.7655 135.324 44.4305C134.996 44.1023 134.828 43.707 134.828 43.2314ZM135.109 43.2314C135.109 43.6266 135.243 43.9683 135.518 44.2496C135.793 44.5243 136.128 44.665 136.53 44.665C136.925 44.665 137.26 44.5243 137.535 44.2496C137.809 43.9683 137.95 43.6333 137.95 43.2314C137.95 42.8294 137.809 42.4945 137.535 42.2198C137.26 41.9384 136.925 41.7977 136.53 41.7977C136.134 41.7977 135.8 41.9384 135.525 42.2198C135.25 42.4945 135.109 42.8294 135.109 43.2314ZM136.932 44.1626L136.476 43.352H136.168V44.1626H135.887V42.3002H136.644C137.019 42.3002 137.24 42.5213 137.24 42.8294C137.24 43.0907 137.046 43.285 136.784 43.3386L137.247 44.1626H136.932ZM136.168 42.548V43.1175H136.603C136.845 43.1175 136.965 43.0237 136.965 42.8361C136.965 42.6418 136.845 42.548 136.603 42.548H136.168Z" fill="#888888"/>
</svg>
