<svg width="34" height="37" viewBox="0 0 34 37" fill="none" xmlns="http://www.w3.org/2000/svg">
<path d="M31.2975 29.7625C31.0435 31.6485 29.7745 33.2804 27.9977 34.0057C27.1271 34.3679 26.1845 34.477 25.2416 34.3679C24.3352 34.2593 23.4285 33.9691 22.4859 33.4257C21.1803 32.6997 19.8747 31.576 18.3518 29.9078C20.7452 26.9706 22.1953 24.287 22.7395 21.8943C22.9934 20.7698 23.0296 19.7544 22.921 18.8115C22.776 17.9051 22.4497 17.0708 21.9418 16.3456C20.8177 14.7139 18.9321 13.771 16.8288 13.771C14.7256 13.771 12.84 14.7502 11.7159 16.3456C11.208 17.0708 10.882 17.9051 10.7367 18.8115C10.5918 19.7544 10.6281 20.8061 10.9182 21.8943C11.462 24.287 12.9487 27.0068 15.3059 29.9437C13.8192 31.6122 12.4774 32.7363 11.1718 33.4616C10.2292 34.0057 9.32248 34.2958 8.4161 34.4042C7.43692 34.5132 6.49396 34.3679 5.66004 34.0419C3.88316 33.3167 2.61417 31.6843 2.36022 29.7988C2.25154 28.8924 2.324 27.986 2.68662 26.9706C2.7953 26.6076 2.97679 26.2457 3.15792 25.8103C3.41186 25.2303 3.70203 24.6134 3.99184 23.9968L4.02842 23.9247C6.53018 18.5213 9.2138 13.0095 12.0061 7.64301L12.1148 7.42493C12.4049 6.88154 12.6947 6.30157 12.9853 5.75745C13.2751 5.17712 13.6015 4.633 14.0003 4.16134C14.7618 3.29083 15.7772 2.81954 16.9013 2.81954C18.0254 2.81954 19.0408 3.29083 19.8023 4.16134C20.2011 4.633 20.5275 5.17712 20.8177 5.75745C21.1078 6.30157 21.3977 6.88154 21.6878 7.42493L21.7969 7.64301C24.5526 13.0457 27.2362 18.5575 29.7383 23.961V23.9968C30.0285 24.5772 30.2821 25.2303 30.5722 25.8103C30.7537 26.2457 30.9348 26.6076 31.0435 26.9706C31.3337 27.9132 31.4424 28.8203 31.2975 29.7625ZM16.8288 28.0581C14.8708 25.5926 13.6015 23.2716 13.1664 21.3139C12.9853 20.4797 12.9487 19.7544 13.0577 19.1016C13.1302 18.5213 13.3479 18.0134 13.6377 17.578C14.3267 16.5999 15.487 15.9822 16.8288 15.9822C18.1707 15.9822 19.3672 16.5629 20.02 17.578C20.3098 18.0134 20.5275 18.5213 20.6 19.1016C20.7086 19.7544 20.6724 20.5159 20.4913 21.3139C20.0562 23.2357 18.7869 25.5564 16.8288 28.0581ZM33.183 26.1726C33.0019 25.7375 32.8204 25.2662 32.6393 24.8673C32.3491 24.2149 32.0589 23.598 31.805 23.0176L31.7688 22.9818C29.267 17.5421 26.5834 12.0303 23.7549 6.59174L23.6462 6.37366C23.356 5.82954 23.0659 5.24921 22.776 4.66923C22.4131 4.01608 22.0504 3.32778 21.4705 2.67463C20.3098 1.22415 18.642 0.426453 16.8651 0.426453C15.052 0.426453 13.4204 1.22415 12.2234 2.60254C11.6797 3.25497 11.2808 3.94399 10.9182 4.59714C10.6281 5.17712 10.3379 5.75745 10.0477 6.30157L9.93904 6.51856C7.14711 11.9579 4.42727 17.47 1.92515 22.9093L1.88892 22.9818C1.63498 23.5618 1.34481 24.178 1.05464 24.8311C0.873511 25.2303 0.69202 25.6654 0.51089 26.1367C0.0392292 27.4781 -0.105674 28.7475 0.0754551 30.0527C0.474664 32.7725 2.28777 35.0573 4.78989 36.0724C5.73249 36.4716 6.71168 36.6527 7.72709 36.6527C8.01726 36.6527 8.37988 36.6165 8.67005 36.5799C9.86659 36.4346 11.0994 36.0365 12.2959 35.3471C13.783 34.5132 15.1972 33.3167 16.7926 31.576C18.388 33.3167 19.8385 34.5132 21.289 35.3471C22.4859 36.0365 23.7186 36.4346 24.9152 36.5799C25.2054 36.6165 25.568 36.6527 25.8581 36.6527C26.8736 36.6527 27.8886 36.4716 28.7953 36.0724C31.3337 35.0573 33.1106 32.7363 33.5094 30.0527C33.7996 28.7834 33.6543 27.5147 33.183 26.1726Z" fill="#FF5A5F"/>
</svg>
