<svg width="68" height="68" viewBox="0 0 68 68" fill="none" xmlns="http://www.w3.org/2000/svg">
<rect y="6.10352e-05" width="68" height="68" rx="12" fill="url(#paint0_linear_11_17)"/>
<g clip-path="url(#clip0_11_17)">
<path d="M47.7551 44.8279C47.5136 46.6209 46.3072 48.1724 44.6179 48.8619C43.7903 49.2063 42.8941 49.31 41.9976 49.2063C41.1359 49.103 40.2739 48.8272 39.3777 48.3105C38.1365 47.6204 36.8953 46.552 35.4474 44.966C37.7229 42.1736 39.1015 39.6222 39.6188 37.3474C39.8602 36.2784 39.8947 35.313 39.7914 34.4165C39.6536 33.5548 39.3433 32.7616 38.8604 32.0721C37.7917 30.5209 35.9991 29.6244 33.9995 29.6244C31.9999 29.6244 30.2072 30.5554 29.1385 32.0721C28.6557 32.7616 28.3457 33.5548 28.2076 34.4165C28.0698 35.313 28.1043 36.3128 28.3802 37.3474C28.8971 39.6222 30.3106 42.208 32.5516 45.0001C31.1382 46.5865 29.8625 47.6551 28.6212 48.3446C27.7251 48.8619 26.863 49.1378 26.0013 49.2408C25.0704 49.3445 24.1739 49.2063 23.3811 48.8964C21.6918 48.2069 20.4853 46.655 20.2439 44.8624C20.1406 44.0007 20.2095 43.1389 20.5542 42.1736C20.6575 41.8285 20.8301 41.4844 21.0023 41.0704C21.2437 40.519 21.5196 39.9325 21.7951 39.3463L21.8299 39.2778C24.2084 34.1406 26.7597 28.9005 29.4144 23.7985L29.5177 23.5911C29.7936 23.0745 30.0691 22.5231 30.3453 22.0058C30.6209 21.4541 30.9312 20.9368 31.3104 20.4884C32.0343 19.6608 32.9997 19.2127 34.0684 19.2127C35.1371 19.2127 36.1024 19.6608 36.8264 20.4884C37.2056 20.9368 37.5159 21.4541 37.7917 22.0058C38.0676 22.5231 38.3431 23.0745 38.619 23.5911L38.7227 23.7985C41.3426 28.9349 43.8939 34.1751 46.2727 39.3123V39.3463C46.5486 39.8981 46.7897 40.519 47.0656 41.0704C47.2381 41.4844 47.4103 41.8285 47.5136 42.1736C47.7895 43.0697 47.8928 43.9321 47.7551 44.8279ZM33.9995 43.2075C32.138 40.8635 30.9312 38.6568 30.5175 36.7957C30.3453 36.0025 30.3106 35.313 30.4142 34.6924C30.4831 34.1406 30.6901 33.6578 30.9656 33.2438C31.6207 32.3139 32.7238 31.7267 33.9995 31.7267C35.2752 31.7267 36.4127 32.2788 37.0334 33.2438C37.3089 33.6578 37.5159 34.1406 37.5848 34.6924C37.6881 35.313 37.6536 36.0369 37.4814 36.7957C37.0678 38.6227 35.861 40.829 33.9995 43.2075ZM49.5477 41.4148C49.3755 41.0012 49.203 40.5531 49.0307 40.174C48.7549 39.5537 48.479 38.9672 48.2376 38.4154L48.2031 38.3813C45.8247 33.2097 43.2733 27.9696 40.5842 22.799L40.4809 22.5917C40.205 22.0744 39.9291 21.5226 39.6536 20.9712C39.3085 20.3503 38.9638 19.6959 38.4124 19.0749C37.3089 17.6959 35.7232 16.9376 34.0339 16.9376C32.3102 16.9376 30.759 17.6959 29.6211 19.0064C29.1041 19.6267 28.7249 20.2817 28.3802 20.9027C28.1043 21.4541 27.8284 22.0058 27.5525 22.5231L27.4492 22.7294C24.7949 27.9007 22.2091 33.1412 19.8303 38.3124L19.7958 38.3813C19.5544 38.9327 19.2785 39.5185 19.0027 40.1395C18.8305 40.519 18.6579 40.9327 18.4857 41.3808C18.0373 42.6561 17.8995 43.8629 18.0717 45.1038C18.4513 47.6896 20.175 49.8618 22.5538 50.8268C23.45 51.2063 24.3809 51.3785 25.3463 51.3785C25.6222 51.3785 25.9669 51.3441 26.2428 51.3093C27.3803 51.1712 28.5524 50.7927 29.6899 50.1373C31.1037 49.3445 32.4483 48.2069 33.965 46.552C35.4818 48.2069 36.8608 49.3445 38.2398 50.1373C39.3777 50.7927 40.5497 51.1712 41.6873 51.3093C41.9632 51.3441 42.3079 51.3785 42.5838 51.3785C43.5492 51.3785 44.5142 51.2063 45.3763 50.8268C47.7895 49.8618 49.4788 47.6551 49.858 45.1038C50.1339 43.897 49.9958 42.6909 49.5477 41.4148Z" fill="white"/>
</g>
<defs>
<linearGradient id="paint0_linear_11_17" x1="34" y1="6.10352e-05" x2="34" y2="68.0001" gradientUnits="userSpaceOnUse">
<stop stop-color="#EF6F73"/>
<stop offset="1" stop-color="#E0565B"/>
</linearGradient>
<clipPath id="clip0_11_17">
<rect width="32" height="34.5" fill="white" transform="translate(18 16.9376)"/>
</clipPath>
</defs>
</svg>
