<svg width="19" height="19" viewBox="0 0 19 19" fill="none" xmlns="http://www.w3.org/2000/svg">
<path d="M9.5 11.875V11.8829M9.5 7.125V8.70833V7.125Z" stroke="#66717E" stroke-width="1.1875" stroke-linecap="round" stroke-linejoin="round"/>
<path d="M3.95852 15.0414H15.0419C15.3002 15.0396 15.5541 14.9746 15.7816 14.8521C16.009 14.7296 16.203 14.5533 16.3467 14.3386C16.4903 14.1239 16.5793 13.8773 16.6058 13.6203C16.6322 13.3634 16.5954 13.1038 16.4985 12.8643L10.8777 3.16641C10.7408 2.91894 10.5401 2.71266 10.2964 2.56901C10.0528 2.42537 9.77511 2.34961 9.49227 2.34961C9.20944 2.34961 8.93178 2.42537 8.68814 2.56901C8.4445 2.71266 8.24378 2.91894 8.10686 3.16641L2.48602 12.8643C2.39098 13.0983 2.35329 13.3517 2.3761 13.6032C2.39892 13.8547 2.48157 14.0972 2.61717 14.3102C2.75276 14.5233 2.93736 14.7009 3.15556 14.8281C3.37375 14.9553 3.61921 15.0284 3.87144 15.0414" stroke="#66717E" stroke-width="1.1875" stroke-linecap="round" stroke-linejoin="round"/>
</svg>
