<svg width="13" height="15" viewBox="0 0 13 15" fill="none" xmlns="http://www.w3.org/2000/svg">
<g clip-path="url(#clip0_601_71)">
<path d="M6.10227 12.3931C5.93873 12.3933 5.77702 12.3587 5.62795 12.2914C5.47887 12.2241 5.34585 12.1259 5.23777 12.0031L0.332273 6.42713C0.177228 6.24236 0.100628 6.00425 0.118853 5.76374C0.137078 5.52322 0.248681 5.29938 0.429798 5.14008C0.610915 4.98077 0.847171 4.89865 1.08805 4.91128C1.32892 4.9239 1.5553 5.03027 1.71877 5.20763L6.00827 10.0836C6.02001 10.097 6.03446 10.1077 6.05067 10.1151C6.06688 10.1224 6.08448 10.1262 6.10227 10.1262C6.12007 10.1262 6.13767 10.1224 6.15388 10.1151C6.17009 10.1077 6.18454 10.097 6.19627 10.0836L10.4858 5.20763C10.5649 5.11334 10.6621 5.03582 10.7716 4.97962C10.8811 4.92343 11.0007 4.88969 11.1234 4.88039C11.2462 4.87109 11.3695 4.88641 11.4862 4.92547C11.603 4.96453 11.7107 5.02652 11.8031 5.10781C11.8956 5.1891 11.9708 5.28804 12.0244 5.39883C12.0781 5.50961 12.109 5.63 12.1154 5.75291C12.1219 5.87583 12.1037 5.99879 12.0619 6.11457C12.0202 6.23036 11.9557 6.33662 11.8723 6.42713L6.96827 12.0011C6.86 12.1242 6.72678 12.2228 6.57747 12.2904C6.42816 12.3579 6.26617 12.393 6.10227 12.3931Z" fill="white"/>
</g>
<defs>
<clipPath id="clip0_601_71">
<rect width="12" height="15" fill="white" transform="translate(0.102539)"/>
</clipPath>
</defs>
</svg>
