<svg width="9" height="10" viewBox="0 0 9 10" fill="none" xmlns="http://www.w3.org/2000/svg">
<g clip-path="url(.clip0_584_3866)">
<path d="M8.84977 5.19155L5.17739 1.55405C4.99048 1.3753 4.74035 1.27789 4.48177 1.28316C4.22319 1.28843 3.97724 1.39595 3.79777 1.58218C3.61353 1.76367 3.5077 2.0101 3.50294 2.26867C3.49817 2.52724 3.59485 2.77739 3.77227 2.96555L5.22389 4.3583C5.23733 4.37126 5.2466 4.38794 5.25051 4.4062C5.25441 4.42446 5.25277 4.44347 5.24581 4.4608C5.23884 4.47812 5.22685 4.49297 5.21139 4.50344C5.19593 4.5139 5.17769 4.51952 5.15902 4.51955H0.80039C0.688632 4.53103 0.580231 4.56441 0.481384 4.61781C0.382536 4.6712 0.295179 4.74355 0.224308 4.83072C0.153436 4.91789 0.100438 5.01817 0.0683446 5.12583C0.0362508 5.2335 0.0256899 5.34643 0.0372656 5.45818C0.0372656 5.7638 0.205265 6.39943 0.787265 6.39943H5.16689C5.18546 6.3994 5.20361 6.40488 5.21906 6.41517C5.23451 6.42547 5.24655 6.44013 5.25366 6.45728C5.26077 6.47443 5.26263 6.49331 5.259 6.51151C5.25537 6.52972 5.24641 6.54644 5.23327 6.55955L3.83414 7.95943C3.66425 8.14954 3.5736 8.39749 3.58082 8.65235C3.58804 8.90721 3.69258 9.14963 3.87296 9.32982C4.05334 9.51001 4.29587 9.61429 4.55074 9.62123C4.80561 9.62818 5.05346 9.53727 5.24339 9.36718L8.85277 5.72218C8.88743 5.68715 8.91486 5.64564 8.93348 5.60001C8.95209 5.55438 8.96153 5.50553 8.96125 5.45624C8.96097 5.40696 8.95098 5.35822 8.93185 5.3128C8.91272 5.26739 8.88483 5.22618 8.84977 5.19155Z" fill="black"/>
</g>
<defs>
<clipPath class="clip0_584_3866">
<rect width="9" height="9" fill="white" transform="translate(0 0.958191)"/>
</clipPath>
</defs>
</svg>
