<svg width="100%" height="100%" viewBox="0 0 16 16" fill="none" xmlns="http://www.w3.org/2000/svg">
<path d="M9.53342 8.11935C9.5179 8.10387 9.50558 8.08548 9.49718 8.06523C9.48878 8.04498 9.48445 8.02328 9.48445 8.00135C9.48445 7.97943 9.48878 7.95772 9.49718 7.93747C9.50558 7.91723 9.5179 7.89883 9.53342 7.88335L15.7088 1.70869C15.8963 1.52091 16.0015 1.26634 16.0013 1.00098C16.0011 0.735614 15.8955 0.481194 15.7078 0.293685C15.52 0.106177 15.2654 0.000941867 15 0.0011294C14.7347 0.00131693 14.4803 0.106912 14.2928 0.294685L8.11808 6.46669C8.1026 6.48221 8.08421 6.49452 8.06396 6.50292C8.04371 6.51133 8.02201 6.51565 8.00008 6.51565C7.97816 6.51565 7.95646 6.51133 7.93621 6.50292C7.91596 6.49452 7.89757 6.48221 7.88208 6.46669L1.70742 0.294685C1.61457 0.201797 1.50434 0.128105 1.38302 0.0778179C1.26169 0.0275303 1.13165 0.00163174 1.00032 0.00160079C0.735081 0.00153828 0.480681 0.106844 0.293085 0.294352C0.105488 0.48186 6.25399e-05 0.736211 2.78157e-08 1.00145C-6.24843e-05 1.26669 0.105243 1.52109 0.292751 1.70869L6.46675 7.88335C6.48227 7.89883 6.49459 7.91723 6.50299 7.93747C6.51139 7.95772 6.51572 7.97943 6.51572 8.00135C6.51572 8.02328 6.51139 8.04498 6.50299 8.06523C6.49459 8.08548 6.48227 8.10387 6.46675 8.11935L0.292751 14.2947C0.199907 14.3876 0.126267 14.4978 0.0760367 14.6192C0.0258064 14.7405 -3.0925e-05 14.8706 2.78157e-08 15.0019C6.25399e-05 15.2672 0.105488 15.5215 0.293085 15.709C0.385973 15.8019 0.496239 15.8755 0.617587 15.9257C0.738934 15.976 0.868987 16.0018 1.00032 16.0018C1.26556 16.0017 1.51991 15.8963 1.70742 15.7087L7.88208 9.53335C7.89757 9.51783 7.91596 9.50552 7.93621 9.49712C7.95646 9.48871 7.97816 9.48439 8.00008 9.48439C8.02201 9.48439 8.04371 9.48871 8.06396 9.49712C8.08421 9.50552 8.1026 9.51783 8.11808 9.53335L14.2928 15.7087C14.4803 15.8963 14.7346 16.0017 14.9999 16.0018C15.2651 16.0018 15.5195 15.8965 15.7071 15.709C15.8947 15.5215 16.0001 15.2672 16.0002 15.0019C16.0002 14.7367 15.8949 14.4823 15.7074 14.2947L9.53342 8.11935Z" fill="#5C5C5C"/>
</svg>
