<svg width="68" height="68" viewBox="0 0 68 68" fill="none" xmlns="http://www.w3.org/2000/svg">
<rect y="6.10352e-05" width="68" height="68" rx="12" fill="url(#paint0_linear_11_12)"/>
<g clip-path="url(#clip0_11_12)">
<path d="M41.5296 17.1308L37.1367 17.1237C32.2014 17.1237 29.012 20.3959 29.012 25.4606V29.3044H24.5952C24.2135 29.3044 23.9044 29.6138 23.9044 29.9955V35.5648C23.9044 35.9465 24.2138 36.2555 24.5952 36.2555H29.012V50.3086C29.012 50.6903 29.3211 50.9994 29.7028 50.9994H35.4656C35.8472 50.9994 36.1563 50.6899 36.1563 50.3086V36.2555H41.3207C41.7023 36.2555 42.0114 35.9465 42.0114 35.5648L42.0135 29.9955C42.0135 29.8122 41.9406 29.6367 41.8112 29.507C41.6819 29.3774 41.5057 29.3044 41.3224 29.3044H36.1563V26.0459C36.1563 24.4798 36.5295 23.6847 38.5697 23.6847L41.5289 23.6837C41.9103 23.6837 42.2193 23.3742 42.2193 22.9929V17.8215C42.2193 17.4405 41.9106 17.1315 41.5296 17.1308Z" fill="#FAFAFA"/>
</g>
<defs>
<linearGradient id="paint0_linear_11_12" x1="34" y1="6.10352e-05" x2="34" y2="68.0001" gradientUnits="userSpaceOnUse">
<stop stop-color="#18AFFF"/>
<stop offset="1" stop-color="#0062DF"/>
</linearGradient>
<clipPath id="clip0_11_12">
<rect width="33.876" height="33.8756" fill="white" transform="translate(16.124 17.1237)"/>
</clipPath>
</defs>
</svg>
