<svg width="24" height="43" viewBox="0 0 24 43" fill="none" xmlns="http://www.w3.org/2000/svg">
<path d="M22.146 0.255354L16.6742 0.246574C10.5267 0.246574 6.55399 4.32247 6.55399 10.631V15.4189H1.05229C0.576878 15.4189 0.191895 15.8043 0.191895 16.2798V23.2169C0.191895 23.6923 0.577317 24.0773 1.05229 24.0773H6.55399V41.5819C6.55399 42.0574 6.93897 42.4423 7.41438 42.4423H14.5925C15.0679 42.4423 15.4529 42.0569 15.4529 41.5819V24.0773H21.8857C22.3611 24.0773 22.7461 23.6923 22.7461 23.2169L22.7487 16.2798C22.7487 16.0515 22.6578 15.8329 22.4967 15.6713C22.3356 15.5098 22.1162 15.4189 21.8879 15.4189H15.4529V11.3601C15.4529 9.40934 15.9178 8.41901 18.459 8.41901L22.1451 8.41769C22.6201 8.41769 23.0051 8.03227 23.0051 7.55729V1.11575C23.0051 0.641215 22.6205 0.256232 22.146 0.255354Z" fill="#0C88EF"/>
</svg>
