<svg width="35" height="36" viewBox="0 0 35 36" fill="none" xmlns="http://www.w3.org/2000/svg">
<path d="M34.7344 18.5421C34.7344 17.4032 34.6335 16.3219 34.4605 15.2695H18.1694V21.7715H27.4972C27.0791 23.9052 25.8536 25.7073 24.0371 26.9327V31.2578H29.602C32.8602 28.2447 34.7344 23.8043 34.7344 18.5421Z" fill="#4285F4"/>
<path d="M18.1714 35.4531C22.8425 35.4531 26.7495 33.8961 29.604 31.2578L24.0391 26.9327C22.4821 27.9707 20.507 28.6051 18.1714 28.6051C13.659 28.6051 9.83848 25.5631 8.46888 21.4543H2.73096V25.9091C5.57108 31.5605 11.4099 35.4531 18.1714 35.4531Z" fill="#34A853"/>
<path d="M8.46684 21.4542C8.10642 20.4162 7.919 19.3061 7.919 18.1527C7.919 16.9994 8.12084 15.8893 8.46684 14.8512V10.3964H2.72892C1.54673 12.732 0.869141 15.3558 0.869141 18.1527C0.869141 20.9496 1.54673 23.5735 2.72892 25.909L8.46684 21.4542Z" fill="#FBBC05"/>
<path d="M18.1714 7.70049C20.7232 7.70049 23.0011 8.57992 24.8032 10.2955L29.7338 5.36495C26.7495 2.56807 22.8425 0.852463 18.1714 0.852463C11.4099 0.852463 5.57108 4.74503 2.73096 10.3964L8.46888 14.8513C9.83848 10.7425 13.659 7.70049 18.1714 7.70049Z" fill="#EA4335"/>
</svg>
