<svg width="14" height="14" viewBox="0 0 14 14" fill="none" xmlns="http://www.w3.org/2000/svg">
<path d="M0.953389 10.9375C1.16776 10.9379 1.37418 10.8563 1.53031 10.7094L5.23622 7.23334C5.28927 7.18316 5.35981 7.15568 5.43283 7.15677C5.50584 7.15786 5.57553 7.18743 5.62706 7.23917L6.87364 8.48634C7.24868 8.84439 7.74725 9.04417 8.26576 9.04417C8.78428 9.04417 9.28285 8.84439 9.65789 8.48634L11.7445 6.39975C11.7575 6.3867 11.7729 6.37635 11.79 6.36928C11.807 6.36221 11.8252 6.35858 11.8436 6.35858C11.8621 6.35858 11.8803 6.36221 11.8973 6.36928C11.9143 6.37635 11.9298 6.3867 11.9428 6.39975L12.931 7.38442C13.0365 7.48944 13.1793 7.54838 13.3282 7.54834C13.4774 7.54818 13.6204 7.48891 13.7259 7.3835C13.8314 7.27809 13.8908 7.13515 13.8911 6.986V3.62484C13.891 3.47564 13.8316 3.33261 13.7261 3.22717C13.6205 3.12173 13.4774 3.0625 13.3282 3.0625H9.95364C9.84193 3.06207 9.73262 3.09492 9.63965 3.15686C9.54669 3.21881 9.47428 3.30704 9.43166 3.4103C9.38904 3.51356 9.37814 3.62718 9.40036 3.73666C9.42257 3.84614 9.47689 3.94652 9.55639 4.025L10.5481 5.01667C10.5745 5.04315 10.5894 5.07901 10.5895 5.11642C10.5895 5.13488 10.5859 5.15316 10.5788 5.17019C10.5717 5.18722 10.5612 5.20266 10.5481 5.21559L8.46439 7.29984C8.41143 7.3522 8.33995 7.38157 8.26547 7.38157C8.19099 7.38157 8.11952 7.3522 8.06656 7.29984L6.81939 6.05267C6.45973 5.68939 5.97233 5.48105 5.4612 5.47211C4.95008 5.46318 4.4557 5.65435 4.08356 6.00484L0.376473 9.478C0.253562 9.59385 0.168231 9.7439 0.131515 9.90876C0.0947978 10.0736 0.108383 10.2457 0.170515 10.4028C0.232646 10.5598 0.340466 10.6946 0.480032 10.7897C0.619597 10.8849 0.784491 10.9359 0.953389 10.9363V10.9375Z" fill="#66717E"/>
</svg>
