<svg width="60" height="60" viewBox="0 0 60 60" fill="none" xmlns="http://www.w3.org/2000/svg">
<path d="M18.3326 37.2937C17.817 37.7766 17.2967 37.2 17.2967 37.2C17.2967 37.2 8.63419 28.0219 8.07169 27.6094C7.2795 27.0328 5.58262 26.1281 3.88575 27.8766C3.17794 28.6031 2.02481 30.2203 4.167 32.8266C4.63106 33.3891 18.1264 47.6109 18.9139 48.3797C18.9139 48.3797 25.1482 54.4453 28.9217 56.7281C29.967 57.3609 31.1436 58.0312 32.517 58.5C33.8857 58.9687 35.4326 59.2922 37.0639 59.2922C38.6951 59.3109 40.3873 58.9969 41.9858 58.4109C43.5842 57.8203 45.0748 56.9625 46.4295 55.9734C46.7623 55.7203 47.0998 55.4672 47.4139 55.1953L48.3232 54.4453C48.9561 53.9156 49.5467 53.3578 50.1139 52.7906C51.2529 51.6562 52.2795 50.4422 53.1842 49.2C54.0842 47.9531 54.8483 46.6641 55.4576 45.3797C56.067 44.0953 56.4936 42.8062 56.7514 41.5875C57.0233 40.3734 57.0983 39.225 57.0561 38.2219C57.0467 37.2187 56.8451 36.3609 56.6811 35.6766C56.4936 34.9922 56.292 34.4812 56.1326 34.1437C55.9779 33.8062 55.8936 33.6281 55.8936 33.6281C55.6779 33.0234 55.4717 32.4469 55.2889 31.9266C54.7733 30.4594 54.1779 28.8141 53.5592 27.1219C53.2967 26.4047 53.1748 26.0812 53.1748 26.0812L53.1795 26.0953C50.9061 19.9219 48.4639 13.5609 48.4639 13.5609C48.0936 12.4406 46.7295 12.0516 45.7264 12.7734C42.8295 14.8547 41.9436 17.8922 42.9654 21.1312L45.5858 28.3125C45.9561 29.1141 44.9342 30.0422 44.2498 29.4844C42.0983 27.7312 37.5467 22.8984 37.5467 22.8984C35.5123 20.9484 24.0326 9.17812 23.2639 8.46093C21.717 7.02187 19.767 6.28124 18.2811 7.37343C16.7623 8.48905 16.3404 10.2141 17.8076 12.0984C18.2061 12.6094 29.8076 24.8672 29.8076 24.8672C30.4826 25.575 29.6857 26.5781 28.9404 25.8891C28.9404 25.8891 14.5076 10.8328 13.8561 10.1297C12.3795 8.52655 10.0076 8.17499 8.60138 9.49687C7.22794 10.7859 7.26075 12.9 8.76075 14.5594C9.23888 15.0844 19.4061 25.8187 23.4748 30.2156C23.7467 30.5109 23.9576 30.9047 23.5545 31.275C23.5498 31.2797 23.142 31.7203 22.617 31.1578C21.5107 29.9766 10.4623 18.4641 9.84825 17.8406C8.43731 16.4062 6.54356 15.7266 5.02012 17.1234C3.63262 18.3937 3.40762 20.6109 5.00137 22.1766L18.3842 36.3234C18.3842 36.3234 18.8201 36.8391 18.3326 37.2937Z" fill="#FAC036"/>
<path d="M40.0592 25.5L41.1889 26.7093C41.1889 26.7093 34.7248 32.9484 39.1311 42.5297C39.1311 42.5297 39.703 43.7437 38.953 43.9453C38.953 43.9453 38.2967 44.3109 37.5467 42.4453C37.5467 42.4406 33.0983 33.3422 40.0592 25.5Z" fill="#E48C15"/>
<path d="M29.6624 4.78125C29.6624 4.78125 32.3858 5.19375 34.9077 7.89375C37.4295 10.5984 38.5967 14.0719 38.5967 14.0719" stroke="#444444" stroke-width="1.875" stroke-miterlimit="10" stroke-linecap="round"/>
<path d="M36.3 1.64062C36.3 1.64062 38.5829 2.78906 40.3454 5.625C42.1079 8.46094 42.5344 11.7422 42.5344 11.7422" stroke="#444444" stroke-width="1.875" stroke-miterlimit="10" stroke-linecap="round"/>
<path d="M16.7389 51.9047C16.7389 51.9047 13.992 52.0875 10.9498 49.9875C7.90762 47.8875 6.01855 44.7469 6.01855 44.7469" stroke="#444444" stroke-width="1.875" stroke-miterlimit="10" stroke-linecap="round"/>
<path d="M14.7799 56.5125C14.7799 56.5125 12.2299 56.6203 9.30488 55.0031C6.37988 53.386 4.41113 50.7281 4.41113 50.7281" stroke="#444444" stroke-width="1.875" stroke-miterlimit="10" stroke-linecap="round"/>
</svg>
