<svg width="19" height="21" viewBox="0 0 19 21" fill="none" xmlns="http://www.w3.org/2000/svg">
<g clip-path="url(#clip0_180_1874)">
<path d="M9.50401 5.6653C6.94865 5.6653 4.88749 7.72647 4.88749 10.2818C4.88749 12.8372 6.94865 14.8983 9.50401 14.8983C12.0594 14.8983 14.1205 12.8372 14.1205 10.2818C14.1205 7.72647 12.0594 5.6653 9.50401 5.6653ZM9.50401 13.2832C7.85267 13.2832 6.50267 11.9372 6.50267 10.2818C6.50267 8.62647 7.84865 7.28048 9.50401 7.28048C11.1594 7.28048 12.5053 8.62647 12.5053 10.2818C12.5053 11.9372 11.1553 13.2832 9.50401 13.2832ZM15.3862 5.47647C15.3862 6.07513 14.904 6.55325 14.3094 6.55325C13.7107 6.55325 13.2326 6.07111 13.2326 5.47647C13.2326 4.88182 13.7147 4.39968 14.3094 4.39968C14.904 4.39968 15.3862 4.88182 15.3862 5.47647ZM18.4437 6.56932C18.3754 5.12691 18.046 3.84923 16.9893 2.79655C15.9366 1.74388 14.6589 1.41441 13.2165 1.34209C11.7299 1.25771 7.2741 1.25771 5.78749 1.34209C4.3491 1.41039 3.07142 1.73986 2.01472 2.79254C0.958028 3.84522 0.632581 5.12289 0.56026 6.5653C0.475885 8.05191 0.475885 12.5077 0.56026 13.9943C0.628564 15.4367 0.958028 16.7144 2.01472 17.7671C3.07142 18.8198 4.34508 19.1492 5.78749 19.2216C7.2741 19.3059 11.7299 19.3059 13.2165 19.2216C14.6589 19.1533 15.9366 18.8238 16.9893 17.7671C18.042 16.7144 18.3714 15.4367 18.4437 13.9943C18.5281 12.5077 18.5281 8.05593 18.4437 6.56932ZM16.5232 15.5894C16.2098 16.3769 15.6031 16.9836 14.8116 17.301C13.6263 17.7711 10.8138 17.6626 9.50401 17.6626C8.19419 17.6626 5.37767 17.7671 4.19642 17.301C3.40892 16.9876 2.80222 16.3809 2.48481 15.5894C2.01472 14.4041 2.12321 11.5916 2.12321 10.2818C2.12321 8.972 2.01874 6.15548 2.48481 4.97423C2.79821 4.18673 3.4049 3.58004 4.19642 3.26263C5.38169 2.79254 8.19419 2.90102 9.50401 2.90102C10.8138 2.90102 13.6304 2.79655 14.8116 3.26263C15.5991 3.57602 16.2058 4.18271 16.5232 4.97423C16.9933 6.1595 16.8848 8.972 16.8848 10.2818C16.8848 11.5916 16.9933 14.4082 16.5232 15.5894Z" fill="#2B2B59"/>
</g>
<defs>
<clipPath id="clip0_180_1874">
<rect width="18" height="20.5714" fill="white" transform="translate(0.5)"/>
</clipPath>
</defs>
</svg>
