<svg width="19" height="21" viewBox="0 0 19 21" fill="none" xmlns="http://www.w3.org/2000/svg">
<g clip-path="url(#clip0_180_1862)">
<path d="M4.52911 18.0001H0.797321V5.98268H4.52911V18.0001ZM2.66121 4.34339C1.4679 4.34339 0.5 3.355 0.5 2.16169C0.5 1.58851 0.727698 1.0388 1.133 0.633491C1.53831 0.228186 2.08802 0.000488281 2.66121 0.000488281C3.23439 0.000488281 3.7841 0.228186 4.18941 0.633491C4.59471 1.0388 4.82241 1.58851 4.82241 2.16169C4.82241 3.355 3.85411 4.34339 2.66121 4.34339ZM18.496 18.0001H14.7722V12.1501C14.7722 10.7559 14.7441 8.96794 12.832 8.96794C10.8918 8.96794 10.5945 10.4827 10.5945 12.0496V18.0001H6.8667V5.98268H10.4458V7.62196H10.498C10.9963 6.67777 12.2133 5.68134 14.0289 5.68134C17.8057 5.68134 18.5 8.16839 18.5 11.3987V18.0001H18.496Z" fill="#2B2B59"/>
</g>
<defs>
<clipPath id="clip0_180_1862">
<rect width="18" height="20.5714" fill="white" transform="translate(0.5)"/>
</clipPath>
</defs>
</svg>
