<svg width="100%" height="100%" viewBox="0 0 25 37" fill="none" xmlns="http://www.w3.org/2000/svg">
<path fill-rule="evenodd" clip-rule="evenodd" d="M14.5714 3.06402L18.2243 0.955284C20.3507 -0.272541 23.0948 0.462795 24.3219 2.58921C25.5497 4.71496 24.8144 7.45971 22.6887 8.68754L17.5923 11.6289L13.4218 14.0369L22.3499 19.1918C23.6757 19.8149 24.6049 21.0454 24.8436 22.4821C25.1994 24.501 24.143 26.4866 22.2758 27.3192L6.69288 36.3161C4.56646 37.5439 1.82238 36.8079 0.59455 34.6815C-0.632598 32.5557 0.102739 29.811 2.22848 28.5838L11.4954 23.2337L2.56724 18.0796C1.24078 17.4551 0.310212 16.2239 0.0728091 14.7852C-0.280914 12.7676 0.774813 10.7834 2.64206 9.95142L14.5489 3.07695L14.5714 3.06402Z" fill="#25E85F"/>
</svg>
