<svg width="41" height="27" viewBox="0 0 41 27" fill="none" xmlns="http://www.w3.org/2000/svg">
<g>
<path d="M37.4411 8.14116L40.7531 4.53812H33.4116C29.6069 1.94872 25.111 0.563995 20.5087 0.563995C15.9064 0.563995 11.4106 1.94872 7.6058 4.53812H0.245117L3.55704 8.14116C2.57657 9.04004 1.7829 10.1234 1.22143 11.3292C0.659961 12.5351 0.3417 13.8398 0.284848 15.1687C0.227996 16.4976 0.433669 17.8248 0.890105 19.0741C1.34654 20.3235 2.04478 21.4707 2.94491 22.45C3.84503 23.4294 4.92938 24.2216 6.13594 24.7816C7.3425 25.3415 8.6476 25.6581 9.97661 25.7133C11.3056 25.7684 12.6325 25.5611 13.8813 25.1031C15.1301 24.645 16.2764 23.9453 17.2545 23.044L20.4994 26.5741L23.7419 23.0463C25.6105 24.782 28.0674 25.7451 30.6178 25.7416C36.2073 25.7416 40.7426 21.2103 40.7426 15.6209C40.7443 14.2128 40.4515 12.82 39.8829 11.5318C39.3143 10.2437 38.4826 9.08875 37.4411 8.14116ZM10.3763 22.4699C9.02172 22.4699 7.69753 22.0682 6.57121 21.3156C5.44489 20.563 4.56703 19.4934 4.04864 18.2419C3.53025 16.9904 3.39462 15.6133 3.6589 14.2847C3.92317 12.9561 4.57547 11.7357 5.53333 10.7778C6.49118 9.81999 7.71157 9.16768 9.04015 8.90341C10.3687 8.63914 11.7458 8.77477 12.9973 9.29316C14.2488 9.81155 15.3185 10.6894 16.0711 11.8157C16.8237 12.942 17.2254 14.2662 17.2254 15.6209C17.2254 16.5203 17.0482 17.4109 16.704 18.2419C16.3598 19.0728 15.8553 19.8279 15.2193 20.4639C14.5833 21.0998 13.8283 21.6043 12.9973 21.9485C12.1664 22.2927 11.2758 22.4699 10.3763 22.4699ZM20.4994 15.4237C20.4994 10.9164 17.2207 7.04905 12.8972 5.39513C15.3058 4.39172 17.8892 3.87512 20.4985 3.87512C23.1078 3.87512 25.6912 4.39172 28.0998 5.39513C23.7769 7.04963 20.4994 10.9169 20.4994 15.4237ZM30.6178 22.4699C29.2631 22.4699 27.939 22.0682 26.8126 21.3156C25.6863 20.563 24.8085 19.4934 24.2901 18.2419C23.7717 16.9904 23.636 15.6133 23.9003 14.2847C24.1646 12.9561 24.8169 11.7357 25.7748 10.7778C26.7326 9.81999 27.953 9.16768 29.2816 8.90341C30.6102 8.63914 31.9873 8.77477 33.2388 9.29316C34.4903 9.81155 35.5599 10.6894 36.3125 11.8157C37.0651 12.942 37.4668 14.2662 37.4668 15.6209C37.4668 17.4373 36.7452 19.1794 35.4608 20.4639C34.1763 21.7483 32.4342 22.4699 30.6178 22.4699ZM30.6178 12.0306C29.9075 12.0306 29.2133 12.2413 28.6228 12.6358C28.0322 13.0304 27.572 13.5913 27.3002 14.2474C27.0285 14.9036 26.9574 15.6256 27.096 16.3222C27.2346 17.0187 27.5767 17.6586 28.0789 18.1607C28.5811 18.6629 29.221 19.0048 29.9176 19.1433C30.6142 19.2818 31.3362 19.2106 31.9923 18.9387C32.6484 18.6669 33.2092 18.2065 33.6037 17.6159C33.9982 17.0254 34.2087 16.3311 34.2085 15.6209C34.2085 15.1493 34.1157 14.6824 33.9352 14.2468C33.7547 13.8112 33.4902 13.4154 33.1568 13.082C32.8233 12.7486 32.4275 12.4842 31.9919 12.3038C31.5562 12.1234 31.0893 12.0306 30.6178 12.0306ZM13.9671 15.6209C13.9672 16.3311 13.7567 17.0254 13.3622 17.6159C12.9678 18.2065 12.407 18.6669 11.7509 18.9387C11.0947 19.2106 10.3727 19.2818 9.67616 19.1433C8.97958 19.0048 8.33971 18.6629 7.83747 18.1607C7.33523 17.6586 6.99318 17.0187 6.85459 16.3222C6.71599 15.6256 6.78706 14.9036 7.05882 14.2474C7.33058 13.5913 7.79082 13.0304 8.38134 12.6358C8.97185 12.2413 9.66612 12.0306 10.3763 12.0306C11.3286 12.0306 12.2418 12.4089 12.9152 13.0822C13.5886 13.7554 13.967 14.6686 13.9671 15.6209Z" fill="#39E8A8"/>
</g>
</svg>
