<svg version="1.1" id="Layer_1" xmlns="http://www.w3.org/2000/svg" xmlns:xlink="http://www.w3.org/1999/xlink" x="0px" y="0px" viewBox="0 0 132 88" style="enable-background:new 0 0 132 88;" xml:space="preserve">
 <style type="text/css">
  .st0{clip-path:url(#SVGID_2_);}
	.st1{fill:url(#SVGID_3_);}
	.st2{fill:url(#SVGID_4_);}
	.st3{fill:url(#SVGID_5_);}
	.st4{fill:url(#SVGID_6_);}
	.st5{fill:url(#SVGID_7_);}
	.st6{fill:url(#SVGID_8_);}
	.st7{fill:url(#SVGID_9_);}
 </style>
 <g>
  <g>
   <defs>
    <rect id="SVGID_1_" width="132" height="88">
    </rect>
   </defs>
   <clipPath id="SVGID_2_">
    <use href="#SVGID_1_" style="overflow:visible;">
    </use>
   </clipPath>
   <g class="st0">
    <linearGradient id="SVGID_3_" gradientUnits="userSpaceOnUse" x1="393.5813" y1="158.1675" x2="394.5813" y2="158.1675" gradientTransform="matrix(0 -84 16.28 0 -2526.9673 33148.6641)">
     <stop offset="0.71" style="stop-color:#116BF2">
     </stop>
     <stop offset="1" style="stop-color:#1E50E5">
     </stop>
    </linearGradient>
    <path class="st1" d="M40,4.3c0.3,0.2,0.6,0.4,0.9,0.6l14.2,14.2c0.6,0.6,0.9,1.3,0.9,2.1v65.6c0,0.6-0.4,1-1,1
				c-0.3,0-0.5-0.1-0.7-0.3L40.9,74.1C40.3,73.6,40,72.8,40,72V4.3z">
    </path>
    <linearGradient id="SVGID_4_" gradientUnits="userSpaceOnUse" x1="393.5815" y1="158.1675" x2="394.5815" y2="158.1675" gradientTransform="matrix(0 -84 16.28 0 -2502.9673 33148.6836)">
     <stop offset="0.71" style="stop-color:#116BF2">
     </stop>
     <stop offset="1" style="stop-color:#1E50E5">
     </stop>
    </linearGradient>
    <path class="st2" d="M79.1,4.9c0.2-0.2,0.5-0.4,0.9-0.6V72c0,0.8-0.3,1.6-0.9,2.1L65.7,87.5c-0.4,0.4-1,0.4-1.4,0
				c-0.2-0.2-0.3-0.4-0.3-0.7V21.2c0-0.8,0.3-1.5,0.9-2.1l0,0L79.1,4.9L79.1,4.9z">
    </path>
    <linearGradient id="SVGID_5_" gradientUnits="userSpaceOnUse" x1="395.5488" y1="174.0708" x2="396.5488" y2="174.0708" gradientTransform="matrix(39 39 -46.97 46.97 -7161.7188 -23558.9277)">
     <stop offset="0.41" style="stop-color:#116BF2">
     </stop>
     <stop offset="1" style="stop-color:#185DEC">
     </stop>
    </linearGradient>
    <path class="st3" d="M105,57l-1-1V42H90.4c-0.3,0-0.5,0.1-0.7,0.3l0,0L80,52l31.1,31.1l0,0c0.6,0.6,1.3,0.9,2.1,0.9h16.4
				c0.6,0,1-0.5,1-1c0-0.3-0.1-0.5-0.3-0.7L105,57z">
    </path>
    <linearGradient id="SVGID_6_" gradientUnits="userSpaceOnUse" x1="392.3528" y1="166.4659" x2="393.3528" y2="166.4659" gradientTransform="matrix(0 -53.28 56.7 0 -9346.4766 20961.498)">
     <stop offset="0.58" style="stop-color:#116BF2">
     </stop>
     <stop offset="1" style="stop-color:#1E50E5">
     </stop>
    </linearGradient>
    <path class="st4" d="M81.2,4c-0.8,0-1.5,0.3-2.1,0.9l0,0L64.9,19.1l0,0c-0.2,0.3-0.4,0.5-0.6,0.9H104v36l1,1l14.1-14.1
				c0.6-0.6,0.9-1.3,0.9-2.1V21.2c0-0.8-0.3-1.6-0.9-2.1L104.9,4.9c-0.6-0.6-1.3-0.9-2.1-0.9H81.2z">
    </path>
    <linearGradient id="SVGID_7_" gradientUnits="userSpaceOnUse" x1="407.1986" y1="170.7278" x2="408.1986" y2="170.7278" gradientTransform="matrix(-16 16 -16 -16 9285.3037 -3780.5129)">
     <stop offset="3.000000e-02" style="stop-color:#59C5FF">
     </stop>
     <stop offset="0.99" style="stop-color:#21B1FF">
     </stop>
    </linearGradient>
    <path class="st5" d="M40.9,4.9C40.3,4.3,39.6,4,38.8,4H1.4c-0.6,0-1,0.5-1,1c0,0.3,0.1,0.5,0.3,0.7l13.4,13.4
				c0.6,0.6,1.3,0.9,2.1,0.9H54c1.1,0,2,0.9,2,2v-0.8c0-0.8-0.3-1.6-0.9-2.1L40.9,4.9z">
    </path>
    <linearGradient id="SVGID_8_" gradientUnits="userSpaceOnUse" x1="395.3448" y1="181.9587" x2="396.3448" y2="181.9587" gradientTransform="matrix(16 16 -16 16 -3336.6179 -9230.2969)">
     <stop offset="4.000000e-02" style="stop-color:#59C5FF">
     </stop>
     <stop offset="0.99" style="stop-color:#21B1FF">
     </stop>
    </linearGradient>
    <path class="st6" d="M79.1,4.9C79.7,4.3,80.4,4,81.2,4h21.5c0.8,0,1.6,0.3,2.1,0.9l14.2,14.2c0.6,0.6,0.9,1.3,0.9,2.1V22
				c0-1.1-0.9-2-2-2H66c-1.1,0-2,0.9-2,2v-0.8c0-0.8,0.3-1.6,0.9-2.1L79.1,4.9z">
    </path>
    <linearGradient id="SVGID_9_" gradientUnits="userSpaceOnUse" x1="396.1818" y1="155.1631" x2="397.1818" y2="155.1631" gradientTransform="matrix(-12 -12 12 -12 3005.4397 6665.353)">
     <stop offset="4.000000e-02" style="stop-color:#57C4FF">
     </stop>
     <stop offset="0.99" style="stop-color:#21B1FF">
     </stop>
    </linearGradient>
    <path class="st7" d="M120,40c0,1.1-0.9,2-2,2H91.2c-0.3,0-0.5,0.2-0.5,0.5c0,0.1,0.1,0.3,0.1,0.3L105,57l14.1-14.1
				c0.6-0.6,0.9-1.3,0.9-2.1V40z">
    </path>
   </g>
  </g>
 </g>
</svg>