<svg width="21" height="20" viewBox="0 0 21 20" fill="none" xmlns="http://www.w3.org/2000/svg">
<g clip-path="url(#clip0_180_1866)">
<path d="M18.4441 5.92662C18.4568 6.10428 18.4568 6.28197 18.4568 6.45963C18.4568 11.8784 14.3325 18.1221 6.79441 18.1221C4.47207 18.1221 2.31473 17.4494 0.5 16.282C0.829961 16.32 1.14719 16.3327 1.48984 16.3327C3.40605 16.3327 5.17004 15.6855 6.57867 14.5815C4.77664 14.5434 3.26648 13.3632 2.74617 11.7388C3 11.7769 3.25379 11.8022 3.52031 11.8022C3.88832 11.8022 4.25637 11.7515 4.59898 11.6627C2.72082 11.2819 1.31215 9.63221 1.31215 7.63982V7.58908C1.85781 7.89365 2.49238 8.084 3.16492 8.10935C2.06086 7.3733 1.33754 6.11697 1.33754 4.69564C1.33754 3.93424 1.54055 3.23627 1.8959 2.62713C3.91367 5.11443 6.94668 6.73877 10.3477 6.91646C10.2842 6.61189 10.2461 6.29467 10.2461 5.9774C10.2461 3.7185 12.0736 1.87842 14.3451 1.87842C15.5253 1.87842 16.5913 2.37334 17.34 3.17283C18.2664 2.99518 19.1547 2.65252 19.9416 2.18299C19.637 3.13479 18.9898 3.93428 18.1395 4.44186C18.9644 4.35307 19.7639 4.12459 20.4999 3.80736C19.9416 4.61951 19.2436 5.34283 18.4441 5.92662Z" fill="#2B2B59"/>
</g>
<defs>
<clipPath id="clip0_180_1866">
<rect width="20" height="20" fill="white" transform="translate(0.5)"/>
</clipPath>
</defs>
</svg>
