<svg width="68" height="68" viewBox="0 0 68 68" fill="none" xmlns="http://www.w3.org/2000/svg">
<rect width="68" height="68" rx="12" fill="url(#paint0_linear_11_3)"/>
<g clip-path="url(#clip0_11_3)">
<path d="M42.7967 27.0769C44.0231 28.091 47.3873 30.8726 46.8391 32.8253C46.5856 33.7024 45.5783 33.9833 44.8315 34.2573C43.1117 34.8808 41.344 35.3741 39.5489 35.7372C38.0963 36.0318 34.9926 36.6758 35.5681 34.1064C35.7941 33.113 36.5958 32.2702 37.2399 31.5233C38.5623 29.9681 39.9121 28.3236 41.5085 27.0493C41.6387 26.9464 41.7962 26.9191 41.9333 26.9397C42.2006 26.8303 42.5226 26.844 42.7967 27.0769Z" fill="white"/>
<path d="M40.9878 47.5768C39.9121 46.7066 39.1516 45.3432 38.4938 44.1511C37.8497 43 36.8357 41.4789 36.6644 40.1429C36.3151 37.3954 40.2957 39.0467 41.44 39.4441C42.961 39.9785 47.0378 40.5678 46.5856 42.9452C46.2087 44.8841 43.8723 47.2479 41.9197 47.5494C41.8992 47.5563 41.8717 47.5494 41.8444 47.5494C41.8375 47.5563 41.8306 47.5632 41.8239 47.5699C41.769 47.5973 41.7074 47.6317 41.6457 47.659C41.4127 47.7825 41.1866 47.7345 40.9878 47.5768Z" fill="white"/>
<path d="M32.0876 40.506C34.2528 39.6085 34.4514 42.027 34.4377 43.4933C34.4172 45.2405 34.3623 46.9944 34.2321 48.7347C34.1842 49.4404 34.2117 50.2901 33.5402 50.7354C32.7111 51.2836 31.1148 50.8519 30.2582 50.5847C30.2309 50.571 30.2034 50.5574 30.176 50.5505C28.3741 50.2354 26.1748 49.4063 25.9624 47.7414C25.9417 47.5496 26.0172 47.3783 26.1337 47.2481C26.1885 47.1452 26.2432 47.0494 26.305 46.9603C26.5723 46.5903 26.8805 46.2615 27.1889 45.9257C27.7095 45.1516 28.2714 44.4047 28.8674 43.6853C29.7307 42.6438 30.7927 41.0404 32.0876 40.506Z" fill="white"/>
<path d="M32.4029 32.9966C29.2443 30.3999 26.1679 26.3781 24.5783 22.6577C23.3655 19.8279 26.4488 18.1014 28.8262 17.3203C32.0328 16.2651 33.3072 17.1833 33.6291 20.3899C33.8964 23.151 34.0198 25.9327 33.9991 28.7076C33.9922 29.8793 34.3211 31.7703 33.636 32.8255C33.7456 33.2572 33.0947 33.5654 32.7248 33.2708C32.6699 33.2297 32.6152 33.1748 32.5535 33.1268C32.4987 33.0926 32.4508 33.0515 32.4029 32.9966Z" fill="white"/>
<path d="M32.0603 37.0186C32.3138 38.1422 31.519 38.5944 30.5873 39.0193C28.9292 39.7661 27.1889 40.3622 25.4417 40.8555C24.4276 41.1364 22.8724 41.8079 21.8926 41.0611C21.1527 40.4993 21.1047 39.3277 21.0362 38.478C20.8856 36.5801 21.1733 32.0512 23.8043 31.8594C25.0924 31.7703 26.7025 32.9213 27.7577 33.5244C29.1622 34.3329 30.6696 35.2578 31.7178 36.5254C31.8752 36.6144 32.0054 36.7719 32.0603 37.0186Z" fill="white"/>
</g>
<defs>
<linearGradient id="paint0_linear_11_3" x1="34" y1="0" x2="34" y2="68" gradientUnits="userSpaceOnUse">
<stop stop-color="#D85358"/>
<stop offset="1" stop-color="#C1272D"/>
</linearGradient>
<clipPath id="clip0_11_3">
<rect width="34.097" height="34.097" fill="white" transform="translate(16.903 16.903)"/>
</clipPath>
</defs>
</svg>
