<svg width="35" height="46" viewBox="0 0 35 46" fill="none" xmlns="http://www.w3.org/2000/svg">
<path d="M29.2376 13.7301C30.8464 15.0603 35.2594 18.7092 34.5403 21.2707C34.2077 22.4211 32.8865 22.7896 31.9068 23.149C29.6508 23.9669 27.332 24.614 24.9772 25.0903C23.0718 25.4768 19.0004 26.3216 19.7553 22.9512C20.0518 21.648 21.1034 20.5424 21.9484 19.5627C23.683 17.5226 25.4537 15.3654 27.5477 13.6938C27.7185 13.5589 27.9252 13.523 28.105 13.55C28.4556 13.4065 28.878 13.4245 29.2376 13.7301Z" fill="#C41200"/>
<path d="M26.8647 40.6211C25.4537 39.4796 24.456 37.6911 23.5932 36.1273C22.7482 34.6174 21.4181 32.622 21.1934 30.8695C20.7352 27.2654 25.9568 29.4316 27.4579 29.9528C29.4531 30.6538 34.8009 31.4268 34.2077 34.5454C33.7134 37.0889 30.6485 40.1897 28.0872 40.5852C28.0603 40.5942 28.0242 40.5852 27.9883 40.5852C27.9793 40.5942 27.9703 40.6032 27.9615 40.612C27.8895 40.6479 27.8087 40.693 27.7277 40.7289C27.422 40.8909 27.1255 40.8279 26.8647 40.6211Z" fill="#C41200"/>
<path d="M15.1903 31.3459C18.0305 30.1686 18.2911 33.3411 18.273 35.2646C18.2462 37.5565 18.1742 39.8572 18.0034 42.1401C17.9405 43.0658 17.9765 44.1804 17.0957 44.7646C16.0082 45.4836 13.9142 44.9173 12.7906 44.5669C12.7547 44.5489 12.7186 44.531 12.6827 44.522C10.319 44.1086 7.43397 43.0211 7.15533 40.8371C7.12827 40.5855 7.22729 40.3608 7.38005 40.19C7.45201 40.0551 7.52378 39.9294 7.60477 39.8125C7.95538 39.3272 8.35971 38.8958 8.76425 38.4554C9.44723 37.4398 10.1843 36.4601 10.9661 35.5164C12.0986 34.1502 13.4916 32.0469 15.1903 31.3459Z" fill="#C41200"/>
<path d="M15.6031 21.4954C11.4597 18.0891 7.4242 12.8133 5.33898 7.93302C3.7481 4.22104 7.79265 1.9562 10.9113 0.931629C15.1176 -0.452569 16.7892 0.751815 17.2116 4.95814C17.5622 8.58011 17.724 12.2292 17.6969 15.8692C17.6879 17.4061 18.1193 19.8867 17.2206 21.2709C17.3644 21.8372 16.5106 22.2415 16.0253 21.855C15.9533 21.8011 15.8815 21.7291 15.8006 21.6662C15.7288 21.6213 15.6659 21.5673 15.6031 21.4954Z" fill="#C41200"/>
<path d="M15.1544 26.7713C15.487 28.2453 14.4443 28.8385 13.2221 29.3958C11.0471 30.3755 8.76421 31.1575 6.47231 31.8046C5.14204 32.173 3.10192 33.0539 1.81675 32.0742C0.846101 31.3373 0.783155 29.8003 0.693346 28.6858C0.495688 26.1962 0.87316 20.2553 4.32434 20.0037C6.01405 19.8868 8.12613 21.3967 9.51033 22.1877C11.3528 23.2484 13.3302 24.4616 14.7051 26.1244C14.9116 26.2411 15.0824 26.4478 15.1544 26.7713Z" fill="#C41200"/>
</svg>
