<svg width="21" height="18" viewBox="0 0 21 18" fill="none" xmlns="http://www.w3.org/2000/svg">
<path d="M19.5852 4.30838C19.3672 3.4872 18.7246 2.84047 17.9087 2.62099C16.4299 2.22217 10.5 2.22217 10.5 2.22217C10.5 2.22217 4.57014 2.22217 3.09129 2.62099C2.27542 2.8405 1.63285 3.4872 1.41476 4.30838C1.01851 5.79682 1.01851 8.90231 1.01851 8.90231C1.01851 8.90231 1.01851 12.0078 1.41476 13.4962C1.63285 14.3174 2.27542 14.9372 3.09129 15.1567C4.57014 15.5555 10.5 15.5555 10.5 15.5555C10.5 15.5555 16.4299 15.5555 17.9087 15.1567C18.7246 14.9372 19.3672 14.3174 19.5852 13.4962C19.9815 12.0078 19.9815 8.90231 19.9815 8.90231C19.9815 8.90231 19.9815 5.79682 19.5852 4.30838ZM8.56059 11.7219V6.08276L13.5168 8.90238L8.56059 11.7219Z" fill="#2B2B59"/>
</svg>
