<svg width="100%" height="100%" viewBox="0 0 81 81" fill="none" xmlns="http://www.w3.org/2000/svg">
<mask id="mask0_860_4546" style="mask-type:alpha" maskUnits="userSpaceOnUse" x="0" y="0" width="81" height="81">
<rect width="81" height="81" rx="11" fill="#C4C4C4"/>
</mask>
<g mask="url(#mask0_860_4546)">
<rect width="81" height="81" rx="11" fill="#333333"/>
<path d="M27.3506 48.9902C24.6451 48.9902 22.4365 51.1988 22.4365 53.9043C22.4365 56.6099 24.6451 58.8185 27.3506 58.8185C30.0562 58.8185 32.2647 56.6099 32.2647 53.9043C32.2647 51.1988 30.0562 48.9902 27.3506 48.9902Z" fill="#FCB716"/>
<path d="M13.6133 48.9902C10.9078 48.9902 8.69922 51.1988 8.69922 53.9043C8.69922 56.6099 10.9078 58.8185 13.6133 58.8185C16.3189 58.8185 18.5274 56.6099 18.5274 53.9043C18.5274 51.1988 16.3189 48.9902 13.6133 48.9902Z" fill="#EE363F"/>
<path d="M41.0879 48.9902C38.3824 48.9902 36.1738 51.1988 36.1738 53.9043C36.1738 56.6099 38.3824 58.8185 41.0879 58.8185C43.7935 58.8185 46.002 56.6099 46.002 53.9043C46.002 51.1988 43.7935 48.9902 41.0879 48.9902Z" fill="#07AF56"/>
<path d="M68.5625 48.9902C65.857 48.9902 63.6484 51.1988 63.6484 53.9043C63.6484 56.6099 65.857 58.8185 68.5625 58.8185C71.2681 58.8185 73.4767 56.6099 73.4767 53.9043C73.4767 51.1988 71.2681 48.9902 68.5625 48.9902Z" fill="#04A9DF"/>
<path d="M54.8252 48.9902C52.1197 48.9902 49.9111 51.1988 49.9111 53.9043C49.9111 56.6099 52.1197 58.8185 54.8252 58.8185C57.5308 58.8185 59.7394 56.6099 59.7394 53.9043C59.7394 51.1988 57.5308 48.9902 54.8252 48.9902Z" fill="#A1479A"/>
<path d="M7.95898 35.065C7.95898 31.8736 10.5209 29.4662 13.6792 29.4662C16.8706 29.4662 19.3995 31.8515 19.3995 35.0429V39.9459C19.3995 40.4429 19.0571 40.7963 18.5271 40.7963C17.986 40.7963 17.6547 40.4539 17.6547 39.9459V38.5104H17.5663C16.8927 39.6588 15.5455 40.6527 13.5578 40.6527C10.4878 40.6637 7.95898 38.2785 7.95898 35.065ZM17.7099 35.065C17.7099 32.768 15.9762 31.0343 13.6792 31.0343C11.3823 31.0343 9.64855 32.768 9.64855 35.065C9.64855 37.3619 11.3823 39.0956 13.6792 39.0956C15.9762 39.0956 17.7099 37.3619 17.7099 35.065ZM23.8719 44.2858C23.4191 44.065 23.1982 43.6785 23.3749 43.2257C23.5516 42.7509 23.9823 42.5521 24.4351 42.7729C25.2191 43.1374 26.1909 43.4024 27.2289 43.4024C29.813 43.4024 31.37 41.8674 31.37 39.2392V38.5214H31.2817C30.6081 39.6699 29.2608 40.6637 27.2731 40.6637C24.1921 40.6637 21.6633 38.2785 21.6633 35.065C21.6633 31.8736 24.2252 29.4662 27.3835 29.4662C30.5749 29.4662 33.1038 31.8515 33.1038 35.0429V39.1177C33.1038 42.6294 30.851 44.9926 27.1627 44.9926C26.0363 44.9926 24.9099 44.7828 23.8719 44.2858ZM31.4142 35.065C31.4142 32.768 29.6805 31.0343 27.3835 31.0343C25.0866 31.0343 23.3528 32.768 23.3528 35.065C23.3528 37.3619 25.0866 39.0956 27.3835 39.0956C29.6805 39.0956 31.4142 37.3619 31.4142 35.065ZM35.3565 35.065C35.3565 31.8736 37.8964 29.4662 41.0768 29.4662C44.2682 29.4662 46.797 31.8736 46.797 35.065C46.797 38.2564 44.2571 40.6637 41.0768 40.6637C37.8964 40.6637 35.3565 38.2564 35.3565 35.065ZM45.1185 35.065C45.1185 32.768 43.3847 31.0343 41.0878 31.0343C38.7909 31.0343 37.0571 32.768 37.0571 35.065C37.0571 37.3619 38.7909 39.0956 41.0878 39.0956C43.3847 39.0956 45.1185 37.3619 45.1185 35.065ZM49.0608 35.065C49.0608 31.8736 51.5786 29.4662 54.6706 29.4662C56.6694 29.4662 58.0056 30.4601 58.6792 31.6085H58.7676V25.9104C58.7676 25.4134 59.1099 25.0601 59.64 25.0601C60.1811 25.0601 60.5124 25.4024 60.5124 25.9104V35.076C60.5124 38.2674 57.9725 40.6527 54.7921 40.6527C51.6228 40.6637 49.0608 38.2564 49.0608 35.065ZM58.8228 35.065C58.8228 32.768 57.089 31.0343 54.7921 31.0343C52.4952 31.0343 50.7614 32.768 50.7614 35.065C50.7614 37.3619 52.4952 39.0956 54.7921 39.0956C57.078 39.0956 58.8228 37.3619 58.8228 35.065ZM62.7651 35.065C62.7651 31.8736 65.3271 29.4662 68.4854 29.4662C71.6768 29.4662 74.2056 31.8515 74.2056 35.0429V39.9459C74.2056 40.4429 73.8633 40.7963 73.3332 40.7963C72.7921 40.7963 72.4608 40.4539 72.4608 39.9459V38.5104H72.3725C71.6989 39.6588 70.3516 40.6527 68.3639 40.6527C65.305 40.6637 62.7651 38.2785 62.7651 35.065ZM72.516 35.065C72.516 32.768 70.7823 31.0343 68.4854 31.0343C66.1884 31.0343 64.4547 32.768 64.4547 35.065C64.4547 37.3619 66.1884 39.0956 68.4854 39.0956C70.7823 39.0956 72.516 37.3619 72.516 35.065Z" fill="white"/>
</g>
</svg>
