<svg width="100%" height="100%" viewBox="0 0 81 81" fill="none" xmlns="http://www.w3.org/2000/svg">
<mask id="mask0_860_4526" style="mask-type:alpha" maskUnits="userSpaceOnUse" x="0" y="0" width="81" height="81">
<rect width="81" height="81" rx="11" fill="#FF5A5F"/>
</mask>
<g mask="url(#mask0_860_4526)">
<rect width="81" height="81" rx="11" fill="#FF5A5F"/>
<path d="M57.9022 41.538C57.7148 41.0812 57.5391 40.6009 57.3516 40.191L56.4848 38.2348L56.4497 38.1996C53.8727 32.5771 51.12 26.8608 48.2033 21.2382L48.0861 21.0039C47.7933 20.4534 47.5004 19.8443 47.1959 19.282C46.821 18.6144 46.4579 17.8998 45.8605 17.2204C43.3767 14.1882 38.7392 14.1882 36.2553 17.2204C35.7048 17.8998 35.2948 18.6144 34.92 19.282C34.6271 19.8911 34.3343 20.4885 34.0297 21.0391L33.9126 21.2734C31.0427 26.8959 28.2432 32.6122 25.6662 38.2348L25.5959 38.3051C25.3382 38.9142 25.0336 39.5467 24.7408 40.2261C24.5534 40.6361 24.3659 41.0812 24.1785 41.5732C21.9639 47.2116 26.6044 53.1606 32.6124 52.3849C33.9284 52.2117 35.1955 51.7733 36.3373 51.0964C37.8601 50.2413 39.3243 48.9996 40.9642 47.2075C42.6041 48.9996 44.1035 50.2413 45.5911 51.1081C47.0217 51.9478 48.6418 52.4112 50.3 52.4552C54.2708 52.4717 57.6454 49.557 58.2067 45.6261C58.5205 44.26 58.4143 42.831 57.9022 41.5263V41.538ZM41.0814 43.4825C39.0666 40.9055 37.7546 38.5393 37.3096 36.5129C37.1251 35.7619 37.0854 34.9828 37.1924 34.217C37.2744 33.6196 37.497 33.0925 37.8015 32.6473C38.5044 31.6283 39.7343 30.9957 41.0814 30.9957C42.3809 30.956 43.6132 31.5722 44.3612 32.6356C44.6657 33.1042 44.8883 33.6196 44.9586 34.217C45.0757 34.8964 45.0289 35.6812 44.8415 36.5129C44.3963 38.5042 43.0844 40.8938 41.0814 43.4825ZM56.0046 45.2161C55.7337 47.1801 54.4403 48.8526 52.6076 49.6088C51.7174 49.9836 50.7334 50.089 49.7729 49.9836C48.8358 49.8665 47.8987 49.5619 46.9382 48.9996C45.3434 48.0139 43.9093 46.7893 42.6861 45.3684C45.146 42.3228 46.6336 39.5467 47.1959 37.0751C47.4653 35.9037 47.5004 34.8495 47.3833 33.8773C47.237 32.9558 46.8934 32.0767 46.3759 31.3003C45.1761 29.5906 43.2048 28.5896 41.1165 28.6295C38.9495 28.6295 37.0167 29.6369 35.8454 31.2886C35.318 32.063 34.9772 32.9491 34.8497 33.8773C34.6974 34.8612 34.7326 35.9506 35.0371 37.0751C35.5994 39.5467 37.1221 42.358 39.5468 45.3918C38.3444 46.8398 36.907 48.0753 35.2948 49.0465C34.3226 49.6088 33.3972 49.9016 32.4601 50.0187C29.427 50.4073 26.6469 48.2804 26.2284 45.2513C26.1113 44.3142 26.1933 43.3771 26.5681 42.3228C26.6852 41.948 26.8609 41.5732 27.0483 41.1281C27.3061 40.5189 27.6106 39.8864 27.9035 39.2539L27.9503 39.1719C30.4805 33.5844 33.2449 27.8799 36.1148 22.2924L36.2319 22.0582C36.5247 21.4959 36.8176 20.8985 37.1221 20.3363C37.4267 19.7389 37.7546 19.1649 38.1764 18.6963C39.7307 16.8409 42.5843 16.8409 44.1386 18.6963C44.5486 19.1649 44.8883 19.7389 45.1928 20.3363C45.4857 20.8985 45.7785 21.5076 46.0831 22.0582L46.2002 22.2924C49.0584 27.8799 51.8228 33.5844 54.3998 39.1719L54.4349 39.207C54.7395 39.8161 54.9972 40.4955 55.2901 41.0812C55.4775 41.538 55.6649 41.9012 55.782 42.2877C56.0046 43.3419 56.1217 44.279 56.0046 45.2161V45.2161Z" fill="#FCFCFC"/>
<path d="M21.4589 67.053C20.3655 67.069 19.3242 66.5866 18.6294 65.7422C17.8587 64.8539 17.4497 63.7086 17.4834 62.5331C17.4716 61.332 17.8938 60.167 18.6724 59.2524C19.4015 58.3978 20.4717 57.9099 21.595 57.9201C22.6564 57.891 23.658 58.4107 24.2453 59.2954L24.3169 58.1708H26.4086V66.8238H24.3098L24.2381 65.5631C23.6325 66.5078 22.5809 67.0716 21.4589 67.053ZM22.0033 64.99C22.4187 64.99 22.784 64.8754 23.1279 64.6677C23.443 64.4385 23.7009 64.1376 23.9015 63.7723C24.0805 63.407 24.1737 62.97 24.1737 62.483C24.2305 61.6223 23.8306 60.7953 23.1207 60.3054C22.4367 59.8792 21.5698 59.8792 20.8858 60.3054C20.5706 60.5346 20.3128 60.8354 20.1122 61.2008C19.9228 61.6036 19.8296 62.045 19.84 62.4901C19.7832 63.3507 20.1831 64.1778 20.893 64.6677C21.2296 64.8754 21.595 64.99 22.0033 64.99V64.99ZM29.9901 55.8356C29.9901 56.0863 29.9471 56.3155 29.8325 56.5018C29.7179 56.6809 29.5603 56.8456 29.3526 56.9602C29.1449 57.0748 28.9228 57.1178 28.6936 57.1178C28.4644 57.1178 28.2351 57.0748 28.0274 56.9602C27.8309 56.8508 27.6657 56.693 27.5475 56.5018C27.4366 56.2977 27.3822 56.0677 27.3899 55.8356C27.3899 55.5777 27.44 55.3485 27.5475 55.1694C27.6621 54.9545 27.8268 54.8256 28.0274 54.711C28.2351 54.5964 28.4572 54.5463 28.6936 54.5463C29.1574 54.5355 29.5927 54.7695 29.8397 55.1623C29.9439 55.3711 29.9956 55.6023 29.9901 55.8356V55.8356ZM27.5547 66.7951V58.1564H29.8325V66.8095H27.5475L27.5547 66.7951ZM35.9211 60.42V60.4486C35.8137 60.3985 35.6704 60.377 35.563 60.3555C35.4197 60.3269 35.3051 60.3269 35.169 60.3269C34.5315 60.3269 34.0516 60.5131 33.7364 60.8999C33.3926 61.2939 33.235 61.8454 33.235 62.5546V66.8023H30.95V58.1493H33.0487L33.1204 59.4601C33.3496 59.0017 33.6218 58.6579 34.0086 58.4C34.3933 58.1494 34.8463 58.0243 35.3051 58.0418C35.4699 58.0418 35.6274 58.0562 35.7635 58.0848C35.8352 58.1063 35.8782 58.1063 35.9211 58.1278V60.42ZM36.838 66.7951V54.6036H39.1159V59.2596C39.4382 58.8441 39.8035 58.5218 40.262 58.2711C41.756 57.5386 43.5574 57.9267 44.6171 59.2094C45.3895 60.0995 45.7987 61.2477 45.7632 62.4256C45.775 63.6267 45.3528 64.7917 44.5742 65.7063C43.8451 66.561 42.7749 67.0488 41.6516 67.0387C40.5901 67.0677 39.5886 66.548 39.0013 65.6634L38.9296 66.788L36.838 66.8095V66.7951ZM41.2433 64.99C41.6516 64.99 42.0169 64.8754 42.3607 64.6677C42.676 64.4385 42.9338 64.1376 43.1344 63.7723C43.3206 63.407 43.4066 62.97 43.4066 62.483C43.4066 62.003 43.3206 61.5661 43.1344 61.2008C42.9463 60.8485 42.682 60.5426 42.3607 60.3054C41.6768 59.8792 40.8099 59.8792 40.1259 60.3054C39.8035 60.5346 39.5528 60.8354 39.3451 61.2008C39.1557 61.6036 39.0625 62.045 39.0729 62.4901C39.0161 63.3507 39.416 64.1778 40.1259 64.6677C40.4625 64.8754 40.8279 64.99 41.2433 64.99V64.99ZM46.6228 66.8023V58.1493H48.7216L48.7932 59.2739C49.3303 58.396 50.3007 57.8779 51.3289 57.9201C52.5094 57.8997 53.5874 58.5882 54.0653 59.6679C54.316 60.2123 54.452 60.8856 54.452 61.6377V66.8238H52.167V61.9386C52.167 61.3369 52.0309 60.8641 51.7587 60.5131C51.4865 60.1693 51.114 59.983 50.6413 59.983C50.2975 59.983 49.9966 60.0547 49.7316 60.2123C49.4808 60.377 49.2732 60.5847 49.1156 60.8784C48.9562 61.1753 48.8772 61.5086 48.8863 61.8454V66.8023H46.6228ZM55.591 66.8023V54.5964H57.876V59.2524C58.5036 58.4053 59.4936 57.9036 60.5478 57.8986C61.6412 57.8826 62.6825 58.365 63.3773 59.2094C64.1442 60.0995 64.5504 61.2441 64.5162 62.4185C64.5287 63.6197 64.1063 64.7849 63.3271 65.6992C62.598 66.5538 61.5279 67.0417 60.4046 67.0315C59.3431 67.0606 58.3415 66.5408 57.7542 65.6562L57.6898 66.7808L55.591 66.8023ZM60.0178 64.99C60.4332 64.99 60.7985 64.8754 61.1352 64.6677C61.4575 64.4385 61.7083 64.1376 61.916 63.7723C62.0951 63.407 62.1882 62.97 62.1882 62.483C62.245 61.6223 61.845 60.7953 61.1352 60.3054C60.4512 59.8792 59.5843 59.8792 58.9003 60.3054C58.5852 60.5346 58.3273 60.8354 58.1267 61.2008C57.9268 61.6 57.833 62.0441 57.8545 62.4901C57.7977 63.3507 58.1976 64.1778 58.9075 64.6677C59.2441 64.8754 59.588 64.99 60.0178 64.99V64.99Z" fill="#FCFCFC"/>
</g>
</svg>
