<svg width="100%" height="100%" viewBox="0 0 81 81" fill="none" xmlns="http://www.w3.org/2000/svg">
<mask id="mask0_860_4556" style="mask-type:alpha" maskUnits="userSpaceOnUse" x="0" y="0" width="81" height="81">
<rect width="81" height="81" rx="11" fill="#C4C4C4"/>
</mask>
<g mask="url(#mask0_860_4556)">
<rect width="81" height="81" rx="11" fill="#E43225"/>
</g>
<g clip-path="url(#clip0_860_4556)">
<path d="M23.5762 44.5088V34.2822H29.6205V35.5644H24.8278V38.7086H29.1321V39.9908H24.8278V43.1961H29.9563V44.4782H23.5762V44.5088Z" fill="white"/>
<path d="M36.3057 44.5086L34.2299 41.7917L32.1541 44.5086H30.6888L33.5278 40.8759L30.5361 37.1211H32.1846L34.2299 39.9296L36.3057 37.1211H37.9237L35.0846 40.8759L37.771 44.5086H36.3057Z" fill="white"/>
<path d="M39.7858 43.4097V48.4467H38.5342V40.9065C38.5342 38.9833 39.9995 36.938 42.289 36.938C44.609 36.938 46.3491 38.4033 46.3491 40.8149C46.3491 43.1655 44.5785 44.7834 42.5637 44.7834C41.5869 44.7834 40.2742 44.356 39.7858 43.4097V43.4097ZM45.0364 40.8149C45.0364 39.1665 43.968 38.1896 42.0753 38.2812C41.1595 38.3117 39.7553 38.9833 39.8774 41.3339C39.9079 42.097 40.7016 43.5318 42.4416 43.5318C43.9374 43.5318 45.0364 42.6771 45.0364 40.8149V40.8149Z" fill="white"/>
<path d="M47.418 44.5089V37.1214H48.6696V37.9151C49.2801 37.213 50.2264 36.9688 51.2338 36.9688V38.3119C51.0812 38.2814 49.5854 38.0982 48.6696 40.052V44.5394H47.418V44.5089Z" fill="white"/>
<path d="M51.5693 40.8149C51.5693 38.678 53.0957 36.938 55.202 36.938C57.8274 36.938 58.8042 38.678 58.8042 40.9065V41.517H52.943C53.0346 42.9213 54.2862 43.6539 55.4463 43.6234C56.301 43.5929 56.881 43.3486 57.4916 42.7381L58.3158 43.5929C57.5526 44.3255 56.5758 44.8139 55.3852 44.8139C53.1567 44.7834 51.5693 43.135 51.5693 40.8149V40.8149ZM55.1105 38.1896C53.9199 38.1896 53.0041 39.2275 52.943 40.357H57.4916C57.4916 39.258 56.6979 38.1896 55.1105 38.1896V38.1896Z" fill="white"/>
<path d="M59.4453 43.4713L60.3611 42.647C60.3306 42.647 60.819 43.1355 60.8801 43.166C61.0938 43.3491 61.3075 43.4713 61.5822 43.5323C62.3759 43.746 63.8107 43.6849 63.9328 42.586C63.9938 41.9754 63.5359 41.6396 63.017 41.4259C62.3454 41.1817 61.6127 41.0902 60.9411 40.7849C60.178 40.4491 59.6895 39.8691 59.6895 39.0143C59.6895 36.7859 62.8643 36.4195 64.2991 37.4574C64.3602 37.5185 65.0623 38.1596 65.0317 38.1596L64.1159 38.8922C63.658 38.3427 63.2307 38.068 62.2538 38.068C61.7654 38.068 61.0938 38.2817 60.9717 38.8006C60.7885 39.5333 61.6127 39.808 62.1622 39.9607C62.8949 40.1438 63.6886 40.2659 64.3296 40.6628C65.2149 41.2123 65.4286 42.4028 65.0928 43.3186C64.7265 44.326 63.6275 44.7229 62.6506 44.7534C61.4906 44.8144 60.4832 44.4481 59.659 43.6239C59.598 43.6239 59.4453 43.4713 59.4453 43.4713V43.4713Z" fill="white"/>
<path d="M65.8867 43.4708L66.8025 42.6465C66.772 42.6465 67.2604 43.135 67.3215 43.1655C67.5352 43.3487 67.7489 43.4708 68.0236 43.5318C68.8173 43.7455 70.2521 43.6845 70.3742 42.5855C70.4352 41.9749 69.9773 41.6391 69.4584 41.4255C68.7868 41.1812 68.0541 41.0897 67.3825 40.7844C66.6194 40.4486 66.1309 39.8686 66.1309 39.0138C66.1309 36.7854 69.3057 36.419 70.7405 37.457C70.8016 37.518 71.5037 38.1591 71.4731 38.1591L70.5573 38.8917C70.0994 38.3422 69.6721 38.0675 68.6952 38.0675C68.2068 38.0675 67.5352 38.2812 67.4131 38.8001C67.2299 39.5328 68.0541 39.8075 68.6036 39.9602C69.3363 40.1433 70.13 40.2654 70.771 40.6623C71.6563 41.2118 71.87 42.4023 71.5342 43.3181C71.1679 44.3255 70.0689 44.7224 69.092 44.7529C67.932 44.814 66.9246 44.4476 66.1004 43.6234C66.0393 43.6234 65.8867 43.4708 65.8867 43.4708V43.4708Z" fill="white"/>
<path d="M71.8392 37.1211V36.3274H71.5645V36.1748H72.2971V36.3274H72.0224V37.1211H71.8392Z" fill="#E43225"/>
<path d="M73.2124 37.1211V36.3885L72.9377 37.1211H72.8766L72.6019 36.3885V37.1211H72.4492V36.1748H72.6934L72.9377 36.8159L73.1819 36.1748H73.4261V37.1211H73.2124Z" fill="#E43225"/>
<path d="M15.0896 44.5088L14.1738 42.0666H9.22847L8.31266 44.5088H7L10.9685 34.2822H12.4033L16.3413 44.5088H15.0896ZM11.6401 35.7475L9.77796 40.815H13.6549L11.6401 35.7475Z" fill="white"/>
<path d="M17.165 44.5088V34.2822H18.4472V44.5088H17.165Z" fill="white"/>
<path d="M20.3711 44.5083V37.2734H21.6532V44.5083H20.3711Z" fill="white"/>
<path d="M22.8742 34.9232C22.8742 34.8927 22.8742 34.8927 22.8742 34.8621C22.8742 34.8316 22.8742 34.8316 22.8742 34.8011C21.8973 34.7706 21.1036 33.9769 21.0731 33C21.0426 33 21.0121 33 20.9815 33C20.951 33 20.9205 33 20.89 33C20.8594 33.9769 20.0657 34.7706 19.0889 34.8011C19.0889 34.8316 19.0889 34.8316 19.0889 34.8621C19.0889 34.8927 19.0889 34.8927 19.0889 34.9232C20.0657 34.9537 20.8594 35.7474 20.89 36.7243C20.9205 36.7243 20.951 36.7243 20.9815 36.7243C21.0121 36.7243 21.0426 36.7243 21.0731 36.7243C21.1036 35.7474 21.8973 34.9537 22.8742 34.9232Z" fill="white"/>
</g>
<defs>
<clipPath id="clip0_860_4556">
<rect width="66.4267" height="15.4466" fill="white" transform="translate(7 33)"/>
</clipPath>
</defs>
</svg>
