<svg width="100%" height="100%" viewBox="0 0 81 81" fill="none" xmlns="http://www.w3.org/2000/svg">
<mask id="mask0_1277_5866" style="mask-type:alpha" maskUnits="userSpaceOnUse" x="0" y="0" width="81" height="81">
<rect width="81" height="81" rx="11" fill="#C4C4C4"/>
</mask>
<g mask="url(#mask0_1277_5866)">
<rect width="81" height="81" rx="11" fill="#4A87A8"/>
</g>
<path d="M14.2665 35.4697C14.0685 35.6017 14.0625 35.7517 14.0625 40.8757C14.0625 44.6257 14.0805 46.0177 14.1345 46.1317C14.2305 46.3477 14.5665 46.4197 15.2565 46.3837C15.7845 46.3597 15.8385 46.3477 15.9645 46.1977L16.1025 46.0357V40.8877C16.1025 35.7697 16.1025 35.7397 15.9765 35.5777C15.8565 35.4217 15.8445 35.4217 15.0945 35.4217C14.6745 35.4217 14.3025 35.4457 14.2665 35.4697Z" fill="white"/>
<path d="M49.9183 35.5531C49.8463 35.6551 49.8223 35.8411 49.8223 36.2971C49.8223 36.8911 49.8283 36.9151 49.9783 37.0351C50.1163 37.1431 50.2243 37.1611 50.8123 37.1611C51.4003 37.1611 51.5083 37.1431 51.6463 37.0351C51.7963 36.9151 51.8023 36.8911 51.8023 36.2671C51.8023 35.4031 51.8263 35.4211 50.7943 35.4211C50.0503 35.4211 50.0023 35.4271 49.9183 35.5531Z" fill="white"/>
<path d="M63.7411 35.5411C63.6391 35.6431 63.6211 35.7391 63.6211 36.2911C63.6211 36.8851 63.6331 36.9331 63.7711 37.0711C63.9091 37.2151 63.9451 37.2211 64.7791 37.2211C65.3731 37.2211 65.6671 37.2451 65.7391 37.2931C65.8291 37.3651 65.8411 37.7311 65.8531 41.7331L65.8711 46.0951L66.0091 46.2331C66.1351 46.3651 66.1951 46.3711 66.9211 46.3711C67.6471 46.3711 67.7071 46.3651 67.8331 46.2331L67.9711 46.0951L67.9891 41.7331C68.0011 37.7251 68.0131 37.3651 68.1031 37.2931C68.1751 37.2451 68.4691 37.2211 69.0631 37.2211C69.8971 37.2211 69.9331 37.2151 70.0711 37.0711C70.2091 36.9331 70.2211 36.8851 70.2211 36.2911C70.2211 35.3311 70.5751 35.4211 66.9211 35.4211C63.9391 35.4211 63.8551 35.4271 63.7411 35.5411Z" fill="white"/>
<path d="M18.2366 35.7568C17.6786 35.9248 17.4986 36.0328 17.4206 36.2368C17.3846 36.3208 17.3606 36.7348 17.3606 37.1548V37.9228L17.1086 37.9588C16.7066 38.0128 16.6406 38.1388 16.6406 38.8528C16.6406 39.4048 16.6526 39.4588 16.7906 39.5908C16.8806 39.6868 17.0066 39.7408 17.1146 39.7408H17.2946L17.3126 42.3928C17.3306 44.9968 17.3366 45.0568 17.4686 45.3928C17.7566 46.1008 18.3986 46.5268 19.2446 46.5688C19.8206 46.5988 20.0966 46.5268 20.3306 46.2808C20.5046 46.1008 20.5106 46.0708 20.5106 45.5548C20.5106 44.9248 20.4506 44.8408 20.0246 44.8408C19.6766 44.8408 19.4786 44.7388 19.4006 44.5228C19.3646 44.4088 19.3406 43.4968 19.3406 42.0448V39.7408H19.7606C19.9886 39.7408 20.2466 39.7108 20.3306 39.6688C20.5346 39.5788 20.6186 39.2668 20.5886 38.6968C20.5586 38.0668 20.4686 37.9768 19.8206 37.9528L19.3406 37.9288V36.8848C19.3406 35.9188 19.3286 35.8288 19.2206 35.7208C19.0646 35.5648 18.8306 35.5708 18.2366 35.7568Z" fill="white"/>
<path d="M46.588 35.7808C46.312 35.8708 46.036 36.0028 45.97 36.0688C45.808 36.2248 45.748 36.5788 45.742 37.3168V37.9228L45.508 37.9648C45.142 38.0188 45.082 38.1568 45.082 38.8768C45.082 39.4708 45.088 39.4948 45.238 39.6148C45.328 39.6868 45.472 39.7408 45.568 39.7408H45.736L45.754 42.4228L45.772 45.1108L45.928 45.4408C46.144 45.9028 46.336 46.1128 46.774 46.3408C47.098 46.5148 47.224 46.5508 47.668 46.5688C48.28 46.5988 48.556 46.5268 48.772 46.2748C48.91 46.1068 48.922 46.0408 48.922 45.5608C48.922 44.9188 48.868 44.8408 48.442 44.8408C47.764 44.8408 47.782 44.9128 47.782 42.0808V39.7408H48.226C48.58 39.7408 48.694 39.7168 48.826 39.6148C48.976 39.4948 48.982 39.4708 48.982 38.8468C48.982 38.0248 48.946 37.9828 48.262 37.9468L47.788 37.9288L47.77 36.8488C47.752 35.8648 47.74 35.7628 47.638 35.6848C47.464 35.5588 47.158 35.5888 46.588 35.7808Z" fill="white"/>
<path d="M9.09411 37.8276C8.67411 37.8996 8.23011 38.0976 8.05011 38.2836C7.93011 38.4096 7.91211 38.4936 7.91211 38.8836C7.91211 39.3036 7.92411 39.3456 8.07411 39.4596L8.23011 39.5796L8.75811 39.4416C10.0901 39.1056 10.9421 39.3396 11.0441 40.0776L11.0741 40.3176L10.5761 40.3956C9.45411 40.5636 8.33211 41.0976 7.85811 41.6796C7.40211 42.2436 7.16211 42.9756 7.16211 43.8216C7.16211 44.3676 7.26411 44.7696 7.52211 45.2556C7.76811 45.7176 8.14011 46.0596 8.65011 46.2996C8.98611 46.4556 9.14211 46.4916 9.59211 46.5096C10.2281 46.5396 10.4921 46.4796 10.9601 46.1976L11.3081 45.9876L11.3741 46.1256C11.4701 46.3416 11.6741 46.4016 12.2681 46.4016C12.7661 46.4016 12.8201 46.3896 12.9581 46.2516L13.1081 46.1016L13.0901 42.8796C13.0721 39.6636 13.0721 39.6516 12.9341 39.3096C12.6641 38.6376 12.0521 38.1336 11.2361 37.9056C10.8401 37.7976 9.53211 37.7436 9.09411 37.8276ZM11.0621 42.8436C11.0621 43.4016 11.0321 43.9536 11.0021 44.0736C10.8101 44.7516 10.0541 44.9916 9.53211 44.5356C9.28011 44.3136 9.19011 44.0436 9.19011 43.5336C9.19611 42.7596 9.62811 42.2376 10.4861 41.9676C11.1101 41.7696 11.0621 41.6976 11.0621 42.8436Z" fill="white"/>
<path d="M23.3017 37.8031C22.2937 37.9711 21.4837 38.6371 21.1297 39.5911C21.0037 39.9271 20.9917 40.0711 20.9737 41.6971C20.9497 43.7311 21.0037 44.2231 21.3457 44.9371C21.8497 45.9991 22.8817 46.5751 24.2917 46.5811C25.5517 46.5811 26.3017 46.0771 26.3017 45.2191C26.3017 44.9371 26.2777 44.8651 26.1277 44.7151C25.9177 44.5111 25.8337 44.5051 25.3297 44.6611C24.4897 44.9251 23.8297 44.8711 23.4157 44.4991C23.1217 44.2351 23.0017 43.8511 23.0017 43.2091V42.7411H24.7417C26.4037 42.7411 26.4877 42.7351 26.6017 42.6211C26.7157 42.5071 26.7217 42.4231 26.7217 41.3731C26.7217 40.1431 26.6557 39.7231 26.3857 39.1891C26.1817 38.7931 25.6897 38.2951 25.2817 38.0911C24.7597 37.8271 23.9077 37.7011 23.3017 37.8031ZM24.2377 39.4771C24.5317 39.6151 24.6817 39.9751 24.7237 40.6351L24.7597 41.1811H23.8717H22.9837L23.0137 40.6171C23.0497 39.9451 23.1757 39.6451 23.4877 39.4891C23.7397 39.3571 23.9737 39.3511 24.2377 39.4771Z" fill="white"/>
<path d="M30.622 37.8144C30.352 37.8984 30.07 38.0664 29.812 38.3064L29.56 38.5404L29.488 38.3004C29.452 38.1684 29.368 38.0364 29.302 38.0004C29.242 37.9704 28.882 37.9404 28.504 37.9404C27.904 37.9404 27.802 37.9584 27.658 38.0664L27.502 38.1864V42.1644V46.1424L27.64 46.2684C27.766 46.3884 27.844 46.4004 28.486 46.4004C29.206 46.4004 29.368 46.3644 29.458 46.1784C29.488 46.1184 29.524 44.8104 29.542 43.2744L29.572 40.4784L29.752 40.1844C29.962 39.8484 30.274 39.6504 30.676 39.5904C31.324 39.5064 31.402 39.3924 31.402 38.5704C31.402 38.0784 31.384 37.9824 31.282 37.8804C31.156 37.7544 30.904 37.7304 30.622 37.8144Z" fill="white"/>
<path d="M35.3265 37.821C34.9665 37.893 34.7085 38.019 34.3905 38.259L34.1085 38.475L34.0425 38.265C34.0065 38.151 33.9225 38.031 33.8625 38.001C33.8025 37.965 33.4425 37.941 33.0645 37.941C32.4645 37.941 32.3625 37.959 32.2185 38.067L32.0625 38.187V42.177C32.0625 46.029 32.0685 46.167 32.1765 46.275C32.3265 46.425 32.7345 46.485 33.3405 46.443C34.1385 46.389 34.0665 46.683 34.1025 43.173C34.1325 39.915 34.1265 39.981 34.4925 39.693C34.9005 39.375 35.5665 39.537 35.8065 40.011C35.9265 40.239 35.9325 40.377 35.9625 43.233C35.9925 45.993 35.9985 46.227 36.1005 46.323C36.1845 46.413 36.3285 46.437 36.8685 46.449C37.6185 46.473 37.8345 46.419 37.9425 46.161C37.9905 46.041 38.0025 45.159 37.9905 42.945C37.9665 40.305 37.9545 39.843 37.8645 39.543C37.5465 38.451 36.9285 37.893 35.9325 37.803C35.7345 37.785 35.4645 37.791 35.3265 37.821Z" fill="white"/>
<path d="M40.5777 37.8505C39.8397 38.0005 39.5337 38.2465 39.4737 38.7385C39.4257 39.1465 39.5037 39.3925 39.7017 39.4885C39.8337 39.5545 39.9297 39.5425 40.3557 39.4345C41.0517 39.2545 41.8437 39.2485 42.1797 39.4285C42.4497 39.5665 42.6237 39.8485 42.6237 40.1485C42.6237 40.3165 42.6117 40.3225 42.2817 40.3585C42.0897 40.3825 41.7237 40.4545 41.4597 40.5205C40.1577 40.8625 39.2997 41.5525 38.9637 42.5245C38.2437 44.5705 39.3837 46.5205 41.3037 46.5205C41.8557 46.5205 42.2157 46.4245 42.5817 46.1665C42.8937 45.9565 42.9237 45.9445 42.9237 46.0645C42.9237 46.1125 42.9957 46.2085 43.0797 46.2745C43.2177 46.3825 43.3257 46.4005 43.7937 46.4005C44.2617 46.4005 44.3697 46.3825 44.5077 46.2745L44.6637 46.1545V43.0225C44.6637 39.7045 44.6517 39.5845 44.3697 39.0325C44.0697 38.4505 43.3737 38.0005 42.5277 37.8505C41.9457 37.7425 41.1057 37.7485 40.5777 37.8505ZM42.6117 43.0045C42.5937 44.2825 42.5817 44.3305 42.1797 44.6245C41.9517 44.7985 41.4357 44.7985 41.2017 44.6245C40.9737 44.4565 40.8057 44.0965 40.7757 43.7005C40.7157 42.8785 41.1297 42.2965 41.9997 41.9905C42.6837 41.7445 42.6357 41.6605 42.6117 43.0045Z" fill="white"/>
<path d="M61.3879 37.8571C60.3979 38.0971 59.6719 38.7871 59.3899 39.7531C59.3059 40.0531 59.2939 40.3771 59.3119 42.1531C59.3359 44.0971 59.3419 44.2291 59.4679 44.5651C59.9539 45.8791 61.0279 46.5751 62.5519 46.5811C63.7879 46.5811 64.5139 46.1491 64.5679 45.3751C64.6039 44.8831 64.5559 44.7331 64.3099 44.6191C64.1059 44.5231 64.0759 44.5231 63.6319 44.6551C63.0139 44.8351 62.6839 44.8711 62.2999 44.7871C61.6159 44.6371 61.3399 44.2291 61.3219 43.3231L61.3099 42.7711L63.0619 42.7411C64.5679 42.7171 64.8319 42.6991 64.9099 42.6151C64.9939 42.5311 65.0059 42.3451 64.9999 41.3131C64.9939 39.6571 64.8499 39.1711 64.1899 38.5471C63.4819 37.8751 62.4019 37.6111 61.3879 37.8571ZM62.6059 39.5191C62.8759 39.6991 63.0139 40.1011 63.0199 40.7131V41.1811H62.1799H61.3399V40.6771C61.3399 40.1311 61.4119 39.8431 61.6039 39.6271C61.8559 39.3451 62.2819 39.2971 62.6059 39.5191Z" fill="white"/>
<path d="M71.2112 37.8211C70.0712 38.0551 69.2492 38.8231 69.0272 39.8491C68.9252 40.3291 68.9372 44.1811 69.0452 44.5711C69.3752 45.8191 70.4612 46.5811 71.9012 46.5811C73.3472 46.5811 74.4212 45.8191 74.7512 44.5711C74.8832 44.0551 74.8832 40.2871 74.7512 39.7711C74.5592 39.0331 74.0252 38.3851 73.3772 38.0851C72.7592 37.8031 71.8472 37.6951 71.2112 37.8211ZM72.4232 39.6811C72.8312 39.9271 72.8312 39.9211 72.8492 42.0331C72.8612 43.2151 72.8432 44.0251 72.8072 44.1631C72.7712 44.2951 72.6632 44.4751 72.5612 44.5711C72.3992 44.7211 72.3212 44.7511 71.9732 44.7691C71.6492 44.7811 71.5352 44.7631 71.3732 44.6611C71.0132 44.4391 71.0012 44.3371 71.0012 42.1591C71.0012 39.9571 71.0132 39.8911 71.4272 39.6691C71.6972 39.5251 72.1772 39.5251 72.4232 39.6811Z" fill="white"/>
<path d="M50.1221 37.9224C50.0741 37.9404 49.9841 37.9944 49.9301 38.0484C49.8281 38.1324 49.8221 38.4024 49.8221 42.1104C49.8221 46.7604 49.7501 46.3284 50.5181 46.3824C51.1241 46.4244 51.5381 46.3644 51.6881 46.2144C51.7961 46.1064 51.8021 45.9684 51.8021 42.1224C51.8021 37.4064 51.9161 37.9164 50.8781 37.8984C50.5121 37.8924 50.1701 37.8984 50.1221 37.9224Z" fill="white"/>
<path d="M52.7023 37.9828C52.5163 38.0548 52.4023 38.2048 52.4023 38.3908C52.4023 38.4988 52.9123 40.2808 53.5423 42.3508C54.4723 45.4348 54.7063 46.1548 54.8323 46.2748C54.9703 46.4128 55.0423 46.4308 55.5283 46.4548C56.0863 46.4728 56.3323 46.4188 56.5063 46.2268C56.5843 46.1428 58.5823 40.0348 58.9663 38.7148C59.1523 38.0848 58.9363 37.9108 58.0423 37.9528C57.5623 37.9768 57.4783 37.9948 57.3523 38.1268C57.2383 38.2408 57.0463 38.8108 56.4823 40.7248C56.0863 42.0748 55.7503 43.1968 55.7323 43.2088C55.7203 43.2208 55.6783 43.1128 55.6423 42.9748C55.2523 41.4928 54.3583 38.3068 54.3103 38.2228C54.2083 38.0308 53.8843 37.9408 53.3203 37.9468C53.0323 37.9468 52.7503 37.9648 52.7023 37.9828Z" fill="white"/>
</svg>
