<svg width="100%" height="100%" viewBox="0 0 81 81" fill="none" xmlns="http://www.w3.org/2000/svg">
<mask id="mask0_860_4532" style="mask-type:alpha" maskUnits="userSpaceOnUse" x="0" y="0" width="81" height="81">
<rect width="81" height="81" rx="11" fill="black"/>
</mask>
<g mask="url(#mask0_860_4532)">
<rect width="81" height="81" rx="11" fill="black"/>
</g>
<path d="M59.0441 57.3673C38.8042 66.9998 26.2431 58.9405 18.2023 54.0455C17.7048 53.737 16.8591 54.1177 17.5928 54.9604C20.2716 58.2085 29.0506 66.0373 40.5096 66.0373C51.9766 66.0373 58.7983 59.7804 59.6517 58.689C60.4993 57.6067 59.9006 57.0097 59.0439 57.3673H59.0441ZM64.7285 54.2281C64.1849 53.5203 61.4235 53.3883 59.6856 53.6018C57.945 53.8092 55.3323 54.8729 55.5595 55.5117C55.676 55.7509 55.914 55.6436 57.1097 55.5361C58.3087 55.4165 61.6675 54.9926 62.3674 55.9075C63.0706 56.8287 61.2961 61.2173 60.9721 61.9251C60.6589 62.6329 61.0917 62.8154 61.6798 62.344C62.2599 61.8728 63.31 60.6525 64.0147 58.9255C64.7146 57.1892 65.1414 54.767 64.7283 54.2281H64.7285Z" fill="#FF9900"/>
<path fill-rule="evenodd" clip-rule="evenodd" d="M45.4351 37.7125C45.4351 40.2399 45.4989 42.3476 44.2215 44.5921C43.1904 46.4172 41.5571 47.5394 39.7323 47.5394C37.2412 47.5394 35.7905 45.6415 35.7905 42.8404C35.7905 37.3109 40.7449 36.3073 45.4351 36.3073V37.7125ZM51.9772 53.5251C51.5483 53.9082 50.9278 53.9357 50.4443 53.6801C48.291 51.8919 47.9077 51.0616 46.7216 49.3552C43.1631 52.9868 40.6447 54.0725 36.0278 54.0725C30.5714 54.0725 26.3193 50.7056 26.3193 43.9626C26.3193 38.698 29.1754 35.112 33.2355 33.3602C36.7577 31.8089 41.6758 31.5352 45.4351 31.1065V30.267C45.4351 28.7249 45.5536 26.9 44.6504 25.5679C43.8564 24.3726 42.3418 23.8799 41.0095 23.8799C38.5369 23.8799 36.3288 25.1481 35.7905 27.7759C35.6808 28.36 35.2521 28.9349 34.6682 28.9622L28.3723 28.2871C27.8432 28.1683 27.2593 27.7396 27.4052 26.9273C28.856 19.2995 35.7447 17 41.9127 17C45.0698 17 49.194 17.8395 51.6851 20.2302C54.8422 23.1773 54.541 27.1099 54.541 31.3892V41.4991C54.541 44.5375 55.8002 45.8696 56.9863 47.5121C57.4059 48.096 57.4973 48.7988 56.968 49.2365C55.6449 50.3405 53.2908 52.3936 51.9953 53.5434L51.977 53.5251" fill="black"/>
<path d="M59.0441 57.3673C38.8042 66.9998 26.2431 58.9405 18.2023 54.0455C17.7048 53.737 16.8591 54.1177 17.5928 54.9604C20.2716 58.2085 29.0506 66.0373 40.5096 66.0373C51.9766 66.0373 58.7983 59.7804 59.6517 58.689C60.4993 57.6067 59.9006 57.0097 59.0439 57.3673H59.0441ZM64.7285 54.2281C64.1849 53.5203 61.4235 53.3883 59.6856 53.6018C57.945 53.8092 55.3323 54.8729 55.5595 55.5117C55.676 55.7509 55.914 55.6436 57.1097 55.5361C58.3087 55.4165 61.6675 54.9926 62.3674 55.9075C63.0706 56.8287 61.2961 61.2173 60.9721 61.9251C60.6589 62.6329 61.0917 62.8154 61.6798 62.344C62.2599 61.8728 63.31 60.6525 64.0147 58.9255C64.7146 57.1892 65.1414 54.767 64.7283 54.2281H64.7285Z" fill="#FF9900"/>
<path fill-rule="evenodd" clip-rule="evenodd" d="M45.4351 37.7125C45.4351 40.2399 45.4989 42.3476 44.2215 44.5921C43.1904 46.4172 41.5571 47.5394 39.7323 47.5394C37.2412 47.5394 35.7905 45.6415 35.7905 42.8404C35.7905 37.3109 40.7449 36.3073 45.4351 36.3073V37.7125ZM51.9772 53.5251C51.5483 53.9082 50.9278 53.9357 50.4443 53.6801C48.291 51.8919 47.9077 51.0616 46.7216 49.3552C43.1631 52.9868 40.6447 54.0725 36.0278 54.0725C30.5714 54.0725 26.3193 50.7056 26.3193 43.9626C26.3193 38.698 29.1754 35.112 33.2355 33.3602C36.7577 31.8089 41.6758 31.5352 45.4351 31.1065V30.267C45.4351 28.7249 45.5536 26.9 44.6504 25.5679C43.8564 24.3726 42.3418 23.8799 41.0095 23.8799C38.5369 23.8799 36.3288 25.1481 35.7905 27.7759C35.6808 28.36 35.2521 28.9349 34.6682 28.9622L28.3723 28.2871C27.8432 28.1683 27.2593 27.7396 27.4052 26.9273C28.856 19.2995 35.7447 17 41.9127 17C45.0698 17 49.194 17.8395 51.6851 20.2302C54.8422 23.1773 54.541 27.1099 54.541 31.3892V41.4991C54.541 44.5375 55.8002 45.8696 56.9863 47.5121C57.4059 48.096 57.4973 48.7988 56.968 49.2365C55.6449 50.3405 53.2908 52.3936 51.9953 53.5434L51.977 53.5251" fill="#FDFDFD"/>
</svg>
