<svg width="100%" height="100%" viewBox="0 0 81 81" fill="none" xmlns="http://www.w3.org/2000/svg">
<mask id="mask0_1278_5880" style="mask-type:alpha" maskUnits="userSpaceOnUse" x="0" y="0" width="81" height="81">
<rect width="81" height="81" rx="11" fill="#C4C4C4"/>
</mask>
<g mask="url(#mask0_1278_5880)">
<rect width="81" height="81" rx="11" fill="#FF6153"/>
<path d="M27.5053 24.9062H20.8652L18.5969 39.0656C18.5498 39.0734 18.5027 39.0734 18.4477 39.0812C13.4323 39.7484 9.53145 43.9711 9.57855 48.6961C9.59424 50.674 10.2692 52.2124 11.478 53.476C12.5376 54.5984 14.0131 55.2342 15.5594 55.242C16.1559 55.242 16.7445 55.1478 17.3018 54.9516C20.0097 54.0176 20.9044 51.7493 21.3283 49.6693V49.6772C21.446 47.3618 20.2137 45.0699 17.8512 43.7121L17.1056 48.4292C16.8623 49.7714 16.5562 50.5719 15.8812 50.7996C15.4809 50.9408 14.9864 50.7917 14.6567 50.4464C14.2251 49.999 13.9739 49.4967 13.966 48.649C13.9425 46.2865 15.8027 44.4342 17.8512 43.7121C18.5105 43.4766 19.2091 43.3589 19.9076 43.3667C20.6847 43.3746 21.4617 43.508 22.1916 43.7592C24.9623 44.4106 26.6341 47.3461 27.0501 50.5249L27.2934 52.3065H31.9006L27.5053 24.9062ZM22.7803 39.3717L24.1067 29.2388H24.2637L25.7393 40.549C24.8053 40.0388 23.8085 39.6385 22.7803 39.3717ZM66.9614 32.551V52.3144H62.3698V32.551H66.9614ZM53.5477 59.1586C59.5835 59.1586 60.0544 55.7208 60.0544 50.8624L60.0937 32.551H57.7076C56.8521 32.551 55.8004 33.1946 55.7297 34.0187L55.6748 34.6545L55.455 34.0501C55.0076 32.8571 53.8931 32.2214 52.2291 32.2214C50.5652 32.2214 49.3172 32.865 48.548 34.1365C47.8024 35.3687 47.6454 36.9621 47.6454 38.0844V45.7685C47.6454 47.6757 47.9201 49.0807 48.4931 50.0618C49.1916 51.2548 50.314 51.8356 51.9387 51.8356C53.4771 51.8356 54.6387 51.1842 55.2117 49.999L55.4864 49.4339V52.2594C55.4864 54.1981 55.3687 55.5638 53.8224 55.5638C53.4692 55.5638 52.3155 55.4461 52.3155 53.8999V53.8449H47.6768V53.9391C47.6768 55.4382 48.0849 56.6469 48.8855 57.5339C49.8823 58.6092 51.4442 59.1586 53.5477 59.1586ZM55.4158 44.9757C55.4158 46.8594 55.1489 47.8798 53.7518 47.8798C52.4254 47.8798 52.2448 46.6161 52.2448 45.376V38.4926C52.2448 36.9385 52.8021 36.185 53.948 36.185C55.2352 36.185 55.4158 37.4487 55.4158 38.6888V44.9757ZM67.2047 28.2028C67.2047 29.6077 66.0902 30.6987 64.6695 30.6987C63.3038 30.7144 62.1893 29.6156 62.1736 28.2499C62.1736 28.2342 62.1736 28.2185 62.1736 28.1949C62.1736 26.7743 63.2724 25.6597 64.6695 25.6597C66.0666 25.6676 67.2047 26.8057 67.2047 28.2028ZM37.9678 38.9321V52.3144H33.3291L33.2899 32.551H35.8643C36.7512 32.551 37.7716 33.1789 37.8815 34.1051L37.9286 34.5289L38.1483 34.16C38.894 32.8807 40.1105 32.2292 41.7509 32.2292C44.3881 32.2292 45.7303 33.9324 45.7303 37.2917V52.3144H41.1387V38.3278C41.1387 36.9071 40.6442 36.185 39.671 36.185C38.4152 36.185 37.9678 36.9071 37.9678 38.9321Z" fill="white"/>
<path d="M21.3286 49.6849C21.5641 48.6959 22.0978 44.8892 22.192 43.7668C21.4542 43.5157 20.685 43.3822 19.908 43.3744C19.2094 43.3665 18.5109 43.4843 17.8438 43.7197C20.2062 45.0697 21.4464 47.3616 21.3286 49.6849Z" fill="#DBDAD3"/>
</g>
</svg>
