<svg width="100%" height="100%" viewBox="0 0 81 81" fill="none" xmlns="http://www.w3.org/2000/svg">
<mask id="mask0_1278_5930" style="mask-type:alpha" maskUnits="userSpaceOnUse" x="0" y="0" width="81" height="81">
<rect width="81" height="81" rx="11" fill="#C4C4C4"/>
</mask>
<g mask="url(#mask0_1278_5930)">
<rect width="81" height="81" rx="11" fill="#74B71A"/>
<path d="M35.6703 49.3306C36.1437 49.1476 36.7974 49.0631 37.0905 49.5904C40.0443 53.3267 42.9725 57.0854 45.9418 60.8139C46.2144 61.1485 46.4382 61.5188 46.639 61.9023C44.9101 62.0954 43.1656 61.8868 41.4313 62C37.9885 61.9539 34.5435 61.9822 31.098 61.9434C30.7018 61.9845 30.347 61.7581 30.2415 61.3695C29.2326 58.6782 28.3013 55.9559 27.2823 53.2646C27.1253 52.9122 27.1098 52.526 27.128 52.1456C29.9686 51.1856 32.827 50.2852 35.6703 49.3306ZM59.2211 42.7771C60.2192 42.4142 61.192 41.9586 62.2342 41.7193C62.1544 42.1904 62.0462 42.6588 61.8946 43.1117C60.4177 47.6479 58.9792 52.1968 57.505 56.733C57.4174 57.2886 56.8179 57.4328 56.3394 57.4072C53.298 57.4561 50.2644 57.6953 47.2229 57.7132C47.1074 57.2603 47.012 56.7973 47.0326 56.3293C47.0481 53.7559 47.043 51.1856 47.0353 48.6125C47.007 48.1546 47.1279 47.7145 47.285 47.2927C51.2756 45.8263 55.2379 44.2691 59.2211 42.7771ZM25.2087 31.6435C25.5274 31.2884 26.1424 31.2783 26.3715 31.7362C28.062 34.0778 29.7266 36.4422 31.4199 38.781C31.713 39.1285 31.865 39.6302 31.5482 40.0164C28.8569 44.1846 26.1323 48.3295 23.4305 52.4926C23.2944 52.7451 23.0653 52.9044 22.8051 53.0099C21.2409 48.2139 19.7357 43.3971 18.1712 38.6035C18.0375 38.1351 17.842 37.4767 18.3182 37.1343C20.6155 35.3077 22.9109 33.4733 25.2087 31.6435ZM48.1081 20.51C48.8751 20.8345 49.5028 21.3902 50.1666 21.8791C53.671 24.4522 57.1704 27.0357 60.6748 29.6083C61.0761 29.8347 61.2537 30.3058 61.0916 30.7432C60.3122 33.5373 59.527 36.3317 58.7477 39.1285C58.6729 39.5274 58.3824 40.1114 57.8807 39.8749C55.0425 38.9148 52.1813 38.0168 49.3508 37.0316C48.9546 36.9594 48.7208 36.6093 48.7487 36.2185C48.5071 31.2577 48.3195 26.292 48.0643 21.3312C48.0748 21.125 48.0953 20.7163 48.1081 20.51ZM36.2674 18.2433C36.6303 17.9087 37.1832 17.9525 37.5512 18.251C40.0005 19.9288 42.4681 21.5806 44.9151 23.2606C45.3009 23.4871 45.1827 24.0121 44.9178 24.2874C43.1757 26.6855 41.4701 29.1143 39.7097 31.4997C39.4344 31.9471 38.861 31.8211 38.4441 31.7002C34.3609 30.5552 30.2772 29.4102 26.1939 28.2729C25.3936 28.062 24.5883 27.8588 23.8268 27.5269C24.4805 26.8371 25.2855 26.3304 26.0419 25.7693C29.4591 23.2684 32.8553 20.7469 36.2674 18.2433Z" fill="white"/>
</g>
</svg>
