<svg width="100%" height="100%" viewBox="0 0 81 81" fill="none" xmlns="http://www.w3.org/2000/svg">
<mask id="mask0_860_4541" style="mask-type:alpha" maskUnits="userSpaceOnUse" x="0" y="0" width="81" height="81">
<rect width="81" height="81" rx="11" fill="url(#paint0_linear_860_4541)"/>
</mask>
<g mask="url(#mask0_860_4541)">
<rect width="81" height="81" rx="11" fill="url(#paint1_linear_860_4541)"/>
</g>
<path d="M40.7273 23.7039L42.0233 21.4639C42.8233 20.0639 44.6073 19.5919 46.0073 20.3919C47.4073 21.1919 47.8793 22.9759 47.0793 24.3759L34.5913 45.9919H43.6233C46.5513 45.9919 48.1913 49.4319 46.9193 51.8159H20.4393C18.8233 51.8159 17.5273 50.5199 17.5273 48.9039C17.5273 47.2879 18.8233 45.9919 20.4393 45.9919H27.8633L37.3673 29.5199L34.3993 24.3679C33.5993 22.9679 34.0713 21.1999 35.4713 20.3839C36.8713 19.5839 38.6393 20.0559 39.4553 21.4559L40.7273 23.7039ZM29.4953 54.8159L26.6953 59.6719C25.8953 61.0719 24.1113 61.5439 22.7113 60.7439C21.3113 59.9439 20.8393 58.1599 21.6393 56.7599L23.7193 53.1599C26.0713 52.4319 27.9833 52.9919 29.4953 54.8159ZM53.6073 46.0079H61.1833C62.7993 46.0079 64.0953 47.3039 64.0953 48.9199C64.0953 50.5359 62.7993 51.8319 61.1833 51.8319H56.9753L59.8153 56.7599C60.6153 58.1599 60.1433 59.9279 58.7433 60.7439C57.3433 61.5439 55.5753 61.0719 54.7593 59.6719C49.9753 51.3759 46.3833 45.1679 43.9993 41.0319C41.5593 36.8239 43.3033 32.5999 45.0233 31.1679C46.9353 34.4479 49.7913 39.3999 53.6073 46.0079Z" fill="white"/>
<defs>
<linearGradient id="paint0_linear_860_4541" x1="40.5" y1="0" x2="40.5" y2="81" gradientUnits="userSpaceOnUse">
<stop offset="0" stop-color="#18BFFB"/>
<stop offset="1" stop-color="#2074F3"/>
</linearGradient>
<linearGradient id="paint1_linear_860_4541" x1="40.5" y1="0" x2="40.5" y2="81" gradientUnits="userSpaceOnUse">
<stop offset="0" stop-color="#18BFFB"/>
<stop offset="1" stop-color="#2074F3"/>
</linearGradient>
</defs>
</svg>
