<svg width="100%" height="100%" viewBox="0 0 81 81" fill="none" xmlns="http://www.w3.org/2000/svg">
<mask id="mask0_860_4875" style="mask-type:alpha" maskUnits="userSpaceOnUse" x="0" y="0" width="81" height="81">
<rect width="81" height="81" rx="11" fill="#C4C4C4"/>
</mask>
<g mask="url(#mask0_860_4875)">
<rect width="81" height="81" rx="11" fill="#174477"/>
</g>
<g clip-path="url(#clip0_860_4875)">
<path d="M24.5911 31.6031C23.0069 31.9317 21.197 32.9274 19.348 34.4871C18.7496 34.9923 17.2733 36.4441 16.6307 37.1651C13.5751 40.5836 10.8285 45.0617 9.36194 49.0198L9.22461 49.4023H11.6623H14.0999L14.3402 48.7991C14.6002 48.1516 15.2967 46.6214 15.4242 46.4301L15.4978 46.3124H19.2499C21.3099 46.3124 23.0069 46.3271 23.0167 46.3516C23.0314 46.3712 23.0903 47.0628 23.154 47.8966L23.2668 49.4023H25.6849C27.789 49.4023 28.1029 49.3925 28.1029 49.3288C28.1029 49.2895 27.7596 45.3952 27.3427 40.6719C26.8081 34.595 26.5628 32.0494 26.5138 31.9513C26.4157 31.76 26.2293 31.6031 26.038 31.5491C25.7781 31.4707 25.0816 31.5001 24.5911 31.6031ZM22.3546 37.2386C22.3889 37.5672 22.7469 42.4622 22.7371 42.4769C22.7273 42.4818 21.5943 42.4818 20.2112 42.4769L17.6951 42.4622L18.1561 41.8C19.2646 40.1962 20.2014 39.0534 21.3442 37.9106C22.1829 37.0719 22.3251 36.9738 22.3546 37.2386Z" fill="white"/>
<path d="M64.0392 35.8167C62.9013 35.9982 61.8468 36.4249 60.9198 37.0772C60.4441 37.4107 59.6054 38.2789 59.2866 38.7595C58.7372 39.5933 58.3743 40.4762 58.1879 41.4326C58.0702 42.031 58.0702 43.2277 58.1879 43.8605C58.7029 46.7101 60.8953 48.8731 63.8332 49.4322C64.4316 49.5499 65.6382 49.5499 66.2365 49.4322C66.9379 49.2998 67.5952 49.0791 68.2132 48.7652C70.0132 47.848 71.2835 46.2392 71.7838 44.2332C71.9604 43.5466 71.9996 42.286 71.877 41.5503C71.411 38.7399 69.3412 36.5622 66.5112 35.9099C66.0306 35.7971 64.5248 35.7431 64.0392 35.8167ZM65.3635 39.7454C66.3199 39.8778 67.0949 40.4517 67.5167 41.3345C68.0856 42.5166 67.8649 43.8408 66.9526 44.7433C66.521 45.17 66.2267 45.3417 65.6921 45.479C64.1913 45.8665 62.7101 44.9493 62.3128 43.3945C62.2196 43.0217 62.2196 42.3057 62.3128 41.9035C62.5727 40.8048 63.539 39.8974 64.618 39.7454C64.7798 39.7209 64.927 39.7012 64.9466 39.6963C64.9662 39.6963 65.1526 39.716 65.3635 39.7454Z" fill="white"/>
<path d="M29.9668 36.1206C29.9668 36.2089 30.2317 39.1468 30.5505 42.6439C31.0262 47.8331 31.1488 49.0299 31.2126 49.1329C31.3303 49.3094 31.5608 49.437 31.8257 49.4762C32.0905 49.5105 33.0126 49.4321 33.5129 49.3291C35.3326 48.9514 37.2013 47.7988 38.7364 46.1066C41.0613 43.5513 42.7093 39.7796 42.9937 36.3659L43.0281 35.9637H40.7866H38.5501L38.5304 36.0716C38.5157 36.1353 38.4814 36.361 38.4471 36.5768C38.1037 39.0635 37.2209 41.4766 36.1222 42.9382C35.8034 43.3551 35.1217 44.0565 35.0236 44.0565C34.9941 44.0565 34.9598 44.0074 34.95 43.9486C34.9353 43.8848 34.8029 42.1387 34.6508 40.0591C34.4988 37.9795 34.3663 36.2089 34.3516 36.1206L34.3271 35.9637H32.1494H29.9668V36.1206Z" fill="white"/>
<path d="M44.5186 36.1212C44.5284 36.2095 44.7982 39.1474 45.117 42.6445C45.7448 49.5258 45.6958 49.158 46.0146 49.3542C46.2353 49.4866 46.5443 49.5111 47.1721 49.4523C47.8538 49.3885 48.2904 49.3002 48.8985 49.104C51.1743 48.3683 53.3667 46.48 55.0147 43.8364C55.4905 43.0712 56.2311 41.5557 56.545 40.7219C57.0943 39.2259 57.4426 37.7398 57.5603 36.3665L57.5946 35.9643H55.3532H53.1166L53.097 36.0722C53.0823 36.1359 53.0479 36.3616 53.0136 36.5774C52.9842 36.7932 52.8959 37.2885 52.8174 37.6809C52.3613 39.8979 51.6354 41.6832 50.6691 42.9633C50.3651 43.3606 49.6833 44.0571 49.5901 44.0571C49.5607 44.0571 49.5263 44.008 49.5165 43.9492C49.5018 43.8854 49.3694 42.1589 49.2223 40.1088C49.0702 38.0586 48.9329 36.288 48.9182 36.1703L48.8936 35.9643H46.6963H44.5039L44.5186 36.1212Z" fill="white"/>
</g>
<defs>
<clipPath id="clip0_860_4875">
<rect width="62.7805" height="18.0984" fill="white" transform="translate(9.21973 31.4512)"/>
</clipPath>
</defs>
</svg>
