<svg width="100%" height="100%" viewBox="0 0 81 81" fill="none" xmlns="http://www.w3.org/2000/svg">
<mask id="mask0_860_4591" style="mask-type:alpha" maskUnits="userSpaceOnUse" x="0" y="0" width="81" height="81">
<rect width="81" height="81" rx="11" fill="#015A75"/>
</mask>
<g mask="url(#mask0_860_4591)">
<rect width="81" height="81" rx="11" fill="#015A75"/>
<path d="M48.3999 43.6045H28.4674L27.7429 45.9862H33.0542L34.0692 49.2727H42.8017L43.8114 45.9862H49.1227L48.3999 43.6045ZM31.7207 30.2187C31.1379 31.0237 30.8229 31.9915 30.8229 32.9855C30.8229 34.494 31.5474 35.915 32.7689 36.7987L37.5377 40.2637C37.8439 40.486 38.0259 40.8412 38.0259 41.2192C38.0259 41.4677 37.9472 41.711 37.8002 41.9122L38.5177 42.432L41.0377 38.9495C41.6222 38.148 41.9354 37.1837 41.9372 36.1915C41.9372 35.9395 41.9179 35.6892 41.8777 35.4407C41.6817 34.207 40.9992 33.1027 39.9859 32.373L35.2172 28.908C34.9634 28.7242 34.7937 28.4477 34.7447 28.1397C34.7342 28.0767 34.7289 28.0137 34.7289 27.9507C34.7289 27.704 34.8077 27.4625 34.9529 27.2612L34.2354 26.7397L31.7207 30.2187ZM34.5942 16.287C33.7472 17.449 33.2904 18.849 33.2922 20.2857C33.2922 20.6497 33.3219 21.0137 33.3779 21.3742C33.6597 23.1645 34.6467 24.7692 36.1167 25.828L42.1122 30.1697C42.8997 30.7385 43.4299 31.5995 43.5804 32.5585C43.6119 32.751 43.6259 32.9452 43.6277 33.1395C43.6259 33.9112 43.3792 34.662 42.9224 35.2832L43.5017 35.705L48.2267 29.1757C49.0719 28.0102 49.5287 26.605 49.5287 25.1647C49.5287 22.9772 48.4769 20.9175 46.7059 19.633L39.4662 14.3707C38.5317 13.69 38.3217 12.3617 39.0007 11.4272L38.4214 11.0107L34.5942 16.287ZM22.3477 51.2625H27.8094C29.1534 51.2625 30.2087 51.6317 30.8842 52.3037C31.4197 52.8287 31.7102 53.555 31.6892 54.304V54.332C31.6892 55.6602 30.9839 56.3987 30.1369 56.8712C31.4967 57.3927 32.3384 58.182 32.3384 59.7622V59.7955C32.3384 61.9462 30.5919 63.0207 27.9354 63.0207H22.3477V51.2625ZM27.2547 56.019C28.3974 56.019 29.1202 55.6497 29.1202 54.7765V54.7432C29.1202 53.9697 28.5147 53.534 27.4262 53.534H24.8677V56.0207H27.2547V56.019ZM27.9424 60.758C29.0852 60.758 29.7764 60.3537 29.7764 59.4875V59.4542C29.7764 58.6632 29.1884 58.1837 27.8602 58.1837H24.8677V60.7702L27.9424 60.758ZM33.4707 51.2625H38.9324C40.2764 51.2625 41.3317 51.6317 42.0072 52.3037C42.5409 52.8305 42.8314 53.555 42.8104 54.304V54.332C42.8104 55.6602 42.1052 56.3987 41.2582 56.8712C42.6197 57.3927 43.4597 58.182 43.4597 59.7622V59.7955C43.4597 61.9462 41.7132 63.0207 39.0567 63.0207H33.4707V51.2625ZM38.3759 56.019C39.5187 56.019 40.2414 55.6497 40.2414 54.7765V54.7432C40.2414 53.9697 39.6359 53.534 38.5474 53.534H35.9907V56.0207H38.3759V56.019ZM39.0654 60.758C40.2082 60.758 40.8994 60.3537 40.8994 59.4875V59.4542C40.8994 58.6632 40.3114 58.1837 38.9849 58.1837H35.9924V60.7702L39.0654 60.758ZM44.5937 51.2625H50.0554C51.3994 51.2625 52.4547 51.6317 53.1302 52.3037C53.6639 52.8287 53.9562 53.555 53.9352 54.304V54.332C53.9352 55.6602 53.2299 56.3987 52.3829 56.8712C53.7444 57.3927 54.5844 58.182 54.5844 59.7622V59.7955C54.5844 61.9462 52.8362 63.0207 50.1814 63.0207H44.5937V51.2625V51.2625ZM49.5007 56.019C50.6434 56.019 51.3662 55.6497 51.3662 54.7765V54.7432C51.3662 53.9697 50.7607 53.534 49.6722 53.534H47.1172V56.0207H49.5007V56.019ZM50.1884 60.758C51.3312 60.758 52.0224 60.3537 52.0224 59.4875V59.4542C52.0224 58.6632 51.4344 58.1837 50.1062 58.1837H47.1154V60.7702L50.1884 60.758ZM55.1374 60.5672V60.555C55.1374 60.5532 55.1374 60.5515 55.1374 60.548C55.1374 59.232 56.2207 58.1487 57.5367 58.1487C58.8509 58.1487 59.9324 59.2285 59.9359 60.541V60.5532V60.5602C59.9359 61.8762 58.8527 62.9595 57.5367 62.9595C56.2224 62.9595 55.1409 61.8797 55.1374 60.5672ZM59.6524 60.5532V60.541C59.6489 59.3825 58.6952 58.4305 57.5349 58.4305C56.3729 58.4305 55.4174 59.386 55.4174 60.548V60.555V60.5672C55.4209 61.7257 56.3747 62.6777 57.5349 62.6777C58.6969 62.6777 59.6524 61.7222 59.6524 60.5602C59.6524 60.5585 59.6524 60.5567 59.6524 60.5532ZM56.5479 59.211H57.6767C57.9672 59.1952 58.2507 59.2967 58.4642 59.4927C58.6059 59.6415 58.6829 59.8427 58.6759 60.0492V60.0615C58.6917 60.4167 58.4642 60.7405 58.1264 60.849L58.7494 61.7625H58.0932L57.5507 60.9417H57.1079V61.7625H56.5427L56.5479 59.211ZM57.6784 60.4552C57.9602 60.4552 58.1159 60.303 58.1159 60.0912V60.079C58.1159 59.8357 57.9444 59.708 57.6662 59.708H57.1167V60.4552H57.6784Z" fill="#FDFDFD"/>
</g>
</svg>
