<svg width="100%" height="100%" viewBox="0 0 81 81" fill="none" xmlns="http://www.w3.org/2000/svg">
<mask id="mask0_860_4578" style="mask-type:alpha" maskUnits="userSpaceOnUse" x="0" y="0" width="81" height="81">
<rect width="81" height="81" rx="11" fill="#0038FF"/>
</mask>
<g mask="url(#mask0_860_4578)">
<rect width="81" height="81" rx="11" fill="#0038FF"/>
</g>
<g clip-path="url(#clip0_860_4578)">
<path d="M56.8533 48.2275H67.7814V56.9798H56.8533L54.1104 54.4258V50.7815L56.8533 48.2275Z" fill="#FFEE35"/>
<path d="M20.5698 35.5963C20.4383 35.7231 20.2824 35.8219 20.1117 35.8869C19.941 35.9518 19.7589 35.9816 19.5764 35.9743H17.4465V33.4785H19.5764C19.9421 33.4815 20.2946 33.6156 20.5698 33.8565C20.6917 33.972 20.7882 34.1116 20.8533 34.2663C20.9183 34.4211 20.9505 34.5877 20.9478 34.7555C20.9455 34.9155 20.9108 35.0733 20.8458 35.2194C20.7809 35.3656 20.687 35.4971 20.5698 35.606V35.5963ZM17.4949 28.5572H19.1499C19.296 28.5492 19.4423 28.5702 19.5804 28.6188C19.7184 28.6675 19.8455 28.7429 19.9544 28.8407C20.0544 28.9308 20.1353 29.0401 20.1924 29.1621C20.2494 29.284 20.2813 29.4162 20.2863 29.5507C20.292 29.687 20.2648 29.8226 20.207 29.9462C20.1492 30.0698 20.0626 30.1776 19.9544 30.2607C19.8455 30.3585 19.7184 30.434 19.5804 30.4826C19.4423 30.5313 19.296 30.5522 19.1499 30.5442H17.4949V28.5572V28.5572ZM22.8403 31.8696L23.0293 31.7751C23.205 31.6868 23.3681 31.5752 23.5139 31.4431C23.7258 31.2786 23.9163 31.0881 24.0809 30.8761C24.2903 30.6399 24.4545 30.3672 24.5655 30.0717C24.7008 29.7253 24.765 29.3554 24.7545 28.9837C24.7545 27.9902 24.2699 27.1397 23.383 26.4298C22.4962 25.7198 21.2531 25.3418 19.6927 25.3418H13.0098V39.1534H20.1531C21.997 39.1534 25.7819 38.8215 25.7819 35.1796C25.7819 32.4366 22.896 31.8672 22.8499 31.8672" fill="#FDFDFD"/>
<path d="M24.1176 50.9245C23.986 51.0513 23.8302 51.1501 23.6595 51.215C23.4888 51.28 23.3067 51.3098 23.1241 51.3025H21.0427V48.7946H23.1241C23.4899 48.7975 23.8424 48.9317 24.1176 49.1726C24.2394 49.2881 24.336 49.4276 24.401 49.5824C24.4661 49.7372 24.4983 49.9037 24.4956 50.0716C24.4816 50.3927 24.3465 50.6965 24.1176 50.9221V50.9245ZM21.0427 43.8733H22.7025C22.8487 43.8653 22.995 43.8862 23.133 43.9349C23.271 43.9835 23.3981 44.059 23.507 44.1568C23.607 44.2469 23.6879 44.3562 23.745 44.4781C23.802 44.6001 23.834 44.7322 23.8389 44.8668C23.8446 45.0031 23.8174 45.1387 23.7596 45.2623C23.7018 45.3858 23.6152 45.4937 23.507 45.5768C23.3981 45.6746 23.271 45.75 23.133 45.7987C22.995 45.8473 22.8487 45.8683 22.7025 45.8602H21.0475V43.8733H21.0427ZM26.388 47.1372L26.5795 47.0476C26.7552 46.9593 26.9182 46.8476 27.0641 46.7156C27.276 46.551 27.4665 46.3606 27.6311 46.1486C27.8405 45.9123 28.0047 45.6397 28.1157 45.3441C28.251 44.9978 28.3152 44.6278 28.3047 44.2562C28.3047 43.2627 27.8201 42.4122 26.9332 41.7022C26.0464 40.9923 24.8033 40.6143 23.2429 40.6143H16.5479V54.4259H23.6911C25.5351 54.4259 29.32 54.0939 29.32 50.452C29.32 47.7551 26.4341 47.1881 26.388 47.1396" fill="#FDFDFD"/>
<path d="M37.2213 35.7853H30.5505V33.6093H35.9903V30.4884H30.5505V28.6904H37.2673V25.332H26.0557V39.1437H37.2213V35.7853Z" fill="#FDFDFD"/>
<path d="M48.6699 25.332V28.6904H52.3118V39.1437H56.7582V28.6904H60.4486V25.332H48.6699Z" fill="#FDFDFD"/>
<path d="M43.6085 35.5966C43.3108 35.8258 42.9421 35.9433 42.5666 35.9285C42.0867 35.9082 41.6177 35.779 41.1951 35.5505C40.8573 35.4025 40.5397 35.212 40.2501 34.9835C40.1556 34.889 40.0611 34.8406 40.0078 34.7412L37.3594 37.2491L37.5484 37.4381C37.7728 37.675 38.0269 37.8819 38.3044 38.0536C38.679 38.3213 39.0744 38.5587 39.4869 38.7635C40.0146 39.0279 40.5695 39.2343 41.1418 39.379C41.8089 39.5322 42.4904 39.6135 43.1748 39.6213C44.9243 39.6213 46.2982 39.1367 47.3377 38.2499C48.0797 37.6328 48.5945 36.7856 48.8004 35.8428C49.0063 34.8999 48.8914 33.9152 48.4741 33.045C48.2268 32.5184 47.832 32.0748 47.3377 31.7681C46.8693 31.4785 46.3792 31.2257 45.8717 31.0121C45.4432 30.8161 45.0001 30.6541 44.5463 30.5275C44.5203 30.5306 44.494 30.5279 44.4693 30.5195C44.4445 30.5111 44.422 30.4973 44.4033 30.479C44.0052 30.3949 43.6221 30.2511 43.2669 30.0525C43.1478 30.0106 43.0437 29.9345 42.9678 29.8336C42.8919 29.7327 42.8476 29.6116 42.8404 29.4855C42.836 29.3627 42.8644 29.2409 42.9227 29.1327C42.9811 29.0245 43.0673 28.9338 43.1724 28.8701C43.3614 28.6811 43.6933 28.6277 44.0713 28.6277C44.3956 28.623 44.7176 28.6834 45.0181 28.8053C45.3186 28.9273 45.5916 29.1083 45.8208 29.3377L48.4693 26.8298L48.4208 26.7813C48.2457 26.575 48.0377 26.399 47.8053 26.2604C47.4862 26.0511 47.1544 25.8618 46.8119 25.6934C46.3459 25.4615 45.8537 25.2866 45.3459 25.1724C44.7244 25.037 44.0894 24.9736 43.4535 24.9834C41.7985 24.9834 40.4731 25.4099 39.4335 26.3088C38.4401 27.2078 37.9191 28.2013 37.9191 29.3838C37.9065 29.9664 38.0198 30.545 38.2511 31.0799C38.4435 31.5322 38.734 31.9361 39.1016 32.2624C39.4688 32.5681 39.8648 32.8375 40.2841 33.0669C40.6375 33.2482 41.0007 33.41 41.372 33.5515C41.4205 33.5999 41.515 33.5999 41.561 33.646C41.9875 33.7889 42.3655 33.9295 42.7435 34.024C43.0345 34.1323 43.3186 34.2585 43.594 34.402C43.8363 34.5449 43.926 34.6855 43.926 34.8866C43.9744 35.1289 43.8315 35.3712 43.594 35.5966" fill="#FDFDFD"/>
<path d="M37.2677 48.8434C37.262 49.2806 37.0859 49.6983 36.7767 50.0074C36.4676 50.3166 36.0499 50.4927 35.6127 50.4984C35.395 50.4997 35.1792 50.4577 34.9779 50.375C34.7765 50.2923 34.5935 50.1705 34.4396 50.0165C34.2857 49.8626 34.1638 49.6796 34.0811 49.4783C33.9984 49.2769 33.9564 49.0611 33.9577 48.8434V40.6582H29.4629V48.6544C29.4642 50.2349 30.0926 51.7503 31.2102 52.8679C32.3278 53.9855 33.8432 54.6139 35.4237 54.6152H35.7072C37.2877 54.6139 38.8031 53.9855 39.9207 52.8679C41.0383 51.7503 41.6667 50.2349 41.668 48.6544V40.6582H37.2677V48.8434Z" fill="#FDFDFD"/>
<path d="M49.3321 45.342L46.3977 40.6582H41.9053L47.1077 49.5534V54.4723H51.554V49.5534L56.7588 40.6582H52.264L49.3321 45.342Z" fill="#FDFDFD"/>
<path d="M56.2861 52.5796C56.2861 52.6826 56.2555 52.7833 56.1983 52.869C56.141 52.9547 56.0597 53.0214 55.9645 53.0609C55.8693 53.1003 55.7645 53.1106 55.6635 53.0905C55.5624 53.0704 55.4696 53.0208 55.3967 52.9479C55.3239 52.8751 55.2743 52.7823 55.2541 52.6812C55.234 52.5801 55.2444 52.4754 55.2838 52.3802C55.3232 52.285 55.39 52.2036 55.4757 52.1464C55.5614 52.0892 55.6621 52.0586 55.7651 52.0586C55.9029 52.0599 56.0347 52.1152 56.1321 52.2126C56.2295 52.31 56.2848 52.4418 56.2861 52.5796" fill="#1C252C"/>
</g>
<defs>
<clipPath id="clip0_860_4578">
<rect width="54.7813" height="31.98" fill="white" transform="translate(13 25)"/>
</clipPath>
</defs>
</svg>
