<svg width="100%" height="100%" viewBox="0 0 44 44" fill="none" xmlns="http://www.w3.org/2000/svg">
<g filter="url(#filter0_d_507_24165)">
<rect x="5" y="5" width="32" height="32" rx="5.77049" fill="#0E1A3D"/>
<g clip-path="url(#clip0_507_24165)">
<path d="M27.1538 23.2603C27.1537 24.4108 26.7181 25.5186 25.9344 26.3609C26.0167 26.2695 26.0906 26.1709 26.1553 26.0663C26.2055 25.9866 26.2497 25.9033 26.2874 25.8169C26.301 25.7885 26.3132 25.7593 26.3237 25.7296C26.3359 25.701 26.3466 25.6719 26.3556 25.6422C26.3659 25.6147 26.3747 25.5862 26.3826 25.5577C26.3904 25.5293 26.3988 25.4988 26.4052 25.4689L26.4086 25.4586C26.4155 25.4291 26.4209 25.3997 26.4268 25.3697C26.4327 25.3398 26.4381 25.3084 26.443 25.2774C26.4474 25.249 26.4508 25.2205 26.4533 25.191C26.4602 25.1237 26.4636 25.056 26.4636 24.9883C26.4647 24.6166 26.3638 24.2517 26.172 23.9333C26.1301 23.862 26.0834 23.7936 26.0321 23.7286C25.9721 23.6513 25.9065 23.5786 25.8357 23.5112C25.6596 23.3402 25.4541 23.2025 25.229 23.1047C25.1303 23.0611 25.0282 23.0259 24.9236 22.9996H24.9192L24.8829 22.9874L24.3522 22.8052L22.9644 22.3281C22.96 22.3281 22.9541 22.3281 22.9507 22.3281L22.8638 22.2962C22.5853 22.1857 22.3541 21.9815 22.2099 21.7189L21.7048 20.4239L21.124 18.9433L21.0126 18.6576L20.9841 18.5997C20.9516 18.5205 20.9349 18.4358 20.935 18.3503C20.9338 18.3282 20.9338 18.3061 20.935 18.284C20.9454 18.1833 20.9793 18.0864 21.034 18.0012C21.0886 17.9159 21.1625 17.8447 21.2497 17.7932C21.3368 17.7417 21.4349 17.7113 21.5359 17.7046C21.637 17.6978 21.7382 17.7149 21.8314 17.7543L24.418 19.0798L24.928 19.3404C25.1981 19.5008 25.4505 19.6892 25.6811 19.9025C26.5404 20.6896 27.064 21.7771 27.1435 22.9397C27.1494 23.0473 27.1538 23.1533 27.1538 23.2603Z" fill="url(#paint0_linear_507_24165)"/>
<path d="M26.4623 24.9863C26.4623 25.1151 26.4505 25.2436 26.427 25.3702C26.4201 25.4031 26.4132 25.4365 26.4054 25.4684C26.3906 25.5273 26.3749 25.5842 26.3563 25.6417C26.346 25.6711 26.3356 25.7006 26.3244 25.729C26.3131 25.7575 26.3003 25.787 26.288 25.8164C26.2504 25.9028 26.2062 25.9861 26.156 26.0658C26.0912 26.1703 26.0173 26.2689 25.9351 26.3603C25.5581 26.7771 24.2783 27.5203 23.8065 27.8227L22.7594 28.4609C21.9921 28.9337 21.2666 29.2685 20.354 29.291C20.3108 29.291 20.2686 29.291 20.2263 29.291C20.1674 29.291 20.109 29.291 20.0511 29.2876C19.3121 29.2592 18.5912 29.0514 17.9504 28.6822C17.3097 28.313 16.7684 27.7934 16.3732 27.1684C16.0087 26.5945 15.7791 25.9455 15.7017 25.27C15.758 25.5842 15.8879 25.8805 16.0809 26.1346C16.2738 26.3888 16.5243 26.5937 16.8117 26.7323C17.0991 26.871 17.4153 26.9396 17.7343 26.9324C18.0534 26.9253 18.3662 26.8426 18.6471 26.6912L18.654 26.6878L18.7566 26.6264L19.1733 26.381L19.704 26.0668V26.0521L19.7722 26.0113L24.5198 23.1989L24.885 22.9824L24.9213 22.9947H24.9258C25.0304 23.0209 25.1325 23.056 25.2311 23.0997C25.4562 23.1975 25.6618 23.3352 25.8379 23.5062C25.9086 23.5737 25.9743 23.6464 26.0342 23.7237C26.0855 23.7887 26.1322 23.8571 26.1741 23.9284C26.3647 24.2482 26.4644 24.614 26.4623 24.9863Z" fill="url(#paint1_linear_507_24165)"/>
<path d="M19.7042 15.5998V26.0703L19.1716 26.3825L18.7543 26.628L18.6517 26.6903C18.6493 26.6906 18.6471 26.6916 18.6453 26.6933C18.3644 26.8447 18.0517 26.9274 17.7326 26.9345C17.4136 26.9417 17.0975 26.8732 16.81 26.7346C16.5226 26.5959 16.2722 26.3912 16.0792 26.137C15.8862 25.8829 15.7562 25.5867 15.6999 25.2726C15.692 25.2289 15.6861 25.1837 15.6812 25.14C15.6748 25.0576 15.6704 24.9766 15.6689 24.8946V13.1129C15.6691 12.9903 15.7025 12.8701 15.7657 12.7651C15.8288 12.66 15.9194 12.5742 16.0276 12.5166C16.1358 12.4591 16.2576 12.4321 16.38 12.4384C16.5024 12.4448 16.6208 12.4843 16.7224 12.5527L18.7877 13.9017C18.7989 13.911 18.8109 13.9194 18.8235 13.9268C19.0957 14.1126 19.3182 14.3622 19.4717 14.6539C19.6252 14.9455 19.705 15.2702 19.7042 15.5998Z" fill="url(#paint2_linear_507_24165)"/>
<g opacity="0.149">
<g opacity="0.149">
<path opacity="0.149" d="M26.4633 24.9858C26.4633 25.1146 26.4515 25.2431 26.4279 25.3697C26.4211 25.4026 26.4142 25.436 26.4063 25.4679C26.3916 25.5268 26.3759 25.5837 26.3572 25.6412C26.3469 25.6706 26.3366 25.7001 26.3253 25.7285C26.314 25.757 26.3013 25.7865 26.289 25.8159C26.2513 25.9023 26.2072 25.9856 26.157 26.0653C26.0923 26.1699 26.0184 26.2685 25.936 26.3599C25.559 26.7766 24.2792 27.5199 23.8075 27.8223L22.7604 28.4604C21.9931 28.9332 21.2675 29.268 20.3549 29.2906C20.3117 29.2906 20.2695 29.2906 20.2273 29.2906C20.1684 29.2906 20.11 29.2906 20.0521 29.2871C19.3131 29.2587 18.5922 29.0509 17.9514 28.6817C17.3107 28.3125 16.7694 27.793 16.3742 27.1679C16.0097 26.594 15.7801 25.945 15.7026 25.2696C15.7589 25.5837 15.8889 25.88 16.0818 26.1342C16.2748 26.3883 16.5252 26.5932 16.8126 26.7319C17.1001 26.8705 17.4163 26.9391 17.7353 26.932C18.0543 26.9248 18.3672 26.8421 18.6481 26.6907L18.6549 26.6873L18.7575 26.6259L19.1743 26.3805L19.705 26.0663V26.0516L19.7732 26.0108L24.5208 23.1984L24.886 22.9819L24.9223 22.9942H24.9267C25.0313 23.0204 25.1335 23.0556 25.2321 23.0993C25.4572 23.197 25.6628 23.3348 25.8388 23.5057C25.9096 23.5732 25.9753 23.6459 26.0352 23.7232C26.0865 23.7882 26.1332 23.8566 26.1751 23.9279C26.3657 24.2477 26.4654 24.6135 26.4633 24.9858Z" fill="url(#paint3_linear_507_24165)"/>
</g>
</g>
<g opacity="0.098">
<g opacity="0.098">
<path opacity="0.098" d="M19.7027 15.5998V26.0703L19.1701 26.3825L18.7528 26.628L18.6502 26.6903C18.6478 26.6906 18.6456 26.6916 18.6438 26.6933C18.363 26.8447 18.0502 26.9274 17.7312 26.9345C17.4122 26.9417 17.096 26.8732 16.8086 26.7346C16.5212 26.5959 16.2707 26.3912 16.0777 26.137C15.8848 25.8829 15.7548 25.5867 15.6984 25.2726C15.6906 25.2289 15.6847 25.1837 15.6798 25.14C15.6734 25.0576 15.669 24.9766 15.6675 24.8946V13.1129C15.6676 12.9903 15.701 12.8701 15.7642 12.7651C15.8274 12.66 15.9179 12.5742 16.0261 12.5166C16.1343 12.4591 16.2561 12.4321 16.3785 12.4384C16.5009 12.4448 16.6193 12.4843 16.721 12.5527L18.7862 13.9017C18.7975 13.911 18.8094 13.9194 18.822 13.9268C19.0942 14.1126 19.3167 14.3622 19.4702 14.6539C19.6238 14.9455 19.7036 15.2702 19.7027 15.5998Z" fill="url(#paint4_linear_507_24165)"/>
</g>
</g>
</g>
</g>
<defs>
<filter id="filter0_d_507_24165" x="0.803279" y="0.803279" width="42.4918" height="42.4918" filterUnits="userSpaceOnUse" color-interpolation-filters="sRGB">
<feFlood flood-opacity="0" result="BackgroundImageFix"/>
<feColorMatrix in="SourceAlpha" type="matrix" values="0 0 0 0 0 0 0 0 0 0 0 0 0 0 0 0 0 0 127 0" result="hardAlpha"/>
<feOffset dx="1.04918" dy="1.04918"/>
<feGaussianBlur stdDeviation="2.62295"/>
<feComposite in2="hardAlpha" operator="out"/>
<feColorMatrix type="matrix" values="0 0 0 0 0 0 0 0 0 0 0 0 0 0 0 0 0 0 0.14 0"/>
<feBlend mode="normal" in2="BackgroundImageFix" result="effect1_dropShadow_507_24165"/>
<feBlend mode="normal" in="SourceGraphic" in2="effect1_dropShadow_507_24165" result="shape"/>
</filter>
<linearGradient id="paint0_linear_507_24165" x1="20.0365" y1="19.8819" x2="27.4302" y2="24.1549" gradientUnits="userSpaceOnUse">
<stop offset="0" stop-color="#37BDFF"/>
<stop offset="0.18" stop-color="#33BFFD"/>
<stop offset="0.36" stop-color="#28C5F5"/>
<stop offset="0.53" stop-color="#15D0E9"/>
<stop offset="0.55" stop-color="#12D1E7"/>
<stop offset="0.59" stop-color="#1CD2E5"/>
<stop offset="0.77" stop-color="#42D8DC"/>
<stop offset="0.91" stop-color="#59DBD6"/>
<stop offset="1" stop-color="#62DCD4"/>
</linearGradient>
<linearGradient id="paint1_linear_507_24165" x1="15.7038" y1="26.2913" x2="26.4701" y2="26.2913" gradientUnits="userSpaceOnUse">
<stop offset="0" stop-color="#39D2FF"/>
<stop offset="0.15" stop-color="#38CEFE"/>
<stop offset="0.29" stop-color="#35C3FA"/>
<stop offset="0.43" stop-color="#2FB0F3"/>
<stop offset="0.55" stop-color="#299AEB"/>
<stop offset="0.58" stop-color="#2692EC"/>
<stop offset="0.76" stop-color="#1A6CF1"/>
<stop offset="0.91" stop-color="#1355F4"/>
<stop offset="1" stop-color="#104CF5"/>
</linearGradient>
<linearGradient id="paint2_linear_507_24165" x1="17.6964" y1="27.2276" x2="17.6964" y2="12.8365" gradientUnits="userSpaceOnUse">
<stop offset="0" stop-color="#1B48EF"/>
<stop offset="0.12" stop-color="#1C51F0"/>
<stop offset="0.32" stop-color="#1E69F5"/>
<stop offset="0.57" stop-color="#2190FB"/>
<stop offset="1" stop-color="#26B8F4"/>
</linearGradient>
<linearGradient id="paint3_linear_507_24165" x1="17.8412" y1="28.9434" x2="24.4907" y2="22.306" gradientUnits="userSpaceOnUse">
<stop offset="0" stop-color="white"/>
<stop offset="0.37" stop-color="#FDFDFD"/>
<stop offset="0.51" stop-color="#F6F6F6"/>
<stop offset="0.6" stop-color="#EBEBEB"/>
<stop offset="0.68" stop-color="#DADADA"/>
<stop offset="0.75" stop-color="#C4C4C4"/>
<stop offset="0.81" stop-color="#A8A8A8"/>
<stop offset="0.86" stop-color="#888888"/>
<stop offset="0.91" stop-color="#626262"/>
<stop offset="0.95" stop-color="#373737"/>
<stop offset="0.99" stop-color="#090909"/>
<stop offset="1"/>
</linearGradient>
<linearGradient id="paint4_linear_507_24165" x1="-110.232" y1="9698.25" x2="-110.232" y2="9523.12" gradientUnits="userSpaceOnUse">
<stop offset="0" stop-color="white"/>
<stop offset="0.37" stop-color="#FDFDFD"/>
<stop offset="0.51" stop-color="#F6F6F6"/>
<stop offset="0.6" stop-color="#EBEBEB"/>
<stop offset="0.68" stop-color="#DADADA"/>
<stop offset="0.75" stop-color="#C4C4C4"/>
<stop offset="0.81" stop-color="#A8A8A8"/>
<stop offset="0.86" stop-color="#888888"/>
<stop offset="0.91" stop-color="#626262"/>
<stop offset="0.95" stop-color="#373737"/>
<stop offset="0.99" stop-color="#090909"/>
<stop offset="1"/>
</linearGradient>
<clipPath id="clip0_507_24165">
<rect width="11.4872" height="16.8582" fill="white" transform="translate(15.6665 12.438)"/>
</clipPath>
</defs>
</svg>
