<svg width="100%" height="100%" viewBox="0 0 81 81" fill="none" xmlns="http://www.w3.org/2000/svg">
<mask id="mask0_860_4596" style="mask-type:alpha" maskUnits="userSpaceOnUse" x="0" y="0" width="81" height="81">
<rect width="81" height="81" rx="11" fill="#C4C4C4"/>
</mask>
<g mask="url(#mask0_860_4596)">
<rect width="81" height="81" rx="11" fill="#273B7D"/>
</g>
<g clip-path="url(#clip0_860_4596)">
<path d="M33.2822 37.2149C33.2822 36.6663 33.7251 36.2225 34.2702 36.2225C34.8171 36.2225 35.2616 36.6663 35.2616 37.2149C35.2616 37.7628 34.8171 38.207 34.2702 38.207C33.7251 38.207 33.2822 37.7628 33.2822 37.2149Z" fill="white"/>
<path d="M48.8984 43.8155C48.8984 43.2666 49.341 42.8224 49.8861 42.8224C50.4329 42.8224 50.8773 43.2666 50.8773 43.8155C50.8773 44.3629 50.4329 44.8076 49.8861 44.8076C49.341 44.8076 48.8984 44.3629 48.8984 43.8155Z" fill="#499FDD"/>
<path d="M17.0371 43.3867C16.1847 43.3867 15.5923 42.7097 15.5923 41.7422C15.5923 40.775 16.1847 40.0985 17.0371 40.0985C17.8945 40.0985 18.4934 40.775 18.4934 41.7422C18.4934 42.725 17.907 43.3867 17.0371 43.3867ZM17.0371 38.6532C15.2336 38.6532 13.9248 39.9527 13.9248 41.7422C13.9248 43.5318 15.2336 44.8311 17.0371 44.8311C18.8474 44.8311 20.1617 43.5318 20.1617 41.7422C20.1617 39.9527 18.8474 38.6532 17.0371 38.6532" fill="white"/>
<path d="M31.3646 41.8969C31.2945 41.765 31.2141 41.6533 31.1285 41.5647L31.0739 41.5068L31.1313 41.4518C31.2141 41.3645 31.2987 41.2611 31.3803 41.1411L32.9719 38.7752H31.0398L29.844 40.6259C29.7763 40.7251 29.6397 40.7752 29.4351 40.7752H29.1625V37.2763C29.1625 36.5765 28.7266 36.4812 28.2556 36.4812H27.4492L27.4506 44.7402H29.1625V42.2628H29.3229C29.5181 42.2628 29.651 42.2854 29.7119 42.3915L30.6563 44.174C30.9201 44.6577 31.183 44.7402 31.6776 44.7402H32.9895L32.0124 43.124L31.3646 41.8969" fill="white"/>
<path d="M39.6754 38.6404C38.8046 38.6404 38.249 39.0272 37.9376 39.3543L37.8337 39.4594L37.797 39.3165C37.7055 38.9661 37.3972 38.7732 36.9333 38.7732H36.166L36.1708 44.7383H37.8711V41.989C37.8711 41.7203 37.9061 41.487 37.9772 41.2742C38.1664 40.6301 38.6944 40.2296 39.3542 40.2296C39.885 40.2296 40.0924 40.5097 40.0924 41.2335V43.8315C40.0924 44.4493 40.3781 44.7383 40.9963 44.7383H41.8055L41.8028 40.9445C41.8028 39.4371 41.0676 38.6404 39.6759 38.6404" fill="white"/>
<path d="M34.2923 38.7752H33.4863L33.4918 43.3874H33.4913V44.7391H34.3515C34.3624 44.7391 34.371 44.7402 34.3819 44.7402L34.7826 44.7391H35.1814V44.7367H35.1842L35.1876 39.6808C35.1876 39.0708 34.896 38.7752 34.2928 38.7752" fill="white"/>
<path d="M23.7159 43.3867C22.8636 43.3867 22.27 42.7097 22.27 41.7422C22.27 40.775 22.8636 40.0985 23.7159 40.0985C24.5715 40.0985 25.1721 40.775 25.1721 41.7422C25.1721 42.725 24.5858 43.3867 23.7159 43.3867ZM23.7159 38.6532C21.9107 38.6532 20.6016 39.9527 20.6016 41.7422C20.6016 43.5318 21.9107 44.8311 23.7159 44.8311C25.5243 44.8311 26.8408 43.5318 26.8408 41.7422C26.8408 39.9527 25.5243 38.6532 23.7159 38.6532" fill="white"/>
<path d="M60.1628 43.3867C59.3108 43.3867 58.7168 42.7097 58.7168 41.7422C58.7168 40.775 59.3108 40.0985 60.1628 40.0985C61.0185 40.0985 61.6194 40.775 61.6194 41.7422C61.6194 42.725 61.0329 43.3867 60.1628 43.3867ZM60.1628 38.6532C58.358 38.6532 57.0488 39.9527 57.0488 41.7422C57.0488 43.5318 58.358 44.8311 60.1628 44.8311C61.9714 44.8311 63.2876 43.5318 63.2876 41.7422C63.2876 39.9527 61.9714 38.6532 60.1628 38.6532" fill="#499FDD"/>
<path d="M45.3888 43.1246C44.4592 43.1246 44.1283 42.3135 44.1283 41.5535C44.1283 41.2186 44.213 40.1273 45.2994 40.1273C45.8394 40.1273 46.5589 40.282 46.5589 41.6097C46.5589 42.8619 45.9221 43.1246 45.3888 43.1246V43.1246ZM47.4417 38.7598C47.1191 38.7598 46.8707 38.8884 46.7463 39.1234L46.6993 39.2146L46.6205 39.1462C46.3461 38.9087 45.854 38.6269 45.0549 38.6269C43.4649 38.6269 42.3945 39.8211 42.3945 41.5982C42.3945 43.3732 43.5021 44.6136 45.0869 44.6136C45.6282 44.6136 46.056 44.4873 46.395 44.2305L46.5262 44.132V44.2978C46.5262 45.0945 46.011 45.534 45.077 45.534C44.6231 45.534 44.2099 45.4235 43.9337 45.3233C43.5729 45.2144 43.3615 45.3045 43.2152 45.6664L43.0803 46.0003L42.8893 46.4881L43.0076 46.5511C43.6054 46.8683 44.3835 47.0576 45.0869 47.0576C46.5349 47.0576 48.2257 46.3164 48.2257 44.2305L48.2319 38.7598H47.442" fill="white"/>
<path d="M10.7047 43.3178L9.32062 43.3164V41.6616C9.32062 41.308 9.45773 41.1241 9.76082 41.0817H10.7047C11.3785 41.0817 11.8138 41.5067 11.8142 42.194C11.8138 42.8995 11.3893 43.3174 10.7047 43.3179V43.3178ZM9.32062 38.8538V38.4183C9.32062 38.0371 9.48192 37.8558 9.83587 37.8325H10.5441C11.1515 37.8325 11.5153 38.1961 11.5153 38.8042C11.5153 39.2679 11.2663 39.809 10.5664 39.809H9.32062V38.8538V38.8538ZM12.4725 40.5053L12.2222 40.3647L12.4406 40.178C12.6947 39.9595 13.1205 39.4685 13.1205 38.6201C13.1205 37.322 12.1136 36.4841 10.5552 36.4841H8.77668V36.4836H8.57419C8.11215 36.5006 7.74247 36.8764 7.7373 37.3413V44.7095H8.55349C8.55556 44.71 8.55625 44.7095 8.55694 44.71L10.5903 44.7095C12.3227 44.7095 13.4409 43.7665 13.4409 42.3059C13.4409 41.5196 13.0795 40.8472 12.4721 40.5053" fill="white"/>
<path d="M70.8826 38.6587C70.1771 38.6587 69.4951 38.989 69.0572 39.5431L68.934 39.6992L68.8374 39.5245C68.5225 38.9502 67.9804 38.6587 67.2267 38.6587C66.4364 38.6587 65.9063 39.0996 65.6601 39.3618L65.499 39.5363L65.437 39.3067C65.3471 38.9764 65.0529 38.7943 64.6073 38.7943H63.8926L63.8857 44.7363H65.5095V42.1134C65.5095 41.8836 65.538 41.6562 65.5956 41.4185C65.7508 40.7847 66.1767 40.103 66.8928 40.1712C67.3344 40.2135 67.55 40.5547 67.55 41.2139V44.7363H69.1853V42.1134C69.1853 41.8262 69.2121 41.6113 69.2768 41.3957C69.4085 40.7906 69.8531 40.1703 70.544 40.1703C71.044 40.1703 71.2289 40.4534 71.2289 41.2139V43.8677C71.2289 44.468 71.4966 44.7363 72.0965 44.7363H72.8609L72.8622 40.943C72.8622 39.4276 72.195 38.6587 70.8822 38.6587" fill="#499FDD"/>
<path d="M56.1083 42.6735C56.1035 42.6794 55.4047 43.4161 54.4847 43.4161C53.6466 43.4161 52.7998 42.9018 52.7998 41.7538C52.7998 40.7626 53.4564 40.0698 54.3961 40.0698C54.7013 40.0698 55.0484 40.1792 55.1027 40.3631L55.1107 40.3941C55.2358 40.8111 55.6147 40.8334 55.6892 40.8334L56.5788 40.8344V40.0567C56.5788 39.0309 55.2741 38.6589 54.3961 38.6589C52.5186 38.6589 51.1562 39.9662 51.1562 41.7663C51.1562 43.5657 52.5038 44.8711 54.3618 44.8711C55.9738 44.8711 56.8504 43.8115 56.8586 43.8009L56.9055 43.7435L56.2009 42.5748L56.1083 42.6735" fill="#499FDD"/>
</g>
<defs>
<clipPath id="clip0_860_4596">
<rect width="65.4005" height="11.0965" fill="white" transform="translate(7.59961 36.084)"/>
</clipPath>
</defs>
</svg>
