<svg width="100%" height="100%" viewBox="0 0 81 81" fill="none" xmlns="http://www.w3.org/2000/svg">
<mask id="mask0_860_4623" style="mask-type:alpha" maskUnits="userSpaceOnUse" x="0" y="0" width="81" height="81">
<rect width="81" height="81" rx="11" fill="#C4C4C4"/>
</mask>
<g mask="url(#mask0_860_4623)">
<rect width="81" height="81" rx="11" fill="#0E2D45"/>
</g>
<path d="M3.50293 38.178H10.2514H14.3496V34.1167L3.50293 38.178Z" fill="#FF9D28"/>
<path d="M14.3496 34.1167V48.4726L19.4784 32.2026L14.3496 34.1167Z" fill="#68C5ED"/>
<path d="M14.3501 38.1777H10.252L14.3501 48.4599V38.1777V38.1777Z" fill="#044D80"/>
<path d="M3.50293 38.1782L11.3066 40.8163L10.2514 38.1782H3.50293Z" fill="#E54747"/>
<path d="M28.3617 44.6809C28.3003 44.7423 28.2022 44.8159 28.0672 44.9018C27.9322 44.9877 27.7482 45.0858 27.5273 45.1717C27.3064 45.2576 27.0365 45.3435 26.7052 45.4048C26.3862 45.4662 26.0181 45.503 25.6009 45.503C24.8034 45.503 24.104 45.368 23.515 45.1226C22.9261 44.865 22.4476 44.5091 22.0672 44.0429C21.6868 43.5766 21.4046 43.0367 21.2328 42.411C21.0488 41.7852 20.9629 41.0858 20.9629 40.3373C20.9629 39.5889 21.0611 38.8895 21.2574 38.2515C21.4537 37.6134 21.7359 37.0613 22.1285 36.595C22.5089 36.1288 22.9997 35.7607 23.5764 35.503C24.1531 35.2453 24.8402 35.1104 25.6255 35.1104C26.0058 35.1104 26.3617 35.1472 26.6684 35.2085C26.9752 35.2821 27.2574 35.3557 27.4905 35.4539C27.7236 35.5521 27.9199 35.6502 28.0672 35.7484C28.2267 35.8465 28.3371 35.9447 28.4107 36.0061C28.4966 36.0797 28.5825 36.1778 28.6439 36.2883C28.7052 36.3987 28.742 36.5214 28.742 36.6441C28.742 36.8404 28.6684 37.0367 28.5212 37.233C28.3739 37.4294 28.2144 37.6134 28.0304 37.7852C27.9077 37.6625 27.7727 37.5398 27.6255 37.4171C27.4782 37.2944 27.3064 37.184 27.1224 37.0858C26.9384 36.9877 26.7298 36.914 26.4966 36.8527C26.2635 36.7913 26.0058 36.7545 25.7114 36.7545C25.2083 36.7545 24.7788 36.8527 24.4353 37.0613C24.0917 37.2699 23.8218 37.5275 23.6132 37.8588C23.4046 38.1901 23.2574 38.5582 23.1715 38.9754C23.0856 39.3926 23.0365 39.822 23.0365 40.2637C23.0365 40.73 23.0856 41.1717 23.1715 41.6011C23.2574 42.0306 23.4169 42.3987 23.6377 42.73C23.8586 43.0613 24.1408 43.3189 24.4966 43.5153C24.8525 43.7116 25.2819 43.8097 25.8095 43.8097C26.0917 43.8097 26.3371 43.7729 26.5703 43.7116C26.8034 43.638 27.012 43.5521 27.1837 43.4539C27.3678 43.3558 27.515 43.2453 27.65 43.1472C27.785 43.0367 27.8954 42.9386 27.9813 42.865C28.0426 42.9386 28.104 43.0245 28.1899 43.1226C28.2758 43.2208 28.3494 43.3312 28.4107 43.4294C28.4844 43.5398 28.5334 43.6502 28.5948 43.7607C28.6439 43.8711 28.6684 43.9692 28.6684 44.0551C28.6684 44.1901 28.6439 44.2883 28.5948 44.3864C28.5457 44.4723 28.4598 44.5705 28.3617 44.6809ZM36.0181 43.5398C36.0181 44.3251 36.1285 44.9018 36.3617 45.2576C36.1776 45.3312 36.0181 45.3803 35.8586 45.4048C35.6991 45.4294 35.5396 45.4539 35.3678 45.4539C35.012 45.4539 34.742 45.3803 34.558 45.2453C34.3739 45.1104 34.2512 44.9018 34.2022 44.6441C33.9813 44.8772 33.6991 45.0735 33.331 45.2331C32.9752 45.3926 32.5334 45.4662 32.0181 45.4662C31.7482 45.4662 31.4782 45.4294 31.2083 45.3558C30.9384 45.2821 30.693 45.1594 30.4721 44.9877C30.2512 44.8159 30.0795 44.595 29.9322 44.3128C29.7972 44.0306 29.7236 43.687 29.7236 43.2821C29.7236 42.7791 29.8463 42.3619 30.0917 42.0429C30.3371 41.7238 30.6439 41.4784 31.012 41.2944C31.3801 41.1104 31.785 40.9877 32.2022 40.914C32.6316 40.8404 33.0242 40.8036 33.3801 40.7791C33.5028 40.7668 33.6132 40.7668 33.7359 40.7668H34.0549V40.4969C34.0549 40.1165 33.9568 39.8465 33.7482 39.6748C33.5396 39.5153 33.2083 39.4294 32.7543 39.4294C32.3249 39.4294 31.9445 39.503 31.6132 39.638C31.2819 39.7729 30.9506 39.9324 30.6316 40.1165C30.4966 39.9447 30.3739 39.7607 30.3003 39.5521C30.2144 39.3435 30.1776 39.1962 30.1776 39.0981C30.1776 38.9631 30.2512 38.8281 30.4107 38.6932C30.5703 38.5582 30.7788 38.4478 31.0488 38.3373C31.3187 38.2269 31.6255 38.1533 31.9813 38.0797C32.3249 38.0183 32.693 37.9815 33.0856 37.9815C33.6255 37.9815 34.0795 38.0306 34.4476 38.141C34.8157 38.2515 35.1224 38.4232 35.3555 38.6441C35.5887 38.8772 35.7604 39.1594 35.8586 39.503C35.9568 39.8465 36.0058 40.2515 36.0058 40.7054L36.0181 43.5398ZM34.104 41.8097H33.8954C33.8218 41.8097 33.7604 41.8097 33.6868 41.822C33.4414 41.8465 33.196 41.8711 32.9506 41.9079C32.7052 41.9447 32.4844 42.0183 32.3003 42.1165C32.1163 42.2146 31.9568 42.3496 31.8341 42.5091C31.7114 42.6686 31.65 42.8772 31.65 43.1226C31.65 43.4048 31.7236 43.638 31.8831 43.8343C32.0426 44.0306 32.3126 44.1288 32.693 44.1288C32.877 44.1288 33.0611 44.1042 33.2328 44.0551C33.4046 44.0061 33.5518 43.9447 33.6868 43.8588C33.8218 43.7729 33.9199 43.687 33.9936 43.6012C34.0672 43.503 34.104 43.4171 34.104 43.3435V41.8097ZM39.7359 38.865C39.8954 38.6809 40.1408 38.4846 40.4844 38.2883C40.8279 38.0919 41.2451 37.9938 41.7604 37.9938C42.1285 37.9938 42.4844 38.0551 42.8157 38.1778C43.1469 38.3005 43.4414 38.5091 43.6991 38.7791C43.9568 39.0613 44.1653 39.4294 44.3126 39.8834C44.4721 40.3373 44.5457 40.9018 44.5457 41.5766C44.5457 42.3496 44.4598 42.9999 44.2758 43.503C44.0917 44.0061 43.8709 44.411 43.5887 44.6932C43.3065 44.9877 42.9874 45.1962 42.6439 45.3189C42.3003 45.4416 41.9445 45.503 41.6009 45.503C41.3187 45.503 41.061 45.4662 40.8525 45.4048C40.6439 45.3435 40.4598 45.2699 40.3126 45.184C40.1653 45.1104 40.0549 45.0245 39.969 44.9508C39.8954 44.8772 39.8341 44.8159 39.8218 44.7913V48.4723H37.785V38.2146C37.8341 38.2024 37.8954 38.1901 37.969 38.1901C38.0304 38.1778 38.104 38.1778 38.1776 38.1656C38.2635 38.1656 38.3494 38.1533 38.4598 38.1533C38.7911 38.1533 39.0733 38.2024 39.3065 38.3128C39.5273 38.4232 39.6745 38.6073 39.7359 38.865ZM42.4353 41.6257C42.4353 41.3312 42.4107 41.049 42.3617 40.7913C42.3126 40.5337 42.2267 40.3128 42.1163 40.1165C42.0058 39.9324 41.8463 39.7852 41.65 39.6748C41.4537 39.5643 41.2206 39.5153 40.9384 39.5153C40.5212 39.5153 40.2267 39.6011 40.0672 39.7484C39.9077 39.9079 39.8218 40.0797 39.8218 40.276V43.4539C39.8954 43.5398 40.0426 43.6257 40.2512 43.7361C40.4598 43.8465 40.693 43.8956 40.9629 43.8956C41.466 43.8956 41.8341 43.6993 42.0795 43.2944C42.3126 42.9018 42.4353 42.3496 42.4353 41.6257ZM46.1163 44.2024C46.0426 44.0061 46.0058 43.7975 45.9813 43.5766C45.9568 43.3558 45.9568 43.1349 45.9568 42.914V35.9815C46.0304 35.9692 46.104 35.957 46.1776 35.957C46.2512 35.9447 46.3249 35.9447 46.3985 35.9324C46.4721 35.9324 46.558 35.9202 46.6316 35.9202C46.7911 35.9202 46.9506 35.9324 47.1101 35.9692C47.2696 35.9938 47.4169 36.0551 47.5396 36.1533C47.6745 36.2392 47.7727 36.3619 47.8586 36.5214C47.9322 36.6809 47.9813 36.8772 47.9813 37.1226V38.1901H50.0795V39.6993H47.9936V42.8895C47.9936 43.5889 48.2758 43.9324 48.8402 43.9324C48.9752 43.9324 49.1101 43.9079 49.2328 43.8711C49.3555 43.822 49.466 43.7729 49.5641 43.7239C49.6623 43.6748 49.7482 43.6134 49.8218 43.5521C49.8954 43.4907 49.9445 43.4416 49.9813 43.4171C50.1285 43.638 50.2512 43.822 50.3249 43.9815C50.3985 44.141 50.4476 44.2883 50.4476 44.4355C50.4476 44.5705 50.3985 44.6932 50.288 44.8159C50.1776 44.9386 50.0304 45.0613 49.8463 45.1594C49.6623 45.2699 49.4291 45.3558 49.1592 45.4171C48.8893 45.4784 48.5948 45.5153 48.2758 45.5153C47.6623 45.5153 47.1715 45.3926 46.8279 45.1594C46.5089 44.9018 46.2635 44.595 46.1163 44.2024ZM55.2328 44.0061C55.4782 44.0061 55.6991 43.9815 55.8954 43.9202C56.0795 43.8711 56.2512 43.7975 56.4107 43.7239C56.558 43.6502 56.6929 43.5521 56.8034 43.4662C56.9138 43.368 57.012 43.2821 57.0979 43.2085C57.2206 43.3558 57.3433 43.5521 57.4782 43.7852C57.6132 44.0183 57.6745 44.2146 57.6745 44.3619C57.6745 44.5827 57.5518 44.7791 57.3065 44.9631C57.0979 45.1226 56.8034 45.2576 56.4107 45.3803C56.0304 45.4907 55.5764 45.5521 55.0611 45.5521C54.5948 45.5521 54.1285 45.4907 53.6745 45.368C53.2206 45.2453 52.8157 45.0367 52.4598 44.7423C52.104 44.4478 51.8218 44.0429 51.6009 43.5398C51.3801 43.0367 51.2696 42.3987 51.2696 41.638C51.2696 41.0122 51.3678 40.4723 51.5641 40.0183C51.7604 39.5643 52.0181 39.184 52.3371 38.8895C52.6561 38.595 53.0242 38.3742 53.4414 38.2269C53.8463 38.0919 54.2635 38.0183 54.693 38.0183C55.2451 38.0183 55.7236 38.1042 56.1163 38.276C56.5089 38.4478 56.8157 38.6809 57.0611 38.9754C57.3065 39.2699 57.4782 39.6012 57.5887 39.9815C57.6991 40.3619 57.7482 40.7545 57.7482 41.1717V41.3803C57.7482 41.4662 57.7482 41.5398 57.7359 41.638C57.7359 41.7239 57.7236 41.8097 57.7236 41.8956C57.7236 41.9815 57.7114 42.0429 57.6991 42.0919H53.2942C53.331 42.6441 53.5028 43.0981 53.8095 43.4662C54.104 43.822 54.5825 44.0061 55.2328 44.0061ZM55.9199 40.9754C55.9199 40.4969 55.8218 40.1042 55.6377 39.8097C55.4537 39.5153 55.1224 39.3558 54.6439 39.3558C54.2267 39.3558 53.9077 39.503 53.6623 39.7852C53.4169 40.0674 53.2942 40.46 53.2942 40.9754H55.9199ZM61.2942 38.9018C61.3555 38.8159 61.4291 38.7177 61.5273 38.6073C61.6255 38.4969 61.7482 38.3987 61.8954 38.3128C62.0426 38.2269 62.2022 38.1533 62.3739 38.0919C62.5457 38.0306 62.7298 38.0061 62.9383 38.0061C63.061 38.0061 63.1838 38.0183 63.3187 38.0306C63.4537 38.0551 63.5764 38.0919 63.6868 38.141C63.7972 38.1901 63.8954 38.2637 63.969 38.3619C64.0426 38.46 64.0795 38.5705 64.0795 38.7054C64.0795 38.9263 64.0304 39.1717 63.9199 39.4539C63.8095 39.7361 63.6991 39.9815 63.5887 40.1778C63.4169 40.0429 63.2451 39.9324 63.0856 39.8588C62.9138 39.7852 62.7175 39.7484 62.4844 39.7484C62.1776 39.7484 61.9199 39.8343 61.7114 40.0183C61.5028 40.2024 61.3923 40.411 61.3923 40.6686V45.503H59.3555V38.2024C59.4046 38.1901 59.466 38.1778 59.5396 38.1778C59.6009 38.1656 59.6745 38.1656 59.7482 38.1533C59.8218 38.1533 59.9199 38.141 60.0304 38.141C60.3494 38.141 60.6316 38.2024 60.8647 38.3251C61.0856 38.46 61.2328 38.6441 61.2942 38.9018ZM67.0733 38.9018C67.1347 38.8159 67.2083 38.7177 67.3065 38.6073C67.4046 38.4969 67.5273 38.3987 67.6745 38.3128C67.8218 38.2269 67.9813 38.1533 68.1531 38.0919C68.3249 38.0306 68.5089 38.0061 68.7175 38.0061C68.8402 38.0061 68.9629 38.0183 69.0979 38.0306C69.2328 38.0551 69.3555 38.0919 69.466 38.141C69.5764 38.1901 69.6745 38.2637 69.7482 38.3619C69.8218 38.46 69.8586 38.5705 69.8586 38.7054C69.8586 38.9263 69.8095 39.1717 69.6991 39.4539C69.5887 39.7361 69.4782 39.9815 69.3678 40.1778C69.196 40.0429 69.0242 39.9324 68.8647 39.8588C68.6929 39.7852 68.4966 39.7484 68.2635 39.7484C67.9568 39.7484 67.6991 39.8343 67.4905 40.0183C67.2819 40.2024 67.1715 40.411 67.1715 40.6686V45.503H65.1347V38.2024C65.1837 38.1901 65.2451 38.1778 65.3187 38.1778C65.3801 38.1656 65.4537 38.1656 65.5273 38.1533C65.6009 38.1533 65.6991 38.141 65.8095 38.141C66.1285 38.141 66.4107 38.2024 66.6439 38.3251C66.8647 38.46 67.012 38.6441 67.0733 38.9018ZM76.7788 43.5398C76.7788 44.3251 76.8893 44.9018 77.1224 45.2576C76.9384 45.3312 76.7788 45.3803 76.6193 45.4048C76.4598 45.4294 76.3003 45.4539 76.1285 45.4539C75.7727 45.4539 75.5028 45.3803 75.3187 45.2453C75.1347 45.1104 75.012 44.9018 74.9629 44.6441C74.742 44.8772 74.4598 45.0735 74.0917 45.2331C73.7359 45.3926 73.2942 45.4662 72.7788 45.4662C72.5089 45.4662 72.239 45.4294 71.969 45.3558C71.6991 45.2821 71.4537 45.1594 71.2328 44.9877C71.012 44.8159 70.8402 44.595 70.693 44.3128C70.558 44.0306 70.4844 43.687 70.4844 43.2821C70.4844 42.7791 70.6071 42.3619 70.8525 42.0429C71.0979 41.7238 71.4046 41.4784 71.7727 41.2944C72.1408 41.1104 72.5457 40.9877 72.9629 40.914C73.3923 40.8404 73.785 40.8036 74.1408 40.7791C74.2635 40.7668 74.3739 40.7668 74.4966 40.7668H74.8156V40.4969C74.8156 40.1165 74.7175 39.8465 74.5089 39.6748C74.3003 39.5153 73.969 39.4294 73.515 39.4294C73.0856 39.4294 72.7052 39.503 72.3739 39.638C72.0426 39.7729 71.7114 39.9324 71.3923 40.1165C71.2574 39.9447 71.1347 39.7607 71.061 39.5521C70.9752 39.3435 70.9383 39.1962 70.9383 39.0981C70.9383 38.9631 71.012 38.8281 71.1715 38.6932C71.331 38.5582 71.5396 38.4478 71.8095 38.3373C72.0795 38.2269 72.3862 38.1533 72.742 38.0797C73.0856 38.0183 73.4537 37.9815 73.8463 37.9815C74.3862 37.9815 74.8402 38.0306 75.2083 38.141C75.5764 38.2515 75.8831 38.4232 76.1163 38.6441C76.3494 38.8772 76.5212 39.1594 76.6193 39.503C76.7175 39.8465 76.7666 40.2515 76.7666 40.7054L76.7788 43.5398ZM74.8647 41.8097H74.6561C74.5825 41.8097 74.5212 41.8097 74.4475 41.822C74.2022 41.8465 73.9568 41.8711 73.7114 41.9079C73.466 41.9447 73.2451 42.0183 73.061 42.1165C72.877 42.2146 72.7175 42.3496 72.5948 42.5091C72.4721 42.6686 72.4107 42.8772 72.4107 43.1226C72.4107 43.4048 72.4844 43.638 72.6439 43.8343C72.8034 44.0306 73.0733 44.1288 73.4537 44.1288C73.6377 44.1288 73.8218 44.1042 73.9936 44.0551C74.1653 44.0061 74.3126 43.9447 74.4475 43.8588C74.5825 43.7729 74.6807 43.687 74.7543 43.6012C74.8279 43.503 74.8647 43.4171 74.8647 43.3435V41.8097Z" fill="white"/>
</svg>
