<svg width="100%" height="100%" viewBox="0 0 81 81" fill="none" xmlns="http://www.w3.org/2000/svg">
<mask id="mask0_860_4633" style="mask-type:alpha" maskUnits="userSpaceOnUse" x="0" y="0" width="81" height="81">
<rect width="81" height="81" rx="11" fill="#C4C4C4"/>
</mask>
<g mask="url(#mask0_860_4633)">
<rect width="81" height="81" rx="11" fill="#561D7B"/>
</g>
<g clip-path="url(#clip0_860_4633)">
<path d="M11.0169 39.0337C11.0169 33.2603 18.7888 28.1974 30.158 25.666C15.0583 27.5757 4 33.5267 4 40.5437C4 49.115 20.432 56.0875 40.7278 56.0875C49.7876 56.0875 58.1369 54.7107 64.532 52.4014C59.3804 53.556 53.5181 54.2222 47.2562 54.2222C27.2713 54.2222 11.0169 47.4273 11.0169 39.0337Z" fill="url(#paint0_radial_860_4633)"/>
<path d="M77.4997 40.5438C77.4997 31.9725 61.0677 25 40.7719 25C37.0858 25 33.5329 25.2221 30.2021 25.6662C18.7885 28.1976 11.0166 33.2604 11.0166 39.0338C11.0166 47.4275 27.2266 54.2224 47.2559 54.2224C53.5178 54.2224 59.38 53.5562 64.5317 52.4015C72.4813 49.5148 77.4997 45.2958 77.4997 40.5438Z" fill="url(#paint1_radial_860_4633)"/>
<path d="M40.7274 53.6448C57.7985 53.6448 71.6373 47.7792 71.6373 40.5436C71.6373 33.308 57.7985 27.4424 40.7274 27.4424C23.6562 27.4424 9.81738 33.308 9.81738 40.5436C9.81738 47.7792 23.6562 53.6448 40.7274 53.6448Z" fill="#490F71"/>
<path d="M40.905 53.0234C57.5591 53.0234 71.06 47.4561 71.06 40.5884C71.06 33.7207 57.5591 28.1533 40.905 28.1533C24.2508 28.1533 10.75 33.7207 10.75 40.5884C10.75 47.4561 24.2508 53.0234 40.905 53.0234Z" fill="url(#paint2_radial_860_4633)"/>
<path d="M47.8341 51.6464C52.7193 51.6464 57.0271 51.0247 60.7132 50.0032C55.4283 51.9129 48.5002 53.0676 40.906 53.0676C24.2519 53.0676 10.751 47.4718 10.751 40.6325C10.751 39.7887 10.973 38.9449 11.3727 38.1455C11.5948 47.605 31.5797 51.6464 47.8341 51.6464Z" fill="url(#paint3_radial_860_4633)"/>
<path d="M40.905 53.0234C57.5591 53.0234 71.06 47.4561 71.06 40.5884C71.06 33.7207 57.5591 28.1533 40.905 28.1533C24.2508 28.1533 10.75 33.7207 10.75 40.5884C10.75 47.4561 24.2508 53.0234 40.905 53.0234Z" fill="url(#paint4_radial_860_4633)"/>
<path d="M33.9329 51.6464C29.0477 51.6464 24.7398 51.0247 21.0537 50.0032C26.3386 51.9129 33.2667 53.0676 40.861 53.0676C57.515 53.0676 71.0159 47.4718 71.0159 40.6325C71.0159 39.7887 70.7939 38.9449 70.3942 38.1455C70.1277 47.605 50.1872 51.6464 33.9329 51.6464Z" fill="url(#paint5_radial_860_4633)"/>
<path d="M40.905 53.0234C57.5591 53.0234 71.06 47.4561 71.06 40.5884C71.06 33.7207 57.5591 28.1533 40.905 28.1533C24.2508 28.1533 10.75 33.7207 10.75 40.5884C10.75 47.4561 24.2508 53.0234 40.905 53.0234Z" fill="url(#paint6_radial_860_4633)"/>
<path d="M47.9229 29.5745C52.8081 29.5745 57.116 30.1962 60.8021 31.2177C55.5172 29.308 48.5891 28.1533 40.9948 28.1533C24.3408 28.1533 10.8398 33.7491 10.8398 40.5884C10.8398 41.4322 11.0619 42.276 11.4616 43.0754C11.6837 33.6159 31.6685 29.5745 47.9229 29.5745Z" fill="url(#paint7_radial_860_4633)"/>
<path opacity="0.4" d="M17.723 37.3462C18.6556 37.3462 19.4994 37.6126 20.3432 38.1456L19.6327 39.922C19.0553 39.4779 18.5224 39.2558 17.9894 39.2558C16.7459 39.2558 15.9465 40.0996 15.9465 41.0323C15.9465 42.0093 16.6127 42.6311 17.5009 42.6311C18.1227 42.6311 18.6556 42.4534 19.2774 42.0537L19.6327 43.919C18.7444 44.3187 17.9894 44.5851 17.1901 44.5851C15.1027 44.5851 13.726 43.2084 13.726 41.2987C13.6372 39.0782 15.3248 37.3462 17.723 37.3462ZM46.5456 39.2114C47.0786 39.2114 47.6559 39.4335 48.1888 39.8776L48.8994 38.1012C48.0556 37.5682 47.2118 37.3018 46.2792 37.3018C43.9254 37.3018 42.2378 39.0338 42.2378 41.2099C42.2378 43.164 43.6589 44.4963 45.7018 44.4963C46.5012 44.4963 47.3006 44.2743 48.1444 43.8302L47.7891 41.9649C47.1674 42.3202 46.6345 42.5422 46.0127 42.5422C45.1245 42.5422 44.4583 41.8761 44.4583 40.9435C44.5027 40.0552 45.3021 39.2114 46.5456 39.2114ZM27.8931 37.657L26.7384 44.2299H24.429L24.5623 43.5637C23.8961 44.1854 23.2743 44.4963 22.5638 44.4963C21.2314 44.4963 20.2988 43.386 20.2988 41.6096C20.2988 39.167 21.72 37.435 23.5408 37.435C24.2958 37.435 24.8731 37.7015 25.4949 38.3676L25.5837 37.7015C25.6281 37.657 27.8931 37.657 27.8931 37.657ZM25.2728 39.6999C25.0508 39.2114 24.6955 38.9894 24.2514 38.9894C23.3632 38.9894 22.5638 40.0108 22.5638 41.5208C22.5638 42.2758 22.9635 42.7643 23.5852 42.7643C24.2958 42.7643 24.8287 42.187 25.0508 41.0323L25.2728 39.6999ZM32.6894 37.435C31.9345 37.435 31.3571 37.9235 30.8242 38.9005L31.0462 37.6126H28.9589L27.8043 44.1854H30.1136L30.5577 41.654C30.7798 40.3661 31.2239 39.7444 32.2009 39.7444C32.423 39.7444 32.645 39.7888 32.9559 39.8332L33.3556 37.5238C33.0891 37.4794 32.8671 37.435 32.6894 37.435ZM36.642 38.8117C37.1305 38.8117 37.7523 39.0338 38.5073 39.4779L39.129 38.1456C38.2408 37.6126 37.397 37.3018 36.4644 37.3018C34.8212 37.3018 33.7997 38.2344 33.7997 39.4335C33.7997 40.3217 34.2882 40.9879 35.3097 41.4764L35.7538 41.6984C36.2867 41.9649 36.5976 42.0981 36.5976 42.4534C36.5976 42.7643 36.2867 43.0308 35.7982 43.0308C35.2653 43.0308 34.5103 42.8087 33.6221 42.2758L33.0003 43.6969C33.8885 44.2299 34.8212 44.4963 35.7982 44.4963C37.5302 44.4963 38.5961 43.5637 38.5961 42.3202C38.5961 41.4764 38.0632 40.7658 37.1749 40.3661L36.8641 40.1885C36.1979 39.922 35.8426 39.7444 35.8426 39.3447C35.8426 39.0782 36.1535 38.8117 36.642 38.8117ZM40.5502 41.9205C39.884 41.9205 39.3067 42.4534 39.3067 43.164C39.3067 43.8302 39.884 44.4075 40.5502 44.4075C41.2607 44.4075 41.7937 43.8302 41.7937 43.164C41.7937 42.4534 41.2607 41.9205 40.5502 41.9205ZM56.2272 40.5882C56.2272 42.8087 54.5396 44.5407 52.3635 44.5407C50.2762 44.5407 48.8994 43.2084 48.8994 41.2543C48.8994 39.0782 50.587 37.3462 52.852 37.3462C54.8505 37.3462 56.2272 38.6785 56.2272 40.5882ZM53.8734 40.6326C53.8734 39.6555 53.3849 39.0782 52.7188 39.0782C51.9638 39.0782 51.2088 40.0108 51.2088 41.2543C51.2088 42.2314 51.6973 42.8087 52.3635 42.8087C53.2073 42.8087 53.8734 41.8761 53.8734 40.6326ZM65.8644 37.435C64.9762 37.435 64.2212 37.8791 63.555 38.8117C63.333 37.9235 62.6668 37.435 61.7786 37.435C60.9792 37.435 60.2686 37.8347 59.6468 38.6341L59.8245 37.657H57.6928L56.5825 44.2299H58.7586L59.336 40.9879C59.5136 39.7888 60.2242 39.2558 60.8459 39.2558C61.2012 39.2558 61.4233 39.5223 61.4233 39.922C61.4233 40.0552 61.3789 40.2773 61.3345 40.4993L60.7127 44.2299H62.8888L63.4662 40.9879C63.6438 39.7888 64.3544 39.2558 64.9762 39.2558C65.3314 39.2558 65.5535 39.5223 65.5535 39.922C65.5535 40.0552 65.5535 40.2773 65.5091 40.4993L64.8873 44.2299H67.0635L67.8184 39.8332C67.8629 39.6555 67.8629 39.5223 67.8629 39.3891C67.6852 38.19 66.9746 37.435 65.8644 37.435Z" fill="black"/>
<path d="M17.4119 36.9463C18.3445 36.9463 19.1883 37.2127 20.0321 37.7457L19.3216 39.5221C18.7442 39.078 18.2113 38.8559 17.6784 38.8559C16.4349 38.8559 15.6355 39.6997 15.6355 40.6324C15.6355 41.6094 16.3016 42.2312 17.1898 42.2312C17.8116 42.2312 18.3445 42.0535 18.9663 41.6538L19.3216 43.5191C18.4333 43.9188 17.6784 44.1852 16.879 44.1852C14.7917 44.1852 13.4149 42.8085 13.4149 40.8988C13.3705 38.6783 15.0581 36.9463 17.4119 36.9463ZM46.2346 38.8115C46.7675 38.8115 47.3448 39.0336 47.8778 39.4777L48.5883 37.7013C47.7445 37.1683 46.9007 36.9019 45.9681 36.9019C43.6143 36.9019 41.9267 38.6339 41.9267 40.81C41.9267 42.7641 43.3478 44.0964 45.3907 44.0964C46.1901 44.0964 46.9895 43.8744 47.8333 43.4303L47.5225 41.6538C46.9007 42.0091 46.3678 42.2312 45.746 42.2312C44.8578 42.2312 44.1917 41.565 44.1917 40.6324C44.1917 39.6997 44.991 38.8115 46.2346 38.8115ZM27.6264 37.2571L26.4717 43.83H24.1624L24.2956 43.1638C23.6294 43.7855 23.0077 44.0964 22.2971 44.0964C20.9648 44.0964 20.0321 42.9861 20.0321 41.2097C20.0321 38.7671 21.4533 37.0351 23.2741 37.0351C24.0291 37.0351 24.6065 37.3016 25.2282 37.9677L25.317 37.3016L27.6264 37.2571ZM24.9617 39.3C24.7397 38.8115 24.3844 38.5895 23.9403 38.5895C23.0521 38.5895 22.2527 39.6109 22.2527 41.1209C22.2527 41.8759 22.6524 42.3644 23.2741 42.3644C23.9847 42.3644 24.5176 41.7871 24.7397 40.6324L24.9617 39.3ZM32.3784 37.0795C31.6234 37.0795 31.046 37.568 30.5131 38.5451L30.7352 37.2571H28.6478L27.4932 43.83H29.8025L30.2466 41.2985C30.4687 40.0106 30.9128 39.3889 31.8898 39.3889C32.1119 39.3889 32.334 39.4333 32.6448 39.4777L33.0445 37.1683C32.7781 37.0795 32.556 37.0795 32.3784 37.0795ZM36.3309 38.4118C36.8195 38.4118 37.4412 38.6339 38.1962 39.078L38.8179 37.7457C37.9297 37.2127 37.0859 36.9019 36.1533 36.9019C34.5101 36.9019 33.4886 37.8345 33.4886 39.0336C33.4886 39.9218 33.9772 40.588 34.9986 41.0765L35.4427 41.2985C35.9756 41.565 36.2865 41.6982 36.2865 42.0535C36.2865 42.3644 35.9756 42.6309 35.4871 42.6309C34.9542 42.6309 34.1992 42.4088 33.311 41.8759L32.6892 43.297C33.5775 43.83 34.5101 44.0964 35.4871 44.0964C37.2191 44.0964 38.285 43.1638 38.285 41.9203C38.285 41.0765 37.7521 40.3659 36.8639 39.9662L36.4642 39.7886C35.798 39.5221 35.4427 39.3445 35.4427 38.9448C35.5315 38.6783 35.8424 38.4118 36.3309 38.4118ZM40.2391 41.5206C39.5729 41.5206 38.9956 42.0535 38.9956 42.7641C38.9956 43.4303 39.5729 44.0076 40.2391 44.0076C40.9497 44.0076 41.4826 43.4303 41.4826 42.7641C41.4826 42.0979 40.9497 41.5206 40.2391 41.5206ZM55.9605 40.1883C55.9605 42.4088 54.2729 44.1408 52.0968 44.1408C50.0095 44.1408 48.6327 42.8085 48.6327 40.8544C48.6327 38.6783 50.3204 36.9463 52.5853 36.9463C54.5394 36.9463 55.9605 38.2786 55.9605 40.1883ZM53.6068 40.2327C53.6068 39.2556 53.1182 38.6783 52.4521 38.6783C51.6971 38.6783 50.9421 39.6109 50.9421 40.8544C50.9421 41.8315 51.4306 42.4088 52.0968 42.4088C52.8962 42.4088 53.6068 41.5206 53.6068 40.2327ZM65.5533 37.0795C64.6651 37.0795 63.9101 37.5236 63.2439 38.4562C63.0219 37.568 62.3557 37.0795 61.4675 37.0795C60.6681 37.0795 59.9575 37.4792 59.3358 38.2786L59.5134 37.3016H57.2929L56.1826 43.8744H58.3587L58.9361 40.6324C59.1137 39.4333 59.8243 38.9003 60.446 38.9003C60.8013 38.9003 61.0234 39.1668 61.0234 39.5665C61.0234 39.6997 60.979 39.9218 60.9346 40.1438L60.3128 43.8744H62.4889L63.0663 40.6324C63.2439 39.4333 63.9545 38.9003 64.5762 38.9003C64.9315 38.9003 65.1536 39.1668 65.1536 39.5665C65.1536 39.6997 65.1536 39.9218 65.1092 40.1438L64.4874 43.8744H66.6636L67.4185 39.4777C67.463 39.3 67.463 39.1668 67.463 39.0336C67.3741 37.8345 66.6636 37.0795 65.5533 37.0795Z" fill="url(#paint8_linear_860_4633)"/>
<path d="M71.5485 40.5436C71.5485 47.7382 57.7368 53.556 40.7274 53.556C23.718 53.556 9.90625 47.7382 9.90625 40.5436C9.90625 33.3491 23.6736 27.5312 40.7274 27.5312C57.7368 27.5312 71.5485 33.3491 71.5485 40.5436ZM40.905 28.153C24.251 28.153 10.7501 33.7488 10.7501 40.588C10.7501 47.4717 24.251 53.0231 40.905 53.0231C57.5591 53.0231 71.06 47.4273 71.06 40.588C71.06 33.7488 57.5591 28.153 40.905 28.153Z" fill="url(#paint9_linear_860_4633)"/>
<path d="M71.5496 51.3798H71.1055V51.2021H72.2157V51.3798H71.7716V52.6233H71.5496V51.3798Z" fill="white"/>
<path d="M72.3936 51.2021H72.7488L73.193 52.4012L73.6371 51.2021H73.9923V52.6233H73.7703V51.3798L73.2818 52.6233H73.0597L72.5712 51.3798V52.6233H72.3936V51.2021Z" fill="white"/>
<path d="M40.7284 54.7549C59.2922 54.7549 74.303 48.3598 74.303 40.4991C74.303 32.6383 59.2477 26.2432 40.7284 26.2432C22.1647 26.2876 7.10938 32.6383 7.10938 40.5435C7.10938 48.4042 22.1647 54.7549 40.7284 54.7549ZM72.2601 40.5435C72.2601 47.8269 58.1375 53.7779 40.7284 53.7779C23.3193 53.7779 9.19669 47.8713 9.19669 40.5435C9.19669 33.2157 23.3193 27.309 40.7284 27.309C58.1375 27.309 72.2601 33.2157 72.2601 40.5435Z" fill="url(#paint10_radial_860_4633)"/>
<path d="M77.5 40.5438C77.5 49.1151 61.068 56.0876 40.7722 56.0876C20.4764 56.0876 4 49.1151 4 40.5438C4 31.9725 20.432 25 40.7278 25C61.0236 25 77.5 31.9725 77.5 40.5438ZM6.57583 40.455C6.57583 48.5378 21.8976 55.1106 40.8166 55.1106C59.7356 55.1106 75.0574 48.5378 75.0574 40.455C75.0574 32.3722 59.7356 25.7994 40.8166 25.7994C21.8976 25.7994 6.57583 32.3722 6.57583 40.455Z" fill="url(#paint11_radial_860_4633)"/>
<path d="M77.5 40.5438C77.5 49.1151 61.068 56.0876 40.7722 56.0876C20.4764 56.0876 4 49.1151 4 40.5438C4 31.9725 20.432 25 40.7278 25C61.0236 25 77.5 31.9725 77.5 40.5438ZM6.57583 40.455C6.57583 48.5378 21.8976 55.1106 40.8166 55.1106C59.7356 55.1106 75.0574 48.5378 75.0574 40.455C75.0574 32.3722 59.7356 25.7994 40.8166 25.7994C21.8976 25.7994 6.57583 32.3722 6.57583 40.455Z" fill="url(#paint12_radial_860_4633)"/>
<path d="M72.3485 40.544C72.3485 47.8718 58.1814 53.8672 40.728 53.8672C23.2745 53.8672 9.10742 47.8718 9.10742 40.544C9.10742 33.2162 23.2301 27.2207 40.728 27.2207C58.1814 27.2207 72.3485 33.1718 72.3485 40.544ZM40.728 27.5316C23.6742 27.5316 9.90682 33.3494 9.90682 40.544C9.90682 47.7385 23.7186 53.5564 40.728 53.5564C57.7373 53.5564 71.5491 47.7385 71.5491 40.544C71.5491 33.3494 57.7373 27.5316 40.728 27.5316Z" fill="#CCCCCC"/>
<path d="M40.817 25.7993C59.736 25.7993 75.0577 32.3721 75.0577 40.4549C75.0577 48.5377 59.736 55.1105 40.817 55.1105C21.8979 55.1105 6.57617 48.5377 6.57617 40.4549C6.57617 32.3721 21.8979 25.7993 40.817 25.7993ZM40.7281 54.6664C59.2475 54.6664 74.2139 48.3156 74.2139 40.4993C74.2139 32.683 59.2031 26.3767 40.7281 26.3767C22.2532 26.3767 7.19792 32.683 7.19792 40.5437C7.19792 48.36 22.2088 54.6664 40.7281 54.6664Z" fill="white"/>
</g>
<defs>
<radialGradient id="paint0_radial_860_4633" cx="0" cy="0" r="1" gradientUnits="userSpaceOnUse" gradientTransform="translate(22.37 23.6523) rotate(146.126) scale(51.9204 37.5497)">
<stop offset="0.3086" stop-color="#DEDEDE"/>
<stop offset="0.392" stop-color="#9E9E9E"/>
<stop offset="0.522" stop-color="#3F3F3F"/>
<stop offset="0.5807" stop-color="#1A1A1A"/>
<stop offset="0.6089" stop-color="#202020"/>
<stop offset="0.8339" stop-color="#4D4D4D"/>
</radialGradient>
<radialGradient id="paint1_radial_860_4633" cx="0" cy="0" r="1" gradientUnits="userSpaceOnUse" gradientTransform="translate(40.4865 -0.574849) scale(58.9873)">
<stop offset="0" stop-color="#DEDEDE"/>
<stop offset="0.6091" stop-color="#DEDEDE"/>
<stop offset="0.6587" stop-color="#BFBFBF"/>
<stop offset="0.7675" stop-color="#717171"/>
<stop offset="0.8957" stop-color="#0D0D0D"/>
<stop offset="0.9081" stop-color="#131313"/>
<stop offset="0.9255" stop-color="#262626"/>
<stop offset="0.9459" stop-color="#444444"/>
<stop offset="0.9509" stop-color="#4D4D4D"/>
</radialGradient>
<radialGradient id="paint2_radial_860_4633" cx="0" cy="0" r="1" gradientUnits="userSpaceOnUse" gradientTransform="translate(59.6398 35.3472) rotate(-90.9683) scale(9.45979 15.5686)">
<stop offset="0" stop-opacity="0.3"/>
<stop offset="1" stop-opacity="0"/>
</radialGradient>
<radialGradient id="paint3_radial_860_4633" cx="0" cy="0" r="1" gradientUnits="userSpaceOnUse" gradientTransform="translate(49.3341 37.3202) rotate(89.8224) scale(16.8804 42.9353)">
<stop offset="0.9571" stop-opacity="0"/>
<stop offset="0.99" stop-opacity="0.33"/>
</radialGradient>
<radialGradient id="paint4_radial_860_4633" cx="0" cy="0" r="1" gradientUnits="userSpaceOnUse" gradientTransform="translate(57.282 54.9035) rotate(-90.0552) scale(16.3844 33.5307)">
<stop offset="0" stop-color="#FFCCFF" stop-opacity="0.2"/>
<stop offset="1" stop-color="#FFCCFF" stop-opacity="0"/>
</radialGradient>
<radialGradient id="paint5_radial_860_4633" cx="0" cy="0" r="1" gradientUnits="userSpaceOnUse" gradientTransform="translate(35.2621 39.561) rotate(90.1776) scale(14.5357 36.9715)">
<stop offset="0.9702" stop-color="#FFF2FF" stop-opacity="0"/>
<stop offset="0.99" stop-color="#FFF2FF" stop-opacity="0.5"/>
</radialGradient>
<radialGradient id="paint6_radial_860_4633" cx="0" cy="0" r="1" gradientUnits="userSpaceOnUse" gradientTransform="translate(26.0643 31.6811) rotate(88.7738) scale(18.1673 34.6174)">
<stop offset="0" stop-color="#9042C1"/>
<stop offset="0.1864" stop-color="#8A3DBD" stop-opacity="0.8605"/>
<stop offset="0.4302" stop-color="#7A2FB1" stop-opacity="0.678"/>
<stop offset="0.6012" stop-color="#6A22A6" stop-opacity="0.55"/>
<stop offset="1" stop-color="#6A22A6" stop-opacity="0"/>
</radialGradient>
<radialGradient id="paint7_radial_860_4633" cx="0" cy="0" r="1" gradientUnits="userSpaceOnUse" gradientTransform="translate(44.7502 42.4991) rotate(-89.8224) scale(14.6839 36.9152)">
<stop offset="0.8847" stop-color="white" stop-opacity="0"/>
<stop offset="1" stop-color="white" stop-opacity="0.7"/>
</radialGradient>
<linearGradient id="paint8_linear_860_4633" x1="40.3723" y1="36.9409" x2="40.3723" y2="44.1693" gradientUnits="userSpaceOnUse">
<stop offset="0.6107" stop-color="white"/>
<stop offset="0.791" stop-color="#E0E0E0"/>
</linearGradient>
<linearGradient id="paint9_linear_860_4633" x1="53.6814" y1="57.2841" x2="33.8547" y2="31.6573" gradientUnits="userSpaceOnUse">
<stop offset="0" stop-color="#231F20" stop-opacity="0"/>
<stop offset="1" stop-color="#231F20" stop-opacity="0.3"/>
</linearGradient>
<radialGradient id="paint10_radial_860_4633" cx="0" cy="0" r="1" gradientUnits="userSpaceOnUse" gradientTransform="translate(40.4894 34.558) rotate(176.418) scale(41.6423 21.0539)">
<stop offset="0.3018" stop-color="#666666"/>
<stop offset="0.4761" stop-color="#626262"/>
<stop offset="0.6463" stop-color="#565656"/>
<stop offset="0.7397" stop-color="#4D4D4D"/>
<stop offset="0.7494" stop-color="#424242"/>
<stop offset="0.7815" stop-color="#252525"/>
<stop offset="0.8092" stop-color="#131313"/>
<stop offset="0.8292" stop-color="#0D0D0D"/>
<stop offset="0.8404" stop-color="#131313"/>
<stop offset="0.8558" stop-color="#252525"/>
<stop offset="0.8736" stop-color="#424242"/>
<stop offset="0.8931" stop-color="#6A6A6A"/>
<stop offset="0.9124" stop-color="#999999"/>
<stop offset="0.9442" stop-color="#B8B8B8"/>
<stop offset="1" stop-color="#F7F7F7"/>
</radialGradient>
<radialGradient id="paint11_radial_860_4633" cx="0" cy="0" r="1" gradientUnits="userSpaceOnUse" gradientTransform="translate(41.3406 40.2591) rotate(-0.956846) scale(40.0786 15.8727)">
<stop offset="0.8978" stop-color="#4D4D4D" stop-opacity="0"/>
<stop offset="1" stop-color="#4D4D4D"/>
</radialGradient>
<radialGradient id="paint12_radial_860_4633" cx="0" cy="0" r="1" gradientUnits="userSpaceOnUse" gradientTransform="translate(40.5153 40.2592) rotate(0.0630253) scale(35.422 15.0614)">
<stop offset="0.9406" stop-color="white" stop-opacity="0.8"/>
<stop offset="1" stop-color="white" stop-opacity="0"/>
</radialGradient>
<clipPath id="clip0_860_4633">
<rect width="73.5" height="31.0876" fill="white" transform="translate(4 25)"/>
</clipPath>
</defs>
</svg>
