<svg width="100%" height="100%" viewBox="0 0 81 81" fill="none" xmlns="http://www.w3.org/2000/svg">
<mask id="mask0_860_5103" style="mask-type:alpha" maskUnits="userSpaceOnUse" x="0" y="0" width="81" height="81">
<rect width="81" height="81" rx="11" fill="#C4C4C4"/>
</mask>
<g mask="url(#mask0_860_5103)">
<rect width="81" height="81" rx="11" fill="#58C2F8"/>
</g>
<path d="M41 69C56.464 69 69 56.464 69 41C69 25.536 56.464 13 41 13C25.536 13 13 25.536 13 41C13 56.464 25.536 69 41 69Z" fill="#58C2F8"/>
<path d="M41.109 63.8098C38.0465 63.8098 35.0715 63.2082 32.2715 62.0269C29.5699 60.884 27.1418 59.2488 25.0582 57.1652C22.9746 55.0816 21.3395 52.6535 20.1965 49.952C19.0098 47.1465 18.4082 44.1715 18.4082 41.109C18.4082 38.0465 19.0098 35.0715 20.191 32.2715C21.334 29.5699 22.9691 27.1418 25.0527 25.0582C27.1363 22.9746 29.5645 21.3395 32.266 20.1965C35.0715 19.0098 38.0465 18.4082 41.109 18.4082C44.1715 18.4082 47.1465 19.0098 49.9465 20.191C52.648 21.334 55.0762 22.9691 57.1598 25.0527C59.2434 27.1363 60.8785 29.5645 62.0215 32.266C63.2082 35.066 63.8043 38.041 63.8043 41.1035C63.8043 44.166 63.2027 47.141 62.0215 49.941C60.8785 52.6426 59.2434 55.0707 57.1598 57.1543C55.0762 59.2379 52.648 60.873 49.9465 62.016C47.1465 63.2082 44.1715 63.8098 41.109 63.8098ZM41.109 23.877C36.5043 23.877 32.1785 25.6707 28.9246 28.9246C25.6707 32.1785 23.877 36.5043 23.877 41.109C23.877 45.7137 25.6707 50.0394 28.9246 53.2934C32.1785 56.5473 36.5043 58.341 41.109 58.341C45.7137 58.341 50.0394 56.5473 53.2934 53.2934C56.5473 50.0394 58.341 45.7137 58.341 41.109C58.341 36.5043 56.5473 32.1785 53.2934 28.9246C50.0394 25.6707 45.7137 23.877 41.109 23.877Z" fill="white"/>
<path d="M40.0258 31.0352C40.3813 30.9969 40.7422 30.9805 41.1086 30.9805C46.7031 30.9805 51.2367 35.5141 51.2367 41.1086C51.2367 46.7031 46.7031 51.2367 41.1086 51.2367C35.5141 51.2367 30.9805 46.7031 30.9805 41.1086C30.9805 38.9047 31.6859 36.8594 32.8836 35.1969L38.757 38.6148C38.757 38.6148 39.9328 38.9703 39.9492 37.8492L40.0258 31.0352Z" fill="white"/>
</svg>
