<svg width="100%" height="100%" viewBox="0 0 81 81" fill="none" xmlns="http://www.w3.org/2000/svg">
<mask id="mask0_1278_5982" style="mask-type:alpha" maskUnits="userSpaceOnUse" x="0" y="0" width="81" height="81">
<rect width="81" height="81" rx="11" fill="#C4C4C4"/>
</mask>
<g mask="url(#mask0_1278_5982)">
<rect width="81" height="81" rx="11" fill="#0055FF"/>
<path d="M43.715 23.54H41.1827C40.7424 23.54 40.302 23.8703 40.2548 24.3107L39.8773 26.1195C39.8301 26.4498 39.547 26.67 39.2167 26.67H36.4171C32.6266 26.7172 29.1191 29.5797 29.1191 33.6376C29.1191 37.2551 32.139 40.5581 36.48 40.5581H39.3425C39.7829 40.5581 40.2233 40.2278 40.2705 39.7874L40.648 37.9786C40.6952 37.6483 40.9783 37.4281 41.3086 37.4281H43.7779C48.0088 37.4281 51.1388 34.1881 51.1388 30.5077C51.0759 26.4498 47.6156 23.54 43.715 23.54ZM43.6521 34.7386H40.6794C40.239 34.7386 39.8616 35.0689 39.7515 35.5093L39.374 37.2708C39.3268 37.6011 39.0437 37.8213 38.7134 37.8213H36.5114C34.2623 37.8213 31.8401 36.2328 31.8401 33.5904C31.8401 31.1683 33.9792 29.3595 36.5114 29.3595H39.9088C40.3491 29.3595 40.7266 29.0292 40.8367 28.5888L41.2142 26.8273C41.2614 26.497 41.5445 26.2768 41.8748 26.2768H43.6364C45.9956 26.2768 48.3077 27.9282 48.3077 30.5077C48.2762 32.8669 46.2473 34.7386 43.6521 34.7386Z" fill="white"/>
<path d="M9.90678 54.273C8.53842 54.273 7.73627 53.2035 7.73627 51.9924C7.73627 50.5926 8.64851 49.6646 9.90678 49.6646C10.5674 49.6646 11.0078 49.932 11.4167 50.1837L12.0773 49.004C11.6054 48.7052 10.819 48.3434 9.98542 48.3434C7.81491 48.3434 6.25781 49.8848 6.25781 51.9924C6.25781 54.0843 7.84637 55.6414 9.98542 55.6414C10.8977 55.6414 11.5582 55.2639 12.0773 54.9493L11.4167 53.7697C11.0078 54.0528 10.3944 54.273 9.90678 54.273ZM14.5466 45.1191H15.9464V55.4526H14.5466V45.1191ZM24.0151 48.5636L23.8578 49.1613C23.4803 48.7524 22.6782 48.3434 21.8288 48.3434C20.0987 48.3434 18.5102 49.7118 18.5102 51.9452C18.5102 54.2573 20.0987 55.6571 21.8288 55.6571C22.6782 55.6571 23.4488 55.2482 23.8578 54.8392L24.0151 55.4684H25.1947V48.6108H24.0151V48.5636ZM23.8892 52.0396C23.8892 53.6124 22.9298 54.3202 22.0176 54.3202C21.0896 54.3202 20.0201 53.6911 20.0201 51.9609C20.0201 50.86 20.602 49.6803 21.9075 49.6803C22.8984 49.6803 23.8892 50.4825 23.8892 51.9609V52.0396ZM30.1963 52.5901C31.1557 52.8417 31.5646 53.0305 31.5646 53.5181C31.5646 53.8955 31.2344 54.2887 30.4637 54.2887C29.7559 54.2887 29.1739 54.0371 28.6235 53.7382L27.9943 54.9179C28.4819 55.2167 29.5672 55.6256 30.4637 55.6256C32.005 55.6256 32.9016 54.5876 32.9016 53.5338C32.9016 51.725 31.1243 51.4419 30.6524 51.2846C29.6615 51.0173 29.4099 50.8128 29.4099 50.4038C29.4099 49.9635 29.7874 49.6646 30.5109 49.6646C31.14 49.6646 31.6118 49.8534 32.0522 50.0736L32.7128 48.8939C32.0837 48.6265 31.3445 48.3434 30.5109 48.3434C29.0009 48.3434 28.0887 49.413 28.0887 50.4038C28.0887 51.9924 29.4256 52.4013 30.1963 52.5901ZM37.6987 52.5901C38.6581 52.8417 39.067 53.0305 39.067 53.5181C39.067 53.8955 38.7368 54.2887 37.9661 54.2887C37.2583 54.2887 36.6763 54.0371 36.1259 53.7382L35.4967 54.9179C35.9843 55.2167 37.0696 55.6256 37.9661 55.6256C39.5074 55.6256 40.404 54.5876 40.404 53.5338C40.404 51.725 38.6267 51.4419 38.1548 51.2846C37.1639 51.0173 36.9123 50.8128 36.9123 50.4038C36.9123 49.9635 37.2897 49.6646 38.0133 49.6646C38.6424 49.6646 39.1142 49.8534 39.5546 50.0736L40.2152 48.8939C39.5861 48.6265 38.8469 48.3434 38.0133 48.3434C36.5033 48.3434 35.5911 49.413 35.5911 50.4038C35.5754 51.9924 36.928 52.4013 37.6987 52.5901ZM46.4751 48.3434C45.6257 48.3434 44.8551 48.7524 44.4461 49.1613L44.2888 48.5322H43.1092V58.2995H44.4304V54.9021L44.4776 54.8707C44.8551 55.2796 45.6257 55.6099 46.365 55.6099C48.1423 55.6099 49.7937 54.4618 49.7937 51.898C49.8252 49.6017 48.2366 48.3434 46.4751 48.3434ZM46.3178 54.3202C45.4056 54.3202 44.4461 53.6124 44.4461 52.0396V51.9609C44.4461 50.451 45.437 49.6803 46.4279 49.6803C47.7491 49.6803 48.3153 50.86 48.3153 51.9609C48.3153 53.6911 47.2458 54.3202 46.3178 54.3202ZM57.6264 48.5636L57.4692 49.1928C57.0917 48.7838 56.2895 48.3749 55.4402 48.3749C53.7101 48.3749 52.1215 49.7433 52.1215 51.9767C52.1215 54.2887 53.7101 55.6886 55.4402 55.6886C56.2895 55.6886 57.0602 55.2796 57.4692 54.8707L57.6264 55.4998H58.8061V48.6423H57.6264V48.5636ZM57.4849 52.0396C57.4849 53.6124 56.5255 54.3202 55.6132 54.3202C54.6852 54.3202 53.6157 53.6911 53.6157 51.9609C53.6157 50.86 54.1977 49.6803 55.5031 49.6803C56.494 49.6803 57.4849 50.4825 57.4849 51.9609V52.0396ZM63.8077 52.5901C64.7671 52.8417 65.176 53.0305 65.176 53.5181C65.176 53.8955 64.8457 54.2887 64.075 54.2887C63.3673 54.2887 62.7853 54.0371 62.2348 53.7382L61.6057 54.9179C62.0933 55.2167 63.1785 55.6256 64.075 55.6256C65.6164 55.6256 66.5129 54.5876 66.5129 53.5338C66.5129 51.725 64.7356 51.4419 64.2638 51.2846C63.2729 51.0173 63.0212 50.8128 63.0212 50.4038C63.0212 49.9635 63.3987 49.6646 64.1222 49.6646C64.7514 49.6646 65.2232 49.8534 65.6636 50.0736L66.3242 48.8939C65.6951 48.6265 64.9558 48.3434 64.1222 48.3434C62.6123 48.3434 61.7001 49.413 61.7001 50.4038C61.6843 51.9924 63.037 52.4013 63.8077 52.5901ZM71.2943 52.5901C72.2538 52.8417 72.6627 53.0305 72.6627 53.5181C72.6627 53.8955 72.3324 54.2887 71.5617 54.2887C70.8539 54.2887 70.272 54.0371 69.7215 53.7382L69.0924 54.9179C69.58 55.2167 70.6652 55.6256 71.5617 55.6256C73.1031 55.6256 73.9996 54.5876 73.9996 53.5338C73.9996 51.725 72.2223 51.4419 71.7505 51.2846C70.7596 51.0173 70.5079 50.8128 70.5079 50.4038C70.5079 49.9635 70.8854 49.6646 71.6089 49.6646C72.238 49.6646 72.7099 49.8534 73.1503 50.0736L73.8109 48.8939C73.1817 48.6265 72.4425 48.3434 71.6089 48.3434C70.099 48.3434 69.1867 49.413 69.1867 50.4038C69.1867 51.9924 70.5394 52.4013 71.2943 52.5901Z" fill="white"/>
</g>
</svg>
