<svg width="100%" height="100%" viewBox="0 0 81 81" fill="none" xmlns="http://www.w3.org/2000/svg">
<mask id="mask0_860_4659" style="mask-type:alpha" maskUnits="userSpaceOnUse" x="0" y="0" width="81" height="81">
<rect width="81" height="81" rx="11" fill="#17313B"/>
</mask>
<g mask="url(#mask0_860_4659)">
<rect width="81" height="81" rx="11" fill="#17313B"/>
<path d="M54.7724 55.4896C51.1862 58.3586 46.1655 60.5103 41.1448 60.5103C29.669 60.5103 21.7793 51.9034 21.7793 40.4276C21.7793 28.9517 29.669 21.0621 41.1448 21.0621C46.1655 21.0621 51.1862 22.4965 54.7724 26.0827L56.9241 28.2345L68.4 17.4758L65.531 15.3241C59.0759 9.58619 50.469 6 41.1448 6C21.0621 6 6 21.0621 6 41.1448C6 61.2276 21.0621 76.2896 41.1448 76.2896C50.469 76.2896 59.0759 72.7034 65.531 66.9655L68.4 64.8138L56.9241 53.3379L54.7724 55.4896Z" fill="#FBFBFB"/>
<path d="M40.428 52.6207C46.766 52.6207 51.9039 47.4828 51.9039 41.1448C51.9039 34.8069 46.766 29.6689 40.428 29.6689C34.0901 29.6689 28.9521 34.8069 28.9521 41.1448C28.9521 47.4828 34.0901 52.6207 40.428 52.6207Z" fill="#EF4335"/>
</g>
</svg>
