<svg width="100%" height="100%" viewBox="0 0 81 81" fill="none" xmlns="http://www.w3.org/2000/svg">
<rect width="81" height="81" rx="11" fill="#2976D1"/>
<g clip-path="url(#clip0_860_4700)">
<path d="M37 12.7004C38.5 11.8004 40.5 11.8004 42 12.7004L62.5 24.6004C64 25.5004 65 27.1004 65 28.9004V52.6004C65 54.4004 64 56.0004 62.5 56.9004L42 68.8004C40.5 69.7004 38.5 69.7004 37 68.8004L16.5 56.9004C15 56.0004 14 54.4004 14 52.6004V28.9004C14 27.1004 15 25.5004 16.5 24.6004L37 12.7004Z" fill="white"/>
<path d="M39.4998 28L42.7998 35.7L51.0998 36.5L44.8998 42L46.6998 50.2L39.4998 46L32.2998 50.3L34.0998 42.1L27.7998 36.5L36.0998 35.7L39.4998 28Z" fill="#2976D1"/>
</g>
<defs>
<clipPath id="clip0_860_4700">
<rect width="51.1" height="57.5" fill="white" transform="translate(14 12)"/>
</clipPath>
</defs>
</svg>
