<svg width="100%" height="100%" viewBox="0 0 81 81" fill="none" xmlns="http://www.w3.org/2000/svg">
<mask id="mask0_860_4838" style="mask-type:alpha" maskUnits="userSpaceOnUse" x="0" y="0" width="81" height="81">
<rect width="81" height="81" rx="11" fill="#C4C4C4"/>
</mask>
<g mask="url(#mask0_860_4838)">
<rect width="81" height="81" rx="11" fill="#384559"/>
</g>
<g clip-path="url(#clip0_860_4838)">
<path d="M3 47.2982C3 45.2894 4.38789 43.6458 6.39668 43.6458C7.38281 43.6093 8.33242 44.0111 8.95332 44.7415L8.22285 45.6546C7.74805 45.1068 7.09063 44.8146 6.39668 44.7781C5.15488 44.7781 4.2418 45.8738 4.2418 47.2617C4.2418 48.6496 5.15488 49.7453 6.39668 49.7453C7.2002 49.7453 7.71152 49.4165 8.2959 48.8322L9.02637 49.6357C8.36895 50.4392 7.38281 50.914 6.36016 50.8775C4.42441 50.8775 3 49.307 3 47.2982Z" fill="white"/>
<path d="M10.0488 48.8322V45.4721H11.1811V48.467C11.1811 49.2705 11.5828 49.7453 12.2402 49.7453C12.8977 49.7453 13.3725 49.2705 13.3725 48.4305V45.4355H14.5047V50.7314H13.3725V49.9279C13.0803 50.5123 12.4594 50.841 11.8385 50.841C10.6697 50.8775 10.0488 50.074 10.0488 48.8322Z" fill="white"/>
<path d="M15.5273 50.0734L16.0387 49.2699C16.477 49.6717 17.0613 49.8908 17.6457 49.9273C18.1205 49.9273 18.4127 49.7082 18.4127 49.343V49.3064C18.4127 48.9047 17.9014 48.7586 17.317 48.576C16.5865 48.3568 15.783 48.0281 15.783 47.042V47.0055C15.783 46.0193 16.55 45.3984 17.5361 45.3984C18.1936 45.3984 18.8145 45.6176 19.3623 45.9828L18.924 46.8594C18.5223 46.5672 18.0109 46.3846 17.5361 46.348C17.0979 46.348 16.8422 46.5672 16.8422 46.8594V46.8959C16.8422 47.2977 17.39 47.4437 17.9744 47.6629C18.7049 47.9186 19.5084 48.2473 19.5084 49.1969V49.2334C19.5084 50.3291 18.7049 50.877 17.6822 50.877C16.8422 50.8404 16.1117 50.5848 15.5273 50.0734Z" fill="white"/>
<path d="M20.7508 49.3066V46.5309H20.1299V45.4717H20.7508V44.0107H21.883V45.4717H23.2344V46.5309H21.883V49.124C21.883 49.5988 22.1021 49.7814 22.5039 49.7814C22.7596 49.7814 22.9787 49.7084 23.1979 49.5988V50.585C22.9057 50.7676 22.5404 50.8771 22.1752 50.8406C21.3717 50.8771 20.7873 50.4754 20.7508 49.3066Z" fill="white"/>
<path d="M29.2602 47.919C29.1871 46.458 27.9453 45.3258 26.4844 45.3989C25.0235 45.4719 23.8912 46.7137 23.9643 48.1746V48.2112C23.9643 48.2477 23.9643 48.2477 23.9643 48.2842C23.9643 49.7451 25.133 50.9504 26.594 50.9504C26.6305 50.9504 26.6305 50.9504 26.667 50.9504C28.128 50.9139 29.2967 49.6721 29.2602 48.2112V48.1746C29.2602 48.0651 29.2602 47.992 29.2602 47.919ZM26.6305 49.8182C26.6305 49.8182 26.594 49.8182 26.6305 49.8182C25.7174 49.7451 25.06 49.0147 25.133 48.1381V48.1016C25.133 47.1885 25.7174 46.4215 26.6305 46.4215C27.5071 46.4215 28.1645 47.1885 28.1645 48.1381V48.1746C28.128 49.0512 27.5436 49.8182 26.6305 49.8182Z" fill="white"/>
<path d="M30.4287 45.4715H31.5609V46.275C31.8531 45.7271 32.4375 45.3619 33.0584 45.3619C33.6793 45.3254 34.3002 45.6906 34.5559 46.275C34.9211 45.6906 35.542 45.3254 36.2359 45.3619C37.3316 45.3619 37.9891 46.0924 37.9891 47.3707V50.7308H36.8568V47.7359C36.8568 46.8959 36.4916 46.4576 35.8342 46.4576C35.2133 46.4576 34.775 46.9324 34.775 47.7724V50.7674H33.6428V47.7724C33.6428 46.9689 33.2775 46.4941 32.6201 46.4941C31.9627 46.4941 31.5609 47.0054 31.5609 47.809V50.8039H30.4287V45.4715V45.4715Z" fill="white"/>
<path d="M43.8695 48.2111C43.8695 46.6771 43.066 45.3623 41.4955 45.3623C40.0711 45.3623 39.085 46.6041 39.085 48.1016V48.1381C39.085 49.7816 40.1807 50.8773 41.6416 50.8773C42.4451 50.9139 43.2121 50.5121 43.6869 49.8912L43.0295 49.2703C42.7008 49.6721 42.1895 49.8912 41.6781 49.8912C40.9111 49.8912 40.2902 49.3068 40.2537 48.5398H43.9061C43.8695 48.4303 43.8695 48.3207 43.8695 48.2111ZM40.2172 47.7729C40.3268 46.9693 40.8016 46.385 41.4955 46.385C42.2625 46.385 42.6643 47.0059 42.7373 47.7729H40.2172Z" fill="white"/>
<path d="M45.0391 45.4714H46.1713V46.6766C46.4635 45.8731 47.0479 45.3618 47.9244 45.3983V46.6766H47.8514C46.8652 46.6766 46.1713 47.3706 46.1713 48.7585V50.7673H45.0391V45.4714Z" fill="white"/>
<path d="M49.0557 43.7549H50.2244V49.6352H53.6941V50.7674H49.0922V43.7549H49.0557Z" fill="#F47821"/>
<path d="M59.6479 47.8819C59.5748 46.4209 58.333 45.2887 56.8721 45.3617C55.4112 45.4348 54.2789 46.6766 54.352 48.1375V48.174C54.352 48.2106 54.352 48.2106 54.352 48.2471C54.352 49.708 55.5207 50.9133 56.9817 50.9133C57.0182 50.9133 57.0182 50.9133 57.0547 50.9133C58.5156 50.8768 59.6844 49.635 59.6479 48.174V48.1375C59.6479 48.028 59.6479 47.9549 59.6479 47.8819ZM58.5156 48.174C58.5156 49.0871 57.9313 49.8541 57.0182 49.8541H56.9817C56.1051 49.7811 55.4477 49.0506 55.5207 48.174V48.1375C55.5207 47.2244 56.1051 46.4574 57.0182 46.4574C57.8947 46.4209 58.5156 47.2244 58.5156 48.174Z" fill="#F47821"/>
<path d="M63.6287 45.3621C62.9348 45.3621 62.2773 45.7273 61.9486 46.3482V43.4629H60.8164V50.7676H61.9486V49.9641C62.3139 50.5484 62.9713 50.9137 63.6287 50.8772C64.7975 50.8772 65.9297 49.891 65.9297 48.1379V48.1014C65.9297 46.3482 64.7975 45.3621 63.6287 45.3621ZM64.7609 48.1379C64.7609 49.1605 64.14 49.818 63.3365 49.818C62.5695 49.818 61.8756 49.124 61.8756 48.1379V48.1014C61.8756 47.0787 62.5695 46.4213 63.3365 46.4213C64.1035 46.4213 64.7609 47.0787 64.7609 48.1379Z" fill="#F47821"/>
<path d="M69.9471 45.3621C69.2531 45.3621 68.5957 45.7273 68.267 46.3482V43.4629H67.1348V50.7676H68.267V49.9641C68.6322 50.5484 69.2896 50.9137 69.9471 50.8772C71.1158 50.8772 72.248 49.891 72.248 48.1379V48.1014C72.248 46.3482 71.1158 45.3621 69.9471 45.3621ZM71.0793 48.1379C71.0793 49.1605 70.4584 49.818 69.6549 49.818C68.8879 49.818 68.1939 49.124 68.1939 48.1379V48.1014C68.1939 47.0787 68.8879 46.4213 69.6549 46.4213C70.4219 46.4213 71.0793 47.0787 71.0793 48.1379Z" fill="#F47821"/>
<path d="M76.6311 45.4717H77.7998L75.8275 50.9137C75.4258 52.0094 74.9875 52.4111 74.184 52.4111C73.7822 52.4111 73.3805 52.3016 73.0152 52.0824L73.417 51.1693C73.5996 51.2789 73.8553 51.352 74.0744 51.352C74.4031 51.352 74.5857 51.2059 74.7684 50.7676L72.6865 45.4717H73.8918L75.2797 49.3797L76.6311 45.4717Z" fill="#F47821"/>
<path fill-rule="evenodd" clip-rule="evenodd" d="M46.3537 29C46.3172 29 46.3172 29 46.2807 29L31.5982 32.7984L28.7129 31.8123C28.5668 31.7758 28.4572 31.8488 28.3842 31.9584C28.3842 31.9949 28.3842 31.9949 28.3842 32.0314L28.3477 37.8752C28.3477 37.9482 28.3842 38.0213 28.4572 38.0578C28.5303 38.0943 28.6033 38.1309 28.6764 38.0943L31.5617 37.1812L33.2783 37.6561L33.2418 40.8701C33.2418 40.9797 33.3148 41.0893 33.4244 41.1258L38.3186 42.1484H38.3551C38.5012 42.1484 38.6107 42.0389 38.6107 41.8928L38.6473 39.1535L46.1711 41.1988C46.2076 41.1988 46.2076 41.1988 46.2441 41.1988C46.2807 41.1988 46.3537 41.1988 46.3902 41.1623C46.4633 41.1258 46.4998 41.0527 46.4998 40.9797L46.6094 29.2557C46.6094 29.1096 46.4998 29 46.3537 29ZM38.1359 41.5641L33.7166 40.651L33.7531 37.8021L38.1725 39.0074L38.1359 41.5641ZM46.025 40.651L31.5982 36.7064C31.5617 36.7064 31.5617 36.7064 31.5252 36.7064C31.4887 36.7064 31.4887 36.7064 31.4521 36.7064L28.8225 37.5465L28.859 32.3602L31.4887 33.2367C31.5252 33.2367 31.5982 33.2367 31.6348 33.2367L46.098 29.5844L46.025 40.651Z" fill="white"/>
<path d="M52.1975 35.3912H49.2391C49.093 35.3912 48.9834 35.2816 48.9834 35.1355C48.9834 34.9895 49.093 34.8799 49.2391 34.8799H52.1975C52.3436 34.8799 52.4531 34.9895 52.4531 35.1355C52.4531 35.2816 52.3436 35.3912 52.1975 35.3912Z" fill="#F47821"/>
<path d="M52.4161 29.4743L49.3847 31.4466C49.2751 31.5196 49.0925 31.4831 49.0194 31.3736C48.9464 31.264 48.9829 31.0814 49.0925 31.0083L52.1239 29.0361C52.2335 28.963 52.4161 28.9995 52.4892 29.1091C52.5622 29.2552 52.5257 29.4013 52.4161 29.4743Z" fill="#F47821"/>
<path d="M52.0513 41.2351L49.0564 39.2263C48.9468 39.1532 48.9103 39.0071 48.9833 38.8611C49.0564 38.7515 49.2025 38.715 49.3486 38.788L52.3435 40.7968C52.453 40.8698 52.4896 41.0159 52.4165 41.162C52.3435 41.2716 52.1609 41.3081 52.0513 41.2351Z" fill="#F47821"/>
</g>
<defs>
<clipPath id="clip0_860_4838">
<rect width="74.8" height="23.4115" fill="white" transform="translate(3 29)"/>
</clipPath>
</defs>
</svg>
