<svg width="100%" height="100%" viewBox="0 0 81 81" fill="none" xmlns="http://www.w3.org/2000/svg">
<mask id="mask0_1278_5998" style="mask-type:alpha" maskUnits="userSpaceOnUse" x="0" y="0" width="81" height="81">
<rect width="81" height="81" rx="11" fill="#C4C4C4"/>
</mask>
<g mask="url(#mask0_1278_5998)">
<rect width="81" height="81" rx="11" fill="#00CCBC"/>
</g>
<g clip-path="url(#clip0_1278_5998)">
<path fill-rule="evenodd" clip-rule="evenodd" d="M20.5971 64.7248H22.1881L21.8935 63.4874V56.1218H20.3614V59.4805C19.89 58.9502 19.3008 58.5966 18.5348 58.5966C17.0027 58.5966 15.8242 59.893 15.8242 61.7196C15.8242 63.6052 17.0027 64.8427 18.5348 64.8427C19.3008 64.8427 19.949 64.4891 20.4204 63.9588L20.5971 64.7248ZM50.7668 60.2465C51.0614 60.2465 51.356 60.3644 51.5917 60.5411L52.3577 58.8912C52.0042 58.7145 51.5917 58.5966 51.2382 58.5966C50.5311 58.5966 49.9418 58.9502 49.5883 59.5394L49.4115 58.7734H47.8794L48.1151 59.9519V64.7248H49.6472V60.8947C49.824 60.5411 50.2364 60.2465 50.7668 60.2465ZM55.1861 63.2517C54.3023 63.2517 53.6541 62.6624 53.6541 61.7196C53.6541 60.8358 54.3023 60.2465 55.1861 60.2465C56.1289 60.2465 56.7771 60.8358 56.7771 61.7196C56.7771 62.6624 56.1289 63.2517 55.1861 63.2517ZM17.2973 61.7196C17.2973 60.7768 17.9455 60.2465 18.8294 60.2465C19.7722 60.2465 20.3614 60.7768 20.3614 61.7196C20.3614 62.6624 19.7722 63.2517 18.8294 63.2517C17.9455 63.2517 17.2973 62.6624 17.2973 61.7196ZM61.9625 63.2517C61.0786 63.2517 60.4305 62.6624 60.4305 61.7196C60.4305 60.8358 61.0786 60.2465 61.9625 60.2465C62.9053 60.2465 63.4946 60.8358 63.4946 61.7196C63.4946 62.6624 62.8464 63.2517 61.9625 63.2517ZM25.9004 60.1287C26.6664 60.1287 27.1967 60.5411 27.3735 61.1893H24.4273C24.5451 60.4822 25.0754 60.1287 25.9004 60.1287ZM44.1082 60.1287C44.8743 60.1287 45.4046 60.5411 45.5814 61.1893H42.6351C42.8119 60.4822 43.3422 60.1287 44.1082 60.1287ZM36.6837 64.7248H39.0996L40.7495 58.7145H39.0407L37.9211 63.6052L36.7426 58.7734H35.0927L36.6837 64.7248ZM32.7357 64.7248H34.2678V58.7145H32.7357V64.7248ZM26.0772 64.8427C26.961 64.8427 27.786 64.607 28.4931 64.1356L27.9038 62.8392C27.3735 63.1338 26.7253 63.3106 26.1361 63.3106C25.3111 63.3106 24.7808 62.9571 24.4862 62.3678H28.7877C28.8467 62.1321 28.9056 61.9553 28.9056 61.6607C28.9056 59.834 27.6092 58.5966 25.9004 58.5966C24.1916 58.5966 22.9541 59.834 22.9541 61.7196C22.8952 63.6052 24.1916 64.8427 26.0772 64.8427ZM64.9677 61.7196C64.9677 59.893 63.7303 58.5966 61.9625 58.5966C60.2537 58.5966 58.9573 59.893 58.9573 61.7196C58.9573 63.5463 60.2537 64.8427 61.9625 64.8427C63.7303 64.8427 64.9677 63.6052 64.9677 61.7196ZM44.3439 64.8427C45.1689 64.8427 45.9938 64.607 46.7009 64.1356L46.1117 62.8392C45.5814 63.1338 44.9332 63.3106 44.3439 63.3106C43.519 63.3106 42.9887 62.9571 42.753 62.4267H47.0545C47.0545 62.191 47.1134 61.9553 47.1134 61.7196C47.1134 59.834 45.8171 58.5966 44.1082 58.5966C42.3994 58.5966 41.162 59.893 41.162 61.7196C41.162 63.6642 42.3994 64.8427 44.3439 64.8427ZM55.1861 64.8427C56.9539 64.8427 58.1913 63.5463 58.1913 61.7196C58.1913 59.893 56.9539 58.5966 55.1861 58.5966C53.4773 58.5966 52.181 59.893 52.181 61.7196C52.181 63.5463 53.4773 64.8427 55.1861 64.8427ZM29.8484 64.7248H31.3804V56.1218H29.8484V64.7248ZM33.5017 57.9484C34.0321 57.9484 34.5035 57.477 34.5035 56.9467C34.5035 56.4164 34.091 56.0039 33.5017 56.0039C32.9714 56.0039 32.5589 56.4164 32.5589 56.9467C32.5589 57.477 32.9714 57.9484 33.5017 57.9484Z" fill="white"/>
<path fill-rule="evenodd" clip-rule="evenodd" d="M47.8966 16.9297L46.1878 33.3108L43.2415 19.5224L33.9903 21.4669L36.8776 35.2554L23.5605 38.0838L25.9175 49.1028L49.3697 54.0525L54.7319 42.0907L57.2657 17.9314L47.8966 16.9297ZM40.472 40.6765C40.0006 41.1479 39.3525 41.0889 38.6454 40.8532C37.9972 40.6175 37.7026 39.8515 37.9383 38.8498C38.115 38.0838 38.9989 37.9659 39.4703 37.9659C39.6471 37.9659 39.8239 38.0248 40.0006 38.0838C40.2953 38.2605 40.8256 38.5552 40.9434 39.0266C41.1202 39.6747 40.9434 40.264 40.472 40.6765ZM47.2484 41.4425C46.8949 42.0317 46.011 42.1496 45.0682 41.6782C44.42 41.3836 44.42 40.6175 44.5379 40.1461C44.5379 39.9104 44.6557 39.6747 44.8325 39.439C45.0682 39.2033 45.4217 38.7909 45.8342 38.7909C46.5413 38.7909 47.1306 39.0855 47.4252 39.6747C47.7787 40.2051 47.602 40.8532 47.2484 41.4425Z" fill="white"/>
</g>
<defs>
<clipPath id="clip0_1278_5998">
<rect width="49.1732" height="47.906" fill="white" transform="translate(15.8262 16.9346)"/>
</clipPath>
</defs>
</svg>
