<svg width="100%" height="100%" viewBox="0 0 81 81" fill="none" xmlns="http://www.w3.org/2000/svg">
<mask id="mask0_860_4889" style="mask-type:alpha" maskUnits="userSpaceOnUse" x="0" y="0" width="81" height="81">
<rect width="81" height="81" rx="11" fill="#C4C4C4"/>
</mask>
<g mask="url(#mask0_860_4889)">
<rect width="81" height="81" rx="11" fill="black"/>
</g>
<g clip-path="url(#clip0_860_4889)">
<path d="M19.5144 33.877C15.4262 33.877 12.0195 35.6114 12.0195 40.844C12.0195 44.9894 14.3103 47.5999 19.6199 47.5999C25.8697 47.5999 26.2703 43.483 26.2703 43.483H23.242C23.242 43.483 22.5927 45.6998 19.4352 45.6998C16.8635 45.6998 15.0138 43.9625 15.0138 41.5275H26.587V39.9995C26.587 37.5905 25.0577 33.877 19.5144 33.877V33.877ZM19.4088 35.8298C21.8568 35.8298 23.5257 37.3295 23.5257 39.5773H15.0808C15.0808 37.191 17.2591 35.8298 19.4088 35.8298V35.8298Z" fill="#E53238"/>
<path d="M26.585 28.8105V44.9726C26.585 45.8901 26.5195 47.1782 26.5195 47.1782H29.4079C29.4079 47.1782 29.5116 46.253 29.5116 45.4075C29.5116 45.4075 30.9386 47.64 34.8188 47.64C38.9048 47.64 41.6803 44.8032 41.6803 40.739C41.6803 36.958 39.1309 33.9171 34.8254 33.9171C30.7936 33.9171 29.5407 36.0943 29.5407 36.0943V28.8105H26.585ZM34.0799 35.9161C36.8546 35.9161 38.619 37.9755 38.619 40.739C38.619 43.7023 36.5811 45.641 34.0996 45.641C31.1382 45.641 29.5407 43.3287 29.5407 40.7654C29.5407 38.3768 30.9742 35.9161 34.0799 35.9161Z" fill="#0064D2"/>
<path d="M48.8581 33.877C42.7078 33.877 42.3133 37.2446 42.3133 37.7827H45.3746C45.3746 37.7827 45.5351 35.8166 48.647 35.8166C50.6691 35.8166 52.2361 36.7422 52.2361 38.5216V39.155H48.647C43.8822 39.155 41.3633 40.5489 41.3633 43.3775C41.3633 46.1612 43.6907 47.6758 46.836 47.6758C51.1225 47.6758 52.5033 45.3073 52.5033 45.3073C52.5033 46.2493 52.5759 47.1777 52.5759 47.1777H55.2974C55.2974 47.1777 55.1918 46.027 55.1918 45.2908V38.9274C55.1918 34.755 51.8263 33.877 48.8581 33.877V33.877ZM52.2361 41.0551V41.8996C52.2361 43.0011 51.5564 45.7394 47.5551 45.7394C45.364 45.7394 44.4246 44.6459 44.4246 43.3775C44.4246 41.07 47.5882 41.0551 52.2361 41.0551V41.0551Z" fill="#F5AF02"/>
<path d="M53.543 34.4053H56.9869L61.9294 44.3073L66.8606 34.4053H69.9804L60.9982 52.034H57.7258L60.3177 47.1197L53.543 34.4053Z" fill="#86B817"/>
</g>
<defs>
<clipPath id="clip0_860_4889">
<rect width="58" height="23.2627" fill="white" transform="translate(12 28.791)"/>
</clipPath>
</defs>
</svg>
