<svg width="100%" height="100%" viewBox="0 0 81 81" fill="none" xmlns="http://www.w3.org/2000/svg">
<mask id="mask0_1278_6037" style="mask-type:alpha" maskUnits="userSpaceOnUse" x="0" y="0" width="81" height="81">
<rect width="81" height="81" rx="11" fill="#C4C4C4"/>
</mask>
<g mask="url(#mask0_1278_6037)">
<rect width="81" height="81" rx="11" fill="#007EE5"/>
</g>
<path d="M28.3667 39.1726H28.4008C29.3996 39.1726 30.1259 39.933 30.2167 40.6821H26.5167C26.5848 39.933 27.2885 39.1726 28.3667 39.1726ZM28.3554 38.1398C26.6302 38.1398 25.2683 39.5131 25.2683 41.2609C25.2683 42.7818 26.4259 44.3594 28.3667 44.3594C28.9796 44.3594 29.5585 44.1892 30.0351 43.86C30.4097 43.6103 30.7275 43.2812 30.9658 42.8953C31.0339 42.7818 31.0339 42.6456 30.9772 42.5321C30.9091 42.4186 30.7956 42.3392 30.6594 42.3392H30.2167C30.0919 42.3392 29.9784 42.4073 29.9103 42.5094C29.5698 43.0428 29.0477 43.3152 28.3781 43.3152C27.5155 43.3152 26.5735 42.7364 26.494 41.6468H31.068C31.2609 41.6468 31.4312 41.4879 31.4312 41.295C31.4425 40.4097 31.1361 39.6152 30.5345 39.0024C29.9557 38.4462 29.1839 38.1398 28.3554 38.1398ZM37.2876 41.2155C37.3103 41.749 37.1174 42.2597 36.7428 42.6343C36.3683 43.0088 35.8689 43.2244 35.3354 43.2244C34.0529 43.2244 33.372 42.2257 33.3606 41.2382V41.2269C33.3606 40.1033 34.2118 39.252 35.3354 39.252C35.8689 39.252 36.3569 39.445 36.7201 39.8082C37.0833 40.1827 37.2876 40.6708 37.2876 41.2155ZM38.0594 36.2217H37.594C37.3897 36.2217 37.2308 36.3919 37.2308 36.5849V39.1272C36.9471 38.7073 36.2661 38.1398 35.1539 38.1398C33.4514 38.1398 32.1689 39.4677 32.1689 41.2382C32.1689 43.0428 33.4287 44.3594 35.1652 44.3594C36.3683 44.3594 36.9812 43.7579 37.2649 43.3039V43.8146C37.2649 44.0189 37.4238 44.1778 37.6281 44.1778H38.0594C38.2637 44.1778 38.4226 44.0189 38.4226 43.8146V36.5849C38.4226 36.3806 38.2523 36.2217 38.0594 36.2217ZM46.4014 38.1398C45.7999 38.1398 45.2437 38.3554 44.8465 38.764C44.6762 38.9343 44.5628 39.1045 44.472 39.2747V39.2634C44.3925 39.1272 44.2677 38.9002 44.1428 38.7754C43.6775 38.2533 43.0646 38.1398 42.622 38.1398C41.8388 38.1398 41.2146 38.5597 40.9195 39.0024V38.6732C40.9195 38.4689 40.7606 38.31 40.5563 38.31H40.1477C39.9434 38.31 39.7845 38.4689 39.7845 38.6732V43.826C39.7845 44.0303 39.9434 44.1892 40.1477 44.1892H40.6131C40.8174 44.1892 40.9762 44.0303 40.9762 43.826V40.9772C40.9762 40.5005 41.0784 40.1146 41.2713 39.8195C41.4756 39.4677 41.8729 39.2747 42.3155 39.2747C42.7922 39.2861 43.144 39.4677 43.371 39.8309C43.5413 40.1146 43.6094 40.4438 43.598 40.9545V43.826C43.598 44.0303 43.7569 44.1892 43.9612 44.1892H44.4379C44.6422 44.1892 44.8011 44.0303 44.8011 43.826V40.9545C44.8011 40.4551 44.8351 40.1487 45.0621 39.8082C45.2664 39.479 45.6637 39.2747 46.129 39.2747C46.5943 39.2747 46.9008 39.4223 47.1164 39.7287C47.3207 40.0011 47.4229 40.3984 47.4229 40.9886V43.8146C47.4229 44.0189 47.5818 44.1778 47.7861 44.1778H48.2514C48.4557 44.1778 48.6146 44.0189 48.6146 43.8146V40.9432C48.6146 39.7741 48.4557 39.2293 47.9677 38.73C47.4796 38.2079 46.7759 38.1284 46.4014 38.1398ZM54.8342 38.2987H54.3689C54.1646 38.2987 54.0057 38.4576 54.0057 38.6619V41.5787C54.0057 42.6229 53.4609 43.2131 52.4735 43.2244C51.4861 43.2244 50.9867 42.6343 50.9867 41.4879V38.6732C50.9867 38.4689 50.8278 38.31 50.6235 38.31H50.1581C49.9539 38.31 49.795 38.4689 49.795 38.6732V41.749C49.795 44.0076 51.2818 44.3481 52.167 44.3594H52.2011C53.041 44.3594 53.7106 44.0303 54.0624 43.4401V43.826C54.0624 44.0303 54.2213 44.1892 54.4256 44.1892H54.8342C55.0385 44.1892 55.1974 44.0303 55.1974 43.826V38.6732C55.1974 38.4689 55.0272 38.2987 54.8342 38.2987ZM59.567 38.1398C58.7045 38.1284 58.0235 38.4576 57.6716 39.0591V38.6732C57.6716 38.4689 57.5128 38.31 57.3085 38.31H56.8999C56.6956 38.31 56.5367 38.4689 56.5367 38.6732V43.826C56.5367 44.0303 56.6956 44.1892 56.8999 44.1892H57.3652C57.5695 44.1892 57.7284 44.0303 57.7284 43.826V40.9205C57.7284 39.8763 58.2732 39.2861 59.2606 39.2747C59.7032 39.2634 60.0551 39.3882 60.3048 39.6379C60.5885 39.9217 60.7361 40.387 60.7361 41.0113V43.826C60.7361 44.0303 60.895 44.1892 61.0993 44.1892H61.5759C61.7802 44.1892 61.9391 44.0303 61.9391 43.826V40.7502C61.9505 38.4916 60.4523 38.1398 59.567 38.1398ZM68.0566 41.2155C68.0793 41.749 67.8864 42.2597 67.5118 42.6343C67.1373 43.0088 66.6379 43.2244 66.1045 43.2244C64.822 43.2244 64.141 42.2257 64.1296 41.2382V41.2269C64.1296 40.1033 64.9809 39.252 66.1045 39.252C66.6379 39.252 67.1259 39.445 67.4891 39.8082C67.8637 40.1827 68.0566 40.6708 68.0566 41.2155ZM68.8284 36.2217H68.3631C68.1588 36.2217 67.9999 36.3919 67.9999 36.5849V39.1272C67.7161 38.7073 67.0351 38.1398 65.9229 38.1398C64.2204 38.1398 62.9379 39.4677 62.9379 41.2382C62.9379 43.0428 64.1977 44.3594 65.9342 44.3594C67.1373 44.3594 67.7502 43.7579 68.0339 43.3039V43.8146C68.0339 44.0189 68.1928 44.1778 68.3971 44.1778H68.8284C69.0327 44.1778 69.1916 44.0189 69.1916 43.8146V36.5849C69.1916 36.3806 69.0327 36.2217 68.8284 36.2217ZM72.5738 40.6254L72.5511 40.614C71.9609 40.4438 71.5637 40.2508 71.541 39.8195C71.541 39.6379 71.5977 39.479 71.7226 39.3542C71.8701 39.2066 72.0744 39.1272 72.3241 39.1272H72.3468C72.7327 39.1272 72.9937 39.3088 73.0845 39.6379C73.1299 39.7968 73.2661 39.9103 73.4364 39.9103H73.879C73.9925 39.9103 74.0947 39.8536 74.1628 39.7628C74.2309 39.672 74.2535 39.5585 74.2308 39.445C73.9812 38.4689 73.0845 38.1284 72.3354 38.1284C71.1891 38.1284 70.3493 38.8889 70.3493 39.933C70.3606 40.9091 71.1437 41.2723 71.8361 41.4766C72.8689 41.8171 73.2661 41.9987 73.2775 42.5321C73.2775 42.9861 72.8802 43.3493 72.3808 43.3493C72.0404 43.3493 71.5864 43.179 71.4502 42.691C71.4048 42.5321 71.2686 42.4186 71.0983 42.4186H70.6216C70.5081 42.4186 70.406 42.464 70.3379 42.5548C70.2698 42.6456 70.2471 42.7591 70.2698 42.8726C70.5082 43.8941 71.4956 44.3594 72.3582 44.3594C72.9824 44.3594 73.5612 44.1324 73.9471 43.7352C74.2876 43.3833 74.4692 42.9293 74.4578 42.4186C74.4238 41.1474 73.4364 40.8751 72.5738 40.6254ZM17.891 36.9027H16.4496C16.1204 36.9027 15.8594 37.1183 15.8594 37.3907V38.1738C15.8594 38.2192 15.8594 38.276 15.8821 38.3214C16.1999 37.9355 16.6766 37.7085 17.1759 37.7085C17.5505 37.7085 18.1634 37.9355 18.4698 38.31C18.4812 38.2646 18.4925 38.2192 18.4925 38.1738V37.3907C18.4812 37.1183 18.2201 36.9027 17.891 36.9027Z" fill="white"/>
<path d="M14.8381 43.3948C14.6679 43.4289 14.4976 43.4402 14.3274 43.4516C14.1571 43.4402 13.9869 43.4289 13.8166 43.3948C12.5909 43.1678 11.6375 42.2939 11.2175 41.1816C11.8077 41.8626 12.9995 42.2145 14.3274 42.2258C15.6553 42.2145 16.8356 41.8626 17.4372 41.1816C17.0172 42.2939 16.0639 43.1565 14.8381 43.3948ZM10.1961 37.5724V38.3556C10.1961 38.4464 10.2301 38.5258 10.2755 38.5939C9.81019 38.6393 9.3562 38.7074 8.94761 38.7869C9.1746 38.208 9.63994 37.2887 10.2074 36.7099C10.3096 36.6077 10.6955 36.2672 11.2743 36.1651C11.558 36.1197 12.5682 35.9721 14.1344 35.9721H14.5544C16.1206 35.9721 17.1307 36.1197 17.4145 36.1651C17.8117 36.2445 18.1863 36.4261 18.4814 36.7099C19.0375 37.2887 19.5142 38.2194 19.7412 38.7869C18.8559 38.5939 17.8344 38.5258 16.7448 38.4918C16.62 38.4918 16.2909 38.4804 15.9844 38.4804H12.8065C12.8179 38.435 12.8292 38.3896 12.8292 38.3442V37.5611C12.8292 37.2887 12.5682 37.0731 12.239 37.0731H10.7976C10.4685 37.0958 10.1961 37.3114 10.1961 37.5724ZM19.1169 42.6571C18.6516 42.6117 18.2884 42.2372 18.243 41.7718C18.1863 41.227 18.5835 40.7504 19.1169 40.6936C19.185 40.6823 19.2531 40.6823 19.3212 40.6936C19.7866 40.739 20.1498 41.1136 20.1952 41.5789C20.2519 42.1237 19.8547 42.6004 19.3212 42.6571C19.2418 42.6571 19.185 42.6571 19.1169 42.6571ZM9.3562 42.6571C8.89086 42.6117 8.52767 42.2372 8.48227 41.7718C8.42552 41.227 8.82276 40.7504 9.3562 40.6936C9.4243 40.6823 9.4924 40.6823 9.56049 40.6936C10.1053 40.7617 10.4798 41.2611 10.4117 41.8059C10.3436 42.3166 9.87828 42.6912 9.3562 42.6571ZM22.2835 38.2307C22.2722 38.0037 22.0792 37.8221 21.8522 37.8335L20.9329 37.8562C20.7286 37.8675 20.5583 38.0151 20.5356 38.2194C20.5356 38.2648 20.5243 38.3102 20.5129 38.3556L20.4108 38.1513C20.0363 37.4589 19.5255 36.6191 19.0148 36.097C19.0148 36.097 18.5608 35.5408 17.6642 35.3593C16.881 35.189 15.5985 35.1436 14.3387 35.155C13.0789 35.1436 11.8077 35.189 11.0133 35.3593C10.1166 35.5408 9.66264 36.097 9.66264 36.097C9.1519 36.6191 8.64117 37.4589 8.26663 38.1513L8.15313 38.3783C8.14178 38.3215 8.13043 38.2761 8.11908 38.2194C8.09638 38.0151 7.92614 37.8675 7.72184 37.8562L6.80252 37.8335C6.57552 37.8221 6.38258 38.0037 6.37123 38.2307L6.35988 38.6734C6.34853 38.9004 6.53012 39.0933 6.75712 39.1047L7.73319 39.2181L7.74454 39.1955L7.72184 39.2408C7.40405 39.6154 7.19976 40.0467 7.14301 40.3872C7.04086 40.7504 6.98411 41.2043 6.98411 41.7945C6.98411 42.6344 7.21111 43.7807 7.26785 44.3482V45.1881C7.26785 45.608 7.60835 45.9372 8.01693 45.9372H9.03841C9.45835 45.9372 9.78749 45.5967 9.78749 45.1881V44.5639C10.8544 44.4617 12.5909 44.4277 14.3387 44.4277C16.0866 44.4277 17.8231 44.4617 18.8899 44.5639V45.1881C18.8899 45.608 19.2304 45.9372 19.639 45.9372H20.6605C21.0804 45.9372 21.4096 45.5967 21.4096 45.1881V44.3482C21.4663 43.7921 21.6933 42.6344 21.6933 41.7945C21.6933 40.4893 21.2053 39.57 20.9556 39.2408L20.9442 39.2068L21.8976 39.0933C22.1246 39.082 22.3062 38.889 22.2949 38.662C22.2949 38.6847 22.2835 38.2307 22.2835 38.2307Z" fill="white"/>
</svg>
