<svg width="100%" height="100%" viewBox="0 0 81 81" fill="none" xmlns="http://www.w3.org/2000/svg">
<rect width="81" height="81" rx="11" fill="#F45800"/>
<path d="M21.3652 31.0156V37.7746C21.3652 37.7746 23.7468 37.7746 25.0214 37.6779C26.0238 37.5024 26.2083 37.4056 26.3928 36.4033L26.7618 34.9351H27.8519L27.6674 38.1436L27.7642 41.4309H26.665L26.3928 40.1472C26.1205 39.2337 25.7515 39.0481 25.0214 38.9604C24.1079 38.8636 21.3652 38.8636 21.3652 38.8636V44.5325C21.3652 45.6226 21.9187 46.0884 23.1933 46.0884H27.034C28.2209 46.0884 29.4067 45.9916 30.1458 44.2602L31.1392 42.0631H32.0617C31.9649 42.5199 31.5082 46.5451 31.4204 47.4507C31.4204 47.4507 27.9487 47.363 26.4895 47.363H19.906L15.9775 47.4507V46.4574L17.2522 46.1761C18.1747 45.9916 18.4469 45.7194 18.4469 44.9892C18.4469 44.9892 18.5437 42.5199 18.5437 38.4058C18.5437 34.3018 18.4469 31.8312 18.4469 31.8312C18.4469 31.0134 18.1747 30.8289 17.2522 30.6444L15.9775 30.3744V29.372L19.8183 29.4507H27.1308C28.5899 29.4507 31.0503 29.1875 31.0503 29.1875C31.0503 29.1875 30.9625 30.7344 30.8658 34.3906H29.8634L29.4944 33.107C29.1344 31.4634 28.5888 30.6455 27.5785 30.6455H21.8309C21.3652 30.6466 21.3652 30.7344 21.3652 31.0156ZM36.1657 31.7368H37.2648V35.5775L41.0178 35.393L40.8333 37.1334L37.177 36.8521V43.6201C37.177 45.536 37.8183 46.274 38.9174 46.274C39.9108 46.274 40.6488 45.7205 40.921 45.2637L41.4655 45.905C40.921 47.1796 39.3742 47.8209 37.906 47.8209C36.0869 47.8209 34.6098 46.7308 34.6098 44.6304V36.9477H32.4295V36.0342C34.2588 35.8497 35.6212 34.7506 36.1657 31.7368ZM44.0317 43.5222L44.7607 45.2626C45.0329 45.9916 45.6742 46.7307 47.1333 46.7307C48.6892 46.7307 49.3304 45.905 49.3304 44.9026C49.3304 41.7909 43.2048 42.7055 43.2048 38.5036C43.2048 36.131 45.1207 35.0229 47.59 35.0229C48.6892 35.0229 50.3328 35.2074 51.1585 35.5764C50.974 36.4899 50.8773 37.6768 50.8773 38.5914L49.9717 38.6791L49.3304 36.851C49.1459 36.4033 48.4079 36.0331 47.5023 36.0331C46.4032 36.0331 45.3052 36.4899 45.3052 37.6767C45.3052 40.5072 51.6153 39.8739 51.6153 44.0758C51.6153 46.4574 49.5149 47.732 46.9488 47.732C45.0329 47.732 43.108 46.994 43.108 46.994C43.2925 45.9039 43.2048 44.7181 43.108 43.5222H44.0317V43.5222ZM51.1597 52.2939C51.4319 51.2915 51.6164 50.018 51.8009 48.8221L52.8033 48.7344L53.1723 50.6502C53.26 51.107 53.5323 51.476 54.2624 51.476C55.4493 51.476 57.0052 50.747 58.4722 48.1887C57.8219 46.6329 55.906 41.6143 54.1657 37.7735C53.7089 36.7632 53.6212 36.6744 52.9878 36.4899L52.522 36.3144V35.3919L55.2727 35.4886L58.6477 35.3041V36.2188L57.8219 36.4033C57.1807 36.491 56.9163 36.851 56.9163 37.2211C56.9163 37.3179 56.9163 37.4056 57.004 37.5901C57.1795 38.1436 58.6477 42.2487 59.7468 44.9904C60.6524 43.0745 62.3928 38.777 62.665 38.0469C62.7618 37.6779 62.8495 37.5901 62.8495 37.3179C62.8495 36.8521 62.5773 36.5799 61.9439 36.4044L61.2937 36.2188V35.3053L63.8598 35.393L66.2324 35.3053V36.2188L65.7757 36.5787C64.8622 36.9477 64.7654 37.0355 64.4043 37.7735L60.388 47.1774C58.0064 52.574 55.537 53.0308 53.8045 53.0308C52.7065 53.0319 51.8808 52.7506 51.1597 52.2939Z" fill="white"/>
</svg>
