<svg width="100%" height="100%" viewBox="0 0 81 81" fill="none" xmlns="http://www.w3.org/2000/svg">
<mask id="mask0_860_4963" style="mask-type:alpha" maskUnits="userSpaceOnUse" x="0" y="0" width="81" height="81">
<rect width="81" height="81" rx="11" fill="#C4C4C4"/>
</mask>
<g mask="url(#mask0_860_4963)">
<rect width="81" height="81" rx="11" fill="#072F54"/>
</g>
<g clip-path="url(#clip0_860_4963)">
<path d="M39.6844 45.8135H37.675C37.666 45.8135 37.6606 45.8117 37.6552 45.8054L35.924 43.6908L34.1909 45.8054C34.1873 45.8117 34.181 45.8135 34.172 45.8135H32.5631C32.5532 45.8135 32.546 45.809 32.5388 45.7982C32.5361 45.7919 32.5361 45.7802 32.5424 45.773L35.0925 42.6407L32.5721 39.5381C32.5649 39.5273 32.5649 39.5183 32.5676 39.5084C32.5721 39.503 32.582 39.494 32.5901 39.494H34.6003C34.6066 39.494 34.6138 39.4976 34.6192 39.5066L36.1381 41.389L37.684 39.5057C37.6885 39.4976 37.6957 39.494 37.7029 39.494H39.3415C39.3514 39.494 39.3613 39.503 39.3649 39.5084C39.3694 39.5183 39.3676 39.5291 39.3613 39.5381L36.9687 42.4112L39.7015 45.773C39.7087 45.7802 39.7114 45.7919 39.706 45.7982C39.7015 45.809 39.6925 45.8135 39.6844 45.8135Z" fill="white"/>
<path d="M50.5583 40.6079C49.6684 40.6079 49.061 41.1478 48.8873 42.0863H51.9144V42.026C51.9144 41.2747 51.361 40.6079 50.5583 40.6079ZM53.4756 43.0491C53.4711 43.0563 53.4621 43.0608 53.454 43.0608H48.855C48.9503 44.1316 49.6459 44.7417 50.7716 44.7417C51.4645 44.7417 52.2005 44.505 53.2407 43.9516C53.2596 43.9408 53.2785 43.957 53.2785 43.9768L53.2767 45.3914C53.2749 45.4031 53.2695 45.4103 53.2614 45.413C52.2941 45.8206 51.3223 46.0986 50.5583 46.0986C48.5778 46.0986 47.1426 44.6553 47.1426 42.6676C47.1426 40.6799 48.5778 39.2365 50.5583 39.2365C52.3652 39.2365 53.526 40.454 53.526 42.1286C53.526 42.3994 53.4792 43.0293 53.4756 43.0491Z" fill="white"/>
<path d="M62.819 38.1892C62.2548 38.1892 61.7959 37.7375 61.7959 37.1814C61.7959 36.6091 62.2548 36.1457 62.819 36.1457C63.3832 36.1457 63.843 36.6091 63.843 37.1814C63.843 37.7375 63.3832 38.1892 62.819 38.1892ZM61.993 45.8135C61.9768 45.8135 61.9669 45.8036 61.9669 45.7874V39.5201C61.9669 39.5075 61.9759 39.4976 61.9867 39.4949H63.6477C63.6612 39.4976 63.6684 39.5075 63.6684 39.5201V45.7874C63.6684 45.8036 63.6576 45.8135 63.6441 45.8135H61.993V45.8135Z" fill="white"/>
<path d="M42.7211 44.8695C42.4215 44.8695 42.1146 44.8272 41.7619 44.7327L41.7655 40.7123C42.1785 40.5809 42.5375 40.5188 42.893 40.5188C44.0448 40.5188 44.8177 41.3683 44.8177 42.6298C44.8177 43.9904 43.9944 44.8695 42.7211 44.8695ZM43.1728 39.2375C42.704 39.2375 42.2307 39.323 41.734 39.4939H40.081C40.0675 39.4939 40.0576 39.5056 40.0576 39.52V49.7979C40.557 49.7295 41.1689 49.5513 41.7628 49.1284L41.7619 46.0024C42.1695 46.06 42.506 46.0987 42.8309 46.0987C45.0949 46.0987 46.5598 44.7417 46.5598 42.6406C46.5598 40.6376 45.1659 39.2375 43.1728 39.2375" fill="white"/>
<path d="M58.9676 44.3492C58.4502 44.6209 57.9877 44.7496 57.553 44.7496C56.5281 44.7496 55.9136 44.0252 55.9136 42.8123C55.9136 41.4085 56.6982 40.5006 57.9112 40.5006C58.2459 40.5006 58.5716 40.5825 58.9676 40.7616V44.3492ZM58.9676 36.176V39.4568C58.4826 39.3182 58.0551 39.2543 57.6241 39.2543C55.6544 39.2543 54.167 40.7391 54.167 42.7115C54.167 44.6749 55.4789 46.0984 57.284 46.0984C57.9094 46.0984 58.4943 45.9419 59.1826 45.5873L59.1817 46.1533C59.6361 46.0669 60.158 45.8852 60.6727 45.5207V35.5048C60.167 35.5722 59.5678 35.7414 58.9676 36.176Z" fill="white"/>
<path d="M69.424 44.3366C68.9237 44.6254 68.4945 44.764 68.1112 44.764C67.0134 44.764 66.3556 44.0423 66.3556 42.8249C66.3556 41.4418 67.1304 40.5141 68.2821 40.5141C68.5908 40.5141 68.9651 40.632 69.424 40.8749V44.3366ZM71.131 39.4181C71.131 39.3794 71.0977 39.3488 71.0599 39.3488L69.7174 39.3506C69.6778 39.3506 69.6445 39.3848 69.6445 39.4226V39.6512H69.6103C68.9903 39.3794 68.4621 39.2543 67.9411 39.2543C66.0839 39.2543 64.6279 40.7939 64.6279 42.7673C64.6279 44.7622 65.9309 46.0993 67.87 46.0993C68.3892 46.0993 69.0542 46.0633 69.6769 45.3471V46.1533C70.1169 46.0597 70.6361 45.8726 71.1292 45.518L71.131 39.4181V39.4181Z" fill="white"/>
<path d="M27.9667 44.2448L32.1365 44.243C32.0735 44.7092 31.916 45.2545 31.5543 45.8105H27.9766H27.2639H27.2162C26.6853 45.8105 26.2489 45.3993 26.1967 44.8792C26.194 44.8711 26.1913 44.8639 26.1904 44.8567V40.5861V36.6332C26.1913 36.6269 26.194 36.6179 26.1967 36.6125C26.2489 36.0915 26.6853 35.6785 27.2162 35.6785C27.2333 35.6785 27.2495 35.6803 27.2639 35.6803L32.1275 35.6794C32.0636 36.1446 31.9061 36.7043 31.5453 37.2586H27.9667V39.4974H31.5093C31.5237 39.4974 31.5345 39.5073 31.5345 39.5216V41.0748C31.5345 41.0874 31.5237 41.099 31.5093 41.099H27.9667V44.243V44.2448Z" fill="white"/>
<path d="M22.7477 45.9412C22.3356 45.9412 22.0809 45.6191 22.0809 45.225C22.0809 44.803 22.3725 44.5087 22.7477 44.5087C23.1193 44.5087 23.41 44.803 23.41 45.225C23.41 45.6479 23.1193 45.9412 22.7477 45.9412ZM22.7477 44.4277C22.3257 44.4277 21.9648 44.7454 21.9648 45.225C21.9648 45.6785 22.2906 46.0195 22.7477 46.0195C23.1643 46.0195 23.5269 45.7037 23.5269 45.225C23.5269 44.7454 23.1643 44.4277 22.7477 44.4277Z" fill="#072F54"/>
<path d="M22.559 45.1599V44.8693H22.7552C22.8542 44.8693 22.9711 44.8846 22.9711 45.0051C22.9711 45.1482 22.8632 45.1599 22.7399 45.1599H22.559ZM23.116 45.024C23.116 44.8342 22.999 44.7532 22.7723 44.7532H22.415V45.6953H22.5707V45.2922H22.7147L22.9585 45.6953H23.134L22.8695 45.2814C23.0125 45.2643 23.116 45.195 23.116 45.024" fill="#072F54"/>
<path d="M72.5016 40.5369C72.0895 40.5369 71.833 40.2148 71.833 39.8207C71.833 39.3987 72.1255 39.1044 72.5016 39.1044C72.8723 39.1044 73.1639 39.3987 73.1639 39.8207C73.1639 40.2436 72.8723 40.5369 72.5016 40.5369ZM72.5016 39.0234C72.0796 39.0234 71.7188 39.3411 71.7188 39.8207C71.7188 40.2742 72.0436 40.6152 72.5016 40.6152C72.9173 40.6152 73.2791 40.2985 73.2791 39.8207C73.2791 39.3411 72.9173 39.0234 72.5016 39.0234Z" fill="#072F54"/>
<path d="M72.3129 39.7546V39.4649H72.5091C72.6081 39.4649 72.725 39.4793 72.725 39.5999C72.725 39.7438 72.6162 39.7546 72.4947 39.7546H72.3129ZM72.8699 39.6188C72.8699 39.4289 72.7529 39.3479 72.5262 39.3479H72.1689V40.29H72.3228V39.8878H72.4686L72.7124 40.29H72.887L72.6234 39.8761C72.7655 39.8599 72.8699 39.7897 72.8699 39.6188" fill="#072F54"/>
<path d="M17.3679 37.2515L17.0656 36.3958L14.5011 32.9684L14.9618 32.8541L19.3836 36.6766L21.9859 35.9324C22.2918 35.8532 22.6391 35.8361 22.9037 35.8379C22.0857 34.0743 20.5893 32.6264 18.6133 31.9228C14.7072 30.5307 10.4123 32.5715 9.02295 36.4795C8.59283 37.688 8.49025 38.9351 8.67111 40.1211L14.9051 37.9552L17.3679 37.2515Z" fill="white"/>
<path d="M23.178 36.5135C22.9494 36.662 22.6138 36.8563 22.2808 36.9634L19.6731 37.7076L17.9329 43.2937L17.4812 43.4404L17.8483 39.1743L17.6431 38.288L15.1992 38.9853L8.74023 40.506C9.25134 42.9923 11.0114 45.1572 13.5768 46.0715C17.4839 47.4635 21.7769 45.4218 23.1663 41.5165C23.7656 39.833 23.7269 38.0765 23.178 36.5135Z" fill="white"/>
<path d="M17.6432 38.2879L17.8492 39.1734L17.4812 43.4395L17.9329 43.2928L19.6732 37.7075L22.2809 36.9634C22.6138 36.8563 22.9494 36.6601 23.178 36.5135C23.0979 36.284 23.0061 36.0582 22.9045 35.8377C22.6399 35.8359 22.2926 35.8539 21.9866 35.9313L19.3843 36.6772L14.9617 32.853L14.5019 32.9682L17.0655 36.3956L17.3687 37.2504L14.905 37.9559L8.67188 40.12C8.69167 40.2496 8.71417 40.3782 8.74026 40.506L15.2001 38.9853L17.6432 38.2879Z" fill="#FBC108"/>
</g>
<defs>
<clipPath id="clip0_860_4963">
<rect width="66.1322" height="19.7527" fill="white" transform="translate(7.86719 30.7656)"/>
</clipPath>
</defs>
</svg>
