<svg width="100%" height="100%" viewBox="0 0 81 81" fill="none" xmlns="http://www.w3.org/2000/svg">
<mask id="mask0_1345_5515" style="mask-type:alpha" maskUnits="userSpaceOnUse" x="0" y="0" width="81" height="81">
<rect width="81" height="81" rx="11" fill="#C4C4C4"/>
</mask>
<g mask="url(#mask0_1345_5515)">
<rect width="81" height="81" rx="11" fill="white"/>
<path d="M55.2106 61.251C54.3524 60.414 53.4732 59.6051 52.5728 58.8173L54.3735 56.9885C55.3372 57.8255 56.2727 58.6836 57.1941 59.5699C58.5447 57.9521 59.3536 55.7294 59.3536 53.1198C59.3536 47.8373 56.139 43.8209 51.1027 43.8209C46.0664 43.8209 42.8238 47.8373 42.8238 53.1268C42.8238 58.557 46.3337 62.3694 51.1027 62.3694C52.6291 62.3624 54.0148 61.9685 55.2106 61.251ZM39.9961 53.1409C39.9961 46.4516 44.3783 41.2254 51.1027 41.2254C57.792 41.2254 62.1179 46.4797 62.1179 53.1409C62.1179 56.475 61.0065 59.3519 59.1496 61.455C60.0499 62.3554 60.9362 63.2768 61.7943 64.2193L59.9233 66.02C59.0159 65.0564 58.0945 64.1068 57.159 63.1713C55.4497 64.2827 53.4099 64.9157 51.0957 64.9157C44.6174 64.9087 39.9961 59.9286 39.9961 53.1409ZM20.4629 57.8888L22.9881 57.319C23.4382 60.4421 25.5977 62.2991 29.1076 62.2991C32.2588 62.2991 34.7488 60.829 34.7488 58.4304C34.7488 56.7212 33.4898 55.2792 28.566 53.8091C22.981 52.2194 21.1241 50.1796 21.1241 47.1761C21.1241 43.3004 24.2472 41.2324 28.777 41.2324C33.8485 41.2324 36.0993 43.8139 36.8801 47.352L34.362 47.9217C33.7289 45.0097 31.7524 43.7787 28.6856 43.7787C25.8017 43.7787 23.7618 44.8619 23.7618 46.9299C23.7618 48.611 25.0842 49.9053 29.6422 51.3402C35.0724 53.0213 37.4147 54.8501 37.4147 58.3319C37.4147 62.6578 33.7852 64.9016 29.1639 64.9016C24.3245 64.9087 21.0256 62.3905 20.4629 57.8888ZM20.899 15.1787H36.444V17.732H23.4805V24.8715H35.002V27.4248H23.4805V37.7436H20.899V15.1787Z" fill="#171518"/>
</g>
</svg>
