<svg width="100%" height="100%" viewBox="0 0 81 81" fill="none" xmlns="http://www.w3.org/2000/svg">
<mask id="mask0_860_4665" style="mask-type:alpha" maskUnits="userSpaceOnUse" x="0" y="0" width="81" height="81">
<rect width="81" height="81" rx="11" fill="#C4C4C4"/>
</mask>
<g mask="url(#mask0_860_4665)">
<rect width="81" height="81" rx="11" fill="#FF492C"/>
</g>
<g clip-path="url(#clip0_860_4665)">
<path d="M49.9144 50.1738C51.6272 53.146 53.3209 56.0846 55.0133 59.0199C47.519 64.7575 35.8592 65.4509 27.2276 58.8435C17.2946 51.2339 15.662 38.2497 20.98 28.9031C27.0964 18.1525 38.5423 15.775 45.9119 17.5183C45.7126 17.9513 41.2988 27.1082 41.2988 27.1082C41.2988 27.1082 40.9498 27.1311 40.7524 27.1349C38.5742 27.2272 36.9518 27.7341 35.2129 28.6331C33.305 29.6287 31.6701 31.0763 30.4509 32.8496C29.2317 34.6229 28.4654 36.6678 28.219 38.8056C27.9619 40.9736 28.2617 43.1714 29.0901 45.1914C29.7905 46.8991 30.7812 48.4158 32.1094 49.6962C34.147 51.6625 36.5717 52.8799 39.3822 53.2829C42.0437 53.665 44.6034 53.2868 47.002 52.0814C47.9017 51.63 48.667 51.1314 49.5616 50.4476C49.6756 50.3737 49.7768 50.2801 49.9144 50.1738Z" fill="white"/>
<path d="M49.9313 24.1072C49.4964 23.6793 49.0933 23.2845 48.6922 22.8872C48.4528 22.6503 48.2223 22.4039 47.9772 22.1728C47.8893 22.0894 47.7861 21.9754 47.7861 21.9754C47.7861 21.9754 47.8695 21.7984 47.9052 21.7258C48.3745 20.7841 49.1099 20.0957 49.9822 19.5482C50.9468 18.938 52.0707 18.6276 53.2117 18.6561C54.6718 18.6847 56.0293 19.0483 57.1747 20.0276C58.0203 20.7503 58.4539 21.6672 58.5303 22.7617C58.6577 24.6083 57.8936 26.0224 56.3763 27.0094C55.4849 27.5901 54.5234 28.039 53.5594 28.5706C53.0277 28.8642 52.5731 29.1221 52.0535 29.6531C51.5963 30.186 51.5741 30.6884 51.5741 30.6884L58.4807 30.6795V33.7556H47.8199C47.8199 33.7556 47.8199 33.5454 47.8199 33.4582C47.7791 31.9466 47.9555 30.5241 48.6476 29.1513C49.2844 27.8919 50.2738 26.9699 51.4626 26.2599C52.3782 25.713 53.3423 25.2475 54.2598 24.7031C54.8258 24.3676 55.2257 23.8754 55.2225 23.1616C55.2225 22.5491 54.7768 22.0047 54.1401 21.8347C52.6387 21.4297 51.1105 22.076 50.3159 23.4501C50.2 23.6506 50.0816 23.8499 49.9313 24.1072Z" fill="white"/>
<path d="M63.2899 46.904L57.4695 36.8525H45.9517L40.0938 47.0078H51.6963L57.4218 57.0115L63.2899 46.904Z" fill="white"/>
</g>
<defs>
<clipPath id="clip0_860_4665">
<rect width="45.2901" height="46.5617" fill="white" transform="translate(18 17)"/>
</clipPath>
</defs>
</svg>
