<svg width="100%" height="100%" viewBox="0 0 81 81" fill="none" xmlns="http://www.w3.org/2000/svg">
<mask id="mask0_1278_6055" style="mask-type:alpha" maskUnits="userSpaceOnUse" x="0" y="0" width="81" height="81">
<rect width="81" height="81" rx="11" fill="#C4C4C4"/>
</mask>
<g mask="url(#mask0_1278_6055)">
<rect width="81" height="81" rx="11" fill="#182954"/>
</g>
<g clip-path="url(#clip0_1278_6055)">
<path d="M72.7636 37.9597L72.5767 40.2031H71.6605C70.1977 40.2031 69.4374 41.3757 69.4374 42.4995V47.5664H66.8447V37.9597H69.3004L69.3563 39.1587C69.8715 38.3365 70.7731 37.9597 71.885 37.9597H72.7636ZM54.7891 47.5663H52.1942V42.4878C52.1942 41.4242 52.1023 40.0856 50.6064 40.0856C49.1657 40.0856 48.5917 41.1253 48.5917 42.336V47.5663H45.9976V37.9596H48.4028L48.4577 39.1877C48.9732 38.3655 49.9333 37.7252 51.3495 37.7252C53.964 37.7252 54.7891 39.5919 54.7891 41.5344V47.5663ZM44.8661 45.3222L44.6847 47.5081C44.0625 47.675 43.5101 47.7349 42.8416 47.7349C40.3967 47.7349 39.6875 46.6138 39.6875 44.3604V35.2505H42.2822V37.9598H44.8641L44.6847 40.2029H42.2822V44.1653C42.2822 45.0696 42.5302 45.558 43.4577 45.558C43.861 45.558 44.3096 45.5095 44.8661 45.3222ZM38.8356 37.9597L38.6346 40.2031H37.9296C36.4697 40.2031 35.7437 41.3743 35.7437 42.4995V47.5664H33.1487V37.9597H35.6056L35.6568 39.1587C36.1749 38.3365 37.0765 37.9597 38.1898 37.9597H38.8356ZM21.4394 46.502C19.6795 47.4435 17.9215 47.9866 15.5996 47.9192C11.295 47.7878 8.18945 45.1149 8.18945 40.6C8.18945 36.105 11.3249 33.2329 15.6016 33.1655C17.7695 33.1323 19.7094 33.6824 21.2257 35.0205L19.3992 36.8682C18.4609 36.0684 17.0804 35.6008 15.4307 35.6756C12.7392 35.8009 11.1173 37.7568 11.0816 40.4459C11.0464 43.3596 12.8331 45.3675 15.6261 45.4408C16.9403 45.4737 17.8817 45.2972 18.6964 44.9314V41.9532H15.7935L15.9895 39.5106H21.4394V46.502ZM65.686 43.676H58.5721C58.7748 44.9035 59.7398 45.6421 60.9415 45.6755C62.1097 45.7072 62.7633 45.3542 63.6179 44.4889L65.3109 45.7799C64.1078 47.2618 62.6639 47.8012 61.0191 47.8012C58.1261 47.8012 55.9588 45.7784 55.9588 42.7627C55.9588 39.7502 58.1154 37.7251 60.9109 37.7251C63.9921 37.7251 65.686 39.5918 65.686 42.9052V43.676ZM63.0867 41.6675C63.007 40.4539 62.0978 39.6866 60.8455 39.7354C59.5851 39.7831 58.746 40.6039 58.5721 41.6675H63.0867ZM31.5152 41.2756V47.5663H29.2276L29.1709 46.619C28.469 47.4884 27.3295 47.8013 26.1563 47.8013C24.3897 47.8013 22.7205 46.9302 22.6856 44.9013C22.633 41.7123 26.2747 41.4858 28.5617 41.4858H29.0188V41.3596C29.0188 40.3051 28.321 39.7355 27.0071 39.7355C26.0639 39.7355 25.1329 40.1137 24.4444 40.7592L22.9473 39.2383C24.3066 38.1363 25.7208 37.7252 27.2275 37.7252C30.2033 37.7252 31.5152 39.1005 31.5152 41.2756ZM29.0188 43.3769H28.658C27.4295 43.3795 25.2719 43.44 25.28 44.7245C25.2916 46.5342 29.0188 45.959 29.0188 43.7766V43.3769ZM70.7396 46.4488C70.7396 45.8374 71.201 45.3765 71.7927 45.3765C72.3771 45.3765 72.8394 45.8374 72.8394 46.4488C72.8394 47.0711 72.3771 47.5304 71.7927 47.5304C71.201 47.5304 70.7396 47.0711 70.7396 46.4488ZM71.7927 47.7453C72.4972 47.7453 73.0982 47.1981 73.0982 46.4488C73.0982 45.7071 72.4972 45.1611 71.7927 45.1611C71.0818 45.1611 70.4802 45.7071 70.4802 46.4488C70.4802 47.1981 71.0818 47.7453 71.7927 47.7453ZM71.5191 46.5524H71.7793L72.1715 47.1981H72.4251L72.0015 46.5419C72.2204 46.5151 72.3876 46.3977 72.3876 46.131C72.3876 45.8374 72.2134 45.7071 71.861 45.7071H71.294V47.1981H71.5191V46.5524ZM71.5191 46.3602V45.8993H71.8264C71.984 45.8993 72.1515 45.9333 72.1515 46.118C72.1515 46.3468 71.9805 46.3602 71.7898 46.3602H71.5191Z" fill="white"/>
</g>
<defs>
<clipPath id="clip0_1278_6055">
<rect width="65.2174" height="15" fill="white" transform="translate(8 33)"/>
</clipPath>
</defs>
</svg>
