<svg width="100%" height="100%" viewBox="0 0 82 83" fill="none" xmlns="http://www.w3.org/2000/svg">
<mask id="mask0_860_4705" style="mask-type:alpha" maskUnits="userSpaceOnUse" x="1" y="0" width="81" height="81">
<rect x="1" width="81" height="81" rx="11" fill="#C4C4C4"/>
</mask>
<g mask="url(#mask0_860_4705)">
<rect x="1" width="81" height="81" rx="11" fill="#FDD901"/>
</g>
<g clip-path="url(#clip0_860_4705)">
<path fill-rule="evenodd" clip-rule="evenodd" d="M63.0128 10.4512C68.4421 10.4512 72.3675 14.3765 72.3728 19.8165V65.3525C72.3728 71.0112 68.6661 74.9525 62.9701 74.9845C47.7488 75.0627 32.5239 75.0627 17.2955 74.9845C11.5301 74.9525 7.85547 71.0165 7.85547 65.2458V19.9872C7.85547 14.3658 11.7488 10.4512 17.3381 10.4512H63.0128Z" fill="#FDD901"/>
<path fill-rule="evenodd" clip-rule="evenodd" d="M40.0755 57.2344C34.0521 57.1923 28.2807 54.8112 23.9799 50.5939C19.679 46.3766 17.1851 40.6531 17.0248 34.6317C16.9768 32.2264 18.1928 30.7277 20.2248 30.6691C22.1715 30.6157 23.5581 32.0237 23.6221 34.3491C23.6935 38.3176 25.1843 42.1293 27.8243 45.0933C30.4644 48.0573 34.0789 49.9773 38.0128 50.5055C41.9468 51.0337 45.9397 50.135 49.2681 47.9724C52.5964 45.8098 55.0398 42.5263 56.1555 38.7171C56.5021 37.5331 56.2408 37.1757 55.0248 37.2717C53.926 37.357 52.8223 37.357 51.7235 37.2717C49.7341 37.1331 48.4648 35.7571 48.5235 33.8744C48.5821 31.9917 49.8835 30.7117 51.9155 30.6744C54.6675 30.6424 57.4195 30.6477 60.1715 30.6744C62.1875 30.6744 63.3715 31.9437 63.4195 33.9597C63.5955 46.7384 53.0621 57.2451 40.0755 57.2344Z" fill="#040404"/>
</g>
<defs>
<clipPath id="clip0_860_4705">
<rect width="80" height="80" fill="white" transform="translate(0 3)"/>
</clipPath>
</defs>
</svg>
