<svg width="100%" height="100%" viewBox="0 0 81 81" fill="none" xmlns="http://www.w3.org/2000/svg">
<mask id="mask0_860_4742" style="mask-type:alpha" maskUnits="userSpaceOnUse" x="0" y="0" width="81" height="81">
<rect width="81" height="81" rx="11" fill="#C4C4C4"/>
</mask>
<g mask="url(#mask0_860_4742)">
<rect width="81" height="81" rx="11" fill="#0DAB40"/>
</g>
<g clip-path="url(#clip0_860_4742)">
<path fill-rule="evenodd" clip-rule="evenodd" d="M71.7917 55.5931C71.7917 55.5244 71.7429 55.4458 71.684 55.4163C71.5466 55.3378 71.3402 55.2888 70.9182 55.2888C69.9657 55.2888 69.1313 55.76 68.7681 56.5552V55.5931C68.7681 55.5145 68.6996 55.4458 68.6113 55.4458H67.1973C67.1187 55.4458 67.0501 55.5048 67.0501 55.5931V62.1119C67.0501 62.1903 67.1187 62.259 67.207 62.259L68.6996 62.2592C68.7778 62.2592 68.8467 62.1903 68.8467 62.1119V59.1765C68.8467 57.8708 69.7597 57.2228 70.9279 57.2228C71.2028 57.2228 71.4777 57.2718 71.6151 57.321C71.7134 57.3505 71.8017 57.2816 71.8017 57.1737V55.5832L71.7917 55.5931ZM62.2885 55.279C64.3797 55.279 65.9408 56.7221 65.9408 58.8524C65.9408 60.973 64.3797 62.4259 62.2986 62.4259C60.217 62.4259 58.666 60.9829 58.666 58.8524C58.6563 56.7221 60.2074 55.279 62.2885 55.279V55.279ZM62.2885 60.6589C63.3095 60.6589 64.0951 59.9421 64.0951 58.8524C64.0951 57.7627 63.3095 57.0363 62.2885 57.0363C61.2775 57.0363 60.4919 57.7627 60.4919 58.8524C60.502 59.9421 61.2872 60.6589 62.2885 60.6589ZM54.0224 55.279C56.1136 55.279 57.6647 56.7221 57.6647 58.8524C57.6647 60.973 56.1039 62.4259 54.0321 62.4259C51.9412 62.4259 50.3801 60.9829 50.3801 58.8524C50.3801 56.7221 51.9312 55.279 54.0224 55.279ZM54.0224 60.6589C55.0434 60.6589 55.8287 59.9421 55.8287 58.8524C55.8287 57.7627 55.0434 57.0363 54.0321 57.0363C53.0211 57.0363 52.2355 57.7627 52.2355 58.8524C52.2258 59.952 53.0111 60.6687 54.0224 60.6589V60.6589ZM49.1237 52.7263C49.2023 52.7263 49.2708 52.7853 49.2708 52.8736V62.1119C49.2708 62.1903 49.212 62.259 49.1237 62.259L47.6311 62.2592C47.5525 62.2592 47.4839 62.1903 47.4839 62.1119V61.3069C46.9833 62.0137 46.2175 62.4358 45.2359 62.4358C43.557 62.4358 42.1532 61.1596 42.1532 58.8525C42.1532 56.5455 43.557 55.2692 45.2065 55.2692C46.2666 55.2692 47.0228 55.7699 47.4839 56.4276V52.8738C47.4839 52.7952 47.5525 52.7166 47.6411 52.7166L49.1237 52.7263V52.7263ZM45.766 60.6883C46.7673 60.6883 47.5431 59.9815 47.5431 58.8622C47.5431 57.7333 46.7673 57.0363 45.766 57.0363C44.7547 57.0363 43.9891 57.7627 43.9891 58.8622C43.9891 59.9716 44.7547 60.6883 45.766 60.6883ZM41.1714 60.2072C41.1714 61.7585 40.0523 62.4259 38.2458 62.4259C37.0089 62.4259 35.929 62.0824 35.3204 61.3952C35.2711 61.3363 35.2711 61.2577 35.3204 61.1988L36.1743 60.0698C36.2333 59.9912 36.3412 59.9912 36.4001 60.06C36.8517 60.5313 37.5585 60.816 38.4226 60.816C38.9233 60.816 39.3355 60.6784 39.3355 60.2955C39.3355 59.9226 38.9625 59.844 37.8238 59.5986C36.8223 59.3924 35.5754 58.9309 35.5754 57.4485C35.5754 56.0643 36.6653 55.279 38.4323 55.279C39.6006 55.279 40.4352 55.6323 41.0242 56.192C41.0831 56.2508 41.0831 56.3391 41.034 56.3982L40.219 57.4683C40.1701 57.537 40.0719 57.5467 40.0032 57.4976C39.6104 57.1345 38.9429 56.9184 38.2851 56.9184C37.7353 56.9184 37.4211 57.0951 37.4211 57.3897C37.4211 57.7333 37.7943 57.8118 38.992 58.0671C40.1798 58.3223 41.1714 58.7739 41.1714 60.2072ZM34.2993 60.2072C34.2993 61.7585 33.1801 62.4259 31.3737 62.4259C30.1269 62.4259 29.057 62.0824 28.4383 61.3952C28.399 61.3363 28.399 61.2577 28.4383 61.1988L29.3023 60.0796C29.3513 60.0011 29.4692 60.0011 29.528 60.0698C29.9797 60.541 30.6865 60.8257 31.5504 60.8257C32.0511 60.8257 32.4635 60.6883 32.4635 60.3054C32.4635 59.9324 32.0905 59.8538 30.9516 59.6084C29.9502 59.4022 28.7034 58.9408 28.7034 57.4583C28.7034 56.0741 29.7832 55.2888 31.5603 55.2888C32.7284 55.2888 33.5631 55.6422 34.152 56.2018C34.211 56.2508 34.211 56.349 34.1619 56.4078L33.347 57.4683C33.2981 57.537 33.19 57.5467 33.131 57.4976C32.7384 57.1345 32.0707 56.9184 31.413 56.9184C30.8632 56.9184 30.5491 57.0951 30.5491 57.3897C30.5491 57.7333 30.9221 57.8118 32.1199 58.0671C33.2981 58.3223 34.2894 58.7739 34.2993 60.2072V60.2072ZM24.2168 55.2985C26.1902 55.2985 27.1817 56.1724 27.1817 58.0671V62.1315C27.1817 62.2101 27.1129 62.2788 27.0246 62.2788H25.5324C25.4539 62.2788 25.3852 62.2199 25.3852 62.1315V61.3559C25.0416 61.9058 24.3643 62.4162 23.3038 62.4162C21.9588 62.4162 21.0164 61.5522 21.0164 60.2955C21.0164 59.0586 21.9393 58.2732 23.1861 58.1555L25.0416 57.9884C25.2869 57.9591 25.3852 57.8805 25.3852 57.7137V57.6057C25.3852 57.2129 25.0121 56.9282 24.2071 56.9282C23.5592 56.9282 22.8817 57.1147 22.5873 57.6646C22.5479 57.7431 22.4498 57.753 22.381 57.7039L21.3011 56.9184C21.2422 56.8791 21.2225 56.7908 21.2619 56.7319C21.7331 55.7796 22.8031 55.3084 24.2168 55.3084V55.2985ZM25.3852 59.5102V59.2354L23.7162 59.4416C23.1664 59.5201 22.8817 59.8047 22.8817 60.1878C22.8817 60.6295 23.2252 60.9141 23.8437 60.9141C24.7862 60.9141 25.3949 60.2563 25.3852 59.5102V59.5102ZM19.799 52.8736V62.1119C19.799 62.2002 19.7303 62.2689 19.6518 62.2689H18.1496C18.0712 62.2689 17.9926 62.2002 17.9926 62.1119V52.8736C17.9926 52.7952 18.0614 52.7265 18.1399 52.7265L19.6419 52.7263C19.7303 52.7263 19.799 52.7952 19.799 52.8736ZM16.3629 55.4361C16.4414 55.4361 16.5201 55.5048 16.5201 55.5931V61.8074C16.5201 63.5648 15.6855 65.1553 12.8385 65.1553C11.5328 65.1553 10.6295 64.7821 9.94237 64.1833C9.89328 64.1441 9.88341 64.0556 9.97186 63.9085L10.6394 62.7696C10.6788 62.6911 10.7867 62.6714 10.8554 62.7401C11.3953 63.2211 12.004 63.4764 12.7698 63.4764C14.2817 63.4764 14.7529 62.7009 14.7529 61.7191V61.2872C14.311 61.9252 13.5551 62.3277 12.5833 62.3277C10.7768 62.3277 9.40234 61.0908 9.40234 58.823C9.40234 56.5452 10.8455 55.2788 12.5341 55.2788C13.5748 55.2788 14.3602 55.7796 14.7431 56.3981V55.6028C14.7431 55.5243 14.8118 55.4458 14.9001 55.4458L16.3629 55.4361V55.4361ZM13.0153 60.6784C14.0263 60.6784 14.7725 59.9716 14.7725 58.8524C14.7725 57.7235 14.0263 57.0264 13.0153 57.0264C11.9942 57.0264 11.2383 57.753 11.2383 58.8524C11.2383 59.952 12.0039 60.6784 13.0153 60.6784" fill="white"/>
<path fill-rule="evenodd" clip-rule="evenodd" d="M46.836 41.2007H30.1955C30.1955 43.5175 32.0509 45.3828 34.3579 45.3828H46.836C49.1332 45.3828 50.9886 43.5076 50.9886 41.2007V24.0005C50.9886 23.9219 50.92 23.8437 50.8414 23.8437H46.9831C46.9045 23.8437 46.836 23.9122 46.836 24.0005V41.2007ZM46.836 16.0681C49.1332 16.0681 50.9886 17.9433 50.9886 20.2602H34.3482V37.4602C34.3482 37.5388 34.2795 37.6173 34.1912 37.6173H30.3329C30.2543 37.6173 30.1758 37.5485 30.1758 37.4602V20.2602C30.1758 17.9433 32.0313 16.0681 34.3384 16.0681H46.836" fill="white"/>
</g>
<defs>
<clipPath id="clip0_860_4742">
<rect width="62.6667" height="49.5101" fill="white" transform="translate(9.33398 15.7324)"/>
</clipPath>
</defs>
</svg>
