<svg width="100%" height="100%" viewBox="0 0 81 81" fill="none" xmlns="http://www.w3.org/2000/svg">
<mask id="mask0_1277_5828" style="mask-type:alpha" maskUnits="userSpaceOnUse" x="0" y="0" width="81" height="81">
<rect width="81" height="81" rx="11" fill="#C4C4C4"/>
</mask>
<g mask="url(#mask0_1277_5828)">
<rect width="81" height="81" rx="11" fill="white"/>
</g>
<g clip-path="url(#clip0_1277_5828)">
<path d="M43.3873 24.418C42.9917 24.4169 42.5998 24.4941 42.2341 24.6449C41.8684 24.7958 41.5361 25.0175 41.2564 25.2972L34.1211 32.4325L36.9362 35.2476L41.5173 34.0997L45.9541 35.131L48.8173 32.2881C48.4528 31.841 48.2671 31.2746 48.2963 30.6986C48.3255 30.1225 48.5675 29.5777 48.9754 29.1699C49.3833 28.762 49.928 28.52 50.504 28.4908C51.0801 28.4616 51.6465 28.6473 52.0936 29.0118L55.9653 25.1477C55.4118 24.6779 54.7098 24.4194 53.9838 24.418H43.3873Z" fill="#EA4335"/>
<path d="M55.9516 25.1553L52.0876 29.0168C52.4599 29.322 52.7284 29.7351 52.856 30.1993C52.9836 30.6635 52.9641 31.1559 52.8001 31.6085C52.636 32.0611 52.3356 32.4517 51.9402 32.7263C51.5448 33.001 51.074 33.1462 50.5926 33.1419C50.2494 33.1458 49.9098 33.0716 49.5995 32.925C49.2891 32.7784 49.0161 32.5632 48.8012 32.2956L44.3898 36.7577L41.2503 35.2374L37.703 37.1124L36.6895 40.3887L37.703 44.0703L41.2503 45.654L46.5714 44.8938L48.9887 47.3111L56.1163 40.1784C56.4007 39.9015 56.6264 39.57 56.7796 39.2038C56.9329 38.8377 57.0106 38.4443 57.0082 38.0474V27.4484C57.0076 27.0134 56.9136 26.5836 56.7327 26.188C56.5517 25.7924 56.288 25.4402 55.9592 25.1553H55.9516Z" fill="#4285F4"/>
<path d="M34.1203 32.4326L25.3177 41.2352C25.0344 41.5166 24.8097 41.8513 24.6566 42.2202C24.5035 42.589 24.4251 42.9845 24.4258 43.3838C24.4235 43.7808 24.5012 44.1741 24.6545 44.5403C24.8077 44.9064 25.0333 45.2379 25.3177 45.5148L30.4589 50.6559L36.2867 44.8281L35.2732 40.399L36.9278 35.2654L34.1203 32.4326Z" fill="#FBBC05"/>
<path d="M30.4531 50.6532L35.8958 56.0984C36.1749 56.3798 36.5068 56.6035 36.8725 56.7565C37.2381 56.9096 37.6304 56.989 38.0267 56.9903C38.8327 56.9851 39.6047 56.665 40.178 56.0984L48.978 47.2933L46.5607 44.8761L41.493 46.3406L36.2683 44.8203L30.4531 50.6532Z" fill="#34A853"/>
<path d="M47.8039 39.122H41.5048V41.8205H45.1206C44.7811 43.5334 43.3748 44.5165 41.5048 44.5165C40.4352 44.479 39.4218 44.0277 38.6783 43.2578C37.9348 42.4878 37.5193 41.4592 37.5193 40.3889C37.5193 39.3186 37.9348 38.29 38.6783 37.52C39.4218 36.7501 40.4352 36.2988 41.5048 36.2613C42.416 36.2603 43.2973 36.5867 43.988 37.1811L45.9492 35.154C44.7382 34.0368 43.1525 33.4139 41.5048 33.4082C37.7649 33.4082 34.7598 36.5147 34.7598 40.3864C34.7598 44.2581 37.7624 47.3646 41.5048 47.3646C44.8799 47.3646 47.9433 44.8307 47.9433 40.3864C47.936 39.9601 47.8859 39.5357 47.7938 39.1195L47.8039 39.122Z" fill="white"/>
</g>
<defs>
<clipPath id="clip0_1277_5828">
<rect width="32.58" height="32.5724" fill="white" transform="translate(24.4199 24.418)"/>
</clipPath>
</defs>
</svg>
