<svg width="100%" height="100%" viewBox="0 0 81 81" fill="none" xmlns="http://www.w3.org/2000/svg">
<mask id="mask0_860_4861" style="mask-type:alpha" maskUnits="userSpaceOnUse" x="0" y="0" width="81" height="81">
<rect width="81" height="81" rx="11" fill="#C4C4C4"/>
</mask>
<g mask="url(#mask0_860_4861)">
<rect width="81" height="81" rx="11" fill="white"/>
</g>
<path d="M52.7449 41.27C52.7449 40.48 52.6749 39.73 52.5549 39H41.2549V43.51H47.7249C47.4349 44.99 46.5849 46.24 45.3249 47.09V50.09H49.1849C51.4449 48 52.7449 44.92 52.7449 41.27Z" fill="#4285F4"/>
<path d="M41.2549 53C44.4949 53 47.2049 51.92 49.1849 50.09L45.3249 47.09C44.2449 47.81 42.8749 48.25 41.2549 48.25C38.1249 48.25 35.4749 46.14 34.5249 43.29H30.5449V46.38C32.5149 50.3 36.5649 53 41.2549 53Z" fill="#34A853"/>
<path d="M34.5249 43.2901C34.2749 42.5701 34.1449 41.8001 34.1449 41.0001C34.1449 40.2001 34.2849 39.4301 34.5249 38.7101V35.6201H30.5449C29.7249 37.2401 29.2549 39.0601 29.2549 41.0001C29.2549 42.9401 29.7249 44.7601 30.5449 46.3801L34.5249 43.2901Z" fill="#FBBC05"/>
<path d="M41.2549 33.75C43.0249 33.75 44.6049 34.36 45.8549 35.55L49.2749 32.13C47.2049 30.19 44.4949 29 41.2549 29C36.5649 29 32.5149 31.7 30.5449 35.62L34.5249 38.71C35.4749 35.86 38.1249 33.75 41.2549 33.75Z" fill="#EA4335"/>
</svg>
