<svg width="100%" height="100%" viewBox="0 0 81 81" fill="none" xmlns="http://www.w3.org/2000/svg">
<mask id="mask0_860_4946" style="mask-type:alpha" maskUnits="userSpaceOnUse" x="0" y="0" width="81" height="81">
<rect width="81" height="81" rx="11" fill="#1B41E9"/>
</mask>
<g mask="url(#mask0_860_4946)">
<rect width="81" height="81" rx="11" fill="#1B41E9"/>
</g>
<g clip-path="url(#clip0_860_4946)">
<path d="M38.5965 57.5197L24.1083 43.0315C16.0236 34.9468 27.8631 24 35.5175 31.6496L38.325 34.5294C38.5103 34.7984 38.7582 35.0184 39.0473 35.1703C39.3365 35.3222 39.6582 35.4016 39.9848 35.4016C40.3115 35.4016 40.6332 35.3222 40.9224 35.1703C41.2115 35.0184 41.4594 34.7984 41.6447 34.5294L44.9372 31.2809C45.0839 31.0841 45.2695 30.9197 45.4825 30.7979C45.6955 30.676 45.9313 30.5993 46.1753 30.5725C46.4192 30.5457 46.666 30.5695 46.9004 30.6422C47.1348 30.7149 47.3516 30.8352 47.5375 30.9954C47.7234 31.1556 47.8744 31.3523 47.9809 31.5734C48.0875 31.7944 48.1474 32.0351 48.1569 32.2803C48.1665 32.5255 48.1254 32.77 48.0363 32.9987C47.9473 33.2274 47.8121 33.4352 47.6392 33.6094L39.8023 41.5056C38.3712 42.9366 40.2599 44.6451 41.6151 43.2911L43.6437 41.3159C43.7951 41.1181 43.9865 40.9545 44.2054 40.8358C44.4243 40.717 44.6658 40.6457 44.9141 40.6266C45.1625 40.6075 45.412 40.6409 45.6466 40.7248C45.8811 40.8087 46.0953 40.9411 46.2752 41.1133C46.4551 41.2856 46.5966 41.4938 46.6905 41.7245C46.7845 41.9552 46.8287 42.2031 46.8204 42.452C46.8121 42.7009 46.7513 42.9453 46.6421 43.1691C46.533 43.393 46.3778 43.5913 46.1868 43.7511L40.0785 49.9021C38.5526 51.428 40.2587 53.3025 41.8154 51.7446L50.4479 43.2911C52.5156 41.2234 54.7706 43.9432 53.0065 45.7074L41.3649 57.5244C40.9974 57.8917 40.4991 58.098 39.9795 58.098C39.4599 58.098 38.9616 57.8917 38.5941 57.5244L38.5965 57.5197ZM53.2637 40.5761C53.2637 40.21 53.3723 39.8522 53.5756 39.5479C53.779 39.2435 54.068 39.0063 54.4062 38.8662C54.7444 38.7261 55.1165 38.6895 55.4755 38.7609C55.8345 38.8323 56.1643 39.0086 56.4231 39.2674C56.682 39.5262 56.8582 39.856 56.9297 40.215C57.0011 40.574 56.9644 40.9461 56.8243 41.2843C56.6843 41.6225 56.447 41.9115 56.1427 42.1149C55.8383 42.3183 55.4805 42.4268 55.1145 42.4268C54.6236 42.4268 54.1529 42.2318 53.8058 41.8847C53.4587 41.5377 53.2637 41.0669 53.2637 40.5761V40.5761ZM47.6546 37.4069C49.5397 35.5218 51.5363 33.4944 53.5388 31.4907C55.5413 29.487 57.9765 31.9187 56.0772 33.8181C54.1778 35.7174 50.0626 39.7699 50.0626 39.7699C49.8804 39.9668 49.6607 40.1255 49.4164 40.2364C49.1721 40.3474 48.9081 40.4084 48.6398 40.416C48.2874 40.4192 47.9431 40.3102 47.6568 40.1047C47.3705 39.8993 47.157 39.608 47.0473 39.2731C46.9375 38.9382 46.9372 38.577 47.0464 38.242C47.1556 37.9069 47.3686 37.6152 47.6546 37.4093V37.4069Z" fill="#FBFBFB"/>
</g>
<defs>
<clipPath id="clip0_860_4946">
<rect width="42.0003" height="34.2891" fill="white" transform="translate(16 24)"/>
</clipPath>
</defs>
</svg>
