<svg width="100%" height="100%" viewBox="0 0 81 81" fill="none" xmlns="http://www.w3.org/2000/svg">
<mask id="mask0_860_5033" style="mask-type:alpha" maskUnits="userSpaceOnUse" x="0" y="0" width="81" height="81">
<rect width="81" height="81" rx="11" fill="#C4C4C4"/>
</mask>
<g mask="url(#mask0_860_5033)">
<rect width="81" height="81" rx="11" fill="#06063E"/>
<path d="M43.0331 40.7381L42.2437 39.9487L30.3195 28.0244L20.0156 38.3283V48.3413C20.0156 49.7955 21.2205 51.0004 22.6747 51.0004H34.8482L44.1549 60.3071V51.0004H49.3484C50.8026 51.0004 52.0075 49.7955 52.0075 48.3413V40.7381H44.1134H43.0331V40.7381Z" fill="white"/>
<path d="M44.4868 22.4534C44.1965 22.1631 43.8028 22 43.3922 22H28.7202C28.3097 22 27.9159 22.1631 27.6256 22.4534L14.6425 35.4365C13.6674 36.4117 14.358 38.079 15.7371 38.079H15.9291C16.3396 38.079 16.7334 37.9159 17.0236 37.6256L29.2696 25.3797C29.8741 24.7752 30.8542 24.7752 31.4587 25.3797L43.7047 37.6256C43.995 37.9159 44.3887 38.079 44.7992 38.079H56.3753C57.7544 38.079 58.445 36.4117 57.4699 35.4365L44.4868 22.4534Z" fill="#F19200"/>
</g>
</svg>
