<svg width="100%" height="100%" viewBox="0 0 81 81" fill="none" xmlns="http://www.w3.org/2000/svg">
<mask id="mask0_1278_6067" style="mask-type:alpha" maskUnits="userSpaceOnUse" x="0" y="0" width="81" height="81">
<rect width="81" height="81" rx="11" fill="#C4C4C4"/>
</mask>
<g mask="url(#mask0_1278_6067)">
<rect width="81" height="81" rx="11" fill="#116DB3"/>
</g>
<g clip-path="url(#clip0_1278_6067)">
<path d="M62.8187 57.7988C62.8187 58.7092 62.0903 59.3466 61.1799 59.3466C60.2694 59.3466 59.541 58.6182 59.541 57.7988C59.541 56.8883 60.2694 56.251 61.1799 56.251C62.0903 56.251 62.8187 56.9793 62.8187 57.7988ZM59.9962 57.7988C59.9962 58.5271 60.5425 59.0734 61.1799 59.0734C61.9082 59.0734 62.3635 58.5271 62.3635 57.7988C62.3635 57.0704 61.9082 56.5241 61.1799 56.5241C60.4515 56.5241 59.9962 57.1614 59.9962 57.7988ZM60.9978 58.6182H60.6336V57.0704H61.2709C61.544 57.0704 61.7261 57.0704 61.8172 57.1614C61.9082 57.2525 61.9993 57.3435 61.9993 57.5256C61.9993 57.7077 61.9082 57.7988 61.7261 57.8898C61.9082 57.9809 61.9993 58.0719 61.9993 58.254C61.9993 58.5271 62.0903 58.6182 62.0903 58.6182H61.7261C61.7261 58.5271 61.6351 58.4361 61.6351 58.254C61.6351 58.0719 61.544 57.9809 61.2709 57.9809H61.0888C60.9978 57.9809 60.9978 58.6182 60.9978 58.6182ZM60.9978 57.7077H61.1799C61.362 57.7077 61.544 57.6167 61.544 57.5256C61.544 57.3435 61.453 57.2525 61.1799 57.2525H60.9978V57.7077Z" fill="#2A6BB3"/>
<path d="M33.4104 24.2021L24.6699 34.4904V49.7863L32.9552 48.6027C32.9552 48.6027 34.503 48.3296 34.6851 49.7863C34.7761 51.4251 33.3194 51.4251 33.3194 51.4251L24.6699 52.8819V56.0685L43.0614 59.4373V34.9457C43.1524 34.9457 33.4104 24.2021 33.4104 24.2021ZM37.7807 45.0519C36.8702 46.2355 35.5045 47.0549 34.0477 47.1459H33.7746C32.2268 47.1459 30.8611 46.4176 29.8596 45.234C28.8581 44.0504 28.2207 42.4115 28.1297 40.6816V40.2264C28.1297 38.4965 28.676 36.8577 29.5865 35.674C30.4969 34.4904 31.8626 33.671 33.3194 33.58H33.5925C35.1403 33.58 36.506 34.3083 37.5075 35.492C38.509 36.6756 39.1464 38.3144 39.2374 40.0443V40.4995C39.2374 42.2294 38.6911 43.7772 37.7807 45.0519Z" fill="#116DB3"/>
<path d="M46.7959 45.5987V51.5167L51.1661 50.7884V45.0524L46.7959 45.5987ZM36.5987 36.1298C35.7792 35.1283 34.6867 34.582 33.5031 34.582H33.321C32.1374 34.6731 31.1358 35.2194 30.4075 36.2209C29.6791 37.2224 29.1328 38.5881 29.1328 40.1359V40.5001C29.2239 42.0479 29.7701 43.4136 30.5896 44.4151C31.409 45.4166 32.5015 45.9629 33.6852 45.9629H33.8672C35.0509 45.8718 36.0524 45.3256 36.7807 44.324C37.5091 43.3225 38.0554 41.9568 38.0554 40.409V40.0448C38.0554 38.497 37.5091 37.1313 36.5987 36.1298ZM30.4985 40.5001C30.4075 38.2239 31.5911 36.2209 33.2299 36.1298C32.2284 36.7672 31.5911 38.497 31.7732 40.409C31.8642 42.4121 32.6836 44.0509 33.7762 44.5061C32.0463 44.6882 30.5896 42.8673 30.4985 40.5001Z" fill="#116DB3"/>
<path d="M52.9844 37.3134V42.9583L56.6262 42.5031V36.9492L52.9844 37.3134ZM52.9844 50.4241L56.6262 49.7868V44.233L52.9844 44.7792V50.4241Z" fill="#116DB3"/>
<path d="M50.8911 21.2891H30.8608L19.0247 35.2192L23.2128 34.9461V50.0599L20.0262 50.424C20.0262 50.424 18.4784 50.6972 18.8426 52.336C19.2068 53.5196 20.3904 53.5196 20.3904 53.5196L23.2128 53.0644V57.0705L43.1521 60.7123L58.8122 57.1615V35.3103L63.0914 34.9461C63.0003 34.855 50.8911 21.2891 50.8911 21.2891V21.2891ZM46.794 37.8596L51.1642 37.4044V43.1403L46.794 43.6866V37.8596ZM24.6696 56.069V52.8823L33.319 51.4256C33.319 51.4256 34.7758 51.4256 34.6847 49.7867C34.5937 48.33 32.9549 48.6031 32.9549 48.6031L24.6696 49.8778V34.4909L33.4101 24.2026L43.1521 34.9461V59.3466L24.6696 56.069ZM46.794 51.5166V45.5986L51.1642 45.0523V50.7882L46.794 51.5166ZM56.536 49.7867L52.8941 50.424V44.7791L56.536 44.2329V49.7867ZM52.9852 42.9582V37.3133L56.627 36.9491V42.503C56.536 42.503 52.9852 42.9582 52.9852 42.9582ZM37.5072 35.4013C36.5057 34.2177 35.14 33.4893 33.5922 33.4893H33.319C31.7712 33.5804 30.4966 34.3998 29.5861 35.5834C28.6757 36.767 28.1294 38.4059 28.1294 40.1358V40.591C28.2204 42.4119 28.8577 44.0508 29.8593 45.1433C30.8608 46.3269 32.2265 47.0553 33.7743 47.0553H34.0474C35.5952 46.9643 36.8699 46.1448 37.7803 44.9612C38.6908 43.7776 39.2371 42.1388 39.2371 40.4089V39.9537C39.146 38.2238 38.5087 36.5849 37.5072 35.4013ZM36.8699 44.3239C36.1415 45.3254 35.0489 45.9628 33.9564 45.9628H33.7743C32.5907 45.9628 31.4981 45.4165 30.6787 44.415C29.8593 43.4134 29.2219 42.0477 29.2219 40.4999V40.1358C29.2219 38.588 29.6772 37.2223 30.4966 36.2207C31.225 35.2192 32.3175 34.5819 33.4101 34.5819H33.5922C34.7758 34.5819 35.8684 35.1282 36.6878 36.1297C37.5072 37.1312 38.1445 38.4969 38.1445 40.0447V40.4089C38.1445 41.9567 37.6893 43.3224 36.8699 44.3239ZM31.7712 40.4089C31.6802 38.4969 32.3175 36.767 33.228 36.1297C31.5892 36.2207 30.3145 38.2238 30.4966 40.4999C30.5876 42.8672 32.0444 44.6881 33.6832 44.5971C32.6817 44.0508 31.8623 42.4119 31.7712 40.4089Z" fill="white"/>
<path d="M46.7969 37.8583L51.1671 37.4941V43.2301L46.7969 43.7764V37.8583Z" fill="#116DB3"/>
</g>
<defs>
<clipPath id="clip0_1278_6067">
<rect width="44.1577" height="39.424" fill="white" transform="translate(18.8418 21.2881)"/>
</clipPath>
</defs>
</svg>
