<svg width="100%" height="100%" viewBox="0 0 81 81" fill="none" xmlns="http://www.w3.org/2000/svg">
<mask id="mask0_860_5057" style="mask-type:alpha" maskUnits="userSpaceOnUse" x="0" y="0" width="81" height="81">
<rect width="81" height="81" rx="11" fill="#C4C4C4"/>
</mask>
<g mask="url(#mask0_860_5057)">
<rect width="81" height="81" rx="11" fill="#28A9E2"/>
</g>
<g clip-path="url(#clip0_860_5057)">
<path d="M55.3106 40.6911C55.1955 40.7538 55.1118 40.8323 55.07 40.916C55.0229 41.005 55.002 41.0991 55.002 41.2038C55.002 41.3555 55.049 41.481 55.1484 41.5804C55.2478 41.6798 55.3839 41.7322 55.567 41.7322C55.7082 41.7322 55.8442 41.7008 55.9646 41.6432C56.0849 41.5804 56.1843 41.502 56.268 41.4078C56.3517 41.3084 56.4145 41.1933 56.4668 41.0625C56.5139 40.9317 56.5401 40.7957 56.5401 40.6597V40.4766C56.2366 40.4766 55.9907 40.4975 55.7867 40.5341C55.5827 40.5812 55.4257 40.6283 55.3106 40.6911Z" fill="white"/>
<path d="M25.3537 38.6562C25.2177 38.6562 25.0869 38.6824 24.9561 38.7347C24.8306 38.787 24.7155 38.8707 24.6108 38.9806C24.5114 39.0957 24.4277 39.237 24.3702 39.4148C24.3074 39.5927 24.2812 39.802 24.2812 40.0531C24.2812 40.571 24.365 40.9529 24.5271 41.1936C24.6946 41.4343 24.9561 41.5546 25.3171 41.5546C25.631 41.5546 25.8874 41.429 26.0809 41.1831C26.2745 40.9373 26.3687 40.571 26.3687 40.1002C26.3687 39.6189 26.2902 39.2579 26.1333 39.0172C25.9711 38.7766 25.7147 38.6562 25.3537 38.6562Z" fill="white"/>
<path d="M40.8286 38.4316C40.5827 38.4316 40.3735 38.5206 40.2061 38.7037C40.0386 38.8868 39.9445 39.1222 39.9131 39.4152H41.6186C41.6343 39.0908 41.5663 38.8449 41.4198 38.6828C41.2785 38.5153 41.0797 38.4316 40.8286 38.4316Z" fill="#28A9E2"/>
<path d="M69.4305 32.1793C67.8296 31.5934 66.0299 31.5672 64.3505 31.4208C62.4619 31.2586 60.4843 31.1121 58.5957 30.9499C54.6667 30.6151 50.7744 30.3483 46.8454 30.0082C39.0293 29.3333 31.2184 28.6427 23.4023 27.9836C21.3724 27.8109 19.3426 27.6278 17.3127 27.4708C15.6961 27.3139 12.7768 27 12.3531 27C9.81571 27.0105 8.54964 28.6794 8.13111 30.772C7.96893 31.5934 7.9637 32.4409 8.0631 33.2675C8.42932 36.2914 8.73275 39.331 9.20883 42.334C9.55412 44.5051 10.2185 46.6397 12.1804 47.8796C14.0638 49.0671 18.0189 48.8056 20.7499 48.8056C23.915 48.8056 27.0802 48.8108 30.2453 48.8108C36.7378 48.8108 43.2251 48.8108 49.7176 48.8003C50.586 48.8003 52.9769 48.8108 52.9769 48.8108C52.9769 48.8108 53.3797 49.1142 53.7407 49.4595C54.672 50.3437 55.6712 51.1546 56.7437 51.8609C58.6219 53.1008 61.3999 54.6232 63.728 54.4139C61.8603 53.0694 60.8139 51.1232 60.6465 48.8422C63.9529 48.7689 68.8184 49.2555 70.8953 46.7234C72.784 44.4267 72.5799 40.8064 72.6793 38.0179C72.784 35.4962 71.9783 33.1106 69.4305 32.1793ZM21.5974 42.9252H19.8343V39.7548H17.0459V42.9252H15.2828V35.3026H17.0459V38.2271H19.8343V35.3026H21.5974V42.9252ZM27.9277 41.2406C27.776 41.6173 27.572 41.9364 27.3051 42.2084C27.0436 42.4753 26.7297 42.6845 26.3687 42.831C26.0077 42.9775 25.6153 43.0507 25.1968 43.0507C24.7887 43.0507 24.4225 42.9984 24.0929 42.8938C23.7633 42.7892 23.4756 42.6217 23.2401 42.3968C23.0047 42.1718 22.8216 41.8788 22.6908 41.5283C22.5653 41.1726 22.4973 40.7488 22.4973 40.2518C22.4973 39.7914 22.5705 39.3729 22.717 38.9962C22.8635 38.6195 23.0727 38.3004 23.3395 38.0283C23.6064 37.7615 23.9203 37.5523 24.2812 37.4058C24.6422 37.2593 25.0398 37.186 25.4688 37.186C26.3268 37.186 26.9912 37.4215 27.4569 37.8871C27.9225 38.3527 28.1579 39.059 28.1579 40.0007C28.1527 40.4506 28.0794 40.8639 27.9277 41.2406ZM37.3342 42.9252H35.6078V39.4043C35.6078 39.1636 35.5712 38.97 35.5032 38.834C35.4299 38.6928 35.2991 38.6248 35.1056 38.6248C34.98 38.6248 34.8492 38.6666 34.7184 38.7451C34.5876 38.8236 34.4725 38.9334 34.3627 39.0799C34.258 39.2212 34.1743 39.3938 34.1115 39.5874C34.0488 39.7862 34.0174 39.9954 34.0174 40.2204V42.9252H32.3118V39.3938C32.3118 39.1688 32.2752 38.9805 32.2072 38.8392C32.1392 38.698 32.0032 38.6248 31.7991 38.6248C31.6631 38.6248 31.5271 38.6666 31.3911 38.7503C31.2551 38.834 31.1347 38.9491 31.0353 39.0904C30.9307 39.2316 30.847 39.4043 30.7842 39.5926C30.7214 39.7862 30.69 39.9954 30.69 40.2204V42.9252H28.9793V37.3116H30.5854C30.5854 37.4162 30.5802 37.5523 30.5697 37.7197C30.5592 37.8871 30.5435 38.044 30.5174 38.1958H30.5279C30.7005 37.8819 30.9464 37.636 31.2603 37.4581C31.5742 37.2802 31.9299 37.1913 32.3328 37.1913C32.767 37.1913 33.1071 37.2854 33.3634 37.479C33.6145 37.6674 33.7872 37.908 33.8813 38.201C34.0331 37.9237 34.258 37.6883 34.5562 37.4895C34.8544 37.2907 35.2206 37.1913 35.6496 37.1913C36.199 37.1913 36.6175 37.3482 36.9052 37.6621C37.193 37.976 37.3395 38.4521 37.3395 39.0904V42.9252H37.3342ZM43.3088 40.1524C43.2983 40.278 43.2826 40.4087 43.2669 40.5552H39.9134C39.9187 40.9267 40.039 41.2092 40.264 41.4132C40.4889 41.6173 40.8395 41.7167 41.3051 41.7167C41.5771 41.7167 41.8544 41.6905 42.1317 41.633C42.409 41.5754 42.6862 41.4865 42.9583 41.3661L43.1257 42.6636C42.8013 42.7892 42.456 42.8886 42.0898 42.9513C41.7236 43.0141 41.3678 43.0455 41.0226 43.0455C40.1018 43.0455 39.3955 42.8153 38.909 42.3549C38.4172 41.8945 38.1713 41.1673 38.1713 40.1733C38.1713 39.7443 38.2289 39.3467 38.3492 38.9753C38.4643 38.6091 38.6422 38.2899 38.8671 38.0231C39.0973 37.7563 39.3798 37.547 39.7146 37.3953C40.0495 37.2436 40.4366 37.1703 40.8761 37.1703C41.2998 37.1703 41.6661 37.2384 41.9747 37.3744C42.2834 37.5104 42.5397 37.6935 42.7385 37.9289C42.9373 38.1644 43.0838 38.4364 43.178 38.7555C43.2722 39.0694 43.3193 39.4147 43.3193 39.7809C43.3245 39.9065 43.3193 40.0268 43.3088 40.1524ZM48.6712 41.5179C48.5248 41.8318 48.3155 42.0986 48.0487 42.3288C47.7819 42.559 47.4627 42.7368 47.0965 42.8676C46.7251 42.9932 46.317 43.0612 45.8671 43.0612C45.5061 43.0612 45.1765 43.0455 44.8835 43.0089C44.5906 42.9775 44.3133 42.9252 44.0465 42.8572L44.2139 41.1883C44.4598 41.2929 44.7266 41.3766 45.0091 41.4342C45.2916 41.4969 45.5898 41.5231 45.9089 41.5231C46.1967 41.5231 46.4373 41.4603 46.6414 41.3348C46.8454 41.2092 46.9448 41.0104 46.9448 40.7331C46.9448 40.5134 46.8716 40.346 46.7198 40.2256C46.5681 40.1053 46.3798 39.9954 46.1548 39.9013C45.9299 39.8071 45.684 39.7129 45.4224 39.6135C45.1608 39.5141 44.9149 39.3833 44.69 39.2159C44.465 39.0485 44.2767 38.8392 44.1249 38.5777C43.9732 38.3161 43.9 37.976 43.9 37.547C43.9 37.186 43.968 36.8617 44.104 36.5687C44.24 36.281 44.4336 36.0298 44.69 35.8153C44.9463 35.6061 45.2602 35.4439 45.6317 35.3288C46.0031 35.2137 46.4321 35.1614 46.9134 35.1614C47.107 35.1614 47.3372 35.1719 47.5883 35.1928C47.8446 35.2137 48.0801 35.2556 48.2998 35.3079L48.1428 36.846C47.7139 36.6943 47.2796 36.621 46.8349 36.621C46.4739 36.621 46.2071 36.689 46.0397 36.8198C45.8461 36.9663 45.7677 37.1703 45.7886 37.4319C45.8043 37.5784 45.8828 37.7092 45.9926 37.8034C46.1496 37.9289 46.3484 38.0493 46.589 38.1539C46.8192 38.2533 47.0651 38.3579 47.3319 38.4626C47.5988 38.5672 47.8499 38.7032 48.0748 38.8759C48.305 39.0433 48.4986 39.2578 48.6503 39.5194C48.802 39.7809 48.8805 40.1105 48.8805 40.5081C48.891 40.8691 48.8177 41.204 48.6712 41.5179ZM52.2392 43.0037C52.0143 43.035 51.7998 43.0507 51.5957 43.0507C51.2714 43.0507 50.9993 43.0193 50.7848 42.9618C50.5651 42.899 50.3872 42.7996 50.2564 42.6636C50.1204 42.5223 50.0262 42.3392 49.9687 42.109C49.9112 41.8788 49.885 41.5911 49.885 41.2458V38.6352H49.0375V37.3116H49.885V35.6532L51.6114 35.1928V37.3168H52.82V38.6404H51.6114V40.8534C51.6114 41.1412 51.6533 41.34 51.737 41.4498C51.8207 41.5649 51.9724 41.6173 52.1869 41.6173C52.2916 41.6173 52.391 41.612 52.4851 41.5963C52.5793 41.5806 52.6735 41.5649 52.7729 41.5388L52.8723 42.8833C52.6787 42.9304 52.4694 42.9723 52.2392 43.0037ZM56.6914 42.9252C56.6914 42.7892 56.6914 42.6479 56.6966 42.5066C56.7018 42.3654 56.7123 42.2189 56.7385 42.0776H56.728C56.592 42.3706 56.3723 42.606 56.0636 42.7839C55.7549 42.9618 55.4044 43.0507 55.012 43.0507C54.74 43.0507 54.5045 43.0089 54.3005 42.9199C54.0965 42.831 53.9291 42.7159 53.793 42.5642C53.657 42.4125 53.5524 42.2398 53.4844 42.041C53.4111 41.8422 53.3745 41.6277 53.3745 41.3923C53.3745 41.0365 53.453 40.7331 53.6099 40.482C53.7669 40.2309 53.9866 40.0268 54.2639 39.8647C54.5412 39.7077 54.876 39.5874 55.2631 39.5141C55.6503 39.4409 56.074 39.399 56.5344 39.399V39.1741C56.5344 38.9387 56.4612 38.766 56.3147 38.6561C56.1682 38.5463 55.9066 38.4887 55.53 38.4887C55.2841 38.4887 55.0173 38.5253 54.74 38.5986C54.4627 38.6718 54.2116 38.7608 53.9814 38.8654L53.6884 37.5209C53.9814 37.4162 54.3162 37.3325 54.6981 37.2645C55.08 37.2017 55.4515 37.1703 55.8229 37.1703C56.299 37.1703 56.6914 37.2122 57.0053 37.3011C57.3192 37.3901 57.5703 37.5156 57.7586 37.6831C57.947 37.8505 58.0778 38.0597 58.1562 38.3004C58.2295 38.541 58.2713 38.8183 58.2713 39.127V41.6016C58.2713 41.8056 58.2766 42.0253 58.2818 42.2555C58.287 42.4909 58.3027 42.7159 58.3132 42.9304H56.6914V42.9252ZM62.5352 38.8811C62.0591 38.7765 61.7033 38.8602 61.4627 39.1375C61.222 39.4147 61.1017 39.9013 61.1017 40.6128V42.9252H59.3962V37.3116H60.9918C60.9918 37.4319 60.9866 37.5837 60.9761 37.7668C60.9656 37.9499 60.9447 38.1277 60.9133 38.3056H60.9343C61.086 37.9656 61.2952 37.6883 61.5673 37.4686C61.8393 37.2488 62.1899 37.1547 62.6189 37.1756L62.5352 38.8811ZM66.7623 41.9259C66.642 42.1614 66.4694 42.3654 66.2496 42.5276C66.0299 42.695 65.7579 42.8205 65.4492 42.9095C65.1353 42.9984 64.79 43.0455 64.4029 43.0455C63.9529 43.0455 63.5344 42.9932 63.163 42.8886L63.2519 41.4865C63.5972 41.6382 63.9896 41.7114 64.4238 41.7114C64.6435 41.7114 64.8109 41.6696 64.9312 41.5911C65.0516 41.5126 65.1144 41.4028 65.1144 41.2667C65.1144 41.1307 65.062 41.0261 64.9626 40.9424C64.8632 40.8639 64.7324 40.7959 64.5807 40.7331C64.4238 40.6756 64.2616 40.6075 64.0837 40.5395C63.9058 40.4715 63.7384 40.3774 63.5867 40.257C63.435 40.1367 63.3042 39.9798 63.2048 39.7862C63.1054 39.5926 63.0531 39.3467 63.0531 39.0328C63.0531 38.7765 63.1002 38.5358 63.1996 38.3056C63.299 38.0754 63.4455 37.8766 63.6495 37.7092C63.8535 37.5418 64.1099 37.4058 64.4238 37.3064C64.7377 37.207 65.1091 37.1599 65.5381 37.1599C65.6898 37.1599 65.852 37.1703 66.0247 37.186C66.1973 37.207 66.3647 37.2279 66.5217 37.2593L66.4641 38.6038C66.3229 38.5515 66.1659 38.5149 65.9933 38.4887C65.8259 38.4678 65.6585 38.4573 65.491 38.4573C65.2713 38.4573 65.1091 38.4992 65.0045 38.5777C64.8999 38.6561 64.8475 38.7608 64.8475 38.8863C64.8475 39.0067 64.8999 39.1061 65.0045 39.1793C65.1091 39.2526 65.2399 39.3258 65.3916 39.3938C65.5434 39.4618 65.716 39.5351 65.8939 39.6083C66.077 39.6815 66.2444 39.7809 66.3961 39.9013C66.5478 40.0216 66.6786 40.1786 66.7833 40.3721C66.8879 40.5657 66.9402 40.8116 66.9402 41.1098C66.9402 41.4237 66.8827 41.6853 66.7623 41.9259Z" fill="white"/>
</g>
<defs>
<clipPath id="clip0_860_5057">
<rect width="64.7" height="27.4348" fill="white" transform="translate(8 27)"/>
</clipPath>
</defs>
</svg>
