<svg width="100%" height="100%" viewBox="0 0 81 81" fill="none" xmlns="http://www.w3.org/2000/svg">
<mask id="mask0_860_5092" style="mask-type:alpha" maskUnits="userSpaceOnUse" x="0" y="0" width="81" height="81">
<rect width="81" height="81" rx="11" fill="#C4C4C4"/>
</mask>
<g mask="url(#mask0_860_5092)">
<rect width="81" height="81" rx="11" fill="#EC2C45"/>
<path d="M46.0618 29.166C46.0618 28.0324 46.3952 26.9987 46.9954 26.1318C45.2282 26.6653 43.8945 28.2991 43.8945 30.233V33.6672L46.0284 33.7673V29.166H46.0618Z" fill="white"/>
<path d="M43.9277 52.839C43.9277 54.8062 45.2281 56.44 47.0286 56.9401C46.4284 56.0732 46.095 55.0396 46.095 53.9059V47.4375H43.9611V52.839H43.9277Z" fill="white"/>
<path d="M49.296 47.4707H47.1621V53.9392C47.1621 55.9064 48.4625 57.5401 50.263 58.0403C49.6628 57.1734 49.3294 56.1398 49.3294 55.0061V47.4707H49.296Z" fill="white"/>
<path d="M49.2971 28.0986C49.2971 26.965 49.6639 25.9314 50.2307 25.0645C48.4636 25.5979 47.1299 27.2317 47.1299 29.1656V33.8335L49.2638 33.9336V28.0986H49.2971Z" fill="white"/>
<path d="M25.0559 26.7314C23.4888 27.665 22.4219 29.3655 22.4219 31.3327V51.7717C22.4219 53.7389 23.4888 55.4393 25.0559 56.3729C24.7558 55.606 24.5558 54.8058 24.5558 53.9056V29.1654C24.5558 28.2985 24.7225 27.465 25.0559 26.7314Z" fill="white"/>
<path d="M27.7902 27.0328C27.7902 26.1659 27.9569 25.3323 28.2903 24.5654C26.7232 25.499 25.6562 27.1995 25.6562 29.1667V53.9068C25.6562 56.2074 27.1233 58.1747 29.1572 58.9415C28.2903 57.8412 27.7902 56.4742 27.7902 55.0071V27.0328Z" fill="white"/>
<path d="M54.6644 23.7981C52.2971 23.7981 50.3632 25.732 50.3632 28.0993V35.1012L39.6269 34.5344V26.999C39.6269 24.0315 37.2262 21.6309 34.2588 21.6309C31.2913 21.6309 28.8906 24.0315 28.8906 26.999V54.9733C28.8906 57.9408 31.2913 60.3415 34.2588 60.3415C37.2262 60.3415 39.6269 57.9408 39.6269 54.9733V46.371H50.3965V54.9733C50.3965 57.3407 52.3304 59.2745 54.6977 59.2745C57.065 59.2745 58.9989 57.3407 58.9989 54.9733V28.0993C58.9655 25.732 57.0317 23.7981 54.6644 23.7981Z" fill="white"/>
</g>
</svg>
