<svg width="100%" height="100%" viewBox="0 0 81 81" fill="none" xmlns="http://www.w3.org/2000/svg">
<mask id="mask0_860_4712" style="mask-type:alpha" maskUnits="userSpaceOnUse" x="0" y="0" width="81" height="81">
<rect width="81" height="81" rx="11" fill="#C4C4C4"/>
</mask>
<g mask="url(#mask0_860_4712)">
<rect width="81" height="81" rx="11" fill="#FFD300"/>
<path d="M74.0576 6.95996H5.93164V75.086H74.0576V6.95996Z" fill="#FFD300"/>
<path d="M69.4213 39.4262L68.4277 37.623L68.1241 37.071C68.2989 36.8594 68.4461 36.6386 68.5933 36.4086C68.9889 35.7462 69.2281 35.0102 69.3017 34.2282C69.3753 33.4278 69.2741 32.609 68.9981 31.8546C68.7129 31.0818 68.2622 30.3826 67.6826 29.849C66.5878 28.8278 65.2537 28.3126 63.7173 28.3126C63.7081 28.3126 63.6898 28.3126 63.6806 28.3126L52.0517 28.3034C51.2605 28.3034 50.5705 28.7818 50.2669 29.4626C50.1473 29.3798 50.0277 29.297 49.8989 29.2142C48.7213 28.469 47.4241 28.0918 46.0533 28.0918C45.6301 28.0918 45.1977 28.1286 44.7653 28.2022C43.4865 28.4138 42.3734 28.9014 41.4442 29.6558C41.1774 28.8922 40.4506 28.3494 39.6042 28.3494H37.0558C36.2922 28.3494 35.6298 28.791 35.3078 29.435L35.1145 29.1682C34.7465 28.653 34.1578 28.3402 33.5138 28.3402L27.3774 28.3126C26.8254 28.3126 26.3286 28.5426 25.9698 28.9106C25.611 28.5426 25.1142 28.3126 24.5622 28.3126L17.8646 28.3494C17.3126 28.3494 16.8158 28.5794 16.4662 28.9382C16.1074 28.5702 15.6106 28.3402 15.0586 28.3402H12.5286C11.4522 28.3402 10.5782 29.2142 10.5782 30.2906V40.3554C10.5782 41.1098 11.0014 41.763 11.627 42.085C11.0842 42.8946 10.6794 44.0354 10.8634 45.581C10.9646 46.4182 11.2774 47.1726 11.7834 47.8166C11.6822 47.8718 11.581 47.9362 11.4798 47.9914C11.4706 47.9914 11.4614 48.0006 11.4614 48.0006L11.3786 48.0466C10.5322 48.5342 10.1734 49.5646 10.5414 50.4754L10.5966 50.6226C10.5966 50.6318 10.5966 50.6318 10.6058 50.641C11.1486 51.9474 12.0778 52.9502 13.3014 53.5206C14.3042 53.999 15.353 54.2382 16.411 54.2382C17.3494 54.2382 18.2878 54.0542 19.2078 53.677C19.8702 53.4102 20.4406 53.0238 20.9098 52.5362C21.0846 52.3522 21.241 52.159 21.3882 51.9474V52.0302C21.3882 53.1066 22.2622 53.9806 23.3386 53.9806H29.9534C30.8182 53.9806 31.5818 53.539 31.8302 52.7018L31.913 52.3062L32.2902 52.2234L32.465 52.7662C32.7318 53.5666 33.4769 53.9898 34.3233 53.9898H41.0945C41.8489 53.9898 42.5113 53.5574 42.8333 52.9318C43.1553 53.5666 43.8178 53.999 44.5722 53.999H47.1113C47.9945 53.999 48.7305 53.4194 48.9789 52.619C49.4849 53.033 50.0461 53.3734 50.6533 53.631C51.5457 54.0174 52.4841 54.2198 53.4409 54.229C53.4685 54.229 53.4961 54.229 53.5237 54.229C54.4989 54.229 55.4373 54.0358 56.3297 53.6678C56.8633 53.447 57.3601 53.1618 57.8293 52.8122C57.9305 53.0422 58.0685 53.2538 58.2433 53.4286C58.6113 53.7966 59.1081 53.999 59.6233 53.999H62.1993C62.9721 53.999 63.6345 53.5574 63.9473 52.9134L64.1221 53.1618C64.4901 53.6862 65.0881 53.999 65.7229 53.999H67.6917C68.7681 53.999 69.6421 53.125 69.6421 52.0486V41.947C69.6421 41.671 69.5869 41.4134 69.4857 41.1742C69.7341 40.6222 69.7157 39.969 69.4213 39.4262Z" fill="white"/>
<path d="M48.5932 39.9692C49.8076 39.3804 50.5896 38.396 50.9668 37.0988C51.206 36.2708 51.1784 35.4244 51.0312 34.5872C50.9852 34.3112 50.9392 34.0444 50.8932 33.7592L45.9068 34.5872L46.2656 36.7768C47.0752 36.6388 47.8572 36.51 48.6668 36.3812C48.5104 37.016 48.1608 37.4668 47.6088 37.752C47.0292 38.0464 46.4036 38.1568 45.7504 38.12C45.226 38.0924 44.7384 37.9176 44.3336 37.5772C43.3952 36.7676 43.0916 35.728 43.3768 34.5596C43.7632 32.9312 45.2996 32.416 46.5508 32.6C47.066 32.6736 47.526 32.8944 47.894 33.29C48.538 32.7564 49.182 32.232 49.8352 31.6984C49.5408 31.3672 49.228 31.0912 48.8692 30.8704C47.71 30.1344 46.4496 29.9044 45.0972 30.1252C43.9472 30.3184 42.9352 30.806 42.144 31.68C40.9664 32.9772 40.5156 34.4952 40.81 36.2248C41.1504 38.2028 42.2636 39.592 44.1404 40.2912C45.64 40.8432 47.158 40.6592 48.5932 39.9692Z" fill="#602F17"/>
<path d="M53.5616 41.7081C50.7004 41.6897 48.2256 43.9897 48.2624 46.9797C48.2164 49.9973 50.6912 52.2421 53.4512 52.2697C56.386 52.3065 58.7595 49.9421 58.7963 47.0625C58.8331 44.0541 56.4044 41.7265 53.5616 41.7081ZM53.5339 49.7397C51.9699 49.7489 50.8291 48.5989 50.8199 47.0165C50.8107 45.4157 51.9424 44.2565 53.5248 44.2473C55.0888 44.2473 56.2296 45.3881 56.2388 46.9797C56.248 48.5713 55.1071 49.7305 53.5339 49.7397Z" fill="#602F17"/>
<path d="M34.1033 40.3833V35.3049L37.6361 40.3833H39.6049V30.2817H37.0565V35.2957L33.5237 30.2725H31.5273C31.5273 30.2725 31.5273 37.1265 31.5273 40.3925H34.1033V40.3833Z" fill="#602F17"/>
<path d="M62.254 37.2551L63.2108 37.1171L64.9496 40.3647C64.9496 40.3647 67.6452 40.3647 67.7096 40.3647C67.0196 39.1135 66.3296 37.8715 65.6488 36.6295C65.704 36.5927 65.75 36.5651 65.796 36.5375C67.866 35.2219 67.7096 32.5355 66.3388 31.2659C65.5844 30.5575 64.692 30.2539 63.6708 30.2539H59.7148V40.3555H62.254V37.2551ZM62.2724 32.6367H63.6892C64.2412 32.6367 64.6368 32.9495 64.7564 33.4463C64.8944 34.0443 64.6828 34.5963 64.1676 34.8171C63.9284 34.9183 63.6524 34.9551 63.3856 35.0011C63.036 35.0563 62.6772 35.0931 62.2724 35.1391V32.6367Z" fill="#602F17"/>
<path d="M17.8833 30.2725V34.0537L15.0773 34.5597V30.2725H12.5381V40.3557H15.0773V36.8689L17.8833 36.3629V40.3557H20.4225L20.4133 30.2725H17.8833Z" fill="#602F17"/>
<path d="M30.3679 41.9375L27.1387 52.1679H29.9447L30.5243 50.1991L33.4959 49.6655L34.3147 52.1679H36.9827L33.6339 41.9375H30.3679V41.9375ZM31.2419 47.7519L32.0515 44.9643L32.8059 47.4851C32.2907 47.5771 31.7847 47.6599 31.2419 47.7519Z" fill="#602F17"/>
<path d="M22.0597 37.6414C22.2437 38.9018 22.9797 39.7574 24.1297 40.245C25.0773 40.6498 26.0617 40.6774 27.0553 40.4934C27.5521 40.4014 28.0121 40.2174 28.4353 39.9414C29.4933 39.2514 29.9625 38.2486 29.9625 37.0066V30.2446H27.3957V36.7398C27.3957 36.8594 27.3865 36.979 27.3773 37.0986C27.3129 37.577 27.0461 37.8898 26.5769 38.0094C26.1905 38.1106 25.8041 38.1106 25.4269 38.0094C24.9577 37.8898 24.6909 37.577 24.6173 37.1078C24.5989 36.979 24.5897 36.8502 24.5897 36.7214V30.2354H22.0229V37.0342C22.0137 37.2366 22.0321 37.4482 22.0597 37.6414Z" fill="#602F17"/>
<path d="M58.4927 37.9543H54.6103V36.4363H58.0603V34.0535H54.6195V32.6459H58.4375V30.2539H52.0527V40.3831H58.4927V37.9543Z" fill="#602F17"/>
<path d="M19.3091 46.9613C19.0055 46.7589 18.6927 46.5657 18.3523 46.4277C17.8647 46.2253 17.3495 46.0689 16.8527 45.8849C16.4847 45.7469 16.1075 45.5997 15.7487 45.4341C15.5647 45.3513 15.4175 45.1949 15.3715 44.9833C15.2795 44.6153 15.5187 44.2933 15.9327 44.2013C16.6411 44.0541 17.2943 44.3301 17.6715 44.9557C17.7359 45.0569 17.7911 45.1673 17.8555 45.2869C18.5731 44.8637 19.2723 44.4497 19.9899 44.0265C19.7415 43.4101 19.2447 42.8029 18.6835 42.4257C17.6715 41.7449 16.5583 41.5977 15.3899 41.8093C14.7643 41.9197 14.2123 42.1957 13.7431 42.6281C12.9335 43.3641 12.6943 44.3025 12.8231 45.3513C12.9151 46.1149 13.2831 46.7037 13.9087 47.1453C14.3963 47.4949 14.9207 47.7433 15.4911 47.9273C15.9787 48.0837 16.4663 48.2217 16.9447 48.3965C17.1563 48.4701 17.3587 48.5897 17.5243 48.7369C17.8371 49.0221 17.7543 49.4913 17.3679 49.6661C17.2115 49.7397 17.0275 49.7765 16.8527 49.7949C15.8499 49.9053 15.0587 49.5557 14.5987 48.5897C14.5803 48.5529 14.5619 48.5253 14.5435 48.4793C14.4975 48.4977 14.4607 48.5161 14.4239 48.5437C13.7799 48.9209 13.1083 49.3165 12.4551 49.6937L12.3447 49.7581L12.3999 49.9053C12.7495 50.7425 13.3107 51.3865 14.1203 51.7637C15.5463 52.4353 17.0091 52.4629 18.4719 51.8741C19.2631 51.5521 19.8427 50.9725 20.1095 50.1353C20.3211 49.4637 20.3211 48.7829 20.1187 48.1021C19.9807 47.6237 19.7139 47.2281 19.3091 46.9613Z" fill="#602F17"/>
<path d="M36.0537 44.4405H38.5193V52.0397H41.0861V44.4313H43.5517V41.9473H36.0537V44.4405Z" fill="#602F17"/>
<path d="M47.1027 41.9375H44.5635V52.0299H47.1027V41.9375Z" fill="#602F17"/>
<path d="M65.1435 46.9607L61.6107 41.9375H59.6143C59.6143 41.9375 59.6143 48.7915 59.6143 52.0575H62.1903V46.9791L65.7231 52.0575H67.6919V41.9467H65.1527V46.9607H65.1435Z" fill="#602F17"/>
<path d="M28.3623 41.9473H20.8643V44.4405H23.3299V52.0397H25.8967V44.4313H28.3623V41.9473Z" fill="#602F17"/>
</g>
</svg>
