<svg width="100%" height="100%" viewBox="0 0 81 81" fill="none" xmlns="http://www.w3.org/2000/svg">
<mask id="mask0_860_4750" style="mask-type:alpha" maskUnits="userSpaceOnUse" x="0" y="0" width="81" height="81">
<rect width="81" height="81" rx="11" fill="#C4C4C4"/>
</mask>
<g mask="url(#mask0_860_4750)">
<rect width="81" height="81" rx="11" fill="#EEC648"/>
</g>
<g clip-path="url(#clip0_860_4750)">
<path d="M1.61719 1.80859C1.61719 1.63816 1.47903 1.5 1.30859 1.5C1.13816 1.5 1 1.63816 1 1.80859C1 1.97903 1.13816 2.11719 1.30859 2.11719C1.47903 2.11719 1.61719 1.97903 1.61719 1.80859Z" fill="#F5C518"/>
<path d="M10.875 29.8906V52.1094H17.0469V29.8906H10.875Z" fill="black"/>
<path d="M30.2208 29.8906L28.8395 40.2698L27.9812 34.6245C27.7324 32.8162 27.4937 31.2383 27.2652 29.8906H19.5156V52.1094H24.7514L24.7717 37.4374L26.9757 52.1094H30.7032L32.7955 37.1139L32.8107 52.1094H38.0312V29.8906H30.2208Z" fill="black"/>
<path d="M40.5 52.1094V29.8906H50.1338C52.3122 29.8906 54.0781 31.6434 54.0781 33.8117V48.1883C54.0781 50.3538 52.315 52.1094 50.1338 52.1094H40.5ZM47.6992 33.8894C47.4544 33.7571 46.986 33.6934 46.3048 33.6934V48.2723C47.2042 48.2723 47.7577 48.1106 47.9653 47.7725C48.1728 47.4392 48.2793 46.5375 48.2793 45.0576V36.4426C48.2793 35.438 48.242 34.796 48.1728 34.5118C48.1036 34.2275 47.9493 34.0217 47.6992 33.8894H47.6992Z" fill="black"/>
<path d="M65.7182 35.4538H66.1127C68.3286 35.4538 70.125 37.1891 70.125 39.3273V48.2359C70.125 50.3752 68.3292 52.1094 66.1127 52.1094H65.7182C64.3623 52.1094 63.1635 51.4597 62.4372 50.4655L62.0817 51.824H56.5469V29.8906H62.4525V37.026C63.2156 36.075 64.3915 35.4538 65.7182 35.4538ZM64.4537 46.2883V41.0235C64.4537 40.1536 64.3979 39.5828 64.2816 39.32C64.1652 39.0572 63.7008 38.8885 63.375 38.8885C63.0493 38.8885 62.5469 39.0256 62.4492 39.2567V48.1686C62.5609 48.4223 63.04 48.5635 63.375 48.5635C63.7101 48.5635 64.1978 48.4269 64.3002 48.1686C64.4026 47.9104 64.4537 47.2806 64.4537 46.2883Z" fill="black"/>
</g>
<defs>
<clipPath id="clip0_860_4750">
<rect width="79" height="79" fill="white" transform="translate(1 1.5)"/>
</clipPath>
</defs>
</svg>
