<svg width="100%" height="100%" viewBox="0 0 81 81" fill="none" xmlns="http://www.w3.org/2000/svg">
<mask id="mask0_860_4870" style="mask-type:alpha" maskUnits="userSpaceOnUse" x="0" y="0" width="81" height="81">
<rect width="81" height="81" rx="11" fill="#C4C4C4"/>
</mask>
<g mask="url(#mask0_860_4870)">
<rect width="81" height="81" rx="11" fill="#085FF7"/>
</g>
<g clip-path="url(#clip0_860_4870)">
<path d="M43.58 36.0537C37.9852 38.9237 31.722 33.574 33.6732 27.596C35.6332 21.6162 43.846 21.0037 46.6635 26.63C48.4222 30.0827 47.0467 34.3107 43.5817 36.0607L43.58 36.0537ZM36.0707 13.33C41.83 11.2352 48.4205 11.3437 53.352 15.6277C54.3897 16.4835 55.2122 17.579 55.739 18.8267C56.2307 20.4297 53.989 18.6605 53.688 18.4347C52.1287 17.369 50.4452 16.5115 48.6672 15.8727C38.9512 12.903 29.762 18.3157 24.085 26.7367C21.7697 30.4467 20.0022 34.477 18.835 38.6945C18.7247 39.2142 18.562 39.7165 18.3432 40.1995C18.0895 40.6737 18.2242 38.9132 18.2242 38.8607C18.4342 37.102 18.772 35.352 19.227 33.637C21.8607 24.46 27.6952 16.8212 36.0707 13.3212V13.33ZM36.153 62.3212V41.869C36.7357 41.932 37.2817 41.96 37.8662 41.96C40.5192 41.9687 43.1162 41.239 45.386 39.8722V62.3125C45.386 64.2375 45.029 65.6497 44.1627 66.5807C43.2965 67.5275 42.068 68.049 40.7817 68.0017C39.5147 68.049 38.295 67.5275 37.4445 66.5807C36.5887 65.641 36.1425 64.22 36.1425 62.323L36.153 62.3212Z" fill="#FAFAFA"/>
</g>
<defs>
<clipPath id="clip0_860_4870">
<rect width="56" height="56" fill="white" transform="translate(9 12)"/>
</clipPath>
</defs>
</svg>
