<svg width="100%" height="100%" viewBox="0 0 81 81" fill="none" xmlns="http://www.w3.org/2000/svg">
<mask id="mask0_1278_6071" style="mask-type:alpha" maskUnits="userSpaceOnUse" x="0" y="0" width="81" height="81">
<rect width="81" height="81" rx="11" fill="#C4C4C4"/>
</mask>
<g mask="url(#mask0_1278_6071)">
<rect width="81" height="81" rx="11" fill="#E48468"/>
</g>
<g clip-path="url(#clip0_1278_6071)">
<path fill-rule="evenodd" clip-rule="evenodd" d="M40.8018 38.9467C40.7965 39.0454 40.7854 39.1461 40.7694 39.2456C40.7642 39.2788 40.7583 39.3118 40.752 39.3446C40.7406 39.4041 40.7273 39.4627 40.7131 39.5201C40.6957 39.5898 40.6769 39.6579 40.6563 39.7228C40.641 39.7709 40.6249 39.8172 40.6083 39.8618C40.6004 39.8829 40.5926 39.9035 40.5844 39.9236C40.5363 40.0435 40.4849 40.146 40.4342 40.2202C40.2128 40.5449 39.8988 40.8034 39.5422 40.967C39.3577 41.0517 38.8486 41.1385 38.5126 41.0733C38.4973 41.0702 38.4805 41.0688 38.466 41.0651C38.4657 41.0651 38.4683 41.0446 38.4714 41.0182C38.4735 41.0021 38.4757 40.9844 38.4778 40.967C38.4788 40.9596 38.4797 40.9519 38.4805 40.945C38.5174 40.6494 38.5612 40.381 38.6289 40.0795C38.6395 40.0314 38.6494 39.9846 38.6615 39.9344C38.6836 39.8437 38.7083 39.7476 38.7355 39.65C38.8111 39.3802 38.9075 39.0965 39.0287 38.8691C39.1743 38.596 39.3698 38.2732 39.6454 38.085C39.6704 38.0678 39.6961 38.0519 39.7224 38.0372C39.828 37.9782 39.9446 37.9391 40.0733 37.9291C40.1082 37.9264 40.1415 37.9256 40.1736 37.9265C40.3497 37.9321 40.4814 37.9932 40.5784 38.0909C40.6576 38.1708 40.7139 38.2753 40.7501 38.3967C40.7583 38.4236 40.7653 38.4514 40.7715 38.4799C40.7961 38.5938 40.8063 38.7188 40.8048 38.8486C40.8045 38.881 40.8034 38.9137 40.8018 38.9467ZM54.4581 37.413C54.4581 37.413 54.4146 37.4103 54.3383 37.4103C53.7671 37.4103 51.877 37.5594 51.533 39.4783C51.3965 40.2384 51.8533 40.9294 52.5255 41.3991C52.8451 41.6224 53.2035 41.7922 53.5143 41.9341L53.5825 41.9651C53.8583 42.09 54.1433 42.2193 54.393 42.4014C54.6093 42.5593 54.8877 42.8268 54.9845 43.2038C55.1187 43.7323 54.5946 44.3283 53.4803 44.3503C51.9823 44.3798 52.5863 42.7298 51.9474 42.2313C51.7976 42.1145 51.6396 42.0748 51.4684 42.0748C51.0841 42.0748 50.6693 42.3287 50.5036 42.6657C50.4227 42.8301 50.397 43.0288 50.4218 43.2373C50.3171 43.4113 50.2006 43.5763 50.0422 43.7015C49.9762 43.7538 49.8979 43.8007 49.8138 43.795C49.7054 43.7877 49.6194 43.6912 49.5904 43.5865C49.5614 43.4818 49.5773 43.3703 49.5968 43.2634C49.8569 41.8284 50.6859 40.465 50.5152 39.0164C50.4747 38.6723 50.3736 38.3278 50.1683 38.0485C49.8346 37.5942 49.247 37.3629 48.684 37.3919C48.1211 37.421 47.5873 37.6875 47.1669 38.063C46.7465 38.4388 46.5192 38.7671 46.2614 39.2686C46.2499 38.8841 46.1896 38.6538 46.0287 38.2796C45.8767 37.9264 45.4593 37.6023 45.0485 37.487C44.7841 37.4128 44.3782 37.3867 44.1111 37.4501C43.5401 37.5859 43.0545 37.9461 42.6923 38.3999C42.6518 38.3279 42.607 38.2589 42.5543 38.1951C42.5127 38.1447 42.4677 38.0967 42.4201 38.0509C42.3727 38.0053 42.3228 37.9619 42.2711 37.9205C42.2414 37.8969 42.2099 37.8761 42.1788 37.8543C42.056 37.7685 41.9233 37.6959 41.7813 37.6387C41.7222 37.6149 41.6614 37.5935 41.5995 37.5742C40.8576 37.3435 39.9482 37.4355 39.2693 37.6356C38.9532 37.7288 38.6461 37.853 38.3568 38.0098C38.022 38.1913 37.7117 38.4166 37.4396 38.6813C37.3618 38.7573 37.2871 38.8364 37.216 38.918C37.0407 39.1191 36.8883 39.3384 36.7548 39.5687C36.7224 39.6247 36.6886 39.6797 36.6586 39.737C36.4719 40.0955 36.3347 40.4773 36.2384 40.8688C36.2062 40.9994 36.1786 41.131 36.1551 41.2632C36.1548 41.2643 36.1548 41.2654 36.1545 41.2664C36.1443 41.3249 36.1358 41.3831 36.1286 41.4413C36.1263 41.4619 36.1247 41.4822 36.1227 41.5027C36.1188 41.5415 36.1149 41.5801 36.1124 41.6185C36.1106 41.6431 36.11 41.6677 36.1089 41.6921C36.1074 41.7263 36.1062 41.7605 36.1058 41.7944C36.1055 41.8211 36.1058 41.8475 36.1063 41.874C36.1068 41.9056 36.1076 41.9369 36.1089 41.9681C36.1103 41.9962 36.1119 42.0241 36.1138 42.052C36.1159 42.0812 36.1186 42.1104 36.1215 42.1396C36.1245 42.1687 36.1275 42.1979 36.1314 42.227C36.1349 42.2537 36.139 42.2802 36.1432 42.3069C36.1479 42.3376 36.1527 42.3684 36.1585 42.3989C36.1628 42.4218 36.1679 42.4443 36.1728 42.4668C36.18 42.5008 36.1869 42.5348 36.1952 42.5682C36.1964 42.5732 36.1979 42.578 36.1991 42.5828C36.2352 42.7253 36.2821 42.8646 36.3385 43.0003C36.343 43.011 36.3471 43.0218 36.3518 43.0325C36.3581 43.0475 36.3655 43.0623 36.3723 43.0772C36.0918 43.4352 35.6933 43.8151 35.2239 43.7817C35.1301 43.7751 35.0354 43.7481 34.9624 43.6891C34.8541 43.6017 34.8085 43.4561 34.8032 43.317C34.7947 43.098 34.8442 42.8727 34.8951 42.6609C34.9078 42.6076 34.9233 42.5427 34.9413 42.4662C35.2317 41.2369 36.1092 37.4096 36.1092 37.4096C36.0015 37.4804 35.8939 37.5383 35.7891 37.5859C35.2167 37.8458 34.5534 37.853 33.9761 37.6044C33.7465 37.5055 33.6605 37.41 33.6605 37.41C32.9884 40.7108 32.2548 42.5193 32.2548 42.5193C31.8222 43.5172 31.3316 44.0069 30.8697 43.9891C30.8638 43.9883 30.8578 43.9875 30.8517 43.9868C30.3283 43.917 30.3956 43.1314 30.5045 42.5584C30.5385 42.4037 30.5766 42.2298 30.6173 42.0443C30.8275 41.0994 31.3681 38.6939 31.3711 38.6804C31.3898 38.5999 31.4011 38.5507 31.4018 38.5483C31.5332 37.9616 31.1641 37.3795 30.5776 37.2481C29.9908 37.1165 29.4087 37.4856 29.2773 38.0723C29.2762 38.0768 28.8968 39.7323 28.896 39.7551L28.2226 42.7611C28.1587 42.8579 28.0872 42.9601 28.0466 42.9947C27.9227 43.1009 27.3149 43.6972 26.8455 43.8183C26.7828 43.8344 26.7179 43.8559 26.6583 43.8309C26.3974 43.7211 26.4535 43.2079 26.4798 43.0644L28.7551 32.8789C28.7551 32.8789 27.3823 33.6634 26.2058 32.8789L24.8726 38.7386L24.2208 41.4563C23.4313 44.961 25.5561 44.8795 25.5561 44.8795C26.0953 44.8978 26.5045 44.6771 26.886 44.4347C27.4453 44.0792 27.9335 43.665 28.249 43.3759C28.5159 45.0035 29.9337 44.8839 29.9337 44.8839C31.7686 44.8882 32.5657 42.843 32.5657 42.843C32.621 45.0004 33.8536 44.8527 33.8536 44.8527C35.2169 44.8559 36.1543 43.9856 36.5875 43.4741C36.6114 43.5111 36.6356 43.5478 36.6612 43.5838C36.6661 43.5908 36.6714 43.5979 36.6765 43.6049C36.7694 43.7339 36.872 43.8577 36.9865 43.9736C37.1579 44.1474 37.3484 44.2953 37.5523 44.4208V44.421L37.5525 44.4211C37.6008 44.4508 37.6495 44.4798 37.6995 44.5068C37.7605 44.5406 37.8225 44.5726 37.8863 44.6015L37.8882 44.6024C37.9319 44.6221 37.9766 44.6393 38.0214 44.6564C38.207 44.7273 38.4002 44.7779 38.5962 44.8115C38.6603 44.8227 38.7241 44.83 38.7879 44.8386C38.9272 44.8578 39.0669 44.8723 39.2079 44.8795C39.2272 44.8806 39.2464 44.883 39.2657 44.8838C39.2615 44.8839 39.2572 44.8839 39.2532 44.8839H39.2666C39.2666 44.8839 39.2661 44.8838 39.2658 44.8838H39.2687H39.2733C39.428 44.8814 39.5824 44.8699 39.7361 44.8519C39.7821 44.8465 39.8282 44.8433 39.8738 44.8361C39.9245 44.8281 39.9747 44.8181 40.0251 44.8082C40.0814 44.7972 40.1374 44.7847 40.1932 44.7712C40.3693 44.7288 40.5428 44.6758 40.7112 44.6095C40.8393 44.5589 40.9634 44.4991 41.0849 44.435C41.2847 44.3293 41.4761 44.2077 41.6533 44.0672C41.9151 43.8594 42.147 43.6162 42.3467 43.3486C42.4132 43.2594 42.4762 43.1676 42.5355 43.0733C42.5772 43.0116 42.6258 42.9011 42.6173 42.7918C42.6122 42.7263 42.5866 42.6612 42.5264 42.6073C42.5118 42.5893 42.4561 42.5301 42.3601 42.5301C42.3166 42.5301 42.2709 42.5445 42.2221 42.5722C42.193 42.5888 42.1627 42.6092 42.1301 42.6378C42.0955 42.6813 41.2708 43.6715 40.0541 43.7026H40.054C39.9977 43.7026 39.9412 43.6993 39.8848 43.695C39.6727 43.6719 39.4092 43.5923 39.1658 43.3928C38.8523 43.1188 38.4978 42.5824 38.4561 41.5479L38.455 41.5055C38.4601 41.5055 39.0346 41.501 39.8811 41.4323C39.9943 41.423 40.106 41.4043 40.217 41.3817C40.4005 41.3442 40.5812 41.2922 40.7571 41.2286C41.7215 40.8801 42.8628 40.1896 42.8566 39.0327C42.8566 39.0126 42.8551 38.9925 42.854 38.9722C42.9531 38.8431 43.0599 38.7199 43.181 38.6112C43.251 38.5482 43.3349 38.501 43.4288 38.493C43.8013 38.4614 43.9766 38.762 43.9583 38.9498C43.9221 39.3182 43.8383 39.6802 43.7546 40.0408C43.3822 41.646 43.0098 43.251 42.6374 44.8562C43.4541 44.8571 44.2709 44.8578 45.0877 44.8587C45.4654 43.124 45.8464 41.3787 46.5227 39.7373C46.7101 39.2828 46.9309 38.8223 47.3064 38.5051C47.5243 38.3209 47.8546 38.1954 48.0871 38.3609C48.3026 38.5142 48.3136 38.8265 48.2853 39.0895C48.1654 40.209 47.7294 41.2701 47.5192 42.3762C47.4474 42.7542 47.4021 43.1424 47.4575 43.5229C47.513 43.9036 47.6777 44.2787 47.9696 44.5292C48.4756 44.9635 49.2697 44.9254 49.8406 44.5811C50.1301 44.4066 50.3798 44.105 50.5988 43.7747C51.0886 44.6758 52.2574 44.8077 53.3221 44.8571C53.3227 44.8573 53.3564 44.8587 53.416 44.8587C53.9092 44.8587 56.2662 44.8935 56.4154 42.6847C56.4432 42.2745 56.377 41.8866 56.2016 41.5305C56.0172 41.1559 55.7155 40.8305 55.3043 40.5632C55.0601 40.4046 54.7834 40.2806 54.516 40.1607C54.0712 39.9615 53.6113 39.7555 53.2731 39.3804C53.1397 39.2322 53.0459 39.0765 52.9945 38.9179C52.9748 38.8568 52.9641 38.7951 52.9572 38.7337C52.9579 38.6129 53.0141 37.9138 54.22 37.8626C54.7433 37.8402 54.992 37.9039 55.1547 38.0539C55.1881 38.0862 55.2182 38.1209 55.2453 38.1574C55.2509 38.1649 55.2565 38.1723 55.2617 38.1799C55.2739 38.1975 55.2858 38.2153 55.2967 38.234C55.4225 38.4517 55.37 38.6705 55.3576 38.881C55.3442 39.1001 55.3306 39.3265 55.4707 39.5642C55.4793 39.5786 55.6266 39.9459 56.125 39.9459C56.1858 39.9459 56.2488 39.9408 56.3138 39.9304C56.35 39.9256 57.2006 39.8044 57.1256 39.0332C57.1251 39.018 57.0323 37.4974 54.4581 37.413Z" fill="white"/>
<path fill-rule="evenodd" clip-rule="evenodd" d="M40.8018 38.9467C40.7965 39.0454 40.7854 39.1461 40.7694 39.2456C40.7642 39.2788 40.7583 39.3118 40.752 39.3446C40.7406 39.4041 40.7273 39.4627 40.7131 39.5201C40.6957 39.5898 40.6769 39.6579 40.6563 39.7228C40.641 39.7709 40.6249 39.8172 40.6083 39.8618C40.6004 39.8829 40.5926 39.9035 40.5844 39.9236C40.5363 40.0435 40.4849 40.146 40.4342 40.2202C40.2128 40.5449 39.8988 40.8034 39.5422 40.967C39.3577 41.0517 38.8486 41.1385 38.5126 41.0733C38.4973 41.0702 38.4805 41.0688 38.466 41.0651C38.4657 41.0651 38.4683 41.0446 38.4714 41.0182C38.4735 41.0021 38.4757 40.9844 38.4778 40.967C38.4788 40.9596 38.4797 40.9519 38.4805 40.945C38.5174 40.6494 38.5612 40.381 38.6289 40.0795C38.6395 40.0314 38.6494 39.9846 38.6615 39.9344C38.6836 39.8437 38.7083 39.7476 38.7355 39.65C38.8111 39.3802 38.9075 39.0965 39.0287 38.8691C39.1743 38.596 39.3698 38.2732 39.6454 38.085C39.6704 38.0678 39.6961 38.0519 39.7224 38.0372C39.828 37.9782 39.9446 37.9391 40.0733 37.9291C40.1082 37.9264 40.1415 37.9256 40.1736 37.9265C40.3497 37.9321 40.4814 37.9932 40.5784 38.0909C40.6576 38.1708 40.7139 38.2753 40.7501 38.3967C40.7583 38.4236 40.7653 38.4514 40.7715 38.4799C40.7961 38.5938 40.8063 38.7188 40.8048 38.8486C40.8045 38.881 40.8034 38.9137 40.8018 38.9467ZM54.4581 37.413C54.4581 37.413 54.4146 37.4103 54.3383 37.4103C53.7671 37.4103 51.877 37.5594 51.533 39.4783C51.3965 40.2384 51.8533 40.9294 52.5255 41.3991C52.8451 41.6224 53.2035 41.7922 53.5143 41.9341L53.5825 41.9651C53.8583 42.09 54.1433 42.2193 54.393 42.4014C54.6093 42.5593 54.8877 42.8268 54.9845 43.2038C55.1187 43.7323 54.5946 44.3283 53.4803 44.3503C51.9823 44.3798 52.5863 42.7298 51.9474 42.2313C51.7976 42.1145 51.6396 42.0748 51.4684 42.0748C51.0841 42.0748 50.6693 42.3287 50.5036 42.6657C50.4227 42.8301 50.397 43.0288 50.4218 43.2373C50.3171 43.4113 50.2006 43.5763 50.0422 43.7015C49.9762 43.7538 49.8979 43.8007 49.8138 43.795C49.7054 43.7877 49.6194 43.6912 49.5904 43.5865C49.5614 43.4818 49.5773 43.3703 49.5968 43.2634C49.8569 41.8284 50.6859 40.465 50.5152 39.0164C50.4747 38.6723 50.3736 38.3278 50.1683 38.0485C49.8346 37.5942 49.247 37.3629 48.684 37.3919C48.1211 37.421 47.5873 37.6875 47.1669 38.063C46.7465 38.4388 46.5192 38.7671 46.2614 39.2686C46.2499 38.8841 46.1896 38.6538 46.0287 38.2796C45.8767 37.9264 45.4593 37.6023 45.0485 37.487C44.7841 37.4128 44.3782 37.3867 44.1111 37.4501C43.5401 37.5859 43.0545 37.9461 42.6923 38.3999C42.6518 38.3279 42.607 38.2589 42.5543 38.1951C42.5127 38.1447 42.4677 38.0967 42.4201 38.0509C42.3727 38.0053 42.3228 37.9619 42.2711 37.9205C42.2414 37.8969 42.2099 37.8761 42.1788 37.8543C42.056 37.7685 41.9233 37.6959 41.7813 37.6387C41.7222 37.6149 41.6614 37.5935 41.5995 37.5742C40.8576 37.3435 39.9482 37.4355 39.2693 37.6356C38.9532 37.7288 38.6461 37.853 38.3568 38.0098C38.022 38.1913 37.7117 38.4166 37.4396 38.6813C37.3618 38.7573 37.2871 38.8364 37.216 38.918C37.0407 39.1191 36.8883 39.3384 36.7548 39.5687C36.7224 39.6247 36.6886 39.6797 36.6586 39.737C36.4719 40.0955 36.3347 40.4773 36.2384 40.8688C36.2062 40.9994 36.1786 41.131 36.1551 41.2632C36.1548 41.2643 36.1548 41.2654 36.1545 41.2664C36.1443 41.3249 36.1358 41.3831 36.1286 41.4413C36.1263 41.4619 36.1247 41.4822 36.1227 41.5027C36.1188 41.5415 36.1149 41.5801 36.1124 41.6185C36.1106 41.6431 36.11 41.6677 36.1089 41.6921C36.1074 41.7263 36.1062 41.7605 36.1058 41.7944C36.1055 41.8211 36.1058 41.8475 36.1063 41.874C36.1068 41.9056 36.1076 41.9369 36.1089 41.9681C36.1103 41.9962 36.1119 42.0241 36.1138 42.052C36.1159 42.0812 36.1186 42.1104 36.1215 42.1396C36.1245 42.1687 36.1275 42.1979 36.1314 42.227C36.1349 42.2537 36.139 42.2802 36.1432 42.3069C36.1479 42.3376 36.1527 42.3684 36.1585 42.3989C36.1628 42.4218 36.1679 42.4443 36.1728 42.4668C36.18 42.5008 36.1869 42.5348 36.1952 42.5682C36.1964 42.5732 36.1979 42.578 36.1991 42.5828C36.2352 42.7253 36.2821 42.8646 36.3385 43.0003C36.343 43.011 36.3471 43.0218 36.3518 43.0325C36.3581 43.0475 36.3655 43.0623 36.3723 43.0772C36.0918 43.4352 35.6933 43.8151 35.2239 43.7817C35.1301 43.7751 35.0354 43.7481 34.9624 43.6891C34.8541 43.6017 34.8085 43.4561 34.8032 43.317C34.7947 43.098 34.8442 42.8727 34.8951 42.6609C34.9078 42.6076 34.9233 42.5427 34.9413 42.4662C35.2317 41.2369 36.1092 37.4096 36.1092 37.4096C36.0015 37.4804 35.8939 37.5383 35.7891 37.5859C35.2167 37.8458 34.5534 37.853 33.9761 37.6044C33.7465 37.5055 33.6605 37.41 33.6605 37.41C32.9884 40.7108 32.2548 42.5193 32.2548 42.5193C31.8222 43.5172 31.3316 44.0069 30.8697 43.9891C30.8638 43.9883 30.8578 43.9875 30.8517 43.9868C30.3283 43.917 30.3956 43.1314 30.5045 42.5584C30.5385 42.4037 30.5766 42.2298 30.6173 42.0443C30.8275 41.0994 31.3681 38.6939 31.3711 38.6804C31.3898 38.5999 31.4011 38.5507 31.4018 38.5483C31.5332 37.9616 31.1641 37.3795 30.5776 37.2481C29.9908 37.1165 29.4087 37.4856 29.2773 38.0723C29.2762 38.0768 28.8968 39.7323 28.896 39.7551L28.2226 42.7611C28.1587 42.8579 28.0872 42.9601 28.0466 42.9947C27.9227 43.1009 27.3149 43.6972 26.8455 43.8183C26.7828 43.8344 26.7179 43.8559 26.6583 43.8309C26.3974 43.7211 26.4535 43.2079 26.4798 43.0644L28.7551 32.8789C28.7551 32.8789 27.3823 33.6634 26.2058 32.8789L24.8726 38.7386L24.2208 41.4563C23.4313 44.961 25.5561 44.8795 25.5561 44.8795C26.0953 44.8978 26.5045 44.6771 26.886 44.4347C27.4453 44.0792 27.9335 43.665 28.249 43.3759C28.5159 45.0035 29.9337 44.8839 29.9337 44.8839C31.7686 44.8882 32.5657 42.843 32.5657 42.843C32.621 45.0004 33.8536 44.8527 33.8536 44.8527C35.2169 44.8559 36.1543 43.9856 36.5875 43.4741C36.6114 43.5111 36.6356 43.5478 36.6612 43.5838C36.6661 43.5908 36.6714 43.5979 36.6765 43.6049C36.7694 43.7339 36.872 43.8577 36.9865 43.9736C37.1579 44.1474 37.3484 44.2953 37.5523 44.4208V44.421L37.5525 44.4211C37.6008 44.4508 37.6495 44.4798 37.6995 44.5068C37.7605 44.5406 37.8225 44.5726 37.8863 44.6015L37.8882 44.6024C37.9319 44.6221 37.9766 44.6393 38.0214 44.6564C38.207 44.7273 38.4002 44.7779 38.5962 44.8115C38.6603 44.8227 38.7241 44.83 38.7879 44.8386C38.9272 44.8578 39.0669 44.8723 39.2079 44.8795C39.2272 44.8806 39.2464 44.883 39.2657 44.8838C39.2615 44.8839 39.2572 44.8839 39.2532 44.8839H39.2666C39.2666 44.8839 39.2661 44.8838 39.2658 44.8838H39.2687H39.2733C39.428 44.8814 39.5824 44.8699 39.7361 44.8519C39.7821 44.8465 39.8282 44.8433 39.8738 44.8361C39.9245 44.8281 39.9747 44.8181 40.0251 44.8082C40.0814 44.7972 40.1374 44.7847 40.1932 44.7712C40.3693 44.7288 40.5428 44.6758 40.7112 44.6095C40.8393 44.5589 40.9634 44.4991 41.0849 44.435C41.2847 44.3293 41.4761 44.2077 41.6533 44.0672C41.9151 43.8594 42.147 43.6162 42.3467 43.3486C42.4132 43.2594 42.4762 43.1676 42.5355 43.0733C42.5772 43.0116 42.6258 42.9011 42.6173 42.7918C42.6122 42.7263 42.5866 42.6612 42.5264 42.6073C42.5118 42.5893 42.4561 42.5301 42.3601 42.5301C42.3166 42.5301 42.2709 42.5445 42.2221 42.5722C42.193 42.5888 42.1627 42.6092 42.1301 42.6378C42.0955 42.6813 41.2708 43.6715 40.0541 43.7026H40.054C39.9977 43.7026 39.9412 43.6993 39.8848 43.695C39.6727 43.6719 39.4092 43.5923 39.1658 43.3928C38.8523 43.1188 38.4978 42.5824 38.4561 41.5479L38.455 41.5055C38.4601 41.5055 39.0346 41.501 39.8811 41.4323C39.9943 41.423 40.106 41.4043 40.217 41.3817C40.4005 41.3442 40.5812 41.2922 40.7571 41.2286C41.7215 40.8801 42.8628 40.1896 42.8566 39.0327C42.8566 39.0126 42.8551 38.9925 42.854 38.9722C42.9531 38.8431 43.0599 38.7199 43.181 38.6112C43.251 38.5482 43.3349 38.501 43.4288 38.493C43.8013 38.4614 43.9766 38.762 43.9583 38.9498C43.9221 39.3182 43.8383 39.6802 43.7546 40.0408C43.3822 41.646 43.0098 43.251 42.6374 44.8562C43.4541 44.8571 44.2709 44.8578 45.0877 44.8587C45.4654 43.124 45.8464 41.3787 46.5227 39.7373C46.7101 39.2828 46.9309 38.8223 47.3064 38.5051C47.5243 38.3209 47.8546 38.1954 48.0871 38.3609C48.3026 38.5142 48.3136 38.8265 48.2853 39.0895C48.1654 40.209 47.7294 41.2701 47.5192 42.3762C47.4474 42.7542 47.4021 43.1424 47.4575 43.5229C47.513 43.9036 47.6777 44.2787 47.9696 44.5292C48.4756 44.9635 49.2697 44.9254 49.8406 44.5811C50.1301 44.4066 50.3798 44.105 50.5988 43.7747C51.0886 44.6758 52.2574 44.8077 53.3221 44.8571C53.3227 44.8573 53.3564 44.8587 53.416 44.8587C53.9092 44.8587 56.2662 44.8935 56.4154 42.6847C56.4432 42.2745 56.377 41.8866 56.2016 41.5305C56.0172 41.1559 55.7155 40.8305 55.3043 40.5632C55.0601 40.4046 54.7834 40.2806 54.516 40.1607C54.0712 39.9615 53.6113 39.7555 53.2731 39.3804C53.1397 39.2322 53.0459 39.0765 52.9945 38.9179C52.9748 38.8568 52.9641 38.7951 52.9572 38.7337C52.9579 38.6129 53.0141 37.9138 54.22 37.8626C54.7433 37.8402 54.992 37.9039 55.1547 38.0539C55.1881 38.0862 55.2182 38.1209 55.2453 38.1574C55.2509 38.1649 55.2565 38.1723 55.2617 38.1799C55.2739 38.1975 55.2858 38.2153 55.2967 38.234C55.4225 38.4517 55.37 38.6705 55.3576 38.881C55.3442 39.1001 55.3306 39.3265 55.4707 39.5642C55.4793 39.5786 55.6266 39.9459 56.125 39.9459C56.1858 39.9459 56.2488 39.9408 56.3138 39.9304C56.35 39.9256 57.2006 39.8044 57.1256 39.0332C57.1251 39.018 57.0323 37.4974 54.4581 37.413Z" fill="white" stroke="white" stroke-width="0.0214803"/>
<path fill-rule="evenodd" clip-rule="evenodd" d="M66.0385 38.9456C66.0334 39.0443 66.0221 39.1449 66.0063 39.2445C66.001 39.2776 65.9951 39.3106 65.9887 39.3435C65.9773 39.403 65.9642 39.4615 65.9498 39.5189C65.9326 39.5886 65.9138 39.6567 65.8932 39.7216C65.8777 39.7698 65.8616 39.816 65.8451 39.8607C65.8371 39.8818 65.8293 39.9023 65.8211 39.9224C65.7731 40.0424 65.7216 40.1449 65.6709 40.2191C65.4497 40.5438 65.1355 40.8023 64.7789 40.9659C64.5944 41.0506 64.0855 41.1374 63.7493 41.0721C63.7341 41.0691 63.7172 41.0677 63.7027 41.064C63.7026 41.064 63.705 41.0434 63.7083 41.0171C63.7102 41.001 63.7125 40.9833 63.7147 40.9659C63.7156 40.9584 63.7164 40.9508 63.7174 40.9439C63.7541 40.6482 63.7979 40.3798 63.8656 40.0784C63.8764 40.0302 63.8863 39.9835 63.8984 39.9333C63.9204 39.8425 63.9451 39.7465 63.9724 39.6489C64.0478 39.3791 64.1442 39.0953 64.2655 38.8679C64.411 38.5949 64.6067 38.2721 64.8821 38.0839C64.9071 38.0667 64.9328 38.0507 64.9593 38.0361C65.0649 37.9771 65.1813 37.938 65.3102 37.9279C65.3449 37.9252 65.3784 37.9244 65.4105 37.9254C65.5865 37.931 65.7181 37.9921 65.8151 38.0898C65.8943 38.1697 65.9508 38.2742 65.987 38.3955C65.9951 38.4225 66.002 38.4502 66.0082 38.4788C66.0329 38.5927 66.043 38.7177 66.0417 38.8475C66.0414 38.8799 66.0403 38.9126 66.0385 38.9456ZM73.7866 37.4061C73.0471 37.4061 72.3872 37.7563 71.9818 38.5185C71.8679 38.7325 71.7382 39.0108 71.6408 39.2335L71.6164 39.2343C71.5513 38.5155 71.3418 38.0168 70.7659 37.6814C70.5265 37.5418 70.1836 37.4552 69.9069 37.4552C69.7629 37.4552 69.6166 37.4648 69.472 37.4836C69.2422 37.5139 69.035 37.587 68.8432 37.6729C68.4481 37.8495 68.1625 38.1421 67.955 38.4493C67.9092 38.3585 67.856 38.2723 67.7912 38.194C67.7496 38.1436 67.7045 38.0956 67.6569 38.0498C67.6096 38.0042 67.5595 37.9608 67.5078 37.9193C67.4783 37.8957 67.4466 37.875 67.4156 37.8531C67.2927 37.7673 67.1601 37.6948 67.0182 37.6375C66.9589 37.6138 66.8983 37.5924 66.8364 37.5731C66.0945 37.3423 65.1851 37.4343 64.5062 37.6345C64.1899 37.7276 63.8829 37.8519 63.5936 38.0086C63.2587 38.1901 62.9485 38.4155 62.6763 38.6802C62.5985 38.7561 62.524 38.8352 62.4529 38.9169C62.2774 39.118 62.1251 39.3373 61.9915 39.5676C61.9593 39.6236 61.9253 39.6786 61.8955 39.7358C61.7086 40.0943 61.5714 40.4761 61.4751 40.8677C61.443 40.9983 61.4154 41.1299 61.3918 41.2621L61.3914 41.2653C61.3811 41.3238 61.3725 41.382 61.3655 41.4402C61.3631 41.4608 61.3615 41.481 61.3595 41.5016C61.3555 41.5404 61.3516 41.579 61.3492 41.6174C61.3475 41.642 61.3467 41.6665 61.3456 41.6909C61.3441 41.7252 61.3429 41.7593 61.3426 41.7933C61.3424 41.8199 61.3427 41.8464 61.3432 41.8729C61.3435 41.9045 61.3443 41.9357 61.3457 41.967C61.347 41.9951 61.3486 42.023 61.3505 42.0509C61.3528 42.0801 61.3555 42.1092 61.3583 42.1384C61.3614 42.1676 61.3642 42.1968 61.3681 42.2258C61.3716 42.2526 61.3759 42.2791 61.38 42.3057C61.3848 42.3365 61.3896 42.3673 61.3953 42.3977C61.3995 42.4207 61.4047 42.4432 61.4095 42.4657C61.4167 42.4997 61.4236 42.5336 61.4319 42.5671C61.4331 42.5721 61.4347 42.5768 61.436 42.5816C61.4719 42.7242 61.5188 42.8634 61.5752 42.9992C61.5797 43.0098 61.5838 43.0207 61.5885 43.0314C61.6052 43.0703 61.6231 43.1086 61.6416 43.1468C61.6475 43.1588 61.6531 43.1711 61.659 43.183C61.6639 43.1931 61.6695 43.203 61.6748 43.213C61.551 43.3288 61.3936 43.4739 61.219 43.6111C61.1282 43.6825 61.033 43.7516 60.9359 43.813C60.8387 43.8742 60.7399 43.928 60.6418 43.9683C60.6091 43.9819 60.5766 43.9937 60.5442 44.0041C60.4466 44.0352 60.3509 44.0513 60.2595 44.0468C60.2184 44.0449 60.1804 44.0382 60.1434 44.0296C60.1334 44.0273 60.1236 44.0245 60.1139 44.0218C60.0846 44.0131 60.0566 44.0029 60.0302 43.9905C60.0241 43.9878 60.0176 43.9856 60.0117 43.9824C59.9801 43.9663 59.9507 43.9474 59.9235 43.9262C59.9181 43.9221 59.9131 43.9175 59.908 43.9131C59.8852 43.8942 59.8637 43.8736 59.8439 43.8516C59.8394 43.8465 59.8348 43.8417 59.8302 43.8364C59.8079 43.8096 59.7874 43.7808 59.7688 43.7503C59.7514 43.7218 59.7361 43.6915 59.7224 43.6604C59.7205 43.6564 59.7181 43.6527 59.7163 43.6487C59.7149 43.6451 59.7133 43.6412 59.7115 43.6376C59.6933 43.5927 59.6796 43.5457 59.6681 43.4977C59.6611 43.4688 59.6543 43.4398 59.6498 43.4101C59.6414 43.3532 59.6374 43.2955 59.638 43.2381C59.6383 43.2023 59.6409 43.1669 59.6444 43.1318C59.645 43.1264 59.6455 43.1212 59.6461 43.1157C59.6504 43.0802 59.6562 43.0452 59.6642 43.0113V43.0106L59.9748 41.6715L60.6724 38.6624C60.6745 38.6529 60.6796 38.645 60.6869 38.6392C60.6941 38.6335 60.703 38.6301 60.7128 38.6301L61.1166 38.6295L61.5216 38.6289C61.6861 38.6289 61.7684 38.504 61.7842 38.4169L61.8478 38.1614L61.9564 37.7236C61.9661 37.6712 61.9696 37.6358 61.9684 37.6098C61.9679 37.5969 61.9661 37.5863 61.9633 37.5771C61.9607 37.5678 61.9569 37.56 61.9524 37.5527C61.9377 37.5284 61.9186 37.5112 61.8987 37.497C61.8657 37.4736 61.8304 37.4611 61.8089 37.4594L60.919 37.457H60.9118L60.9108 37.4613L60.91 37.4637L61.1135 36.5599L61.3172 35.6555C61.3189 35.645 61.3201 35.6328 61.3215 35.6209C61.3277 35.5617 61.326 35.4904 61.2829 35.4395C61.2796 35.4373 61.2717 35.4352 61.2622 35.4333C61.2397 35.4289 61.2024 35.4252 61.1545 35.4225C61.1368 35.4214 61.1177 35.4204 61.0977 35.4196C60.8858 35.4104 60.5628 35.4112 60.4995 35.4112C60.4423 35.4112 60.3976 35.44 60.3812 35.4525L60.371 35.4576L60.3657 35.4603L60.3558 35.4767L60.349 35.4883C59.9948 36.0687 59.6407 36.5199 59.3023 36.8744C59.0991 37.0871 58.902 37.2653 58.7138 37.4157C58.2124 37.8168 57.7762 38.0216 57.4714 38.1646C57.3899 38.2029 57.3179 38.237 57.2569 38.2686C57.2442 38.2751 57.2348 38.2826 57.2239 38.2896C57.1581 38.3332 57.1236 38.3869 57.125 38.451C57.1258 38.4809 57.1361 38.5059 57.1493 38.5282C57.171 38.5657 57.2041 38.5938 57.2372 38.6091L57.2539 38.6203L58.1282 38.6271L57.4781 41.3372C57.2595 42.1488 57.1876 42.6362 57.1667 42.909C57.1622 42.9697 57.1601 43.0197 57.1595 43.0604C57.1579 43.162 57.1656 43.205 57.166 43.2081C57.1687 43.2567 57.1742 43.3109 57.1813 43.3671C57.1839 43.3885 57.1864 43.41 57.1896 43.431C57.1935 43.4562 57.1989 43.4825 57.2038 43.5089C57.2128 43.5562 57.2231 43.6022 57.2348 43.6463C57.2419 43.6738 57.2494 43.7014 57.2577 43.7293C57.2619 43.742 57.2659 43.7546 57.2702 43.7671C57.3706 44.0781 57.5612 44.404 57.9087 44.6224C57.913 44.6252 57.9164 44.6291 57.9209 44.6319C57.9349 44.6413 57.9515 44.6476 57.966 44.6565C57.9901 44.67 58.014 44.6838 58.0394 44.6964C58.2681 44.816 58.5389 44.8782 58.8675 44.8782H58.8701C58.9289 44.8755 59.2178 44.8884 59.6377 44.8062C59.7975 44.7767 59.9688 44.7343 60.1391 44.6734C60.5404 44.5412 61.0022 44.3222 61.4764 43.9599C61.5462 43.9082 61.6149 43.8548 61.6805 43.7972L61.6982 43.7819C61.7371 43.7478 61.7813 43.7092 61.8216 43.6674C61.835 43.6535 61.848 43.6392 61.8601 43.6245C61.8727 43.6093 61.8843 43.5939 61.895 43.5781C61.896 43.5797 61.8969 43.5811 61.8979 43.5827C61.9028 43.5897 61.9082 43.5967 61.9132 43.6038C62.0062 43.7328 62.1087 43.8565 62.2232 43.9725C62.3947 44.1463 62.5852 44.2941 62.7891 44.4197V44.4198L62.7894 44.42C62.8377 44.4496 62.8863 44.4787 62.9363 44.5056C62.9973 44.5394 63.0594 44.5715 63.1232 44.6004L63.1249 44.6013C63.1688 44.6209 63.2134 44.6382 63.2581 44.6552C63.4437 44.7262 63.6369 44.7767 63.833 44.8104C63.897 44.8216 63.9609 44.8289 64.0246 44.8375C64.164 44.8566 64.3037 44.8712 64.4448 44.8783C64.4641 44.8794 64.4831 44.8818 64.5025 44.8826C64.4984 44.8828 64.4941 44.8828 64.4899 44.8828H64.5035C64.5035 44.8828 64.503 44.8826 64.5027 44.8826H64.5054H64.5102C64.6649 44.8802 64.8193 44.8688 64.9728 44.8507C65.0188 44.8453 65.065 44.8421 65.1106 44.835C65.1614 44.827 65.2116 44.8169 65.262 44.807C65.3181 44.796 65.3743 44.7836 65.4299 44.77C65.606 44.7276 65.7795 44.6747 65.9481 44.6083C66.076 44.5578 66.2002 44.498 66.3216 44.4339C66.5214 44.3281 66.713 44.2066 66.8901 44.0661C67.152 43.8583 67.3837 43.6151 67.5836 43.3475C67.6499 43.2583 67.7129 43.1665 67.7724 43.0722C67.8139 43.0105 67.8627 42.9 67.8542 42.7907C67.8491 42.7252 67.8234 42.6601 67.7633 42.6062C67.7485 42.5882 67.6928 42.529 67.5968 42.529C67.5533 42.529 67.5078 42.5434 67.459 42.5711C67.4297 42.5877 67.3994 42.6081 67.3668 42.6367C67.3322 42.6802 66.5075 43.6704 65.2909 43.7015C65.2346 43.7015 65.1779 43.6982 65.1215 43.6939C64.9095 43.6707 64.6461 43.5912 64.4027 43.3916C64.089 43.1176 63.7346 42.5813 63.693 41.5467L63.6917 41.5043C63.697 41.5043 64.2714 41.4999 65.1178 41.4311C65.2312 41.4219 65.3428 41.4032 65.4538 41.3806C65.6372 41.3431 65.8179 41.2911 65.994 41.2275C66.9584 40.879 68.0997 40.1884 68.0934 39.0316C68.0933 39.0062 68.0915 38.9808 68.0901 38.9555C68.0893 38.9424 68.0882 38.9295 68.0872 38.9166C68.174 38.7799 68.2692 38.6499 68.3829 38.5356C68.4714 38.4463 68.6515 38.2965 68.8618 38.2965C68.9237 38.2965 68.9837 38.3097 69.0403 38.3357C69.2833 38.4475 69.3227 38.7917 69.3245 38.9869C69.3273 39.287 69.243 39.5976 69.1612 39.8982C69.1318 40.0058 69.1031 40.1122 69.0786 40.2162C68.9869 40.6093 68.8958 41.0026 68.8049 41.396C68.6046 42.2631 68.4049 43.1304 68.2057 43.9977L68.0534 44.6608C68.0515 44.6693 68.0044 44.8546 67.9995 44.8828H70.5259C70.744 43.8171 70.9856 42.7869 71.2545 41.8372C71.4438 41.1691 71.6181 40.6174 71.8035 40.101C71.9194 39.7783 71.9999 39.5815 72.1298 39.2644C72.3564 38.7112 72.5452 38.6159 72.6111 38.5617C72.6109 38.5689 72.61 38.5756 72.61 38.5828C72.61 39.2325 73.1369 39.7594 73.7866 39.7594C74.4365 39.7594 74.9633 39.2325 74.9633 38.5828C74.9633 37.9329 74.4365 37.4061 73.7866 37.4061Z" fill="white"/>
<path fill-rule="evenodd" clip-rule="evenodd" d="M66.0385 38.9456C66.0334 39.0443 66.0221 39.1449 66.0063 39.2445C66.001 39.2776 65.9951 39.3106 65.9887 39.3435C65.9773 39.403 65.9642 39.4615 65.9498 39.5189C65.9326 39.5886 65.9138 39.6567 65.8932 39.7216C65.8777 39.7698 65.8616 39.816 65.8451 39.8607C65.8371 39.8818 65.8293 39.9023 65.8211 39.9224C65.7731 40.0424 65.7216 40.1449 65.6709 40.2191C65.4497 40.5438 65.1355 40.8023 64.7789 40.9659C64.5944 41.0506 64.0855 41.1374 63.7493 41.0721C63.7341 41.0691 63.7172 41.0677 63.7027 41.064C63.7026 41.064 63.705 41.0434 63.7083 41.0171C63.7102 41.001 63.7125 40.9833 63.7147 40.9659C63.7156 40.9584 63.7164 40.9508 63.7174 40.9439C63.7541 40.6482 63.7979 40.3798 63.8656 40.0784C63.8764 40.0302 63.8863 39.9835 63.8984 39.9333C63.9204 39.8425 63.9451 39.7465 63.9724 39.6489C64.0478 39.3791 64.1442 39.0953 64.2655 38.8679C64.411 38.5949 64.6067 38.2721 64.8821 38.0839C64.9071 38.0667 64.9328 38.0507 64.9593 38.0361C65.0649 37.9771 65.1813 37.938 65.3102 37.9279C65.3449 37.9252 65.3784 37.9244 65.4105 37.9254C65.5865 37.931 65.7181 37.9921 65.8151 38.0898C65.8943 38.1697 65.9508 38.2742 65.987 38.3955C65.9951 38.4225 66.002 38.4502 66.0082 38.4788C66.0329 38.5927 66.043 38.7177 66.0417 38.8475C66.0414 38.8799 66.0403 38.9126 66.0385 38.9456ZM73.7866 37.4061C73.0471 37.4061 72.3872 37.7563 71.9818 38.5185C71.8679 38.7325 71.7382 39.0108 71.6408 39.2335L71.6164 39.2343C71.5513 38.5155 71.3418 38.0168 70.7659 37.6814C70.5265 37.5418 70.1836 37.4552 69.9069 37.4552C69.7629 37.4552 69.6166 37.4648 69.472 37.4836C69.2422 37.5139 69.035 37.587 68.8432 37.6729C68.4481 37.8495 68.1625 38.1421 67.955 38.4493C67.9092 38.3585 67.856 38.2723 67.7912 38.194C67.7496 38.1436 67.7045 38.0956 67.6569 38.0498C67.6096 38.0042 67.5595 37.9608 67.5078 37.9193C67.4783 37.8957 67.4466 37.875 67.4156 37.8531C67.2927 37.7673 67.1601 37.6948 67.0182 37.6375C66.9589 37.6138 66.8983 37.5924 66.8364 37.5731C66.0945 37.3423 65.1851 37.4343 64.5062 37.6345C64.1899 37.7276 63.8829 37.8519 63.5936 38.0086C63.2587 38.1901 62.9485 38.4155 62.6763 38.6802C62.5985 38.7561 62.524 38.8352 62.4529 38.9169C62.2774 39.118 62.1251 39.3373 61.9915 39.5676C61.9593 39.6236 61.9253 39.6786 61.8955 39.7358C61.7086 40.0943 61.5714 40.4761 61.4751 40.8677C61.443 40.9983 61.4154 41.1299 61.3918 41.2621L61.3914 41.2653C61.3811 41.3238 61.3725 41.382 61.3655 41.4402C61.3631 41.4608 61.3615 41.481 61.3595 41.5016C61.3555 41.5404 61.3516 41.579 61.3492 41.6174C61.3475 41.642 61.3467 41.6665 61.3456 41.6909C61.3441 41.7252 61.3429 41.7593 61.3426 41.7933C61.3424 41.8199 61.3427 41.8464 61.3432 41.8729C61.3435 41.9045 61.3443 41.9357 61.3457 41.967C61.347 41.9951 61.3486 42.023 61.3505 42.0509C61.3528 42.0801 61.3555 42.1092 61.3583 42.1384C61.3614 42.1676 61.3642 42.1968 61.3681 42.2258C61.3716 42.2526 61.3759 42.2791 61.38 42.3057C61.3848 42.3365 61.3896 42.3673 61.3953 42.3977C61.3995 42.4207 61.4047 42.4432 61.4095 42.4657C61.4167 42.4997 61.4236 42.5336 61.4319 42.5671C61.4331 42.5721 61.4347 42.5768 61.436 42.5816C61.4719 42.7242 61.5188 42.8634 61.5752 42.9992C61.5797 43.0098 61.5838 43.0207 61.5885 43.0314C61.6052 43.0703 61.6231 43.1086 61.6416 43.1468C61.6475 43.1588 61.6531 43.1711 61.659 43.183C61.6639 43.1931 61.6695 43.203 61.6748 43.213C61.551 43.3288 61.3936 43.4739 61.219 43.6111C61.1282 43.6825 61.033 43.7516 60.9359 43.813C60.8387 43.8742 60.7399 43.928 60.6418 43.9683C60.6091 43.9819 60.5766 43.9937 60.5442 44.0041C60.4466 44.0352 60.3509 44.0513 60.2595 44.0468C60.2184 44.0449 60.1804 44.0382 60.1434 44.0296C60.1334 44.0273 60.1236 44.0245 60.1139 44.0218C60.0846 44.0131 60.0566 44.0029 60.0302 43.9905C60.0241 43.9878 60.0176 43.9856 60.0117 43.9824C59.9801 43.9663 59.9507 43.9474 59.9235 43.9262C59.9181 43.9221 59.9131 43.9175 59.908 43.9131C59.8852 43.8942 59.8637 43.8736 59.8439 43.8516C59.8394 43.8465 59.8348 43.8417 59.8302 43.8364C59.8079 43.8096 59.7874 43.7808 59.7688 43.7503C59.7514 43.7218 59.7361 43.6915 59.7224 43.6604C59.7205 43.6564 59.7181 43.6527 59.7163 43.6487C59.7149 43.6451 59.7133 43.6412 59.7115 43.6376C59.6933 43.5927 59.6796 43.5457 59.6681 43.4977C59.6611 43.4688 59.6543 43.4398 59.6498 43.4101C59.6414 43.3532 59.6374 43.2955 59.638 43.2381C59.6383 43.2023 59.6409 43.1669 59.6444 43.1318C59.645 43.1264 59.6455 43.1212 59.6461 43.1157C59.6504 43.0802 59.6562 43.0452 59.6642 43.0113V43.0106L59.9748 41.6715L60.6724 38.6624C60.6745 38.6529 60.6796 38.645 60.6869 38.6392C60.6941 38.6335 60.703 38.6301 60.7128 38.6301L61.1166 38.6295L61.5216 38.6289C61.6861 38.6289 61.7684 38.504 61.7842 38.4169L61.8478 38.1614L61.9564 37.7236C61.9661 37.6712 61.9696 37.6358 61.9684 37.6098C61.9679 37.5969 61.9661 37.5863 61.9633 37.5771C61.9607 37.5678 61.9569 37.56 61.9524 37.5527C61.9377 37.5284 61.9186 37.5112 61.8987 37.497C61.8657 37.4736 61.8304 37.4611 61.8089 37.4594L60.919 37.457H60.9118L60.9108 37.4613L60.91 37.4637L61.1135 36.5599L61.3172 35.6555C61.3189 35.645 61.3201 35.6328 61.3215 35.6209C61.3277 35.5617 61.326 35.4904 61.2829 35.4395C61.2796 35.4373 61.2717 35.4352 61.2622 35.4333C61.2397 35.4289 61.2024 35.4252 61.1545 35.4225C61.1368 35.4214 61.1177 35.4204 61.0977 35.4196C60.8858 35.4104 60.5628 35.4112 60.4995 35.4112C60.4423 35.4112 60.3976 35.44 60.3812 35.4525L60.371 35.4576L60.3657 35.4603L60.3558 35.4767L60.349 35.4883C59.9948 36.0687 59.6407 36.5199 59.3023 36.8744C59.0991 37.0871 58.902 37.2653 58.7138 37.4157C58.2124 37.8168 57.7762 38.0216 57.4714 38.1646C57.3899 38.2029 57.3179 38.237 57.2569 38.2686C57.2442 38.2751 57.2348 38.2826 57.2239 38.2896C57.1581 38.3332 57.1236 38.3869 57.125 38.451C57.1258 38.4809 57.1361 38.5059 57.1493 38.5282C57.171 38.5657 57.2041 38.5938 57.2372 38.6091L57.2539 38.6203L58.1282 38.6271L57.4781 41.3372C57.2595 42.1488 57.1876 42.6362 57.1667 42.909C57.1622 42.9697 57.1601 43.0197 57.1595 43.0604C57.1579 43.162 57.1656 43.205 57.166 43.2081C57.1687 43.2567 57.1742 43.3109 57.1813 43.3671C57.1839 43.3885 57.1864 43.41 57.1896 43.431C57.1935 43.4562 57.1989 43.4825 57.2038 43.5089C57.2128 43.5562 57.2231 43.6022 57.2348 43.6463C57.2419 43.6738 57.2494 43.7014 57.2577 43.7293C57.2619 43.742 57.2659 43.7546 57.2702 43.7671C57.3706 44.0781 57.5612 44.404 57.9087 44.6224C57.913 44.6252 57.9164 44.6291 57.9209 44.6319C57.9349 44.6413 57.9515 44.6476 57.966 44.6565C57.9901 44.67 58.014 44.6838 58.0394 44.6964C58.2681 44.816 58.5389 44.8782 58.8675 44.8782H58.8701C58.9289 44.8755 59.2178 44.8884 59.6377 44.8062C59.7975 44.7767 59.9688 44.7343 60.1391 44.6734C60.5404 44.5412 61.0022 44.3222 61.4764 43.9599C61.5462 43.9082 61.6149 43.8548 61.6805 43.7972L61.6982 43.7819C61.7371 43.7478 61.7813 43.7092 61.8216 43.6674C61.835 43.6535 61.848 43.6392 61.8601 43.6245C61.8727 43.6093 61.8843 43.5939 61.895 43.5781C61.896 43.5797 61.8969 43.5811 61.8979 43.5827C61.9028 43.5897 61.9082 43.5967 61.9132 43.6038C62.0062 43.7328 62.1087 43.8565 62.2232 43.9725C62.3947 44.1463 62.5852 44.2941 62.7891 44.4197V44.4198L62.7894 44.42C62.8377 44.4496 62.8863 44.4787 62.9363 44.5056C62.9973 44.5394 63.0594 44.5715 63.1232 44.6004L63.1249 44.6013C63.1688 44.6209 63.2134 44.6382 63.2581 44.6552C63.4437 44.7262 63.6369 44.7767 63.833 44.8104C63.897 44.8216 63.9609 44.8289 64.0246 44.8375C64.164 44.8566 64.3037 44.8712 64.4448 44.8783C64.4641 44.8794 64.4831 44.8818 64.5025 44.8826C64.4984 44.8828 64.4941 44.8828 64.4899 44.8828H64.5035C64.5035 44.8828 64.503 44.8826 64.5027 44.8826H64.5054H64.5102C64.6649 44.8802 64.8193 44.8688 64.9728 44.8507C65.0188 44.8453 65.065 44.8421 65.1106 44.835C65.1614 44.827 65.2116 44.8169 65.262 44.807C65.3181 44.796 65.3743 44.7836 65.4299 44.77C65.606 44.7276 65.7795 44.6747 65.9481 44.6083C66.076 44.5578 66.2002 44.498 66.3216 44.4339C66.5214 44.3281 66.713 44.2066 66.8901 44.0661C67.152 43.8583 67.3837 43.6151 67.5836 43.3475C67.6499 43.2583 67.7129 43.1665 67.7724 43.0722C67.8139 43.0105 67.8627 42.9 67.8542 42.7907C67.8491 42.7252 67.8234 42.6601 67.7633 42.6062C67.7485 42.5882 67.6928 42.529 67.5968 42.529C67.5533 42.529 67.5078 42.5434 67.459 42.5711C67.4297 42.5877 67.3994 42.6081 67.3668 42.6367C67.3322 42.6802 66.5075 43.6704 65.2909 43.7015C65.2346 43.7015 65.1779 43.6982 65.1215 43.6939C64.9095 43.6707 64.6461 43.5912 64.4027 43.3916C64.089 43.1176 63.7346 42.5813 63.693 41.5467L63.6917 41.5043C63.697 41.5043 64.2714 41.4999 65.1178 41.4311C65.2312 41.4219 65.3428 41.4032 65.4538 41.3806C65.6372 41.3431 65.8179 41.2911 65.994 41.2275C66.9584 40.879 68.0997 40.1884 68.0934 39.0316C68.0933 39.0062 68.0915 38.9808 68.0901 38.9555C68.0893 38.9424 68.0882 38.9295 68.0872 38.9166C68.174 38.7799 68.2692 38.6499 68.3829 38.5356C68.4714 38.4463 68.6515 38.2965 68.8618 38.2965C68.9237 38.2965 68.9837 38.3097 69.0403 38.3357C69.2833 38.4475 69.3227 38.7917 69.3245 38.9869C69.3273 39.287 69.243 39.5976 69.1612 39.8982C69.1318 40.0058 69.1031 40.1122 69.0786 40.2162C68.9869 40.6093 68.8958 41.0026 68.8049 41.396C68.6046 42.2631 68.4049 43.1304 68.2057 43.9977L68.0534 44.6608C68.0515 44.6693 68.0044 44.8546 67.9995 44.8828H70.5259C70.744 43.8171 70.9856 42.7869 71.2545 41.8372C71.4438 41.1691 71.6181 40.6174 71.8035 40.101C71.9194 39.7783 71.9999 39.5815 72.1298 39.2644C72.3564 38.7112 72.5452 38.6159 72.6111 38.5617C72.6109 38.5689 72.61 38.5756 72.61 38.5828C72.61 39.2325 73.1369 39.7594 73.7866 39.7594C74.4365 39.7594 74.9633 39.2325 74.9633 38.5828C74.9633 37.9329 74.4365 37.4061 73.7866 37.4061Z" fill="white" stroke="white" stroke-width="0.0214803"/>
<path fill-rule="evenodd" clip-rule="evenodd" d="M24.289 37.7077C24.3087 37.6025 24.3029 37.5661 24.2851 37.5367C24.246 37.4722 24.1761 37.4462 24.1415 37.4433L23.7859 37.4428C23.7859 37.4427 22.8889 37.4415 22.7945 37.4415C22.7877 37.4415 22.7854 37.4391 22.7859 37.4316C22.7937 37.3296 22.9014 35.9068 22.9162 35.2742C22.9287 34.7284 22.9189 34.2359 23.1149 34.0398C23.1149 34.7669 23.7741 35.3397 24.5273 35.1936C24.9861 35.1046 25.356 34.7351 25.4453 34.2765C25.5919 33.5229 25.0187 32.8633 24.2918 32.8633C24.2002 32.8633 24.1119 32.8746 24.0265 32.8944C23.8009 32.9331 23.4602 33.0253 23.1149 33.2554C22.7228 33.4516 22.1636 34.3575 21.9917 34.6061C21.9169 34.7142 20.2028 37.4423 19.4634 38.2204C19.4285 38.252 19.1874 38.5166 19.1518 38.5464C19.1413 38.5552 19.1314 38.5688 19.133 38.5833C19.1346 38.5981 19.1483 38.6099 19.1623 38.6126C19.1657 38.6133 19.169 38.6136 19.1724 38.6136L20.1854 38.6144C20.1918 38.6222 20.1945 38.6257 20.2009 38.6337L19.9502 39.7752C19.9502 39.7741 19.9503 39.7728 19.9503 39.7717C19.9074 39.9172 19.735 40.4396 19.688 40.5838C19.4201 41.4042 19.0843 42.2024 18.6853 42.9676C18.5451 43.2365 18.3912 43.5086 18.1534 43.6967C18.0874 43.7489 18.009 43.7958 17.9251 43.7902C17.8166 43.7827 17.7307 43.6862 17.7016 43.5816C17.6726 43.4768 17.6886 43.3655 17.7078 43.2585C17.9681 41.8235 18.797 40.4601 18.6265 39.0116C18.586 38.6673 18.4847 38.3228 18.2794 38.0436C17.9458 37.5892 17.3583 37.358 16.7951 37.387C16.2322 37.416 15.6984 37.6825 15.2781 38.0583C14.8577 38.4338 14.6112 38.7576 14.3536 39.2592C14.342 38.8746 14.2895 38.6377 14.1254 38.2796C13.9436 37.8827 13.5878 37.6278 13.1867 37.4921C12.9266 37.4041 12.4894 37.3819 12.2221 37.4452C11.6147 37.5895 11.1019 37.9868 10.7337 38.4818C10.5428 38.7386 10.7613 39.0802 11.1836 38.6925C11.253 38.6287 11.4461 38.4959 11.54 38.4881C11.9124 38.4565 12.0877 38.7571 12.0694 38.9448C12.0333 39.3132 11.9494 39.6751 11.8659 40.0358C11.4935 41.641 11.1211 43.2462 10.7487 44.8512C11.5654 44.8522 12.3821 44.853 13.1988 44.8538C13.5766 43.1191 13.9575 41.3737 14.634 39.7323C14.8214 39.2778 15.0421 38.8174 15.4175 38.5002C15.6355 38.316 15.9658 38.1905 16.1983 38.3558C16.4138 38.5093 16.4247 38.8215 16.3966 39.0845C16.2767 40.2041 15.8405 41.2651 15.6304 42.3715C15.5587 42.7493 15.5134 43.1374 15.5687 43.5181C15.6241 43.8987 15.789 44.2738 16.0808 44.5243C16.5868 44.9586 17.3808 44.9205 17.9519 44.5761C18.5228 44.2318 18.9949 43.422 19.2705 42.8148C19.2781 42.7981 19.2846 42.78 19.292 42.7633C19.2081 43.1481 19.1075 43.6132 19.1075 43.6132L18.2643 47.4573C18.2155 47.668 18.1284 47.8297 17.9544 47.9723C17.9477 47.9777 17.9203 47.9967 17.8903 48.0138C17.8614 48.0304 17.8267 48.0468 17.7952 48.0581C17.319 48.2324 17.0919 48.0841 16.9551 47.9275C16.7312 47.6982 16.6927 47.4105 16.543 47.2151C16.2749 46.8658 15.9145 46.6727 15.4107 46.722C15.326 46.7303 14.9329 46.799 14.6542 47.1231C14.4247 47.3502 14.3621 47.7698 14.3621 47.7698C14.2954 48.5394 14.7383 48.8984 15.1116 49.045C15.3357 49.1329 15.562 49.1317 15.562 49.1317C17.9783 49.104 19.4891 47.3058 19.4891 47.3058C20.047 46.6266 20.3905 46.2048 20.8734 45.2949C21.659 43.8143 22.7406 38.8199 22.7805 38.6203C22.7834 38.618 22.785 38.6166 22.788 38.6144L23.3278 38.6134V38.6137L23.8543 38.6128C24.0187 38.6128 24.101 38.4881 24.1168 38.4008L24.289 37.7077Z" fill="white"/>
<path fill-rule="evenodd" clip-rule="evenodd" d="M24.289 37.7077C24.3087 37.6025 24.3029 37.5661 24.2851 37.5367C24.246 37.4722 24.1761 37.4462 24.1415 37.4433L23.7859 37.4428C23.7859 37.4427 22.8889 37.4415 22.7945 37.4415C22.7877 37.4415 22.7854 37.4391 22.7859 37.4316C22.7937 37.3296 22.9014 35.9068 22.9162 35.2742C22.9287 34.7284 22.9189 34.2359 23.1149 34.0398C23.1149 34.7669 23.7741 35.3397 24.5273 35.1936C24.9861 35.1046 25.356 34.7351 25.4453 34.2765C25.5919 33.5229 25.0187 32.8633 24.2918 32.8633C24.2002 32.8633 24.1119 32.8746 24.0265 32.8944C23.8009 32.9331 23.4602 33.0253 23.1149 33.2554C22.7228 33.4516 22.1636 34.3575 21.9917 34.6061C21.9169 34.7142 20.2028 37.4423 19.4634 38.2204C19.4285 38.252 19.1874 38.5166 19.1518 38.5464C19.1413 38.5552 19.1314 38.5688 19.133 38.5833C19.1346 38.5981 19.1483 38.6099 19.1623 38.6126C19.1657 38.6133 19.169 38.6136 19.1724 38.6136L20.1854 38.6144C20.1918 38.6222 20.1945 38.6257 20.2009 38.6337L19.9502 39.7752C19.9502 39.7741 19.9503 39.7728 19.9503 39.7717C19.9074 39.9172 19.735 40.4396 19.688 40.5838C19.4201 41.4042 19.0843 42.2024 18.6853 42.9676C18.5451 43.2365 18.3912 43.5086 18.1534 43.6967C18.0874 43.7489 18.009 43.7958 17.9251 43.7902C17.8166 43.7827 17.7307 43.6862 17.7016 43.5816C17.6726 43.4768 17.6886 43.3655 17.7078 43.2585C17.9681 41.8235 18.797 40.4601 18.6265 39.0116C18.586 38.6673 18.4847 38.3228 18.2794 38.0436C17.9458 37.5892 17.3583 37.358 16.7951 37.387C16.2322 37.416 15.6984 37.6825 15.2781 38.0583C14.8577 38.4338 14.6112 38.7576 14.3536 39.2592C14.342 38.8746 14.2895 38.6377 14.1254 38.2796C13.9436 37.8827 13.5878 37.6278 13.1867 37.4921C12.9266 37.4041 12.4894 37.3819 12.2221 37.4452C11.6147 37.5895 11.1019 37.9868 10.7337 38.4818C10.5428 38.7386 10.7613 39.0802 11.1836 38.6925C11.253 38.6287 11.4461 38.4959 11.54 38.4881C11.9124 38.4565 12.0877 38.7571 12.0694 38.9448C12.0333 39.3132 11.9494 39.6751 11.8659 40.0358C11.4935 41.641 11.1211 43.2462 10.7487 44.8512C11.5654 44.8522 12.3821 44.853 13.1988 44.8538C13.5766 43.1191 13.9575 41.3737 14.634 39.7323C14.8214 39.2778 15.0421 38.8174 15.4175 38.5002C15.6355 38.316 15.9658 38.1905 16.1983 38.3558C16.4138 38.5093 16.4247 38.8215 16.3966 39.0845C16.2767 40.2041 15.8405 41.2651 15.6304 42.3715C15.5587 42.7493 15.5134 43.1374 15.5687 43.5181C15.6241 43.8987 15.789 44.2738 16.0808 44.5243C16.5868 44.9586 17.3808 44.9205 17.9519 44.5761C18.5228 44.2318 18.9949 43.422 19.2705 42.8148C19.2781 42.7981 19.2846 42.78 19.292 42.7633C19.2081 43.1481 19.1075 43.6132 19.1075 43.6132L18.2643 47.4573C18.2155 47.668 18.1284 47.8297 17.9544 47.9723C17.9477 47.9777 17.9203 47.9967 17.8903 48.0138C17.8614 48.0304 17.8267 48.0468 17.7952 48.0581C17.319 48.2324 17.0919 48.0841 16.9551 47.9275C16.7312 47.6982 16.6927 47.4105 16.543 47.2151C16.2749 46.8658 15.9145 46.6727 15.4107 46.722C15.326 46.7303 14.9329 46.799 14.6542 47.1231C14.4247 47.3502 14.3621 47.7698 14.3621 47.7698C14.2954 48.5394 14.7383 48.8984 15.1116 49.045C15.3357 49.1329 15.562 49.1317 15.562 49.1317C17.9783 49.104 19.4891 47.3058 19.4891 47.3058C20.047 46.6266 20.3905 46.2048 20.8734 45.2949C21.659 43.8143 22.7406 38.8199 22.7805 38.6203C22.7834 38.618 22.785 38.6166 22.788 38.6144L23.3278 38.6134V38.6137L23.8543 38.6128C24.0187 38.6128 24.101 38.4881 24.1168 38.4008L24.289 37.7077Z" fill="white" stroke="white" stroke-width="0.0214803"/>
<path fill-rule="evenodd" clip-rule="evenodd" d="M9.19487 37.4259C8.46316 37.2768 7.74916 37.7492 7.60005 38.4811C7.59893 38.4868 7.16785 40.5521 7.16737 40.5803L6.29102 44.8862H9.06122C9.06122 44.8862 9.56247 42.368 9.88208 40.7615C10.0381 40.0244 10.2475 39.033 10.25 39.0208C10.399 38.2889 9.92657 37.5749 9.19487 37.4259Z" fill="white"/>
<path fill-rule="evenodd" clip-rule="evenodd" d="M9.19487 37.4259C8.46316 37.2768 7.74916 37.7492 7.60005 38.4811C7.59893 38.4868 7.16785 40.5521 7.16737 40.5803L6.29102 44.8862H9.06122C9.06122 44.8862 9.56247 42.368 9.88208 40.7615C10.0381 40.0244 10.2475 39.033 10.25 39.0208C10.399 38.2889 9.92657 37.5749 9.19487 37.4259Z" fill="white" stroke="white" stroke-width="0.0214803"/>
<path fill-rule="evenodd" clip-rule="evenodd" d="M9.4199 35.8148C9.38736 35.9944 9.27652 36.1981 9.00476 36.3912C10.1803 36.3912 11.3557 35.7112 11.3557 34.4163C11.3557 34.4146 11.3551 34.4131 11.3546 34.4119C11.3551 34.3978 11.3557 34.3841 11.3557 34.3701C11.3557 33.5379 10.6809 32.8633 9.84874 32.8633C9.01657 32.8633 8.3418 33.5379 8.3418 34.3701C8.3418 35.0535 8.79664 35.63 9.4199 35.8148Z" fill="white"/>
<path fill-rule="evenodd" clip-rule="evenodd" d="M9.4199 35.8148C9.38736 35.9944 9.27652 36.1981 9.00476 36.3912C10.1803 36.3912 11.3557 35.7112 11.3557 34.4163C11.3557 34.4146 11.3551 34.4131 11.3546 34.4119C11.3551 34.3978 11.3557 34.3841 11.3557 34.3701C11.3557 33.5379 10.6809 32.8633 9.84874 32.8633C9.01657 32.8633 8.3418 33.5379 8.3418 34.3701C8.3418 35.0535 8.79664 35.63 9.4199 35.8148Z" fill="white" stroke="white" stroke-width="0.0214803"/>
</g>
<defs>
<clipPath id="clip0_1278_6071">
<rect width="68.7368" height="16.325" fill="white" transform="translate(6.26367 32.8379)"/>
</clipPath>
</defs>
</svg>
