<svg width="100%" height="100%" viewBox="0 0 81 81" fill="none" xmlns="http://www.w3.org/2000/svg">
<mask id="mask0_860_4679" style="mask-type:alpha" maskUnits="userSpaceOnUse" x="0" y="0" width="81" height="81">
<rect width="81" height="81" rx="11" fill="#174A5B"/>
</mask>
<g mask="url(#mask0_860_4679)">
<rect width="81" height="81" rx="11" fill="#174A5B"/>
<path d="M43.2824 49.4956C43.2065 50.0553 43.1212 50.4157 43.1212 50.7667C43.1117 54.5609 43.0927 58.3551 43.1306 62.1494C43.1401 62.9936 42.865 63.2117 42.0588 63.1928C39.915 63.1453 39.915 63.1833 39.915 61.0301C39.915 50.5485 39.915 40.0765 39.915 29.5949C39.915 28.3239 39.915 28.3239 41.1482 28.3239C43.1117 28.3239 43.1117 28.3239 43.1117 30.2968C43.1117 30.7901 43.0927 31.2833 43.1212 31.7671C43.1401 32.0327 43.2445 32.2983 43.3204 32.5639C43.4247 32.6208 43.5385 32.6872 43.6429 32.7441C43.9749 32.3268 44.2784 31.8715 44.6483 31.492C46.4885 29.5665 48.6892 28.3428 51.3451 27.878C57.3021 26.8251 62.0828 28.7697 65.7063 33.5219C67.6698 36.102 68.2199 39.1089 67.9259 42.3245C67.5085 46.9914 65.0233 50.3114 61.1342 52.5879C58.1273 54.3427 54.8074 54.7127 51.3357 54.0677C48.3382 53.508 45.9479 51.9808 43.8136 49.9225C43.7187 49.8371 43.6144 49.7612 43.2824 49.4956ZM53.8209 51.5445C55.2911 51.6299 56.6286 51.2789 57.9755 50.7667C62.8227 48.9265 66.0383 43.2352 64.2929 37.9991C62.7752 33.4366 59.1612 31.0367 55.1299 30.534C51.7435 30.1071 48.7082 31.0842 46.1755 33.4366C42.6848 36.6711 41.8311 41.8787 44.1171 46.0144C46.2229 49.7897 49.6377 51.3643 53.8209 51.5445Z" fill="#F05132"/>
<path d="M29.5846 41.831C29.5846 38.0083 29.6036 34.1951 29.5657 30.3724C29.5562 29.5851 29.8218 29.3101 30.5996 29.329C32.1837 29.367 33.7583 29.3575 35.3424 29.3385C35.9684 29.329 36.2056 29.5757 36.2056 30.2112C36.1961 37.9799 36.1961 45.758 36.2056 53.5267C36.2056 54.1717 35.9779 54.3899 35.3424 54.3804C33.7109 54.3519 32.0699 54.3519 30.4383 54.3804C29.7269 54.3994 29.5657 54.0863 29.5657 53.4413C29.5941 49.5712 29.5846 45.7011 29.5846 41.831Z" fill="white"/>
<path d="M32.9714 19.0186C35.2385 18.7719 37.164 21.1718 37.0881 22.974C36.9933 25.1747 35.2385 26.958 32.9619 26.9959C30.7138 27.0244 28.6555 25.0798 28.7408 22.8697C28.8262 20.7544 30.581 18.8478 32.9714 19.0186Z" fill="white"/>
<path d="M13.9814 46.2129L25.8574 53.8298V46.2129H13.9814Z" fill="#22C8F3"/>
</g>
</svg>
