<svg width="100%" height="100%" viewBox="0 0 38 38" fill="none" xmlns="http://www.w3.org/2000/svg">
<path d="M19.0093 0.287598C11.1957 0.287598 8.91056 0.295658 8.46636 0.332507C6.86288 0.465795 5.86509 0.718264 4.77806 1.25948C3.94033 1.67546 3.27965 2.15766 2.6276 2.8336C1.4401 4.06629 0.720407 5.58284 0.459877 7.38554C0.33321 8.26069 0.296362 8.43917 0.288877 12.9094C0.285998 14.3994 0.288877 16.3604 0.288877 18.9908C0.288877 26.7981 0.297513 29.0809 0.334938 29.5243C0.464483 31.0846 0.70918 32.0663 1.22736 33.14C2.21767 35.1955 4.10903 36.7385 6.33721 37.3143C7.10873 37.5129 7.96085 37.6223 9.05479 37.6741C9.51827 37.6943 14.2424 37.7087 18.9693 37.7087C23.6963 37.7087 28.4233 37.7029 28.8752 37.6799C30.1419 37.6203 30.8774 37.5216 31.6907 37.3114C33.9333 36.7328 35.7901 35.2128 36.8005 33.1285C37.3087 32.0806 37.5663 31.0616 37.6829 29.5827C37.7082 29.2603 37.7189 24.1196 37.7189 18.9859C37.7189 13.8513 37.7074 8.72014 37.682 8.39772C37.564 6.89499 37.3063 5.88454 36.7818 4.81651C36.3515 3.94222 35.8736 3.28931 35.1798 2.62172C33.9416 1.43911 32.4274 0.719416 30.623 0.459173C29.7487 0.332795 29.5745 0.29537 25.1009 0.287598H19.0093Z" fill="url(#paint0_radial_507_24131)"/>
<path d="M19.0093 0.287598C11.1957 0.287598 8.91056 0.295658 8.46636 0.332507C6.86288 0.465795 5.86509 0.718264 4.77806 1.25948C3.94033 1.67546 3.27965 2.15766 2.6276 2.8336C1.4401 4.06629 0.720407 5.58284 0.459877 7.38554C0.33321 8.26069 0.296362 8.43917 0.288877 12.9094C0.285998 14.3994 0.288877 16.3604 0.288877 18.9908C0.288877 26.7981 0.297513 29.0809 0.334938 29.5243C0.464483 31.0846 0.70918 32.0663 1.22736 33.14C2.21767 35.1955 4.10903 36.7385 6.33721 37.3143C7.10873 37.5129 7.96085 37.6223 9.05479 37.6741C9.51827 37.6943 14.2424 37.7087 18.9693 37.7087C23.6963 37.7087 28.4233 37.7029 28.8752 37.6799C30.1419 37.6203 30.8774 37.5216 31.6907 37.3114C33.9333 36.7328 35.7901 35.2128 36.8005 33.1285C37.3087 32.0806 37.5663 31.0616 37.6829 29.5827C37.7082 29.2603 37.7189 24.1196 37.7189 18.9859C37.7189 13.8513 37.7074 8.72014 37.682 8.39772C37.564 6.89499 37.3063 5.88454 36.7818 4.81651C36.3515 3.94222 35.8736 3.28931 35.1798 2.62172C33.9416 1.43911 32.4274 0.719416 30.623 0.459173C29.7487 0.332795 29.5745 0.29537 25.1009 0.287598H19.0093Z" fill="url(#paint1_radial_507_24131)"/>
<path d="M19.001 5.18164C15.2482 5.18164 14.7772 5.19805 13.3033 5.26513C11.8322 5.33249 10.8281 5.56538 9.94949 5.9071C9.04066 6.26003 8.26972 6.73216 7.50166 7.5005C6.73302 8.26856 6.2609 9.0395 5.90681 9.94805C5.56423 10.8269 5.33105 11.8314 5.26484 13.3018C5.19891 14.7758 5.18164 15.247 5.18164 18.9998C5.18164 22.7526 5.19834 23.2221 5.26513 24.6961C5.33278 26.1671 5.56567 27.1713 5.9071 28.0499C6.26032 28.9587 6.73244 29.7296 7.50079 30.4977C8.26857 31.2663 9.0395 31.7396 9.94776 32.0926C10.8269 32.4343 11.8314 32.6672 13.3021 32.7345C14.7761 32.8016 15.2467 32.818 18.9992 32.818C22.7523 32.818 23.2219 32.8016 24.6958 32.7345C26.1669 32.6672 27.1721 32.4343 28.0513 32.0926C28.9599 31.7396 29.7296 31.2663 30.4974 30.4977C31.2661 29.7296 31.7382 28.9587 32.0923 28.0502C32.432 27.1713 32.6651 26.1669 32.7342 24.6964C32.8004 23.2224 32.8177 22.7526 32.8177 18.9998C32.8177 15.247 32.8004 14.7761 32.7342 13.3021C32.6651 11.8311 32.432 10.8269 32.0923 9.94834C31.7382 9.0395 31.2661 8.26856 30.4974 7.5005C29.7288 6.73187 28.9601 6.25975 28.0504 5.9071C27.1695 5.56538 26.1648 5.33249 24.6938 5.26513C23.2198 5.19805 22.7506 5.18164 18.9967 5.18164H19.001ZM17.7614 7.67179C18.1293 7.67122 18.5398 7.67179 19.001 7.67179C22.6904 7.67179 23.1277 7.68503 24.5847 7.75125C25.9319 7.81285 26.6632 8.03797 27.1502 8.22711C27.7951 8.47757 28.2548 8.77696 28.7382 9.26059C29.2218 9.74423 29.5212 10.2048 29.7722 10.8497C29.9614 11.3362 30.1868 12.0674 30.2481 13.4147C30.3143 14.8714 30.3287 15.3089 30.3287 18.9967C30.3287 22.6844 30.3143 23.122 30.2481 24.5786C30.1865 25.9259 29.9614 26.6571 29.7722 27.1436C29.5218 27.7885 29.2218 28.2476 28.7382 28.731C28.2546 29.2146 27.7954 29.514 27.1502 29.7645C26.6637 29.9545 25.9319 30.179 24.5847 30.2406C23.128 30.3068 22.6904 30.3212 19.001 30.3212C15.3112 30.3212 14.8739 30.3068 13.4173 30.2406C12.07 30.1784 11.3388 29.9533 10.8514 29.7642C10.2066 29.5137 9.74596 29.2143 9.26232 28.7307C8.77869 28.2471 8.47929 27.7876 8.22826 27.1425C8.03913 26.656 7.81372 25.9247 7.7524 24.5775C7.68619 23.1208 7.67294 22.6832 7.67294 18.9932C7.67294 15.3032 7.68619 14.8679 7.7524 13.4112C7.814 12.064 8.03913 11.3327 8.22826 10.8457C8.47872 10.2008 8.77869 9.7402 9.26232 9.25656C9.74596 8.77293 10.2066 8.47353 10.8514 8.2225C11.3385 8.0325 12.07 7.80796 13.4173 7.74607C14.692 7.68849 15.186 7.67122 17.7614 7.66834V7.67179ZM26.377 9.96619C25.4616 9.96619 24.7188 10.708 24.7188 11.6238C24.7188 12.5392 25.4616 13.282 26.377 13.282C27.2925 13.282 28.0352 12.5392 28.0352 11.6238C28.0352 10.7083 27.2925 9.96561 26.377 9.96561V9.96619ZM19.001 11.9036C15.0821 11.9036 11.9048 15.0809 11.9048 18.9998C11.9048 22.9187 15.0821 26.0946 19.001 26.0946C22.9199 26.0946 26.096 22.9187 26.096 18.9998C26.096 15.0809 22.9196 11.9036 19.0007 11.9036H19.001ZM19.001 14.3938C21.5447 14.3938 23.607 16.4558 23.607 18.9998C23.607 21.5435 21.5447 23.6059 19.001 23.6059C16.457 23.6059 14.3949 21.5435 14.3949 18.9998C14.3949 16.4558 16.457 14.3938 19.001 14.3938Z" fill="white"/>
<defs>
<radialGradient id="paint0_radial_507_24131" cx="0" cy="0" r="1" gradientUnits="userSpaceOnUse" gradientTransform="translate(10.2303 40.5909) rotate(-90) scale(37.0871 34.5033)">
<stop offset="0" stop-color="#FFDD55"/>
<stop offset="0.1" stop-color="#FFDD55"/>
<stop offset="0.5" stop-color="#FF543E"/>
<stop offset="1" stop-color="#C837AB"/>
</radialGradient>
<radialGradient id="paint1_radial_507_24131" cx="0" cy="0" r="1" gradientUnits="userSpaceOnUse" gradientTransform="translate(-5.98234 2.98335) rotate(78.6776) scale(16.5782 68.3534)">
<stop offset="0" stop-color="#3771C8"/>
<stop offset="0.128" stop-color="#3771C8"/>
<stop offset="1" stop-color="#6600FF" stop-opacity="0"/>
</radialGradient>
</defs>
</svg>
