<svg width="100%" height="100%" viewBox="0 0 81 81" fill="none" xmlns="http://www.w3.org/2000/svg">
<mask id="mask0_860_4905" style="mask-type:alpha" maskUnits="userSpaceOnUse" x="0" y="0" width="81" height="81">
<rect width="81" height="81" rx="11" fill="#C4C4C4"/>
</mask>
<g mask="url(#mask0_860_4905)">
<rect width="81" height="81" rx="11" fill="#8200FF"/>
</g>
<path d="M9.97949 42.5487V44.1408C9.97949 49.4889 13.6893 53.1061 18.9293 53.1061C24.2467 53.1061 27.9256 49.4273 27.9256 44.1098V35.5928H22.701V44.419C22.701 46.3511 21.4335 48.1442 18.9449 48.1442C16.5799 48.1442 15.2042 46.5056 15.2042 44.4345V42.5487" fill="white"/>
<path d="M9.97949 42.5331V44.1408L10.0259 45.13L10.1496 46.0728L10.3505 46.954L10.6442 47.8041L10.9997 48.5925L11.4325 49.3344L11.9272 50.0144L12.4836 50.6327L13.1174 51.1893L13.7975 51.6838L14.5395 52.1013L15.3277 52.4567L16.1625 52.735L17.0436 52.936L17.971 53.0596L18.9294 53.1061L19.9187 53.0596L20.8461 52.936L21.7426 52.735L22.5773 52.4414L23.3811 52.0859L24.1231 51.653L24.8032 51.1583L25.4214 50.6019L25.9935 49.9835L26.488 49.2881L26.9208 48.5616L27.2764 47.7578L27.5546 46.923L27.7555 46.0267L27.8947 45.099L27.9256 44.1097V35.5928H22.701V44.419L22.6392 45.1454L22.4691 45.8256L22.1755 46.4593L21.758 47.0158L21.2325 47.4795L20.5833 47.835L20.2123 47.9742L19.8259 48.067L19.3931 48.1288L18.9448 48.1442L18.5121 48.1288L18.1101 48.0823L17.3682 47.866L16.719 47.5259L16.1934 47.0621L15.7606 46.5212L15.4669 45.8875L15.266 45.1764L15.2041 44.4345V42.5331V42.5487H9.97949V42.5331H15.2196V44.4345L15.2814 45.1764L15.4669 45.8875L15.776 46.5212L16.1934 47.0621L16.719 47.5104L17.3682 47.8505L18.1101 48.067L18.5121 48.1288L18.9448 48.1442L19.3931 48.1288L19.8259 48.067L20.2123 47.9742L20.5833 47.835L21.2325 47.4795L21.758 47.0158L22.16 46.4593L22.4537 45.8256L22.6392 45.1454L22.701 44.419V35.5928H27.941V44.1097L27.8947 45.099L27.771 46.0267L27.5546 46.923L27.2764 47.7578L26.9208 48.5616L26.488 49.2881L25.9935 49.9835L25.4214 50.6019L24.8032 51.1583L24.1231 51.6685L23.3811 52.0859L22.5773 52.4414L21.7426 52.735L20.8461 52.936L19.9187 53.0596L18.9294 53.1061L17.971 53.0596L17.0436 52.936L16.1625 52.735L15.3277 52.4567L14.5395 52.1013L13.7975 51.6838L13.1174 51.1893L12.4836 50.6327L11.9272 50.0144L11.4325 49.3344L10.9997 48.5925L10.6442 47.8041L10.3505 46.954L10.1496 46.0728L10.0105 45.13L9.97949 44.1408V42.5331Z" fill="white"/>
<path d="M40.7549 36.3035C43.2281 36.3035 45.2531 37.8493 45.8559 40.1989H35.7003C36.2567 38.344 37.9261 36.3035 40.7549 36.3035ZM40.7858 31.6973C35.1902 31.6973 30.3057 36.3654 30.3057 42.4556C30.3057 48.2676 34.9429 53.1058 40.7858 53.1058C45.2221 53.1058 49.3491 50.8181 50.6475 46.1189H45.052C44.372 47.433 42.9345 48.4994 40.724 48.4994C38.0034 48.4994 36.133 46.6292 35.6384 44.4497H51.0495L51.1268 42.873C51.1268 35.7007 46.3348 31.6973 40.7858 31.6973Z" fill="white"/>
<path d="M40.7858 31.6973C35.1902 31.6973 30.3057 36.3654 30.3057 42.4556C30.3057 48.2676 34.9429 53.1058 40.7858 53.1058C45.2221 53.1058 49.3491 50.8181 50.6475 46.1189H45.052C44.372 47.433 42.9345 48.4994 40.724 48.4994C38.0034 48.4994 36.133 46.6292 35.6384 44.4497H51.0495L51.1268 42.873C51.1268 35.7007 46.3348 31.6973 40.7858 31.6973H40.322Z" fill="white"/>
<path d="M40.7558 36.3037C43.229 36.3037 45.254 37.8495 45.8568 40.199H35.7012C36.2576 38.3442 37.9271 36.3037 40.7558 36.3037H41.2196Z" fill="#8200FF"/>
<path d="M71.4537 42.4557V44.1406C71.4537 49.4888 67.744 53.106 62.504 53.106C57.1864 53.106 53.5078 49.4271 53.5078 44.1097V28.915H58.7322V33.274H66.2292V38.1894H58.7322V44.4189C58.7322 46.351 59.9997 48.1441 62.4884 48.1441C64.8535 48.1441 66.2292 46.5055 66.2292 44.4343V42.4402" fill="white"/>
<path d="M71.4537 42.4402V44.1406L71.423 45.1299L71.2839 46.0727L71.0828 46.9539L70.8046 47.804L70.4335 48.5924L70.0163 49.3343L69.5062 50.0143L68.9496 50.6326L68.3159 51.1891L67.6358 51.6837L66.9093 52.1012L66.1055 52.4566L65.2707 52.7349L64.3896 52.9359L63.4623 53.0595L62.504 53.1059L61.5301 53.0595L60.5872 52.9359L59.6907 52.7349L58.856 52.4413L58.0522 52.0858L57.3103 51.6684L56.63 51.1582L56.0119 50.6018L55.44 49.9834L54.9454 49.2879L54.5123 48.5614L54.1569 47.7576L53.8786 46.9228L53.6623 46.0265L53.5385 45.0988L53.5078 44.1096V28.915H58.7322V33.2741H66.2292V38.1895H58.7322V44.4189L58.7941 45.1453L58.9795 45.8254L59.2734 46.4591L59.6752 47.0157L60.2008 47.4794L60.8501 47.8349L61.2209 47.974L61.6074 48.0668L62.0401 48.1286L62.4884 48.1441L62.9214 48.1286L63.3231 48.0668L64.0651 47.8504L64.7144 47.5103L65.24 47.062L65.6572 46.5211L65.9663 45.8874L66.152 45.1763L66.2292 44.4343V42.4402H71.4537V42.4557H66.2292V42.4402V44.4343L66.1673 45.1763L65.9663 45.8874L65.6727 46.5211L65.24 47.062L64.7144 47.5258L64.0651 47.8659L63.3231 48.0822L62.9214 48.1286L62.4884 48.1441L62.0401 48.1286L61.6074 48.0668L61.2209 47.974L60.8501 47.8349L60.2008 47.4794L59.6752 47.0157L59.2734 46.4591L58.9642 45.8254L58.7941 45.1453L58.7322 44.4189V38.1895H66.2292V33.2741H58.7322V28.915V28.9305H53.5078V28.915V44.1096L53.5541 45.0988L53.6776 46.0265L53.8786 46.9228L54.1569 47.7576L54.528 48.5614L54.9454 49.2879L55.44 49.9834L56.0119 50.6018L56.63 51.1582L57.3256 51.6528L58.0676 52.0858L58.856 52.4413L59.6907 52.7195L60.5872 52.9359L61.5301 53.0595L62.504 53.1059L63.4623 53.0595L64.3896 52.9359L65.2707 52.7349L66.1055 52.4566L66.8939 52.1012L67.6358 51.6837L68.3159 51.1891L68.9496 50.6326L69.5062 50.0143L70.0007 49.3343L70.4335 48.5924L70.7892 47.804L71.0828 46.9539L71.2839 46.0727L71.4074 45.1299L71.4537 44.1406V42.4402Z" fill="white"/>
<path d="M28.2039 30.7851C28.2039 32.3773 26.9055 33.6756 25.3133 33.6756C23.7213 33.6756 22.4229 32.3773 22.4229 30.7851C22.4229 29.1775 23.7213 27.8945 25.3133 27.8945C26.9055 27.8946 28.2039 29.1776 28.2039 30.7851Z" fill="white"/>
<path d="M28.2039 30.7851C28.2039 32.3773 26.9055 33.6756 25.3133 33.6756C23.7213 33.6756 22.4229 32.3773 22.4229 30.7851C22.4229 29.1775 23.7213 27.8945 25.3133 27.8945C26.9055 27.8946 28.2039 29.1776 28.2039 30.7851V31.2488Z" fill="white"/>
<path d="M15.4822 30.7851C15.4822 32.3773 14.1838 33.6756 12.5917 33.6756C10.9841 33.6756 9.70117 32.3773 9.70117 30.7851C9.70117 29.1775 10.9841 27.8945 12.5917 27.8945C14.1838 27.8946 15.4822 29.1776 15.4822 30.7851Z" fill="white"/>
<path d="M15.4822 30.7851C15.4822 32.3773 14.1838 33.6756 12.5917 33.6756C10.9841 33.6756 9.70117 32.3773 9.70117 30.7851C9.70117 29.1775 10.9841 27.8945 12.5917 27.8945C14.1838 27.8946 15.4822 29.1776 15.4822 30.7851V31.2488Z" fill="white"/>
</svg>
