<svg width="100%" height="100%" viewBox="0 0 81 81" fill="none" xmlns="http://www.w3.org/2000/svg">
<mask id="mask0_860_5002" style="mask-type:alpha" maskUnits="userSpaceOnUse" x="0" y="0" width="81" height="81">
<rect width="81" height="81" rx="11" fill="#C4C4C4"/>
</mask>
<g mask="url(#mask0_860_5002)">
<rect width="81" height="81" rx="11" fill="#0075C9"/>
</g>
<path d="M37.127 20.0539C33.2847 20.8285 31.3946 21.6652 28.0791 24.144C25.8171 25.8483 23.0904 29.0708 21.8509 31.5497C19.1552 36.9722 19.1552 45.0595 21.8509 50.4511C23.834 54.3863 27.6143 58.1356 31.5495 60.0567C37.158 62.8454 43.9129 62.9694 49.7383 60.4595C53.6115 58.8173 58.1664 54.3863 60.1495 50.4511C62.8453 45.0285 62.8453 36.9412 60.1495 31.5497C55.9354 23.1525 46.1439 18.2877 37.127 20.0539ZM55.0988 30.0004C55.0988 31.7666 55.0678 31.8595 54.2932 31.9525C53.5805 32.0454 53.5185 32.1694 53.4876 33.5638C53.4566 35.4229 53.2707 35.7328 52.1242 35.7328H51.2256V44.068C51.2256 50.3581 51.1326 52.4652 50.8537 52.6821C50.6368 52.837 47.9411 53.6426 44.8735 54.4483C41.8059 55.2539 37.5918 56.4004 35.5157 56.9271C33.4087 57.4849 31.6425 57.8877 31.5495 57.7947C31.4566 57.7018 31.3946 52.713 31.3946 46.6708V35.7328H30.3411C29.0087 35.7328 28.7918 35.3919 28.8228 33.5018C28.8537 32.0764 28.8228 32.0145 27.9552 32.0145C27.2115 32.0145 27.0876 31.8905 26.9946 30.9919C26.9326 30.4652 26.9636 29.5356 27.0256 28.9778L27.1185 27.9863L41.1242 28.0483L55.0988 28.1412V30.0004Z" fill="white"/>
<path d="M34.7101 37.1887C34.5861 37.2816 34.4932 41.1239 34.4932 45.6478C34.4932 52.5267 34.5551 54.014 34.958 54.3239C35.9495 55.1295 36.0425 54.3549 36.0425 45.6169C36.0425 37.4366 36.0115 36.9718 35.4847 36.9718C35.1749 36.9718 34.803 37.0647 34.7101 37.1887Z" fill="white"/>
<path d="M38.5215 45.1833V53.3945H39.2961H40.0708V45.1833V36.972H39.2961H38.5215V45.1833Z" fill="white"/>
<path d="M42.3022 44.626C42.3952 52.0627 42.4261 52.3105 43.0149 52.3105C43.6036 52.3105 43.6346 52.0627 43.7276 44.626L43.7895 36.9725H43.0149H42.2402L42.3022 44.626Z" fill="white"/>
<path d="M46.1134 37.3442C46.0204 37.5611 45.9894 40.8147 46.0204 44.564L46.1134 51.3809H46.888H47.6627V44.2541V37.1273L46.95 37.0344C46.5782 36.9724 46.2063 37.1273 46.1134 37.3442Z" fill="white"/>
</svg>
