<svg width="100%" height="100%" viewBox="0 0 81 81" fill="none" xmlns="http://www.w3.org/2000/svg">
<mask id="mask0_860_4688" style="mask-type:alpha" maskUnits="userSpaceOnUse" x="0" y="0" width="81" height="81">
<rect width="81" height="81" rx="11" fill="#08BC78"/>
</mask>
<g mask="url(#mask0_860_4688)">
<rect width="81" height="81" rx="11" fill="#08BC78"/>
</g>
<g clip-path="url(#clip0_860_4688)">
<path d="M10.7002 10.7002H70.0002V70.0002H10.7002V10.7002Z" fill="#08BC78"/>
<path d="M59.9408 20.248C57.8769 20.5562 44.378 22.0037 34.4791 24.4878C20.3312 27.9944 20.5833 39.817 20.5833 44.4723V60.2545C20.5833 60.488 20.7701 60.4973 20.8775 60.3386C26.7891 52.4907 33.487 45.2671 40.8667 38.7805C36.6413 40.1196 32.564 41.8876 28.6985 44.0568V41.9929C28.6378 33.9618 33.3818 31.7859 38.9897 30.2076C43.3371 29.2389 47.746 28.5696 52.1851 28.2045C52.1851 28.2045 51.466 33.2193 50.5648 43.4124C49.9345 50.8272 44.4621 52.4568 36.8278 52.4568H32.49C29.0581 57.3969 28.6005 60.4506 28.6005 60.4506H37.0239C53.0862 60.4506 56.6442 53.4187 57.41 42.9175C58.4092 29.624 59.7213 21.915 60.1042 20.4582C60.1146 20.4235 60.1112 20.3861 60.0946 20.3539C60.0781 20.3217 60.0497 20.2971 60.0155 20.2854L59.9408 20.248Z" fill="white"/>
</g>
<defs>
<clipPath id="clip0_860_4688">
<rect width="59.3" height="59.3" fill="white" transform="translate(10.7002 10.7002)"/>
</clipPath>
</defs>
</svg>
