<svg width="100%" height="100%" viewBox="0 0 81 81" fill="none" xmlns="http://www.w3.org/2000/svg">
<mask id="mask0_860_5066" style="mask-type:alpha" maskUnits="userSpaceOnUse" x="0" y="0" width="81" height="81">
<rect width="81" height="81" rx="11" fill="#C4C4C4"/>
</mask>
<g mask="url(#mask0_860_5066)">
<rect width="81" height="81" rx="11" fill="#D9041A"/>
</g>
<path d="M37.7659 7.67729C43.7614 7.11904 49.9022 8.13404 55.3762 10.6505C61.2054 13.321 66.2664 17.6435 69.7927 23.0003C73.2822 28.245 75.2614 34.475 75.4539 40.7715C75.6552 46.5465 74.3672 52.367 71.7317 57.5103C69.4112 62.0463 66.0739 66.0573 62.0314 69.16C57.6232 72.5445 52.3924 74.8685 46.9079 75.789C40.7479 76.8653 34.2974 76.23 28.4717 73.9568C22.2242 71.526 16.7064 67.2368 12.8477 61.7505C9.13244 56.5653 6.95019 50.3073 6.58619 43.9408C6.23094 38.0083 7.43669 31.9865 10.0932 26.6665C13.1609 20.4698 18.1467 15.2408 24.1947 11.8895C28.3562 9.55154 33.0147 8.11829 37.7659 7.67729V7.67729ZM30.0449 22.4963C29.4954 22.9145 29.2644 23.6075 28.9022 24.1745C25.6157 29.869 22.3607 35.5828 19.0532 41.265C18.9184 41.5275 18.6927 41.8373 18.9149 42.1225C22.5024 48.3123 26.0514 54.5248 29.6302 60.7198C29.7824 60.8773 29.8734 61.1993 30.1412 61.1678C37.5174 61.215 44.8972 61.1258 52.2734 61.2133C55.6037 55.461 58.9024 49.6878 62.2257 43.9303C62.5862 43.2793 63.0272 42.6703 63.3229 41.9843C63.4122 41.671 63.2004 41.3963 63.0692 41.1338C59.4309 34.9335 55.9239 28.6545 52.2752 22.463C44.8674 22.5225 37.4527 22.4543 30.0449 22.4963V22.4963Z" fill="white"/>
<path d="M30.0449 22.4961C37.4527 22.4541 44.8674 22.5224 52.2752 22.4629C55.9239 28.6544 59.4309 34.9334 63.0692 41.1336C63.2004 41.3961 63.4122 41.6709 63.3229 41.9841C63.0272 42.6701 62.5862 43.2791 62.2257 43.9301C58.9024 49.6876 55.6037 55.4609 52.2734 61.2131C44.8972 61.1256 37.5174 61.2149 30.1412 61.1676C29.8734 61.1991 29.7824 60.8771 29.6302 60.7196C26.0514 54.5246 22.5024 48.3121 18.9149 42.1224C18.6927 41.8371 18.9184 41.5274 19.0532 41.2649C22.3607 35.5826 25.6157 29.8689 28.9022 24.1744C29.2644 23.6074 29.4954 22.9144 30.0449 22.4961V22.4961Z" fill="#D9041A"/>
</svg>
