<svg width="100%" height="100%" viewBox="0 0 81 81" fill="none" xmlns="http://www.w3.org/2000/svg">
<mask id="mask0_860_4760" style="mask-type:alpha" maskUnits="userSpaceOnUse" x="0" y="0" width="81" height="81">
<rect width="81" height="81" rx="11" fill="#C4C4C4"/>
</mask>
<g mask="url(#mask0_860_4760)">
<rect width="81" height="81" rx="11" fill="url(#paint0_radial_860_4760)"/>
</g>
<g clip-path="url(#clip0_860_4760)">
<path d="M55.8525 24.6626C54.1873 23.6096 52.2078 23.2285 50.107 23.3688C43.8958 23.7794 36.602 28.728 33.0749 34.3122C28.3542 41.7874 29.8694 51.2195 36.4598 55.3801C38.3915 56.6003 40.5448 57.2267 42.7431 57.3216C48.0416 57.5476 53.5984 54.6591 56.9356 49.3766C61.6546 41.9032 62.4425 28.8204 55.8525 24.6626" fill="url(#paint1_radial_860_4760)"/>
<path d="M38.1079 23.4493C37.8493 23.4502 37.5883 23.4595 37.3255 23.4769C31.113 23.8879 23.8197 28.8373 20.2943 34.4206C15.5725 41.8949 17.0883 51.3264 23.6785 55.4898C25.6102 56.7083 27.7636 57.3357 29.9607 57.4282C32.1639 57.5231 34.3846 57.1388 36.4989 56.2087C26.003 50.7276 28.4838 38.9537 31.7022 34.2891C34.191 30.3471 38.6942 26.6433 43.1533 24.8217C43.1267 24.8045 43.1003 24.787 43.0735 24.77C41.6156 23.8495 39.9183 23.4431 38.1079 23.4493Z" fill="url(#paint2_radial_860_4760)"/>
<path d="M25.9627 23.5537C19.5812 23.5411 11.7731 28.6861 8.08693 34.5254C3.36612 42.0006 4.8805 51.4312 11.4718 55.594C15.2639 57.9882 19.9109 58.1143 24.0725 56.3642C23.5194 56.1192 22.979 55.8318 22.4547 55.5009C15.8644 51.3378 14.3516 41.9075 19.0698 34.4323C21.6121 30.406 26.1136 26.7102 30.7559 24.8076C29.3395 23.9452 27.7043 23.5572 25.9627 23.5537Z" fill="url(#paint3_radial_860_4760)"/>
<path d="M33.853 36.8095L33.5962 37.5961C33.8668 37.2824 34.1579 37.0447 34.4672 36.8861C34.7766 36.7289 35.1096 36.6478 35.4667 36.6456C35.9087 36.6424 36.2436 36.7428 36.4707 36.9504C36.6997 37.1593 36.8107 37.4233 36.8079 37.7426C36.8048 38.0613 36.706 38.5936 36.5125 39.34L34.9649 45.328L32.3675 45.3498L33.899 39.4292C34.0529 38.8418 34.1256 38.4831 34.1237 38.3546C34.1184 38.2259 34.0318 38.162 33.8572 38.1639C33.681 38.1666 33.5492 38.2405 33.4622 38.389C33.3768 38.5367 33.2506 38.9338 33.0834 39.5779L31.5883 45.3559L28.9922 45.3784L31.2031 36.8317L33.853 36.8095" fill="#0D2D66"/>
<path d="M40.5725 39.7872L40.7352 39.1585C40.8509 38.7127 40.9002 38.4259 40.885 38.2974C40.8704 38.1677 40.7929 38.1038 40.652 38.106C40.4708 38.1069 40.3457 38.1622 40.2763 38.2727C40.2054 38.3842 40.1068 38.6817 39.9817 39.163L39.819 39.7922L40.5725 39.7872ZM42.8104 41.1474L39.4616 41.1754L38.9829 43.0242C38.8827 43.4117 38.8461 43.661 38.8711 43.7717C38.8967 43.8825 38.9878 43.937 39.1446 43.9363C39.3365 43.9351 39.4836 43.8578 39.5899 43.7114C39.6917 43.5616 39.7986 43.2742 39.9091 42.8489L40.2011 41.7196L42.6671 41.6987L42.5044 42.3299C42.3683 42.8584 42.2293 43.2628 42.0899 43.5477C41.9503 43.8312 41.7176 44.1355 41.3902 44.4598C41.0639 44.7817 40.6934 45.027 40.277 45.1915C39.8628 45.3552 39.3718 45.4391 38.8056 45.4432C38.2608 45.4496 37.8006 45.3738 37.4208 45.2194C37.0409 45.0641 36.7712 44.8491 36.6107 44.5731C36.4499 44.299 36.3667 43.9965 36.3615 43.6648C36.3567 43.3325 36.4382 42.8489 36.6021 42.2144L37.2477 39.7238C37.4402 38.9766 37.6924 38.3883 38.0054 37.9547C38.3188 37.5217 38.7343 37.1884 39.2499 36.9555C39.7691 36.7228 40.3233 36.6036 40.9148 36.5979C41.6417 36.5915 42.2056 36.7264 42.6072 36.9969C43.0094 37.2701 43.245 37.634 43.3166 38.0886C43.3882 38.5445 43.3195 39.1855 43.1047 40.015L42.8104 41.1474" fill="#0D2D66"/>
<path d="M53.1747 36.6445L49.9206 45.1987L47.1301 45.2236C47.2475 44.1796 47.4267 42.7993 47.6639 41.0792C47.3771 41.8413 47.0721 42.6043 46.748 43.3683L46 45.2316L43.2109 45.2572L44.3239 36.7196L46.541 36.6996C46.5092 36.9211 46.2784 38.5568 45.8435 41.609C45.968 41.2833 46.5889 39.643 47.707 36.6904L49.8224 36.6717L49.0893 41.5812C49.5495 40.1361 50.1717 38.4973 50.9534 36.6625L53.1747 36.6445" fill="#0D2D66"/>
<path d="M56.3982 39.6351L56.5609 39.0066C56.6744 38.5612 56.7256 38.2736 56.7103 38.1451C56.6958 38.0156 56.618 37.9514 56.477 37.9527C56.2952 37.9546 56.1711 38.009 56.1001 38.1204C56.0301 38.2318 55.9332 38.5281 55.8097 39.0119L55.6444 39.6402L56.3982 39.6351ZM58.6348 40.9951L55.2869 41.0239L54.8083 42.8712C54.7094 43.2599 54.6709 43.5087 54.6968 43.6192C54.7221 43.7306 54.8122 43.7863 54.9703 43.784C55.1609 43.7827 55.3109 43.7084 55.4153 43.5593C55.5183 43.4093 55.625 43.1213 55.7348 42.6965L56.0275 41.5677L58.4935 41.5474L58.3288 42.1779C58.1934 42.7051 58.0569 43.1111 57.9156 43.3954C57.7743 43.6793 57.541 43.9828 57.2156 44.3072C56.8883 44.6307 56.5178 44.8756 56.1027 45.0399C55.6875 45.2032 55.1975 45.2873 54.6297 45.293C54.0842 45.2976 53.6266 45.2222 53.2455 45.0662C52.8663 44.9111 52.5967 44.6972 52.4366 44.4218C52.2758 44.1458 52.1922 43.8441 52.1877 43.5122C52.1831 43.1803 52.2632 42.6978 52.4275 42.0616L53.0715 39.5719C53.2643 38.8256 53.5197 38.2356 53.8315 37.8027C54.1423 37.3691 54.5594 37.0376 55.0753 36.8032C55.5913 36.5696 56.1477 36.45 56.7402 36.4455C57.4661 36.4392 58.0291 36.5721 58.4316 36.8449C58.8341 37.119 59.0697 37.4805 59.1423 37.9362C59.2146 38.3932 59.1443 39.0341 58.9304 39.8618L58.6348 40.9951" fill="#0D2D66"/>
<path d="M63.3563 38.8002C63.4571 38.4098 63.4976 38.16 63.4778 38.0531C63.4587 37.9461 63.3735 37.8939 63.2234 37.8939C63.0708 37.8961 62.9493 37.9581 62.8569 38.0809C62.7613 38.205 62.6689 38.4474 62.5753 38.807L61.8321 41.6835C61.7313 42.0653 61.6908 42.3127 61.708 42.4257C61.7252 42.5407 61.8088 42.5963 61.9605 42.5941C62.1296 42.5932 62.258 42.5247 62.3481 42.3867C62.4359 42.2476 62.5429 41.9345 62.6689 41.4499L63.3563 38.8002ZM66.5389 36.5111L64.8351 43.0983C64.6021 43.9888 64.4323 44.5655 64.3234 44.8231C64.2142 45.0839 63.998 45.358 63.673 45.653C63.3518 45.9439 62.9493 46.1688 62.4677 46.3239C61.9841 46.481 61.4085 46.5632 60.7403 46.5693C59.9103 46.5752 59.2832 46.4391 58.8563 46.1631C58.4292 45.8841 58.3128 45.3318 58.5102 44.5055L61.0294 44.4832C60.9289 44.8691 61.0161 45.0609 61.2974 45.0586C61.4915 45.0573 61.6396 44.9975 61.7359 44.8782C61.8302 44.7593 61.9284 44.5129 62.0246 44.1395L62.1935 43.4856C61.9177 43.6901 61.6461 43.8451 61.3719 43.9512C61.0977 44.0559 60.8262 44.1089 60.5542 44.1127C60.0876 44.1161 59.7262 44.024 59.4731 43.8388C59.2203 43.6527 59.0774 43.4084 59.043 43.1014C59.007 42.7976 59.0621 42.3608 59.2102 41.7936L60.013 38.6943C60.2243 37.884 60.5199 37.3011 60.9056 36.9411C61.2883 36.5842 61.779 36.4022 62.3714 36.3965C62.6949 36.3943 62.9732 36.4586 63.2063 36.589C63.4419 36.7206 63.6279 36.919 63.7734 37.1833L64.1221 36.5326L66.5389 36.5111" fill="#0D2D66"/>
<path d="M70.1822 38.743C70.2827 38.3515 70.3232 38.1037 70.3044 37.9951C70.2872 37.8869 70.201 37.8353 70.0516 37.8366C69.8996 37.8379 69.7778 37.8995 69.6809 38.0239C69.5914 38.1474 69.4971 38.3889 69.4028 38.7487L68.6577 41.6253C68.5598 42.0064 68.5193 42.2532 68.5362 42.369C68.5508 42.4823 68.6363 42.5378 68.7883 42.5365C68.9559 42.5349 69.0839 42.4678 69.1717 42.3279C69.2618 42.1893 69.3688 41.8778 69.4945 41.3921L70.1822 38.743ZM73.3648 36.4542L71.6588 43.0413C71.4296 43.9325 71.2589 44.5061 71.1493 44.7665C71.0404 45.025 70.8265 45.3017 70.5011 45.5935C70.1777 45.8865 69.7752 46.1106 69.2939 46.268C68.8123 46.4239 68.2364 46.5056 67.5665 46.5094C66.7381 46.518 66.1113 46.3822 65.6848 46.1049C65.2548 45.8258 65.1391 45.275 65.3364 44.4471L67.8553 44.4269C67.7571 44.8123 67.8426 45.0039 68.123 45.0016C68.3197 44.9995 68.4675 44.9396 68.5618 44.821C68.6577 44.7016 68.752 44.4553 68.8509 44.0825L69.02 43.4274C68.7478 43.6325 68.4717 43.7869 68.1982 43.8926C67.9262 43.9981 67.6547 44.0525 67.3824 44.0547C66.9135 44.0566 66.5544 43.9679 66.3013 43.7825C66.0469 43.5964 65.9055 43.3489 65.8715 43.0441C65.8365 42.7384 65.8929 42.3038 66.0378 41.7367L66.8386 38.6367C67.0483 37.8271 67.3481 37.2441 67.7311 36.8846C68.1184 36.5257 68.6046 36.3427 69.1996 36.3389C69.523 36.3364 69.8011 36.4006 70.0344 36.532C70.2675 36.6626 70.4561 36.8605 70.5993 37.1251L70.9506 36.4744L73.3648 36.4542" fill="#0D2D66"/>
<path d="M74.4738 37.0944H74.633C74.703 37.0944 74.762 37.0529 74.7601 37.0013C74.7577 36.9353 74.7121 36.8878 74.6565 36.8878H74.4738V37.0944ZM74.3281 37.5049V36.7705H74.6524C74.7176 36.7705 74.7665 36.7772 74.8005 36.7904C74.8341 36.8036 74.8612 36.827 74.8815 36.8603C74.9015 36.8938 74.9196 36.9391 74.9196 36.9798C74.9196 37.0321 74.9091 37.0775 74.8757 37.1133C74.8423 37.1491 74.7903 37.1749 74.7205 37.1845C74.7459 37.1969 74.752 37.196 74.7649 37.2079C74.7934 37.2337 74.8205 37.2663 74.8451 37.3056L74.9713 37.5049H74.7748C74.7191 37.4216 74.6788 37.3288 74.6187 37.2514C74.5931 37.2189 74.5747 37.2154 74.5378 37.2149H74.4738V37.5049H74.3281" fill="#0D2D66"/>
<path d="M75.253 37.1494C75.253 37.4932 74.9746 37.7713 74.631 37.7713C74.2872 37.7713 74.0088 37.4932 74.0088 37.1494C74.0088 36.8058 74.2872 36.5273 74.631 36.5273C74.9746 36.5273 75.253 36.8058 75.253 37.1494Z" stroke="#002D6A" stroke-width="0.120843"/>
</g>
<defs>
<radialGradient id="paint0_radial_860_4760" cx="0" cy="0" r="1" gradientUnits="userSpaceOnUse" gradientTransform="translate(60 41) rotate(118.301) scale(44.2945)">
<stop offset="0" stop-color="#90D2F4"/>
<stop offset="1"/>
</radialGradient>
<radialGradient id="paint1_radial_860_4760" cx="0" cy="0" r="1" gradientUnits="userSpaceOnUse" gradientTransform="translate(45.4871 40.352) rotate(-0.492731) scale(16.0996)">
<stop offset="0" stop-color="white"/>
<stop offset="0.270833" stop-color="white"/>
<stop offset="0.649022" stop-color="white"/>
<stop offset="1" stop-color="#D6D7DD"/>
</radialGradient>
<radialGradient id="paint2_radial_860_4760" cx="0" cy="0" r="1" gradientUnits="userSpaceOnUse" gradientTransform="translate(32.7067 40.4593) rotate(-0.492731) scale(16.0997)">
<stop offset="0" stop-color="#F7ED1A"/>
<stop offset="0.19" stop-color="#F7ED1A"/>
<stop offset="1" stop-color="#EF7C29"/>
</radialGradient>
<radialGradient id="paint3_radial_860_4760" cx="0" cy="0" r="1" gradientUnits="userSpaceOnUse" gradientTransform="translate(20.4995 40.5669) rotate(-0.492731) scale(16.1012)">
<stop offset="0" stop-color="white"/>
<stop offset="0.270833" stop-color="white"/>
<stop offset="0.649022" stop-color="white"/>
<stop offset="1" stop-color="#D6D7DD"/>
</radialGradient>
<clipPath id="clip0_860_4760">
<rect width="70.6535" height="34.8923" fill="white" transform="translate(5 23)"/>
</clipPath>
</defs>
</svg>
