<svg width="100%" height="100%" viewBox="0 0 81 81" fill="none" xmlns="http://www.w3.org/2000/svg">
<rect width="81" height="81" rx="11" fill="#53A63A"/>
<g clip-path="url(#clip0_1278_6222)">
<path d="M28.3378 51.0176C28.0024 51.0176 27.7305 51.2216 27.7305 51.7349V61.4248C27.7305 61.76 28.0024 62.0319 28.3378 62.0319C28.6731 62.0319 28.945 61.76 28.945 61.4248V51.7493C28.945 51.2503 28.6731 51.0176 28.3378 51.0176Z" fill="white"/>
<path d="M23.3852 51.0176C23.0497 51.0176 22.7778 51.2216 22.7778 51.7349V59.6662L15.4747 51.2613C15.4266 51.2045 15.3695 51.16 15.3074 51.1273C15.2082 51.0543 15.0877 51.0176 14.957 51.0176C14.6215 51.0176 14.3496 51.2216 14.3496 51.7349V61.4248C14.3496 61.76 14.6215 62.0319 14.957 62.0319C15.2922 62.0319 15.5642 61.76 15.5642 61.4248V53.1163L22.9051 61.8201C22.9915 61.9226 23.1068 61.9853 23.2287 62.009C23.2789 62.0224 23.3307 62.0319 23.3852 62.0319C23.7205 62.0319 23.9924 61.76 23.9924 61.4248V51.7493C23.9924 51.2503 23.7205 51.0176 23.3852 51.0176Z" fill="white"/>
<path d="M54.6198 51.0176C54.2847 51.0176 54.0128 51.2216 54.0128 51.7349V55.9329H46.7989V51.7493C46.7989 51.2503 46.5274 51.0176 46.192 51.0176C46.1894 51.0176 46.1868 51.0181 46.1842 51.0181C46.1816 51.0181 46.1797 51.0176 46.1773 51.0176C45.8422 51.0176 45.5703 51.2216 45.5703 51.7349V61.4248C45.5703 61.76 45.8422 62.0319 46.1773 62.0319C46.1799 62.0319 46.1819 62.0312 46.1845 62.0312C46.1871 62.0312 46.1897 62.0319 46.192 62.0319C46.5274 62.0319 46.7989 61.76 46.7989 61.4248V56.9556H54.0128V61.4248C54.0128 61.76 54.2847 62.0319 54.6198 62.0319C54.9554 62.0319 55.227 61.76 55.227 61.4248V51.7493C55.227 51.2503 54.9554 51.0176 54.6198 51.0176Z" fill="white"/>
<path d="M35.8039 52.3521C37.5394 51.4828 39.5916 51.9788 40.9168 53.3321C41.1706 53.591 41.5712 53.6454 41.8293 53.4099C42.043 53.2147 42.0987 52.8454 41.8214 52.5626C40.1886 50.895 37.7578 50.4417 35.5916 51.2262C33.6951 51.9125 32.3011 53.7281 32.0365 55.7095C31.7642 57.7463 32.662 59.7823 34.3238 60.983C36.145 62.2987 38.6326 62.4058 40.5803 61.3C40.9825 61.0716 41.3525 60.7873 41.6878 60.4701C41.992 60.1815 41.8343 59.7774 41.5832 59.597C41.3461 59.4275 41.0313 59.4649 40.7826 59.7004C39.3982 61.012 37.4133 61.351 35.6989 60.4926C34.1405 59.7123 33.2438 58.0345 33.2644 56.3232C33.2846 54.6367 34.3116 53.0994 35.8039 52.3521H35.8039Z" fill="white"/>
<path d="M67.1227 52.0408C67.5428 52.0408 67.7391 51.8118 67.7391 51.5293C67.7391 51.2469 67.5672 51.0176 67.1347 51.0176H59.7027C59.7007 51.0176 59.7001 51.0179 59.6988 51.0181C59.6968 51.0179 59.6962 51.0176 59.6949 51.0176C59.3598 51.0176 59.0879 51.2216 59.0879 51.7349V61.4248C59.0879 61.76 59.3598 62.0319 59.6949 62.0319C59.6975 62.0319 59.6994 62.0312 59.7023 62.0312C59.7049 62.0312 59.7068 62.0319 59.7095 62.0319C59.7162 62.0319 59.7224 62.0301 59.7291 62.0298H67.1226C67.5428 62.0298 67.7391 61.8008 67.7391 61.5185C67.7391 61.2359 67.5672 61.0069 67.1347 61.0069H60.3165V56.9554H65.8215C66.2417 56.9554 66.4376 56.7266 66.4376 56.4442C66.4376 56.1615 66.266 55.9326 65.8339 55.9326H60.3165V52.0404H67.1226L67.1227 52.0408Z" fill="white"/>
<path d="M70.4875 53.3422C69.8247 53.3422 69.2852 52.8027 69.2852 52.1398C69.2852 51.477 69.8247 50.9375 70.4875 50.9375C71.1503 50.9375 71.6898 51.477 71.6898 52.1398C71.6898 52.8027 71.1503 53.3422 70.4875 53.3422ZM70.4875 51.0914C69.9191 51.0914 69.4569 51.5716 69.4569 52.1398C69.4569 52.708 69.9191 53.1989 70.4875 53.1989C71.0559 53.1989 71.5181 52.708 71.5181 52.1398C71.5181 51.5716 71.0559 51.0914 70.4875 51.0914Z" fill="white"/>
<path d="M70.6424 52.2011C70.8636 52.1791 70.9779 52.01 70.9779 51.8203C70.9779 51.6099 70.8161 51.4464 70.6122 51.433V51.4316H70.1405C70.1039 51.4316 70.0742 51.4614 70.0742 51.4979C70.0742 51.5021 70.0742 51.506 70.0762 51.5098C70.0762 51.5153 70.0742 51.5208 70.0742 51.5271V52.7427C70.0742 52.8294 70.0944 52.8537 70.1526 52.8537C70.2001 52.8537 70.229 52.8239 70.229 52.742C70.229 52.636 70.229 52.2034 70.229 52.2034H70.4844L70.7559 52.7441C70.7559 52.7441 70.8144 52.875 70.8856 52.8394C70.9596 52.8023 70.8882 52.678 70.8882 52.678L70.6424 52.2011ZM70.2288 51.5646H70.5914V51.5658C70.7196 51.5694 70.8231 51.6896 70.8231 51.8207C70.8231 51.9495 70.723 52.0643 70.5978 52.0713H70.2288V51.5646Z" fill="white"/>
<path d="M29.3199 25.6888C28.9109 25.6888 28.5794 26.0204 28.5794 26.4294V37.9782L18.414 25.9279C18.2497 25.7291 17.9986 25.6482 17.7616 25.6889C17.3528 25.6891 17.0215 26.0206 17.0215 26.4294V40.1031C17.0215 40.5121 17.353 40.8436 17.7621 40.8436C18.1711 40.8436 18.5028 40.5121 18.5028 40.1031V28.4693L28.7058 40.5651C28.7888 40.6654 28.8951 40.7328 29.0095 40.7733C29.1041 40.8173 29.2087 40.8436 29.3199 40.8436C29.729 40.8436 30.0605 40.5121 30.0605 40.1031V26.4294C30.0605 26.0204 29.7288 25.6888 29.3199 25.6888Z" fill="white"/>
<path d="M37.6614 33.1576C37.6414 28.9494 35.7328 24.9538 32.4805 22.285C29.1653 19.5646 24.7053 18.5486 20.5229 19.4097C16.4732 20.2434 12.9114 22.9537 10.9736 26.5943C8.97494 30.3494 8.80953 34.9193 10.5292 38.8099C12.2152 42.6246 15.5677 45.4863 19.554 46.6633C23.6778 47.8805 28.1971 47.0492 31.7072 44.6141C35.426 42.0341 37.6401 37.6626 37.6614 33.1576ZM30.9228 43.6387C27.5672 46.1031 23.1201 46.6504 19.2156 45.2983C15.3977 43.976 12.4365 40.7105 11.2666 36.8795C10.0418 32.8678 10.9322 28.4492 13.4918 25.1534C16.0196 21.8987 20.0528 20.1197 24.1474 20.2946C28.2283 20.4688 31.9891 22.7474 34.2098 26.1402C35.5707 28.2194 36.261 30.6799 36.2727 33.1576C36.2529 37.3091 34.2663 41.1828 30.9228 43.6387Z" fill="white"/>
<path d="M40.2244 25.4344C40.8305 25.9218 41.5652 26.3741 42.5363 26.8579C44.5854 27.8785 46.8738 28.3777 49.1311 28.2911C51.5279 28.1984 53.7272 27.3878 55.7742 26.5658C57.4142 25.9069 59.3726 25.1822 61.5125 25.1822C61.7083 25.1822 61.906 25.1877 62.1004 25.1989C63.867 25.2983 65.6895 25.9076 67.5049 26.9088C68.3254 27.3612 69.0003 27.8268 69.5671 28.3318C69.7454 28.4909 69.9659 28.5787 70.1877 28.5787C70.4507 28.5787 70.6994 28.416 70.7878 28.1967C70.8739 27.9832 70.8977 27.7058 70.7413 27.4881C70.5473 27.2181 70.4355 27.1427 70.3112 27.0417C69.5762 26.4442 68.7655 25.9758 68.1143 25.6224C66.1162 24.5385 63.8826 23.9287 61.6552 23.8593C59.301 23.7879 57.1185 24.5232 55.1183 25.3232C53.1255 26.1207 50.993 26.9818 48.6627 27.0127L48.5267 27.0135C45.8008 27.0137 42.926 25.8892 41.0373 24.2076C40.7379 23.9414 40.1947 23.9804 39.9606 24.3574C39.7886 24.6343 39.8816 24.9981 39.9586 25.1231C40.0163 25.2166 40.0893 25.3253 40.2245 25.4344L40.2244 25.4344Z" fill="white"/>
<path d="M40.2244 32.7303C40.8305 33.2177 41.5652 33.67 42.5363 34.1538C44.5854 35.1745 46.8738 35.6736 49.1311 35.587C51.5279 35.4943 53.7272 34.6837 55.7742 33.8617C57.4142 33.2028 59.3726 32.4781 61.5125 32.4781C61.7083 32.4781 61.906 32.4836 62.1004 32.4948C63.867 32.5942 65.6895 33.2035 67.5049 34.2047C68.3254 34.6571 69.0003 35.1227 69.5671 35.6277C69.7454 35.7868 69.9659 35.8746 70.1877 35.8746C70.4507 35.8746 70.6994 35.7119 70.7878 35.4926C70.8739 35.2791 70.8977 35.0017 70.7413 34.784C70.5473 34.514 70.4355 34.4386 70.3112 34.3376C69.5762 33.7401 68.7655 33.2717 68.1143 32.9183C66.1162 31.8344 63.8826 31.2246 61.6552 31.1552C59.301 31.0837 57.1185 31.8191 55.1183 32.6191C53.1255 33.4166 50.993 34.2777 48.6627 34.3086L48.5267 34.3094C45.8008 34.3096 42.926 33.1851 41.0373 31.5035C40.7379 31.2373 40.1947 31.2763 39.9606 31.6533C39.7886 31.9302 39.8816 32.294 39.9586 32.419C40.0163 32.5125 40.0893 32.6212 40.2245 32.7303L40.2244 32.7303Z" fill="white"/>
<path d="M40.2244 40.032C40.8305 40.5195 41.5652 40.9717 42.5363 41.4556C44.5854 42.4762 46.8738 42.9754 49.1311 42.8888C51.5279 42.796 53.7272 41.9855 55.7742 41.1634C57.4142 40.5045 59.3726 39.7799 61.5125 39.7799C61.7083 39.7799 61.906 39.7854 62.1004 39.7965C63.867 39.896 65.6895 40.5052 67.5049 41.5064C68.3254 41.9589 69.0003 42.4245 69.5671 42.9295C69.7454 43.0885 69.9659 43.1763 70.1877 43.1763C70.4507 43.1763 70.6994 43.0137 70.7878 42.7943C70.8739 42.5808 70.8977 42.3034 70.7413 42.0858C70.5473 41.8158 70.4355 41.7404 70.3112 41.6394C69.5762 41.0418 68.7655 40.5734 68.1143 40.2201C66.1162 39.1361 63.8826 38.5264 61.6552 38.457C59.301 38.3855 57.1185 39.1208 55.1183 39.9209C53.1255 40.7184 50.993 41.5794 48.6627 41.6104L48.5267 41.6112C45.8008 41.6114 42.926 40.4868 41.0373 38.8053C40.7379 38.539 40.1947 38.578 39.9606 38.9551C39.7886 39.2319 39.8816 39.5957 39.9586 39.7208C40.0163 39.8142 40.0893 39.9229 40.2245 40.032L40.2244 40.032Z" fill="white"/>
</g>
<defs>
<clipPath id="clip0_1278_6222">
<rect width="62.9875" height="43.5992" fill="white" transform="translate(9.01172 18.7803)"/>
</clipPath>
</defs>
</svg>
