<svg width="100%" height="100%" viewBox="0 0 81 81" fill="none" xmlns="http://www.w3.org/2000/svg">
<mask id="mask0_860_4897" style="mask-type:alpha" maskUnits="userSpaceOnUse" x="0" y="0" width="81" height="81">
<rect width="81" height="81" rx="11" fill="#C4C4C4"/>
</mask>
<g mask="url(#mask0_860_4897)">
<rect width="81" height="81" rx="11" fill="#353535"/>
</g>
<g clip-path="url(#clip0_860_4897)">
<path d="M49.2735 46.4116C53.9685 43.8339 57.5588 41.87 57.8657 41.7166C58.8477 41.1949 59.8603 39.814 57.8657 38.74C57.2213 38.4024 53.7537 36.4998 49.2735 34.0449L43.1055 40.2436L49.2735 46.4116Z" fill="#FFD400"/>
<path d="M43.105 40.2441L23.4043 60.0983C23.8646 60.1597 24.3863 60.0369 25 59.6994C26.2888 58.9936 39.975 51.5061 49.273 46.4121L43.105 40.2441Z" fill="#FF3333"/>
<path d="M43.1045 40.244L49.2725 34.0453C49.2725 34.0453 26.3803 21.5559 24.9994 20.8194C24.4778 20.5126 23.8947 20.4205 23.373 20.5126L43.1045 40.244Z" fill="#48FF48"/>
<path d="M43.1048 40.2441L23.3733 20.5127C22.5755 20.6968 21.9004 21.4026 21.9004 22.8449C21.9004 25.1464 21.9004 55.8329 21.9004 57.7661C21.9004 59.0857 22.4221 60.0369 23.404 60.129L43.1048 40.2441Z" fill="#3BCCFF"/>
</g>
<defs>
<clipPath id="clip0_860_4897">
<rect width="37.1" height="39.647" fill="white" transform="translate(21.9004 20.4814)"/>
</clipPath>
</defs>
</svg>
