<svg width="100%" height="100%" viewBox="0 0 81 81" fill="none" xmlns="http://www.w3.org/2000/svg">
<mask id="mask0_1278_6083" style="mask-type:alpha" maskUnits="userSpaceOnUse" x="0" y="0" width="81" height="81">
<rect width="81" height="81" rx="11" fill="#C4C4C4"/>
</mask>
<g mask="url(#mask0_1278_6083)">
<rect width="81" height="81" rx="11" fill="#3D9A9E"/>
</g>
<path d="M29.5678 40.2281V43.2734H27.9199V35.2949H30.423C30.9758 35.2949 31.4555 35.3575 31.8518 35.4722C32.2481 35.5869 32.5715 35.7434 32.8218 35.952C33.0721 36.1606 33.2598 36.4004 33.3745 36.682C33.4892 36.9636 33.5518 37.2765 33.5518 37.6207C33.5518 37.8814 33.5101 38.1317 33.4371 38.3716C33.3641 38.6115 33.2494 38.8201 33.1138 39.0182C32.9678 39.2164 32.7905 39.3833 32.5819 39.5397C32.3733 39.6857 32.1334 39.8109 31.8623 39.9047C31.9665 39.9673 32.0708 40.0299 32.1647 40.1133C32.2586 40.1968 32.342 40.2906 32.415 40.4054L34.2715 43.2734H32.7905C32.5089 43.2734 32.3107 43.1692 32.1856 42.9501L30.6733 40.4992C30.6107 40.4054 30.5377 40.3323 30.4647 40.2906C30.3917 40.2489 30.277 40.2281 30.131 40.2281H29.5678ZM29.5678 39.06H30.4126C30.6837 39.06 30.9132 39.0287 31.1009 38.9557C31.2991 38.8827 31.4555 38.7992 31.5807 38.6741C31.7058 38.5593 31.7997 38.4133 31.8518 38.2569C31.9144 38.1004 31.9353 37.9231 31.9353 37.725C31.9353 37.3495 31.8101 37.0575 31.5598 36.8489C31.3095 36.6403 30.9236 36.536 30.4126 36.536H29.5573V39.06H29.5678ZM38.4015 43.263C38.2555 43.263 38.1512 43.2422 38.0782 43.2004C38.0052 43.1587 37.9426 43.0753 37.8905 42.9501L37.7653 42.5955C37.6193 42.7207 37.4837 42.825 37.3481 42.9188C37.2126 43.0127 37.077 43.0962 36.931 43.1587C36.785 43.2213 36.6285 43.2735 36.4721 43.3047C36.3052 43.336 36.1279 43.3569 35.9297 43.3569C35.6794 43.3569 35.45 43.3256 35.2518 43.263C35.0432 43.2004 34.8659 43.0961 34.7199 42.971C34.5739 42.8458 34.4592 42.679 34.3758 42.4808C34.2923 42.2827 34.2506 42.0636 34.2506 41.8133C34.2506 41.6047 34.3027 41.3961 34.407 41.1876C34.5113 40.979 34.6991 40.7912 34.9494 40.6244C35.2101 40.4575 35.5543 40.3115 35.9819 40.1968C36.4095 40.082 36.9518 40.0195 37.5984 40.009V39.717C37.5984 39.3624 37.5254 39.1017 37.369 38.9348C37.223 38.7679 37.004 38.6845 36.7224 38.6845C36.5138 38.6845 36.3365 38.7054 36.2009 38.7575C36.0653 38.8096 35.9402 38.8618 35.8359 38.9139L35.5438 39.0704C35.5438 39.0704 35.3457 39.1434 35.2205 39.1434C35.1162 39.1434 35.0224 39.1121 34.9494 39.06C34.8764 39.0078 34.8138 38.9452 34.7721 38.8722L34.5009 38.3925C34.8346 38.09 35.1997 37.871 35.6064 37.7146C36.0132 37.5685 36.4408 37.4955 36.9205 37.4955C37.2543 37.4955 37.5567 37.5477 37.8279 37.6624C38.0886 37.7771 38.3181 37.9231 38.5058 38.1213C38.6935 38.3195 38.8291 38.5489 38.9334 38.8201C39.0273 39.0912 39.0794 39.3937 39.0794 39.7066V43.2734L38.4015 43.263ZM36.3991 42.3348C36.6494 42.3348 36.8684 42.2931 37.0561 42.1992C37.2438 42.1054 37.4316 41.9698 37.6089 41.782V40.8955C37.2438 40.906 36.931 40.9373 36.6807 40.9894C36.4304 41.0415 36.2426 41.0937 36.0966 41.1667C35.9506 41.2397 35.8463 41.3231 35.7837 41.417C35.7211 41.5109 35.6899 41.6152 35.6899 41.7195C35.6899 41.9385 35.7524 42.0949 35.8776 42.1888C36.0132 42.2827 36.18 42.3244 36.3991 42.3348ZM42.0414 43.3569C41.7807 43.3569 41.5616 43.3152 41.3635 43.2422C41.1653 43.1692 40.9984 43.0649 40.8629 42.9188C40.7273 42.7833 40.623 42.606 40.5604 42.4078C40.4874 42.2096 40.4561 41.9906 40.4561 41.7403V38.6845H39.9242C39.8408 38.6845 39.7782 38.6636 39.7156 38.6115C39.6635 38.5593 39.6322 38.4863 39.6322 38.382V37.7876L40.5396 37.6207L40.842 36.1501C40.8837 35.9833 40.9984 35.8998 41.1757 35.8998H41.9684V37.6311H43.4285V38.6845H41.9684V41.6465C41.9684 41.8029 42.0101 41.928 42.0831 42.0219C42.1561 42.1158 42.2604 42.1575 42.4064 42.1575C42.4794 42.1575 42.542 42.1471 42.5942 42.1366C42.6463 42.1158 42.688 42.1054 42.7297 42.0845C42.7715 42.0636 42.8027 42.0428 42.834 42.0323C42.8653 42.0115 42.8966 42.0115 42.9279 42.0115C42.9696 42.0115 43.0113 42.0219 43.0426 42.0428C43.0739 42.0636 43.1052 42.0949 43.1261 42.1471L43.585 42.8771C43.3764 43.044 43.1365 43.1692 42.8757 43.2526C42.6046 43.3152 42.323 43.3569 42.0414 43.3569ZM46.5886 37.506C46.9537 37.506 47.2874 37.5581 47.5899 37.6833C47.8923 37.798 48.1635 37.9649 48.3825 38.1839C48.6015 38.4029 48.7788 38.6741 48.904 38.9974C49.0291 39.3207 49.0917 39.6857 49.0917 40.0925C49.0917 40.2072 49.0813 40.3011 49.0708 40.3741C49.0604 40.4471 49.0396 40.5096 49.0187 40.5514C48.9978 40.5931 48.9561 40.6244 48.9144 40.6452C48.8727 40.6661 48.8101 40.6661 48.7475 40.6661H45.3475C45.3997 41.198 45.5457 41.5839 45.796 41.8342C46.0463 42.0845 46.3905 42.1992 46.7972 42.1992C47.0058 42.1992 47.1831 42.1784 47.3396 42.1262C47.496 42.0741 47.6211 42.0219 47.7359 41.9593C47.8506 41.8968 47.9549 41.8446 48.0488 41.7925C48.1426 41.7403 48.2365 41.7195 48.3304 41.7195C48.4451 41.7195 48.5389 41.7612 48.6015 41.855L49.0396 42.4078C48.8831 42.5955 48.6954 42.752 48.5077 42.8771C48.3095 43.0023 48.1113 43.0961 47.9027 43.1692C47.6942 43.2422 47.4856 43.2943 47.2665 43.3152C47.058 43.3465 46.8494 43.3569 46.6512 43.3569C46.2549 43.3569 45.8899 43.2943 45.5457 43.1587C45.2015 43.0336 44.8991 42.8354 44.6488 42.5851C44.3984 42.3348 44.1899 42.0115 44.0438 41.636C43.8978 41.2606 43.8248 40.8225 43.8248 40.3219C43.8248 39.936 43.8874 39.571 44.0126 39.2373C44.1377 38.8931 44.3254 38.6011 44.5549 38.3508C44.7948 38.1004 45.0868 37.9023 45.4205 37.7458C45.7751 37.579 46.161 37.506 46.5886 37.506ZM46.6199 38.5698C46.2549 38.5698 45.9733 38.6741 45.7647 38.8827C45.5561 39.0912 45.4205 39.3833 45.358 39.7587H47.7254C47.7254 39.6023 47.7046 39.4458 47.6629 39.3103C47.6211 39.1642 47.5481 39.0391 47.4647 38.9348C47.3708 38.8201 47.2561 38.7366 47.1205 38.6741C46.9745 38.6011 46.8077 38.5698 46.6199 38.5698Z" fill="white"/>
<path d="M54.2257 40.1961C54.2883 40.3317 54.3404 40.4673 54.403 40.6133C54.4552 40.4673 54.5177 40.3213 54.5803 40.1857C54.6429 40.0501 54.7055 39.9145 54.7785 39.7894L57 35.5446C57.0312 35.482 57.073 35.4299 57.1042 35.3986C57.1355 35.3673 57.1773 35.336 57.219 35.3256C57.2607 35.3047 57.3128 35.2943 57.365 35.2943C57.4171 35.2943 57.4797 35.2839 57.5527 35.2839H58.8042V43.2624H57.3441V38.3606C57.3441 38.2667 57.3441 38.152 57.3546 38.0372C57.365 37.9225 57.365 37.7974 57.3754 37.6722L55.1018 42.0004C54.9766 42.2403 54.7889 42.355 54.5282 42.355H54.2987C54.1736 42.355 54.0588 42.3237 53.9546 42.2612C53.8607 42.1986 53.7773 42.1152 53.7147 41.99L51.4202 37.6514C51.4306 37.7765 51.4411 37.9017 51.4515 38.0164C51.4619 38.1311 51.4619 38.2458 51.4619 38.3501V43.252H50.0018V35.2734H51.2533C51.3263 35.2734 51.3889 35.2734 51.4411 35.2839C51.4932 35.2839 51.5454 35.2943 51.5871 35.3152C51.6288 35.336 51.6705 35.3569 51.7018 35.3882C51.7331 35.4194 51.7748 35.4716 51.8061 35.5342L54.038 39.7894C54.1006 39.925 54.1631 40.0606 54.2257 40.1961ZM67.0644 39.2679C67.0644 39.852 66.9705 40.3839 66.7723 40.874C66.5742 41.3642 66.303 41.7814 65.938 42.136C65.5834 42.4906 65.1454 42.7618 64.6447 42.9599C64.1441 43.1581 63.5809 43.252 62.976 43.252H59.9098V35.2734H62.976C63.5914 35.2734 64.1441 35.3777 64.6447 35.5655C65.1454 35.7636 65.573 36.0348 65.938 36.3894C66.2926 36.744 66.5742 37.1612 66.7723 37.6514C66.9705 38.1624 67.0644 38.6943 67.0644 39.2679ZM65.3748 39.2679C65.3748 38.8507 65.3227 38.4753 65.2079 38.1415C65.0932 37.8078 64.9368 37.5262 64.7386 37.2967C64.53 37.0673 64.2797 36.89 63.9877 36.7648C63.6957 36.6397 63.3619 36.5771 62.9865 36.5771H61.5785V41.9691H62.9865C63.3619 41.9691 63.6957 41.9066 63.9877 41.7814C64.2797 41.6563 64.53 41.479 64.7386 41.2495C64.9472 41.0201 65.1036 40.728 65.2079 40.3943C65.3122 40.071 65.3748 39.6955 65.3748 39.2679ZM71.403 38.7569C71.3613 38.8194 71.3196 38.8612 71.2779 38.8925C71.2361 38.9237 71.1736 38.9342 71.1006 38.9342C71.0276 38.9342 70.9546 38.9133 70.8711 38.882C70.7981 38.8403 70.7042 38.809 70.6104 38.7673C70.5165 38.7256 70.4018 38.6839 70.2871 38.6526C70.1619 38.6213 70.0263 38.6004 69.8595 38.6004C69.6092 38.6004 69.4214 38.6526 69.2858 38.7569C69.1503 38.8612 69.0877 38.9863 69.0877 39.1532C69.0877 39.2679 69.1294 39.3618 69.2024 39.4348C69.2754 39.5078 69.3797 39.5808 69.5049 39.6329C69.63 39.6851 69.776 39.7477 69.9325 39.7894C70.0889 39.8415 70.2558 39.8937 70.4331 39.9563C70.6 40.0188 70.7668 40.0814 70.9337 40.1648C71.0901 40.2379 71.2361 40.3421 71.3613 40.4569C71.4865 40.5716 71.5907 40.7072 71.6638 40.874C71.7368 41.0409 71.7785 41.2391 71.7785 41.4685C71.7785 41.7397 71.7263 42.0004 71.622 42.2299C71.5177 42.4593 71.3717 42.6679 71.184 42.8348C70.9858 43.0017 70.746 43.1372 70.4539 43.2311C70.1619 43.325 69.8282 43.3771 69.4527 43.3771C69.2546 43.3771 69.0668 43.3563 68.8791 43.325C68.6914 43.2937 68.5036 43.2415 68.3368 43.179C68.1595 43.1164 68.003 43.0434 67.857 42.9599C67.711 42.8765 67.5754 42.7826 67.4711 42.6888L67.8257 42.1256C67.8674 42.063 67.9196 42.0109 67.9822 41.9691C68.0447 41.9274 68.1177 41.917 68.2116 41.917C68.3055 41.917 68.3889 41.9379 68.4619 41.99C68.5349 42.0317 68.6288 42.0839 68.7226 42.136C68.8165 42.1882 68.9312 42.2403 69.0564 42.282C69.192 42.3237 69.3484 42.355 69.5466 42.355C69.6926 42.355 69.8177 42.3342 69.922 42.3029C70.0263 42.2716 70.1098 42.2299 70.1828 42.1673C70.2453 42.1152 70.2975 42.0421 70.3288 41.9796C70.3601 41.9066 70.3705 41.8336 70.3705 41.7606C70.3705 41.6354 70.3288 41.5311 70.2558 41.4581C70.1723 41.3747 70.0785 41.3121 69.9533 41.2495C69.8282 41.1869 69.6822 41.1348 69.5153 41.0931C69.3484 41.0409 69.1815 40.9888 69.0147 40.9366C68.8478 40.874 68.6809 40.8115 68.5141 40.728C68.3472 40.6446 68.2012 40.5507 68.076 40.4256C67.9509 40.3004 67.8466 40.1544 67.7631 39.9667C67.6797 39.7894 67.6484 39.5704 67.6484 39.3096C67.6484 39.0802 67.6901 38.8507 67.784 38.6421C67.8779 38.4336 68.0134 38.2458 68.2012 38.079C68.3889 37.9225 68.6079 37.7869 68.8895 37.6931C69.1607 37.5992 69.484 37.5471 69.8386 37.5471C70.2453 37.5471 70.6104 37.6096 70.9337 37.7452C71.2674 37.8808 71.5386 38.0477 71.7472 38.2667L71.403 38.7569ZM29.9877 45.5569C29.9877 45.7446 29.9564 45.9115 29.8938 46.0679C29.8312 46.2244 29.7478 46.3495 29.6435 46.4642C29.5392 46.5685 29.4036 46.6624 29.2576 46.7145C29.1116 46.7771 28.9343 46.8084 28.757 46.8084H27.8184V44.3053H28.757C28.9447 44.3053 29.1116 44.3366 29.2576 44.3992C29.4036 44.4618 29.5392 44.5452 29.6435 44.6495C29.7478 44.7642 29.8312 44.8894 29.8938 45.0458C29.9564 45.2023 29.9877 45.3691 29.9877 45.5569ZM29.6435 45.5569C29.6435 45.4004 29.6227 45.2648 29.5809 45.1501C29.5392 45.025 29.4766 44.9311 29.4036 44.8477C29.3306 44.7642 29.2368 44.7017 29.122 44.6599C29.0177 44.6182 28.8926 44.5974 28.757 44.5974H28.1625V46.5477H28.757C28.8926 46.5477 29.0073 46.5268 29.122 46.4851C29.2263 46.4434 29.3202 46.3808 29.4036 46.2974C29.4766 46.2139 29.5392 46.1096 29.5809 45.9949C29.6227 45.8489 29.6435 45.7133 29.6435 45.5569ZM32.7619 45.5569C32.7619 45.7446 32.7306 45.9115 32.6681 46.0679C32.6055 46.2244 32.522 46.3599 32.4177 46.4747C32.3135 46.5894 32.1779 46.6728 32.0319 46.7354C31.8754 46.798 31.7085 46.8293 31.5312 46.8293C31.3435 46.8293 31.1766 46.798 31.0306 46.7354C30.8846 46.6728 30.749 46.5894 30.6447 46.4747C30.5404 46.3599 30.457 46.2244 30.3944 46.0679C30.3319 45.9115 30.3006 45.7446 30.3006 45.5569C30.3006 45.3691 30.3319 45.2023 30.3944 45.0458C30.457 44.8894 30.5404 44.7538 30.6447 44.6391C30.749 44.5244 30.8846 44.4409 31.0306 44.3783C31.1766 44.3158 31.3539 44.2845 31.5312 44.2845C31.7085 44.2845 31.8858 44.3158 32.0319 44.3783C32.1883 44.4409 32.3135 44.5244 32.4177 44.6391C32.522 44.7538 32.6055 44.8894 32.6681 45.0458C32.7306 45.2023 32.7619 45.3691 32.7619 45.5569ZM32.4177 45.5569C32.4177 45.4004 32.3969 45.2648 32.3552 45.1397C32.3135 45.0145 32.2509 44.9102 32.1779 44.8268C32.1049 44.7434 32.011 44.6808 31.8963 44.6287C31.792 44.5869 31.6668 44.5661 31.5312 44.5661C31.3957 44.5661 31.2809 44.5869 31.1662 44.6287C31.0619 44.6704 30.9681 44.7434 30.8846 44.8268C30.8116 44.9102 30.749 45.0145 30.7073 45.1397C30.6656 45.2648 30.6447 45.4004 30.6447 45.5569C30.6447 45.7133 30.6656 45.8489 30.7073 45.9741C30.749 46.0992 30.8116 46.1931 30.8846 46.2869C30.9576 46.3704 31.0515 46.4329 31.1662 46.4851C31.2809 46.5372 31.3957 46.5477 31.5312 46.5477C31.6668 46.5477 31.792 46.5268 31.8963 46.4851C32.011 46.4434 32.0944 46.3808 32.1779 46.2869C32.2509 46.2035 32.3135 46.0992 32.3552 45.9741C32.3969 45.8489 32.4177 45.7133 32.4177 45.5569ZM34.9834 46.2869C35.0042 46.2869 35.0147 46.2974 35.0355 46.3078L35.1711 46.4538C35.0668 46.5685 34.9417 46.6624 34.7957 46.7354C34.6496 46.798 34.4723 46.8397 34.2638 46.8397C34.0865 46.8397 33.9196 46.8084 33.7736 46.7458C33.6276 46.6833 33.5024 46.5998 33.3981 46.4851C33.2938 46.3704 33.2104 46.2348 33.1582 46.0783C33.1061 45.9219 33.0748 45.7446 33.0748 45.5569C33.0748 45.3691 33.1061 45.1918 33.1687 45.0354C33.2312 44.879 33.3147 44.7434 33.4294 44.6287C33.5441 44.5139 33.6693 44.4305 33.8257 44.3679C33.9822 44.3053 34.149 44.274 34.3368 44.274C34.5245 44.274 34.6809 44.3053 34.8165 44.3575C34.9521 44.4096 35.0668 44.4931 35.1711 44.5869L35.0564 44.7434C35.046 44.7538 35.0355 44.7642 35.0251 44.7747C35.0147 44.7851 35.0042 44.7851 34.9834 44.7851C34.973 44.7851 34.9521 44.7747 34.9312 44.7642C34.9104 44.7538 34.8895 44.7434 34.8687 44.7225C34.8478 44.7017 34.8165 44.6912 34.7852 44.6704C34.7539 44.6495 34.7122 44.6391 34.6705 44.6182C34.6288 44.5974 34.5766 44.5869 34.5245 44.5765C34.4723 44.5661 34.3993 44.5556 34.3263 44.5556C34.1908 44.5556 34.0656 44.5765 33.9613 44.6287C33.8466 44.6704 33.7527 44.7434 33.6797 44.8268C33.5963 44.9102 33.5337 45.0145 33.492 45.1397C33.4503 45.2648 33.4294 45.4004 33.4294 45.5464C33.4294 45.7029 33.4503 45.8385 33.492 45.9636C33.5337 46.0888 33.5963 46.1931 33.6797 46.2765C33.7527 46.3599 33.8466 46.4225 33.9509 46.4642C34.0552 46.506 34.1699 46.5268 34.295 46.5268C34.3681 46.5268 34.4411 46.5268 34.4932 46.5164C34.5558 46.506 34.6079 46.4955 34.6601 46.4747C34.7122 46.4538 34.7539 46.4329 34.8061 46.4017C34.8478 46.3704 34.8895 46.3391 34.9417 46.2974C34.9417 46.2974 34.9625 46.2869 34.9834 46.2869ZM37.2987 44.3053V44.5869H36.4957V46.798H36.1619V44.5869H35.3484V44.3053H37.2987ZM39.8018 45.5569C39.8018 45.7446 39.7705 45.9115 39.7079 46.0679C39.6454 46.2244 39.5619 46.3599 39.4576 46.4747C39.3533 46.5894 39.2177 46.6728 39.0717 46.7354C38.9153 46.798 38.7484 46.8293 38.5711 46.8293C38.3938 46.8293 38.2165 46.798 38.0705 46.7354C37.9141 46.6728 37.7889 46.5894 37.6846 46.4747C37.5803 46.3599 37.4969 46.2244 37.4343 46.0679C37.3717 45.9115 37.3404 45.7446 37.3404 45.5569C37.3404 45.3691 37.3717 45.2023 37.4343 45.0458C37.4969 44.8894 37.5803 44.7538 37.6846 44.6391C37.7889 44.5244 37.9245 44.4409 38.0705 44.3783C38.2165 44.3158 38.3938 44.2845 38.5711 44.2845C38.7588 44.2845 38.9257 44.3158 39.0717 44.3783C39.2282 44.4409 39.3533 44.5244 39.4576 44.6391C39.5619 44.7538 39.6454 44.8894 39.7079 45.0458C39.7705 45.2023 39.8018 45.3691 39.8018 45.5569ZM39.4576 45.5569C39.4576 45.4004 39.4368 45.2648 39.395 45.1397C39.3533 45.0145 39.2908 44.9102 39.2177 44.8268C39.1447 44.7434 39.0509 44.6808 38.9361 44.6287C38.8319 44.5869 38.7067 44.5661 38.5711 44.5661C38.4355 44.5661 38.3208 44.5869 38.2061 44.6287C38.1018 44.6704 38.0079 44.7434 37.9245 44.8268C37.8515 44.9102 37.7889 45.0145 37.7472 45.1397C37.7055 45.2648 37.6846 45.4004 37.6846 45.5569C37.6846 45.7133 37.7055 45.8489 37.7472 45.9741C37.7889 46.0992 37.8515 46.1931 37.9245 46.2869C37.9975 46.3704 38.0914 46.4329 38.2061 46.4851C38.3104 46.5268 38.4355 46.5477 38.5711 46.5477C38.7067 46.5477 38.8319 46.5268 38.9361 46.4851C39.0404 46.4434 39.1343 46.3808 39.2177 46.2869C39.2908 46.2035 39.3533 46.0992 39.395 45.9741C39.4368 45.8489 39.4576 45.7133 39.4576 45.5569ZM40.6257 45.7655V46.8084H40.292V44.3053H41.0012C41.1576 44.3053 41.2932 44.3262 41.4079 44.3575C41.5227 44.3888 41.6165 44.4409 41.6895 44.4931C41.7625 44.5556 41.8251 44.6287 41.8564 44.7121C41.8877 44.7955 41.9085 44.8894 41.9085 44.9937C41.9085 45.0771 41.8981 45.1606 41.8668 45.244C41.8355 45.317 41.7938 45.39 41.7417 45.4526C41.6895 45.5152 41.6269 45.5673 41.5435 45.609C41.4705 45.6507 41.3766 45.682 41.2828 45.7029C41.3245 45.7237 41.3662 45.7655 41.3975 45.8072L42.1276 46.798H41.8355C41.773 46.798 41.7312 46.7771 41.7 46.725L41.0533 45.828C41.0325 45.7967 41.0116 45.7759 40.9908 45.7655C40.9699 45.755 40.9282 45.7446 40.8865 45.7446L40.6257 45.7655ZM40.6257 45.5152H40.9803C41.0742 45.5152 41.1681 45.5047 41.2411 45.4839C41.3141 45.463 41.3766 45.4213 41.4288 45.3796C41.4809 45.3379 41.5122 45.2857 41.5435 45.2231C41.5644 45.1606 41.5852 45.098 41.5852 45.025C41.5852 44.879 41.5331 44.7642 41.4392 44.6912C41.3454 44.6182 41.1993 44.5765 41.0012 44.5765H40.6362L40.6257 45.5152ZM43.7754 44.7017C43.765 44.7225 43.7546 44.7329 43.7441 44.7434C43.7337 44.7538 43.7128 44.7538 43.7024 44.7538C43.6815 44.7538 43.6607 44.7434 43.6294 44.7225C43.5981 44.7017 43.5668 44.6808 43.5251 44.6599C43.4834 44.6391 43.4417 44.6182 43.3791 44.5974C43.3269 44.5765 43.2539 44.5661 43.1705 44.5661C43.0975 44.5661 43.0245 44.5765 42.9723 44.5974C42.9202 44.6182 42.8681 44.6495 42.8263 44.6808C42.7846 44.7121 42.7533 44.7538 42.7429 44.806C42.7325 44.8581 42.7116 44.8998 42.7116 44.9624C42.7116 45.0354 42.7325 45.0875 42.7638 45.1397C42.795 45.1814 42.8472 45.2231 42.8993 45.2544C42.9515 45.2857 43.0245 45.317 43.0871 45.3379C43.1496 45.3587 43.2331 45.39 43.3061 45.4109C43.3791 45.4317 43.4521 45.463 43.5251 45.4943C43.5981 45.5256 43.6607 45.5673 43.7128 45.6194C43.765 45.6716 43.8171 45.7237 43.8484 45.7968C43.8797 45.8698 43.9006 45.9532 43.9006 46.0575C43.9006 46.1722 43.8797 46.2661 43.8484 46.3599C43.8067 46.4538 43.7546 46.5372 43.6815 46.6102C43.6085 46.6833 43.5251 46.7354 43.4208 46.7771C43.3165 46.8188 43.2018 46.8397 43.0662 46.8397C42.8993 46.8397 42.7533 46.8084 42.6282 46.7563C42.4926 46.6937 42.3779 46.6207 42.284 46.5164L42.3779 46.3599C42.3883 46.3495 42.3987 46.3391 42.4092 46.3287C42.4196 46.3182 42.4404 46.3182 42.4509 46.3182C42.4717 46.3182 42.503 46.3287 42.5343 46.3599C42.5656 46.3912 42.6073 46.4121 42.649 46.4434C42.7012 46.4747 42.7533 46.506 42.8159 46.5268C42.8785 46.5581 42.9619 46.5685 43.0558 46.5685C43.1392 46.5685 43.2122 46.5581 43.2748 46.5372C43.3374 46.5164 43.3895 46.4851 43.4312 46.4434C43.473 46.4017 43.5042 46.3599 43.5355 46.2974C43.5564 46.2452 43.5668 46.1826 43.5668 46.1096C43.5668 46.0366 43.546 45.9741 43.5147 45.9219C43.4834 45.8698 43.4312 45.828 43.3791 45.7968C43.3269 45.7655 43.2644 45.7342 43.1914 45.7133C43.1184 45.6925 43.0454 45.6716 42.9723 45.6403C42.8993 45.6194 42.8263 45.5882 42.7533 45.5569C42.6803 45.5256 42.6177 45.4839 42.5656 45.4317C42.5134 45.3796 42.4613 45.317 42.43 45.244C42.3987 45.171 42.3779 45.0771 42.3779 44.9624C42.3779 44.8685 42.3987 44.7851 42.43 44.7017C42.4613 44.6182 42.5135 44.5452 42.576 44.4826C42.6386 44.4201 42.722 44.3679 42.8159 44.3262C42.9098 44.2845 43.0245 44.274 43.1496 44.274C43.2852 44.274 43.4208 44.2949 43.5355 44.3366C43.6503 44.3783 43.7546 44.4409 43.838 44.5244L43.7754 44.7017ZM45.9656 45.8176V46.8084H45.6319V45.8176L44.7141 44.3158H45.0061C45.0374 44.3158 45.0582 44.3262 45.0791 44.3366C45.1 44.3471 45.1104 44.3679 45.1208 44.3888L45.6944 45.3587C45.7153 45.4004 45.7361 45.4421 45.757 45.4734C45.7779 45.5047 45.7883 45.5464 45.7987 45.5777C45.8092 45.5464 45.83 45.5047 45.8404 45.4734C45.8509 45.4421 45.8717 45.4004 45.903 45.3587L46.4766 44.3888C46.4871 44.3679 46.4975 44.3575 46.5184 44.3366C46.5392 44.3158 46.5601 44.3158 46.5914 44.3158H46.8938L45.9656 45.8176ZM49.376 45.5569C49.376 45.7446 49.3447 45.9115 49.2822 46.0679C49.2196 46.2244 49.1361 46.3599 49.0319 46.4747C48.9276 46.5894 48.792 46.6728 48.646 46.7354C48.4895 46.798 48.3227 46.8293 48.1454 46.8293C47.9576 46.8293 47.7908 46.798 47.6447 46.7354C47.4987 46.6728 47.3631 46.5894 47.2588 46.4747C47.1546 46.3599 47.0711 46.2244 47.0085 46.0679C46.946 45.9115 46.9147 45.7446 46.9147 45.5569C46.9147 45.3691 46.946 45.2023 47.0085 45.0458C47.0711 44.8894 47.1546 44.7538 47.2588 44.6391C47.3631 44.5244 47.4987 44.4409 47.6447 44.3783C47.7908 44.3158 47.9681 44.2845 48.1454 44.2845C48.3331 44.2845 48.5 44.3158 48.646 44.3783C48.8024 44.4409 48.9276 44.5244 49.0319 44.6391C49.1361 44.7538 49.2196 44.8894 49.2822 45.0458C49.3447 45.2023 49.376 45.3691 49.376 45.5569ZM49.0214 45.5569C49.0214 45.4004 49.0006 45.2648 48.9589 45.1397C48.9171 45.0145 48.8546 44.9102 48.7815 44.8268C48.7085 44.7434 48.6147 44.6808 48.5 44.6287C48.3957 44.5869 48.2705 44.5661 48.1349 44.5661C47.9993 44.5661 47.8846 44.5869 47.7699 44.6287C47.6656 44.6704 47.5717 44.7434 47.4883 44.8268C47.4153 44.9102 47.3527 45.0145 47.311 45.1397C47.2693 45.2648 47.2484 45.4004 47.2484 45.5569C47.2484 45.7133 47.2693 45.8489 47.311 45.9741C47.3527 46.0992 47.4153 46.1931 47.4883 46.2869C47.5613 46.3704 47.6552 46.4329 47.7699 46.4851C47.8846 46.5268 47.9993 46.5477 48.1349 46.5477C48.2705 46.5477 48.3957 46.5268 48.5 46.4851C48.6147 46.4434 48.6981 46.3808 48.7815 46.2869C48.8546 46.2035 48.9171 46.0992 48.9589 45.9741C49.0006 45.8489 49.0214 45.7133 49.0214 45.5569ZM50.7944 46.5372C50.8987 46.5372 50.9926 46.5164 51.076 46.4851C51.1595 46.4538 51.222 46.4017 51.2846 46.3391C51.3368 46.2765 51.3889 46.2035 51.4098 46.1096C51.4411 46.0262 51.4515 45.9219 51.4515 45.8176V44.2949H51.7852V45.8176C51.7852 45.9636 51.7644 46.0992 51.7122 46.2139C51.6705 46.3391 51.5975 46.4434 51.5141 46.5372C51.4306 46.6311 51.3263 46.6937 51.2012 46.7458C51.076 46.798 50.9404 46.8188 50.784 46.8188C50.6276 46.8188 50.492 46.798 50.3668 46.7458C50.2417 46.6937 50.1374 46.6207 50.0539 46.5372C49.9705 46.4434 49.8975 46.3391 49.8558 46.2139C49.8141 46.0888 49.7828 45.9532 49.7828 45.8176V44.2949H50.1165V45.8072C50.1165 45.9115 50.1269 46.0053 50.1582 46.0992C50.1895 46.1826 50.2312 46.2661 50.2834 46.3287C50.3355 46.3912 50.4085 46.4434 50.492 46.4747C50.5963 46.5268 50.6901 46.5372 50.7944 46.5372ZM54.7889 46.2869C54.8098 46.2869 54.8202 46.2974 54.8411 46.3078L54.9766 46.4538C54.8723 46.5685 54.7472 46.6624 54.6012 46.7354C54.4552 46.798 54.2779 46.8397 54.0693 46.8397C53.892 46.8397 53.7251 46.8084 53.5791 46.7458C53.4331 46.6833 53.3079 46.5998 53.2036 46.4851C53.0993 46.3704 53.0159 46.2348 52.9638 46.0783C52.9116 45.9219 52.8803 45.7446 52.8803 45.5569C52.8803 45.3691 52.9116 45.1918 52.9742 45.0354C53.0368 44.879 53.1202 44.7434 53.2349 44.6287C53.3496 44.5139 53.4748 44.4305 53.6312 44.3679C53.7877 44.3053 53.9546 44.274 54.1423 44.274C54.33 44.274 54.4865 44.3053 54.622 44.3575C54.7576 44.4096 54.8723 44.4931 54.9766 44.5869L54.8619 44.7434C54.8515 44.7538 54.8411 44.7642 54.8306 44.7747C54.8202 44.7851 54.8098 44.7851 54.7889 44.7851C54.7785 44.7851 54.7576 44.7747 54.7368 44.7642C54.7159 44.7538 54.695 44.7434 54.6742 44.7225C54.6533 44.7017 54.622 44.6912 54.5907 44.6704C54.5595 44.6495 54.5177 44.6391 54.476 44.6182C54.4343 44.5974 54.3822 44.5869 54.33 44.5765C54.2779 44.5661 54.2049 44.5556 54.1319 44.5556C53.9963 44.5556 53.8815 44.5765 53.7668 44.6287C53.6521 44.6704 53.5582 44.7434 53.4748 44.8268C53.3914 44.9102 53.3288 45.0145 53.2871 45.1397C53.2453 45.2648 53.2245 45.4004 53.2245 45.5464C53.2245 45.7029 53.2453 45.8385 53.2871 45.9636C53.3288 46.0888 53.3914 46.1931 53.4748 46.2765C53.5478 46.3599 53.6417 46.4225 53.746 46.4642C53.8503 46.506 53.965 46.5268 54.0901 46.5268C54.1631 46.5268 54.2361 46.5268 54.2883 46.5164C54.3509 46.506 54.403 46.4955 54.4552 46.4747C54.5073 46.4538 54.549 46.4329 54.6012 46.4017C54.6429 46.3704 54.6846 46.3391 54.7368 46.2974C54.7576 46.2974 54.7785 46.2869 54.7889 46.2869ZM57.4693 46.8084H57.2085C57.1773 46.8084 57.1564 46.798 57.1355 46.7875C57.1147 46.7771 57.1042 46.7563 57.0938 46.725L56.8644 46.1201H55.738L55.5085 46.725C55.4981 46.7458 55.4877 46.7667 55.4668 46.7771C55.446 46.7875 55.4251 46.798 55.3938 46.798H55.1331L56.1343 44.2949H56.4785L57.4693 46.8084ZM55.8319 45.8802H56.7601L56.3638 44.8685C56.3429 44.806 56.3116 44.7225 56.2908 44.6287C56.2803 44.6808 56.2699 44.7225 56.249 44.7642C56.2386 44.806 56.2282 44.8372 56.2177 44.8685L55.8319 45.8802ZM58.022 44.3158C58.0325 44.3262 58.0533 44.3366 58.0742 44.3575L59.5239 46.2452C59.5239 46.2139 59.5134 46.1826 59.5134 46.1618C59.5134 46.1305 59.5134 46.1096 59.5134 46.0783V44.3053H59.8055V46.8084H59.6386C59.6073 46.8084 59.5865 46.8084 59.576 46.798C59.5552 46.7875 59.5447 46.7771 59.5239 46.7458L58.0742 44.8685C58.0742 44.8998 58.0742 44.9311 58.0846 44.952C58.0846 44.9833 58.0846 45.0041 58.0846 45.025V46.8084H57.7926V44.3053H57.9699C57.9803 44.3053 58.0012 44.3158 58.022 44.3158ZM62.7779 44.3053V44.5869H61.9644V46.798H61.6306V44.5869H60.8171V44.3053H62.7779ZM63.4975 45.7655V46.8084H63.1638V44.3053H63.873C64.0294 44.3053 64.165 44.3262 64.2797 44.3575C64.3944 44.3888 64.4883 44.4409 64.5613 44.4931C64.6343 44.5556 64.6969 44.6287 64.7282 44.7121C64.7595 44.7955 64.7803 44.8894 64.7803 44.9937C64.7803 45.0771 64.7699 45.1606 64.7386 45.244C64.7073 45.317 64.6656 45.39 64.6134 45.4526C64.5613 45.5152 64.4987 45.5673 64.4153 45.609C64.3423 45.6507 64.2484 45.682 64.1546 45.7029C64.1963 45.7237 64.238 45.7655 64.2693 45.8072L64.9993 46.798H64.6969C64.6343 46.798 64.5926 46.7771 64.5613 46.725L63.9147 45.828C63.8938 45.7967 63.873 45.7759 63.8521 45.7655C63.8312 45.755 63.7895 45.7446 63.7478 45.7446L63.4975 45.7655ZM63.4975 45.5152H63.8521C63.946 45.5152 64.0398 45.5047 64.1128 45.4839C64.1858 45.463 64.2484 45.4213 64.3006 45.3796C64.3527 45.3379 64.3944 45.2857 64.4153 45.2231C64.4361 45.1606 64.457 45.098 64.457 45.025C64.457 44.879 64.4049 44.7642 64.311 44.6912C64.2171 44.6182 64.0711 44.5765 63.873 44.5765H63.5079L63.4975 45.5152ZM66.2613 46.5372C66.3656 46.5372 66.4595 46.5164 66.5429 46.4851C66.6263 46.4538 66.6889 46.4017 66.7515 46.3391C66.8036 46.2765 66.8558 46.2035 66.8766 46.1096C66.9079 46.0262 66.9184 45.9219 66.9184 45.8176V44.2949H67.2521V45.8176C67.2521 45.9636 67.2312 46.0992 67.1791 46.2139C67.1374 46.3391 67.0644 46.4434 66.9809 46.5372C66.8975 46.6311 66.7932 46.6937 66.668 46.7458C66.5429 46.798 66.4073 46.8188 66.2509 46.8188C66.0944 46.8188 65.9588 46.798 65.8337 46.7458C65.7085 46.6937 65.6042 46.6207 65.5208 46.5372C65.4374 46.4434 65.3644 46.3391 65.3227 46.2139C65.2809 46.0888 65.2496 45.9532 65.2496 45.8176V44.2949H65.5834V45.8072C65.5834 45.9115 65.5938 46.0053 65.6251 46.0992C65.6564 46.1826 65.6981 46.2661 65.7503 46.3287C65.8024 46.3912 65.8754 46.4434 65.9588 46.4747C66.0631 46.5164 66.157 46.5372 66.2613 46.5372ZM69.1085 44.7017C69.0981 44.7225 69.0877 44.7329 69.0773 44.7434C69.0668 44.7538 69.046 44.7538 69.0355 44.7538C69.0147 44.7538 68.9938 44.7434 68.9625 44.7225C68.9312 44.7017 68.9 44.6808 68.8582 44.6599C68.8165 44.6391 68.7748 44.6182 68.7122 44.5974C68.6601 44.5765 68.5871 44.5661 68.5036 44.5661C68.4306 44.5661 68.3576 44.5765 68.3055 44.5974C68.2533 44.6182 68.2012 44.6495 68.1595 44.6808C68.1177 44.7121 68.0865 44.7538 68.076 44.806C68.0656 44.8581 68.0447 44.8998 68.0447 44.9624C68.0447 45.0354 68.0656 45.0875 68.0969 45.1397C68.1282 45.1814 68.1803 45.2231 68.2325 45.2544C68.2846 45.2857 68.3576 45.317 68.4202 45.3379C68.4828 45.3587 68.5662 45.39 68.6392 45.4109C68.7122 45.4317 68.7852 45.463 68.8582 45.4943C68.9312 45.5256 68.9938 45.5673 69.046 45.6194C69.0981 45.6716 69.1503 45.7237 69.1815 45.7968C69.2128 45.8698 69.2337 45.9532 69.2337 46.0575C69.2337 46.1722 69.2128 46.2661 69.1815 46.3599C69.1398 46.4538 69.0877 46.5372 69.0147 46.6102C68.9417 46.6833 68.8582 46.7354 68.7539 46.7771C68.6496 46.8188 68.5349 46.8397 68.3993 46.8397C68.2325 46.8397 68.0865 46.8084 67.9613 46.7563C67.8361 46.7041 67.711 46.6207 67.6171 46.5164L67.711 46.3599C67.7214 46.3495 67.7319 46.3391 67.7423 46.3287C67.7527 46.3182 67.7736 46.3182 67.784 46.3182C67.8049 46.3182 67.8361 46.3287 67.8674 46.3599C67.8987 46.3912 67.9404 46.4121 67.9822 46.4434C68.0343 46.4747 68.0865 46.506 68.149 46.5268C68.2116 46.5581 68.295 46.5685 68.3889 46.5685C68.4723 46.5685 68.5454 46.5581 68.6079 46.5372C68.6705 46.5164 68.7227 46.4851 68.7644 46.4434C68.8061 46.4017 68.8374 46.3599 68.8687 46.2974C68.8895 46.2452 68.9 46.1826 68.9 46.1096C68.9 46.0366 68.8791 45.9741 68.8478 45.9219C68.8165 45.8698 68.7644 45.828 68.7122 45.7968C68.6601 45.7655 68.5975 45.7342 68.5245 45.7133C68.4515 45.6925 68.3785 45.6716 68.3055 45.6403C68.2325 45.6194 68.1595 45.5882 68.0865 45.5569C68.0135 45.5256 67.9509 45.4839 67.8987 45.4317C67.8466 45.3796 67.7944 45.317 67.7631 45.244C67.7319 45.171 67.711 45.0771 67.711 44.9624C67.711 44.8685 67.7319 44.7851 67.7631 44.7017C67.7944 44.6182 67.8466 44.5452 67.9092 44.4826C67.9717 44.4201 68.0552 44.3679 68.149 44.3262C68.2429 44.2845 68.3576 44.274 68.4828 44.274C68.6184 44.274 68.7539 44.2949 68.8687 44.3366C68.9834 44.3783 69.0877 44.4409 69.1711 44.5244L69.1085 44.7017ZM71.3717 44.3053V44.5869H70.5687V46.798H70.2349V44.5869H69.4214V44.3053H71.3717Z" fill="white"/>
<path d="M17.63 48.2581C13.3227 48.2581 9.81836 44.7538 9.81836 40.4464C9.81836 36.1391 13.3227 32.6348 17.63 32.6348C21.9374 32.6348 25.4417 36.1391 25.4417 40.4464C25.4521 44.7538 21.9478 48.2581 17.63 48.2581Z" fill="white"/>
<path d="M17.6295 33.2297C21.6135 33.2297 24.8362 36.4628 24.8362 40.4364C24.8362 44.4205 21.6031 47.6432 17.6295 47.6432C13.6558 47.6432 10.4227 44.41 10.4227 40.4364C10.4227 36.4628 13.6558 33.2297 17.6295 33.2297ZM17.6295 32.0303C12.9884 32.0303 9.21289 35.8057 9.21289 40.4468C9.21289 45.0879 12.9884 48.8634 17.6295 48.8634C22.2706 48.8634 26.046 45.0879 26.046 40.4468C26.046 35.8057 22.2706 32.0303 17.6295 32.0303Z" fill="white"/>
<path d="M17.5041 47.3302C17.2434 47.3302 17.0661 47.132 16.9618 46.7357L15.1575 39.4142L14.4587 42.4283C14.3753 42.7725 14.1771 43.0124 13.9059 43.0749C13.6348 43.1375 13.3532 43.0124 13.1342 42.7308L12.8943 42.4283C12.6961 42.178 12.2164 41.9486 11.8931 41.9486H10.5685C10.5685 41.9486 10.5268 41.7713 10.4955 41.5835C10.4642 41.3958 10.4434 41.2081 10.4434 41.2081H11.8931C12.4354 41.2081 13.1342 41.5418 13.4783 41.9694L13.7182 42.2719C13.7182 42.2823 13.7286 42.2823 13.7286 42.2927C13.7286 42.2823 13.7286 42.2823 13.7391 42.2719L14.6047 38.5277C14.6986 38.1209 14.8759 37.9228 15.147 37.9228C15.4078 37.9228 15.5955 38.1209 15.6894 38.5277L17.4728 45.7762L19.7464 34.9087C19.8299 34.5019 20.0072 34.2933 20.2783 34.2933C20.5495 34.2829 20.7268 34.4915 20.8207 34.8982L22.2495 40.7492C22.3121 41.0099 22.6041 41.2394 22.8753 41.2394H24.7839C24.7839 41.2394 24.763 41.4688 24.7421 41.594C24.7213 41.7191 24.6691 41.9798 24.6691 41.9798H22.8961C22.2912 41.9798 21.6967 41.5105 21.5507 40.9265L20.32 35.889L18.0464 46.7565C17.963 47.1216 17.7857 47.3302 17.5041 47.3302Z" fill="#3D9A9E"/>
</svg>
