<svg width="100%" height="100%" viewBox="0 0 81 81" fill="none" xmlns="http://www.w3.org/2000/svg">
<rect width="81" height="81" rx="11" fill="#1F1A39"/>
<path d="M71.2124 47.752C70.771 47.7333 70.3551 47.54 70.0562 47.2146C69.7574 46.8892 69.6 46.4585 69.6187 46.0171C69.6374 45.5757 69.8307 45.1598 70.1561 44.8609C70.4814 44.562 70.9122 44.4047 71.3536 44.4234C71.795 44.4421 72.2108 44.6354 72.5097 44.9607C72.8086 45.2861 72.966 45.7169 72.9473 46.1583C72.9286 46.5997 72.7353 47.0155 72.4099 47.3144C72.0846 47.6133 71.6538 47.7707 71.2124 47.752Z" fill="#FF838A"/>
<path d="M9 47.273H11.4523V37.8914H9V47.273ZM15.5196 39.3837C15.5289 39.1652 15.495 38.947 15.42 38.7415C15.3449 38.5361 15.2301 38.3475 15.0822 38.1864C14.9342 38.0253 14.756 37.895 14.5576 37.8028C14.3593 37.7106 14.1447 37.6584 13.9262 37.6491C13.7077 37.6399 13.4895 37.6737 13.284 37.7488C13.0786 37.8238 12.89 37.9386 12.7289 38.0866C12.5678 38.2346 12.4375 38.4128 12.3453 38.6111C12.2531 38.8095 12.2009 39.024 12.1916 39.2425C12.1729 39.6839 12.3303 40.1145 12.6291 40.4398C12.9279 40.7651 13.3437 40.9584 13.785 40.9771C14.2264 40.9958 14.657 40.8385 14.9823 40.5397C15.3076 40.2408 15.5009 39.825 15.5196 39.3837ZM22.4161 41.3306H18.5282C18.6202 40.8615 18.8731 40.4392 19.2434 40.1367C19.6136 39.8342 20.0778 39.6704 20.5559 39.6738C21.016 39.6741 21.4601 39.8427 21.8045 40.148C22.1488 40.4532 22.3695 40.8738 22.425 41.3306H22.4161ZM24.9581 43.1818C24.9979 42.9438 25.017 42.7024 25.015 42.4611C25.015 39.8323 23.1667 37.6282 20.5559 37.6282C17.7507 37.6282 15.9563 39.928 15.9563 42.5598C15.9563 45.5205 18.0796 47.4674 20.9058 47.4674C21.6373 47.4786 22.3627 47.333 23.0333 47.0405C23.7039 46.748 24.3041 46.3154 24.7936 45.7717L23.3521 44.3302C23.048 44.6646 22.6791 44.9337 22.2678 45.1214C21.8566 45.309 21.4115 45.4112 20.9596 45.4218C20.3294 45.4423 19.7151 45.2221 19.2413 44.8061C18.7675 44.3901 18.4698 43.8094 18.4086 43.1818H24.9581ZM33.4725 42.5837C33.498 43.2397 33.2656 43.8796 32.8252 44.3665C32.3847 44.8533 31.7712 45.1484 31.1159 45.1886H30.8976C30.2417 45.1492 29.6275 44.8544 29.1864 44.3675C28.7453 43.8806 28.5125 43.2402 28.5379 42.5837C28.5379 41.1093 29.5757 39.9848 30.9574 39.9549H31.0561C32.4378 39.9848 33.4725 41.1093 33.4725 42.5837ZM33.5204 47.273H35.874V37.8914H33.5204V38.6959L33.4546 38.642C32.6788 38.0193 31.7098 37.6871 30.7151 37.703C28.1372 37.703 26.1185 39.8502 26.1185 42.5897C26.11 43.7942 26.5346 44.9617 27.3148 45.8794C27.7582 46.3786 28.3027 46.7778 28.9121 47.0505C29.5216 47.3233 30.182 47.4634 30.8497 47.4615C31.8042 47.4748 32.7307 47.1387 33.4546 46.5164L33.5204 46.4596V47.273ZM37.9047 47.273H40.354V33.516H37.9047V47.273ZM44.5439 40.574C44.5439 40.0955 45.0763 39.7725 45.8688 39.7725C46.516 39.7968 47.141 40.0145 47.6632 40.3975L48.8086 38.633C47.874 38.0304 46.7865 37.7076 45.6744 37.703C44.783 37.6916 43.9113 37.9651 43.1862 38.4835C42.8483 38.7245 42.5728 39.0425 42.3824 39.4113C42.192 39.7801 42.0923 40.1889 42.0916 40.6039C42.0916 42.3773 43.6976 42.9306 44.9895 43.3732C45.8867 43.6723 46.6703 43.9504 46.6703 44.5695C46.6703 45.057 46.1439 45.4099 45.4232 45.4099C44.4815 45.4155 43.5675 45.0918 42.8393 44.4947L41.6579 46.2353C42.7483 47.0243 44.0564 47.4558 45.4022 47.4704C46.3284 47.4825 47.2351 47.2043 47.9951 46.6749C48.3375 46.443 48.6183 46.1312 48.8132 45.7665C49.0081 45.4017 49.1112 44.995 49.1136 44.5815C49.1136 42.5807 47.409 42.0155 46.0422 41.5609C45.1989 41.2828 44.5469 41.0615 44.5469 40.568L44.5439 40.574ZM56.7488 41.4054H52.7593V41.3605C52.8524 40.8818 53.11 40.4506 53.4873 40.1415C53.8646 39.8324 54.3381 39.6649 54.8258 39.6678C55.2952 39.67 55.7478 39.8429 56.0989 40.1545C56.4501 40.466 56.6758 40.8947 56.7338 41.3605L56.7488 41.4054ZM59.2011 43.1759C59.2388 42.9507 59.2567 42.7225 59.255 42.494C59.255 39.8024 57.311 37.7089 54.8348 37.7089C52.2359 37.7089 50.277 39.8024 50.277 42.5957C50.277 45.4637 52.2957 47.4644 55.1847 47.4644C55.9019 47.4728 56.6129 47.3302 57.2714 47.0458C57.9299 46.7613 58.5211 46.3415 59.0067 45.8136L57.6191 44.4259C57.3134 44.7531 56.9459 45.0165 56.5378 45.2008C56.1297 45.3851 55.6891 45.4866 55.2415 45.4996C54.6004 45.523 53.9747 45.3003 53.4926 44.8771C53.0105 44.454 52.7085 43.8624 52.6486 43.2237V43.1788L59.2011 43.1759ZM60.7921 47.273H63.2475V33.516H60.7951L60.7921 47.273ZM67.7335 37.8914V37.5564C67.7335 36.6592 67.871 36.3153 68.0953 36.0312C68.2777 35.8376 68.5009 35.687 68.7486 35.5903C68.9964 35.4935 69.2625 35.4531 69.5278 35.4719C69.7734 35.4749 70.018 35.5039 70.2576 35.5587L70.6314 33.4652C70.1562 33.3472 69.6675 33.2919 69.1779 33.3007C68.102 33.279 67.0601 33.6782 66.274 34.4132C65.5832 35.0861 65.2721 36.0252 65.2721 37.4637V47.273H67.7335V39.9519H70.6553V37.8914H67.7335Z" fill="white"/>
</svg>
