<svg width="100%" height="100%" viewBox="0 0 51 51" fill="none" xmlns="http://www.w3.org/2000/svg">
<g filter="url(#filter0_d_507_24125)">
<mask id="mask0_507_24125" style="mask-type:alpha" maskUnits="userSpaceOnUse" x="6" y="6" width="36" height="36">
<rect x="6" y="6" width="36" height="36" rx="8.6087" fill="#C4C4C4"/>
</mask>
<g mask="url(#mask0_507_24125)">
<rect x="6" y="6" width="36" height="36" rx="8.6087" fill="#FF4500"/>
</g>
<g clip-path="url(#clip0_507_24125)">
<path d="M23.9998 36.522C30.9153 36.522 36.5215 30.9158 36.5215 24.0003C36.5215 17.0847 30.9153 11.4785 23.9998 11.4785C17.0842 11.4785 11.478 17.0847 11.478 24.0003C11.478 30.9158 17.0842 36.522 23.9998 36.522Z" fill="white"/>
<path d="M32.352 24.0001C32.3545 24.1716 32.3332 24.3428 32.2881 24.5084C32.2431 24.674 32.1748 24.8328 32.0853 24.9793C31.9961 25.1258 31.8865 25.2591 31.76 25.3753C31.6336 25.4914 31.4914 25.5891 31.3377 25.6655C31.3412 25.7112 31.344 25.7572 31.3456 25.8032C31.3493 25.895 31.3493 25.9869 31.3456 26.0787C31.344 26.1247 31.3412 26.1707 31.3377 26.2164C31.3377 29.0213 28.0696 31.3002 24.0376 31.3002C20.0056 31.3002 16.7374 29.0213 16.7374 26.2164C16.7339 26.1707 16.7311 26.1247 16.7296 26.0787C16.7258 25.9869 16.7258 25.895 16.7296 25.8032C16.7311 25.7572 16.7339 25.7112 16.7374 25.6655C16.4966 25.5548 16.2827 25.3931 16.1105 25.1916C15.9384 24.9901 15.8121 24.7536 15.7403 24.4984C15.6687 24.2432 15.6535 23.9754 15.6956 23.7137C15.7378 23.4519 15.8364 23.2025 15.9845 22.9827C16.1325 22.7629 16.3266 22.5779 16.5533 22.4406C16.7799 22.3033 17.0337 22.2169 17.2971 22.1875C17.5605 22.158 17.8272 22.1861 18.0786 22.2699C18.3301 22.3537 18.5603 22.4911 18.7534 22.6728C19.1118 22.4298 19.4873 22.2132 19.8769 22.0244C20.2666 21.836 20.6695 21.6757 21.0824 21.5455C21.4953 21.4153 21.9173 21.3154 22.3446 21.2462C22.7719 21.177 23.2039 21.1392 23.6369 21.1326L24.5635 16.7875C24.5738 16.7371 24.5942 16.6896 24.6233 16.647C24.6521 16.6047 24.6893 16.5684 24.7322 16.5405C24.7754 16.5127 24.8236 16.4936 24.8743 16.4842C24.9247 16.4751 24.9767 16.4761 25.0268 16.487L28.0946 17.1006C28.4042 16.5687 29.0541 16.3408 29.6279 16.5625C30.2017 16.7841 30.5298 17.3898 30.4014 17.9915C30.2734 18.5932 29.7268 19.0126 29.1126 18.981C28.4981 18.9494 27.9976 18.4761 27.9318 17.8644L25.2522 17.3009L24.4383 21.2077C24.8659 21.2168 25.2926 21.2569 25.7145 21.3273C26.5596 21.4682 27.3799 21.7303 28.15 22.1055C28.5347 22.2927 28.9053 22.5074 29.2591 22.7479C29.5135 22.5037 29.8332 22.3383 30.1795 22.2717C30.5258 22.205 30.884 22.2399 31.211 22.3722C31.5379 22.5045 31.8196 22.7286 32.0221 23.0174C32.2246 23.3063 32.3391 23.6475 32.352 24.0001ZM19.9254 25.7315C19.9887 25.8833 20.0807 26.0214 20.1971 26.1375C20.3133 26.254 20.4513 26.346 20.6032 26.4092C20.7551 26.4721 20.918 26.5044 21.0824 26.5044C21.5889 26.5044 22.0454 26.1992 22.2394 25.7315C22.4332 25.2635 22.3258 24.7251 21.9677 24.3669C21.6096 24.0088 21.0712 23.9015 20.6032 24.0952C20.1355 24.2893 19.8303 24.7457 19.8303 25.2522C19.8303 25.4166 19.8625 25.5794 19.9254 25.7315ZM27.0972 28.7373C27.1614 28.6747 27.1981 28.5893 27.1993 28.4997C27.2006 28.4099 27.1658 28.3235 27.1032 28.2593C27.0406 28.1952 26.9551 28.1585 26.8656 28.1573C26.7758 28.156 26.6894 28.1908 26.617 28.2449C26.4288 28.38 26.2294 28.4988 26.021 28.6002C25.8126 28.7017 25.5961 28.7853 25.3736 28.8504C25.1514 28.9152 24.9238 28.9612 24.6937 28.9878C24.4633 29.0144 24.2313 29.0213 24 29.0088C23.769 29.0191 23.5373 29.0097 23.3079 28.9809C23.0783 28.9524 22.8517 28.9042 22.6304 28.8369C22.4088 28.7699 22.1937 28.6841 21.9868 28.5808C21.7799 28.4775 21.582 28.3567 21.3955 28.2199C21.3307 28.1667 21.2483 28.1394 21.1644 28.1435C21.0806 28.1476 21.0014 28.1829 20.9419 28.2421C20.8827 28.3016 20.8473 28.3808 20.8433 28.4647C20.8392 28.5486 20.8664 28.6309 20.9196 28.6957C21.1397 28.8616 21.3736 29.0081 21.6187 29.134C21.8638 29.2598 22.1195 29.3641 22.3825 29.4461C22.6455 29.5281 22.915 29.5873 23.1883 29.6233C23.4616 29.6589 23.7374 29.6712 24.0125 29.6599C24.2877 29.6712 24.5635 29.6589 24.8368 29.6233C25.3841 29.5513 25.915 29.3858 26.4064 29.134C26.6515 29.0081 26.8853 28.8616 27.1054 28.6957L27.0972 28.7373ZM26.8675 26.6046C27.0371 26.6065 27.2056 26.5736 27.3624 26.5085C27.5192 26.4431 27.661 26.3466 27.7794 26.2249C27.8977 26.1031 27.9897 25.9585 28.0505 25.7997C28.1112 25.6412 28.139 25.472 28.1322 25.3023C28.1322 24.7958 27.827 24.3394 27.3593 24.1453C26.8913 23.9515 26.3528 24.0589 25.9947 24.417C25.6366 24.7752 25.5292 25.3136 25.723 25.7816C25.9171 26.2493 26.3735 26.5545 26.88 26.5545L26.8675 26.6046Z" fill="#FF4500"/>
</g>
</g>
<defs>
<filter id="filter0_d_507_24125" x="0.521739" y="0.521739" width="50.087" height="50.087" filterUnits="userSpaceOnUse" color-interpolation-filters="sRGB">
<feFlood flood-opacity="0" result="BackgroundImageFix"/>
<feColorMatrix in="SourceAlpha" type="matrix" values="0 0 0 0 0 0 0 0 0 0 0 0 0 0 0 0 0 0 127 0" result="hardAlpha"/>
<feOffset dx="1.56522" dy="1.56522"/>
<feGaussianBlur stdDeviation="3.52174"/>
<feComposite in2="hardAlpha" operator="out"/>
<feColorMatrix type="matrix" values="0 0 0 0 0 0 0 0 0 0 0 0 0 0 0.0117647 0 0 0 0.07 0"/>
<feBlend mode="normal" in2="BackgroundImageFix" result="effect1_dropShadow_507_24125"/>
<feBlend mode="normal" in="SourceGraphic" in2="effect1_dropShadow_507_24125" result="shape"/>
</filter>
<clipPath id="clip0_507_24125">
<rect width="25.0435" height="25.0435" fill="white" transform="translate(11.478 11.4785)"/>
</clipPath>
</defs>
</svg>
