<svg width="100%" height="100%" viewBox="0 0 81 81" fill="none" xmlns="http://www.w3.org/2000/svg">
<mask id="mask0_1278_6079" style="mask-type:alpha" maskUnits="userSpaceOnUse" x="0" y="0" width="81" height="81">
<rect width="81" height="81" rx="11" fill="#C4C4C4"/>
</mask>
<g mask="url(#mask0_1278_6079)">
<rect width="81" height="81" rx="11" fill="#EC1C23"/>
</g>
<path d="M55.5873 37.6797C57.4499 37.6797 58.7152 38.5097 59.0898 40.018C59.4339 41.415 59.3125 42.7512 58.1484 43.7736C56.6603 45.0895 53.3907 44.9073 52.4695 42.7107C51.7508 40.9999 52.1658 38.2567 54.8888 37.7607C55.1622 37.6898 55.4355 37.6898 55.5873 37.6797ZM54.0284 41.4352C54.0487 41.6478 54.0689 41.8401 54.1094 42.0223C54.2916 42.7917 54.8787 43.2674 55.6481 43.2877C56.4174 43.3079 57.045 42.8625 57.2778 42.1134C57.4803 41.4453 57.4701 40.7772 57.2677 40.1091C57.0551 39.4107 56.5085 38.9956 55.8201 38.9855C54.9698 38.9754 54.4333 39.2892 54.1803 40.0383C54.1094 40.261 54.0689 40.5039 54.0284 40.7266C54.0183 40.8481 54.0082 41.3239 54.0284 41.4352Z" fill="white"/>
<path d="M64.363 43.5915C63.6848 44.2697 62.9458 44.5329 62.0854 44.5228C60.6581 44.5026 59.828 43.6927 59.7774 42.1541C59.7268 40.7369 59.7673 39.3096 59.7673 37.9026C59.7673 37.8519 59.7875 37.8115 59.7977 37.7305C60.3747 37.7305 60.9618 37.7305 61.5691 37.7305C61.5793 37.8722 61.5894 38.0038 61.5894 38.1455C61.5894 39.2792 61.5894 40.4029 61.5894 41.5366C61.5894 41.648 61.5894 41.7694 61.5894 41.8909C61.6096 42.8019 61.9943 43.2777 62.7332 43.3081C63.6342 43.3486 64.1808 42.893 64.2415 41.9719C64.3023 40.9495 64.2921 39.9271 64.3124 38.8946C64.3225 38.5099 64.3124 38.1354 64.3124 37.7305C64.9096 37.7305 65.4765 37.7305 66.0636 37.7305C66.0636 39.9777 66.0636 42.2047 66.0636 44.4823C65.5271 44.4823 65.0007 44.4823 64.4136 44.4823C64.4035 44.2191 64.3934 43.9458 64.363 43.5915Z" fill="white"/>
<path d="M20.9375 42.286C21.5145 42.286 22.0611 42.286 22.5976 42.286C23.0329 43.2477 23.8326 43.6121 24.7639 43.2679C25.0878 43.1363 25.3409 42.944 25.351 42.5593C25.3611 42.1747 25.0777 42.0127 24.7639 41.9115C24.0857 41.7191 23.3872 41.5572 22.7191 41.375C22.5673 41.3345 22.4154 41.294 22.2636 41.2332C21.4841 40.9498 21.1096 40.5044 21.0893 39.8262C21.059 38.9556 21.4031 38.3483 22.1421 38.0244C22.9823 37.6498 23.8832 37.579 24.774 37.7409C25.3004 37.832 25.8268 38.0446 26.2924 38.3179C26.7682 38.6013 26.9909 39.1075 27.001 39.725C26.4645 39.725 25.9584 39.7351 25.4421 39.7148C25.3814 39.7148 25.2599 39.6339 25.2498 39.563C25.0878 38.9961 24.612 38.8949 24.1363 38.8544C23.863 38.8342 23.5593 38.8747 23.2961 38.9658C23.1341 39.0265 22.962 39.2593 22.9519 39.4213C22.9418 39.5934 23.0936 39.8566 23.2354 39.9173C23.6706 40.0995 24.1261 40.2109 24.5715 40.3424C25.0271 40.474 25.5028 40.5449 25.9482 40.6866C26.6062 40.9093 27.1225 41.294 27.2035 42.0532C27.2844 42.8529 27.0212 43.5615 26.3025 43.9765C25.8774 44.2194 25.3814 44.3814 24.9056 44.4523C23.9237 44.594 22.9317 44.5636 22.0206 44.0676C21.3424 43.7133 20.9375 43.1464 20.9375 42.286Z" fill="white"/>
<path d="M51.4664 42.3871C51.4562 42.3871 51.4461 42.377 51.4461 42.377C51.2133 42.3871 50.8995 42.3871 50.778 42.5389C50.2314 43.2172 49.5329 43.3285 48.7636 43.1362C48.0348 42.9641 47.6299 42.3264 47.721 41.5267C48.9357 41.5267 50.1504 41.5267 51.3246 41.5267C51.2437 40.6055 51.4157 39.6742 51.8308 38.8948C51.8308 38.8948 51.8308 38.8948 51.8308 38.8846C51.8105 38.7328 51.6992 38.6316 51.4259 38.3988C51.355 38.338 51.274 38.2874 51.2032 38.2267C50.0795 37.4472 48.3992 37.4675 47.2351 38.257C46.071 39.0466 45.5446 40.5346 45.909 42.0227C46.4657 44.3307 49.5026 45.3632 51.436 43.9055C51.7194 43.6828 51.8611 43.5816 51.8814 43.4095C51.8105 43.2779 51.7397 43.1463 51.6789 43.0046C51.5878 42.8224 51.517 42.6098 51.4664 42.3871ZM49.1685 39.0061C50.0593 38.996 50.6565 39.5426 50.6667 40.4233C49.6746 40.4233 48.6927 40.4233 47.7007 40.4233C47.6299 39.7046 48.298 39.0264 49.1685 39.0061Z" fill="white"/>
<path d="M39.4844 37.69C40.0715 37.69 40.6485 37.6799 41.2154 37.7002C41.3065 37.7002 41.4381 37.8925 41.4785 38.014C41.8936 39.3198 42.2782 40.6459 42.6831 41.9618C42.7135 42.0732 42.754 42.1845 42.835 42.3971C42.916 42.1744 42.9767 42.0529 43.0273 41.9011C43.4322 40.6054 43.827 39.2894 44.2117 37.9937C44.2724 37.7609 44.3838 37.6799 44.6166 37.69C45.1025 37.7103 45.5884 37.7002 46.1249 37.7002C46.0844 37.852 46.0641 37.9633 46.0236 38.0848C45.3353 40.1195 44.647 42.1643 43.9789 44.1989C43.8877 44.4722 43.7663 44.5735 43.4828 44.5431C43.0071 44.5229 42.5313 44.5532 42.0657 44.5229C41.9341 44.5127 41.7417 44.3913 41.7114 44.29C40.9724 42.1541 40.2436 40.0284 39.5249 37.8925C39.4844 37.8317 39.4945 37.7811 39.4844 37.69Z" fill="white"/>
<path d="M69.4755 35.7666C69.4755 36.4145 69.4755 37.0218 69.4755 37.6899C69.9209 37.6899 70.3258 37.6899 70.7814 37.6899C70.7814 38.1151 70.7814 38.4896 70.7814 38.935C70.4473 38.935 70.1133 38.9451 69.7995 38.935C69.5768 38.9249 69.4654 38.9856 69.4755 39.2387C69.4857 40.3117 69.4755 41.3948 69.4857 42.4678C69.4857 42.9132 69.6881 43.1157 70.1436 43.1359C70.3562 43.1461 70.5688 43.1359 70.832 43.1359C70.832 43.5307 70.8421 43.9053 70.8218 44.3C70.8117 44.3709 70.6396 44.5025 70.5485 44.5025C69.9412 44.4924 69.3136 44.5126 68.7163 44.4013C67.9976 44.2697 67.6636 43.7433 67.6636 42.9132C67.6534 41.7289 67.6433 40.5445 67.6737 39.3804C67.6838 39.0261 67.5623 38.9046 67.2182 38.9451C67.0157 38.9654 66.8031 38.9451 66.5703 38.9451C66.5703 38.52 66.5703 38.1556 66.5703 37.7304C66.9145 37.7304 67.2587 37.7304 67.6332 37.7304C67.6332 37.0623 67.6332 36.4448 67.6332 35.7868C68.2507 35.7666 68.8378 35.7666 69.4755 35.7666Z" fill="white"/>
<path d="M36.5154 44.5131C35.8676 44.5131 35.3007 44.5131 34.6934 44.5131C34.6934 42.2456 34.6934 39.9984 34.6934 37.7208C35.2501 37.7208 35.817 37.7208 36.4345 37.7208C36.4345 38.1257 36.4345 38.5205 36.4345 38.9355C36.9102 38.3079 37.4569 37.8827 38.2059 37.7309C38.3983 37.7005 38.6007 37.6803 38.7829 37.7005C38.8842 37.7107 39.036 37.8119 39.0664 37.9131C39.2385 38.3889 39.37 38.8849 39.5219 39.3809C39.1676 39.3809 38.8335 39.391 38.5096 39.3809C37.3253 39.3303 36.5762 39.9781 36.5357 41.1726C36.5053 42.1343 36.5154 43.0858 36.5154 44.0475C36.5154 44.1892 36.5154 44.341 36.5154 44.5131Z" fill="white"/>
<path d="M10.0961 37.6897C10.5921 37.6897 11.0577 37.6897 11.5132 37.6897C11.5841 37.6897 11.6752 37.6998 11.8068 37.7099C11.8068 38.125 11.8068 38.5299 11.8068 38.9348C11.8372 38.955 11.8574 38.9753 11.8878 38.9955C12.6672 37.5682 13.9427 37.5885 15.3902 37.7504C14.6918 38.1452 14.2261 38.6311 13.9224 39.2587C13.8921 39.3093 13.8111 39.3599 13.7402 39.3701C12.2319 39.7041 11.8777 40.1495 11.8777 41.7185C11.8777 42.5182 11.8777 43.328 11.8777 44.1277C11.8777 44.2391 11.8675 44.3605 11.8574 44.5124C11.2703 44.5124 10.6933 44.5124 10.0859 44.5124C10.0961 42.2449 10.0961 39.9875 10.0961 37.6897Z" fill="white"/>
<path d="M32.4072 42.3776C32.397 42.4181 32.3363 42.5699 32.2756 42.6205C31.7998 43.1773 30.8989 43.4 30.1397 43.1064C29.5424 42.8736 29.2185 42.327 29.259 41.5678C30.8685 41.5678 32.478 41.5678 34.1078 41.5678C34.3912 39.6546 33.1461 37.9641 31.3443 37.7212C29.4007 37.458 27.6394 38.7233 27.4065 40.5555C27.1434 42.7015 28.2872 44.2807 30.2612 44.5337C32.1237 44.7665 33.7838 43.815 33.9559 42.3877H32.4072V42.3776ZM30.7065 39.0067C31.6176 38.9764 32.1743 39.4724 32.2452 40.3935C31.2532 40.3935 30.2713 40.3935 29.2792 40.3935C29.2792 39.604 29.8765 39.0371 30.7065 39.0067Z" fill="white"/>
<path d="M19.0133 42.377C18.9829 42.4175 18.9323 42.5086 18.9121 42.5288C18.3351 43.2273 17.4544 43.4297 16.6446 43.0552C16.0979 42.8021 15.7639 42.2049 15.8752 41.5267C17.4848 41.5267 19.1044 41.5267 20.7139 41.5267C20.886 39.8362 19.9851 38.0141 18.001 37.7104C16.1182 37.427 14.367 38.5911 14.0329 40.3626C13.6584 42.3567 14.701 44.0877 16.4826 44.4521C18.497 44.857 20.2179 44.0067 20.5823 42.3871H19.0133V42.377ZM17.3633 39.0061C18.2136 38.996 18.7703 39.492 18.8311 40.3929C17.8188 40.3929 16.8369 40.3929 15.855 40.3929C15.9056 39.5325 16.4826 39.0162 17.3633 39.0061Z" fill="white"/>
</svg>
