<svg width="100%" height="100%" viewBox="0 0 81 81" fill="none" xmlns="http://www.w3.org/2000/svg">
<mask id="mask0_860_5044" style="mask-type:alpha" maskUnits="userSpaceOnUse" x="0" y="0" width="81" height="81">
<rect width="81" height="81" rx="11" fill="#F93208"/>
</mask>
<g mask="url(#mask0_860_5044)">
<rect width="81" height="81" rx="11" fill="#F93208"/>
<path d="M35.4593 63.3767C30.3757 62.8031 25.8918 60.5401 22.2691 56.7204C18.1549 52.3817 15.9414 47.0417 15.7068 40.8872C15.5809 37.5903 15.8298 35.4076 16.617 32.9128C19.5823 23.5098 27.9936 17.9078 39.8077 17.4675C41.8246 17.3924 43.6012 17.443 44.8361 17.6099C54.9749 18.9867 62.431 26.0514 64.6513 36.3839C65.1207 38.5695 65.1161 43.5774 64.6433 45.6513C62.6862 54.2375 56.6484 60.1727 47.565 62.4408C43.968 63.3391 38.7214 63.7452 35.4593 63.3767ZM41.0357 56.5113C43.0276 55.9195 43.8478 54.8338 43.8262 52.8163C43.8188 52.1391 43.6644 51.193 43.4827 50.7128C42.5286 48.1877 42.5366 48.2202 42.7679 47.7127C42.892 47.4404 43.2167 47.1158 43.4895 46.9916C44.1474 46.692 44.5405 46.95 45.4296 48.2664C46.6918 50.1346 48.9657 52.2592 50.4421 52.9507C51.6257 53.5044 51.9584 53.571 53.2006 53.5004C54.4344 53.4309 54.7574 53.3216 55.749 52.6386C57.0511 51.7421 57.4014 51.0118 57.3895 49.2233C57.377 47.4313 56.4474 45.9521 54.599 44.7833C53.4684 44.0678 51.0618 43.3319 49.3103 43.1656C47.0775 42.9531 46.2891 42.5892 46.0043 41.6368C45.7269 40.7112 46.0186 39.9519 46.9032 39.2974C47.3537 38.9637 47.9057 38.8514 49.5712 38.754C50.912 38.676 51.9008 38.5097 52.3075 38.2944C55.2159 36.7553 55.405 31.7622 52.6282 29.8324C51.8513 29.2924 51.5642 29.215 50.3703 29.2218C47.6209 29.2372 45.7611 31.0371 44.8839 34.5339C44.8127 34.8164 44.5376 35.2818 44.2716 35.5683C43.71 36.1743 42.6539 36.2666 41.7323 35.7904C40.8039 35.3097 40.6843 34.2559 41.2191 31.2422C41.8838 27.4925 41.5227 25.9221 39.7592 24.8888C38.6366 24.231 36.6407 24.0003 35.4548 24.3916C34.409 24.7368 33.0471 26.1351 32.7332 27.1855C32.101 29.3032 32.6022 30.6452 34.9478 33.107C35.9332 34.1414 36.799 35.1775 36.8731 35.4094C37.2091 36.4694 35.931 37.686 34.7525 37.4274C34.0803 37.2794 33.4407 36.6283 32.4006 35.0311C30.7294 32.464 28.3952 31.6443 26.0957 32.8177C24.1175 33.827 23.6054 36.1071 24.9189 38.0563C25.681 39.1875 27.0492 39.9417 29.1567 40.3916C32.2086 41.0438 33.0682 41.7063 32.2354 42.7646C31.8036 43.3137 31.7626 43.3228 30.3415 43.1679C28.1969 42.9349 27.3659 43.0209 26.1749 43.5991C24.9331 44.2017 24.392 44.8681 24.0542 46.2101C23.3764 48.9015 25.2732 51.2858 28.0813 51.2738C29.56 51.267 30.6827 50.6564 32.5595 48.8394C34.6328 46.8315 35.0031 46.6196 35.6724 47.0582C36.4049 47.5384 36.4966 48.2498 35.9948 49.5616C34.8533 52.5441 35.9065 55.6449 38.3586 56.5187C39.3862 56.885 39.7826 56.8833 41.0357 56.5113Z" fill="#FAFAFA"/>
</g>
</svg>
