<svg width="100%" height="100%" viewBox="0 0 46 46" fill="none" xmlns="http://www.w3.org/2000/svg">
<g filter="url(#filter0_d_507_24177)">
<rect x="5" y="5" width="34" height="34" rx="6.13115" fill="white"/>
<g clip-path="url(#clip0_507_24177)">
<path d="M27.6307 17.1415C27.6187 17.0543 27.5423 17.0061 27.4792 17.0008C27.4162 16.9955 26.083 16.8967 26.083 16.8967C26.083 16.8967 25.157 15.9774 25.0554 15.8757C24.9537 15.774 24.7551 15.8049 24.678 15.8276C24.6667 15.831 24.4757 15.8899 24.1598 15.9877C23.8505 15.0976 23.3046 14.2797 22.3443 14.2797C22.3178 14.2797 22.2905 14.2807 22.2632 14.2823C21.9901 13.9211 21.6518 13.7642 21.3595 13.7642C19.1224 13.7642 18.0536 16.5608 17.7185 17.9819C16.8492 18.2513 16.2317 18.4428 16.1528 18.4676C15.6676 18.6198 15.6523 18.635 15.5885 19.0923C15.5406 19.4384 14.271 29.2568 14.271 29.2568L24.164 31.1104L29.5243 29.9508C29.5243 29.9508 27.6426 17.2287 27.6308 17.1415H27.6307ZM23.6131 16.1568L22.776 16.4158C22.7762 16.3569 22.7765 16.2988 22.7765 16.2353C22.7765 15.6822 22.6998 15.2368 22.5766 14.8837C23.0714 14.9458 23.401 15.5088 23.6131 16.1568ZM21.9627 14.9934C22.1003 15.3381 22.1898 15.8328 22.1898 16.5004C22.1898 16.5346 22.1895 16.5658 22.1892 16.5974C21.6448 16.766 21.0532 16.9491 20.4603 17.1328C20.7932 15.848 21.4172 15.2275 21.9627 14.9934ZM21.2981 14.3642C21.3946 14.3642 21.4919 14.397 21.585 14.4611C20.868 14.7984 20.0995 15.6481 19.775 17.345L18.4084 17.7682C18.7886 16.4739 19.6912 14.3642 21.298 14.3642H21.2981Z" fill="#95BF46"/>
<path d="M27.4789 17.0008C27.4159 16.9955 26.0826 16.8967 26.0826 16.8967C26.0826 16.8967 25.1567 15.9774 25.055 15.8757C25.017 15.8378 24.9657 15.8184 24.9121 15.8101L24.1641 31.1102L29.5239 29.9508C29.5239 29.9508 27.6422 17.2287 27.6303 17.1415C27.6183 17.0543 27.542 17.0061 27.4789 17.0008Z" fill="#5E8E3E"/>
<path d="M22.344 19.9626L21.683 21.9287C21.683 21.9287 21.1039 21.6197 20.3941 21.6197C19.3534 21.6197 19.301 22.2727 19.301 22.4373C19.301 23.3352 21.6417 23.6793 21.6417 25.7826C21.6417 27.4374 20.5922 28.503 19.177 28.503C17.4788 28.503 16.6104 27.446 16.6104 27.446L17.0651 25.9437C17.0651 25.9437 17.9578 26.7101 18.711 26.7101C19.2032 26.7101 19.4034 26.3226 19.4034 26.0394C19.4034 24.8681 17.4831 24.8159 17.4831 22.8912C17.4831 21.2712 18.6458 19.7036 20.9929 19.7036C21.8972 19.7036 22.344 19.9626 22.344 19.9626Z" fill="white"/>
</g>
</g>
<defs>
<filter id="filter0_d_507_24177" x="0.540984" y="0.540984" width="45.1475" height="45.1475" filterUnits="userSpaceOnUse" color-interpolation-filters="sRGB">
<feFlood flood-opacity="0" result="BackgroundImageFix"/>
<feColorMatrix in="SourceAlpha" type="matrix" values="0 0 0 0 0 0 0 0 0 0 0 0 0 0 0 0 0 0 127 0" result="hardAlpha"/>
<feOffset dx="1.11475" dy="1.11475"/>
<feGaussianBlur stdDeviation="2.78689"/>
<feComposite in2="hardAlpha" operator="out"/>
<feColorMatrix type="matrix" values="0 0 0 0 0 0 0 0 0 0 0 0 0 0 0 0 0 0 0.14 0"/>
<feBlend mode="normal" in2="BackgroundImageFix" result="effect1_dropShadow_507_24177"/>
<feBlend mode="normal" in="SourceGraphic" in2="effect1_dropShadow_507_24177" result="shape"/>
</filter>
<clipPath id="clip0_507_24177">
<rect width="15.2878" height="17.4359" fill="white" transform="translate(14.2676 13.7178)"/>
</clipPath>
</defs>
</svg>
