<svg width="100%" height="100%" viewBox="0 0 81 81" fill="none" xmlns="http://www.w3.org/2000/svg">
<mask id="mask0_860_5072" style="mask-type:alpha" maskUnits="userSpaceOnUse" x="0" y="0" width="81" height="81">
<rect width="81" height="81" rx="11" fill="#F06A22"/>
</mask>
<g mask="url(#mask0_860_5072)">
<rect width="81" height="81" rx="11" fill="#F06A22"/>
</g>
<g clip-path="url(#clip0_860_5072)">
<path d="M39.2045 56.2255C48.0527 56.2255 55.2255 49.0527 55.2255 40.2045C55.2255 31.3564 48.0527 24.1836 39.2045 24.1836C30.3564 24.1836 23.1836 31.3564 23.1836 40.2045C23.1836 49.0527 30.3564 56.2255 39.2045 56.2255Z" fill="#F06A22"/>
<path d="M54.9468 52.6367C51.1858 57.5389 45.2548 60.7014 38.582 60.7014H63.0003L54.9468 52.6367Z" fill="white"/>
<path fill-rule="evenodd" clip-rule="evenodd" d="M54.9464 52.6371C57.592 49.1889 59.1635 44.8795 59.1635 40.2044C59.1635 28.884 49.9486 19.707 38.5817 19.707C27.2147 19.707 18 28.884 18 40.2044C18 51.5249 27.2147 60.7018 38.5817 60.7018C45.2545 60.7018 51.1855 57.5393 54.9464 52.6371ZM43.2356 34.9676C42.8372 34.8789 42.4965 34.6224 42.3012 34.2639L38.9955 28.1952C38.817 27.8675 38.3464 27.8675 38.1679 28.1952L34.8621 34.2639C34.6669 34.6224 34.3262 34.8789 33.9278 34.9676L27.3099 36.4402C26.9532 36.5196 26.8187 36.9573 27.0693 37.2233L31.6407 42.0754C31.9279 42.3803 32.0652 42.797 32.0153 43.2131L31.1892 50.1063C31.145 50.475 31.5252 50.7476 31.8604 50.5874L37.9763 47.6624C38.3594 47.4791 38.8046 47.4779 39.1888 47.6589L45.418 50.5942C45.753 50.7521 46.1307 50.4797 46.0866 50.112L45.2589 43.2043C45.2097 42.7934 45.343 42.3814 45.6239 42.0772L50.1067 37.2219C50.3531 36.9549 50.2174 36.5212 49.8628 36.4423L43.2356 34.9676Z" fill="white"/>
</g>
<defs>
<clipPath id="clip0_860_5072">
<rect width="45" height="42.4084" fill="white" transform="translate(18 19)"/>
</clipPath>
</defs>
</svg>
