<svg width="100%" height="100%" viewBox="0 0 81 81" fill="none" xmlns="http://www.w3.org/2000/svg">
<mask id="mask0_860_4694" style="mask-type:alpha" maskUnits="userSpaceOnUse" x="0" y="0" width="81" height="81">
<rect width="81" height="81" rx="11" fill="#C4C4C4"/>
</mask>
<g mask="url(#mask0_860_4694)">
<rect width="81" height="81" fill="url(#paint0_linear_860_4694)"/>
</g>
<path d="M16.0703 47.8348C19.2207 58.3434 28.9661 66 40.5 66C54.583 66 66 54.583 66 40.5C66 26.4168 54.583 15 40.5 15C26.9858 15 15.928 25.5128 15.0547 38.8058C16.7049 41.5769 17.3488 43.2908 16.0706 47.8348H16.0703Z" fill="white"/>
<path d="M39.1871 34.1135C39.1871 34.1564 39.1871 34.1993 39.1893 34.2396L32.9493 43.304C31.9385 43.258 30.9242 43.4353 29.9624 43.8315C29.5385 44.0044 29.1412 44.2167 28.7684 44.4619L15.0665 38.8213C15.0666 38.8213 14.7494 44.0373 16.0707 47.9246L25.7572 51.9215C26.2436 54.095 27.7346 56.0015 29.9344 56.9186C33.5335 58.4223 37.6834 56.7085 39.1805 53.1078C39.5701 52.1666 39.7518 51.1794 39.7255 50.1945L48.6538 43.814C48.7261 43.8162 48.8005 43.8184 48.8727 43.8184C54.2157 43.8184 58.5583 39.4626 58.5583 34.1135C58.5583 28.764 54.2157 24.4121 48.8727 24.4121C43.5319 24.4121 39.1871 28.764 39.1871 34.1135ZM37.6899 52.4818C36.5311 55.2638 33.3341 56.5837 30.5552 55.4258C29.2732 54.8917 28.3053 53.9133 27.7469 52.7467L30.8999 54.0534C32.9493 54.907 35.3006 53.9352 36.1525 51.8864C37.007 49.8355 36.0376 47.4803 33.9892 46.6267L30.7298 45.2761C31.9876 44.799 33.4173 44.7815 34.7532 45.3374C36.0999 45.8978 37.1449 46.9528 37.6987 48.3011C38.2525 49.6494 38.2503 51.1379 37.6899 52.4818V52.4818ZM48.8727 40.5789C45.3158 40.5789 42.42 37.6787 42.42 34.1135C42.42 30.5512 45.3158 27.6501 48.8727 27.6501C52.4318 27.6501 55.3276 30.5512 55.3276 34.1135C55.3276 37.6787 52.4318 40.5789 48.8727 40.5789ZM44.0376 34.1036C44.0376 31.4217 46.2089 29.2464 48.8837 29.2464C51.5606 29.2464 53.7319 31.4217 53.7319 34.1036C53.7319 36.7858 51.5606 38.9591 48.8837 38.9591C46.2089 38.9591 44.0376 36.7858 44.0376 34.1036V34.1036Z" fill="#112A5C"/>
<defs>
<linearGradient id="paint0_linear_860_4694" x1="40.5" y1="0" x2="40.5" y2="81" gradientUnits="userSpaceOnUse">
<stop offset="0" stop-color="#111D2E"/>
<stop offset="0.21248" stop-color="#051839"/>
<stop offset="0.40695" stop-color="#0A1B48"/>
<stop offset="0.5811" stop-color="#132E62"/>
<stop offset="0.7376" stop-color="#144B7E"/>
<stop offset="0.87279" stop-color="#136497"/>
<stop offset="1" stop-color="#1387B8"/>
</linearGradient>
</defs>
</svg>
