<svg width="100%" height="100%" viewBox="0 0 81 81" fill="none" xmlns="http://www.w3.org/2000/svg">
<mask id="mask0_860_4827" style="mask-type:alpha" maskUnits="userSpaceOnUse" x="0" y="0" width="81" height="81">
<rect width="81" height="81" rx="11" fill="#C4C4C4"/>
</mask>
<g mask="url(#mask0_860_4827)">
<rect width="81" height="81" rx="11" fill="#FF4B00"/>
</g>
<path d="M42.6285 22.8297C41.7052 22.8914 40.7623 22.9108 39.8753 23.2016C38.9437 23.4632 38.0592 23.9154 37.3295 24.5552C36.2256 25.5027 35.4877 26.924 35.5278 28.3963C35.5397 29.952 35.5315 31.508 35.5375 33.0625C33.4751 33.1427 31.4128 33.1838 29.3517 33.2915C29.3567 34.1253 29.3495 34.9588 29.3542 35.7926C29.3761 37.4175 30.8181 38.8883 32.449 38.909C33.4776 38.9162 34.5076 38.9077 35.5375 38.9115C35.5485 41.1434 35.5388 43.374 35.5422 45.6062C35.5616 46.9814 35.483 48.3651 35.6635 49.7331C35.9796 52.251 37.3818 54.591 39.415 56.0972C40.72 57.0688 42.2782 57.699 43.8947 57.8882C46.0407 58.1837 48.2726 57.6576 50.1081 56.5199C50.1044 54.6226 50.1144 52.7235 50.1034 50.8263C48.9742 51.1797 47.692 51.2637 46.6126 50.7075C45.718 50.2325 45.1474 49.3518 44.6871 48.4838C44.235 47.5438 44.3732 46.4835 44.3538 45.4764C44.3622 43.2869 44.3356 41.0976 44.3672 38.909C46.684 38.9127 49.0008 38.9127 51.3173 38.909C51.2812 38.3046 51.1857 37.707 51.1202 37.1061C50.9673 36.2372 51.0484 35.2959 50.5979 34.5057C50.0574 33.4551 48.8883 32.8068 47.7186 32.8131C46.5966 32.8081 45.4745 32.8165 44.3538 32.8093C44.3563 29.4469 44.3491 26.083 44.3575 22.7206C43.7772 22.6952 43.2051 22.8043 42.6285 22.8297ZM23.6662 11.7633C24.334 11.716 25.0004 11.6324 25.6706 11.654C34.5148 11.6553 43.3602 11.654 52.2056 11.6553C53.7989 11.6772 55.3988 11.5863 56.987 11.7608C59.0723 12.0563 61.0983 12.8052 62.8454 13.9868C65.8641 16.0018 68.0405 19.2552 68.6935 22.8297C68.9915 24.1385 68.9542 25.4905 68.9517 26.8234V53.7196C68.9382 54.6518 68.994 55.5871 68.8862 56.5152C68.5359 60.6386 66.1827 64.5255 62.7088 66.7709C60.4685 68.2432 57.7895 69.0416 55.1077 69.015H25.1919C23.378 68.9774 21.5725 68.5729 19.915 67.8337C17.0273 66.5638 14.6175 64.2592 13.2009 61.443C12.2327 59.5432 11.7455 57.4179 11.7154 55.2904C11.7116 45.3568 11.7167 35.4219 11.7129 25.4883C11.7323 23.7192 12.0472 21.9489 12.7137 20.3058C14.0347 16.9819 16.7052 14.2193 19.9912 12.803C21.1583 12.2816 22.4051 11.9523 23.6662 11.7633Z" fill="#F9F9F9"/>
<path d="M42.6284 22.8302C43.205 22.8048 43.7771 22.6958 44.3574 22.7212C44.3489 26.0836 44.3562 29.4475 44.3536 32.8099C45.4744 32.8171 46.5965 32.8086 47.7185 32.8136C48.8882 32.8074 50.0573 33.4557 50.5978 34.5063C51.0483 35.2965 50.9672 36.2377 51.1201 37.1066C51.1856 37.7076 51.2811 38.3051 51.3172 38.9095C49.0007 38.9133 46.6839 38.9133 44.3671 38.9095C44.3355 41.0982 44.3621 43.2874 44.3536 45.477C44.3731 46.4841 44.2349 47.5444 44.687 48.4844C45.1473 49.3523 45.7179 50.2331 46.6125 50.7081C47.6919 51.2643 48.9741 51.1803 50.1033 50.8269C50.1143 52.7241 50.1043 54.6232 50.108 56.5204C48.2725 57.6581 46.0406 58.1842 43.8946 57.8888C42.2781 57.6995 40.7199 57.0694 39.4149 56.0977C37.3817 54.5916 35.9795 52.2516 35.6633 49.7336C35.4829 48.3656 35.5615 46.9819 35.5421 45.6067C35.5386 43.3745 35.5484 41.1439 35.5374 38.912C34.5075 38.9083 33.4775 38.9167 32.4489 38.9095C30.818 38.8889 29.376 37.4181 29.3541 35.7931C29.3494 34.9593 29.3566 34.1259 29.3516 33.2921C31.4127 33.1843 33.475 33.1433 35.5374 33.0631C35.5314 31.5086 35.5396 29.9526 35.5277 28.3969C35.4876 26.9245 36.2255 25.5033 37.3293 24.5557C38.0591 23.9159 38.9436 23.4638 39.8752 23.2021C40.7622 22.9114 41.705 22.8919 42.6284 22.8302" fill="#FF4B00"/>
</svg>
