<svg width="100%" height="100%" viewBox="0 0 81 81" fill="none" xmlns="http://www.w3.org/2000/svg">
<rect width="81" height="81" rx="11" fill="#579442"/>
<path d="M19.2375 32.1602H18.6005V38.8942H19.2245L19.2375 32.1602ZM20.7975 32.3422L20.1735 32.2382V38.8032L20.7975 38.6732V32.3422ZM17.6645 32.2382L17.0405 32.3422V38.6862L17.6645 38.8162V32.2382ZM18.1845 48.4362C18.2105 48.0202 18.2365 47.3442 18.2365 47.1232C18.2365 46.9022 18.2495 46.8892 18.1975 46.2262C18.1455 45.5502 18.0675 45.3032 18.0155 45.0302C17.9765 44.7572 17.8985 44.4582 17.7685 44.0422C17.6385 43.6392 17.5345 43.4312 17.3655 43.0412C17.1835 42.6512 16.8845 42.1052 16.5855 41.5722C16.2735 41.0262 16.0525 40.4412 15.9355 39.8302C15.8315 39.1802 15.8055 38.5302 15.8575 37.8802C15.8835 37.4382 15.9485 36.2942 16.0005 35.6962C13.2835 36.7492 11.4375 39.2322 11.4375 42.1702C11.4375 45.7972 14.3625 48.8002 18.1195 49.1642L18.1845 48.4362ZM19.6665 48.4362C19.6405 48.0202 19.6145 47.3442 19.6145 47.1232C19.6145 46.9022 19.6015 46.8892 19.6535 46.2262C19.7055 45.5502 19.7835 45.3032 19.8355 45.0302C19.8745 44.7572 19.9525 44.4582 20.0825 44.0422C20.2125 43.6392 20.3165 43.4312 20.4855 43.0412C20.6675 42.6512 20.9665 42.1052 21.2655 41.5722C21.5775 41.0262 21.7985 40.4412 21.9155 39.8302C22.0455 39.1282 22.0325 38.3222 21.9935 37.8802C21.9805 37.4382 21.9025 36.2942 21.8505 35.6962C24.5415 36.7622 26.4005 39.2322 26.4005 42.1702C26.4005 45.7972 23.4755 48.8002 19.7185 49.1642C19.7055 49.1772 19.6925 48.8522 19.6665 48.4362Z" fill="white"/>
<path d="M48.6177 37.6853V38.4003H50.2167V39.3883H48.6177V44.2633H47.3177V39.3753H46.5117V38.3873H47.3047V37.7893C47.3047 36.3593 48.3447 35.6963 49.3977 35.6963C49.8917 35.6963 50.3857 35.8393 50.7627 36.1253L50.2687 37.1393C50.0217 36.9573 49.7357 36.8663 49.4237 36.8533C48.9947 36.8533 48.6177 37.1133 48.6177 37.6853ZM56.6517 41.2083C56.6517 43.0283 55.3517 44.3023 53.4797 44.3023C51.5947 44.3023 50.3077 43.0543 50.3077 41.2083C50.3077 39.3753 51.6077 38.1143 53.4927 38.1143C55.3517 38.1273 56.6517 39.3623 56.6517 41.2083ZM51.6207 41.2083C51.6207 42.3913 52.3877 43.1843 53.4797 43.1843C54.5587 43.1843 55.3387 42.3913 55.3387 41.2083C55.3387 40.0383 54.5717 39.2453 53.4797 39.2453C52.3877 39.2453 51.6207 40.0513 51.6207 41.2083ZM58.9137 39.3753C59.3037 38.5693 60.1357 38.0753 61.0197 38.1273V39.3753C59.7977 39.2973 59.0307 40.0253 58.9137 41.0653V44.2503H57.6007V38.1533H58.9007L58.9137 39.3753ZM63.1517 42.5473V44.2633H61.8387V35.7743H63.1517V40.9093L65.8427 38.1923H67.3507L65.1017 40.5453L67.5197 44.2763H65.9727L64.1787 41.4683L63.1517 42.5473Z" fill="white"/>
<path d="M32.1595 43.8597C31.6785 44.1457 31.1715 44.3017 30.6645 44.3017C29.7545 44.3017 28.9485 43.7817 28.9485 42.5337V39.3747H28.1035V38.3867H28.9485V36.7227H30.2485V38.3867H32.0425V39.3747H30.2615V42.2997C30.2615 42.9237 30.5085 43.1187 30.9115 43.1187C31.1845 43.1187 31.4705 43.0407 31.8215 42.8587L32.1595 43.8597ZM39.1535 40.4537V44.2497H37.8405V40.8307C37.8405 39.9207 37.2815 39.3487 36.3715 39.3487C35.2925 39.3617 34.6295 40.1677 34.6295 41.2337V44.2237H33.3295V35.7607H34.6425V39.3487C35.0715 38.5037 35.8515 38.1137 36.8915 38.1137C38.3215 38.1267 39.1665 39.0107 39.1535 40.4537ZM45.9525 41.7147H41.3505C41.5065 42.6247 42.3125 43.2747 43.2355 43.2357C43.8985 43.2357 44.5095 42.9757 44.9385 42.5207L45.6405 43.2617C44.9905 43.9507 44.0675 44.3147 43.1185 44.2887C41.2335 44.2887 40.0115 43.0537 40.0115 41.2077C40.0115 39.3747 41.2725 38.1137 43.0925 38.1007C45.2375 38.1267 46.1085 39.5177 45.9525 41.7147ZM44.8085 40.7527C44.7695 39.7647 44.1195 39.1667 43.1185 39.1667C42.1695 39.1667 41.4805 39.7777 41.3375 40.7527H44.8085Z" fill="white"/>
<path d="M29.3915 48.9299C29.3005 48.9299 29.1965 48.9169 29.1185 48.8779C29.0405 48.8519 28.9625 48.7999 28.8975 48.7479C28.8325 48.6829 28.7805 48.6179 28.7415 48.5399C28.7025 48.4619 28.6895 48.3709 28.6895 48.2799C28.6895 48.1889 28.7155 48.0979 28.7675 48.0199C28.8065 47.9419 28.8585 47.8769 28.9495 47.8119C29.0275 47.7599 29.1185 47.7079 29.2225 47.6819C29.3395 47.6559 29.4435 47.6429 29.5735 47.6429C29.6645 47.6429 29.7685 47.6559 29.8595 47.6689C29.9505 47.6819 30.0415 47.7079 30.1195 47.7339V47.6039C30.1195 47.4479 30.0805 47.3309 29.9895 47.2529C29.8985 47.1749 29.7815 47.1359 29.6125 47.1359C29.4955 47.1359 29.3915 47.1489 29.2745 47.1879C29.1705 47.2269 29.0665 47.2919 28.9495 47.3699L28.8195 47.0969C29.0665 46.9279 29.3525 46.8239 29.6515 46.8239C29.9375 46.8239 30.1585 46.8889 30.3015 47.0449C30.4575 47.1879 30.5355 47.3959 30.5355 47.6689V48.4099C30.5355 48.5009 30.5745 48.5399 30.6525 48.5399V48.9169C30.6135 48.9299 30.5615 48.9299 30.5355 48.9299H30.4575C30.3925 48.9299 30.3145 48.9039 30.2625 48.8519C30.2235 48.8129 30.1975 48.7479 30.1845 48.6959L30.1715 48.5659C30.0675 48.6829 29.9635 48.7739 29.8335 48.8389C29.6905 48.8909 29.5475 48.9299 29.3915 48.9299ZM29.5085 48.6049C29.6255 48.6049 29.7165 48.5919 29.8075 48.5529C29.9115 48.5139 29.9765 48.4619 30.0285 48.3969C30.0805 48.3579 30.1065 48.2929 30.1065 48.2409V47.9679C29.9505 47.9029 29.7945 47.8769 29.6255 47.8769C29.4695 47.8769 29.3395 47.9029 29.2355 47.9679C29.1445 48.0329 29.0925 48.1239 29.0925 48.2279C29.0925 48.3319 29.1315 48.4229 29.1965 48.4879C29.2875 48.5789 29.3915 48.6049 29.5085 48.6049ZM34.0325 46.4859H33.1095V48.8909H32.6545V46.4859H31.7315V46.0829H34.0455L34.0325 46.4859ZM35.0855 47.1879C34.9295 47.1879 34.7735 47.2269 34.6435 47.3179C34.5005 47.3829 34.4225 47.4999 34.3705 47.6299V48.8779H33.9415V46.8239H34.3315V47.2919C34.3965 47.1619 34.5005 47.0319 34.6045 46.9409C34.7215 46.8629 34.8385 46.8109 34.9815 46.8109H35.0985L35.0855 47.1879ZM35.3975 46.4859V46.0049H35.8395V46.4859H35.3975ZM35.3975 48.8909V46.8239H35.8395V48.8779L35.3975 48.8909ZM37.5165 48.9299C37.3605 48.9299 37.2045 48.8909 37.0875 48.8129C36.9575 48.7349 36.8535 48.6309 36.7885 48.5139V49.7489H36.3465V46.8499H36.7235V47.2139C36.8015 47.0969 36.9055 47.0059 37.0225 46.9149C37.1525 46.8499 37.2825 46.8109 37.4515 46.8109C37.7245 46.7979 37.9845 46.9149 38.1535 47.1229C38.2315 47.2139 38.2965 47.3309 38.3615 47.4609C38.4265 47.5909 38.4265 47.7209 38.4265 47.8769C38.4265 48.0199 38.4005 48.1629 38.3615 48.2929C38.3225 48.4229 38.2575 48.5399 38.1665 48.6439C38.0755 48.7349 37.9845 48.8259 37.8805 48.8779C37.7765 48.8909 37.6465 48.9299 37.5165 48.9299ZM37.3865 48.5399C37.4775 48.5399 37.5685 48.5269 37.6335 48.4879C37.8675 48.3579 37.9975 48.1109 37.9975 47.8509C37.9975 47.7469 37.9845 47.6689 37.9325 47.5779C37.9065 47.4999 37.8545 47.4219 37.8025 47.3569C37.7505 47.2919 37.6725 47.2399 37.5945 47.2139C37.5165 47.1749 37.4255 47.1619 37.3345 47.1619C37.2695 47.1619 37.2175 47.1749 37.1525 47.1879C37.1005 47.2139 37.0225 47.2399 36.9835 47.2659C36.9315 47.3049 36.8925 47.3439 36.8535 47.3829C36.8145 47.4349 36.7885 47.4869 36.7755 47.5519V48.0849C36.8015 48.1499 36.8275 48.2019 36.8795 48.2669C36.9185 48.3189 36.9575 48.3579 37.0095 48.3969C37.0745 48.4359 37.1265 48.4619 37.1785 48.4879C37.2565 48.5399 37.3215 48.5399 37.3865 48.5399ZM39.3755 48.9299C39.2715 48.9299 39.1805 48.9169 39.1025 48.8779C39.0245 48.8519 38.9465 48.7999 38.8815 48.7479C38.8165 48.6829 38.7645 48.6179 38.7385 48.5399C38.6995 48.4619 38.6865 48.3709 38.6865 48.2799C38.6865 48.1889 38.7125 48.0979 38.7515 48.0199C38.8035 47.9419 38.8425 47.8769 38.9335 47.8119C39.0115 47.7599 39.0895 47.7079 39.2065 47.6819C39.4145 47.6299 39.6355 47.6169 39.8565 47.6689C39.9475 47.6819 40.0385 47.7079 40.1165 47.7339V47.6039C40.1165 47.4479 40.0775 47.3309 39.9865 47.2529C39.8955 47.1749 39.7785 47.1359 39.6095 47.1359C39.5055 47.1359 39.3885 47.1489 39.2845 47.1879C39.1675 47.2269 39.0635 47.2919 38.9595 47.3699L38.8295 47.0969C39.0765 46.9279 39.3625 46.8239 39.6615 46.8239C39.9475 46.8239 40.1685 46.8889 40.3245 47.0449C40.4805 47.1879 40.5585 47.3959 40.5585 47.6689V48.4099C40.5585 48.5009 40.5975 48.5399 40.6625 48.5399V48.9169C40.6235 48.9299 40.5845 48.9299 40.5585 48.9299H40.4675C40.4025 48.9299 40.3245 48.9039 40.2855 48.8519C40.2465 48.8129 40.2075 48.7479 40.1945 48.6959L40.1815 48.5659C40.0905 48.6829 39.9735 48.7739 39.8435 48.8389C39.6875 48.8909 39.5315 48.9299 39.3755 48.9299ZM39.4925 48.6049C39.5965 48.6049 39.7005 48.5919 39.7915 48.5529C39.8825 48.5139 39.9475 48.4619 40.0125 48.3969C40.0645 48.3579 40.0905 48.2929 40.0905 48.2409V47.9679C40.0125 47.9289 39.9345 47.9159 39.8565 47.8899C39.7785 47.8769 39.6875 47.8639 39.6095 47.8639C39.4665 47.8639 39.3235 47.8899 39.2325 47.9549C39.1285 48.0199 39.0765 48.1109 39.0765 48.2149C39.0765 48.3189 39.1155 48.4099 39.1935 48.4749C39.2715 48.5789 39.3755 48.6049 39.4925 48.6049ZM41.8845 48.9299C41.6245 48.9299 41.3775 48.8129 41.2085 48.6179C41.0265 48.4099 40.9225 48.1369 40.9355 47.8509C40.9355 47.6949 40.9615 47.5649 41.0005 47.4349C41.0395 47.3179 41.1175 47.1879 41.1955 47.0969C41.3515 46.9019 41.5985 46.7849 41.8455 46.7849C42.0145 46.7849 42.1575 46.8239 42.2875 46.9019C42.4175 46.9799 42.5085 47.0839 42.5865 47.2009V46.0049H43.0285V48.3709C43.0285 48.4229 43.0415 48.4489 43.0545 48.4749C43.0675 48.5009 43.0935 48.5009 43.1455 48.5139V48.8779C43.1065 48.8909 43.0675 48.8909 43.0415 48.8909H42.9765C42.8985 48.8909 42.8205 48.8649 42.7555 48.8129C42.7035 48.7739 42.6775 48.7219 42.6645 48.6309L42.6515 48.4879C42.5605 48.6179 42.4695 48.7219 42.3395 48.7869C42.1965 48.8909 42.0405 48.9299 41.8845 48.9299ZM41.9885 48.5399C42.0535 48.5399 42.1185 48.5269 42.1835 48.5139L42.3655 48.4359C42.4175 48.3969 42.4565 48.3579 42.4955 48.3059C42.5345 48.2539 42.5605 48.1889 42.5735 48.1369V47.6039C42.5475 47.5389 42.5215 47.4869 42.4825 47.4349C42.4435 47.3829 42.3915 47.3439 42.3265 47.3049C42.2745 47.2659 42.2225 47.2269 42.1445 47.2009C42.0795 47.1749 42.0275 47.1749 41.9495 47.1749C41.8715 47.1749 41.7935 47.1879 41.7155 47.2269C41.4815 47.3569 41.3515 47.6039 41.3645 47.8769C41.3645 47.9679 41.3775 48.0589 41.4165 48.1499C41.4425 48.2409 41.4945 48.3189 41.5465 48.3709C41.6115 48.4359 41.6765 48.4749 41.7545 48.5139C41.8195 48.5269 41.8975 48.5529 41.9885 48.5399ZM44.1335 48.8909L43.3405 46.8239H43.7825L44.3805 48.5139L44.9785 46.8239H45.3945L44.6015 48.8779L44.1335 48.8909ZM45.6935 46.4859V46.0049H46.1355V46.4859H45.6935ZM45.6935 48.8909V46.8239H46.1355V48.8779L45.6935 48.8909ZM47.3965 48.9299C47.0585 48.9299 46.7465 48.8259 46.4865 48.6179L46.6685 48.3449C46.7855 48.4359 46.9155 48.4879 47.0325 48.5399C47.1495 48.5919 47.2795 48.6179 47.3965 48.6179C47.5265 48.6179 47.6305 48.5919 47.6955 48.5399C47.7605 48.4879 47.7995 48.4099 47.8125 48.3189C47.8125 48.2409 47.7605 48.1629 47.6825 48.1239C47.6045 48.0719 47.4745 48.0459 47.2925 47.9939C47.1625 47.9679 47.0585 47.9159 46.9675 47.8899C46.8895 47.8639 46.8115 47.8379 46.7465 47.7859C46.6945 47.7469 46.6555 47.6949 46.6295 47.6299C46.6035 47.5779 46.5905 47.5129 46.5905 47.4219C46.5905 47.3179 46.6035 47.2139 46.6425 47.1489C46.7205 46.9799 46.8765 46.8499 47.0715 46.8109C47.1625 46.7849 47.2795 46.7719 47.3835 46.7719C47.5395 46.7719 47.6825 46.7979 47.8255 46.8369C47.9555 46.8889 48.0855 46.9409 48.1765 47.0449L47.9815 47.3049C47.8125 47.1619 47.5915 47.0709 47.3705 47.0709C47.2665 47.0709 47.1625 47.0969 47.0975 47.1359C47.0195 47.1749 46.9805 47.2659 46.9805 47.3569C46.9805 47.3959 46.9935 47.4349 47.0065 47.4609C47.0195 47.4999 47.0455 47.5259 47.0845 47.5389C47.1235 47.5649 47.1625 47.5779 47.2145 47.5909C47.2665 47.6039 47.3445 47.6299 47.4225 47.6429C47.5655 47.6689 47.6825 47.7079 47.7735 47.7339C47.8645 47.7729 47.9555 47.8119 48.0205 47.8639C48.0855 47.9029 48.1245 47.9549 48.1635 48.0329C48.1895 48.0979 48.2025 48.1629 48.2025 48.2539C48.2025 48.4489 48.1375 48.6179 47.9815 48.7219C47.8515 48.8649 47.6435 48.9299 47.3965 48.9299ZM49.5285 48.9299C49.3725 48.9299 49.2165 48.9039 49.0995 48.8519C48.9695 48.7999 48.8525 48.7089 48.7745 48.6179C48.5795 48.4229 48.4755 48.1499 48.4885 47.8639C48.4885 47.7339 48.5145 47.5909 48.5535 47.4479C48.6575 47.1879 48.8525 46.9799 49.1125 46.8759C49.2425 46.8239 49.3855 46.7979 49.5545 46.7979C49.7235 46.7979 49.8535 46.8239 49.9965 46.8759C50.2565 46.9799 50.4515 47.1879 50.5555 47.4479C50.6075 47.5779 50.6205 47.7079 50.6205 47.8639C50.6205 47.9939 50.5945 48.1369 50.5555 48.2669C50.5165 48.3969 50.4385 48.5139 50.3345 48.6179C50.2435 48.7089 50.1265 48.7999 49.9965 48.8519C49.8405 48.8909 49.6845 48.9299 49.5285 48.9299ZM48.9175 47.8639C48.9175 47.9549 48.9305 48.0589 48.9565 48.1369C48.9825 48.2279 49.0215 48.2929 49.0865 48.3579C49.1385 48.4229 49.2035 48.4619 49.2685 48.5009C49.3465 48.5399 49.4245 48.5529 49.5155 48.5529C49.6195 48.5529 49.6845 48.5399 49.7625 48.5009C49.8275 48.4619 49.8925 48.4229 49.9575 48.3579C50.0095 48.2799 50.0485 48.2279 50.0875 48.1369C50.1395 47.9549 50.1395 47.7729 50.0875 47.5909C50.0615 47.5129 50.0225 47.4349 49.9575 47.3829C49.9055 47.3179 49.8405 47.2659 49.7625 47.2269C49.6975 47.1879 49.6195 47.1749 49.5155 47.1749C49.4375 47.1749 49.3595 47.1879 49.2815 47.2269C49.2165 47.2659 49.1515 47.3179 49.0865 47.3829C49.0345 47.4479 48.9825 47.5129 48.9565 47.6039C48.9305 47.6689 48.9175 47.7729 48.9175 47.8639ZM52.1285 47.1879C51.9595 47.1879 51.8165 47.2269 51.6865 47.3179C51.5435 47.3829 51.4655 47.4999 51.4005 47.6299V48.8779H50.9715V46.8239H51.3615V47.2919C51.4265 47.1619 51.5305 47.0319 51.6345 46.9409C51.7515 46.8629 51.8685 46.8109 52.0115 46.8109H52.1155V47.1879H52.1285ZM53.1945 47.8509C53.1945 47.6949 53.2205 47.5649 53.2595 47.4349C53.3245 47.3179 53.3895 47.1879 53.4805 47.0969C53.5715 47.0059 53.6885 46.9149 53.8185 46.8629C53.9485 46.8109 54.0915 46.7849 54.2605 46.7849C54.4815 46.7849 54.6635 46.8239 54.8065 46.9149C54.9625 47.0189 55.0795 47.1359 55.1445 47.2919L54.7285 47.4219C54.6765 47.3439 54.5985 47.2659 54.5205 47.2139C54.4425 47.1619 54.3385 47.1489 54.2475 47.1489C54.1695 47.1489 54.0785 47.1619 54.0005 47.2009C53.9355 47.2399 53.8705 47.2919 53.8055 47.3569C53.7535 47.4219 53.7145 47.4869 53.6755 47.5779C53.6495 47.6559 53.6365 47.7599 53.6365 47.8509C53.6365 47.9549 53.6495 48.0459 53.7015 48.1239C53.7275 48.2019 53.7795 48.2799 53.8315 48.3449C53.8965 48.4099 53.9615 48.4489 54.0265 48.4879C54.0915 48.5269 54.1825 48.5399 54.2605 48.5399C54.3125 48.5399 54.3645 48.5269 54.4295 48.5139C54.4815 48.5009 54.5205 48.4749 54.5725 48.4619C54.6115 48.4359 54.6635 48.4099 54.6895 48.3709C54.7155 48.3449 54.7415 48.3059 54.7545 48.2539L55.1705 48.3839C55.1055 48.5269 54.9885 48.6699 54.8325 48.7609C54.6765 48.8649 54.4815 48.9169 54.2605 48.9169C54.0915 48.9169 53.9615 48.8909 53.8185 48.8259C53.5585 48.7219 53.3505 48.5139 53.2595 48.2539C53.2205 48.1239 53.2075 47.9939 53.1945 47.8509ZM56.4315 48.9299C56.2755 48.9299 56.1195 48.9039 55.9895 48.8519C55.8595 48.7999 55.7425 48.7089 55.6515 48.6179C55.4565 48.4229 55.3525 48.1499 55.3655 47.8639C55.3655 47.7339 55.3915 47.5909 55.4435 47.4479C55.5475 47.1879 55.7425 46.9799 56.0025 46.8759C56.1325 46.8239 56.2755 46.7979 56.4315 46.7979C56.6005 46.7979 56.7305 46.8239 56.8735 46.8759C57.2765 47.0449 57.5235 47.4349 57.4975 47.8639C57.4975 47.9939 57.4715 48.1369 57.4325 48.2669C57.3285 48.5269 57.1335 48.7349 56.8735 48.8389C56.7305 48.8909 56.6005 48.9299 56.4315 48.9299ZM55.8205 47.8639C55.8205 47.9549 55.8335 48.0589 55.8595 48.1369C55.8855 48.2279 55.9245 48.2929 55.9895 48.3579C56.0415 48.4229 56.1065 48.4619 56.1845 48.5009C56.2625 48.5399 56.3405 48.5529 56.4315 48.5529C56.5355 48.5529 56.6005 48.5399 56.6785 48.5009C56.7435 48.4619 56.8085 48.4229 56.8735 48.3579C56.9255 48.2799 56.9645 48.2279 57.0035 48.1369C57.0685 47.9549 57.0685 47.7729 57.0035 47.5909C56.9775 47.5129 56.9385 47.4349 56.8735 47.3829C56.8215 47.3179 56.7565 47.2659 56.6785 47.2269C56.6135 47.1879 56.5355 47.1749 56.4315 47.1749C56.3535 47.1749 56.2625 47.1879 56.1975 47.2269C56.1325 47.2659 56.0675 47.3179 56.0025 47.3829C55.9505 47.4479 55.8985 47.5129 55.8725 47.6039C55.8335 47.6689 55.8205 47.7729 55.8205 47.8639ZM61.0335 48.8909H60.5915V47.7339C60.5915 47.5389 60.5655 47.4089 60.4875 47.3179C60.4355 47.2269 60.3315 47.1749 60.2145 47.1879C60.0845 47.1879 59.9805 47.2269 59.8635 47.3179C59.7725 47.4089 59.6815 47.5259 59.6425 47.6819V48.8909H59.2135V47.7469C59.2135 47.5519 59.1875 47.4089 59.1095 47.3309C59.0445 47.2529 58.9405 47.2009 58.8365 47.2009C58.7065 47.2009 58.6025 47.2399 58.4985 47.3309C58.4075 47.4219 58.3165 47.5389 58.2775 47.6949V48.9169H57.8485V46.8499H58.2385V47.2659C58.3815 46.9799 58.6805 46.8109 59.0055 46.8239C59.1745 46.8239 59.3045 46.8629 59.4215 46.9539C59.5255 47.0579 59.5905 47.1619 59.6035 47.3049C59.7465 47.0059 60.0585 46.8239 60.3835 46.8239C60.5005 46.8239 60.6045 46.8499 60.6825 46.8889C60.7605 46.9279 60.8385 47.0059 60.8775 47.0709C60.9165 47.1489 60.9555 47.2269 60.9685 47.3309C60.9815 47.4219 60.9945 47.5389 60.9945 47.6429V48.8909H61.0335ZM62.7105 48.9299C62.5415 48.9299 62.3985 48.8909 62.2685 48.8129C62.1515 48.7349 62.0475 48.6309 61.9695 48.5139V49.7489H61.5405V46.8499H61.9305V47.2139C62.0085 47.0969 62.1125 47.0059 62.2295 46.9149C62.3465 46.8499 62.4895 46.8109 62.6585 46.8109C62.9315 46.7979 63.1915 46.9149 63.3605 47.1229C63.4385 47.2139 63.5035 47.3309 63.5685 47.4609C63.6205 47.5909 63.6335 47.7209 63.6335 47.8769C63.6335 48.0199 63.6075 48.1629 63.5685 48.2929C63.5165 48.4229 63.4515 48.5399 63.3735 48.6439C63.2955 48.7349 63.1915 48.8259 63.0875 48.8779C62.9575 48.8909 62.8275 48.9299 62.7105 48.9299ZM62.5545 48.5399C62.6585 48.5399 62.7365 48.5269 62.8015 48.4879C63.0225 48.3579 63.1655 48.1109 63.1525 47.8509C63.1525 47.7469 63.1395 47.6689 63.1005 47.5779C63.0745 47.4999 63.0225 47.4219 62.9705 47.3569C62.9185 47.2919 62.8405 47.2399 62.7625 47.2139C62.6845 47.1749 62.5935 47.1619 62.5025 47.1619C62.4505 47.1619 62.3985 47.1749 62.3205 47.1879C62.2685 47.2139 62.2035 47.2399 62.1645 47.2659C62.1125 47.3049 62.0605 47.3439 62.0345 47.3829C61.9955 47.4349 61.9565 47.4869 61.9435 47.5519V48.0849C61.9825 48.1499 62.0085 48.2019 62.0475 48.2669C62.0865 48.3189 62.1255 48.3579 62.1775 48.3969C62.2425 48.4359 62.2945 48.4619 62.3465 48.4879C62.4375 48.5399 62.5025 48.5399 62.5545 48.5399ZM64.5565 48.9299C64.4525 48.9299 64.3615 48.9169 64.2835 48.8779C64.2055 48.8519 64.1275 48.7999 64.0625 48.7479C63.9975 48.6829 63.9455 48.6179 63.9195 48.5399C63.8805 48.4619 63.8675 48.3709 63.8675 48.2799C63.8675 48.1889 63.8935 48.0979 63.9325 48.0199C63.9715 47.9419 64.0365 47.8769 64.1145 47.8119C64.1925 47.7599 64.2835 47.7079 64.3875 47.6819C64.4915 47.6559 64.6085 47.6429 64.7385 47.6429C64.8295 47.6429 64.9335 47.6559 65.0245 47.6689C65.1285 47.6819 65.2065 47.7079 65.2845 47.7339V47.6039C65.2845 47.4479 65.2455 47.3309 65.1545 47.2529C65.0765 47.1749 64.9465 47.1359 64.7775 47.1359C64.6735 47.1359 64.5695 47.1489 64.4525 47.1879C64.3485 47.2269 64.2315 47.2919 64.1275 47.3699L63.9975 47.0969C64.2445 46.9279 64.5305 46.8239 64.8295 46.8239C65.1155 46.8239 65.3365 46.8889 65.4795 47.0449C65.6355 47.1879 65.7135 47.3959 65.7135 47.6689V48.4099C65.7135 48.5009 65.7525 48.5399 65.8175 48.5399V48.9169C65.7785 48.9299 65.7395 48.9299 65.7135 48.9299H65.6355C65.5575 48.9299 65.4925 48.9039 65.4405 48.8519C65.4015 48.8129 65.3755 48.7479 65.3625 48.6959L65.3495 48.5659C65.2455 48.6829 65.1415 48.7739 64.9985 48.8389C64.8555 48.8909 64.7125 48.9299 64.5565 48.9299ZM64.6735 48.6049C64.7905 48.6049 64.8815 48.5919 64.9725 48.5529C65.0765 48.5139 65.1415 48.4619 65.1935 48.3969C65.2455 48.3579 65.2715 48.2929 65.2715 48.2409V47.9679C65.1935 47.9289 65.1155 47.9159 65.0375 47.8899C64.9595 47.8769 64.8815 47.8639 64.7905 47.8639C64.6345 47.8639 64.5045 47.8899 64.4005 47.9549C64.3095 48.0199 64.2575 48.1109 64.2575 48.2149C64.2575 48.3189 64.2965 48.4099 64.3615 48.4749C64.4655 48.5789 64.5565 48.6049 64.6735 48.6049ZM68.0925 48.8909H67.6505V47.7339C67.6505 47.5389 67.6245 47.3959 67.5595 47.3179C67.4945 47.2269 67.3905 47.1879 67.2865 47.1879C67.2215 47.1879 67.1565 47.2009 67.0915 47.2269C66.9615 47.2789 66.8445 47.3569 66.7665 47.4739C66.7275 47.5389 66.6885 47.6039 66.6755 47.6689V48.9039H66.2465V46.8369H66.6365V47.2399C66.7145 47.1099 66.8315 46.9929 66.9745 46.9149C67.1175 46.8369 67.2865 46.7979 67.4685 46.7979C67.5855 46.7979 67.6765 46.8239 67.7675 46.8629C67.8455 46.9019 67.8975 46.9669 67.9625 47.0449C68.0015 47.1229 68.0405 47.2139 68.0665 47.3179C68.0795 47.4219 68.0925 47.5259 68.0925 47.6299V48.8909ZM68.5995 49.3719C68.6385 49.3849 68.6775 49.3849 68.7165 49.3849C68.7555 49.3849 68.7945 49.3979 68.8205 49.3979C68.8465 49.3979 68.8855 49.3849 68.8985 49.3719C68.9245 49.3589 68.9505 49.3329 68.9765 49.2939C69.0025 49.2549 69.0415 49.2159 69.0545 49.1509L69.1455 48.8909L68.3005 46.8239H68.7425L69.3925 48.5009L69.9515 46.8239H70.3545L69.4315 49.3589C69.3405 49.6189 69.0935 49.7879 68.8205 49.7879H68.7165C68.6775 49.7879 68.6515 49.7749 68.6125 49.7619V49.3719H68.5995Z" fill="white"/>
</svg>
