<svg width="100%" height="100%" viewBox="0 0 81 81" fill="none" xmlns="http://www.w3.org/2000/svg">
<mask id="mask0_860_4884" style="mask-type:alpha" maskUnits="userSpaceOnUse" x="0" y="0" width="81" height="81">
<rect width="81" height="81" rx="11" fill="#E64C38"/>
</mask>
<g mask="url(#mask0_860_4884)">
<rect width="81" height="81" rx="11" fill="#E64C38"/>
</g>
<path d="M57.1267 39.3801C56.9006 39.8837 56.7876 40.5002 56.6848 41.0551V41.1682C55.9552 43.0076 54.681 44.847 53.5609 44.847C53.006 44.847 52.7799 44.1174 52.6155 42.8945L52.2764 40.6646L52.2147 39.8837L51.0433 39.7192L49.8718 42.3396L49.9848 40.3358L48.762 40.1714C48.4845 41.2915 48.0324 42.3499 47.5391 43.2439C46.8815 44.5798 45.5147 45.4225 44.0247 45.4225H43.9733C42.8018 45.4225 41.7434 45.0833 40.7364 44.5901V44.0352C43.2643 42.8021 45.5045 41.0551 47.3233 38.8972V38.8458L46.3779 38.1162C44.929 39.9967 43.0793 41.5176 40.9624 42.576L40.8494 42.6274C40.9624 39.226 41.1885 35.7116 41.3529 34.1496L40.1301 34.0366C39.9657 35.7116 39.7396 39.5651 39.5752 43.1823L38.7428 43.4083L38.4037 44.4668L39.5238 45.2478L39.4724 49.1527V49.2657H40.6953V45.9157C41.7023 46.3576 42.8121 46.6453 43.9836 46.6453H44.035C45.9361 46.6453 47.6111 45.5869 48.4948 44.0249L48.2173 46.2034L49.3888 46.5426L51.2899 42.2472L51.4029 43.0795C51.516 44.0249 51.8448 46.0904 53.6328 46.0904C54.7529 46.0904 55.7497 45.258 56.5307 44.0866C56.6437 45.032 56.8698 45.8746 57.3117 46.4809C57.7535 47.1488 58.4831 47.601 59.3772 47.601C60.2815 47.6421 61.1138 47.1386 61.494 46.3165C62.1106 45.032 61.8331 43.0795 60.7644 41.6306C60.5897 41.4353 60.4048 41.2401 60.2095 41.0757H63.1074V42.9151C63.056 46.2651 63.3848 47.9401 64.2275 48.8341C64.618 49.2246 65.1215 49.4507 65.6764 49.4507H65.7278C68.0707 49.4507 69.7971 46.1007 70.1876 44.7648L68.9647 44.4257C68.6256 45.7102 67.1253 48.2176 65.7278 48.2176C65.4503 48.2176 65.2859 48.1045 65.1729 47.9915C64.3919 47.2105 64.2788 44.7031 64.2788 42.8534V40.9524C66.7143 40.7982 69.1189 40.233 71.3693 39.2774L70.8658 38.1573C69.1908 38.9383 66.8479 39.4932 64.3919 39.7192C64.4433 38.1573 64.618 36.9344 64.8337 35.0333L64.9468 33.5228L63.7239 33.3583L63.5595 34.8689C63.3951 36.2048 63.2821 37.8798 63.169 39.6165V39.7809C63.1485 39.7706 59.6341 39.9967 57.1267 39.3801ZM60.3637 45.741C60.1376 46.1829 59.8088 46.3576 59.4183 46.3576C58.9147 46.3576 58.5242 46.1315 58.2982 45.8027C57.6816 44.8573 57.6302 43.0179 57.8563 41.5073L57.9693 40.9524C58.6373 41.2915 59.3669 41.8464 59.7574 42.4013C60.6411 43.5728 60.7541 45.0217 60.3637 45.741ZM31.231 47.416C30.337 47.416 30.0081 46.6864 29.8951 45.9054C32.238 44.847 33.2451 42.4424 33.2451 41.2709C33.2451 40.2639 32.5772 39.8734 31.9606 39.8734C30.563 39.8734 28.7236 42.2677 28.6106 45.0628L27.4391 45.1758C26.8842 45.1758 26.4937 45.0628 26.2676 44.7853C25.4867 43.953 25.538 42.1033 25.538 40.716V40.0481L24.418 39.6576L21.3454 44.1174C21.294 41.7745 21.4584 38.9794 21.7359 36.6981C22.2908 34.4682 22.7943 32.2896 22.4655 31.8478C22.3525 31.6833 22.188 31.5703 21.9106 31.5703L21.4687 31.7964C20.8933 33.2967 20.5747 34.8792 20.5233 36.4823C20.0198 38.3833 19.5163 39.8837 18.9614 41.3942L19.0744 41.1168C17.7899 44.1277 15.4469 47.2002 14.5015 47.3646C14.3371 47.0872 14.1624 46.0801 14.3371 43.2337V42.9562L14.5632 40.7263L17.9132 40.2844L17.6871 39.0616L14.7276 39.4521L14.779 38.8972C14.9434 37.7771 15.1181 36.4412 15.2209 34.9306L13.998 34.8176C13.885 36.3281 13.7206 37.6024 13.5561 38.7225L13.5048 39.5548L9.71289 39.9453L9.82593 41.2298L13.3403 40.8907L13.1759 42.8945V43.2337C12.9499 45.8541 13.0115 47.6421 13.6795 48.31C13.8439 48.5361 14.1213 48.6491 14.4091 48.6491C15.3031 48.6491 16.3615 47.8168 17.646 46.1418C18.5914 44.8573 19.4854 43.4083 20.1534 41.8464V41.7333C20.1534 43.4597 20.1534 45.0833 20.2664 46.0904L21.3865 46.3679L23.0307 43.9016L24.3152 42.1136C24.3152 43.4495 24.5413 44.847 25.3736 45.6896C25.9183 46.2445 26.6684 46.5426 27.4391 46.522L28.775 46.3576H28.662C28.9394 47.8682 29.8334 48.7005 31.1693 48.7005C33.5123 48.7005 34.7968 46.3576 35.1873 44.3435L33.9644 44.1174C33.9644 44.2304 33.2965 47.4674 31.1796 47.4674L31.231 47.416ZM31.9606 41.1682V41.2812C31.9606 41.8361 31.4057 43.5728 29.8951 44.5182C30.1726 42.5657 31.4571 41.1682 31.9606 41.1682Z" fill="#F9F9F9"/>
</svg>
