<svg width="100%" height="100%" viewBox="0 0 81 81" fill="none" xmlns="http://www.w3.org/2000/svg">
<mask id="mask0_860_4925" style="mask-type:alpha" maskUnits="userSpaceOnUse" x="0" y="0" width="81" height="81">
<rect width="81" height="81" rx="11" fill="#C4C4C4"/>
</mask>
<g mask="url(#mask0_860_4925)">
<rect width="81" height="81" rx="11" fill="#069ED9"/>
<path d="M41.0002 51.5272C44.3167 51.5299 47.5595 50.5489 50.3183 48.7083C53.0772 46.8677 55.2281 44.2502 56.4991 41.1869C57.7701 38.1236 58.1041 34.7522 57.4587 31.4991C56.8133 28.246 55.2176 25.2574 52.8734 22.9114C50.5292 20.5653 47.5419 18.9672 44.2894 18.3192C41.0368 17.6712 37.6651 18.0025 34.6008 19.271C31.5365 20.5396 28.9173 22.6884 27.0745 25.4458C25.2317 28.2032 24.248 31.4452 24.248 34.7617C24.248 39.2058 26.0126 43.4682 29.1538 46.612C32.2951 49.7557 36.556 51.5237 41.0002 51.5272V51.5272ZM42.8198 40.4252C42.8198 42.8759 42.1685 44.4974 40.8995 46.4445C39.6775 44.5746 38.9288 43.0303 38.9288 40.4252V33.768C39.8856 32.5057 41.027 31.982 42.8198 31.8712V40.4252ZM32.7148 26.7213H49.393V30.2362H32.7282L32.7148 26.7213Z" fill="#F9F9F9"/>
<path d="M66.1586 59.8026L68.1024 57.8017H66.3332L64.4801 59.7489V55.6162H63.0029V63.1631H64.4801V61.3871L65.1179 60.756L66.6186 63.1631H68.4113L66.1586 59.8026Z" fill="black"/>
<path d="M23.3851 57.6403C23.1056 57.6367 22.8288 57.6951 22.5746 57.8112C22.3204 57.9273 22.095 58.0982 21.9146 58.3117V55.626H20.4375V63.1728H21.9146V60.044C21.9209 59.9014 21.9559 59.7616 22.0177 59.633C22.0794 59.5043 22.1665 59.3895 22.2738 59.2954C22.381 59.2013 22.5062 59.1299 22.6418 59.0854C22.7774 59.041 22.9206 59.0245 23.0628 59.0368C23.8551 59.0368 24.0699 59.6378 24.0699 60.3193V63.1762H25.5571V59.7351C25.5571 58.4359 24.6138 57.6403 23.3851 57.6403Z" fill="black"/>
<path d="M29.9621 60.7859C29.9695 60.9379 29.9447 61.0897 29.8894 61.2314C29.8341 61.3732 29.7495 61.5016 29.6411 61.6084C29.5327 61.7152 29.403 61.7979 29.2605 61.8511C29.1179 61.9043 28.9658 61.9269 28.8139 61.9172C28.0217 61.9172 27.8068 61.3197 27.8068 60.6382V57.798H26.333V61.1921C26.333 62.498 27.2596 63.287 28.4849 63.287C28.7648 63.2901 29.0419 63.2315 29.2967 63.1155C29.5514 62.9994 29.7774 62.8288 29.9587 62.6155V63.1527H31.4359V57.7812H29.9587L29.9621 60.7859Z" fill="black"/>
<path d="M54.4493 57.6104C53.6609 57.625 52.8969 57.8855 52.2638 58.3556L52.811 59.3628C53.2739 59.0672 53.8066 58.8993 54.3553 58.876C54.8119 58.876 55.3994 59.0304 55.4632 59.6515C54.879 59.7489 53.9021 59.8126 53.3448 59.9637C52.967 60.0363 52.6263 60.2382 52.3813 60.5347C52.1362 60.8312 52.0021 61.2039 52.002 61.5886C52.002 62.6326 52.895 63.294 53.9256 63.294C54.2367 63.3123 54.5476 63.2549 54.8317 63.1269C55.1159 62.9989 55.3648 62.8039 55.5572 62.5588V63.1564H56.9705V59.7992C56.9806 58.4362 55.9902 57.6104 54.4493 57.6104ZM55.5068 60.8131C55.5068 61.7967 54.8857 62.1559 54.2244 62.1559C54.131 62.1685 54.0359 62.1602 53.9461 62.1317C53.8562 62.1031 53.7738 62.055 53.7048 61.9908C53.6358 61.9266 53.5818 61.8479 53.5469 61.7603C53.5119 61.6728 53.4968 61.5786 53.5026 61.4845C53.5091 61.3269 53.5708 61.1766 53.677 61.06C53.7832 60.9433 53.9271 60.8678 54.0834 60.8466C54.4426 60.7728 55.1275 60.6855 55.5068 60.6318V60.8131Z" fill="black"/>
<path d="M38.9082 57.641C38.5567 57.6244 38.2068 57.698 37.8919 57.8549C37.5769 58.0118 37.3073 58.2468 37.1088 58.5373C36.9068 58.2463 36.6341 58.0114 36.3164 57.8546C35.9988 57.6979 35.6465 57.6243 35.2926 57.641C35.0116 57.6371 34.7333 57.6953 34.4774 57.8113C34.2215 57.9274 33.9943 58.0985 33.8121 58.3124V57.8055H32.335V63.1769H33.8121V60.0481C33.8184 59.9058 33.8533 59.7663 33.9148 59.6379C33.9764 59.5095 34.0632 59.3948 34.1701 59.3007C34.277 59.2067 34.4018 59.1352 34.537 59.0906C34.6722 59.0459 34.815 59.029 34.9569 59.0409C35.7223 59.0409 35.964 59.6016 35.964 60.2528V63.1803H37.4412V60.1588C37.4315 60.007 37.4546 59.8549 37.509 59.7129C37.5634 59.5708 37.6479 59.4422 37.7565 59.3358C37.8652 59.2293 37.9956 59.1476 38.1387 59.0961C38.2818 59.0447 38.4344 59.0247 38.586 59.0375C39.3514 59.0375 39.573 59.5713 39.5931 60.2461V63.1668H41.0736V59.7358C41.0635 58.4366 40.137 57.641 38.9082 57.641Z" fill="black"/>
<path d="M49.9675 61.0279V59.0875H51.5722V57.795H49.9675V56.207H48.4903V57.795H47.7148V59.0875H48.4971V61.5382C48.4971 62.6125 49.1349 63.2906 50.1991 63.2906C50.72 63.2912 51.2318 63.1546 51.683 62.8945L51.2163 61.743C50.1857 62.129 49.9675 61.7933 49.9675 61.0279Z" fill="black"/>
<path d="M44.9478 57.6372C44.6494 57.628 44.3525 57.6832 44.0773 57.7991C43.8021 57.9149 43.5551 58.0887 43.3532 58.3086V55.6162H41.9062V63.1631H43.3498V62.6024C43.549 62.8242 43.7936 63.0005 44.0671 63.1193C44.3405 63.2381 44.6363 63.2965 44.9344 63.2906C46.4619 63.2906 47.5563 62.0754 47.5563 60.4606C47.5563 58.8458 46.4048 57.6372 44.9478 57.6372ZM44.6927 61.9142C44.5046 61.9181 44.3179 61.8825 44.1445 61.8097C43.9711 61.7369 43.8149 61.6284 43.6861 61.4914C43.5573 61.3543 43.4587 61.1917 43.3967 61.0142C43.3348 60.8366 43.3108 60.648 43.3263 60.4606C43.3132 60.2726 43.3388 60.084 43.4017 59.9064C43.4645 59.7288 43.5633 59.566 43.6918 59.4282C43.8203 59.2904 43.9757 59.1806 44.1485 59.1054C44.3213 59.0303 44.5076 58.9915 44.696 58.9915C44.8844 58.9915 45.0708 59.0303 45.2436 59.1054C45.4164 59.1806 45.5718 59.2904 45.7003 59.4282C45.8288 59.566 45.9275 59.7288 45.9904 59.9064C46.0533 60.084 46.0789 60.2726 46.0657 60.4606C46.0814 60.6486 46.0572 60.8378 45.9948 61.0158C45.9325 61.1939 45.8333 61.3568 45.7037 61.4939C45.5742 61.6311 45.4172 61.7394 45.243 61.8118C45.0688 61.8842 44.8813 61.9191 44.6927 61.9142V61.9142Z" fill="black"/>
<path d="M15.9893 58.3759V60.9643C15.9846 61.8068 16.2663 62.626 16.7883 63.2874C17.2969 62.6208 17.5665 61.8026 17.5537 60.9643V57.6373C17.2534 57.6297 16.9555 57.6926 16.6838 57.8208C16.4121 57.9491 16.1743 58.1392 15.9893 58.3759V58.3759Z" fill="black"/>
<path d="M19.9809 55.6162H13.5889V57.0531H19.9809V55.6162Z" fill="black"/>
<path d="M60.3405 61.9142C59.5045 61.9142 58.9976 61.3032 58.9976 60.4774C58.9976 59.6515 59.5045 59.0069 60.3405 59.0069C60.558 59.0056 60.773 59.0538 60.969 59.1481C61.1651 59.2423 61.337 59.3801 61.4718 59.5508L62.5327 58.6611C62.2718 58.3255 61.9332 58.0584 61.5459 57.8829C61.1587 57.7074 60.7346 57.6289 60.3103 57.654C59.9395 57.6496 59.5715 57.7183 59.2272 57.8561C58.883 57.9939 58.5693 58.1981 58.304 58.4572C58.0387 58.7163 57.8271 59.025 57.6811 59.3659C57.5351 59.7067 57.4577 60.073 57.4533 60.4438C57.4489 60.8145 57.5176 61.1826 57.6554 61.5268C57.7932 61.871 57.9975 62.1847 58.2565 62.45C58.5156 62.7153 58.8244 62.927 59.1652 63.0729C59.5061 63.2189 59.8723 63.2963 60.2431 63.3007C60.6788 63.3356 61.1163 63.2618 61.5165 63.0861C61.9167 62.9103 62.267 62.638 62.536 62.2936L61.4953 61.3939C61.3527 61.5599 61.1753 61.6926 60.9758 61.7825C60.7762 61.8724 60.5593 61.9174 60.3405 61.9142V61.9142Z" fill="black"/>
</g>
</svg>
