<svg width="100%" height="100%" viewBox="0 0 81 81" fill="none" xmlns="http://www.w3.org/2000/svg">
<mask id="mask0_860_5020" style="mask-type:alpha" maskUnits="userSpaceOnUse" x="0" y="0" width="81" height="81">
<rect width="81" height="81" rx="11" fill="#C4C4C4"/>
</mask>
<g mask="url(#mask0_860_5020)">
<rect width="81" height="81" rx="11" fill="#34E0A1"/>
<path d="M40.2519 73.9999C58.8904 73.9999 73.9999 58.8904 73.9999 40.2519C73.9999 21.6134 58.8904 6.50391 40.2519 6.50391C21.6134 6.50391 6.50391 21.6134 6.50391 40.2519C6.50391 58.8904 21.6134 73.9999 40.2519 73.9999Z" fill="#34E0A1"/>
<path d="M61.0978 33.6681L65.1701 29.2375H56.1393C51.6182 26.1492 46.1581 24.3506 40.2532 24.3506C34.3557 24.3506 28.9108 26.1531 24.3972 29.2375H15.3438L19.4161 33.6681C16.92 35.9456 15.3551 39.2262 15.3551 42.8687C15.3551 49.7427 20.9283 55.3158 27.8023 55.3158C31.0678 55.3158 34.0428 54.0564 36.2638 51.9976L40.2533 56.3415L44.2427 52.0014C46.4637 54.0602 49.4349 55.3158 52.7004 55.3158C59.5744 55.3158 65.1551 49.7427 65.1551 42.8687C65.1588 39.2224 63.594 35.9419 61.0978 33.6681ZM27.806 51.2925C23.1529 51.2925 19.3823 47.5218 19.3823 42.8687C19.3823 38.2156 23.153 34.4449 27.806 34.4449C32.4591 34.4449 36.2298 38.2156 36.2298 42.8687C36.2298 47.5218 32.4591 51.2925 27.806 51.2925ZM40.2569 42.6236C40.2569 37.0806 36.2261 32.322 30.9056 30.2895C33.7826 29.0866 36.9387 28.4192 40.2532 28.4192C43.5676 28.4192 46.7274 29.0866 49.6046 30.2895C44.2879 32.3257 40.2569 37.0807 40.2569 42.6236ZM52.7042 51.2925C48.051 51.2925 44.2803 47.5218 44.2803 42.8687C44.2803 38.2156 48.051 34.4449 52.7042 34.4449C57.3573 34.4449 61.1279 38.2156 61.1279 42.8687C61.1279 47.5218 57.3572 51.2925 52.7042 51.2925ZM52.7042 38.4493C50.2645 38.4493 48.2886 40.4252 48.2886 42.8649C48.2886 45.3045 50.2645 47.2804 52.7042 47.2804C55.1438 47.2804 57.1197 45.3045 57.1197 42.8649C57.1196 40.429 55.1438 38.4493 52.7042 38.4493ZM32.2215 42.8687C32.2215 45.3083 30.2456 47.2842 27.806 47.2842C25.3664 47.2842 23.3905 45.3083 23.3905 42.8687C23.3905 40.429 25.3664 38.4531 27.806 38.4531C30.2456 38.4493 32.2215 40.429 32.2215 42.8687Z" fill="black"/>
</g>
</svg>
