<svg width="100%" height="100%" viewBox="0 0 81 81" fill="none" xmlns="http://www.w3.org/2000/svg">
<mask id="mask0_860_4733" style="mask-type:alpha" maskUnits="userSpaceOnUse" x="0" y="0" width="81" height="81">
<rect width="81" height="81" rx="11" fill="#C4C4C4"/>
</mask>
<g mask="url(#mask0_860_4733)">
<rect width="81" height="81" rx="11" fill="black"/>
</g>
<g clip-path="url(#clip0_860_4733)">
<path d="M56.7118 35.7019C57.0787 35.7026 57.4376 35.5944 57.743 35.3911C58.0484 35.1877 58.2866 34.8983 58.4274 34.5595C58.5683 34.2207 58.6055 33.8478 58.5344 33.4878C58.4632 33.1279 58.2868 32.7972 58.0276 32.5375C57.7684 32.2778 57.438 32.1009 57.0782 32.029C56.7184 31.9572 56.3454 31.9937 56.0063 32.134C55.6673 32.2743 55.3775 32.5119 55.1735 32.817C54.9696 33.122 54.8608 33.4806 54.8608 33.8476C54.8608 34.3388 55.0557 34.8099 55.4027 35.1576C55.7498 35.5053 56.2206 35.7011 56.7118 35.7019ZM58.3912 45.6504V36.927H53.1747V40.0502H55.268V48.7735H60.4812V45.6504H58.3912ZM49.476 45.6504V32.8547H44.2628V35.9779H46.3528V45.6504H44.2628V48.7735H51.566V45.6504H49.476ZM27.2771 36.8866H26.3314C25.6229 36.8497 24.917 36.9975 24.2828 37.3155C23.6486 37.6335 23.1078 38.1108 22.7135 38.7006L22.0774 36.927H19.0115V40.0502H20.462V48.7735H23.5852V42.6753C23.5852 41.9469 23.8745 41.2484 24.3895 40.7334C24.9046 40.2183 25.6031 39.929 26.3314 39.929H27.2771V36.8866ZM41.7421 43.0623V36.927H38.6357V43.1734C38.6357 43.9133 38.3418 44.623 37.8185 45.1462C37.2953 45.6694 36.5857 45.9634 35.8457 45.9634C35.1058 45.9634 34.3961 45.6694 33.8729 45.1462C33.3497 44.623 33.0557 43.9133 33.0557 43.1734V36.927H29.9157V43.0623C29.9157 44.6306 30.5387 46.1346 31.6476 47.2435C32.7566 48.3525 34.2606 48.9755 35.8289 48.9755C37.3972 48.9755 38.9012 48.3525 40.0101 47.2435C41.1191 46.1346 41.7421 44.6306 41.7421 43.0623V43.0623ZM16.2888 40.0502V36.927H12.2132V33.1038H9.09334V36.927H7V40.0502H9.09334V43.0522C9.0929 43.8286 9.24544 44.5974 9.54223 45.3148C9.83903 46.0322 10.2743 46.6841 10.8231 47.2332C11.3719 47.7824 12.0236 48.218 12.7408 48.5152C13.458 48.8124 14.2268 48.9654 15.0032 48.9654C15.4354 48.9661 15.8665 48.9198 16.2888 48.8274V45.7412C15.9458 45.8661 15.5836 45.9299 15.2186 45.9297C14.436 45.9432 13.68 45.6457 13.1165 45.1024C12.5531 44.5592 12.2282 43.8146 12.2132 43.032V40.0502H16.2888ZM70.8402 36.927V38.1049C70.033 37.2674 68.9271 36.7834 67.7641 36.7587H67.5218C64.4356 36.7587 61.9351 39.4915 61.9351 42.8671C61.9351 46.2427 64.4356 48.9889 67.5218 48.9755H67.7641C68.9271 48.9508 70.033 48.4668 70.8402 47.6293V48.8072H73.9735V36.927H70.8402ZM67.8752 45.9533C67.067 45.9373 66.2983 45.6012 65.7379 45.0187C65.1775 44.4362 64.8713 43.6551 64.8866 42.8469C64.8732 42.4476 64.9402 42.0496 65.0838 41.6767C65.2273 41.3038 65.4445 40.9636 65.7222 40.6764C65.9999 40.3892 66.3327 40.1607 66.7005 40.0047C67.0684 39.8487 67.4638 39.7683 67.8634 39.7683C68.263 39.7683 68.6584 39.8487 69.0263 40.0047C69.3941 40.1607 69.7268 40.3892 70.0046 40.6764C70.2823 40.9636 70.4995 41.3038 70.643 41.6767C70.7866 42.0496 70.8536 42.4476 70.8402 42.8469C70.8505 43.2458 70.7818 43.6428 70.6382 44.0151C70.4946 44.3874 70.2788 44.7277 70.0033 45.0163C69.7278 45.305 69.3979 45.5363 69.0327 45.6971C68.6675 45.8579 68.2741 45.945 67.8752 45.9533V45.9533Z" fill="#F9F9F9"/>
</g>
<defs>
<clipPath id="clip0_860_4733">
<rect width="66.96" height="16.9756" fill="white" transform="translate(7 32)"/>
</clipPath>
</defs>
</svg>
