<svg width="100%" height="100%" viewBox="0 0 39 39" fill="none" xmlns="http://www.w3.org/2000/svg">
<g filter="url(#filter0_d_507_24224)">
<rect x="4" y="4" width="29" height="29" rx="5.22951" fill="#1D9BF0"/>
<g clip-path="url(#clip0_507_24224)">
<path d="M24.7791 15.8427C24.7886 15.9748 24.7886 16.107 24.7886 16.2391C24.7886 20.2684 21.7217 24.9111 16.1165 24.9111C14.3896 24.9111 12.7854 24.411 11.436 23.5429C11.6814 23.5711 11.9173 23.5806 12.1721 23.5806C13.5969 23.5806 14.9086 23.0993 15.9561 22.2784C14.6161 22.2501 13.4932 21.3725 13.1063 20.1646C13.295 20.1929 13.4837 20.2118 13.6819 20.2118C13.9556 20.2118 14.2292 20.174 14.484 20.108C13.0874 19.8249 12.0399 18.5982 12.0399 17.1166V17.0789C12.4457 17.3054 12.9176 17.4469 13.4176 17.4658C12.5967 16.9185 12.0588 15.9843 12.0588 14.9274C12.0588 14.3612 12.2098 13.8422 12.474 13.3893C13.9744 15.2388 16.2297 16.4466 18.7587 16.5788C18.7115 16.3523 18.6832 16.1164 18.6832 15.8805C18.6832 14.2008 20.042 12.8325 21.7311 12.8325C22.6087 12.8325 23.4014 13.2005 23.9581 13.795C24.647 13.6629 25.3075 13.4081 25.8926 13.059C25.6661 13.7667 25.1848 14.3612 24.5526 14.7387C25.166 14.6726 25.7605 14.5027 26.3078 14.2669C25.8926 14.8708 25.3736 15.4086 24.7791 15.8427Z" fill="white"/>
</g>
</g>
<defs>
<filter id="filter0_d_507_24224" x="0.196721" y="0.196721" width="38.5082" height="38.5082" filterUnits="userSpaceOnUse" color-interpolation-filters="sRGB">
<feFlood flood-opacity="0" result="BackgroundImageFix"/>
<feColorMatrix in="SourceAlpha" type="matrix" values="0 0 0 0 0 0 0 0 0 0 0 0 0 0 0 0 0 0 127 0" result="hardAlpha"/>
<feOffset dx="0.95082" dy="0.95082"/>
<feGaussianBlur stdDeviation="2.37705"/>
<feComposite in2="hardAlpha" operator="out"/>
<feColorMatrix type="matrix" values="0 0 0 0 0 0 0 0 0 0 0 0 0 0 0 0 0 0 0.14 0"/>
<feBlend mode="normal" in2="BackgroundImageFix" result="effect1_dropShadow_507_24224"/>
<feBlend mode="normal" in="SourceGraphic" in2="effect1_dropShadow_507_24224" result="shape"/>
</filter>
<clipPath id="clip0_507_24224">
<rect width="14.8718" height="14.8718" fill="white" transform="translate(11.436 11.4355)"/>
</clipPath>
</defs>
</svg>
