<svg width="100%" height="100%" viewBox="0 0 81 81" fill="none" xmlns="http://www.w3.org/2000/svg">
<rect width="81" height="81" rx="11" fill="#245ABC"/>
<g clip-path="url(#clip0_1278_6220)">
<path d="M61.3995 37.6885V37.7149C64.8007 38.0009 65.7995 40.4165 65.7511 41.8201C65.6719 45.8857 62.5215 49.1593 57.4395 49.5597V49.5817C63.0231 49.2473 66.2923 46.3609 66.3627 42.2249C66.3539 40.7025 65.2451 37.9129 61.3995 37.6885Z" fill="white"/>
<path d="M57.4395 49.5117C59.5131 49.3727 61.4598 48.4632 62.8968 46.9618C64.3339 45.4604 65.1574 43.4758 65.2055 41.3981C65.2055 40.1133 64.3255 38.0013 61.3687 37.7637V37.7857C63.8151 38.0453 64.6775 39.8273 64.6599 40.9933C64.5895 44.9137 61.5491 49.0673 57.4659 49.4853L57.4395 49.5117Z" fill="white"/>
<path d="M57.4746 49.4368C61.087 49.0628 63.9954 44.4164 64.0746 40.5664C64.0746 39.5236 63.4102 38.0672 61.3466 37.834V37.8604C62.9702 38.1068 63.5466 39.2376 63.5466 40.166C63.4806 43.9368 60.647 48.9968 57.5362 49.406L57.4746 49.4368Z" fill="white"/>
<path d="M57.5238 49.336V49.3668C60.1638 48.984 62.8874 43.4356 62.9534 39.7396C62.9716 39.2814 62.8103 38.8342 62.5037 38.4932C62.1972 38.1522 61.7697 37.9442 61.3122 37.9136V37.94C61.6346 37.9942 61.9244 38.1689 62.1229 38.4286C62.3214 38.6884 62.4138 39.0139 62.3814 39.3392C62.2802 42.9516 59.6402 48.9444 57.5238 49.336ZM55.865 47.9016C55.9266 44.4256 58.6678 38.3184 60.705 37.9048V37.874C58.153 38.2524 55.3326 43.8976 55.2666 47.4792C55.2493 47.7099 55.2784 47.9418 55.3523 48.161C55.4262 48.3802 55.5434 48.5824 55.6968 48.7555C55.8503 48.9287 56.0369 49.0693 56.2456 49.169C56.4544 49.2687 56.6811 49.3255 56.9122 49.336V49.3096C56.7505 49.287 56.5949 49.2325 56.4544 49.1493C56.314 49.066 56.1914 48.9557 56.094 48.8247C55.9966 48.6937 55.9261 48.5446 55.8868 48.3862C55.8475 48.2277 55.8401 48.063 55.865 47.9016Z" fill="white"/>
<path d="M54.7429 47.074C54.8089 43.4 57.7613 38.2432 60.7621 37.834V37.8076C57.2421 38.1816 54.2369 42.8984 54.1621 46.6516C54.1621 47.6988 54.8485 49.2476 56.8901 49.4148V49.3884C55.2973 49.1816 54.7253 48.0024 54.7429 47.074Z" fill="white"/>
<path d="M53.6199 46.2469C53.6859 42.3969 56.8231 38.1729 60.7963 37.7549V37.7285C58.7397 37.9014 56.8169 38.8188 55.3887 40.3086C53.9605 41.7983 53.125 43.7581 53.0391 45.8201C53.0391 47.1049 53.9191 49.2873 56.8803 49.4809V49.4545C54.3283 49.2257 53.6023 47.3997 53.6199 46.2469Z" fill="white"/>
<path d="M52.4976 45.4198C52.568 41.3762 56.0528 38.0674 60.8312 37.6846V37.6582C55.4808 37.9882 51.9784 40.8746 51.908 44.993C51.8772 46.5154 52.9904 49.3314 56.8316 49.5514C53.4788 49.2874 52.4756 46.8234 52.4976 45.4198ZM49.7784 37.7462C47.9348 37.4954 45.7084 38.5778 44.4544 40.4786L44.4764 40.5094C45.6644 38.8022 47.6708 37.7858 49.3164 38.0146C50.4252 38.1642 51.1864 39.0046 51.0324 40.6546C50.6408 44.8566 47.0988 49.5778 41.4316 49.5646V49.5954C43.9596 49.6926 46.4299 48.8239 48.3405 47.1658C50.2512 45.5076 51.4591 43.1843 51.7188 40.6678C51.8728 38.8462 51.028 37.9178 49.7784 37.7462Z" fill="white"/>
<path d="M50.37 40.6371C50.5064 39.1895 49.8596 38.4371 48.8432 38.3007C47.378 38.1027 45.596 38.9959 44.518 40.5667L44.54 40.5931C45.53 39.2379 47.114 38.3931 48.3856 38.5691C49.2656 38.6879 49.8464 39.3479 49.7056 40.6239C49.3668 44.2407 45.9172 49.2127 41.4512 49.4899C46.4408 49.4855 50.0004 44.5795 50.37 40.6371Z" fill="white"/>
<path d="M41.5117 49.4018V49.4282C45.6697 48.931 48.7497 43.8798 49.0797 40.6062C49.1765 39.5326 48.6837 38.9606 47.9489 38.8462C46.8401 38.6922 45.4585 39.4402 44.6049 40.637V40.6634C45.4189 39.6118 46.5541 38.987 47.4517 39.1102C48.0853 39.1982 48.4725 39.6778 48.3889 40.5534C48.1117 43.5366 45.2825 48.6142 41.5117 49.4018Z" fill="white"/>
<path d="M41.5601 49.3008V49.3404C44.6401 48.5132 47.4957 43.1804 47.7201 40.5404C47.7817 39.8672 47.4825 39.4712 46.9897 39.4052C46.2549 39.304 45.3221 39.8452 44.6401 40.7252V40.7516C45.2077 40.074 45.9601 39.5944 46.5101 39.6692C46.8665 39.7176 47.0997 40.03 47.0513 40.5272C46.8797 42.8328 44.2397 48.1568 41.5601 49.3008ZM41.0761 46.3044C40.7487 47.0224 40.515 47.7796 40.3809 48.5572C40.3855 48.7041 40.4285 48.8473 40.5057 48.9723C40.5829 49.0974 40.6916 49.2 40.8209 49.27C40.8633 49.2914 40.9074 49.309 40.9529 49.3228V49.2832C40.8904 49.2227 40.844 49.1475 40.8179 49.0645C40.7918 48.9816 40.7868 48.8934 40.8033 48.808C40.9851 48.0188 41.2522 47.2516 41.5997 46.52L47.3197 32L46.5145 32.1584C46.5585 32.3432 45.0141 36.1404 44.9525 36.3296L41.0761 46.3044Z" fill="white"/>
<path d="M40.0242 45.8508C39.7335 46.5475 39.5238 47.2754 39.3994 48.02C39.329 48.8164 40.0242 49.2476 40.957 49.3884V49.362C40.319 49.2476 39.8262 48.922 39.8834 48.306C40.03 47.5516 40.2541 46.8143 40.5522 46.106L44.3626 36.3028C44.455 36.0432 45.9026 32.5408 45.6826 32.3164L44.8994 32.4748V32.5188C44.9302 33.3724 43.9402 35.7088 43.7378 36.2588L40.0242 45.8508Z" fill="white"/>
<path d="M42.5502 36.211L38.9598 45.4026C38.6729 46.0505 38.4689 46.732 38.3526 47.431C38.2558 48.553 39.1754 49.3274 40.8958 49.4462C40.5413 49.4071 40.1927 49.3258 39.8574 49.2042C39.543 49.1279 39.2676 48.9387 39.0834 48.6726C38.8993 48.4066 38.8193 48.0822 38.8586 47.761C38.9829 47.0299 39.1987 46.3173 39.501 45.6402L43.1618 36.233C43.3466 35.7358 44.3938 33.3598 44.143 32.6338L43.3862 32.7834V32.8274C43.7998 33.395 42.7922 35.595 42.5502 36.211Z" fill="white"/>
<path d="M41.2491 36.3998L37.9315 44.9534C37.6576 45.5606 37.471 46.2035 37.3771 46.863C37.2583 48.2666 38.4771 49.415 40.8971 49.503C38.8687 49.3886 37.7643 48.4294 37.8743 47.1622C37.9761 46.4843 38.1715 45.8239 38.4551 45.1998L41.8827 36.3998C42.1907 35.5946 43.1015 33.619 42.6087 32.959L41.8299 33.1174V33.1614C42.3579 33.8874 41.6011 35.5198 41.2491 36.3998Z" fill="white"/>
<path d="M40.8596 49.5559C38.1272 49.4371 36.75 48.1039 36.8996 46.5551C36.9811 45.936 37.15 45.3316 37.4012 44.7599L40.5648 36.5847C40.9608 35.5639 41.7 34.0239 41.1192 33.2627L40.402 33.4123V33.4563C41.0136 34.1427 40.446 35.2691 40.028 36.4087L36.8776 44.5047C36.6235 45.0621 36.4587 45.656 36.3892 46.2647C36.2396 47.9499 37.74 49.4767 40.8508 49.5691L40.8596 49.5559ZM37.2604 39.2511C37.2032 38.1643 36.5608 37.6671 35.782 37.6671C34.3652 37.6671 33.142 38.7847 32.372 40.3071V39.7703C32.3104 38.5867 31.492 37.6671 30.0356 37.6671C26.9556 37.6671 25.4376 39.6955 24.9316 41.9923H24.958C25.4948 39.8407 26.9292 37.9003 29.6968 37.9003C29.9618 37.8767 30.2288 37.9079 30.4812 37.9921C30.7336 38.0763 30.9659 38.2115 31.1637 38.3895C31.3614 38.5674 31.5204 38.7842 31.6306 39.0263C31.7409 39.2685 31.8 39.5307 31.8044 39.7967C31.8792 41.1915 31.4172 42.2783 30.9244 43.5323L28.6804 49.3975H29.2788L31.5228 43.5807C31.6724 43.1803 31.8132 42.8063 31.9408 42.4455C32.3808 41.5215 32.9308 40.5755 33.2168 40.5755C33.428 40.5755 33.494 40.7559 33.5072 40.9187C33.5097 41.7943 33.2805 42.6551 32.8428 43.4135L32.8692 43.4399C33.5518 42.6699 33.9589 41.6947 34.0264 40.6679C34.0264 40.3643 33.8768 40.1487 33.5864 40.1487C33.1068 40.1487 32.4952 41.1343 32.0464 42.1771C32.0992 42.0099 32.1432 41.8427 32.1872 41.6799C32.6668 40.6371 33.3312 39.7483 33.9472 39.7483C34.3256 39.7483 34.5544 40.0079 34.5764 40.4347C34.6292 41.4731 33.6964 42.9867 32.9132 43.4839L32.9396 43.5103C34.0044 43.0351 35.1748 41.4731 35.1088 40.1971C35.078 39.6295 34.7788 39.3171 34.3036 39.3171C33.5204 39.3171 32.7636 40.2279 32.24 41.3543C32.24 41.2663 32.2752 41.1783 32.2884 41.0859C32.8736 39.8759 33.7316 38.9167 34.6864 38.9167C35.2056 38.9167 35.6016 39.2687 35.6368 39.9551C35.7204 41.4687 34.2904 43.0791 32.9968 43.5499L33.0232 43.5763C34.6116 43.1715 36.2704 41.4687 36.178 39.7175C36.134 38.8903 35.6632 38.4899 35.0516 38.4899C33.9516 38.4943 32.9704 39.4799 32.3588 40.7999V40.5843C33.0584 39.1675 34.1628 38.0939 35.4388 38.0939C36.1252 38.0939 36.6928 38.5339 36.7588 39.4931C36.8644 41.5039 34.9988 43.2067 33.098 43.6335L33.1244 43.6555C35.3244 43.3211 37.3792 41.4995 37.2604 39.2511Z" fill="white"/>
<path d="M31.2544 39.8408C31.2502 39.6015 31.1973 39.3656 31.0988 39.1474C31.0004 38.9293 30.8585 38.7335 30.6818 38.5721C30.5052 38.4106 30.2974 38.2869 30.0713 38.2085C29.8452 38.1301 29.6054 38.0986 29.3668 38.116C26.9116 38.116 25.4992 39.942 25.002 41.9924H25.0328C25.5784 40.0828 26.828 38.3536 29.0236 38.3536C29.2342 38.334 29.4467 38.3586 29.6474 38.4257C29.8481 38.4929 30.0325 38.6011 30.189 38.7435C30.3455 38.8859 30.4706 39.0594 30.5563 39.2529C30.642 39.4464 30.6864 39.6556 30.6868 39.8672C30.7484 41.0244 30.2028 42.3004 29.7672 43.462L27.4528 49.3976H28.0688L30.3348 43.5104C30.8188 42.3004 31.3204 41.0948 31.2544 39.8408Z" fill="white"/>
<path d="M30.1596 39.8892C30.1604 39.705 30.1226 39.5227 30.0487 39.3539C29.9748 39.1852 29.8664 39.0338 29.7305 38.9094C29.5946 38.7851 29.4341 38.6906 29.2595 38.632C29.0848 38.5734 28.8998 38.552 28.7164 38.5692C26.7892 38.5692 25.61 40.2324 25.0996 41.9968H25.126C25.6672 40.3556 26.776 38.8068 28.3776 38.8068C28.5309 38.796 28.6849 38.8167 28.8299 38.8676C28.975 38.9185 29.1081 38.9986 29.221 39.1029C29.3339 39.2072 29.4243 39.3335 29.4866 39.474C29.5489 39.6145 29.5818 39.7663 29.5832 39.92C29.6316 40.8396 28.998 42.3312 28.58 43.374L26.1996 49.3976H26.8376L29.174 43.4136C29.5876 42.3268 30.2036 40.954 30.1596 39.8892Z" fill="white"/>
<path d="M29.0383 39.9592C29.0393 39.8316 29.0138 39.7053 28.9632 39.5882C28.9126 39.4712 28.8381 39.366 28.7445 39.2794C28.6508 39.1928 28.5402 39.1268 28.4195 39.0855C28.2989 39.0442 28.1709 39.0285 28.0439 39.0396C26.7239 39.0396 25.6723 40.474 25.1707 41.992H25.2015C25.7251 40.6368 26.6227 39.2728 27.7007 39.2728C27.7997 39.2613 27.9 39.2713 27.9948 39.3023C28.0895 39.3332 28.1765 39.3843 28.2496 39.452C28.3228 39.5197 28.3804 39.6025 28.4186 39.6946C28.4567 39.7867 28.4745 39.886 28.4707 39.9856C28.5103 40.716 27.7711 42.3748 27.4191 43.2944L24.9727 49.3972H25.5843L27.9867 43.3428C28.4003 42.3748 29.0823 40.7996 29.0383 39.9592Z" fill="white"/>
<path d="M27.9289 40.0298C27.9356 39.9563 27.9261 39.8822 27.9011 39.8128C27.8761 39.7433 27.8362 39.6802 27.7842 39.6278C27.7322 39.5754 27.6694 39.535 27.6001 39.5094C27.5309 39.4838 27.4569 39.4738 27.3833 39.4798C26.6045 39.4798 25.7641 40.7074 25.2581 41.9834H25.2889C25.7993 40.8482 26.5869 39.713 27.0489 39.713C27.2381 39.713 27.3613 39.8098 27.3745 40.0474C27.4009 40.5446 26.5737 42.4102 26.2393 43.2154L23.7489 49.3754H24.3649L26.8333 43.2506C27.1809 42.397 27.9597 40.6238 27.9289 40.0298ZM21.2013 45.2526L21.5973 44.421L20.2553 37.5746C19.8813 35.6474 20.3301 34.807 21.8437 34.5166V34.4902H20.4445C20.0397 34.6926 19.1817 35.2998 19.6613 37.5702L21.2013 45.2526Z" fill="white"/>
<path d="M20.4096 46.907L20.8012 46.0798L19.0412 37.5306C18.7112 35.8718 18.852 35.0094 19.402 34.5166V34.4902H18.4516C18.1612 35.1106 18.0732 35.731 18.4076 37.3722L20.4096 46.907ZM19.6 48.557L19.9916 47.7386L17.7916 37.3502C17.4044 35.7354 17.4924 34.9962 17.6508 34.4902H16.8104C16.8016 35.364 16.9142 36.2347 17.1448 37.0774L19.6 48.557ZM16.0404 34.4902H15.0504V34.5166C15.4904 35.0534 15.6224 35.709 15.9744 37.1566L18.6144 49.4018H19.2084L16.5684 37.117C16.3403 36.2527 16.164 35.3756 16.0404 34.4902ZM14.0604 34.4902H13V34.5166C13.968 34.8994 14.4432 35.6342 14.826 37.3546L17.4352 49.3974H18.0292L15.4024 37.2798C14.9492 35.1766 14.474 34.7894 14.0604 34.4902ZM27.5508 34.4902C26.3012 35.2206 25.5576 36.5714 24 39.9198L24.0396 39.9418C25.8392 36.5714 26.8644 35.2294 29.1876 34.5298V34.4902H27.5508ZM23.912 39.8538L23.9516 39.8802C25.43 36.3998 25.8172 35.4274 26.42 34.5166V34.4902H25.2232V34.5254C25.3464 35.9202 24.88 37.205 23.912 39.8538Z" fill="white"/>
<path d="M23.8319 39.801L23.8715 39.8274C24.8087 36.7078 25.1123 35.3306 24.2851 34.4902H23.1191V34.5166C24.4391 34.983 24.7119 36.3162 23.8319 39.801ZM66.6791 38.4942V39.0882H66.5911V38.4942H66.3359V38.4106H66.9431V38.4942H66.6791ZM67.6911 39.0882V38.5118L67.4799 39.0794H67.3787L67.1895 38.5118V39.0882H67.1059L67.1323 38.4106H67.2863L67.4623 38.9782L67.6647 38.4106H67.8055L67.8319 39.0882H67.6911Z" fill="#245ABC"/>
</g>
<defs>
<clipPath id="clip0_1278_6220">
<rect width="55" height="17.6" fill="white" transform="translate(13 32)"/>
</clipPath>
</defs>
</svg>
