<svg width="100%" height="100%" viewBox="0 0 81 81" fill="none" xmlns="http://www.w3.org/2000/svg">
<mask id="mask0_860_5120" style="mask-type:alpha" maskUnits="userSpaceOnUse" x="0" y="0" width="81" height="81">
<rect width="81" height="81" rx="11" fill="#C4C4C4"/>
</mask>
<g mask="url(#mask0_860_5120)">
<rect width="81" height="81" rx="11" fill="#1D56B4"/>
</g>
<path d="M40.5484 33.8638C41.5721 33.8638 42.4146 33.3313 42.5284 32.6438L43.5396 21.2137C43.5396 20.0837 42.2171 19.1562 40.5521 19.1562C38.8896 19.1562 37.5684 20.0837 37.5684 21.2137L38.5771 32.6438C38.6896 33.3313 39.5321 33.8638 40.5521 33.8638H40.5481" fill="#FDBB30"/>
<path d="M34.3712 37.4339C34.885 36.5489 34.845 35.5527 34.305 35.1114L24.91 28.5214C23.9337 27.9564 22.4687 28.6376 21.6375 30.0789C20.8037 31.5177 20.9512 33.1264 21.9262 33.6914L32.3275 38.5352C32.9787 38.7764 33.865 38.3126 34.375 37.4277L34.371 37.4337" fill="#FDBB30"/>
<path d="M46.7314 37.4277C47.2439 38.3127 48.1264 38.7764 48.7777 38.5352L59.1802 33.6914C60.1602 33.1264 60.3002 31.5177 59.4727 30.0789C58.6377 28.6377 57.1702 27.9564 56.1964 28.5214L46.8014 35.1115C46.2639 35.5527 46.2239 36.549 46.7352 37.4339L46.7312 37.4279" fill="#FDBB30"/>
<path d="M40.5484 48.1406C41.5721 48.1406 42.4146 48.6694 42.5284 49.3569L43.5396 60.7856C43.5396 61.9182 42.2171 62.8444 40.5521 62.8444C38.8896 62.8444 37.5684 61.9182 37.5684 60.7856L38.5771 49.3569C38.6896 48.6694 39.5321 48.1406 40.5521 48.1406H40.5481" fill="#FDBB30"/>
<path d="M46.7314 44.5701C47.2439 43.6839 48.1264 43.2226 48.7777 43.4676L59.1802 48.3064C60.1602 48.8726 60.3002 50.4826 59.4727 51.9239C58.6377 53.3601 57.1702 54.0426 56.1964 53.4789L46.8014 46.8951C46.2639 46.4488 46.2239 45.4526 46.7352 44.5689L46.7312 44.5699" fill="#FDBB30"/>
<path d="M34.3712 44.5689C34.885 45.4526 34.845 46.4489 34.305 46.8951L24.91 53.4789C23.9338 54.0426 22.4688 53.3602 21.6375 51.9239C20.8037 50.4826 20.9512 48.8727 21.9262 48.3064L32.3275 43.4676C32.9787 43.2226 33.865 43.6839 34.375 44.5701L34.371 44.5691" fill="#FDBB30"/>
</svg>
