<svg width="100%" height="100%" viewBox="0 0 81 81" fill="none" xmlns="http://www.w3.org/2000/svg">
<rect width="81" height="81" rx="11" fill="#0080C5"/>
<g clip-path="url(#clip0_1278_6218)">
<path d="M74.7047 33.609C72.575 31.9629 68.5366 32.0482 68.5366 32.0482H61.5983C60.7879 32.0482 60.5066 32.1007 60.5602 32.4417C60.6034 32.5191 60.6661 32.5844 60.7422 32.6315C60.8184 32.6785 60.9056 32.7057 60.9955 32.7106C61.2255 32.7378 61.4391 32.841 61.601 33.0032C61.7629 33.1654 61.8636 33.3767 61.8863 33.6025C61.8863 34.1664 61.9733 35.9371 61.9733 36.5536V41.5901C61.9733 42.2459 61.9733 43.387 61.9733 44.0625V47.1907C61.9733 47.5182 62.1058 47.8325 62.3417 48.0648C62.5776 48.297 62.8979 48.4284 63.2324 48.4301H67.3713C69.1323 48.4147 70.8755 48.0835 72.5147 47.453C74.0445 46.8287 75.3479 45.7694 76.2565 44.4121C77.165 43.0548 77.637 41.4618 77.6112 39.8391C77.6375 38.6533 77.3898 37.477 76.8865 36.3982C76.3831 35.3193 75.6373 34.3659 74.7047 33.609ZM67.6994 46.9939H67.5387C66.5743 46.9939 65.5764 46.9939 65.054 46.4889C64.9103 46.3271 64.8012 46.1386 64.7334 45.9347C64.6655 45.7308 64.6402 45.5156 64.6589 45.3019V37.7668C64.6589 36.2125 64.6187 35.4846 64.6589 33.7402C65.6129 33.609 66.5753 33.5454 67.5387 33.55C69.367 33.55 71.2757 33.7926 72.8964 35.5174C74.0114 36.7911 74.5907 38.4319 74.5171 40.108C74.5104 44.3248 71.8383 46.9939 67.6994 46.9939ZM60.5334 47.8137C60.3092 47.7244 60.1108 47.5827 59.9555 47.4009C59.8002 47.2191 59.6928 47.0028 59.6427 46.7709C59.6427 46.4758 59.3279 33.3336 59.3279 33.3336C59.3279 32.6778 59.3279 32.1597 59.1605 32.0941C58.688 32.0301 58.2106 32.0082 57.734 32.0285C57.3421 31.9708 56.9418 32.0091 56.5687 32.14C56.3276 32.5305 56.1322 32.9462 55.9861 33.3795L54.7605 36.0486L53.5617 38.2914L51.6999 41.8262C51.668 41.9566 51.5922 42.0727 51.4846 42.1558C51.3771 42.2389 51.2441 42.2841 51.1072 42.2841C50.9702 42.2841 50.8372 42.2389 50.7297 42.1558C50.6222 42.0727 50.5463 41.9566 50.5145 41.8262L48.5857 38.3439L47.3802 36.1732L46.0407 33.3532C45.8911 32.9256 45.7005 32.5128 45.4715 32.1203C45.0534 32.0063 44.6167 31.9729 44.1856 32.022H42.5381C41.7278 32.022 41.3594 32.022 41.413 32.363C41.4557 32.4408 41.5182 32.5064 41.5945 32.5536C41.6708 32.6007 41.7582 32.6277 41.8483 32.6319C42.0517 32.7209 42.2237 32.8667 42.3428 33.051C42.462 33.2353 42.5229 33.45 42.518 33.668C42.518 33.9631 42.518 45.9381 42.451 46.4627C42.451 46.548 42.451 46.6398 42.4042 46.7316C42.3835 46.9796 42.2868 47.2156 42.1266 47.4087C41.9664 47.6019 41.7504 47.743 41.5067 47.8137C41.4167 47.8179 41.3292 47.8448 41.2529 47.892C41.1766 47.9391 41.1141 48.0047 41.0714 48.0825C41.0179 48.417 41.3929 48.4301 42.2033 48.4301H44.8821C45.6925 48.4301 46.0675 48.4301 46.0206 48.0825C45.978 48.0047 45.9154 47.9391 45.8391 47.892C45.7629 47.8448 45.6754 47.8179 45.5853 47.8137C45.3501 47.7423 45.1409 47.6059 44.9829 47.4209C44.8249 47.236 44.7248 47.0103 44.6946 46.7709C44.634 46.472 44.5915 46.1698 44.5674 45.8659C44.5674 45.2101 44.5272 44.069 44.5339 43.3936V43.164C44.5339 42.5082 44.5339 41.3671 44.5741 40.6917L44.641 38.0094C44.641 37.3536 44.9424 37.2618 45.2706 37.8586L47.0788 41.1376C47.407 41.7344 49.1415 44.9478 49.4496 45.5512C49.4736 45.6736 49.5222 45.7901 49.5927 45.8939C49.6631 45.9977 49.754 46.0867 49.86 46.1557C49.966 46.2247 50.085 46.2723 50.21 46.2957C50.3351 46.3192 50.4636 46.318 50.5881 46.2922C51.4989 46.2922 51.4989 46.0561 51.874 45.2692C52.1486 44.692 56.0262 37.2225 56.0262 37.2225C56.341 36.6191 56.6156 36.6782 56.6357 37.3536C56.6357 37.3536 56.6826 46.4562 56.6357 46.8693V47.007C56.5797 47.199 56.4747 47.3738 56.3306 47.5149C56.1864 47.6561 56.0079 47.7589 55.8119 47.8137C55.722 47.8185 55.6348 47.8457 55.5586 47.8928C55.4824 47.9398 55.4198 48.0051 55.3766 48.0825C55.323 48.417 55.6981 48.4301 56.5084 48.4301H59.857C60.6741 48.4301 61.0424 48.4301 60.9955 48.0825C60.9485 48.0027 60.8813 47.936 60.8004 47.889C60.7195 47.8419 60.6275 47.8159 60.5334 47.8137Z" fill="white"/>
<path d="M24.0937 33.6938C24.2197 33.2853 24.4725 32.9254 24.817 32.6642C24.9381 32.6548 25.0558 32.62 25.1621 32.5623C25.2684 32.5046 25.3608 32.4253 25.4331 32.3297C25.4934 32.0871 25.2724 32.0215 24.3884 32.0215H21.7095C20.8991 32.0215 20.5241 32.0215 20.5777 32.3691C20.6209 32.4465 20.6835 32.5118 20.7597 32.5588C20.8359 32.6059 20.9231 32.6331 21.013 32.6379C21.7832 32.8478 22.2989 33.2347 22.0578 34.0217C21.8167 34.8086 18.4681 44.4555 18.4681 44.4555C18.3408 44.803 18.0127 44.9014 17.9122 44.3833L16.1776 36.2645C16.0303 35.6087 15.8696 34.7431 15.8093 34.3693C15.7666 34.21 15.6697 34.0698 15.5344 33.972C15.3992 33.8742 15.2339 33.8246 15.0659 33.8315C14.9138 33.8274 14.7638 33.8668 14.6341 33.9448C14.5045 34.0228 14.4009 34.1361 14.3359 34.2709C14.1149 34.7234 13.6662 35.5825 13.3581 36.2055L8.94468 44.5079C8.76386 44.8162 8.53615 44.7244 8.50267 44.3571L7.9535 35.9432C7.9535 35.2874 7.88652 33.9758 7.89322 33.7659C7.89463 33.507 7.98439 33.256 8.14821 33.0529C8.31203 32.8497 8.54051 32.7059 8.79734 32.6445C8.89177 32.6373 8.98288 32.6071 9.0624 32.5567C9.14192 32.5064 9.20735 32.4373 9.25275 32.3559C9.30633 32.0215 8.91119 32.028 8.10083 32.028H4.75224C4.21647 32.0412 3.96198 32.1002 4.00216 32.3756C4.04535 32.453 4.108 32.5183 4.18418 32.5654C4.26036 32.6124 4.34754 32.6397 4.43748 32.6445C4.60804 32.6899 4.76592 32.7724 4.8993 32.886C5.03267 32.9996 5.13809 33.1412 5.20765 33.3003C5.25855 33.416 5.30326 33.5342 5.3416 33.6544V33.72V33.7659C5.34031 33.7878 5.34031 33.8097 5.3416 33.8315C5.49765 34.5785 5.60724 35.334 5.66976 36.094L6.39975 46.377C6.38268 47.0814 6.46151 47.7849 6.63415 48.469C6.84176 48.8952 7.81955 48.869 8.20799 48.2985C8.31514 48.1345 13.8269 38.0024 13.8269 38.0024C14.1484 37.3991 14.4966 37.4515 14.6641 38.1204L16.3919 46.4688C16.4983 47.0902 16.6482 47.7038 16.8407 48.305C17.0751 48.9084 18.2538 48.8034 18.5685 48.2132C18.8872 47.6125 19.1668 46.9926 19.4057 46.3573C19.4057 46.3573 23.9062 34.225 24.0937 33.6938ZM38.6199 37.6286C36.4701 37.6286 34.5078 39.5501 33.2153 41.006C33.284 40.5869 33.3893 40.1745 33.53 39.7731L35.5392 33.215C35.5937 33.0781 35.612 32.93 35.5924 32.7843C35.5728 32.6386 35.5159 32.5002 35.4271 32.3818C35.3382 32.2633 35.2203 32.1688 35.0841 32.107C34.948 32.0452 34.7982 32.018 34.6485 32.028H32.9541C32.1437 32.028 31.7687 32.028 31.8155 32.3756C31.8587 32.453 31.9214 32.5183 31.9976 32.5654C32.0737 32.6124 32.1609 32.6397 32.2509 32.6445C33.0545 32.8675 33.3224 33.7462 33.1081 34.7037C33.1081 34.625 31.0989 42.4946 31.0989 42.4946C30.8482 43.2708 30.4146 43.9785 29.8332 44.5604C29.8332 44.5604 27.4021 47.4656 24.9509 47.4656C24.6953 47.4906 24.4371 47.4611 24.1942 47.3791C23.9513 47.2972 23.7293 47.1648 23.5436 46.991C23.3578 46.8172 23.2126 46.6061 23.118 46.3722C23.0234 46.1383 22.9815 45.8871 22.9954 45.6359C22.9868 45.047 23.0497 44.4592 23.1829 43.8849C25.7412 43.6488 30.3221 42.4946 30.3221 39.2943C30.3221 37.9827 29.0563 37.6286 27.9781 37.6286C24.5089 37.6286 21.0867 41.7732 21.0867 45.4982C21.0867 47.0656 21.8301 48.6592 24.0334 48.6592C28.1723 48.6592 30.4225 44.7244 30.5498 44.5735C30.4434 45.0948 30.3763 45.6231 30.3489 46.154C30.3489 47.8656 31.6213 48.6592 33.1952 48.6592C34.4399 48.6138 35.6495 48.2424 36.6978 47.5836C37.5994 47.0523 38.4125 46.3888 39.1088 45.6162C40.4385 44.2561 41.2333 42.4787 41.3523 40.5994C41.3456 38.8549 40.5554 37.6548 38.64 37.6548L38.6199 37.6286ZM27.4423 38.4221C27.5779 38.4136 27.7137 38.4343 27.8403 38.4828C27.9669 38.5312 28.0811 38.6062 28.1749 38.7024C28.2687 38.7987 28.3399 38.9138 28.3834 39.0399C28.4269 39.1659 28.4417 39.2998 28.4268 39.432C28.4268 41.9897 25.5336 43.1111 23.3302 43.2554C23.6852 41.7011 25.5805 38.4221 27.4423 38.4221ZM38.3453 43.9833C37.8279 45.0151 37.1501 45.9619 36.3361 46.7901C35.6355 47.5531 34.6619 48.0228 33.6171 48.1017C32.5188 48.1017 32.1571 47.0721 32.1571 46.1343C32.1571 43.5111 35.0771 38.632 38.0439 38.632C39.1423 38.632 39.4771 39.3796 39.4771 40.2715C39.3721 41.5717 38.979 42.8338 38.3252 43.9702L38.3453 43.9833Z" fill="white"/>
<path d="M75.8228 33.0314C75.8228 32.9254 75.8442 32.8205 75.8855 32.7227C75.9269 32.6248 75.9876 32.5359 76.0641 32.461C76.1406 32.3861 76.2314 32.3267 76.3314 32.2861C76.4313 32.2456 76.5384 32.2247 76.6466 32.2247C76.7548 32.2247 76.8619 32.2456 76.9618 32.2861C77.0618 32.3267 77.1526 32.3861 77.2291 32.461C77.3056 32.5359 77.3662 32.6248 77.4076 32.7227C77.449 32.8205 77.4704 32.9254 77.4704 33.0314C77.4704 33.1373 77.449 33.2422 77.4076 33.34C77.3662 33.4379 77.3056 33.5268 77.2291 33.6017C77.1526 33.6766 77.0618 33.7361 76.9618 33.7766C76.8619 33.8171 76.7548 33.838 76.6466 33.838C76.5384 33.838 76.4313 33.8171 76.3314 33.7766C76.2314 33.7361 76.1406 33.6766 76.0641 33.6017C75.9876 33.5268 75.9269 33.4379 75.8855 33.34C75.8442 33.2422 75.8228 33.1373 75.8228 33.0314ZM76.6466 34.0282C76.8454 34.0243 77.0387 33.9631 77.2022 33.8523C77.3657 33.7414 77.4921 33.5858 77.5658 33.4049C77.6395 33.2241 77.6571 33.0259 77.6163 32.8353C77.5756 32.6447 77.4784 32.4701 77.3369 32.3333C77.1953 32.1965 77.0158 32.1036 76.8206 32.0663C76.6254 32.0289 76.4234 32.0487 76.2396 32.1232C76.0559 32.1977 75.8987 32.3236 75.7876 32.4851C75.6765 32.6466 75.6166 32.8366 75.6152 33.0314C75.6152 33.1631 75.642 33.2935 75.6941 33.4149C75.7462 33.5364 75.8225 33.6464 75.9185 33.7386C76.0145 33.8308 76.1284 33.9034 76.2534 33.952C76.3785 34.0006 76.5121 34.0242 76.6466 34.0216V34.0282ZM76.4323 33.1101H76.6332L76.9413 33.6085H77.1422L76.8073 33.1035C76.8487 33.1036 76.8896 33.0954 76.9275 33.0793C76.9654 33.0633 76.9996 33.0397 77.0279 33.0102C77.0561 32.9807 77.0779 32.9458 77.0918 32.9077C77.1057 32.8696 77.1115 32.8291 77.1087 32.7887C77.1117 32.7377 77.1022 32.6868 77.081 32.6401C77.0599 32.5935 77.0277 32.5524 76.9871 32.5204C76.9465 32.4883 76.8987 32.4662 76.8476 32.4558C76.7966 32.4455 76.7437 32.4472 76.6935 32.4608H76.2515V33.6019H76.4323V33.1101ZM76.4323 32.9658V32.6051H76.6734C76.8006 32.6051 76.9279 32.6051 76.9279 32.7756C76.9279 32.9461 76.7939 32.9592 76.6399 32.9592H76.4323V32.9658Z" fill="white"/>
</g>
<defs>
<clipPath id="clip0_1278_6218">
<rect width="73.6396" height="16.7617" fill="white" transform="translate(4 32)"/>
</clipPath>
</defs>
</svg>
