<svg width="100%" height="100%" viewBox="0 0 81 81" fill="none" xmlns="http://www.w3.org/2000/svg">
<mask id="mask0_860_5136" style="mask-type:alpha" maskUnits="userSpaceOnUse" x="0" y="0" width="81" height="81">
<rect width="81" height="81" rx="11" fill="#C4C4C4"/>
</mask>
<g mask="url(#mask0_860_5136)">
<rect width="81" height="81" rx="11" fill="#F6DC18"/>
</g>
<g clip-path="url(#clip0_860_5136)">
<path d="M29.6019 48.4974C29.6019 49.6246 28.6795 50.5469 27.5521 50.5469H9.10435C7.97709 50.5469 7.05469 49.6245 7.05469 48.4974V30.0495C7.05469 28.9222 7.97709 27.9998 9.10435 27.9998H27.5521C28.6795 27.9998 29.6019 28.9223 29.6019 30.0495V48.4974Z" fill="#F6DC18"/>
<path d="M16.4092 35.0505C16.2308 35.0639 16.1626 35.1279 16.0077 35.3651C14.9739 36.9429 12.0634 41.4051 11.5979 42.1471C11.2116 42.7641 11.0633 43.2595 11.1873 43.7504C11.2928 44.2093 11.6484 44.5293 12.2067 44.6505C12.3478 44.6651 12.4839 44.6236 12.5779 44.5058C13.3316 43.575 17.5576 37.9044 18.3492 36.8412C18.4572 36.6966 18.4307 36.637 18.3706 36.5142C18.2238 36.2161 17.6732 35.6105 17.2355 35.326C16.9427 35.1358 16.6567 35.0477 16.4595 35.0477C16.4417 35.0479 16.4251 35.049 16.4092 35.0505" fill="#282D2A"/>
<path d="M26.0707 44.275C25.1901 42.3874 20.9192 33.575 19.9945 31.545C19.5171 30.4971 19.0173 29.1881 18.573 27.9998H13.2603C13.338 29.7938 13.3622 30.7004 13.074 31.5486C12.5656 33.0386 10.9171 34.6012 9.77696 35.8097C9.38388 36.2247 10.9821 37.3457 12.674 36.021C13.2876 35.5391 14.2571 34.5895 15.0445 33.9734C15.4005 33.6925 15.861 33.5607 16.3301 33.6304C16.9804 33.7248 17.4268 34.0249 17.8821 34.5711C18.3439 35.1243 18.7803 35.8737 19.3753 36.8466C20.498 38.6826 21.7597 40.7598 23.1117 42.9068C23.7992 43.9992 24.7157 44.4567 25.9709 44.4263C26.0927 44.4233 26.1096 44.3548 26.0707 44.275Z" fill="#282D2A"/>
<path d="M46.7953 30.6477C47.0558 30.2479 47.3815 30.048 47.773 30.048C48.1634 30.048 48.4622 30.1612 48.6698 30.3865C48.8792 30.6123 48.9828 30.8735 48.9828 31.1682C48.9828 31.4634 48.9135 31.7233 48.7753 31.9489L42.5259 40.6712V47.3104C42.5259 47.64 42.4121 47.9188 42.1873 48.1436C41.9622 48.3696 41.6839 48.4814 41.3539 48.4814C41.0249 48.4814 40.7419 48.3696 40.5081 48.1436C40.2737 47.9188 40.1569 47.64 40.1569 47.3104V40.6712L33.9343 31.9489C33.7943 31.7233 33.7256 31.4634 33.7256 31.1682C33.7256 30.8735 33.8304 30.6123 34.0378 30.3865C34.2468 30.1612 34.5457 30.048 34.9364 30.048C35.3265 30.048 35.6525 30.2479 35.9124 30.6477L41.3536 38.5618L46.7953 30.6477" fill="#282D2A"/>
<path d="M50.3068 45.3574C51.0522 46.0519 52.0937 46.3982 53.4307 46.3982C54.7667 46.3982 55.8869 46.1738 56.7898 45.7215C57.1021 45.5646 57.3708 45.4876 57.5964 45.4876C57.8224 45.4876 58.0388 45.5826 58.2469 45.7735C58.455 45.9648 58.5599 46.1818 58.5599 46.4241C58.5599 46.8763 58.3722 47.2022 58.0012 47.401C57.6267 47.6003 57.293 47.7697 56.9976 47.9083C56.7012 48.0473 56.3819 48.1687 56.0354 48.2728C55.2533 48.4977 54.3508 48.6113 53.3268 48.6113C51.1912 48.6113 49.5339 48.0125 48.3544 46.8146C47.1729 45.6177 46.584 43.9165 46.584 41.7113C46.584 39.8028 47.0786 38.2146 48.0669 36.9475C49.1789 35.5242 50.7587 34.8123 52.8057 34.8123C54.7498 34.8123 56.2866 35.4726 57.4151 36.7906C58.4732 38.0239 59.0029 39.5506 59.0029 41.3743C59.0029 41.7033 58.8939 41.9817 58.6772 42.2061C58.4595 42.4327 58.1685 42.5458 57.8052 42.5458H48.9787C49.117 43.7253 49.56 44.6633 50.3068 45.3574V45.3574ZM52.8057 36.8167C51.2606 36.8167 50.1331 37.5027 49.4214 38.8739C49.1604 39.3602 49.0138 39.9411 48.9784 40.6184H56.6585C56.5897 39.3862 56.1387 38.4147 55.305 37.7022C54.6102 37.1122 53.7784 36.8167 52.8057 36.8167" fill="#282D2A"/>
<path d="M61.5707 29.5528C61.7958 29.3274 62.0796 29.2145 62.4168 29.2145C62.7558 29.2145 63.0371 29.3274 63.2633 29.5528C63.4885 29.7783 63.603 30.0651 63.603 30.4123V47.3094C63.603 47.639 63.4885 47.9178 63.2633 48.1427C63.0371 48.3688 62.7558 48.4805 62.4168 48.4805C62.0796 48.4805 61.7958 48.3688 61.5707 48.1427C61.3459 47.9178 61.2324 47.639 61.2324 47.3094V30.4123C61.2324 30.0651 61.3459 29.7783 61.5707 29.5528Z" fill="#282D2A"/>
<path d="M66.6542 29.5539C66.8803 29.3285 67.162 29.2156 67.5015 29.2156C67.8392 29.2156 68.1213 29.3285 68.347 29.5539C68.5723 29.7794 68.6861 30.0661 68.6861 30.4134V47.3104C68.6861 47.64 68.5723 47.9188 68.347 48.1437C68.1213 48.3698 67.8392 48.4814 67.5015 48.4814C67.162 48.4814 66.8803 48.3698 66.6542 48.1437C66.4296 47.9188 66.3154 47.64 66.3154 47.3104V30.4134C66.3154 30.0661 66.4296 29.7794 66.6542 29.5539Z" fill="#282D2A"/>
<path d="M9.09082 46.4162L9.09108 46.4704C9.09901 47.5634 10.0064 48.483 11.0993 48.4911C11.0993 48.4911 25.5013 48.5049 25.5063 48.5049C26.6268 48.5049 27.5434 47.5604 27.5514 46.4674L27.5518 46.4162H9.09082" fill="#282D2A"/>
<path d="M73.0759 46.5203C73.0998 46.5445 73.112 46.5737 73.112 46.6084C73.112 46.6432 73.0998 46.672 73.0759 46.6951C73.0524 46.7184 73.0224 46.73 72.988 46.73H72.4016V48.3855C72.4016 48.422 72.3882 48.4529 72.3623 48.4779C72.3363 48.503 72.3047 48.5156 72.2682 48.5156C72.2318 48.5156 72.201 48.503 72.1758 48.4779C72.1507 48.4529 72.1382 48.422 72.1382 48.3855V46.73H71.5489C71.5141 46.73 71.4853 46.7184 71.4622 46.6951C71.4387 46.672 71.4277 46.6432 71.4277 46.6084C71.4277 46.5737 71.4387 46.5445 71.4622 46.5203C71.4853 46.4963 71.5141 46.4842 71.5489 46.4842H72.988C73.0224 46.4843 73.0524 46.4963 73.0759 46.5203" fill="#282D2A"/>
<path d="M75.6097 46.5262C75.6459 46.5638 75.6648 46.6086 75.6648 46.6607V48.3856C75.6648 48.4222 75.6518 48.453 75.6269 48.478C75.6017 48.503 75.571 48.5155 75.5343 48.5155C75.4981 48.5155 75.4666 48.503 75.4405 48.478C75.4148 48.453 75.4013 48.422 75.4013 48.3856V46.7445L74.7342 48.3942C74.7186 48.431 74.6942 48.4603 74.6618 48.4825C74.629 48.5046 74.5915 48.5156 74.549 48.5156C74.5069 48.5156 74.469 48.5046 74.4366 48.4825C74.4034 48.4604 74.3794 48.431 74.3642 48.3942L73.6967 46.7445V48.3856C73.6967 48.4222 73.6836 48.453 73.6575 48.478C73.6314 48.503 73.6007 48.5155 73.5637 48.5155C73.527 48.5155 73.4963 48.503 73.4711 48.478C73.4466 48.453 73.4336 48.422 73.4336 48.3856V46.6607C73.4336 46.6087 73.4521 46.5638 73.4883 46.5262C73.5249 46.4889 73.5695 46.4701 73.6213 46.4701H73.7169C73.7556 46.4701 73.7901 46.4814 73.8221 46.5048C73.8537 46.5278 73.8772 46.5566 73.8928 46.5913L74.549 48.2266L75.2048 46.5913C75.2199 46.5566 75.2435 46.5278 75.2755 46.5048C75.3071 46.4815 75.3424 46.4701 75.3807 46.4701H75.4758C75.5285 46.4701 75.5731 46.4889 75.6097 46.5262Z" fill="#282D2A"/>
</g>
<defs>
<clipPath id="clip0_860_5136">
<rect width="68.609" height="22.547" fill="white" transform="translate(7.05566 28)"/>
</clipPath>
</defs>
</svg>
