<svg width="100%" height="100%" viewBox="0 0 81 81" fill="none" xmlns="http://www.w3.org/2000/svg">
<mask id="mask0_860_5161" style="mask-type:alpha" maskUnits="userSpaceOnUse" x="0" y="0" width="81" height="81">
<rect width="81" height="81" rx="11" fill="#D32323"/>
</mask>
<g mask="url(#mask0_860_5161)">
<rect width="81" height="81" rx="11" fill="#D32323"/>
</g>
<path d="M74 8H8V74H74V8Z" fill="#D32323"/>
<path d="M40.0097 17.5702C39.8447 16.9656 39.3497 16.5248 38.6897 16.3056C36.6001 15.7552 28.4597 18.0652 26.9747 19.6572C26.4797 20.1522 26.3147 20.8173 26.4797 21.3626C26.7001 21.8576 36.7651 37.918 36.7651 37.918C38.2501 40.3376 39.4593 40.0076 39.8447 39.8426C40.2314 39.733 41.4393 39.3476 41.3297 36.491C41.1093 33.1369 40.1193 18.2856 40.0097 17.5702ZM35.6643 47.7098C36.4893 47.4906 37.0397 46.7198 37.0951 45.7852C37.1493 44.7952 36.6543 43.9148 35.8293 43.5848L33.5231 42.6502C25.6599 39.3502 25.3286 39.2406 24.9431 39.2406C24.3386 39.1852 23.783 39.5152 23.404 40.1198C22.6306 41.3856 22.3031 45.4552 22.579 48.1506C22.6886 49.0298 22.8536 49.8006 23.074 50.2402C23.404 50.8448 23.899 51.2302 24.5036 51.2302C24.8903 51.2302 25.1081 51.1748 32.4236 48.8106L35.6643 47.7098ZM39.7893 50.7352C38.9101 50.3485 37.9201 50.5702 37.3697 51.2856L35.7751 53.2102C30.2747 59.8102 30.0543 60.0848 29.8893 60.4702C29.7997 60.6975 29.7622 60.9419 29.7797 61.1856C29.7961 61.5593 29.9531 61.9129 30.2193 62.1756C31.4851 63.7148 37.5901 66.0248 39.5701 65.6948C39.8789 65.6556 40.1708 65.5317 40.4134 65.3367C40.656 65.1417 40.8397 64.8832 40.9443 64.59C41.0551 64.2033 41.1093 63.93 41.1093 56.175V52.6598C41.2201 51.8348 40.6697 51.0652 39.7893 50.7352ZM58.9293 52.2821C58.5993 52.0616 58.3801 51.9521 51.066 49.5312C51.066 49.5312 47.8756 48.4316 47.8214 48.4316C47.048 48.1016 46.1714 48.3762 45.5656 49.1471C44.9597 49.9179 44.8514 50.9066 45.3464 51.6762L46.611 53.8212C50.9564 60.9716 51.2864 61.4666 51.561 61.7412C52.056 62.1279 52.6606 62.1821 53.3206 61.9062C55.191 61.1328 59.2064 55.9662 59.481 53.9321C59.5893 53.2656 59.4243 52.6598 58.9293 52.2756V52.2821ZM47.1601 44.1416C48.3203 43.9212 57.7743 41.6666 58.5451 41.1162C59.0401 40.7862 59.3186 40.1816 59.2593 39.4662V39.4121C59.0401 37.3212 55.4643 31.9355 53.7047 31.0512C53.1001 30.7766 52.4401 30.7766 51.9451 31.1066C51.6151 31.3271 51.3947 31.6571 46.9397 37.8162L44.9043 40.6135C44.3551 41.2735 44.3551 42.2093 44.9043 43.0343C45.4547 43.9148 46.0051 44.3517 47.1601 44.1352V44.1416Z" fill="white"/>
</svg>
