<svg width="100%" height="100%" viewBox="0 0 81 81" fill="none" xmlns="http://www.w3.org/2000/svg">
<mask id="mask0_860_5167" style="mask-type:alpha" maskUnits="userSpaceOnUse" x="0" y="0" width="81" height="81">
<rect width="81" height="81" rx="11" fill="#C4C4C4"/>
</mask>
<g mask="url(#mask0_860_5167)">
<rect width="81" height="81" rx="11" fill="#006AFF"/>
</g>
<g clip-path="url(#clip0_860_5167)">
<path d="M41 79C61.9868 79 79 61.9868 79 41C79 20.0132 61.9868 3 41 3C20.0132 3 3 20.0132 3 41C3 61.9868 20.0132 79 41 79Z" fill="#006AFF"/>
<path d="M47.9283 27.8065C48.1249 27.7656 48.2068 27.8311 48.3296 27.9621C49.0094 28.7156 51.1878 31.369 51.7775 32.0979C51.8839 32.2289 51.8102 32.3682 51.7202 32.4501C47.3305 35.8733 42.4495 40.7216 39.7223 44.194C39.6732 44.2677 39.7141 44.2677 39.7633 44.2595C44.4969 42.2121 55.643 38.9527 60.6551 38.0436V31.6884L40.9999 16.1035L21.3529 31.6802V38.6251C27.446 35.0052 41.5404 29.3953 47.9283 27.8065ZM31.9421 54.4966C31.8758 54.5408 31.7953 54.5586 31.7165 54.5465C31.6377 54.5344 31.5663 54.4932 31.5163 54.4311L27.8555 50.066C27.7572 49.9432 27.7408 49.8776 27.8719 49.6893C30.7055 45.5371 36.4874 39.0755 40.1727 36.3402C40.2465 36.2992 40.2219 36.2419 40.14 36.2746C36.299 37.5277 25.3822 42.2285 21.3447 44.5052V59.3449H60.6469V45.0539C55.2908 45.9712 39.2473 50.7458 31.9421 54.4966Z" fill="white"/>
</g>
<defs>
<clipPath id="clip0_860_5167">
<rect width="76" height="76" fill="white" transform="translate(3 3)"/>
</clipPath>
</defs>
</svg>
