<svg width="100%" height="100%" viewBox="0 0 81 81" fill="none" xmlns="http://www.w3.org/2000/svg">
<mask id="mask0_860_5173" style="mask-type:alpha" maskUnits="userSpaceOnUse" x="0" y="0" width="81" height="81">
<rect width="81" height="81" rx="11" fill="#00E6AF"/>
</mask>
<g mask="url(#mask0_860_5173)">
<rect width="81" height="81" rx="11" fill="#00E6AF"/>
</g>
<path d="M61.6666 40.5452C61.6666 37.7345 61.336 34.9239 60.6333 32.1959C58.36 23.5572 53.152 17.6879 44.3893 15.2905C40.876 14.3399 37.3213 13.9679 33.7253 14.5879C28.104 15.5385 24.384 18.9692 22.152 24.0532C20.2093 28.5585 19.8786 33.2705 20.7053 38.1065C21.7386 43.8105 24.2186 48.7292 28.5173 52.6559C28.972 52.0359 34.6346 58.6492 34.3866 58.6079C35.3786 59.6412 36.412 60.6332 37.5693 61.5012C41.496 64.7252 45.836 66.6265 51.0026 66.0479C54.4746 65.6759 57.12 64.1052 58.8146 60.9639C60.2613 58.2772 60.7986 55.3425 61.1706 52.3252C61.6666 48.4812 61.6666 44.5132 61.6666 40.5452V40.5452Z" fill="#FCEE4A"/>
<path d="M28.6828 42.9007C30.1666 42.9007 31.3694 41.6978 31.3694 40.214C31.3694 38.7302 30.1666 37.5273 28.6828 37.5273C27.199 37.5273 25.9961 38.7302 25.9961 40.214C25.9961 41.6978 27.199 42.9007 28.6828 42.9007Z" fill="#00234B"/>
<path d="M50.2179 42.9007C51.7017 42.9007 52.9046 41.6978 52.9046 40.214C52.9046 38.7302 51.7017 37.5273 50.2179 37.5273C48.7341 37.5273 47.5312 38.7302 47.5312 40.214C47.5312 41.6978 48.7341 42.9007 50.2179 42.9007Z" fill="#00234B"/>
<path d="M27.6074 23.3086V26.9459H46.2074L27.6074 53.8953V56.5406C27.6074 56.5406 33.5181 59.1033 40.2141 59.0206C47.4061 58.8966 52.8621 55.6313 52.8621 55.6313L51.0848 52.3246C51.0848 52.3246 46.2488 55.5073 40.5448 55.5073C35.5021 55.5073 32.0301 54.3499 32.0301 54.3499L51.0434 26.1606V23.3086H27.6074V23.3086Z" fill="#00234B"/>
</svg>
