<svg width="100%" height="100%" viewBox="0 0 81 81" fill="none" xmlns="http://www.w3.org/2000/svg">
<mask id="mask0_860_5184" style="mask-type:alpha" maskUnits="userSpaceOnUse" x="0" y="0" width="81" height="81">
<rect width="81" height="81" rx="11" fill="#C4C4C4"/>
</mask>
<g mask="url(#mask0_860_5184)">
<rect width="81" height="81" rx="11" fill="#E23744"/>
</g>
<g clip-path="url(#clip0_860_5184)">
<path d="M0.0136719 26.1309H80.9879V54.8696H0.0136719V26.1309Z" fill="#E23744"/>
<path d="M19.2253 36.5632L19.1692 38.3625L14.4766 43.4632C16.4368 43.4632 17.6796 43.4441 18.3964 43.4043C18.1888 44.3724 18.0197 45.1637 17.8497 46.3501C16.9071 46.2704 15.4376 46.2507 13.9671 46.2507C12.3282 46.2507 10.8956 46.2704 9.74609 46.3501L9.78431 44.5304L14.4766 39.4501C12.4225 39.4501 11.6684 39.4696 10.8208 39.4893C11.0086 38.5798 11.1408 37.5718 11.2726 36.5632C12.7613 36.6225 13.3456 36.6419 15.2867 36.6419C17.0772 36.6419 18.0942 36.6225 19.2253 36.5632ZM24.5589 36.0288C21.5052 36.0288 19.1692 38.7573 19.1692 42.0206C19.1692 44.4718 20.5824 46.3501 23.3336 46.3501C26.4054 46.3501 28.7235 43.6213 28.7235 40.3389C28.7235 37.908 27.3473 36.0288 24.5589 36.0288V36.0288ZM23.6351 43.7275C22.9566 43.7275 22.5611 43.1137 22.5611 41.9079C22.5611 40.1086 23.296 38.6656 24.201 38.6656C24.8601 38.6656 25.2559 39.2593 25.2559 40.4843C25.2556 42.2638 24.5401 43.7275 23.6351 43.7275V43.7275ZM67.7217 35.8934C64.6288 35.8934 62.2618 38.6579 62.2618 41.9623C62.2618 44.4469 63.6934 46.3501 66.4809 46.3501C69.5929 46.3501 71.9414 43.5853 71.9414 40.2605C71.9414 37.797 70.5484 35.8934 67.7217 35.8934ZM66.7277 43.7171C66.0488 43.7171 65.6536 43.1034 65.6536 41.8975C65.6536 40.0982 66.3889 38.6556 67.2935 38.6556C67.9523 38.6556 68.3488 39.2487 68.3488 40.474C68.3485 42.2541 67.6323 43.7171 66.7277 43.7171V43.7171ZM44.5718 39.5881C44.817 37.908 44.6852 36.3854 42.8199 36.3854C41.4627 36.3854 39.9929 37.5323 38.9564 39.4501C39.1828 37.8679 39.0504 36.3854 37.2038 36.3854C35.8094 36.3854 34.3017 37.5913 33.2649 39.5881C33.5289 38.2831 33.4725 36.8 33.3971 36.4839C32.323 36.662 31.3811 36.7605 30.0616 36.8C30.0995 37.7098 30.0428 38.8953 29.8731 40.0231L29.4397 42.9884C29.27 44.1554 29.0814 45.4999 28.8929 46.3501H32.3982C32.4173 45.8354 32.5494 45.025 32.6433 44.3134L32.9449 42.2774C33.1898 40.952 34.2447 39.3908 35.0551 39.3908C35.5264 39.3908 35.5079 39.8453 35.3757 40.6955L35.0363 42.9884C34.8662 44.1554 34.6784 45.4999 34.4896 46.3501H38.0323C38.0515 45.8354 38.1645 45.025 38.2584 44.3134L38.5596 42.2774C38.8048 40.952 39.8607 39.3908 40.6705 39.3908C41.1421 39.3908 41.1236 39.8252 41.0475 40.4189L40.2012 46.3501H43.4346L44.5718 39.5881ZM61.5016 43.2459L61.1246 45.5792C60.5403 45.8953 59.4471 46.3504 58.1846 46.3504C56.0362 46.3504 55.6031 45.2035 55.9419 42.7717L56.4886 38.8567H55.4314L55.7301 36.3226L56.8844 36.2669L57.3181 34.4281L60.5775 33.2021L60.1633 36.2669H62.4059C62.3308 36.583 62.0661 38.3236 61.992 38.8567H59.8047L59.3146 42.475C59.1828 43.4043 59.2586 43.7405 59.8986 43.7405C60.3709 43.7401 61.0676 43.4632 61.5016 43.2459V43.2459ZM49.1362 44.5062C50.3226 44.3591 51.1392 43.2154 51.3354 42.0743L51.3685 41.7686C50.8587 41.6546 50.1218 41.5678 49.4073 41.6552C48.7268 41.7381 48.1606 42.0209 47.8561 42.4303C47.6265 42.7244 47.5112 43.0761 47.5624 43.4956C47.6398 44.124 48.3345 44.604 49.1362 44.5062V44.5062ZM48.1263 46.3135C46.4517 46.5192 45.3489 45.8545 45.0178 44.3426C44.8102 43.3913 45.0985 42.3075 45.6028 41.661C46.2781 40.8153 47.3787 40.2725 48.7219 40.1086C49.8028 39.9745 50.7136 40.0406 51.5654 40.2019L51.6007 40.0558C51.625 39.8223 51.6496 39.5891 51.6156 39.3099C51.5272 38.5931 50.962 38.1662 49.5663 38.3379C48.6247 38.4535 47.7288 38.7936 47.0331 39.1806L46.3565 37.1359C47.2994 36.5946 48.4877 36.1826 49.8478 36.0155C52.4458 35.6968 54.2712 36.5253 54.5051 38.4298C54.567 38.9364 54.5744 39.4731 54.5106 39.9603C54.177 42.3153 53.9632 44.0874 53.8696 45.2751C53.8544 45.4591 53.8557 45.7749 53.8722 46.2228L50.6481 46.2199C50.7168 46.0343 50.7783 45.7826 50.8331 45.4668C50.8694 45.2592 50.8953 44.9972 50.9115 44.6798C50.2303 45.6149 49.2936 46.17 48.1263 46.3135V46.3135Z" fill="white"/>
</g>
<defs>
<clipPath id="clip0_860_5184">
<rect width="80.9998" height="28.7387" fill="white" transform="translate(0 26.1309)"/>
</clipPath>
</defs>
</svg>
