<svg width="440" height="293" viewBox="0 0 440 293" fill="none" xmlns="http://www.w3.org/2000/svg">
<rect width="440" height="293" rx="4" fill="#21325B"/>
<rect x="45" y="22" width="79" height="9" rx="4.5" fill="#BCC1CE"/>
<rect x="20" y="22" width="9" height="9" rx="4.5" fill="#838B9F"/>
<rect x="20" y="43" width="9" height="9" rx="4.5" fill="#838B9F"/>
<rect x="20" y="64" width="9" height="9" rx="4.5" fill="#838B9F"/>
<rect x="20" y="85" width="9" height="9" rx="4.5" fill="#838B9F"/>
<rect x="20" y="106" width="9" height="9" rx="4.5" fill="#838B9F"/>
<rect x="20" y="127" width="9" height="9" rx="4.5" fill="#838B9F"/>
<rect x="20" y="148" width="9" height="9" rx="4.5" fill="#838B9F"/>
<rect x="20" y="169" width="9" height="9" rx="4.5" fill="#838B9F"/>
<rect x="20" y="232" width="9" height="9" rx="4.5" fill="#838B9F"/>
<rect x="20" y="190" width="9" height="9" rx="4.5" fill="#838B9F"/>
<rect x="20" y="253" width="9" height="9" rx="4.5" fill="#838B9F"/>
<rect x="20" y="211" width="9" height="9" rx="4.5" fill="#838B9F"/>
<rect x="20" y="274" width="9" height="9" rx="4.5" fill="#838B9F"/>
<rect x="45" y="43" width="79" height="9" rx="4.5" fill="#00C9A7"/>
<rect x="68" y="64" width="26" height="9" rx="4.5" fill="#4B31A1"/>
<rect x="45" y="85" width="9" height="9" rx="4.5" fill="#DF2171"/>
<rect x="128" y="43" width="9" height="9" rx="4.5" fill="#DF2171"/>
<rect x="98" y="64" width="48" height="9" rx="4.5" fill="#00C9A7"/>
<rect x="45" y="106" width="79" height="9" rx="4.5" fill="#00C9A7"/>
<rect x="45" y="169" width="79" height="9" rx="4.5" fill="#00C9A7"/>
<rect x="45" y="232" width="79" height="9" rx="4.5" fill="#00C9A7"/>
<rect x="68" y="127" width="69" height="9" rx="4.5" fill="#4B31A1"/>
<rect x="68" y="190" width="26" height="9" rx="4.5" fill="#4B31A1"/>
<rect x="68" y="253" width="26" height="9" rx="4.5" fill="#4B31A1"/>
<rect x="45" y="148" width="9" height="9" rx="4.5" fill="#DF2171"/>
<rect x="57" y="211" width="33" height="9" rx="4.5" fill="#00C9A7"/>
<rect x="57" y="274" width="33" height="9" rx="4.5" fill="#00C9A7"/>
<rect x="128" y="106" width="9" height="9" rx="4.5" fill="#DF2171"/>
<rect x="128" y="169" width="9" height="9" rx="4.5" fill="#DF2171"/>
<rect x="128" y="232" width="9" height="9" rx="4.5" fill="#DF2171"/>
<rect x="141" y="127" width="48" height="9" rx="4.5" fill="#00C9A7"/>
<rect x="193" y="127" width="24" height="9" rx="4.5" fill="#0050C9"/>
<rect x="98" y="190" width="48" height="9" rx="4.5" fill="#00C9A7"/>
<rect x="98" y="253" width="48" height="9" rx="4.5" fill="#00C9A7"/>
</svg>
