<svg width="174" height="138" viewBox="0 0 174 138" fill="none" xmlns="http://www.w3.org/2000/svg">
<rect x="0.5" y="0.5" width="173" height="137" rx="2.5" fill="white" stroke="#E8E8E9"/>
<mask id="mask0_2_264" style="mask-type:alpha" maskUnits="userSpaceOnUse" x="10" y="10" width="36" height="36">
<rect x="10" y="10" width="36" height="36" rx="2.07692" fill="url(#paint0_linear_2_264)"/>
</mask>
<g mask="url(#mask0_2_264)">
<rect x="10" y="10" width="36" height="36" rx="2.07692" fill="#E8E8E9"/>
<path d="M24.2288 40.9625H31.1824V38.4023H24.2288V40.9625Z" fill="#7178C0"/>
<path d="M30.4978 35.398H24.8485C24.8485 35.398 24.9917 38.9648 24.2997 40.0003H27.7088H31.1183C30.4262 38.9648 30.4978 35.398 30.4978 35.398" fill="#F4AE7F"/>
<path d="M30.6359 38.2377C30.4688 36.9086 30.4976 35.4169 30.4979 35.3984C30.4976 35.4169 30.4691 36.9081 30.6359 38.2377ZM24.7831 38.029C24.7831 38.0284 24.7834 38.0278 24.7834 38.027C24.7834 38.0278 24.7831 38.0284 24.7831 38.029ZM24.7838 38.0221C24.7841 38.0215 24.7841 38.0209 24.7841 38.0203C24.7841 38.0209 24.7841 38.0215 24.7838 38.0221ZM24.7844 38.0163C24.7847 38.0141 24.7847 38.0115 24.785 38.0095C24.7847 38.0115 24.7847 38.0137 24.7844 38.0163ZM24.7853 38.0076C24.7853 38.0054 24.7856 38.0038 24.7856 38.0017C24.7856 38.0036 24.7853 38.0057 24.7853 38.0076ZM24.7859 38.0004C24.8129 37.7058 24.8306 37.4079 24.8421 37.1242C24.8306 37.4079 24.8129 37.7058 24.7859 38.0004ZM24.8421 37.1229C24.8424 37.1161 24.8427 37.109 24.843 37.1022C24.8427 37.109 24.8424 37.1161 24.8421 37.1229ZM24.843 37.1006C24.843 37.0991 24.843 37.0976 24.8433 37.096C24.843 37.0976 24.843 37.0991 24.843 37.1006ZM24.8433 37.0923C24.8433 37.0911 24.8433 37.0901 24.8436 37.0889C24.8433 37.0901 24.8433 37.0913 24.8433 37.0923ZM24.8436 37.0867C24.8436 37.0855 24.8436 37.0841 24.8436 37.0833C24.8436 37.0845 24.8436 37.0855 24.8436 37.0867ZM24.8439 37.0761C24.8439 37.0752 24.8439 37.0746 24.8439 37.0736C24.8439 37.0746 24.8439 37.0752 24.8439 37.0761ZM24.8489 35.404C24.8489 35.404 24.8489 35.404 24.8489 35.4036C24.8489 35.404 24.8489 35.404 24.8489 35.404ZM24.8486 35.4008V35.4006V35.4008ZM24.8486 35.4002V35.4V35.4002ZM24.8486 35.3996C24.8486 35.3996 24.8486 35.3996 24.8486 35.3992C24.8486 35.3996 24.8486 35.3996 24.8486 35.3996ZM24.8486 35.399C24.8486 35.3987 24.8486 35.3987 24.8486 35.3987C24.8486 35.3987 24.8486 35.3987 24.8486 35.399Z" fill="#F7D9D5"/>
<path d="M27.8121 38.8829C27.7925 38.8829 27.7727 38.8829 27.7531 38.8825C26.7898 38.8733 25.5818 38.6128 24.7775 38.0928C24.7793 38.0714 24.7815 38.0503 24.7833 38.029C24.7833 38.0284 24.7837 38.0278 24.7837 38.027C24.7837 38.0256 24.784 38.024 24.784 38.0221C24.7843 38.0215 24.7843 38.0209 24.7843 38.0203C24.7843 38.0191 24.7846 38.0175 24.7846 38.0163C24.7849 38.0137 24.7849 38.0115 24.7852 38.0095C24.7852 38.0088 24.7855 38.0082 24.7855 38.0076C24.7855 38.0057 24.7858 38.0036 24.7858 38.0017C24.7861 38.0014 24.7861 38.0008 24.7861 38.0004C24.8131 37.7058 24.8308 37.4079 24.8423 37.1242C24.8423 37.1239 24.8423 37.1236 24.8423 37.1229C24.8426 37.1161 24.8429 37.109 24.8432 37.1022C24.8432 37.1016 24.8432 37.1012 24.8432 37.1006C24.8432 37.099 24.8432 37.0976 24.8435 37.096C24.8435 37.0947 24.8435 37.0935 24.8435 37.0922C24.8435 37.0913 24.8435 37.0901 24.8438 37.0889C24.8438 37.0879 24.8438 37.0873 24.8438 37.0867C24.8438 37.0855 24.8438 37.0845 24.8438 37.0833C24.8441 37.0807 24.8441 37.0783 24.8441 37.0761C24.8441 37.0752 24.8441 37.0746 24.8441 37.0736C24.8773 36.2024 24.8519 35.4762 24.8491 35.404C24.8491 35.404 24.8491 35.404 24.8491 35.4036C24.8491 35.4028 24.8491 35.4018 24.8488 35.4008V35.4006V35.4002V35.4V35.3996C24.8488 35.3996 24.8488 35.3996 24.8488 35.3992V35.399C24.8488 35.3986 24.8488 35.3986 24.8488 35.3986C24.8488 35.3984 24.8488 35.3984 24.8488 35.3984C24.8488 35.398 24.8488 35.398 24.8488 35.398H30.4982C30.4982 35.398 30.4982 35.398 30.4982 35.3984C30.4978 35.4169 30.469 36.9086 30.6361 38.2377C29.758 38.6097 28.844 38.8829 27.8121 38.8829" fill="#ED966F"/>
<path d="M38.6239 42.4728L30.4233 39.5352H24.986L16.7857 42.4728C16.7857 42.4728 13.9139 43.4172 14.2497 48H27.6593H27.7502H41.1599C41.5518 43.1357 38.6239 42.4728 38.6239 42.4728" fill="#F4AE7F"/>
<path d="M38.6239 42.4728L31.9227 40.072L27.709 43.0101L23.5935 40.0339L16.7857 42.4728C16.7857 42.4728 13.9139 43.4172 14.2497 48H41.1599C41.5518 43.1357 38.6239 42.4728 38.6239 42.4728" fill="#58AADE"/>
<path d="M33.8964 28.3866C33.7017 29.5912 34.04 30.6618 34.6505 30.7762C35.261 30.8925 35.9131 30.0101 36.1069 28.8055C36.2997 27.6018 35.9627 26.5311 35.3516 26.4155C34.7413 26.3001 34.0899 27.1826 33.8964 28.3866Z" fill="#F4AE7F"/>
<path d="M34.6309 28.0616C34.6309 28.0616 34.6399 27.994 34.6641 27.884C34.687 27.773 34.7357 27.617 34.811 27.4508C34.8873 27.2905 35.011 27.1048 35.1658 27.0951C35.2045 27.0924 35.2439 27.0995 35.2836 27.1119L35.3431 27.1426L35.3865 27.1786C35.4495 27.2396 35.5003 27.3333 35.5335 27.4412C35.5701 27.5469 35.593 27.6654 35.6054 27.7835C35.6157 27.9004 35.6228 28.0238 35.6092 28.1283C35.5905 28.2489 35.5847 28.3732 35.563 28.478C35.5422 28.5853 35.5229 28.6864 35.5047 28.7794C35.4798 28.8737 35.4609 28.9608 35.4439 29.0386C35.4274 29.1168 35.4036 29.1819 35.3893 29.2374C35.3583 29.3475 35.3425 29.412 35.3425 29.412C35.3425 29.412 35.3735 29.3574 35.4247 29.2569C35.4482 29.2051 35.483 29.1459 35.5127 29.0718C35.5431 28.9983 35.5785 28.9143 35.6135 28.8222C35.6473 28.728 35.6771 28.6213 35.7096 28.5081C35.7437 28.3956 35.7592 28.2808 35.7834 28.1587C35.8067 28.0191 35.8101 27.8846 35.798 27.7457C35.7868 27.6092 35.7629 27.4716 35.7201 27.3379C35.6758 27.2071 35.6079 27.0781 35.5071 26.9848C35.4845 26.9615 35.451 26.941 35.4203 26.9221C35.3865 26.9051 35.3778 26.9045 35.3366 26.8883C35.2764 26.8747 35.2151 26.8694 35.1527 26.8793C35.0262 26.8998 34.9211 26.9938 34.8529 27.0917C34.7825 27.1903 34.7403 27.2967 34.7081 27.3941C34.6458 27.5913 34.6327 27.7621 34.6259 27.8787C34.6219 27.9965 34.6309 28.0616 34.6309 28.0616" fill="#F39870"/>
<path d="M34.6308 28.0616C34.6308 28.0616 34.5743 27.9329 34.9762 27.9026C34.9762 27.9026 35.4255 27.9857 35.1616 28.5853C35.1042 28.714 35.0556 28.8473 35.0267 28.989C34.9867 29.1903 35.0583 29.4631 34.9508 29.6414C34.8115 29.8715 34.4577 29.7406 34.4367 29.4771C34.4205 29.2752 34.628 28.9292 34.7229 28.7856C34.7229 28.7856 35.0115 28.3487 34.6308 28.0616" fill="#F39870"/>
<path d="M34.4367 29.451L34.4057 29.4836C34.3864 29.5068 34.365 29.5453 34.3464 29.5955C34.3353 29.6213 34.3313 29.6498 34.326 29.6814C34.3204 29.713 34.3136 29.7471 34.3185 29.7812C34.321 29.8147 34.3216 29.8519 34.3278 29.8885C34.335 29.9229 34.3492 29.9546 34.361 29.989C34.3759 30.0197 34.3864 30.0566 34.4063 30.0805L34.4658 30.1499C34.5033 30.197 34.5474 30.224 34.5886 30.237C34.668 30.2718 34.7257 30.2711 34.7257 30.2711C34.7257 30.2711 34.703 30.1983 34.663 30.1248L34.6295 30.0681L34.6007 30.0017L34.5675 29.9388L34.5418 29.8715C34.5179 29.8296 34.5077 29.7847 34.4928 29.74L34.4754 29.6737L34.4606 29.6079C34.4447 29.5248 34.4367 29.4507 34.4367 29.451" fill="#F39870"/>
<path d="M21.6125 28.3866C21.8072 29.5912 21.4689 30.6618 20.8587 30.7762C20.2479 30.8925 19.5961 30.0101 19.4023 28.8055C19.2091 27.6018 19.5462 26.5311 20.1573 26.4155C20.7675 26.3001 21.419 27.1826 21.6125 28.3866Z" fill="#F4AE7F"/>
<path d="M20.8782 28.0616C20.8782 28.0616 20.8689 27.994 20.8451 27.884C20.8218 27.773 20.7731 27.617 20.6978 27.4508C20.6212 27.2905 20.4978 27.1048 20.3431 27.0951C20.3046 27.0924 20.2652 27.0995 20.2256 27.1119L20.166 27.1426L20.1226 27.1786C20.0594 27.2396 20.0085 27.3333 19.9753 27.4412C19.9384 27.5469 19.9155 27.6654 19.9034 27.7835C19.8932 27.9004 19.886 28.0238 19.8997 28.1283C19.9183 28.2489 19.9239 28.3732 19.9459 28.478C19.9667 28.5853 19.9859 28.6864 20.0039 28.7794C20.0287 28.8737 20.0479 28.9608 20.0649 29.0386C20.0814 29.1168 20.1056 29.1819 20.1192 29.2374C20.1508 29.3475 20.1663 29.412 20.1663 29.412C20.1663 29.412 20.135 29.3574 20.0842 29.2569C20.0609 29.2051 20.0262 29.1459 19.9961 29.0718C19.9657 28.9983 19.9304 28.9143 19.8953 28.8222C19.8619 28.728 19.8318 28.6213 19.7992 28.5081C19.7654 28.3956 19.7499 28.2808 19.726 28.1587C19.7022 28.0191 19.6988 27.8846 19.7109 27.7457C19.722 27.6092 19.7459 27.4716 19.7887 27.3379C19.8327 27.2071 19.9009 27.0781 20.0017 26.9848C20.0243 26.9615 20.0578 26.941 20.0888 26.9221C20.1223 26.9051 20.131 26.9045 20.1722 26.8883C20.2327 26.8747 20.2941 26.8694 20.3564 26.8793C20.4829 26.8998 20.5877 26.9938 20.6559 27.0917C20.7263 27.1903 20.7685 27.2967 20.8004 27.3941C20.8634 27.5913 20.8764 27.7621 20.8829 27.8787C20.8872 27.9965 20.8782 28.0616 20.8782 28.0616" fill="#F39870"/>
<path d="M20.8781 28.0616C20.8781 28.0616 20.9345 27.9329 20.5324 27.9026C20.5324 27.9026 20.0831 27.9857 20.3473 28.5853C20.4043 28.714 20.453 28.8473 20.4818 28.989C20.5218 29.1903 20.4502 29.4631 20.5578 29.6414C20.6973 29.8715 21.0511 29.7406 21.0716 29.4771C21.0883 29.2752 20.8806 28.9292 20.7857 28.7856C20.7857 28.7856 20.497 28.3487 20.8781 28.0616" fill="#F39870"/>
<path d="M21.0716 29.451L21.1026 29.4836C21.1225 29.5068 21.1436 29.5453 21.1622 29.5955C21.1733 29.6213 21.1771 29.6498 21.1829 29.6814C21.1885 29.713 21.1957 29.7471 21.1904 29.7812C21.1876 29.8147 21.1873 29.8519 21.1808 29.8885C21.1736 29.9229 21.1594 29.9546 21.1479 29.989C21.1327 30.0197 21.1225 30.0566 21.1023 30.0805L21.0428 30.1499C21.0053 30.197 20.9612 30.224 20.92 30.237C20.8406 30.2718 20.783 30.2711 20.783 30.2711C20.783 30.2711 20.8056 30.1983 20.8456 30.1248L20.8794 30.0681L20.9082 30.0017L20.9411 29.9388L20.9671 29.8715C20.9907 29.8296 21.0012 29.7847 21.0158 29.74L21.0332 29.6737L21.0484 29.6079C21.0642 29.5248 21.0716 29.4507 21.0716 29.451" fill="#F39870"/>
<path d="M27.8287 15.3942V15.3924C27.7964 15.3924 27.7642 15.393 27.7329 15.393C27.6994 15.393 27.6681 15.3924 27.6358 15.3924V15.3936C22.7814 15.4367 20.0538 16.819 20.7995 25.6679L21.6348 32.717C21.6348 32.717 21.7836 34.0027 23.1938 34.7723L25.8309 36.727C25.8309 36.727 27.0842 37.2833 27.7341 37.2284C28.3824 37.2833 29.6357 36.7263 29.6357 36.7263L32.2725 34.7717C33.6824 34.0021 33.8312 32.7163 33.8312 32.7163L34.7115 25.8307C35.456 16.9818 32.6824 15.4361 27.8287 15.3942" fill="#F4AE7F"/>
<path d="M33.5352 28.3866C33.3634 29.1369 33.2443 30.3381 32.7566 30.9806C32.4087 31.4392 31.9138 31.676 31.3405 31.7071C30.9514 31.7288 30.5616 31.6943 30.1781 31.627C29.8804 31.5756 29.6004 31.4261 29.2932 31.4196C28.9478 31.4119 28.7152 31.53 28.4228 31.6898C28.0573 31.8893 27.7308 31.868 27.332 31.7446C26.764 31.5672 26.2459 31.3545 25.6384 31.3759C24.9699 31.3992 24.2013 31.5775 23.5464 31.3759C22.8451 31.1604 22.4792 30.5508 22.2048 29.9084C22.0569 29.562 21.9518 28.745 21.8463 28.3866C21.7152 27.9404 21.5102 28.2473 21.104 28.2421L21.6346 33.2183C21.6346 33.2183 21.7834 34.5042 23.1936 35.2738L25.8307 37.2284C25.8307 37.2284 27.084 37.7853 27.7339 37.7301C28.3822 37.7853 29.6355 37.2284 29.6355 37.2284L32.2723 35.273C33.6821 34.5036 33.831 33.2177 33.831 33.2177L34.4142 28.1559C33.9553 28.145 33.6555 27.8638 33.5352 28.3866" fill="#3F1C12"/>
<path d="M24.1563 26.2468C24.1594 26.7063 24.4174 27.0781 24.7328 27.0763C25.0487 27.0744 25.3027 26.6998 25.2992 26.2397C25.2964 25.7805 25.0385 25.4081 24.7231 25.4103C24.4075 25.4121 24.1535 25.7867 24.1563 26.2468Z" fill="#2A1811"/>
<path d="M24.5008 25.9814C24.5008 26.1184 24.3898 26.2288 24.2537 26.2288C24.1167 26.2288 24.006 26.1184 24.006 25.9814C24.006 25.845 24.1167 25.7336 24.2537 25.7336C24.3898 25.7336 24.5008 25.845 24.5008 25.9814Z" fill="white"/>
<path d="M31.3526 26.2468C31.3499 26.7063 31.0916 27.0781 30.7765 27.0763C30.4606 27.0744 30.2066 26.6998 30.2097 26.2397C30.2125 25.7805 30.4708 25.4081 30.7862 25.4103C31.1018 25.4121 31.3554 25.7867 31.3526 26.2468Z" fill="#2A1811"/>
<path d="M31.0079 25.9814C31.0079 26.1184 31.1186 26.2288 31.2548 26.2288C31.3921 26.2288 31.5025 26.1184 31.5025 25.9814C31.5025 25.845 31.3921 25.7336 31.2548 25.7336C31.1186 25.7336 31.0079 25.845 31.0079 25.9814Z" fill="white"/>
<path d="M28.5945 30.7241C28.4634 30.8494 28.3061 30.9508 28.1362 31.027C27.966 31.1043 27.7806 31.1557 27.5874 31.1762C27.4907 31.1908 27.3921 31.1908 27.2925 31.1892C27.1946 31.1784 27.0929 31.1743 26.9958 31.147C26.8966 31.1281 26.8008 31.0962 26.7062 31.0587C26.6107 31.0239 26.5236 30.9734 26.433 30.9266L26.3193 30.8689L26.2938 30.6776C26.2827 30.5923 26.2752 30.5176 26.2727 30.4385C26.2678 30.3604 26.2718 30.2832 26.2734 30.206C26.282 30.0516 26.3013 29.8978 26.3369 29.7468C26.3717 29.5952 26.4206 29.446 26.4913 29.3015C26.5549 29.1564 26.6461 29.0166 26.7605 28.886C26.8293 29.0504 26.8628 29.2042 26.8904 29.3555C26.922 29.5071 26.9347 29.6544 26.9456 29.8004C26.9518 29.9462 26.9546 30.091 26.949 30.2348L26.9357 30.4494C26.9301 30.5201 26.9226 30.5945 26.914 30.6587L26.7754 30.4094C26.8371 30.4463 26.8929 30.4978 26.9577 30.5313C27.0219 30.5666 27.0854 30.605 27.1546 30.6317C27.2215 30.6652 27.2938 30.6838 27.3654 30.7108C27.4395 30.7263 27.5136 30.752 27.5914 30.7619C27.669 30.7784 27.749 30.7821 27.8296 30.7871C27.9111 30.7933 27.9939 30.7939 28.0779 30.7905C28.2454 30.7815 28.4184 30.7635 28.5945 30.7241" fill="#EB946F"/>
<path d="M25.9247 24.5495C25.872 24.7638 25.6677 24.8915 25.472 24.8559C24.6783 24.7104 23.8811 24.7852 23.1624 25.0493C22.985 25.1145 22.7695 25.0193 22.669 24.8227C22.5692 24.6267 22.6535 24.3874 22.8697 24.3074C23.7199 23.9911 24.6587 23.9009 25.5899 24.0664C25.8261 24.1083 25.9781 24.3359 25.9247 24.5495" fill="#3F1C12"/>
<path d="M29.3643 24.5495C29.417 24.7638 29.6216 24.8915 29.8173 24.8559C30.6107 24.7104 31.4079 24.7852 32.1269 25.0493C32.3043 25.1145 32.5198 25.0193 32.6202 24.8227C32.7201 24.6267 32.6361 24.3874 32.4196 24.3074C31.5694 23.9911 30.6306 23.9009 29.6998 24.0664C29.4629 24.1083 29.3112 24.3359 29.3643 24.5495" fill="#3F1C12"/>
<path d="M27.9481 33.6834L27.9577 33.7144L27.9484 33.6831L27.9481 33.6834L27.9577 33.7144L27.9484 33.6831C27.9428 33.6847 27.8219 33.7194 27.6368 33.7191C27.5503 33.7191 27.4498 33.7116 27.34 33.6903C27.256 33.6738 27.1745 33.7284 27.158 33.8127C27.1416 33.8968 27.1965 33.978 27.2805 33.9944C27.412 34.0202 27.5323 34.0292 27.6368 34.0292C27.8749 34.0292 28.0284 33.9829 28.0392 33.9795C28.1208 33.9544 28.167 33.8676 28.1419 33.7857C28.1164 33.7042 28.0299 33.6579 27.9481 33.6834" fill="#EB8876"/>
<path d="M26.112 32.4181L26.5092 33.1982C26.5092 33.1982 28.2824 34.1948 29.5338 32.4574C29.5338 32.4574 27.5879 32.5477 26.112 32.4181Z" fill="white"/>
<path d="M24.2998 17.4277C24.2998 17.4277 26.1122 19.6211 30.2097 20.1996C30.2097 20.1996 34.3723 21.6374 34.3168 23.9849L33.5826 28.2421L34.4145 28.1559C34.4145 28.1559 34.4371 26.4403 35.3515 26.4155C35.3515 26.4155 36.1744 22.971 36.1614 22.3813C36.148 21.7915 35.0011 15.953 35.0011 15.953L30.5374 12.7692C30.5374 12.7692 25.7103 12.0614 23.4695 11C23.4695 11 23.9808 12.3569 24.728 12.7692C24.728 12.7692 21.9294 13.0644 21.6674 13.0049C21.4057 12.9463 22.0543 14.4796 22.0543 14.4796L19.7041 18.0766L20.1574 26.4155C20.1574 26.4155 20.8842 26.4874 21.1043 28.2421H21.7868L21.6674 22.8916C21.6674 22.8916 22.6273 19.578 24.2998 17.4277" fill="#3F1C12"/>
<path d="M24.1144 17.2335C23.334 16.4416 22.5377 15.5397 22.0286 14.5183L19.7041 18.0766L19.7053 18.0977C20.4724 19.3274 21.2395 20.5593 22.0472 21.763C22.4732 20.6043 23.2444 18.7848 24.2998 17.4276C24.2998 17.4276 24.5364 17.7129 25.0285 18.1036C24.7147 17.8227 24.4096 17.5334 24.1144 17.2335" fill="#2E130B"/>
<path d="M27.7065 42.9968L27.154 40.1728L24.2288 38.4023L23.8028 40.183L27.7065 42.9968Z" fill="#7178C0"/>
<path d="M27.7064 42.9968L28.259 40.1728L31.1844 38.4023L31.6108 40.183L27.7064 42.9968Z" fill="#7178C0"/>
<path d="M29.1056 40.5548H26.3129C26.3129 40.5548 25.6887 40.9331 25.9554 41.5898L26.8443 42.9968H27.5113H27.9072H28.5742L29.4631 41.5898C29.7298 40.9331 29.1056 40.5548 29.1056 40.5548Z" fill="#6347A5"/>
<path d="M27.6904 42.9968H26.8443L26.1323 41.8697L26.8443 42.9968H27.5112H27.6904" fill="#3A459F"/>
<path d="M29.4646 41.5858C29.5226 41.4415 29.5375 41.3107 29.5254 41.1945C29.5375 41.3107 29.5226 41.4415 29.4646 41.5858ZM29.5254 41.1929C29.5254 41.1925 29.5254 41.1923 29.5254 41.1917C29.5254 41.1923 29.5254 41.1925 29.5254 41.1929Z" fill="#403996"/>
<path d="M28.5739 42.9968H26.8441L26.1322 41.8697L25.9551 41.5898C25.9083 41.4743 25.8888 41.3674 25.8888 41.2698C25.8885 40.8118 26.3126 40.5548 26.3126 40.5548H26.809C26.4931 40.924 26.5749 41.4862 26.7225 41.9817C26.8645 42.4595 27.2931 42.7156 27.7634 42.7156C27.8412 42.7156 27.9203 42.7084 27.9994 42.6943C28.6207 42.5836 29.0393 42.1286 29.2399 41.5473C29.3395 41.2583 29.3513 40.9786 29.2958 40.7169C29.3962 40.8254 29.5029 40.9854 29.5252 41.1917C29.5252 41.1922 29.5252 41.1925 29.5252 41.1929C29.5252 41.1935 29.5252 41.1938 29.5252 41.1945C29.5373 41.3107 29.5224 41.4415 29.4644 41.5858C29.4638 41.5872 29.4635 41.5886 29.4629 41.5898L28.5739 42.9968" fill="#3E3493"/>
<path d="M26.8414 42.9968L25.8864 48H29.5316L28.5719 42.9968H26.8414Z" fill="#6347A5"/>
<path d="M27.1539 40.1728L25.771 42.706L22.3898 40.409L24.2288 38.4023L27.1539 40.1728Z" fill="#8CB6E0"/>
<path d="M28.2591 40.1728L29.6426 42.706L33.0235 40.409L31.1845 38.4023L28.2591 40.1728Z" fill="#8CB6E0"/>
</g>
<path d="M66.8228 35.5L65.7203 31.87C65.5028 31.1575 64.4978 31.1575 64.2878 31.87L63.1778 35.5H59.8403C59.1128 35.5 58.8128 36.4375 59.4053 36.8575L62.1353 38.8075L61.0628 42.265C60.8453 42.9625 61.6553 43.525 62.2328 43.0825L65.0003 40.9825L67.7678 43.09C68.3453 43.5325 69.1553 42.97 68.9378 42.2725L67.8653 38.815L70.5953 36.865C71.1878 36.4375 70.8878 35.5075 70.1603 35.5075H66.8228V35.5Z" fill="#F8D056"/>
<path d="M84.8227 35.5L83.7202 31.87C83.5027 31.1575 82.4977 31.1575 82.2877 31.87L81.1777 35.5H77.8402C77.1127 35.5 76.8127 36.4375 77.4052 36.8575L80.1352 38.8075L79.0627 42.265C78.8452 42.9625 79.6552 43.525 80.2327 43.0825L83.0002 40.9825L85.7677 43.09C86.3452 43.5325 87.1552 42.97 86.9377 42.2725L85.8652 38.815L88.5952 36.865C89.1877 36.4375 88.8877 35.5075 88.1602 35.5075H84.8227V35.5Z" fill="#F8D056"/>
<path d="M102.823 35.5L101.72 31.87C101.503 31.1575 100.498 31.1575 100.288 31.87L99.1777 35.5H95.8402C95.1127 35.5 94.8127 36.4375 95.4052 36.8575L98.1352 38.8075L97.0627 42.265C96.8452 42.9625 97.6552 43.525 98.2327 43.0825L101 40.9825L103.768 43.09C104.345 43.5325 105.155 42.97 104.938 42.2725L103.865 38.815L106.595 36.865C107.188 36.4375 106.888 35.5075 106.16 35.5075H102.823V35.5Z" fill="#F8D056"/>
<path d="M120.823 35.5L119.72 31.87C119.503 31.1575 118.498 31.1575 118.288 31.87L117.178 35.5H113.84C113.113 35.5 112.813 36.4375 113.405 36.8575L116.135 38.8075L115.063 42.265C114.845 42.9625 115.655 43.525 116.233 43.0825L119 40.9825L121.768 43.09C122.345 43.5325 123.155 42.97 122.938 42.2725L121.865 38.815L124.595 36.865C125.188 36.4375 124.888 35.5075 124.16 35.5075H120.823V35.5Z" fill="#F8D056"/>
<path d="M135.823 35.5L134.72 31.87C134.503 31.1575 133.498 31.1575 133.288 31.87L132.178 35.5H128.84C128.113 35.5 127.813 36.4375 128.405 36.8575L131.135 38.8075L130.063 42.265C129.845 42.9625 130.655 43.525 131.233 43.0825L134 40.9825L136.768 43.09C137.345 43.5325 138.155 42.97 137.938 42.2725L136.865 38.815L139.595 36.865C140.188 36.4375 139.888 35.5075 139.16 35.5075H135.823V35.5Z" fill="#E8E8E9"/>
<path d="M61.418 13.62V19.626C61.418 20.522 60.83 21.152 59.948 21.152C59.066 21.152 58.534 20.578 58.436 19.612L56.196 20.06C56.476 21.978 57.862 23.21 59.948 23.21C61.082 23.21 61.992 22.874 62.678 22.216C63.378 21.544 63.728 20.676 63.728 19.626V13.62H61.418ZM68.7596 15.79C67.6676 15.79 66.7436 16.14 65.9876 16.826C65.2456 17.512 64.8676 18.408 64.8676 19.486C64.8676 20.578 65.2456 21.474 65.9876 22.16C66.7436 22.846 67.6676 23.196 68.7596 23.196C69.8376 23.196 70.7476 22.846 71.4896 22.16C72.2316 21.474 72.6096 20.578 72.6096 19.486C72.6096 18.408 72.2316 17.512 71.4896 16.826C70.7476 16.14 69.8376 15.79 68.7596 15.79ZM68.7596 21.306C67.8076 21.306 67.0236 20.55 67.0236 19.486C67.0236 18.954 67.1916 18.52 67.5416 18.184C67.8916 17.834 68.2976 17.666 68.7596 17.666C69.2076 17.666 69.5996 17.834 69.9356 18.184C70.2856 18.52 70.4536 18.954 70.4536 19.486C70.4536 20.018 70.2856 20.452 69.9496 20.802C69.6136 21.138 69.2216 21.306 68.7596 21.306ZM78.1751 15.762C77.2931 15.762 76.5791 16.056 76.0051 16.644V12.92H73.7651V23H76.0051V19.738C76.0051 18.436 76.5511 17.778 77.4471 17.778C78.1751 17.778 78.6651 18.338 78.6651 19.164V23H80.8911V18.688C80.8911 17.806 80.6391 17.106 80.1351 16.574C79.6451 16.028 78.9871 15.762 78.1751 15.762ZM86.8291 15.762C85.9471 15.762 85.2331 16.056 84.6731 16.644V15.972H82.4331V23H84.6731V19.738C84.6731 18.408 85.2191 17.778 86.1291 17.778C86.8431 17.778 87.3331 18.338 87.3331 19.164V23H89.5591V18.688C89.5591 17.806 89.3071 17.106 88.8031 16.574C88.3131 16.028 87.6551 15.762 86.8291 15.762ZM94.3413 23H98.0513C99.5913 23 100.837 22.566 101.775 21.712C102.713 20.844 103.189 19.71 103.189 18.31C103.189 16.91 102.713 15.776 101.775 14.922C100.837 14.054 99.5913 13.62 98.0513 13.62H94.3413V23ZM96.6513 15.622H97.9673C99.7173 15.622 100.865 16.686 100.865 18.31C100.865 19.934 99.7173 20.998 97.9673 20.998H96.6513V15.622ZM107.916 15.79C106.824 15.79 105.9 16.14 105.144 16.826C104.402 17.512 104.024 18.408 104.024 19.486C104.024 20.578 104.402 21.474 105.144 22.16C105.9 22.846 106.824 23.196 107.916 23.196C108.994 23.196 109.904 22.846 110.646 22.16C111.388 21.474 111.766 20.578 111.766 19.486C111.766 18.408 111.388 17.512 110.646 16.826C109.904 16.14 108.994 15.79 107.916 15.79ZM107.916 21.306C106.964 21.306 106.18 20.55 106.18 19.486C106.18 18.954 106.348 18.52 106.698 18.184C107.048 17.834 107.454 17.666 107.916 17.666C108.364 17.666 108.756 17.834 109.092 18.184C109.442 18.52 109.61 18.954 109.61 19.486C109.61 20.018 109.442 20.452 109.106 20.802C108.77 21.138 108.378 21.306 107.916 21.306ZM119.809 19.486C119.795 18.366 119.431 17.47 118.745 16.784C118.059 16.098 117.205 15.762 116.183 15.762C115.133 15.762 114.251 16.112 113.537 16.812C112.823 17.512 112.459 18.408 112.459 19.486C112.459 20.578 112.823 21.474 113.537 22.174C114.251 22.86 115.133 23.21 116.169 23.21C117.807 23.21 119.053 22.468 119.655 21.012L117.667 20.606C117.373 21.152 116.869 21.418 116.169 21.418C115.427 21.418 114.839 20.9 114.657 20.06H119.809V19.486ZM116.183 17.582C116.855 17.582 117.387 17.96 117.597 18.688H114.699C114.909 18.002 115.525 17.582 116.183 17.582Z" fill="#2B2B59"/>
<rect x="10" y="56" width="142" height="9" rx="4.5" fill="#E8E8EB"/>
<rect x="10" y="119" width="101" height="9" rx="4.5" fill="#E8E8EB"/>
<rect x="10" y="103" width="137" height="9" rx="4.5" fill="#E8E8EB"/>
<rect x="10" y="87" width="124" height="9" rx="4.5" fill="#E8E8EB"/>
<rect x="10" y="71" width="133" height="9" rx="4.5" fill="#E8E8EB"/>
<defs>
<linearGradient id="paint0_linear_2_264" x1="-0.730769" y1="2.73077" x2="43.9231" y2="48.0769" gradientUnits="userSpaceOnUse">
<stop stop-color="#FF6972"/>
<stop offset="1" stop-color="#B903C9"/>
</linearGradient>
</defs>
</svg>
