<svg width="174" height="138" viewBox="0 0 174 138" fill="none" xmlns="http://www.w3.org/2000/svg">
<rect x="0.5" y="0.5" width="173" height="137" rx="2.5" fill="white" stroke="#E8E8E9"/>
<mask id="mask0_7_12" style="mask-type:alpha" maskUnits="userSpaceOnUse" x="10" y="10" width="36" height="36">
<rect x="10" y="10" width="36" height="36" rx="2.07692" fill="url(#paint0_linear_7_12)"/>
</mask>
<g mask="url(#mask0_7_12)">
<rect x="10" y="10" width="36" height="36" rx="2.07692" fill="#E8E8E9"/>
<path d="M24.0938 40.6992H31.3215V38.038H24.0938V40.6992Z" fill="#76BEC9"/>
<path d="M30.6078 34.9011H24.7356C24.7356 34.9011 24.8845 38.6091 24.1652 39.6855H27.7088H31.2527C30.5333 38.6091 30.6078 34.9011 30.6078 34.9011Z" fill="#F4AE7F"/>
<path d="M30.7509 37.8533C30.5775 36.4713 30.6075 34.9208 30.6078 34.9014C30.6075 34.9211 30.5778 36.4713 30.7512 37.853C30.7512 37.8533 30.7512 37.853 30.7509 37.8533V37.8533ZM24.6615 37.7021C24.7923 36.365 24.7366 34.9285 24.7356 34.9014C24.7366 34.9285 24.7927 36.365 24.6615 37.7021Z" fill="#F7D9D5"/>
<path d="M27.8145 38.5236C27.7945 38.5236 27.7745 38.5236 27.7542 38.5236C26.7532 38.5136 25.4975 38.2432 24.6615 37.7021C24.7927 36.3649 24.7366 34.9285 24.7356 34.9014C24.7356 34.9011 24.7356 34.9011 24.7356 34.9011H30.6078V34.9014C30.6075 34.9207 30.5775 36.4713 30.7509 37.8533C29.8378 38.24 28.8877 38.5236 27.8145 38.5236" fill="#ED966F"/>
<path d="M39.0538 42.2548L30.5301 39.2018H24.8784L16.3545 42.2548C16.3545 42.2548 13.3701 43.2372 13.7188 48H27.6572H27.7517H41.6901C42.0975 42.9442 39.0538 42.2548 39.0538 42.2548" fill="#F4AE7F"/>
<path d="M39.0538 42.2548L32.0884 39.7596L27.7088 42.8137L23.431 39.72L16.3545 42.2548C16.3545 42.2548 13.3701 43.2372 13.7188 48H41.6901C42.0975 42.9442 39.0538 42.2548 39.0538 42.2548" fill="#274596"/>
<path d="M34.1399 27.6138C33.9375 28.8656 34.2891 29.9784 34.9237 30.0977C35.5583 30.2179 36.236 29.3013 36.4375 28.0489C36.6379 26.7974 36.2876 25.6849 35.6524 25.565C35.0181 25.4448 34.341 26.362 34.1399 27.6138Z" fill="#F4AE7F"/>
<path d="M34.903 27.2757C34.903 27.2757 34.9127 27.2058 34.9375 27.0914C34.9617 26.9757 35.0123 26.8135 35.0906 26.6411C35.1699 26.4738 35.2985 26.2814 35.4593 26.2708C35.4993 26.2685 35.5405 26.2756 35.5815 26.2885L35.6437 26.3204L35.6885 26.3578C35.7542 26.421 35.8071 26.5186 35.8416 26.6308C35.8796 26.7407 35.9034 26.8641 35.916 26.9863C35.927 27.1084 35.9344 27.2361 35.9202 27.345C35.9009 27.4704 35.8947 27.5999 35.8722 27.7085C35.8506 27.8201 35.8306 27.9251 35.8116 28.0225C35.7858 28.1198 35.7661 28.2104 35.7484 28.2912C35.7313 28.3728 35.7065 28.4401 35.6917 28.4978C35.6595 28.6122 35.643 28.6796 35.643 28.6796C35.643 28.6796 35.6752 28.6222 35.7284 28.5178C35.7529 28.464 35.789 28.4028 35.82 28.3254C35.8515 28.249 35.8883 28.1627 35.9247 28.0663C35.9598 27.9686 35.9908 27.8574 36.0246 27.7401C36.0601 27.6228 36.0762 27.5036 36.1013 27.3763C36.1255 27.2315 36.129 27.0917 36.1165 26.9476C36.1049 26.8055 36.08 26.6624 36.0356 26.5238C35.9895 26.3875 35.9189 26.254 35.8142 26.1567C35.7906 26.1325 35.7558 26.1109 35.7239 26.0916C35.6888 26.0732 35.6794 26.0726 35.6369 26.0562C35.5741 26.0417 35.5102 26.0362 35.4458 26.0468C35.314 26.0678 35.205 26.1657 35.1341 26.2676C35.061 26.3701 35.0171 26.4803 34.9836 26.5818C34.9188 26.7871 34.9053 26.9647 34.8982 27.0859C34.894 27.2083 34.903 27.2757 34.903 27.2757" fill="#F39870"/>
<path d="M34.903 27.2757C34.903 27.2757 34.8444 27.1416 35.2624 27.1107C35.2624 27.1107 35.7294 27.1971 35.4548 27.8201C35.3955 27.9541 35.3449 28.0927 35.3149 28.2397C35.2734 28.4488 35.3478 28.7321 35.236 28.9175C35.0913 29.1572 34.7235 29.0209 34.7016 28.747C34.6848 28.5375 34.9005 28.1778 34.9991 28.0286C34.9991 28.0286 35.2991 27.5738 34.903 27.2757" fill="#F39870"/>
<path d="M34.7019 28.7202L34.6693 28.754C34.6497 28.7782 34.6274 28.8179 34.6081 28.8704C34.5965 28.8968 34.5923 28.9265 34.5868 28.9593C34.581 28.9922 34.5733 29.0277 34.5791 29.0631C34.5817 29.0982 34.5823 29.1369 34.5888 29.1746C34.5962 29.2104 34.611 29.2436 34.6232 29.2787C34.6387 29.3113 34.6493 29.349 34.6703 29.3738L34.7322 29.446C34.7712 29.4953 34.8169 29.5234 34.8598 29.5369C34.9423 29.573 35.0023 29.572 35.0023 29.572C35.0023 29.572 34.9787 29.4969 34.9372 29.4205L34.902 29.3616L34.8724 29.2923L34.8379 29.2265L34.8108 29.1569C34.7863 29.1137 34.7757 29.0667 34.7602 29.0203L34.7422 28.9513L34.7267 28.8833C34.7099 28.7966 34.7019 28.7196 34.7019 28.7202" fill="#F39870"/>
<path d="M21.3721 27.6138C21.5745 28.8656 21.2229 29.9784 20.5883 30.0977C19.9537 30.2179 19.2759 29.3013 19.0745 28.0489C18.874 26.7974 19.2244 25.6849 19.8596 25.565C20.4939 25.4448 21.171 26.362 21.3721 27.6138Z" fill="#F4AE7F"/>
<path d="M20.6085 27.2757C20.6085 27.2757 20.5988 27.2058 20.574 27.0914C20.5495 26.9757 20.4992 26.8135 20.4209 26.6411C20.3413 26.4738 20.213 26.2814 20.0522 26.2708C20.0122 26.2685 19.9713 26.2756 19.93 26.2885L19.8678 26.3204L19.823 26.3578C19.7573 26.421 19.7044 26.5186 19.67 26.6308C19.6316 26.7407 19.6078 26.8641 19.5952 26.9863C19.5846 27.1084 19.5771 27.2361 19.5913 27.345C19.6107 27.4704 19.6165 27.5999 19.6393 27.7085C19.6609 27.8201 19.6809 27.9251 19.6996 28.0225C19.7254 28.1198 19.7454 28.2104 19.7631 28.2912C19.7802 28.3728 19.805 28.4401 19.8195 28.4978C19.8524 28.6122 19.8685 28.6796 19.8685 28.6796C19.8685 28.6796 19.8356 28.6222 19.7831 28.5178C19.7586 28.464 19.7225 28.4028 19.6916 28.3254C19.6596 28.249 19.6232 28.1627 19.5868 28.0663C19.552 27.9686 19.5207 27.8574 19.4869 27.7401C19.4514 27.6228 19.4353 27.5036 19.4102 27.3763C19.386 27.2315 19.3825 27.0917 19.395 26.9476C19.4066 26.8055 19.4315 26.6624 19.4759 26.5238C19.5217 26.3875 19.5926 26.254 19.6974 26.1567C19.7209 26.1325 19.7557 26.1109 19.7879 26.0916C19.8224 26.0732 19.8317 26.0726 19.8746 26.0562C19.9375 26.0417 20.0013 26.0362 20.0657 26.0468C20.1975 26.0678 20.3065 26.1657 20.3774 26.2676C20.4505 26.3701 20.4944 26.4803 20.5276 26.5818C20.5927 26.7871 20.6062 26.9647 20.6133 27.0859C20.6175 27.2083 20.6085 27.2757 20.6085 27.2757" fill="#F39870"/>
<path d="M20.6091 27.2757C20.6091 27.2757 20.6677 27.1416 20.2497 27.1107C20.2497 27.1107 19.7827 27.1971 20.0573 27.8201C20.1163 27.9541 20.1672 28.0927 20.1972 28.2397C20.2388 28.4488 20.1643 28.7321 20.2762 28.9175C20.4209 29.1572 20.7886 29.0209 20.8102 28.747C20.8276 28.5375 20.6117 28.1778 20.513 28.0286C20.513 28.0286 20.213 27.5738 20.6091 27.2757" fill="#F39870"/>
<path d="M20.8101 28.7202L20.8423 28.754C20.8629 28.7782 20.8848 28.8179 20.9042 28.8704C20.9158 28.8968 20.9196 28.9265 20.9258 28.9593C20.9309 28.9922 20.939 29.0277 20.9335 29.0631C20.9306 29.0982 20.93 29.1369 20.9232 29.1746C20.9161 29.2104 20.9013 29.2436 20.8893 29.2787C20.8732 29.3113 20.8629 29.349 20.842 29.3738L20.7801 29.446C20.7411 29.4953 20.6953 29.5234 20.6525 29.5369C20.57 29.573 20.51 29.572 20.51 29.572C20.51 29.572 20.5335 29.4969 20.5751 29.4205L20.6102 29.3616L20.6402 29.2923L20.6744 29.2265L20.7014 29.1569C20.7259 29.1137 20.7366 29.0667 20.7521 29.0203L20.7701 28.9513L20.7859 28.8833C20.8023 28.7966 20.8101 28.7196 20.8101 28.7202" fill="#F39870"/>
<path d="M27.8327 14.1084V14.1068C27.7992 14.1068 27.766 14.1075 27.7332 14.1075C27.6987 14.1075 27.6661 14.1068 27.6326 14.1068V14.1081C22.5865 14.1526 19.7516 15.5897 20.5261 24.7879L21.395 32.1145C21.395 32.1145 21.5497 33.4511 23.0155 34.251L25.7565 36.2827C25.7565 36.2827 27.0593 36.8613 27.7345 36.8039C28.4087 36.8613 29.7114 36.2824 29.7114 36.2824L32.4521 34.2504C33.9176 33.4504 34.0723 32.1139 34.0723 32.1139L34.9873 24.9568C35.7611 15.7586 32.8782 14.1523 27.8327 14.1084" fill="#F4AE7F"/>
<path d="M24.0164 25.3896C24.0196 25.8669 24.2878 26.2534 24.6155 26.2514C24.9439 26.2495 25.2076 25.8605 25.2044 25.3822C25.2015 24.9043 24.9333 24.5182 24.6055 24.5198C24.2774 24.5217 24.0135 24.911 24.0164 25.3896" fill="#2A1811"/>
<path d="M24.3742 25.1134C24.3742 25.2559 24.2589 25.371 24.1174 25.371C23.9749 25.371 23.8599 25.2559 23.8599 25.1134C23.8599 24.9716 23.9749 24.8566 24.1174 24.8566C24.2589 24.8566 24.3742 24.9716 24.3742 25.1134Z" fill="white"/>
<path d="M31.4957 25.3896C31.4928 25.8669 31.2244 26.2534 30.8966 26.2514C30.5685 26.2495 30.3045 25.8605 30.3078 25.3822C30.3107 24.9043 30.5791 24.5182 30.9069 24.5198C31.235 24.5217 31.4986 24.911 31.4957 25.3896" fill="#2A1811"/>
<path d="M31.1378 25.1134C31.1378 25.2559 31.2532 25.371 31.3947 25.371C31.5371 25.371 31.6522 25.2559 31.6522 25.1134C31.6522 24.9716 31.5371 24.8566 31.3947 24.8566C31.2532 24.8566 31.1378 24.9716 31.1378 25.1134Z" fill="white"/>
<path d="M28.6295 30.0432C28.4938 30.1747 28.3295 30.2782 28.1532 30.3578C27.9759 30.438 27.7835 30.4915 27.5827 30.5131C27.3816 30.5424 27.1724 30.526 26.9684 30.4815C26.865 30.4625 26.7647 30.4306 26.6668 30.3916C26.5675 30.3552 26.4766 30.3026 26.3825 30.2543L26.251 30.1869L26.2381 29.9978C26.2242 29.7999 26.2223 29.6236 26.2288 29.4396C26.2291 29.2565 26.2513 29.077 26.2658 28.8962C26.281 28.715 26.3145 28.5378 26.3441 28.3592C26.3699 28.1804 26.4144 28.0054 26.4589 27.8304C26.5433 27.4797 26.6668 27.1394 26.8034 26.8064C26.864 26.6379 26.9546 26.4787 27.038 26.3188C27.1241 26.1599 27.214 26.0033 27.3146 25.8521C27.3088 26.0365 27.2923 26.215 27.2723 26.3913C27.253 26.5679 27.223 26.74 27.2076 26.915C27.1921 27.0904 27.1676 27.2618 27.1421 27.433C27.1167 27.6041 27.107 27.7778 27.0832 27.948C27.059 28.1182 27.0371 28.2883 27.021 28.4588C27.0068 28.6293 26.9749 28.7982 26.9652 28.9684C26.9491 29.1379 26.9281 29.3081 26.9172 29.4763C26.9024 29.6436 26.8901 29.8189 26.8824 29.9726L26.738 29.7164C26.8024 29.7548 26.8605 29.8086 26.9278 29.8431C26.9945 29.8795 27.0603 29.9207 27.1318 29.9491C27.2011 29.9855 27.2769 30.0036 27.3516 30.0306C27.4287 30.0451 27.5057 30.0722 27.5869 30.0828C27.6671 30.0993 27.7503 30.1038 27.8344 30.1086C27.9192 30.1151 28.0049 30.1154 28.0926 30.1122C28.2669 30.1035 28.4458 30.0828 28.6295 30.0432" fill="#EB946F"/>
<path d="M25.8543 23.6251C25.7995 23.8481 25.5871 23.9809 25.3837 23.9439C24.5587 23.7927 23.7301 23.87 22.983 24.145C22.7983 24.212 22.5743 24.1134 22.4702 23.909C22.3664 23.7054 22.4541 23.4565 22.6787 23.3734C23.5625 23.045 24.5384 22.9509 25.5062 23.123C25.7518 23.1665 25.9097 23.403 25.8543 23.6251" fill="#63322D"/>
<path d="M29.4296 23.6251C29.4844 23.8481 29.6971 23.9809 29.9004 23.9439C30.7252 23.7927 31.5538 23.87 32.3012 24.145C32.4855 24.212 32.7095 24.1134 32.8136 23.909C32.9177 23.7054 32.8304 23.4565 32.6054 23.3734C31.7217 23.045 30.7458 22.9509 29.778 23.123C29.5321 23.1665 29.3745 23.403 29.4296 23.6251" fill="#63322D"/>
<path d="M27.7087 42.8137L27.1347 39.8776L24.0939 38.038L23.6508 39.8892L27.7087 42.8137Z" fill="#76BEC9"/>
<path d="M27.1348 39.8776L25.6967 42.5117L22.1821 40.1235L24.094 38.038L27.1348 39.8776Z" fill="#C2EAE4"/>
<path d="M27.709 42.8137L28.2833 39.8776L31.3241 38.038L31.767 39.8892L27.709 42.8137Z" fill="#76BEC9"/>
<path d="M28.2833 39.8776L29.7211 42.5117L33.2357 40.1235L31.3241 38.038L28.2833 39.8776" fill="#C2EAE4"/>
<path d="M27.957 33.1191L27.9677 33.1543L27.9574 33.1191H27.957L27.9677 33.1543L27.9574 33.1191C27.9519 33.1208 27.8259 33.1565 27.6338 33.1565C27.5439 33.1565 27.4391 33.1485 27.325 33.1262C27.2377 33.1092 27.1529 33.1662 27.1358 33.2535C27.1188 33.3409 27.1758 33.4253 27.2631 33.4424C27.3998 33.4691 27.5252 33.4788 27.6338 33.4788C27.881 33.4785 28.0402 33.4305 28.0515 33.4273C28.1365 33.4011 28.1846 33.3109 28.1585 33.2258C28.1324 33.1407 28.0421 33.093 27.957 33.1191" fill="#EB8876"/>
<path d="M26.0488 31.8039L26.462 32.6151C26.462 32.6151 28.3052 33.6509 29.606 31.8445C29.606 31.8445 27.5833 31.9386 26.0488 31.8039" fill="white"/>
<path d="M33.7491 21.604C33.7491 21.604 34.4089 22.0179 34.2635 23.6022L34.1945 26.7449H34.7395C34.7395 26.7449 34.7012 25.5544 35.6529 25.565L36.1241 18.539C36.1241 18.539 36.4947 15.7348 34.0833 14.1069C34.0833 14.1069 32.0626 13.5741 31.4963 11.9192C31.4963 11.9192 31.3268 12.8387 31.4963 13.3901C31.4963 13.3901 29.87 12.9305 30.3083 11C30.3083 11 29.0079 11.5244 28.9995 12.8387C28.9995 12.8387 28.9409 11.2756 28.0049 11C28.0049 11 28.3478 12.1947 27.2946 12.6546C27.2946 12.6546 22.7774 12.4709 21.4292 14.6773C21.4292 14.6773 18.9888 15.8769 19.3885 20.9843L19.8597 25.565C19.8597 25.565 20.4984 25.8686 20.9351 26.7414H21.4292V22.5844C21.4292 22.5844 21.4028 21.604 22.1824 21.604C22.1824 21.604 21.4292 17.9264 23.6511 17.3746C23.6511 17.3746 26.9771 16.4857 27.8277 18.1484C27.8277 18.1484 27.9634 16.8012 32.0339 17.3208C32.0339 17.3208 34.5774 17.6811 33.7491 21.604" fill="#63322D"/>
</g>
<path d="M66.8228 35.5L65.7203 31.87C65.5028 31.1575 64.4978 31.1575 64.2878 31.87L63.1778 35.5H59.8403C59.1128 35.5 58.8128 36.4375 59.4053 36.8575L62.1353 38.8075L61.0628 42.265C60.8453 42.9625 61.6553 43.525 62.2328 43.0825L65.0003 40.9825L67.7678 43.09C68.3453 43.5325 69.1553 42.97 68.9378 42.2725L67.8653 38.815L70.5953 36.865C71.1878 36.4375 70.8878 35.5075 70.1603 35.5075H66.8228V35.5Z" fill="#F8D056"/>
<path d="M84.8227 35.5L83.7202 31.87C83.5027 31.1575 82.4977 31.1575 82.2877 31.87L81.1777 35.5H77.8402C77.1127 35.5 76.8127 36.4375 77.4052 36.8575L80.1352 38.8075L79.0627 42.265C78.8452 42.9625 79.6552 43.525 80.2327 43.0825L83.0002 40.9825L85.7677 43.09C86.3452 43.5325 87.1552 42.97 86.9377 42.2725L85.8652 38.815L88.5952 36.865C89.1877 36.4375 88.8877 35.5075 88.1602 35.5075H84.8227V35.5Z" fill="#F8D056"/>
<path d="M102.823 35.5L101.72 31.87C101.503 31.1575 100.498 31.1575 100.288 31.87L99.1777 35.5H95.8402C95.1127 35.5 94.8127 36.4375 95.4052 36.8575L98.1352 38.8075L97.0627 42.265C96.8452 42.9625 97.6552 43.525 98.2327 43.0825L101 40.9825L103.768 43.09C104.345 43.5325 105.155 42.97 104.938 42.2725L103.865 38.815L106.595 36.865C107.188 36.4375 106.888 35.5075 106.16 35.5075H102.823V35.5Z" fill="#F8D056"/>
<path d="M120.823 35.5L119.72 31.87C119.503 31.1575 118.498 31.1575 118.288 31.87L117.178 35.5H113.84C113.113 35.5 112.813 36.4375 113.405 36.8575L116.135 38.8075L115.063 42.265C114.845 42.9625 115.655 43.525 116.233 43.0825L119 40.9825L121.768 43.09C122.345 43.5325 123.155 42.97 122.938 42.2725L121.865 38.815L124.595 36.865C125.188 36.4375 124.888 35.5075 124.16 35.5075H120.823V35.5Z" fill="#F8D056"/>
<path d="M135.823 35.5L134.72 31.87C134.503 31.1575 133.498 31.1575 133.288 31.87L132.178 35.5H128.84C128.113 35.5 127.813 36.4375 128.405 36.8575L131.135 38.8075L130.063 42.265C129.845 42.9625 130.655 43.525 131.233 43.0825L134 40.9825L136.768 43.09C137.345 43.5325 138.155 42.97 137.938 42.2725L136.865 38.815L139.595 36.865C140.188 36.4375 139.888 35.5075 139.16 35.5075H135.823V35.5Z" fill="#F8D056"/>
<path d="M63.742 21.984H59.122V14.62H56.812V24H63.742V21.984ZM71.9168 20.486C71.8748 18.19 70.2788 16.762 68.2908 16.762C66.2468 16.762 64.5668 18.274 64.5668 20.486C64.5668 22.712 66.2468 24.21 68.2768 24.21C69.8868 24.21 71.1608 23.496 71.7628 22.012L69.7748 21.606C69.3968 22.292 68.7948 22.418 68.2768 22.418C67.5208 22.418 66.9468 21.9 66.7648 21.06H71.9168V20.486ZM68.2908 18.582C68.9348 18.582 69.4948 18.932 69.7048 19.688H66.8068C67.0168 18.974 67.6608 18.582 68.2908 18.582ZM76.5115 16.79C74.3835 16.79 72.6195 18.274 72.6195 20.486C72.6195 22.712 74.3835 24.196 76.5115 24.196C78.5975 24.196 80.3615 22.712 80.3615 20.486C80.3615 18.274 78.5975 16.79 76.5115 16.79ZM76.5115 22.306C75.6015 22.306 74.7755 21.592 74.7755 20.486C74.7755 19.394 75.6015 18.666 76.5115 18.666C77.3795 18.666 78.2055 19.394 78.2055 20.486C78.2055 21.592 77.3795 22.306 76.5115 22.306ZM90.931 19.156C91.561 19.086 92.471 18.47 92.471 17.182C92.471 15.642 91.351 14.62 89.629 14.62H84.771V24H89.643C91.687 24 92.737 22.922 92.737 21.368C92.737 19.954 91.799 19.282 90.931 19.212V19.156ZM87.081 16.482H89.181C89.769 16.482 90.231 16.86 90.231 17.448C90.231 18.078 89.783 18.498 89.097 18.498H87.081V16.482ZM87.081 22.138V20.08H89.279C89.937 20.08 90.385 20.472 90.385 21.088C90.385 21.732 89.979 22.138 89.237 22.138H87.081ZM100.929 20.486C100.887 18.19 99.2905 16.762 97.3025 16.762C95.2585 16.762 93.5785 18.274 93.5785 20.486C93.5785 22.712 95.2585 24.21 97.2885 24.21C98.8985 24.21 100.173 23.496 100.775 22.012L98.7865 21.606C98.4085 22.292 97.8065 22.418 97.2885 22.418C96.5325 22.418 95.9585 21.9 95.7765 21.06H100.929V20.486ZM97.3025 18.582C97.9465 18.582 98.5065 18.932 98.7165 19.688H95.8185C96.0285 18.974 96.6725 18.582 97.3025 18.582ZM106.755 16.874C105.607 16.874 104.837 17.476 104.333 18.316V16.972H102.093V24H104.333V21.802C104.333 19.982 105.187 19.17 106.755 19.17H107.161L107.259 16.93C107.091 16.888 106.951 16.874 106.755 16.874ZM115.402 16.972H113.204V17.434C112.7 17 112 16.762 111.09 16.762C109.256 16.762 107.702 18.204 107.702 20.15C107.702 22.138 109.256 23.594 111.09 23.594C112 23.594 112.7 23.356 113.204 22.922V23.118C113.204 24.224 112.476 24.826 111.454 24.826C110.726 24.826 110.334 24.588 109.802 23.958L107.94 24.966C108.626 26.1 109.858 26.66 111.468 26.66C113.75 26.66 115.402 25.47 115.402 23.3V16.972ZM111.566 21.76C110.586 21.76 109.886 21.088 109.886 20.15C109.886 19.212 110.586 18.554 111.566 18.554C112.462 18.554 113.204 19.212 113.204 20.15C113.204 21.088 112.462 21.76 111.566 21.76ZM116.561 22.166C116.799 23.608 118.213 24.21 119.865 24.21C121.713 24.21 123.057 23.398 123.057 21.844C123.057 20.808 122.441 20.01 121.111 19.73L119.459 19.394C119.011 19.296 118.927 19.1 118.927 18.904C118.927 18.652 119.123 18.358 119.725 18.358C120.411 18.358 120.831 18.75 120.901 19.184L122.945 18.778C122.665 17.56 121.503 16.762 119.753 16.762C117.975 16.762 116.729 17.7 116.729 19.142C116.729 20.248 117.471 20.948 118.773 21.186L120.201 21.466C120.719 21.564 120.901 21.746 120.901 21.984C120.901 22.292 120.579 22.544 119.991 22.544C119.389 22.544 118.843 22.32 118.745 21.718L116.561 22.166ZM127.672 16.79C125.544 16.79 123.78 18.274 123.78 20.486C123.78 22.712 125.544 24.196 127.672 24.196C129.758 24.196 131.522 22.712 131.522 20.486C131.522 18.274 129.758 16.79 127.672 16.79ZM127.672 22.306C126.762 22.306 125.936 21.592 125.936 20.486C125.936 19.394 126.762 18.666 127.672 18.666C128.54 18.666 129.366 19.394 129.366 20.486C129.366 21.592 128.54 22.306 127.672 22.306ZM137.073 16.762C136.191 16.762 135.449 17.084 134.917 17.644V16.972H132.677V24H134.917V20.738C134.917 19.38 135.491 18.778 136.373 18.778C137.087 18.778 137.577 19.338 137.577 20.164V24H139.803V19.688C139.803 17.924 138.711 16.762 137.073 16.762Z" fill="#2B2B59"/>
<rect x="10" y="56" width="142" height="9" rx="4.5" fill="#E8E8EB"/>
<rect x="6" y="119" width="101" height="9" rx="4.5" fill="#E8E8EB"/>
<rect x="10" y="103" width="137" height="9" rx="4.5" fill="#E8E8EB"/>
<rect x="10" y="87" width="124" height="9" rx="4.5" fill="#E8E8EB"/>
<rect x="10" y="71" width="133" height="9" rx="4.5" fill="#E8E8EB"/>
<defs>
<linearGradient id="paint0_linear_7_12" x1="-0.730769" y1="2.73077" x2="43.9231" y2="48.0769" gradientUnits="userSpaceOnUse">
<stop stop-color="#FF6972"/>
<stop offset="1" stop-color="#B903C9"/>
</linearGradient>
</defs>
</svg>
