<svg width="174" height="138" viewBox="0 0 174 138" fill="none" xmlns="http://www.w3.org/2000/svg">
<rect x="0.5" y="0.5" width="173" height="137" rx="2.5" fill="white" stroke="#E8E8E9"/>
<mask id="mask0_2_182" style="mask-type:alpha" maskUnits="userSpaceOnUse" x="10" y="10" width="36" height="36">
<rect x="10" y="10" width="36" height="36" rx="2.07692" fill="url(#paint0_linear_2_182)"/>
</mask>
<g mask="url(#mask0_2_182)">
<rect x="10" y="10" width="36" height="36" rx="2.07692" fill="#E8E8E9"/>
<path d="M30.55 34.8466H25.1713C25.1713 34.8466 25.307 38.9656 24.6483 40.1615H27.8945H31.1404C30.482 38.9656 30.55 34.8466 30.55 34.8466" fill="#F4AE7F"/>
<path d="M30.6264 37.4993C30.5709 36.7315 30.5537 35.98 30.5494 35.4742C30.5537 35.98 30.5709 36.7318 30.6267 37.4993C30.6267 37.4993 30.6267 37.4993 30.6264 37.4993V37.4993ZM25.1417 37.3779H25.1414C25.2104 36.0924 25.1725 34.8863 25.1714 34.8473C25.1725 34.8863 25.2104 36.0917 25.1417 37.3779ZM30.5494 35.4717C30.5494 35.4696 30.5494 35.4673 30.5491 35.4653C30.5494 35.4673 30.5494 35.4696 30.5494 35.4717ZM30.5491 35.4581C30.5491 35.4577 30.5491 35.4574 30.5491 35.457C30.5491 35.4574 30.5491 35.4577 30.5491 35.4581ZM30.5498 34.8703C30.5498 34.87 30.5498 34.8695 30.5498 34.8691C30.5498 34.8695 30.5498 34.87 30.5498 34.8703ZM30.5498 34.8642C30.5498 34.8627 30.5498 34.8617 30.5498 34.8606C30.5498 34.8617 30.5498 34.8627 30.5498 34.8642ZM30.5498 34.8578V34.8574V34.8578ZM30.5498 34.8553C30.5498 34.8549 30.5498 34.8549 30.5498 34.8546C30.5498 34.8549 30.5498 34.8549 30.5498 34.8553ZM30.5498 34.8528C30.5498 34.8524 30.5498 34.8516 30.5498 34.8512C30.5498 34.8516 30.5498 34.8524 30.5498 34.8528ZM30.5498 34.8509C30.5498 34.8505 30.5498 34.8502 30.5498 34.8498C30.5498 34.8502 30.5498 34.8505 30.5498 34.8509ZM30.5498 34.8489V34.8484V34.8489ZM30.5498 34.848C30.5498 34.8477 30.5498 34.8477 30.5498 34.8477C30.5498 34.8477 30.5498 34.8477 30.5498 34.848ZM30.5501 34.8477V34.8473V34.8477ZM25.1714 34.8473C25.1714 34.8466 25.1714 34.8466 25.1714 34.8466C25.1714 34.8466 25.1714 34.8466 25.1714 34.8473Z" fill="#F7D9D5"/>
<path d="M27.9516 38.2091C26.9464 38.2091 26.0407 37.8022 25.1418 37.3779C25.2105 36.0917 25.1725 34.8863 25.1715 34.8473C25.1715 34.8466 25.1715 34.8466 25.1715 34.8466H30.5502C30.5502 34.847 30.5502 34.847 30.5502 34.847C30.5502 34.8473 30.5502 34.8473 30.5502 34.8473V34.8477C30.5498 34.8477 30.5498 34.8477 30.5498 34.8477C30.5498 34.8477 30.5498 34.8477 30.5498 34.848V34.8484V34.8488C30.5498 34.8491 30.5498 34.8495 30.5498 34.8498C30.5498 34.8502 30.5498 34.8505 30.5498 34.8509V34.8512C30.5498 34.8516 30.5498 34.8523 30.5498 34.8527C30.5498 34.8534 30.5498 34.8537 30.5498 34.8545C30.5498 34.8548 30.5498 34.8548 30.5498 34.8553C30.5498 34.8559 30.5498 34.8567 30.5498 34.8573V34.8578C30.5498 34.8587 30.5498 34.8594 30.5498 34.8606C30.5498 34.8617 30.5498 34.8627 30.5498 34.8642C30.5498 34.8656 30.5498 34.8674 30.5498 34.8691C30.5498 34.8695 30.5498 34.8699 30.5498 34.8702C30.5498 34.872 30.5495 34.8741 30.5495 34.8763C30.5487 34.9508 30.5466 35.1602 30.5491 35.457C30.5491 35.4574 30.5491 35.4577 30.5491 35.4581C30.5491 35.4602 30.5491 35.4627 30.5491 35.4652C30.5495 35.4673 30.5495 35.4696 30.5495 35.4716C30.5495 35.4724 30.5495 35.473 30.5495 35.4742C30.5538 35.98 30.5709 36.7315 30.6264 37.4993C29.9001 37.8683 29.1143 38.115 28.3006 38.1926C28.1828 38.2041 28.0665 38.2091 27.9516 38.2091" fill="#ED966F"/>
<path d="M37.8663 42.4967L30.3744 39.5717H25.4063L17.9144 42.4967C17.9144 42.4967 15.2907 43.4372 15.5975 48H27.8488H27.9322H40.1835C40.5419 43.1564 37.8663 42.4967 37.8663 42.4967Z" fill="#F4AE7F"/>
<path d="M34.6532 27.0164C34.4316 28.3839 34.8161 29.5989 35.5098 29.7293C36.2029 29.861 36.9436 28.8594 37.1634 27.4911C37.3825 26.1233 36.9998 24.909 36.3056 24.7773C35.6126 24.6462 34.873 25.6479 34.6532 27.0164Z" fill="#F4AE7F"/>
<path d="M35.4867 26.6463C35.4867 26.6463 35.4971 26.5697 35.5247 26.4448C35.5512 26.3188 35.6059 26.1419 35.6915 25.9529C35.7781 25.7707 35.9188 25.5602 36.0946 25.5491C36.1383 25.5459 36.1827 25.5534 36.2281 25.5677L36.2958 25.6024L36.3448 25.6436C36.4168 25.7127 36.4744 25.819 36.512 25.9418C36.5535 26.0621 36.5797 26.197 36.5936 26.3302C36.6054 26.4637 36.6137 26.6033 36.5983 26.7222C36.5768 26.8593 36.5704 27 36.5457 27.1192C36.522 27.2409 36.5002 27.3558 36.4791 27.4621C36.4515 27.5688 36.43 27.6684 36.4107 27.7561C36.3914 27.8452 36.3645 27.9189 36.3484 27.9816C36.313 28.1062 36.2951 28.1803 36.2951 28.1803C36.2951 28.1803 36.3305 28.1176 36.3881 28.0034C36.415 27.9447 36.4547 27.8781 36.4884 27.7929C36.5235 27.7099 36.5632 27.615 36.6029 27.5101C36.6412 27.4034 36.6749 27.2821 36.7121 27.1539C36.7504 27.0261 36.7683 26.8951 36.7955 26.7566C36.8224 26.5983 36.826 26.4455 36.8127 26.2876C36.7998 26.133 36.7726 25.9758 36.7243 25.8247C36.6738 25.6762 36.5969 25.5301 36.4823 25.4238C36.4569 25.398 36.4189 25.374 36.3839 25.3526C36.3452 25.3321 36.3348 25.3314 36.2883 25.3139C36.2199 25.2981 36.1504 25.2921 36.0792 25.3039C35.936 25.3264 35.8164 25.4338 35.7395 25.5451C35.6593 25.6568 35.6113 25.7782 35.5748 25.8881C35.5039 26.1122 35.4892 26.3062 35.4814 26.4387C35.4767 26.5726 35.4867 26.6463 35.4867 26.6463" fill="#F39870"/>
<path d="M35.487 26.6463C35.487 26.6463 35.4233 26.5006 35.8797 26.4662C35.8797 26.4662 36.3898 26.56 36.0898 27.2409C36.025 27.3877 35.9696 27.5387 35.937 27.6995C35.8919 27.9275 35.9731 28.2375 35.8507 28.4405C35.6928 28.7018 35.2905 28.5529 35.2672 28.254C35.2486 28.0252 35.4841 27.6322 35.5919 27.4693C35.5919 27.4686 35.9198 26.9721 35.487 26.6463Z" fill="#F39870"/>
<path d="M35.2669 28.225L35.2315 28.2612C35.2096 28.2876 35.1853 28.331 35.1645 28.389C35.1516 28.4176 35.147 28.4498 35.1405 28.486C35.1348 28.5218 35.1262 28.5604 35.132 28.5987C35.1355 28.6378 35.1362 28.68 35.1434 28.7208C35.1513 28.7605 35.1674 28.7967 35.1806 28.835C35.1978 28.8697 35.2096 28.9113 35.2322 28.9392L35.2995 29.0176C35.3428 29.0716 35.3922 29.1021 35.4391 29.1171C35.529 29.156 35.5945 29.1554 35.5945 29.1554C35.5945 29.1554 35.5691 29.0731 35.5236 28.9897L35.4856 28.9259L35.4527 28.85L35.4151 28.7781L35.3858 28.7018C35.3593 28.6549 35.3471 28.6027 35.3303 28.5529L35.3106 28.477L35.2934 28.4026C35.2759 28.3088 35.2665 28.2243 35.2669 28.225" fill="#F39870"/>
<path d="M21.45 27.0164C21.6716 28.3839 21.2871 29.5989 20.5937 29.7293C19.9006 29.861 19.1603 28.8594 18.9402 27.4911C18.7207 26.1233 19.1034 24.909 19.7979 24.7773C20.4906 24.6462 21.2305 25.6479 21.45 27.0164Z" fill="#F4AE7F"/>
<path d="M20.6165 26.6463C20.6165 26.6463 20.6061 26.5697 20.5785 26.4448C20.552 26.3188 20.4976 26.1419 20.412 25.9529C20.3251 25.7707 20.1847 25.5602 20.0086 25.5491C19.9653 25.5459 19.9205 25.5534 19.8751 25.5677L19.8078 25.6024L19.7584 25.6436C19.6864 25.7127 19.6288 25.819 19.5912 25.9418C19.5493 26.0621 19.5235 26.197 19.5096 26.3302C19.4978 26.4637 19.4899 26.6033 19.5053 26.7222C19.5264 26.8593 19.5332 27 19.5579 27.1192C19.5815 27.2409 19.6034 27.3558 19.6241 27.4621C19.652 27.5688 19.6735 27.6684 19.6932 27.7561C19.7118 27.8452 19.739 27.9189 19.7548 27.9816C19.7906 28.1062 19.8085 28.1803 19.8085 28.1803C19.8085 28.1803 19.7723 28.1176 19.7151 28.0034C19.6882 27.9447 19.6488 27.8781 19.6152 27.7929C19.5801 27.7099 19.5404 27.615 19.5003 27.5101C19.462 27.4034 19.4283 27.2821 19.3911 27.1539C19.3528 27.0261 19.3349 26.8951 19.3077 26.7566C19.2808 26.5983 19.2772 26.4455 19.2905 26.2876C19.3034 26.133 19.3309 25.9758 19.3796 25.8247C19.4294 25.6762 19.5067 25.5301 19.6209 25.4238C19.6467 25.398 19.685 25.374 19.7201 25.3526C19.758 25.3321 19.7684 25.3314 19.8149 25.3139C19.8833 25.2981 19.9531 25.2921 20.024 25.3039C20.1675 25.3264 20.2871 25.4338 20.3644 25.5451C20.4439 25.6568 20.4919 25.7782 20.5287 25.8881C20.6 26.1122 20.614 26.3062 20.6218 26.4387C20.6265 26.5726 20.6165 26.6463 20.6165 26.6463" fill="#F39870"/>
<path d="M20.6166 26.6463C20.6166 26.6463 20.6807 26.5006 20.2239 26.4662C20.2239 26.4662 19.7141 26.56 20.0137 27.2409C20.0789 27.3877 20.134 27.5387 20.1666 27.6995C20.2121 27.9275 20.1308 28.2375 20.2532 28.4405C20.4114 28.7018 20.8131 28.5529 20.8367 28.254C20.855 28.0252 20.6198 27.6322 20.5117 27.4693C20.5117 27.4686 20.1838 26.9721 20.6166 26.6463" fill="#F39870"/>
<path d="M20.8366 28.225L20.8717 28.2612C20.8935 28.2876 20.9178 28.331 20.9386 28.389C20.9515 28.4176 20.9561 28.4498 20.9626 28.486C20.9683 28.5218 20.9769 28.5604 20.9712 28.5987C20.9676 28.6378 20.9672 28.68 20.9604 28.7208C20.9526 28.7605 20.9357 28.7967 20.9225 28.835C20.9057 28.8697 20.8935 28.9113 20.8709 28.9392L20.8036 29.0176C20.7607 29.0716 20.7109 29.1021 20.664 29.1171C20.5742 29.156 20.5083 29.1554 20.5083 29.1554C20.5083 29.1554 20.5341 29.0731 20.5795 28.9897L20.6178 28.9259L20.6504 28.85L20.688 28.7781L20.7174 28.7018C20.7442 28.6549 20.756 28.6027 20.7728 28.5529L20.7925 28.477L20.8097 28.4026C20.828 28.3088 20.8369 28.2243 20.8366 28.225" fill="#F39870"/>
<path d="M34.8699 15.9068C34.8699 15.9068 32.51 13.3218 27.8652 13.1789C23.2246 13.4224 20.8731 16.0969 20.8731 16.0976C19.6104 20.1657 20.4181 24.9351 20.9554 29.0624C21.3517 32.1103 23.4018 34.2431 25.9858 35.7276C25.9858 35.7276 26.8994 36.3198 28.1147 36.3866C29.3261 36.2939 30.2257 35.6844 30.2293 35.6821C32.7395 33.9803 34.6601 31.8776 35.1394 28.7795C35.5533 26.105 35.6471 23.1484 35.5547 20.4489C35.5039 18.9604 35.3449 17.3287 34.8699 15.9068" fill="#F4AE7F"/>
<path d="M25.8466 24.2317C25.8466 24.2317 24.1873 23.6732 22.4711 24.4604C22.8094 22.629 25.9808 23.3804 25.9808 23.3804C25.9808 23.3804 26.1899 23.4298 26.1673 23.7577C26.1673 23.7577 26.0828 24.3205 25.8466 24.2317Z" fill="#9A6553"/>
<path d="M29.7147 24.2317C29.7147 24.2317 31.6016 23.6732 33.3178 24.4604C32.9799 22.629 29.5804 23.3804 29.5804 23.3804C29.5804 23.3804 29.371 23.4298 29.3939 23.7577C29.3939 23.7577 29.4777 24.3205 29.7147 24.2317Z" fill="#9A6553"/>
<path d="M23.7406 25.9364C23.7435 26.467 24.0413 26.8958 24.4058 26.8937C24.7705 26.8922 25.0634 26.4591 25.0602 25.9282C25.0566 25.3969 24.7587 24.9684 24.395 24.9702C24.0306 24.9724 23.7374 25.4048 23.7406 25.9364Z" fill="#2A1811"/>
<path d="M24.1378 25.63C24.1378 25.7878 24.0104 25.9156 23.8528 25.9156C23.6946 25.9156 23.5672 25.7878 23.5672 25.63C23.5672 25.4721 23.6946 25.3443 23.8528 25.3443C24.0104 25.3443 24.1378 25.4721 24.1378 25.63Z" fill="white"/>
<path d="M32.049 25.9364C32.0451 26.467 31.7476 26.8958 31.3835 26.8937C31.0187 26.8922 30.7259 26.4591 30.7291 25.9282C30.7323 25.3969 31.0302 24.9684 31.3943 24.9702C31.7587 24.9724 32.0519 25.4048 32.049 25.9364" fill="#2A1811"/>
<path d="M31.6509 25.63C31.6509 25.7878 31.7787 25.9156 31.9362 25.9156C32.0941 25.9156 32.2219 25.7878 32.2219 25.63C32.2219 25.4721 32.0941 25.3443 31.9362 25.3443C31.7787 25.3443 31.6509 25.4721 31.6509 25.63Z" fill="white"/>
<path d="M26.2426 31.9259C26.2465 32.4392 26.9736 32.8552 27.8711 32.8552C28.7685 32.8552 29.4956 32.4392 29.4992 31.9259H26.2426Z" fill="white"/>
<path d="M29.4991 32.0038C29.8825 31.9109 29.9437 31.8732 29.9437 31.8732C29.9437 31.8732 29.6778 31.7612 29.3044 31.6484C28.345 31.2436 28.4105 31.7679 27.9 31.7665C27.6441 31.7748 27.3881 31.4955 27.1486 31.5292C26.9098 31.5568 26.6857 31.599 26.4946 31.6498C26.1112 31.7429 25.8556 31.8732 25.8556 31.8732C25.8556 31.8732 25.8595 31.9333 26.2425 32.0265C26.2425 32.0265 26.9943 31.9083 27.4647 31.9802C27.4647 31.9802 27.8989 32.0887 28.19 31.9981C28.19 31.9981 28.9779 31.9548 29.4991 32.0038" fill="#F36178"/>
<path d="M29.6233 31.8721C29.2478 32.2583 28.8379 32.8551 27.7833 32.8537C27.7833 32.8537 26.5715 32.9091 26.1727 31.8721H25.8455L25.8781 31.9498C25.9615 32.0976 26.0306 32.2734 26.1548 32.4306C26.215 32.5107 26.2762 32.5942 26.3395 32.678C26.404 32.762 26.4924 32.8308 26.5715 32.9091L26.6961 33.0248L26.8432 33.1222C26.9463 33.1856 27.0312 33.2632 27.1658 33.3008C27.2871 33.343 27.4282 33.4011 27.5384 33.4201L27.6988 33.4415L27.7794 33.4518L27.8194 33.458L27.8391 33.4605L27.8935 33.4637L28.2734 33.416C28.3976 33.3924 28.5114 33.3373 28.6285 33.298C28.7502 33.2639 28.8418 33.1833 28.9435 33.1216L29.0896 33.0248L29.2149 32.9084C29.294 32.8301 29.382 32.7613 29.4468 32.6773C29.5102 32.5935 29.5718 32.51 29.6316 32.4299C29.7554 32.2734 29.8249 32.097 29.9083 31.948L29.9401 31.8721H29.6233" fill="#F36178"/>
<path d="M27.9089 33.2443C29.2306 33.0456 29.4132 32.2523 29.4132 32.2523C28.8723 33.0477 27.891 33.0255 27.891 33.0255C27.891 33.0255 27.804 33.0399 27.813 33.1491C27.813 33.1491 27.8416 33.254 27.9089 33.2443" fill="white"/>
<path d="M37.4371 21.9191C37.4371 21.9191 37.9795 12.7712 30.406 11.1062C30.406 11.1062 24.6485 10.1869 22.4888 13.7578L26.9572 17.3706C26.9572 17.3706 29.1742 21.5264 33.6332 23.1037C33.6332 23.1037 35.4804 23.5755 35.5946 27.0222C35.5946 27.0222 35.8549 25.127 36.9191 25.2974C36.9191 25.2974 37.4558 22.9372 37.4371 21.9191" fill="#9A6553"/>
<path d="M26.9572 29.561L26.9923 29.5535C27.0141 29.5491 27.0489 29.5367 27.0868 29.5305C27.1648 29.5133 27.2687 29.494 27.3814 29.4747C27.4931 29.4593 27.6138 29.4428 27.7319 29.4367C27.8504 29.4271 27.9674 29.4263 28.0809 29.4271C28.1944 29.4318 28.3054 29.4389 28.4164 29.4493C28.4729 29.4587 28.5277 29.4615 28.5835 29.4686C28.6405 29.4791 28.6956 29.4858 28.7489 29.4912C28.8023 29.4961 28.8588 29.5112 28.9075 29.5172C28.9548 29.5195 29.002 29.5291 29.041 29.5351C29.079 29.5383 29.1151 29.5498 29.1381 29.5535L29.1742 29.561L29.1649 29.5954C29.1581 29.6161 29.1513 29.6533 29.1345 29.6895C29.1044 29.7694 29.05 29.8761 28.9558 29.9762C28.91 30.0285 28.8556 30.079 28.7901 30.1212C28.726 30.1653 28.6548 30.2114 28.5757 30.2398C28.4969 30.2722 28.4128 30.3027 28.3247 30.3137C28.237 30.3328 28.1475 30.3396 28.058 30.3357C27.9678 30.3371 27.8808 30.3192 27.7956 30.302C27.7108 30.2834 27.6306 30.2543 27.5558 30.221C27.4072 30.1517 27.2823 30.0618 27.191 29.9637C27.0993 29.866 27.0378 29.7671 27.003 29.6895C26.9841 29.6548 26.9748 29.6175 26.9672 29.5961L26.9572 29.561" fill="#F59679"/>
<path d="M31.1406 39.8705L37.6205 42.4005C35.8868 43.6856 35.7479 45.847 35.7686 48H19.8645C19.8849 47.4151 19.8631 46.8413 19.8244 46.3218C19.7234 44.9865 19.3544 43.149 18.0846 42.4294L24.7868 39.8134C24.7868 39.8134 24.9983 41.9 27.8998 41.8879C27.8998 41.8879 30.9699 41.9494 31.1406 39.8705" fill="#4966B6"/>
<path d="M21.6366 22.8806C20.6113 23.6263 20.8329 25.4313 20.8376 27.0454C20.8376 27.0454 20.6228 24.7658 19.2828 25.0744C19.2828 25.0744 16.7075 15.1539 23.1344 13.1789L27.4649 17.1962C27.4649 17.1962 26.957 19.0112 21.6366 22.8806Z" fill="#9A6553"/>
<path d="M18.878 19.0112C18.878 19.0112 14.8013 37.5268 22.6988 40.1615C22.6988 40.1615 22.4886 37.2129 25.1764 36.3866L25.1792 35.2282C25.1792 35.2282 23.0027 33.618 22.7489 33.1C22.7489 33.1 21.2887 31.686 20.9554 29.0623C20.9554 29.0623 20.6611 25.3146 20.9994 23.8425L18.878 19.0112Z" fill="#9A6553"/>
<path d="M36.9272 19.0112C36.9272 19.0112 41.0047 37.5268 33.1068 40.1615C33.1068 40.1615 33.317 37.2129 30.6292 36.3866L30.6267 35.2282C30.6267 35.2282 32.8025 33.618 33.0567 33.1C33.0567 33.1 34.5169 31.686 34.8506 29.0623C34.8506 29.0623 35.1445 25.3146 34.8065 23.8425L36.9272 19.0112Z" fill="#9A6553"/>
</g>
<path d="M66.8227 35.5L65.7202 31.87C65.5027 31.1575 64.4977 31.1575 64.2877 31.87L63.1777 35.5H59.8402C59.1127 35.5 58.8127 36.4375 59.4052 36.8575L62.1352 38.8075L61.0627 42.265C60.8452 42.9625 61.6552 43.525 62.2327 43.0825L65.0002 40.9825L67.7677 43.09C68.3452 43.5325 69.1552 42.97 68.9377 42.2725L67.8652 38.815L70.5952 36.865C71.1877 36.4375 70.8877 35.5075 70.1602 35.5075H66.8227V35.5Z" fill="#F8D056"/>
<path d="M84.8227 35.5L83.7202 31.87C83.5027 31.1575 82.4977 31.1575 82.2877 31.87L81.1777 35.5H77.8402C77.1127 35.5 76.8127 36.4375 77.4052 36.8575L80.1352 38.8075L79.0627 42.265C78.8452 42.9625 79.6552 43.525 80.2327 43.0825L83.0002 40.9825L85.7677 43.09C86.3452 43.5325 87.1552 42.97 86.9377 42.2725L85.8652 38.815L88.5952 36.865C89.1877 36.4375 88.8877 35.5075 88.1602 35.5075H84.8227V35.5Z" fill="#F8D056"/>
<path d="M102.823 35.5L101.72 31.87C101.503 31.1575 100.498 31.1575 100.288 31.87L99.1777 35.5H95.8402C95.1127 35.5 94.8127 36.4375 95.4052 36.8575L98.1352 38.8075L97.0627 42.265C96.8452 42.9625 97.6552 43.525 98.2327 43.0825L101 40.9825L103.768 43.09C104.345 43.5325 105.155 42.97 104.938 42.2725L103.865 38.815L106.595 36.865C107.188 36.4375 106.888 35.5075 106.16 35.5075H102.823V35.5Z" fill="#F8D056"/>
<path d="M120.823 35.5L119.72 31.87C119.503 31.1575 118.498 31.1575 118.288 31.87L117.178 35.5H113.84C113.113 35.5 112.813 36.4375 113.405 36.8575L116.135 38.8075L115.063 42.265C114.845 42.9625 115.655 43.525 116.233 43.0825L119 40.9825L121.768 43.09C122.345 43.5325 123.155 42.97 122.938 42.2725L121.865 38.815L124.595 36.865C125.188 36.4375 124.888 35.5075 124.16 35.5075H120.823V35.5Z" fill="#E8E8E9"/>
<path d="M135.823 35.5L134.72 31.87C134.503 31.1575 133.498 31.1575 133.288 31.87L132.178 35.5H128.84C128.113 35.5 127.813 36.4375 128.405 36.8575L131.135 38.8075L130.063 42.265C129.845 42.9625 130.655 43.525 131.233 43.0825L134 40.9825L136.768 43.09C137.345 43.5325 138.155 42.97 137.938 42.2725L136.865 38.815L139.595 36.865C140.188 36.4375 139.888 35.5075 139.16 35.5075H135.823V35.5Z" fill="#E8E8E9"/>
<path d="M65.38 13.62L62.23 19.43L59.08 13.62H56.812V23H59.052V18.296L61.516 23H62.944L65.394 18.324V23H67.634V13.62H65.38ZM72.6834 15.79C71.5914 15.79 70.6674 16.14 69.9114 16.826C69.1694 17.512 68.7914 18.408 68.7914 19.486C68.7914 20.578 69.1694 21.474 69.9114 22.16C70.6674 22.846 71.5914 23.196 72.6834 23.196C73.7614 23.196 74.6714 22.846 75.4134 22.16C76.1554 21.474 76.5334 20.578 76.5334 19.486C76.5334 18.408 76.1554 17.512 75.4134 16.826C74.6714 16.14 73.7614 15.79 72.6834 15.79ZM72.6834 21.306C71.7314 21.306 70.9474 20.55 70.9474 19.486C70.9474 18.954 71.1154 18.52 71.4654 18.184C71.8154 17.834 72.2214 17.666 72.6834 17.666C73.1314 17.666 73.5234 17.834 73.8594 18.184C74.2094 18.52 74.3774 18.954 74.3774 19.486C74.3774 20.018 74.2094 20.452 73.8734 20.802C73.5374 21.138 73.1454 21.306 72.6834 21.306ZM82.085 15.762C81.203 15.762 80.489 16.056 79.929 16.644V15.972H77.689V23H79.929V19.738C79.929 18.408 80.475 17.778 81.385 17.778C82.099 17.778 82.589 18.338 82.589 19.164V23H84.815V18.688C84.815 17.806 84.563 17.106 84.059 16.574C83.569 16.028 82.911 15.762 82.085 15.762ZM88.8773 13.9C88.8773 13.214 88.3173 12.626 87.5753 12.626C86.8333 12.626 86.2873 13.186 86.2873 13.9C86.2873 14.614 86.8333 15.146 87.5753 15.146C88.3173 15.146 88.8773 14.614 88.8773 13.9ZM88.6953 15.972H86.4552V23H88.6953V15.972ZM93.8051 21.25C92.7971 21.25 92.1251 20.536 92.1251 19.486C92.1251 18.464 92.7971 17.722 93.8051 17.722C94.5471 17.722 95.1071 18.142 95.2891 18.968L97.3891 18.464C97.1931 17.652 96.7591 16.994 96.1011 16.504C95.4431 16.014 94.6731 15.762 93.8051 15.762C92.7271 15.762 91.8171 16.112 91.0751 16.812C90.3331 17.512 89.9691 18.408 89.9691 19.486C89.9691 20.578 90.3331 21.474 91.0751 22.174C91.8171 22.86 92.7271 23.21 93.8051 23.21C94.6871 23.21 95.4711 22.958 96.1291 22.454C96.7871 21.95 97.2071 21.292 97.3891 20.466L95.3311 20.018C95.0931 20.844 94.5891 21.25 93.8051 21.25ZM103.704 15.972V16.532C103.13 16.014 102.402 15.762 101.52 15.762C100.568 15.762 99.7562 16.112 99.0842 16.812C98.4262 17.512 98.0902 18.408 98.0902 19.486C98.0902 20.578 98.4262 21.474 99.0842 22.174C99.7562 22.86 100.568 23.21 101.52 23.21C102.402 23.21 103.13 22.958 103.704 22.44V23H105.944V15.972H103.704ZM101.982 21.306C100.988 21.306 100.288 20.564 100.288 19.486C100.288 18.422 100.988 17.666 101.982 17.666C102.444 17.666 102.85 17.834 103.186 18.184C103.536 18.534 103.704 18.968 103.704 19.486C103.704 20.018 103.536 20.452 103.186 20.802C102.85 21.138 102.444 21.306 101.982 21.306ZM114.498 13.41C113.392 13.41 112.496 13.676 111.81 14.208C111.124 14.74 110.788 15.454 110.788 16.364C110.788 17.792 111.628 18.702 113.308 19.08L115.268 19.5C115.926 19.626 116.136 19.878 116.136 20.326C116.136 20.9 115.604 21.292 114.75 21.292C113.742 21.292 113.126 20.83 112.902 19.906L110.522 20.368C110.648 21.264 111.082 21.964 111.838 22.468C112.608 22.958 113.532 23.21 114.624 23.21C115.73 23.21 116.64 22.944 117.382 22.412C118.124 21.88 118.488 21.138 118.488 20.172C118.488 18.73 117.634 17.82 115.912 17.442L113.966 17.008C113.462 16.896 113.21 16.63 113.21 16.224C113.21 15.678 113.728 15.272 114.47 15.272C115.254 15.272 115.94 15.748 116.108 16.588L118.376 16.126C118.026 14.432 116.556 13.41 114.498 13.41ZM128.912 15.762C127.862 15.762 127.022 16.154 126.42 16.952C125.93 16.154 125.16 15.762 124.124 15.762C123.256 15.762 122.57 16.042 122.052 16.616V15.972H119.812V23H122.052V19.556C122.052 18.394 122.556 17.778 123.396 17.778C124.082 17.778 124.586 18.296 124.586 19.08V23H126.826V19.556C126.826 18.394 127.358 17.778 128.198 17.778C128.87 17.778 129.374 18.296 129.374 19.08V23H131.6V18.604C131.6 17.764 131.348 17.078 130.83 16.56C130.312 16.028 129.682 15.762 128.912 15.762ZM135.662 13.9C135.662 13.214 135.102 12.626 134.36 12.626C133.618 12.626 133.072 13.186 133.072 13.9C133.072 14.614 133.618 15.146 134.36 15.146C135.102 15.146 135.662 14.614 135.662 13.9ZM135.48 15.972H133.24V23H135.48V15.972ZM141.906 20.928C141.584 21.11 141.234 21.208 140.884 21.208C140.254 21.208 139.946 20.872 139.946 20.186V17.75H142.018V15.972H139.946V13.9H137.706V15.972H136.432V17.75H137.706V20.41C137.706 22.244 138.728 23.21 140.506 23.21C141.136 23.21 141.78 23.042 142.424 22.692L141.906 20.928ZM147.683 15.762C146.801 15.762 146.087 16.056 145.513 16.644V12.92H143.273V23H145.513V19.738C145.513 18.436 146.059 17.778 146.955 17.778C147.683 17.778 148.173 18.338 148.173 19.164V23H150.399V18.688C150.399 17.806 150.147 17.106 149.643 16.574C149.153 16.028 148.495 15.762 147.683 15.762Z" fill="#2B2B59"/>
<rect x="10" y="56" width="142" height="9" rx="4.5" fill="#E8E8EB"/>
<rect x="10" y="119" width="101" height="9" rx="4.5" fill="#E8E8EB"/>
<rect x="10" y="103" width="137" height="9" rx="4.5" fill="#E8E8EB"/>
<rect x="10" y="87" width="124" height="9" rx="4.5" fill="#E8E8EB"/>
<rect x="10" y="71" width="133" height="9" rx="4.5" fill="#E8E8EB"/>
<defs>
<linearGradient id="paint0_linear_2_182" x1="-0.730769" y1="2.73077" x2="43.9231" y2="48.0769" gradientUnits="userSpaceOnUse">
<stop stop-color="#FF6972"/>
<stop offset="1" stop-color="#B903C9"/>
</linearGradient>
</defs>
</svg>
